<svg width="53" height="47" viewBox="0 0 53 47" fill="none" xmlns="http://www.w3.org/2000/svg">
<g clip-path="url(#clip0_477_415)">
<path d="M45.5312 24.866V11.3779H10.2789V46.6337H23.0883C23.0883 45.3562 23.5958 44.1311 24.4991 43.2278C25.4024 42.3244 26.6275 41.817 27.905 41.817C29.1825 41.817 30.4076 42.3244 31.311 43.2278C32.2143 44.1311 32.7217 45.3562 32.7217 46.6337H45.5312V34.4995C46.8087 34.4995 48.0338 33.992 48.9371 33.0887C49.8404 32.1854 50.3479 30.9602 50.3479 29.6827C50.3479 28.4053 49.8404 27.1801 48.9371 26.2768C48.0338 25.3735 46.8087 24.866 45.5312 24.866Z" fill="#0064A2"/>
<path d="M10.1043 46.8062H23.0895V46.4554H10.4551V11.5532H45.5324V11.2031H10.1043V46.8062Z" fill="black"/>
<path d="M50.9256 17.6357L50.9326 17.5413L50.7443 17.5273L50.7374 17.6211C50.7107 17.9751 50.7214 18.3308 50.7693 18.6825L50.7825 18.7763L50.9701 18.7499L50.9569 18.6562C50.9102 18.3181 50.8997 17.976 50.9256 17.6357Z" fill="#FFFFFD"/>
<path d="M51.341 15.5979C51.2307 15.7845 51.1361 15.9799 51.0582 16.1821C51.0089 16.3099 50.9645 16.4426 50.9256 16.5773L50.8992 16.6677L51.0805 16.7204L51.1069 16.6302C51.1444 16.5009 51.1874 16.3731 51.2347 16.2502C51.3089 16.0579 51.3988 15.872 51.5035 15.6944L51.5521 15.6132L51.3896 15.5166L51.341 15.5979Z" fill="#FFFFFD"/>
<path d="M51.2168 19.6403L51.1807 19.5527L51.0063 19.6222L51.0418 19.7097C51.1744 20.0433 51.3623 20.3521 51.5975 20.6232L51.66 20.6927L51.7989 20.5669L51.7364 20.4975C51.5162 20.243 51.3405 19.9532 51.2168 19.6403Z" fill="#FFFFFD"/>
<path d="M43.3054 10.8648C42.9581 10.8946 42.6108 10.9342 42.2634 10.9821L42.1697 10.9954L42.1954 11.1822L42.2892 11.1697C42.6309 11.1225 42.9775 11.0829 43.3214 11.053L43.4152 11.0447L43.3992 10.8564L43.3054 10.8648Z" fill="#FFFFFD"/>
<path d="M50.5031 11.8896L50.4184 11.8486L50.3357 12.0188L50.4211 12.0605C50.7324 12.209 51.034 12.377 51.3242 12.5634L51.4034 12.6148L51.5062 12.4565L51.427 12.405C51.13 12.2143 50.8214 12.0422 50.5031 11.8896Z" fill="#FFFFFD"/>
<path d="M52.8804 14.1538C52.5654 14.3203 52.2733 14.527 52.0114 14.7686L51.9419 14.8325L52.0704 14.9715L52.1399 14.9068C52.3897 14.6765 52.6683 14.4795 52.9686 14.3206L53.052 14.2761L52.9631 14.1094L52.8804 14.1538Z" fill="#FFFFFD"/>
<path d="M45.4017 10.7945C45.0592 10.7869 44.707 10.7889 44.3527 10.8015L44.2583 10.8049L44.2652 10.9939H44.3597C44.707 10.9821 45.0585 10.9793 45.3975 10.9876H45.492L45.4961 10.798L45.4017 10.7945Z" fill="#FFFFFD"/>
<path d="M48.5209 11.1863L48.4285 11.1641L48.3834 11.3475L48.475 11.3704C48.8168 11.4544 49.1503 11.5538 49.4663 11.6649L49.5552 11.6962L49.6185 11.5183L49.5289 11.4864C49.2072 11.3732 48.8682 11.2752 48.5209 11.1863Z" fill="#FFFFFD"/>
<path d="M53.5215 21.2432C53.374 21.2508 53.2261 21.245 53.0797 21.2258C52.8954 21.2014 52.7151 21.1531 52.5434 21.082L52.4559 21.0459L52.3829 21.2203L52.4704 21.2564C52.6574 21.3343 52.8539 21.387 53.0547 21.4134C53.2126 21.4346 53.3721 21.4411 53.5312 21.4328L53.6257 21.4287L53.6166 21.2397L53.5215 21.2432Z" fill="#FFFFFD"/>
<path d="M46.4481 10.8511L46.3543 10.8428L46.3376 11.031L46.4321 11.0394C46.7795 11.0699 47.1219 11.1088 47.4609 11.1651L47.554 11.1804L47.5839 10.9935L47.4908 10.9789C47.1476 10.9234 46.8017 10.8817 46.4481 10.8511Z" fill="#FFFFFD"/>
<path d="M52.9172 13.8676L52.9867 13.9371L53.12 13.803L53.0506 13.7336C52.8054 13.4891 52.5428 13.2515 52.2698 13.0285L52.1968 12.9688L52.0767 13.1146L52.1503 13.1751C52.4174 13.3929 52.6734 13.6241 52.9172 13.8676Z" fill="#FFFFFD"/>
<path d="M37.2075 11.3318L35.2041 12.8038L37.4604 12.5523C37.5201 12.5454 40.9691 10.8018 40.9691 10.8018L42.102 11.1241L40.9281 9.6084L37.2075 11.3318Z" fill="#8E8B9E"/>
<path d="M40.9274 9.61124L40.6162 7.44531L35.2041 12.8053L40.9274 9.61124Z" fill="#CCCCCC"/>
<path d="M35.2042 12.805L41.3116 13.1016L40.9684 10.8037L35.2042 12.805Z" fill="#CCCCCC"/>
<path d="M51.4174 17.1108L50.4616 17.718C50.4469 17.7272 50.4297 17.7316 50.4124 17.7306C50.3951 17.7296 50.3785 17.7233 50.365 17.7124C50.3554 17.7047 50.3477 17.695 50.3424 17.6839C50.3371 17.6729 50.3344 17.6608 50.3344 17.6485C50.3344 17.6362 50.3371 17.6241 50.3424 17.6131C50.3477 17.602 50.3554 17.5922 50.365 17.5846L51.6452 16.5086C51.6789 16.4822 51.706 16.4484 51.7245 16.4099C51.743 16.3713 51.7523 16.329 51.7518 16.2863C51.7512 16.2435 51.7409 16.2015 51.7214 16.1634C51.702 16.1253 51.674 16.0923 51.6397 16.0668C51.5618 16.0084 51.4668 15.9773 51.3695 15.9784C51.2721 15.9795 51.1778 16.0128 51.1013 16.073L49.7961 17.1699C49.7812 17.1822 49.7626 17.1889 49.7433 17.1889C49.724 17.1889 49.7053 17.1822 49.6905 17.1699L49.669 17.1525C49.6518 17.1387 49.6408 17.1187 49.6383 17.0969C49.6358 17.075 49.6421 17.0531 49.6557 17.0358L50.8367 15.5597C50.8931 15.4918 50.9216 15.4049 50.9163 15.3168C50.911 15.2287 50.8723 15.1459 50.8082 15.0852C50.7737 15.0535 50.7332 15.0293 50.6889 15.014C50.6447 14.9987 50.5978 14.9926 50.5512 14.9962C50.5045 14.9998 50.4591 15.0129 50.4178 15.0348C50.3764 15.0567 50.34 15.0869 50.3108 15.1234L49.1209 16.6086C49.107 16.6256 49.0869 16.6365 49.0651 16.6388C49.0432 16.6412 49.0213 16.6348 49.0042 16.6211L48.9347 16.5655C48.9189 16.553 48.9082 16.5352 48.9046 16.5153C48.901 16.4955 48.9048 16.4751 48.9152 16.4579L49.8329 14.9456C49.88 14.8709 49.8969 14.781 49.8801 14.6943C49.8634 14.6076 49.8142 14.5305 49.7426 14.4788C49.7043 14.4523 49.6611 14.4339 49.6154 14.4247C49.5698 14.4155 49.5228 14.4157 49.4773 14.4253C49.4318 14.435 49.3887 14.4538 49.3507 14.4807C49.3127 14.5075 49.2806 14.5419 49.2563 14.5816C49.2563 14.5816 47.7343 16.8114 47.4676 17.1407L47.1786 16.1966C47.1687 16.1066 47.1233 16.0241 47.0526 15.9675C46.9818 15.9108 46.8915 15.8846 46.8014 15.8945C46.7113 15.9045 46.6289 15.9498 46.5722 16.0205C46.5155 16.0912 46.4893 16.1816 46.4992 16.2717L46.4846 18.4716C46.4978 18.5939 46.6931 18.7495 46.8737 18.8357C48.3463 20.2125 48.5846 20.4125 49.016 20.7473L50.3059 19.0211C50.6783 18.5231 51.1383 18.097 51.6633 17.7638L51.7946 17.6797C51.8342 17.6547 51.8681 17.6218 51.8944 17.5831C51.9207 17.5444 51.9388 17.5006 51.9475 17.4546C51.9561 17.4086 51.9552 17.3613 51.9448 17.3157C51.9344 17.27 51.9147 17.227 51.887 17.1893C51.8334 17.1189 51.755 17.0715 51.6678 17.057C51.5805 17.0424 51.4909 17.0616 51.4174 17.1108Z" fill="#FE9F73"/>
<path d="M29.9228 40.9465L25.5666 42.5102C25.5666 42.5102 25.577 42.7769 25.5986 43.2695C25.6257 43.8891 25.668 44.8672 25.7319 46.1175C25.7375 46.2391 25.7438 46.3642 25.7507 46.4906H34.8583L34.8618 46.1175L34.8965 42.836V42.6561L34.9097 41.4015L34.5395 39.2891L29.9228 40.9465Z" fill="#F9B870"/>
<path d="M18.958 42.7427C18.958 42.8879 18.9489 43.5839 18.9427 44.7023C18.9427 45.1191 18.9385 45.5908 18.9364 46.1153C18.9364 46.2368 18.9364 46.3612 18.9364 46.4883H28.8352L28.8561 46.2452L28.8825 46.1153L29.4493 43.3019L29.4722 43.1873L29.4854 43.1227L29.9238 40.9443L30.5622 37.7773L18.9614 42.7142C18.9614 42.7142 18.9586 42.7261 18.958 42.7427Z" fill="#FEC786"/>
<path d="M18.9457 44.7061C18.9338 44.7061 18.9225 44.7107 18.914 44.719C18.9056 44.7274 18.9007 44.7387 18.9005 44.7505C18.8839 45.1729 18.8721 45.6299 18.863 46.119C18.863 46.2412 18.8609 46.3656 18.8568 46.492H18.9478C18.9478 46.3656 18.9499 46.2412 18.954 46.119C18.9624 45.6327 18.9749 45.1743 18.9908 44.7533C18.9911 44.7472 18.9902 44.7411 18.988 44.7354C18.9859 44.7296 18.9826 44.7244 18.9784 44.72C18.9742 44.7156 18.9691 44.7121 18.9635 44.7097C18.9579 44.7073 18.9518 44.706 18.9457 44.7061Z" fill="#21111D"/>
<path d="M45.7497 17.6602L45.4281 18.0644C47.0994 18.8084 49.189 21.4161 49.189 21.4161L49.6419 20.8062C48.6075 18.4632 45.7497 17.6602 45.7497 17.6602Z" fill="#FFC75A"/>
<path d="M45.2578 18.0344L40.0834 23.7098L34.0218 18.2109C33.2132 17.7204 26.9996 17.6142 26.9996 17.6142C26.9996 17.6142 19.928 17.453 19.1194 17.9441C18.3108 18.4353 15.3377 26.5169 14.8765 30.1832C14.4152 33.8496 14.8765 36.2233 17.6759 36.656L18.695 36.6782L18.7728 42.7113C18.7728 42.7113 24.4161 43.9812 35.2263 42.7113L35.2791 42.6419L35.0013 27.2671C35.0013 27.2671 40.0584 30.6591 41.5734 30.7237C43.0884 30.7883 49.3535 21.4848 49.3535 21.4848C48.0378 18.4547 45.2578 18.0344 45.2578 18.0344Z" fill="#FFFFFD"/>
<path d="M33.7036 33.1178C34.5185 32.3995 33.6647 32.2787 33.6647 32.2787C34.0628 31.848 33.9697 31.6472 33.8238 31.5542C33.7702 31.5216 33.7098 31.5021 33.6474 31.497C33.5849 31.4919 33.5221 31.5015 33.464 31.525C33.0896 31.6708 31.9462 32.1189 31.248 32.4419C30.7514 32.4065 30.9097 31.5694 31.132 31.1408C31.246 30.9199 31.2543 30.5545 30.7152 30.9227C30.2748 31.2228 29.6135 32.212 29.6135 32.212L26.8467 31.9459L27.2586 35.7589C27.2586 35.7589 30.4172 35.7144 30.8931 35.7116C31.3689 35.7089 32.9631 35.165 33.4445 34.7461C34.3177 33.9861 33.7682 33.9472 33.7682 33.9472C34.6067 33.072 33.7036 33.1178 33.7036 33.1178Z" fill="#FE9F73"/>
<path d="M33.6331 32.2317C33.6275 32.2317 33.0503 32.629 32.6404 32.7985C32.6276 32.8035 32.617 32.813 32.6106 32.8252C32.6042 32.8374 32.6025 32.8515 32.6057 32.8649C32.6089 32.8783 32.6169 32.8901 32.6281 32.8981C32.6393 32.906 32.6531 32.9097 32.6668 32.9083C32.6727 32.9075 32.6786 32.9061 32.6842 32.9041C33.1051 32.7304 33.674 32.3421 33.6977 32.3261C33.7039 32.3219 33.7092 32.3165 33.7133 32.3102C33.7174 32.3039 33.7202 32.2969 33.7216 32.2895C33.723 32.2821 33.7229 32.2745 33.7214 32.2671C33.7198 32.2598 33.7168 32.2528 33.7126 32.2466C33.7084 32.2404 33.7029 32.2351 33.6966 32.231C33.6904 32.2269 33.6833 32.2241 33.6759 32.2227C33.6685 32.2213 33.661 32.2214 33.6536 32.2229C33.6463 32.2244 33.6393 32.2274 33.6331 32.2317Z" fill="#F07162"/>
<path d="M33.6715 33.0707C33.3734 33.2677 33.0472 33.4186 32.7039 33.518C32.6907 33.5223 32.6794 33.5311 32.6722 33.543C32.665 33.5549 32.6623 33.5691 32.6647 33.5828C32.667 33.5965 32.6743 33.6088 32.6851 33.6176C32.6958 33.6264 32.7094 33.631 32.7233 33.6305C32.7268 33.6312 32.7303 33.6312 32.7338 33.6305C33.09 33.5285 33.4284 33.372 33.7368 33.1665C33.7493 33.1579 33.7578 33.1446 33.7604 33.1297C33.7631 33.1148 33.7597 33.0994 33.7511 33.087C33.7424 33.0746 33.7292 33.0661 33.7143 33.0634C33.6993 33.0607 33.684 33.0641 33.6715 33.0728V33.0707Z" fill="#F07162"/>
<path d="M33.7355 33.9022C33.4789 34.0884 33.1952 34.2339 32.8942 34.3335C32.8801 34.337 32.8677 34.3457 32.8598 34.3579C32.8519 34.3702 32.8489 34.385 32.8516 34.3993C32.8543 34.4137 32.8623 34.4264 32.8742 34.435C32.886 34.4436 32.9006 34.4473 32.9151 34.4454H32.9276C33.2418 34.3427 33.5377 34.1908 33.8042 33.9952C33.8103 33.9908 33.8154 33.9852 33.8192 33.9787C33.8231 33.9723 33.8256 33.9651 33.8266 33.9576C33.8277 33.9502 33.8272 33.9426 33.8253 33.9353C33.8233 33.9281 33.82 33.9213 33.8153 33.9154C33.8064 33.9031 33.7931 33.8948 33.7781 33.8924C33.7632 33.8899 33.7478 33.8934 33.7355 33.9022Z" fill="#F07162"/>
<path d="M21.2568 30.1407L20.1308 31.093L20.2461 31.2292L21.4291 30.2296L21.8646 24.9335L21.6868 24.9189L21.2568 30.1407Z" fill="#21111D"/>
<path d="M14.9641 30.1912L14.7869 30.1689C14.5306 32.2022 14.5883 33.629 14.969 34.6599C15.4066 35.8477 16.2888 36.5292 17.6621 36.7438L18.6923 36.7668V36.5883L17.6802 36.5667C15.2301 36.1819 14.4424 34.3382 14.9641 30.1912Z" fill="#21111D"/>
<path d="M28.5947 31.0361C29.049 33.018 28.2432 36.5878 28.2432 36.5878H28.9344C29.7423 34.8414 29.1504 31.0361 29.1504 31.0361H28.5947Z" fill="#FFC75A"/>
<path d="M25.6875 30.4629L25.2138 33.2026C25.2138 33.2026 24.6046 35.6929 24.8831 36.2702C25.327 37.1885 28.1542 36.9648 28.1542 36.9648C28.1542 36.9648 28.2932 36.3674 28.3578 36.018C29.0344 32.4183 28.4717 30.6435 28.4717 30.6435L25.6875 30.4629Z" fill="#FFFFFD"/>
<path d="M28.5341 30.5563L21.3472 30.0957L21.3354 30.2742L28.4077 30.7271C29.078 32.5784 28.2187 36.3163 28.0847 36.872L18.6978 36.5852L18.6929 36.7637L28.2243 37.0547L28.2417 36.9853C28.2868 36.8081 29.3364 32.6333 28.5556 30.6097L28.5341 30.5563Z" fill="#21111D"/>
<path d="M34.2479 18.2914C33.7672 17.8552 32.8912 17.8496 32.8537 17.8496V18.0281C32.862 18.0281 33.6977 18.0337 34.1284 18.4241L39.9982 23.7486L40.1462 25.2226L40.324 25.2053L40.1691 23.6624L34.2479 18.2914Z" fill="#21111D"/>
<path d="M45.2724 17.9442L45.2251 17.9365L40.0152 23.6445L40.1472 23.7647L45.2876 18.1296C45.6496 18.2067 48.0274 18.8076 49.275 21.5209L49.4375 21.4459C48.0531 18.4304 45.3002 17.9511 45.2724 17.9442Z" fill="#21111D"/>
<path d="M24.0293 17.5869C24.0293 17.5967 24.0293 17.6057 24.0293 17.6147C24.0282 18.4445 24.3531 19.2415 24.9339 19.8341C25.5147 20.4267 26.3051 20.7675 27.1347 20.783C27.9643 20.7986 28.7669 20.4877 29.3696 19.9174C29.9722 19.347 30.3268 18.5627 30.3569 17.7335C28.648 17.639 27.001 17.6113 27.001 17.6113C27.001 17.6113 25.6311 17.58 24.0293 17.5869Z" fill="#FFC75A"/>
<path d="M34.9158 25.7863L35.1367 42.6289C34.5254 42.7025 30.5436 43.1714 28.3152 43.1478V43.3263H28.4715C30.9201 43.3263 35.1964 42.8011 35.2402 42.7956L35.3194 42.7858L35.0929 25.7842L34.9158 25.7863Z" fill="#21111D"/>
<path d="M23.6389 18.4551L23.4673 18.5037C23.7536 19.5186 24.4089 20.3898 25.3047 20.9461L25.3991 20.7947C24.5409 20.2619 23.913 19.4274 23.6389 18.4551Z" fill="#21111D"/>
<path d="M27.1734 10.595C25.9335 10.395 24.7116 11.1834 24.7116 11.1834C24.7116 11.1834 24.3642 11.9663 24.3309 12.0566C24.2976 12.1469 24.8234 11.7787 24.8234 11.7787L28.6982 12.6963L28.5773 11.9954C28.5181 11.6449 28.351 11.3217 28.0994 11.0707C27.8477 10.8196 27.524 10.6534 27.1734 10.595Z" fill="#FE9F73"/>
<path d="M29.0722 14.8724L28.5623 11.9159L24.5805 11.4297L25.0827 15.0537L25.2752 15.9783C25.2752 15.9783 25.3377 17.9164 25.494 18.297C25.6503 18.6777 26.3595 19.3717 27.4161 19.1897C27.7122 19.1384 27.9987 19.0421 28.2657 18.9041C28.4957 18.7829 28.6762 18.5853 28.7761 18.3452C28.8761 18.1052 28.8891 17.8378 28.813 17.5892L28.3963 16.2096C29.2986 15.9206 29.0722 14.8724 29.0722 14.8724Z" fill="#FE9F73"/>
<path d="M26.1966 13.3744C26.1883 13.3829 26.1837 13.3942 26.1837 13.406C26.1837 13.4178 26.1883 13.4292 26.1966 13.4376C26.2007 13.4417 26.2056 13.4449 26.211 13.4469C26.2164 13.4489 26.2221 13.4498 26.2279 13.4494C26.2399 13.4492 26.2514 13.4442 26.2598 13.4356C26.2821 13.4112 26.8156 12.85 27.3178 13.2424C27.3224 13.2461 27.3277 13.2488 27.3334 13.2504C27.339 13.2519 27.345 13.2524 27.3508 13.2516C27.3566 13.2508 27.3623 13.2489 27.3673 13.2459C27.3724 13.2429 27.3768 13.2389 27.3803 13.2341C27.3839 13.2295 27.3866 13.2242 27.3881 13.2186C27.3897 13.2129 27.3902 13.2071 27.3895 13.2013C27.3887 13.1954 27.3869 13.1898 27.384 13.1847C27.3811 13.1796 27.3773 13.1752 27.3727 13.1716C26.8065 12.7291 26.2008 13.3682 26.1966 13.3744Z" fill="#4C222E"/>
<path d="M28.7932 12.5349C28.4827 12.3626 28.1381 12.8051 28.1235 12.8238C28.1165 12.8333 28.1134 12.8451 28.115 12.8568C28.1165 12.8685 28.1226 12.8791 28.1319 12.8864C28.1369 12.8903 28.1427 12.8931 28.149 12.8945C28.1552 12.896 28.1617 12.896 28.168 12.8947C28.1786 12.8928 28.1881 12.8868 28.1944 12.878C28.1978 12.878 28.5063 12.4779 28.7501 12.6127C28.7552 12.6155 28.7608 12.6174 28.7666 12.6181C28.7725 12.6188 28.7784 12.6183 28.784 12.6167C28.7896 12.6152 28.7949 12.6125 28.7995 12.6089C28.8041 12.6052 28.808 12.6007 28.8109 12.5956C28.8137 12.5905 28.8156 12.5849 28.8163 12.5791C28.817 12.5733 28.8165 12.5674 28.815 12.5617C28.8134 12.5561 28.8107 12.5508 28.8071 12.5462C28.8034 12.5416 28.799 12.5377 28.7939 12.5349H28.7932Z" fill="#4C222E"/>
<path d="M27.0173 13.6651C26.9913 13.6697 26.9672 13.6818 26.9481 13.7C26.9289 13.7182 26.9156 13.7417 26.9098 13.7675C26.9039 13.7932 26.9058 13.8201 26.9152 13.8448C26.9246 13.8695 26.9411 13.8909 26.9626 13.9063C26.9841 13.9216 27.0096 13.9303 27.036 13.9312C27.0624 13.932 27.0885 13.9251 27.111 13.9112C27.1335 13.8973 27.1513 13.8771 27.1623 13.8531C27.1734 13.8291 27.1771 13.8023 27.1729 13.7762C27.1702 13.7587 27.1639 13.7418 27.1545 13.7267C27.1452 13.7115 27.1329 13.6984 27.1184 13.6881C27.1039 13.6777 27.0876 13.6704 27.0702 13.6664C27.0528 13.6625 27.0349 13.662 27.0173 13.6651Z" fill="black"/>
<path d="M28.3988 13.29C28.3727 13.2946 28.3485 13.3067 28.3293 13.325C28.31 13.3433 28.2967 13.3669 28.2909 13.3927C28.285 13.4186 28.287 13.4456 28.2966 13.4704C28.3061 13.4951 28.3228 13.5165 28.3445 13.5318C28.3662 13.547 28.3919 13.5555 28.4184 13.5562C28.4449 13.5568 28.4711 13.5496 28.4935 13.5354C28.5159 13.5212 28.5335 13.5006 28.5443 13.4764C28.555 13.4521 28.5583 13.4252 28.5537 13.3991C28.5476 13.3641 28.5279 13.333 28.4988 13.3125C28.4698 13.2921 28.4338 13.284 28.3988 13.29Z" fill="black"/>
<path d="M24.6425 11.4375L24.7015 11.1367C24.7015 11.1367 23.5741 11.2757 23.4595 12.303C23.3448 13.3304 23.9172 13.7618 23.9777 14.0536C24.0381 14.3453 24.1791 16.3459 25.5344 15.959L25.3461 12.6476L24.6425 11.4375Z" fill="#FFC75A"/>
<path d="M25.1443 13.2607C24.9877 13.2879 24.8427 13.3609 24.7276 13.4704C24.6125 13.5799 24.5324 13.7211 24.4975 13.8762C24.4626 14.0312 24.4745 14.1931 24.5316 14.3414C24.5887 14.4897 24.6884 14.6177 24.8183 14.7093C24.9481 14.8009 25.1022 14.852 25.2611 14.8561C25.4199 14.8601 25.5764 14.817 25.7108 14.7322C25.8451 14.6473 25.9513 14.5245 26.0159 14.3793C26.0805 14.2342 26.1006 14.0731 26.0737 13.9165C26.0374 13.7063 25.9191 13.5191 25.7448 13.3961C25.5705 13.2732 25.3545 13.2245 25.1443 13.2607Z" fill="#FE9F73"/>
<path d="M25.2557 13.7066C25.1248 13.6709 24.9853 13.6855 24.8646 13.7476C24.8595 13.7504 24.8557 13.7551 24.854 13.7607C24.8523 13.7663 24.8529 13.7723 24.8556 13.7775C24.8584 13.7828 24.8632 13.7868 24.8689 13.7886C24.8746 13.7904 24.8808 13.7899 24.8862 13.7872C24.996 13.7312 25.1226 13.7175 25.2418 13.749C25.325 13.7786 25.3945 13.8377 25.437 13.915C25.3698 13.8821 25.2942 13.8699 25.22 13.88C25.1457 13.8902 25.0762 13.9222 25.0202 13.972C24.9683 14.0196 24.9339 14.0834 24.9226 14.1529C24.9112 14.2225 24.9236 14.2938 24.9577 14.3554C24.9877 14.4217 25.0384 14.4764 25.1022 14.5114C25.1659 14.5464 25.2393 14.5596 25.3113 14.5493H25.3155C25.3184 14.5489 25.3213 14.5479 25.3239 14.5463C25.3264 14.5448 25.3287 14.5428 25.3304 14.5404C25.3322 14.538 25.3335 14.5352 25.3342 14.5323C25.3348 14.5294 25.3349 14.5264 25.3344 14.5234C25.3339 14.5205 25.3328 14.5176 25.3311 14.5151C25.3295 14.5126 25.3274 14.5105 25.3249 14.5088C25.3224 14.5071 25.3197 14.506 25.3167 14.5054C25.3138 14.5048 25.3108 14.5049 25.3078 14.5055H25.2981C25.2357 14.5147 25.172 14.5031 25.1169 14.4724C25.0618 14.4418 25.0183 14.3938 24.9932 14.336C24.9638 14.283 24.953 14.2216 24.9624 14.1617C24.9718 14.1018 25.001 14.0468 25.0453 14.0053C25.2439 13.8289 25.4621 13.9796 25.4732 13.9859L25.5385 14.0324L25.5065 13.9588C25.4849 13.9014 25.4514 13.8493 25.4082 13.8058C25.365 13.7624 25.313 13.7286 25.2557 13.7066Z" fill="#F07162"/>
<path d="M26.0995 15.6855C26.0995 15.6855 26.4662 17.443 28.7037 17.2305L28.3974 16.2128C28.3974 16.2128 27.0143 16.7477 26.0995 15.6855Z" fill="#F07162"/>
<path d="M27.8901 13.2779C27.8844 13.2798 27.8797 13.2838 27.877 13.2891C27.8743 13.2945 27.8737 13.3006 27.8755 13.3064L28.1936 14.3205L27.7769 14.5421C27.7718 14.5452 27.7681 14.55 27.7664 14.5557C27.7647 14.5613 27.7652 14.5674 27.7678 14.5727C27.7701 14.5768 27.7736 14.5801 27.7778 14.5821C27.7821 14.5841 27.7868 14.5847 27.7914 14.5838C27.7937 14.5844 27.7961 14.5844 27.7984 14.5838L28.2471 14.3442L27.9172 13.2945C27.9157 13.2888 27.9121 13.2839 27.907 13.2808C27.9019 13.2776 27.8959 13.2766 27.8901 13.2779Z" fill="#F07162"/>
<path d="M25.1807 14.7163L25.2842 16.2334L25.8157 16.1855L25.5579 14.6934L25.1807 14.7163Z" fill="#FE9F73"/>
<path d="M28.0322 10.3812C28.0322 10.3812 27.987 9.23571 27.0277 9.74281C26.0684 10.2499 24.1796 10.5319 23.8115 11.5656C23.4433 12.5992 25.3543 12.6937 25.3543 12.6937C25.3543 12.6937 28.6838 11.9136 28.7581 11.0897C28.8324 10.2659 28.0322 10.3812 28.0322 10.3812Z" fill="#FFC75A"/>
<path d="M25.9234 12.4151C26.2978 12.1296 25.0898 12.1081 25.0544 12.1324C25.019 12.1567 24.4035 12.6187 24.491 12.5888C24.5785 12.5589 25.2551 12.4943 25.2551 12.4943L25.3802 13.2202C25.6041 13.482 25.7299 13.8136 25.7358 14.158C25.7358 14.158 25.9547 14.1983 25.9609 14.0191C25.9672 13.8399 25.5483 12.7013 25.9234 12.4151Z" fill="#FFC75A"/>
<path d="M28.2033 15.2807C28.4978 15.2022 28.5186 14.8486 28.5186 14.8486C28.5061 14.8486 27.7149 15.0633 27.7149 15.0633C27.7149 15.0633 27.9094 15.3592 28.2033 15.2807Z" fill="#FBFDFC"/>
<path d="M11.8158 5.60938C13.171 5.60917 14.4958 6.0098 15.6238 6.76085C16.7517 7.51189 17.6323 8.57978 18.1547 9.83014C18.6771 11.0805 18.818 12.4574 18.5596 13.7877C18.3013 15.1179 17.6552 16.342 16.7027 17.306C16.7027 17.306 14.6243 19.5289 13.9241 21.9525C13.9241 21.9525 12.7238 22.3596 11.8179 22.3825C10.9149 22.3596 9.71175 21.9525 9.71175 21.9525C9.01015 19.5289 6.93314 17.306 6.93314 17.306C5.98071 16.3421 5.33464 15.1181 5.07626 13.7879C4.81787 12.4577 4.95871 11.0808 5.48103 9.83045C6.00335 8.58012 6.88382 7.51221 8.01165 6.76112C9.13948 6.01002 10.4643 5.60931 11.8193 5.60938H11.8158Z" fill="#EEB217"/>
<path d="M14.1069 23.241C14.1069 23.634 13.9894 24.0182 13.7696 24.3441C13.5498 24.6699 13.2376 24.9227 12.8732 25.07C12.8379 25.325 12.7115 25.5587 12.5174 25.7278C12.3232 25.8969 12.0744 25.9901 11.817 25.9901C11.5595 25.9901 11.3107 25.8969 11.1166 25.7278C10.9224 25.5587 10.7961 25.325 10.7607 25.07C10.3963 24.9227 10.0841 24.6699 9.86433 24.3441C9.64451 24.0182 9.52706 23.634 9.52704 23.241V21.4043H14.1069V23.241Z" fill="#3F3334"/>
<g style="mix-blend-mode:multiply" opacity="0.3">
<g style="mix-blend-mode:multiply" opacity="0.3">
<path d="M6.09332 8.67773C8.10226 13.6285 11.3032 16.958 15.922 18.2494C15.3406 19.0135 14.5702 20.1597 14.1048 21.4045H9.52978C8.70661 19.2038 6.93108 17.306 6.93108 17.306C5.82214 16.1824 5.13389 14.7113 4.98208 13.1399C4.83027 11.5685 5.22416 9.99284 6.0975 8.67773H6.09332Z" fill="#FFC75A"/>
</g>
</g>
<path d="M9.5986 16.6245C10.0446 19.0454 10.6871 21.4079 10.6934 21.4315L10.8907 21.378C10.8837 21.3544 10.2432 18.9988 9.79865 16.5849C9.02828 12.3989 9.47148 11.5139 9.80421 11.3541C10.137 11.1944 10.412 11.2228 10.5996 11.4396C10.6135 11.4553 10.6267 11.472 10.6392 11.4896C10.475 11.5827 10.3337 11.7113 10.2255 11.8659C10.1174 12.0206 10.0451 12.1975 10.014 12.3836C9.93759 12.8699 10.1529 13.3561 10.5003 13.4652C10.5836 13.4916 10.7434 13.5055 10.8816 13.2964C11.1011 12.9643 11.1699 12.1335 10.924 11.5799C11.1962 11.4761 11.4858 11.4259 11.777 11.4319H11.975C12.2662 11.4259 12.5559 11.4761 12.828 11.5799C12.5821 12.1356 12.6509 12.9643 12.8704 13.2964C13.0094 13.5048 13.1691 13.4916 13.2518 13.4652C13.5956 13.3548 13.8131 12.8699 13.7381 12.3836C13.7068 12.1975 13.6345 12.0207 13.5263 11.866C13.4182 11.7114 13.277 11.5828 13.1129 11.4896C13.1254 11.4722 13.1386 11.4556 13.1518 11.4396C13.3393 11.2228 13.6075 11.1944 13.9471 11.3541C14.2868 11.5139 14.7238 12.3961 13.9527 16.5849C13.5081 18.9974 12.8676 21.353 12.8614 21.378L13.058 21.4315C13.0642 21.4079 13.7068 19.0454 14.1528 16.6245C14.7682 13.2818 14.7293 11.4986 14.034 11.1715C13.4949 10.9172 13.1726 11.1055 12.9975 11.3104C12.9727 11.3391 12.9495 11.3693 12.9281 11.4007C12.6248 11.2808 12.3004 11.2234 11.9743 11.2319H11.7763C11.4505 11.2234 11.1263 11.2808 10.8233 11.4007C10.8018 11.3693 10.7787 11.3391 10.7538 11.3104C10.5787 11.1082 10.2571 10.92 9.71738 11.1715C9.02134 11.4986 8.98244 13.2818 9.5986 16.6245ZM13.0108 11.6709C13.1493 11.7467 13.2686 11.8533 13.3594 11.9826C13.4502 12.1118 13.5101 12.2602 13.5345 12.4163C13.604 12.8407 13.4095 13.2012 13.1872 13.2728C13.1663 13.279 13.1115 13.2971 13.0378 13.1853C12.851 12.9005 12.8017 12.1495 13.0101 11.6709H13.0108ZM10.7406 11.6709C10.949 12.1495 10.899 12.9005 10.7107 13.1853C10.6371 13.2971 10.5829 13.279 10.5621 13.2728C10.3412 13.2033 10.1502 12.8407 10.2148 12.4163C10.2392 12.26 10.2992 12.1115 10.3903 11.9823C10.4814 11.853 10.601 11.7465 10.7399 11.6709H10.7406Z" fill="#F99247"/>
<path d="M11.8145 5.5586C13.1791 5.55805 14.5133 5.96094 15.6496 6.71661C16.7858 7.47229 17.6732 8.54701 18.2003 9.80566C18.7274 11.0643 18.8706 12.4507 18.612 13.7905C18.3533 15.1303 17.7043 16.3638 16.7466 17.3358L16.7417 17.3406C16.7257 17.3573 15.1628 19.0411 14.3056 21.0445L14.2757 21.114C14.2215 21.2397 14.1972 21.2974 14.1423 21.4537L14.0437 21.4175C14.0999 21.2578 14.1249 21.1994 14.1826 21.0702L14.2118 21.0008C14.9759 19.2078 16.3068 17.6664 16.6062 17.3351H16.6014L16.6709 17.2656C17.3399 16.5875 17.8595 15.7768 18.196 14.8856C18.5326 13.9945 18.6786 13.0427 18.6248 12.0916C18.571 11.1405 18.3185 10.2113 17.8835 9.3638C17.4486 8.5163 16.8409 7.76934 16.0996 7.17109C15.3583 6.57284 14.4999 6.13656 13.5796 5.89039C12.6594 5.64421 11.6978 5.59361 10.7568 5.74183C9.81585 5.89004 8.91636 6.23381 8.11637 6.75094C7.31637 7.26807 6.63361 7.94711 6.11211 8.74427L6.02667 8.68868C6.65476 7.72653 7.51303 6.93636 8.52371 6.38977C9.53439 5.84319 10.6655 5.55751 11.8145 5.5586Z" fill="#21111D"/>
<path d="M16.7099 9.27929L16.612 9.30778C16.6071 9.29111 16.1125 7.64825 14.453 7.0314L14.4884 6.93555C16.1973 7.57116 16.7051 9.26123 16.7099 9.27929Z" fill="#21111D"/>
<path d="M16.3952 9.89065L16.2972 9.91915C16.2924 9.90247 15.7978 8.25962 14.1376 7.64276L14.1737 7.54688C15.8825 8.18248 16.3903 9.87329 16.3952 9.89065Z" fill="#21111D"/>
<path d="M14.1571 23.173C14.1565 23.7273 13.936 24.2588 13.544 24.6508C13.152 25.0428 12.6205 25.2633 12.0662 25.2639H11.5667C11.0178 25.2654 10.4906 25.0497 10.1003 24.6637L10.1697 24.5942C10.5411 24.9612 11.0425 25.1665 11.5646 25.1652H12.0641C12.5915 25.1645 13.0971 24.9546 13.47 24.5817C13.843 24.2088 14.0528 23.7032 14.0535 23.1757V21.4585H9.52858V21.3564H14.1591L14.1571 23.173Z" fill="#21111D"/>
<path d="M12.8238 25.0537L12.9245 25.0676C12.9245 25.0773 12.78 26.0401 11.7873 26.0401H11.7519V25.938C12.6862 25.9595 12.8182 25.0905 12.8238 25.0537Z" fill="#21111D"/>
<path d="M7.16686 16.2419L7.10573 16.3239C6.16309 15.6244 6.01581 14.4588 6.01442 14.4484L6.11585 14.4365C6.11585 14.4462 6.25825 15.5688 7.16686 16.2419Z" fill="#21111D"/>
<path d="M7.36523 15.7528L7.30479 15.8347C6.61014 15.3179 6.50246 14.4829 6.49829 14.4454L6.59972 14.4336C6.60042 14.4433 6.70462 15.263 7.36523 15.7528Z" fill="#21111D"/>
<path d="M14.3174 22.2186V22.3207C14.1576 22.3207 10.3988 22.27 9.15955 21.8081L9.19497 21.7129C10.4176 22.1679 14.2791 22.2179 14.3174 22.2186Z" fill="#21111D"/>
<path d="M14.3217 23.0781V23.1802C14.1487 23.1802 10.0642 23.0962 9.25908 22.6648L9.3077 22.5752C10.0843 22.9948 14.2759 23.0774 14.3217 23.0781Z" fill="#21111D"/>
<path d="M14.1075 23.9619V24.0641C13.9519 24.0641 10.2869 24.0238 9.25601 23.4917L9.30324 23.4014C10.3091 23.9217 14.0693 23.9612 14.1075 23.9619Z" fill="#21111D"/>
<path d="M20.423 11.0917L22.8543 10.8834C22.8743 10.8817 22.8945 10.8839 22.9136 10.89C22.9327 10.8961 22.9505 10.906 22.9659 10.9189C22.9812 10.9319 22.9939 10.9478 23.0031 10.9656C23.0123 10.9835 23.0179 11.003 23.0196 11.023C23.0213 11.043 23.019 11.0632 23.0129 11.0823C23.0068 11.1015 22.997 11.1192 22.984 11.1346C22.9711 11.1499 22.9552 11.1626 22.9373 11.1718C22.9195 11.181 22.9 11.1866 22.88 11.1883L20.4487 11.3967H20.4348C20.3957 11.3962 20.3582 11.3808 20.3302 11.3535C20.3022 11.3262 20.2856 11.2892 20.284 11.2501C20.2824 11.2111 20.2959 11.1729 20.3216 11.1434C20.3473 11.1139 20.3833 11.0954 20.4223 11.0917H20.423Z" fill="#FFC75A"/>
<path d="M19.0918 7.24619L21.1063 5.86801C21.1398 5.84821 21.1797 5.84188 21.2177 5.85034C21.2557 5.85879 21.2891 5.88138 21.3111 5.91353C21.333 5.94567 21.342 5.98496 21.3361 6.02346C21.3302 6.06195 21.3099 6.09676 21.2793 6.12084L19.2648 7.49834C19.2483 7.51065 19.2294 7.51951 19.2094 7.52436C19.1894 7.5292 19.1686 7.52996 19.1483 7.52656C19.128 7.52317 19.1085 7.51571 19.0912 7.50462C19.0738 7.49353 19.0589 7.47902 19.0473 7.46201C19.0356 7.44501 19.0276 7.42584 19.0236 7.40564C19.0196 7.38544 19.0197 7.36461 19.0239 7.34445C19.0281 7.32429 19.0364 7.30521 19.0481 7.28832C19.0599 7.27143 19.075 7.2571 19.0925 7.24619H19.0918Z" fill="#FFC75A"/>
<path d="M16.3163 2.27598C16.3239 2.25737 16.335 2.24045 16.3491 2.22615C16.3633 2.21186 16.3801 2.20048 16.3986 2.19267C16.4171 2.18487 16.4369 2.18079 16.457 2.18067C16.4771 2.18054 16.4971 2.18436 16.5157 2.19193C16.5343 2.1995 16.5512 2.21068 16.5655 2.2248C16.5798 2.23891 16.5912 2.2557 16.599 2.27421C16.6068 2.29273 16.6109 2.3126 16.611 2.33269C16.6111 2.35278 16.6073 2.37269 16.5997 2.3913L15.6814 4.65171C15.6701 4.67944 15.6509 4.70324 15.6262 4.72016C15.6015 4.73707 15.5724 4.74634 15.5425 4.74685C15.5229 4.74687 15.5036 4.74312 15.4855 4.73576C15.4669 4.72821 15.4499 4.71704 15.4356 4.70293C15.4213 4.68881 15.4099 4.67202 15.4021 4.65351C15.3943 4.63499 15.3902 4.61509 15.3901 4.595C15.39 4.5749 15.3938 4.55499 15.4014 4.53638L16.3163 2.27598Z" fill="#FFC75A"/>
<path d="M0.89244 11.3713L3.32373 11.5325C3.36256 11.5361 3.39854 11.5544 3.42431 11.5836C3.45009 11.6129 3.46372 11.6509 3.46239 11.6899C3.46106 11.7288 3.44487 11.7658 3.41716 11.7932C3.38945 11.8207 3.3523 11.8365 3.31332 11.8374H3.30358L0.872293 11.6763C0.832261 11.6731 0.79511 11.6542 0.768858 11.6238C0.742606 11.5934 0.729375 11.5539 0.732022 11.5139C0.734669 11.4738 0.75298 11.4364 0.783002 11.4097C0.813024 11.383 0.852334 11.3692 0.89244 11.3713Z" fill="#FFC75A"/>
<path d="M2.54589 6.32202L4.5854 7.66133C4.6193 7.68362 4.64294 7.71847 4.65115 7.7582C4.65936 7.79793 4.65145 7.83929 4.62915 7.87319C4.60686 7.90708 4.57202 7.93075 4.53228 7.93895C4.49255 7.94716 4.45118 7.93923 4.41728 7.91694L2.37779 6.57766C2.361 6.56663 2.34655 6.55239 2.33527 6.53577C2.32399 6.51915 2.31608 6.50047 2.31202 6.48079C2.30795 6.46112 2.3078 6.44083 2.31158 6.42109C2.31535 6.40136 2.32298 6.38256 2.33401 6.36577C2.34505 6.34899 2.3593 6.33456 2.37592 6.32327C2.39254 6.31199 2.41121 6.3041 2.43089 6.30004C2.45056 6.29598 2.47085 6.29582 2.49058 6.2996C2.51031 6.30337 2.5291 6.31098 2.54589 6.32202Z" fill="#FFC75A"/>
<path d="M6.59558 2.20169C6.63282 2.18586 6.6748 2.18537 6.7124 2.20033C6.74999 2.21529 6.78015 2.24448 6.79633 2.28157L7.75704 4.52393C7.76495 4.5424 7.76914 4.56224 7.76937 4.58234C7.7696 4.60243 7.76586 4.62237 7.75838 4.64101C7.7509 4.65966 7.73981 4.67665 7.72575 4.69101C7.71169 4.70537 7.69495 4.71682 7.67647 4.72469C7.65773 4.73324 7.63731 4.73749 7.61672 4.73717C7.58712 4.73681 7.55825 4.72789 7.5336 4.7115C7.50895 4.69511 7.48957 4.67193 7.47779 4.64478L6.51708 2.40245C6.50097 2.36541 6.5002 2.32349 6.5149 2.28587C6.52961 2.24825 6.55862 2.21798 6.59558 2.20169Z" fill="#FFC75A"/>
<path d="M11.4938 0.805664C11.5339 0.805657 11.5723 0.821391 11.6009 0.849453C11.6295 0.877515 11.6459 0.915672 11.6467 0.95572L11.6842 3.39535C11.6844 3.41542 11.6808 3.43535 11.6733 3.454C11.6659 3.47265 11.6549 3.48964 11.6409 3.50403C11.6269 3.51841 11.6102 3.52991 11.5918 3.53785C11.5733 3.54578 11.5535 3.54999 11.5334 3.55026C11.4934 3.55027 11.4549 3.53453 11.4263 3.50647C11.3978 3.47841 11.3813 3.44025 11.3806 3.4002L11.3431 0.960571C11.3427 0.940476 11.3463 0.920512 11.3537 0.901823C11.3611 0.883135 11.3721 0.866095 11.3862 0.851692C11.4002 0.837288 11.4169 0.825809 11.4354 0.817909C11.4539 0.810008 11.4737 0.805844 11.4938 0.805664Z" fill="#FFC75A"/>
<g opacity="0.5">
<path opacity="0.5" d="M9.06099 8.91985C9.84237 8.4163 10.2809 7.7056 10.0404 7.33249C9.79995 6.95938 8.9716 7.06514 8.19023 7.5687C7.40886 8.07225 6.97036 8.78292 7.21081 9.15603C7.45126 9.52914 8.27962 9.42341 9.06099 8.91985Z" fill="#F3FFFE"/>
</g>
</g>
<defs>
<clipPath id="clip0_477_415">
<rect width="52.1182" height="46" fill="white" transform="translate(0.730164 0.805664)"/>
</clipPath>
</defs>
</svg>
