<svg width="66" height="41" viewBox="0 0 66 41" fill="none" xmlns="http://www.w3.org/2000/svg">
<g clip-path="url(#clip0_477_316)">
<path d="M30.6271 18.8504V7.19141H0.149094V37.6695H11.2237C11.2237 36.565 11.6625 35.5058 12.4434 34.7248C13.2244 33.9438 14.2836 33.5051 15.3881 33.5051C16.4926 33.5051 17.5518 33.9438 18.3328 34.7248C19.1138 35.5058 19.5525 36.565 19.5525 37.6695H30.6271V27.1792C31.7316 27.1792 32.7908 26.7405 33.5718 25.9595C34.3528 25.1785 34.7915 24.1193 34.7915 23.0148C34.7915 21.9103 34.3528 20.8511 33.5718 20.0701C32.7908 19.2892 31.7316 18.8504 30.6271 18.8504Z" fill="#F24973"/>
<path d="M-0.00289154 37.8184H11.2231V37.5158H0.299799V7.3404H30.6265V7.03711H-0.00289154V37.8184Z" fill="black"/>
<path d="M33.629 9.9774L33.6164 9.8969L33.778 9.87109L33.7906 9.95218C33.8392 10.2549 33.8557 10.5619 33.8398 10.8681L33.835 10.9497L33.6717 10.9413L33.6765 10.8596C33.692 10.5647 33.6761 10.269 33.629 9.9774Z" fill="#FFFFFD"/>
<path d="M33.1233 8.25237C33.2321 8.40527 33.3279 8.56697 33.4098 8.73582C33.4614 8.84212 33.5095 8.95323 33.5527 9.06614L33.5821 9.14241L33.4296 9.20247L33.4002 9.12561C33.3581 9.0175 33.3119 8.9106 33.2626 8.8079C33.1849 8.64766 33.0938 8.49417 32.9906 8.34905L32.9431 8.2824L33.0759 8.1875L33.1233 8.25237Z" fill="#FFFFFD"/>
<path d="M33.523 11.7255L33.5476 11.6475L33.7038 11.6961L33.6791 11.7742C33.5887 12.0713 33.4488 12.3511 33.2653 12.6018L33.2161 12.6672L33.0852 12.5693L33.1344 12.5039C33.3068 12.2681 33.4382 12.005 33.523 11.7255Z" fill="#FFFFFD"/>
<path d="M39.7031 3.59238C40.0034 3.59238 40.3085 3.60202 40.6088 3.61763L40.6905 3.62241L40.6821 3.78578L40.6004 3.78097C40.3001 3.76536 39.9998 3.75635 39.6995 3.75575H39.6178V3.5918L39.7031 3.59238Z" fill="#FFFFFD"/>
<path d="M33.5768 4.99749L33.6471 4.95605L33.7306 5.09658L33.6597 5.13863C33.4034 5.28935 33.1569 5.45604 32.9216 5.63771L32.8567 5.68757L32.757 5.55783L32.8219 5.50798C33.0627 5.32236 33.3149 5.15187 33.5768 4.99749Z" fill="#FFFFFD"/>
<path d="M31.6939 7.11974C31.9772 7.24038 32.2436 7.39724 32.4866 7.58639L32.5509 7.63683L32.45 7.76536L32.3857 7.71492C32.1537 7.53466 31.8993 7.38508 31.629 7.26988L31.5539 7.23803L31.6188 7.08789L31.6939 7.11974Z" fill="#FFFFFD"/>
<path d="M37.8923 3.68383C38.1865 3.652 38.4928 3.6286 38.7931 3.61298L38.8748 3.60938L38.8832 3.77272L38.8015 3.77632C38.5012 3.79134 38.201 3.81477 37.9067 3.846L37.8256 3.855L37.8082 3.69225L37.8923 3.68383Z" fill="#FFFFFD"/>
<path d="M35.2315 4.24908L35.309 4.22266L35.3612 4.37761L35.2837 4.40342C34.9955 4.50131 34.7156 4.61063 34.4513 4.72954L34.3769 4.76318L34.3096 4.61423L34.3841 4.5806C34.6549 4.45868 34.9402 4.34757 35.2315 4.24908Z" fill="#FFFFFD"/>
<path d="M31.6541 13.275C31.7818 13.2706 31.9088 13.2545 32.0336 13.227C32.1906 13.1927 32.3425 13.1379 32.4853 13.0642L32.5579 13.0264L32.633 13.1717L32.5609 13.2089C32.4055 13.2902 32.2402 13.3508 32.0691 13.3891C31.9345 13.4184 31.7977 13.4357 31.6601 13.4408H31.5784L31.5724 13.2774L31.6541 13.275Z" fill="#FFFFFD"/>
<path d="M36.9951 3.80776L37.0755 3.79395L37.1032 3.95488L37.0227 3.96931C36.7224 4.02036 36.4335 4.08102 36.1458 4.14948L36.0666 4.16931L36.0269 4.01075L36.1062 3.99092C36.3981 3.92125 36.6924 3.86001 36.9951 3.80776Z" fill="#FFFFFD"/>
<path d="M31.6394 6.87618L31.5865 6.93624L31.4616 6.83114L31.5144 6.77108C31.7104 6.53944 31.9179 6.31775 32.136 6.10684L32.1961 6.0498L32.3096 6.1669L32.2495 6.22696C32.0345 6.43235 31.8291 6.65097 31.6394 6.87618Z" fill="#FFFFFD"/>
<path d="M22.9861 10.5284L23.0306 10.46L23.1675 10.5488L23.1231 10.6173C22.9608 10.867 22.812 11.1252 22.6774 11.3909L22.6402 11.4635L22.4943 11.3897L22.5315 11.3164C22.669 11.0459 22.8207 10.7829 22.9861 10.5284Z" fill="#FFFFFD"/>
<path d="M24.1456 9.12777L24.2057 9.07129L24.318 9.1914L24.2579 9.24788C24.0432 9.45347 23.8406 9.67143 23.6513 9.90069L23.5991 9.96377L23.473 9.85925L23.5252 9.79919C23.7185 9.56325 23.9257 9.33905 24.1456 9.12777Z" fill="#FFFFFD"/>
<path d="M25.5903 8.02604L25.6599 7.9834L25.7458 8.12272L25.6762 8.16598C25.4227 8.32092 25.1747 8.49028 24.9374 8.66925L24.8726 8.71849L24.7741 8.58817L24.839 8.53893C25.0816 8.35696 25.3326 8.18399 25.5903 8.02604Z" fill="#FFFFFD"/>
<path d="M21.6425 13.8865L21.6594 13.8066L21.8197 13.8409L21.8029 13.9207C21.7428 14.206 21.69 14.5027 21.6473 14.8036L21.6365 14.8847L21.4744 14.8619L21.4858 14.7808C21.5284 14.4763 21.5813 14.1754 21.6425 13.8865Z" fill="#FFFFFD"/>
<path d="M27.227 7.23427L27.3032 7.20605L27.3597 7.35978L27.2828 7.38802C27.0028 7.49003 26.7282 7.60628 26.46 7.73634L26.3868 7.77179L26.3153 7.62464L26.3886 7.58921C26.6619 7.45695 26.9417 7.33848 27.227 7.23427Z" fill="#FFFFFD"/>
<path d="M22.1594 12.1466L22.1894 12.0703L22.3414 12.1304L22.3119 12.2061C22.205 12.4775 22.1077 12.7622 22.0218 13.0528L21.999 13.1309L21.8423 13.0847L21.8651 13.0066C21.9522 12.7117 22.0513 12.4223 22.1594 12.1466Z" fill="#FFFFFD"/>
<path d="M29.9921 10.0947L29.8323 10.0575L29.851 9.9782C29.9206 9.68177 30.0103 9.39041 30.1194 9.10616L30.1482 9.0293L30.3014 9.08935L30.272 9.16622C30.1659 9.44356 30.0784 9.72767 30.0101 10.0166L29.9921 10.0947Z" fill="#FFFFFD"/>
<path d="M28.9943 6.80451L29.0754 6.79492L29.0946 6.95706L29.0136 6.96668C28.7183 7.00286 28.4255 7.05661 28.1367 7.12764L28.0574 7.14744L28.0184 6.98829L28.0977 6.96908C28.393 6.89612 28.6924 6.84115 28.9943 6.80451Z" fill="#FFFFFD"/>
<path d="M29.9061 6.75823C30.2115 6.76427 30.5159 6.79624 30.816 6.85375L30.8964 6.86935L30.8652 7.0297L30.7877 7.01169C30.4968 6.95578 30.2017 6.92483 29.9055 6.9192H29.8238L29.8274 6.75586L29.9061 6.75823Z" fill="#FFFFFD"/>
<path d="M30.6399 8.35203L30.6021 8.42408L30.4573 8.34781L30.4952 8.27576C30.6374 8.00715 30.7942 7.74652 30.9648 7.49501L31.0105 7.42773L31.1456 7.51964L31.0999 7.58688C30.9325 7.83318 30.7789 8.08864 30.6399 8.35203Z" fill="#FFFFFD"/>
<path d="M30.1868 12.5963C30.3211 12.8476 30.5379 13.045 30.8006 13.1554L30.8769 13.1854L30.8168 13.3374L30.7411 13.3073C30.4435 13.184 30.1976 12.9617 30.0451 12.6779L30.0042 12.6071L30.1454 12.5254L30.1868 12.5963Z" fill="#FFFFFD"/>
<path d="M29.7138 10.8825L29.7192 10.8008L29.8826 10.8116L29.8772 10.8933C29.8557 11.1873 29.867 11.4828 29.9108 11.7743L29.9234 11.8554L29.7625 11.8806L29.7492 11.8001C29.7037 11.4965 29.6918 11.1887 29.7138 10.8825Z" fill="#FFFFFD"/>
<path d="M45.0216 2.38989L47.105 2.91962L45.2156 3.45113C45.1658 3.46495 41.8362 3.18747 41.8362 3.18747L41.0326 3.81327L41.4819 2.21875L45.0216 2.38989Z" fill="#8E8B9E"/>
<path d="M41.4838 2.2184L41.0298 0.381836L47.1064 2.91987L41.4838 2.2184Z" fill="#CCCCCC"/>
<path d="M47.1055 2.91992L42.3074 5.14025L41.8366 3.18718L47.1055 2.91992Z" fill="#CCCCCC"/>
<path d="M50.0444 2.78516C51.1424 2.78511 52.196 3.21873 52.976 3.99168C53.7559 4.76462 54.1989 5.8143 54.2088 6.9123H65.284V37.3903H34.8053V26.846C35.9098 26.846 36.969 26.4073 37.75 25.6263C38.531 24.8453 38.9697 23.7861 38.9697 22.6816C38.9697 21.5772 38.531 20.518 37.75 19.737C36.969 18.956 35.9098 18.5172 34.8053 18.5172V6.9123H45.88C45.8899 5.81435 46.3331 4.76476 47.113 3.99185C47.8928 3.21894 48.9464 2.78527 50.0444 2.78516Z" fill="#6D6BE6"/>
<path d="M46.9958 3.87661C47.3953 3.47838 47.8694 3.16286 48.3909 2.94809C48.9125 2.73332 49.4713 2.62354 50.0354 2.62501V2.9253C48.9781 2.92807 47.9644 3.34684 47.2135 4.09106C46.4625 4.83527 46.0346 5.84515 46.0223 6.90233V7.05248L34.9579 7.0711V17.3698H34.6576V6.7714L45.7268 6.75219C45.7705 5.66756 46.224 4.63986 46.9958 3.87661Z" fill="black"/>
<path d="M47.2251 17.8871C47.8792 17.4457 49.1866 17.0877 48.7926 15.7587C48.7926 15.7587 48.1818 14.3527 49.7908 13.19C51.3997 12.0273 51.6478 14.0218 52.2676 14.211C52.8874 14.4002 54.0092 14.1846 54.4164 15.3479C54.8236 16.5112 54.581 17.3604 55.2332 17.5472C55.8854 17.734 58.0139 19.4156 57.4367 21.5855C56.8596 23.7553 54.7419 23.6142 54.7419 23.6142C54.7419 23.6142 46.4198 23.8719 45.8828 21.702C45.3459 19.5321 46.1609 18.6054 47.2251 17.8871Z" fill="#895B1F"/>
<path d="M53.2074 16.5363L52.614 22.6868L49.9714 22.4315L50.1516 20.5577C49.5637 20.4899 49.3517 20.1127 49.3517 20.1127C48.912 19.4004 49.6477 16.4492 49.6477 16.4492L53.2074 16.5363Z" fill="#F4B095"/>
<path d="M50.4379 18.0871C50.5328 17.815 50.3743 17.5339 50.3731 17.5315C50.3698 17.526 50.3688 17.5195 50.3704 17.5133C50.372 17.5071 50.376 17.5018 50.3815 17.4985C50.387 17.4952 50.3935 17.4943 50.3997 17.4959C50.4059 17.4974 50.4112 17.5014 50.4145 17.5069C50.4217 17.5195 50.5863 17.8072 50.4842 18.1027C50.4241 18.2829 50.2722 18.4228 50.0403 18.5195C50.0626 18.5843 50.1418 18.7849 50.2938 18.833C50.2968 18.8339 50.2997 18.8355 50.3021 18.8375C50.3046 18.8396 50.3066 18.8421 50.308 18.845C50.3095 18.8478 50.3104 18.851 50.3106 18.8542C50.3108 18.8574 50.3104 18.8606 50.3094 18.8636C50.3076 18.8688 50.3041 18.8732 50.2996 18.8762C50.295 18.8793 50.2896 18.8807 50.2842 18.8804H50.2788C50.0734 18.815 49.9905 18.5255 49.9869 18.5129L49.9815 18.4919L50.0013 18.484C50.2313 18.3915 50.3785 18.2588 50.4379 18.0871Z" fill="#F07162"/>
<path d="M52.2618 20.1855C52.2618 20.1855 51.102 21.1032 50.0781 21.3086L50.1513 20.5549C50.1513 20.5549 51.4324 20.6029 52.2618 20.1855Z" fill="#F07162"/>
<path d="M50.7538 17.3764C51.3622 16.9764 51.9189 17.6677 51.9243 17.6767C51.9283 17.6817 51.9312 17.6874 51.933 17.6935C51.9347 17.6996 51.9353 17.706 51.9346 17.7123C51.9338 17.7186 51.9319 17.7247 51.9288 17.7302C51.9256 17.7358 51.9215 17.7407 51.9165 17.7446C51.9064 17.7525 51.8937 17.7561 51.881 17.7546C51.8683 17.7531 51.8566 17.7467 51.8486 17.7368C51.8276 17.7109 51.3411 17.1086 50.8066 17.4599C50.7959 17.4654 50.7836 17.4667 50.7719 17.4637C50.7603 17.4606 50.7502 17.4533 50.7436 17.4432C50.737 17.4331 50.7345 17.4209 50.7363 17.4091C50.7382 17.3972 50.7444 17.3864 50.7538 17.3788V17.3764Z" fill="#4C222E"/>
<path d="M50.2578 17.4041C50.2629 17.4085 50.267 17.414 50.2699 17.4202C50.2728 17.4263 50.2743 17.433 50.2745 17.4398C50.2746 17.4465 50.2733 17.4533 50.2707 17.4595C50.2681 17.4658 50.2642 17.4714 50.2593 17.4761C50.2544 17.4807 50.2486 17.4843 50.2422 17.4866C50.2358 17.4889 50.229 17.4898 50.2222 17.4893C50.2155 17.4888 50.2089 17.4869 50.2029 17.4837C50.1969 17.4805 50.1917 17.4761 50.1875 17.4708C50.1839 17.4672 49.835 17.1056 49.6086 17.2648C49.6034 17.2684 49.5975 17.271 49.5913 17.2723C49.5851 17.2737 49.5787 17.2738 49.5724 17.2727C49.5662 17.2716 49.5602 17.2693 49.5549 17.2658C49.5495 17.2624 49.5449 17.258 49.5413 17.2528C49.5377 17.2475 49.5351 17.2417 49.5337 17.2355C49.5324 17.2293 49.5323 17.2229 49.5334 17.2167C49.5345 17.2104 49.5368 17.2044 49.5402 17.1991C49.5437 17.1937 49.5481 17.1891 49.5533 17.1855C49.8476 16.9807 50.241 17.3867 50.2578 17.4041Z" fill="#4C222E"/>
<path d="M49.7771 17.6851C49.8038 17.6877 49.8291 17.698 49.8499 17.715C49.8706 17.732 49.8858 17.7547 49.8936 17.7803C49.9014 17.806 49.9014 17.8334 49.8936 17.859C49.8858 17.8846 49.8705 17.9074 49.8498 17.9243C49.829 17.9413 49.8037 17.9517 49.777 17.9542C49.7504 17.9567 49.7235 17.9512 49.7 17.9384C49.6764 17.9257 49.6572 17.9062 49.6447 17.8825C49.6323 17.8588 49.6271 17.8319 49.63 17.8052C49.6339 17.7699 49.6515 17.7376 49.679 17.7152C49.7065 17.6927 49.7418 17.6819 49.7771 17.6851Z" fill="black"/>
<path d="M51.1138 17.7936C51.1404 17.7962 51.1658 17.8066 51.1865 17.8235C51.2073 17.8405 51.2225 17.8632 51.2303 17.8889C51.2381 17.9145 51.2381 17.9419 51.2303 17.9675C51.2225 17.9932 51.2072 18.0159 51.1864 18.0328C51.1657 18.0498 51.1404 18.0602 51.1137 18.0627C51.087 18.0652 51.0602 18.0597 51.0366 18.047C51.0131 18.0342 50.9938 18.0147 50.9814 17.991C50.9689 17.9673 50.9638 17.9404 50.9666 17.9137C50.9703 17.8783 50.9878 17.8458 51.0154 17.8233C51.043 17.8008 51.0783 17.7901 51.1138 17.7936Z" fill="black"/>
<path d="M53.296 17.98C53.4448 17.9944 53.5861 18.0525 53.7019 18.1472C53.8177 18.2418 53.9028 18.3687 53.9465 18.5117C53.9902 18.6548 53.9905 18.8075 53.9474 18.9507C53.9043 19.0939 53.8196 19.2211 53.7042 19.3162C53.5888 19.4113 53.4477 19.47 53.2989 19.485C53.1501 19.4999 53.0002 19.4704 52.8682 19.4001C52.7362 19.3299 52.6279 19.222 52.5572 19.0903C52.4865 18.9585 52.4564 18.8087 52.4708 18.6598C52.4902 18.4603 52.5881 18.2767 52.7428 18.1492C52.8975 18.0218 53.0964 17.9609 53.296 17.98Z" fill="#F4B095"/>
<path d="M53.2222 18.4009C53.3431 18.3577 53.4758 18.3616 53.594 18.4117C53.5989 18.4149 53.6025 18.4198 53.6042 18.4254C53.6059 18.431 53.6055 18.4371 53.6031 18.4424C53.6007 18.4478 53.5965 18.4521 53.5912 18.4547C53.5858 18.4572 53.5798 18.4577 53.5741 18.4562C53.4681 18.4117 53.3495 18.4079 53.2408 18.4454C53.1691 18.478 53.111 18.5347 53.0769 18.6057C53.1377 18.5717 53.2072 18.5563 53.2767 18.5614C53.3462 18.5665 53.4127 18.5919 53.4678 18.6345C53.5206 18.6762 53.5578 18.7343 53.5736 18.7997C53.5894 18.865 53.5828 18.9338 53.5549 18.9949C53.5312 19.0597 53.487 19.1151 53.429 19.1527C53.3711 19.1903 53.3025 19.208 53.2336 19.2033H53.2294C53.2262 19.2031 53.2231 19.2022 53.2203 19.2007C53.2174 19.1993 53.2149 19.1972 53.2129 19.1947C53.2109 19.1923 53.2094 19.1894 53.2085 19.1863C53.2076 19.1833 53.2074 19.18 53.2078 19.1769C53.2081 19.1737 53.209 19.1706 53.2105 19.1678C53.212 19.165 53.214 19.1626 53.2165 19.1606C53.2189 19.1585 53.2218 19.157 53.2248 19.1561C53.2279 19.1552 53.2311 19.1549 53.2342 19.1552C53.2937 19.1601 53.353 19.145 53.4029 19.1124C53.4528 19.0798 53.4905 19.0315 53.5099 18.9751C53.5325 18.9241 53.5378 18.8672 53.525 18.813C53.5122 18.7588 53.482 18.7102 53.439 18.6748C53.242 18.5246 53.048 18.6802 53.0402 18.6868L52.973 18.7414L53.0018 18.6598C53.0179 18.6034 53.0459 18.5511 53.0839 18.5064C53.1219 18.4618 53.1691 18.4258 53.2222 18.4009Z" fill="#F07162"/>
<path d="M51.5491 15.3314C53.1106 15.3536 53.2073 16.5355 53.2073 16.5355L51.4056 16.7235L49.7624 16.4484L49.6477 16.4454C49.6477 16.4454 49.9876 15.3097 51.5491 15.3314Z" fill="#F4B095"/>
<path d="M51.9581 14.9831C52.0651 14.9933 53.6902 15.8461 53.6902 15.8461C53.6902 15.8461 53.9785 18.0082 53.0668 17.9926C52.1551 17.9769 51.8855 16.4082 51.8855 16.4082C50.6141 16.5013 49.7414 15.4647 49.7414 15.4647L50.0669 14.6924C50.0669 14.6924 51.8512 14.9729 51.9581 14.9831Z" fill="#895B1F"/>
<path d="M50.5112 19.513C50.1755 19.5484 50.0127 19.1904 50.0127 19.1904C50.0271 19.1868 50.931 19.0938 50.931 19.0938C50.931 19.0938 50.8451 19.4769 50.5112 19.513Z" fill="#FBFDFC"/>
<path d="M43.9944 22.7423C45.1956 21.857 50.629 21.7129 50.629 21.7129C50.629 21.7129 55.7741 21.7387 57.4569 22.0702C59.1397 22.4018 60.7133 23.9056 61.0736 25.9704C61.4339 28.0352 60.8472 32.9299 59.4448 35.4283C58.0425 37.9267 56.0816 39.4047 55.5957 39.3795C55.1099 39.3542 52.2037 38.5387 52.2037 38.5387C51.9196 38.5387 46.2826 38.1224 44.4046 37.2894C42.0023 36.2252 41.9957 28.3186 41.9957 28.3186C41.9957 28.3186 42.3122 23.9831 43.9944 22.7423Z" fill="#F7C4EB"/>
<path d="M55.7529 21.842C56.8417 21.9387 57.6837 22.0822 58.2549 22.2714C59.8206 22.7873 61.2337 24.7878 61.2199 26.4688C61.2199 26.4745 61.2188 26.48 61.2166 26.4853C61.2144 26.4905 61.2113 26.4952 61.2072 26.4992C61.2032 26.5032 61.1984 26.5063 61.1932 26.5084C61.1879 26.5105 61.1823 26.5115 61.1767 26.5114C61.171 26.5114 61.1654 26.5103 61.1602 26.5082C61.155 26.506 61.1503 26.5028 61.1463 26.4987C61.1424 26.4947 61.1392 26.4899 61.1371 26.4847C61.135 26.4795 61.134 26.4739 61.134 26.4682C61.1473 24.8196 59.7623 22.8588 58.2279 22.3531C57.6627 22.1675 56.8279 22.0239 55.7451 21.9279C55.7338 21.9266 55.7234 21.9211 55.7161 21.9123C55.7088 21.9036 55.7052 21.8923 55.706 21.881C55.7071 21.8696 55.7126 21.8591 55.7214 21.8518C55.7302 21.8445 55.7415 21.841 55.7529 21.842Z" fill="black"/>
<path d="M55.2392 26.4579C55.2405 26.4522 55.2428 26.4468 55.2462 26.442C55.2496 26.4373 55.2539 26.4332 55.2589 26.4302C55.2639 26.4271 55.2695 26.4251 55.2753 26.4243C55.2811 26.4234 55.287 26.4238 55.2926 26.4253C55.2983 26.4268 55.3036 26.4294 55.3082 26.433C55.3128 26.4366 55.3166 26.4412 55.3194 26.4463C55.3222 26.4514 55.324 26.4571 55.3245 26.4629C55.3251 26.4687 55.3245 26.4746 55.3227 26.4802L53.5672 33.0228C53.5648 33.032 53.5595 33.0401 53.552 33.0458C53.5445 33.0516 53.5352 33.0547 53.5258 33.0547C53.5222 33.0553 53.5186 33.0553 53.515 33.0547C53.5039 33.0517 53.4945 33.0445 53.4887 33.0346C53.483 33.0247 53.4814 33.0129 53.4843 33.0018L55.2392 26.4579Z" fill="black"/>
<path d="M50.748 25.902C50.7536 25.901 50.7593 25.9012 50.7648 25.9025C50.7703 25.9038 50.7755 25.9061 50.7801 25.9094C50.7847 25.9127 50.7885 25.9169 50.7915 25.9217C50.7944 25.9265 50.7964 25.9318 50.7973 25.9374L51.715 31.6987C51.7159 31.7043 51.7157 31.71 51.7145 31.7155C51.7132 31.721 51.7108 31.7262 51.7075 31.7307C51.7042 31.7353 51.7001 31.7392 51.6953 31.7422C51.6905 31.7451 51.6851 31.7471 51.6795 31.748H51.6723C51.6622 31.748 51.6524 31.7443 51.6447 31.7377C51.637 31.7311 51.6319 31.722 51.6303 31.7119L50.712 25.9506C50.7105 25.9394 50.7134 25.928 50.7201 25.9189C50.7268 25.9098 50.7369 25.9037 50.748 25.902Z" fill="black"/>
<path d="M42.4703 33.0815C42.4759 33.0807 42.4815 33.081 42.487 33.0823C42.4925 33.0837 42.4976 33.0861 42.5021 33.0894C42.5066 33.0928 42.5105 33.097 42.5134 33.1018C42.5162 33.1066 42.5181 33.112 42.519 33.1176C42.5238 33.1494 42.9838 36.2934 44.051 37.0165C45.1183 37.7396 48.7061 38.1576 48.7421 38.1624C48.7527 38.1641 48.7622 38.1697 48.769 38.178C48.7757 38.1863 48.779 38.1969 48.7784 38.2075C48.7778 38.2182 48.7733 38.2283 48.7657 38.2358C48.7581 38.2433 48.748 38.2478 48.7373 38.2483H48.7325C48.5842 38.2321 45.0948 37.8279 44.003 37.0886C42.9111 36.3493 42.4523 33.2611 42.4337 33.1308C42.4328 33.1251 42.4331 33.1194 42.4345 33.1139C42.4359 33.1083 42.4383 33.1031 42.4417 33.0985C42.4451 33.0939 42.4494 33.0901 42.4543 33.0872C42.4592 33.0843 42.4647 33.0824 42.4703 33.0815Z" fill="black"/>
<path d="M50.4571 32.2251C50.4625 32.2156 50.4712 32.2085 50.4816 32.2052C50.492 32.2019 50.5033 32.2026 50.5132 32.2072C50.523 32.2119 50.5308 32.22 50.5349 32.2302C50.539 32.2403 50.5391 32.2516 50.5352 32.2618C50.5268 32.2792 49.7004 34.0515 48.9983 37.1451C48.9962 37.1546 48.9909 37.1632 48.9833 37.1693C48.9756 37.1755 48.9661 37.1788 48.9563 37.1787H48.9467C48.9356 37.1761 48.9261 37.1693 48.92 37.1598C48.914 37.1502 48.9119 37.1387 48.9142 37.1276C49.6187 34.0227 50.4487 32.2425 50.4571 32.2251Z" fill="black"/>
<path d="M46.9414 25.945C46.947 25.9459 46.9523 25.9479 46.9571 25.951C46.9619 25.954 46.966 25.9579 46.9692 25.9626C46.9725 25.9672 46.9748 25.9725 46.976 25.978C46.9772 25.9835 46.9773 25.9892 46.9762 25.9948C46.9376 26.3471 47.0288 26.7013 47.2327 26.9912C47.2392 27.0006 47.2417 27.0122 47.2397 27.0234C47.2376 27.0347 47.2312 27.0447 47.2218 27.0512C47.2172 27.0545 47.212 27.0569 47.2064 27.0581C47.2009 27.0593 47.1951 27.0595 47.1895 27.0585C47.184 27.0575 47.1786 27.0553 47.1738 27.0522C47.1691 27.0491 47.165 27.0451 47.1618 27.0404C46.9427 26.7329 46.8463 26.3547 46.8915 25.9798C46.8936 25.9686 46.9 25.9587 46.9093 25.9521C46.9186 25.9456 46.9302 25.943 46.9414 25.945Z" fill="black"/>
<path d="M47.2579 26.1992C47.2692 26.1991 47.2802 26.2033 47.2885 26.211C47.2967 26.2187 47.3017 26.2293 47.3023 26.2407C47.3372 26.6077 47.4724 26.958 47.6933 27.2532C47.6998 27.2625 47.7024 27.274 47.7006 27.2852C47.6988 27.2964 47.6928 27.3065 47.6837 27.3133C47.6792 27.3166 47.674 27.3191 47.6685 27.3204C47.663 27.3217 47.6572 27.3219 47.6517 27.3211C47.6461 27.3202 47.6407 27.3182 47.6359 27.3152C47.6311 27.3122 47.6269 27.3083 47.6237 27.3037C47.3914 26.9951 47.2501 26.6277 47.2159 26.2431C47.2158 26.2317 47.2202 26.2209 47.2281 26.2127C47.2359 26.2045 47.2466 26.1997 47.2579 26.1992Z" fill="black"/>
<path d="M55.629 38.1563C55.98 38.1081 56.3013 37.9336 56.5329 37.6656C56.5363 37.6611 56.5405 37.6573 56.5454 37.6544C56.5502 37.6515 56.5556 37.6496 56.5612 37.6488C56.5668 37.6481 56.5724 37.6484 56.5779 37.6498C56.5833 37.6513 56.5885 37.6538 56.5929 37.6572C56.602 37.664 56.6081 37.6741 56.6098 37.6854C56.6115 37.6966 56.6087 37.708 56.602 37.7172C56.358 38.0055 56.0154 38.1924 55.641 38.2415H55.6344C55.6237 38.2413 55.6134 38.237 55.6056 38.2296C55.5979 38.2221 55.5931 38.2121 55.5924 38.2013C55.5916 38.1906 55.5949 38.18 55.6016 38.1715C55.6082 38.1631 55.6178 38.1574 55.6284 38.1557L55.629 38.1563Z" fill="black"/>
<path d="M55.1247 38.001C55.4913 37.9614 55.84 37.8216 56.1324 37.5968C56.1411 37.5897 56.1522 37.5862 56.1634 37.5871C56.1746 37.5879 56.1851 37.5932 56.1925 37.6017C56.1999 37.6102 56.2036 37.6213 56.2028 37.6325C56.202 37.6438 56.1968 37.6543 56.1883 37.6617C55.8836 37.8989 55.5184 38.0459 55.1343 38.0857H55.1289C55.1176 38.0864 55.1064 38.0825 55.098 38.0749C55.0896 38.0674 55.0845 38.0568 55.0838 38.0455C55.0832 38.0342 55.0871 38.0231 55.0946 38.0146C55.1022 38.0062 55.1127 38.0011 55.1241 38.0004L55.1247 38.001Z" fill="black"/>
<path d="M49.5149 32.0031L49.5287 31.9707L49.5635 31.9785C49.5935 31.9857 52.5808 32.6704 53.9183 33.125H53.9273L54.5207 33.6944C54.5263 33.7027 54.5289 33.7127 54.5279 33.7227C54.527 33.7327 54.5226 33.7421 54.5155 33.7492C54.5084 33.7563 54.499 33.7607 54.489 33.7617C54.479 33.7626 54.4689 33.7601 54.4606 33.7544L53.8811 33.1977C52.6199 32.7713 49.9173 32.1431 49.5785 32.065C49.441 32.3857 48.3443 34.9844 48.2573 36.7801L52.2211 38.4924C52.3142 38.5206 54.9789 39.3332 55.5843 39.3332H55.5975C56.1723 39.3212 57.5524 37.9182 57.5662 37.9038C57.5698 37.8985 57.5745 37.8941 57.5799 37.8909C57.5854 37.8876 57.5915 37.8856 57.5979 37.885C57.6042 37.8844 57.6106 37.8852 57.6166 37.8874C57.6226 37.8895 57.6281 37.893 57.6326 37.8975C57.6371 37.902 57.6405 37.9075 57.6427 37.9135C57.6448 37.9194 57.6456 37.9258 57.645 37.9322C57.6444 37.9385 57.6424 37.9446 57.6392 37.9501C57.6359 37.9556 57.6315 37.9603 57.6262 37.9639C57.5662 38.0239 56.2083 39.4052 55.5987 39.4191H55.5843C54.9579 39.4191 52.3063 38.6101 52.1934 38.5783H52.1886L48.169 36.8414V36.812C48.2531 34.8877 49.5023 32.032 49.5149 32.0031Z" fill="black"/>
<path d="M40.395 29.8365C40.395 29.8365 40.1788 29.3861 40.5986 29.2497C40.5986 29.2497 40.3583 28.7573 41.0598 28.7092C41.0629 28.6189 41.0968 28.5323 41.1559 28.4639C41.215 28.3955 41.2958 28.3494 41.3847 28.3332C41.7096 28.263 42.4658 28.4311 42.5787 28.5008C42.6916 28.5705 44.0104 29.8437 44.0104 29.8437C44.0104 29.8437 45.1065 30.8376 45.3359 30.8887C45.5653 30.9397 49.4114 32.3607 49.4114 32.3607L48.4907 35.0381L48.1868 36.7521C48.1868 36.7521 45.184 35.4267 44.7245 35.0951C44.2651 34.7636 41.9072 33.0814 41.6904 32.4436C41.4736 31.8058 40.7517 30.974 40.2628 30.4557C40.261 30.4569 40.0022 30.0233 40.395 29.8365Z" fill="#F4B095"/>
<path d="M41.0668 28.6685C41.1052 28.6763 41.9983 28.8613 42.1622 28.9393C42.3262 29.0174 42.6601 29.3243 42.6745 29.3375C42.6824 29.3455 42.6869 29.3563 42.6869 29.3675C42.6869 29.3788 42.6824 29.3896 42.6745 29.3976C42.6704 29.4019 42.6655 29.4053 42.66 29.4077C42.6545 29.4101 42.6487 29.4113 42.6427 29.4114C42.6318 29.4114 42.6213 29.4074 42.6133 29.4C42.6133 29.397 42.2769 29.0895 42.1232 29.0162C41.9989 28.9561 41.3653 28.818 41.047 28.752C41.0414 28.7508 41.0362 28.7486 41.0315 28.7454C41.0269 28.7422 41.0229 28.7382 41.0198 28.7335C41.0135 28.724 41.0113 28.7123 41.0136 28.7012C41.0159 28.69 41.0226 28.6803 41.0321 28.674C41.0416 28.6678 41.0532 28.6656 41.0644 28.6679L41.0668 28.6685Z" fill="#F07162"/>
<path d="M40.6099 29.2093C40.6423 29.2189 41.4152 29.4496 41.6128 29.5613C41.7807 29.6696 41.9375 29.7943 42.0807 29.9336C42.0886 29.9416 42.093 29.9524 42.093 29.9636C42.093 29.9749 42.0886 29.9857 42.0807 29.9937C42.0726 30.0019 42.0616 30.0066 42.05 30.0069C42.0445 30.0069 42.0389 30.0058 42.0338 30.0036C42.0286 30.0014 42.0239 29.9983 42.02 29.9943C41.882 29.8598 41.7311 29.7391 41.5696 29.6339C41.381 29.527 40.5924 29.2916 40.5846 29.2892C40.5792 29.2876 40.5742 29.285 40.5698 29.2814C40.5654 29.2779 40.5617 29.2735 40.559 29.2685C40.5564 29.2635 40.5547 29.2581 40.5541 29.2524C40.5536 29.2468 40.5541 29.2411 40.5558 29.2357C40.5595 29.2251 40.5672 29.2163 40.5774 29.2114C40.5875 29.2064 40.5992 29.2057 40.6099 29.2093Z" fill="#F07162"/>
<path d="M40.4049 29.7958C40.4337 29.803 41.1099 29.9855 41.3057 30.1063C41.4415 30.1933 41.567 30.2955 41.6799 30.4107C41.6878 30.4187 41.6923 30.4295 41.6923 30.4408C41.6923 30.452 41.6878 30.4628 41.6799 30.4708C41.6719 30.4783 41.6614 30.4826 41.6505 30.4828C41.6446 30.4829 41.6388 30.4818 41.6335 30.4795C41.6281 30.4772 41.6232 30.4738 41.6192 30.4696C41.5115 30.3597 41.3919 30.2622 41.2625 30.1789C41.0745 30.0648 40.3887 29.8786 40.3815 29.8786C40.3704 29.8757 40.3609 29.8684 40.3552 29.8585C40.3495 29.8486 40.3479 29.8369 40.3508 29.8258C40.3523 29.8202 40.355 29.815 40.3585 29.8105C40.3621 29.806 40.3665 29.8022 40.3715 29.7994C40.3766 29.7966 40.3821 29.7948 40.3878 29.7942C40.3936 29.7936 40.3993 29.7941 40.4049 29.7958Z" fill="#F07162"/>
<path d="M54.4032 21.8048C51.2568 24.8834 48.2173 21.8541 48.2173 21.8541C50.807 21.4 54.4032 21.8048 54.4032 21.8048Z" fill="#F4B095"/>
<path d="M15.4726 17.0358C15.4726 17.0358 15.7452 17.8597 15.045 18.1726L15.663 19.6464C15.8317 20.0458 15.5332 20.1125 15.1717 20.3515C14.9684 20.4861 14.7456 20.5884 14.5111 20.6548C13.6769 20.895 13.0463 20.396 12.8895 20.1029C12.7328 19.8098 12.5129 18.2561 12.5129 18.2561L12.2775 17.5288L11.561 14.6557L14.7687 14.5674L15.4726 17.0358Z" fill="#FE9F73"/>
<path d="M13.9428 15.9196C13.9516 15.9233 13.9586 15.9304 13.9622 15.9393C13.9658 15.9482 13.9658 15.9582 13.962 15.967C13.9583 15.9759 13.9512 15.9829 13.9423 15.9865C13.9334 15.9901 13.9234 15.99 13.9146 15.9863C13.4389 15.7851 13.1398 16.3346 13.1278 16.358C13.123 16.3666 13.115 16.3731 13.1056 16.376C13.1011 16.3773 13.0964 16.3777 13.0918 16.3772C13.0871 16.3767 13.0827 16.3753 13.0786 16.373C13.0703 16.3684 13.064 16.3608 13.0612 16.3517C13.0584 16.3427 13.0593 16.3328 13.0636 16.3244C13.0702 16.3202 13.4059 15.6926 13.9428 15.9196Z" fill="#49263E"/>
<path d="M14.9608 15.4298C14.9695 15.4338 14.9763 15.4411 14.9796 15.4501C14.983 15.4591 14.9827 15.4691 14.9788 15.4778C14.9746 15.4864 14.9673 15.4931 14.9584 15.4964C14.9494 15.4998 14.9396 15.4996 14.9308 15.4958C14.7266 15.4015 14.5014 15.7403 14.4996 15.7439C14.4947 15.7511 14.4875 15.7564 14.4791 15.7589C14.4741 15.7602 14.4688 15.7604 14.4636 15.7596C14.4585 15.7588 14.4535 15.7569 14.4491 15.7541C14.4413 15.7487 14.4358 15.7405 14.4339 15.7312C14.432 15.7219 14.4338 15.7123 14.4389 15.7042C14.4515 15.688 14.7001 15.3096 14.9608 15.4298Z" fill="#49263E"/>
<path d="M13.715 16.2414C13.7355 16.2356 13.7574 16.236 13.7777 16.2426C13.798 16.2491 13.8159 16.2616 13.8292 16.2783C13.8424 16.2951 13.8504 16.3154 13.8522 16.3367C13.8539 16.3579 13.8493 16.3793 13.8389 16.3979C13.8285 16.4166 13.8128 16.4318 13.7938 16.4416C13.7748 16.4513 13.7534 16.4552 13.7322 16.4528C13.7109 16.4504 13.6909 16.4417 13.6746 16.4279C13.6583 16.4142 13.6464 16.3958 13.6405 16.3753C13.6366 16.3616 13.6354 16.3473 13.637 16.3332C13.6386 16.319 13.643 16.3053 13.6499 16.2929C13.6568 16.2804 13.6662 16.2695 13.6773 16.2606C13.6885 16.2518 13.7013 16.2453 13.715 16.2414Z" fill="black"/>
<path d="M14.7931 15.8206C14.8138 15.8147 14.8358 15.815 14.8562 15.8216C14.8767 15.8281 14.8948 15.8406 14.9082 15.8574C14.9216 15.8742 14.9297 15.8946 14.9315 15.9161C14.9333 15.9375 14.9287 15.9589 14.9183 15.9778C14.9078 15.9966 14.8921 16.0119 14.873 16.0217C14.8539 16.0316 14.8323 16.0355 14.8109 16.0331C14.7896 16.0307 14.7694 16.022 14.753 16.0081C14.7365 15.9943 14.7246 15.9758 14.7187 15.9551C14.7147 15.9414 14.7135 15.927 14.7151 15.9129C14.7167 15.8987 14.7211 15.8849 14.728 15.8724C14.735 15.86 14.7443 15.849 14.7554 15.8401C14.7666 15.8312 14.7794 15.8246 14.7931 15.8206Z" fill="black"/>
<path d="M13.4523 12.9913C14.1201 12.4334 14.86 12.6628 15.0474 12.8261C15.4282 13.1564 15.8173 13.4669 15.1453 14.5354C14.4733 15.6038 12.5142 15.423 12.5142 15.423L11.6974 14.7624C11.6974 14.7624 11.6067 14.6519 11.4884 14.4795C11.3701 14.3072 11.8067 13.6621 12.2139 13.2453C12.6211 12.8285 13.0877 13.2958 13.4523 12.9913Z" fill="#2C2C2C"/>
<path d="M11.6327 14.4072L11.6111 14.6541L12.2819 15.5669L12.7191 18.2155C11.6621 18.6419 11.3757 17.045 11.3018 16.8167C11.2279 16.5885 10.8117 16.2702 10.8153 15.4354C10.8189 14.6006 11.6327 14.4072 11.6327 14.4072Z" fill="#2C2C2C"/>
<path d="M12.1727 16.0797C12.2965 16.0443 12.428 16.0465 12.5506 16.0859C12.6732 16.1253 12.7814 16.2002 12.8614 16.3011C12.9415 16.402 12.9898 16.5244 13.0003 16.6527C13.0107 16.7811 12.9829 16.9097 12.9203 17.0222C12.8577 17.1348 12.7631 17.2262 12.6485 17.285C12.5339 17.3438 12.4045 17.3672 12.2765 17.3524C12.1486 17.3376 12.0279 17.2852 11.9298 17.2018C11.8317 17.1184 11.7605 17.0078 11.7252 16.8839C11.7018 16.8017 11.6947 16.7157 11.7045 16.6308C11.7143 16.5459 11.7407 16.4637 11.7823 16.3891C11.8238 16.3144 11.8797 16.2486 11.9467 16.1955C12.0137 16.1425 12.0905 16.1031 12.1727 16.0797Z" fill="#FE9F73"/>
<path d="M12.2997 16.4256C12.3477 16.4381 12.3926 16.4606 12.4313 16.4916C12.47 16.5227 12.5017 16.5616 12.5243 16.6057L12.5567 16.6622L12.5003 16.631C12.4454 16.6004 12.382 16.5889 12.3199 16.5984C12.2578 16.6078 12.2006 16.6377 12.1574 16.6832C12.1253 16.7203 12.1066 16.7671 12.1042 16.8161C12.1019 16.865 12.1159 16.9134 12.1442 16.9535C12.1693 16.9979 12.2084 17.0328 12.2555 17.0527C12.3025 17.0726 12.3548 17.0764 12.4042 17.0634H12.4078C12.4121 17.0627 12.4165 17.0636 12.4202 17.0659C12.4239 17.0682 12.4267 17.0718 12.4279 17.076C12.4292 17.0802 12.4288 17.0847 12.427 17.0887C12.4252 17.0926 12.422 17.0958 12.418 17.0976H12.4144C12.3576 17.1121 12.2976 17.1078 12.2434 17.0852C12.1893 17.0627 12.1439 17.0232 12.1141 16.9727C12.0812 16.9261 12.065 16.8697 12.0681 16.8127C12.0711 16.7557 12.0933 16.7014 12.1309 16.6586C12.1718 16.6134 12.2253 16.5814 12.2844 16.5668C12.3436 16.5521 12.4058 16.5554 12.4631 16.5763C12.4229 16.5167 12.3622 16.474 12.2925 16.4562C12.1941 16.4415 12.0936 16.4628 12.0096 16.5162C12.0077 16.5176 12.0054 16.5186 12.0031 16.5191C12.0008 16.5196 11.9984 16.5196 11.996 16.5191C11.9937 16.5187 11.9914 16.5178 11.9894 16.5165C11.9874 16.5151 11.9857 16.5135 11.9844 16.5115C11.9818 16.5075 11.9809 16.5028 11.9818 16.4982C11.9827 16.4936 11.9854 16.4895 11.9892 16.4868C12.0815 16.4285 12.1922 16.4067 12.2997 16.4256Z" fill="#F07162"/>
<path d="M15.0447 18.1722L15.3792 18.9643C13.5973 19.3283 13.1505 17.9434 13.1505 17.9434C13.9787 18.7223 15.0447 18.1722 15.0447 18.1722Z" fill="#F07162"/>
<path d="M12.6067 15.9658C12.7442 16.3261 13.1082 17.2871 13.2121 17.3069C13.3592 17.3315 15.1874 16.5177 15.4805 16.6078C15.4805 16.6078 16.1843 18.2143 15.0919 18.5897C13.5304 19.1302 13.1154 18.2654 12.8097 17.5507L12.3569 16.0246L12.2812 15.5664C12.4297 15.6613 12.5438 15.8012 12.6067 15.9658Z" fill="#2C2C2C"/>
<path d="M14.3838 15.8554C14.3859 15.8543 14.3882 15.8537 14.3906 15.8535C14.3929 15.8534 14.3953 15.8538 14.3975 15.8546C14.3997 15.8555 14.4017 15.8568 14.4034 15.8585C14.4051 15.8601 14.4064 15.8622 14.4072 15.8644L14.7633 16.6806L14.4228 16.9118H14.418C14.4144 16.9129 14.4105 16.9128 14.4069 16.9115C14.4033 16.9102 14.4003 16.9078 14.3982 16.9046C14.3968 16.9026 14.3959 16.9004 14.3954 16.8981C14.3949 16.8957 14.3949 16.8933 14.3953 16.891C14.3958 16.8886 14.3967 16.8864 14.398 16.8844C14.3993 16.8824 14.401 16.8807 14.403 16.8794L14.7183 16.665L14.3742 15.8764C14.3731 15.8723 14.3734 15.868 14.3752 15.8641C14.3769 15.8603 14.38 15.8572 14.3838 15.8554Z" fill="#F07162"/>
<path d="M14.6725 17.4984C14.4226 17.5765 14.2443 17.3296 14.2443 17.3296C14.2545 17.3248 14.9277 17.1152 14.9277 17.1152C14.9277 17.1152 14.9223 17.4197 14.6725 17.4984Z" fill="#FBFDFC"/>
<path d="M13.9255 34.6724L16.8179 33.5607L18.3511 32.9721C18.5166 32.9087 18.6941 32.8832 18.8707 32.8973C19.0473 32.9115 19.2185 32.965 19.3718 33.0539C19.525 33.1428 19.6564 33.2649 19.7563 33.4112C19.8563 33.5575 19.9222 33.7243 19.9493 33.8994L19.9697 34.0352C19.98 34.1013 19.9846 34.1682 19.9835 34.2351L19.9318 37.441L19.9264 37.7413H13.2354C13.2312 37.638 13.2276 37.5371 13.224 37.441C13.1988 36.7774 13.1796 36.2291 13.164 35.8195C13.1558 35.5728 13.2247 35.3297 13.3612 35.1241C13.4977 34.9185 13.695 34.7606 13.9255 34.6724Z" fill="#3AA1C9"/>
<path d="M8.51004 34.228L17.4965 31.5908L16.8178 33.5607L15.4815 37.441L15.377 37.7413H8.40194C8.40674 37.6386 8.41095 37.5377 8.41515 37.441C8.49923 35.4519 8.51004 34.228 8.51004 34.228Z" fill="#FFFFFD"/>
<path d="M23.3271 7.84473L25.9462 8.27956C25.9462 8.27956 24.2316 16.9543 23.8112 17.8767C23.625 18.2845 21.726 20.8604 21.726 20.8604L18.8366 18.7224L21.2095 14.606L23.3271 7.84473Z" fill="#FE9F73"/>
<path d="M22.736 6.23064C22.7636 6.21176 22.7947 6.19851 22.8274 6.19167C22.8602 6.18483 22.894 6.18454 22.9268 6.19079C22.9597 6.19704 22.991 6.20971 23.019 6.22809C23.0469 6.24647 23.071 6.27021 23.0897 6.29791L23.6098 6.81861C23.6699 6.50871 23.8939 4.50879 23.8939 4.50879C23.8956 4.47378 23.9045 4.43949 23.9201 4.40809C23.9357 4.37669 23.9576 4.34886 23.9844 4.3263C24.0113 4.30375 24.0425 4.28697 24.0761 4.27704C24.1097 4.2671 24.145 4.26422 24.1798 4.26856C24.2448 4.27796 24.3038 4.31159 24.345 4.36273C24.3863 4.41386 24.4066 4.4787 24.402 4.54422L24.3257 5.86009C24.3245 5.87519 24.329 5.8902 24.3383 5.90211C24.3477 5.91403 24.3612 5.92197 24.3762 5.92434L24.441 5.93695C24.449 5.93878 24.4574 5.93894 24.4655 5.93742C24.4735 5.9359 24.4812 5.93274 24.4881 5.92812C24.4949 5.92351 24.5007 5.91754 24.5051 5.91059C24.5095 5.90364 24.5124 5.89585 24.5137 5.88771L24.7785 4.49437C24.7851 4.46014 24.7986 4.42763 24.8182 4.39882C24.8378 4.37002 24.8631 4.34552 24.8925 4.32689C24.922 4.30826 24.9549 4.29585 24.9893 4.29047C25.0238 4.28508 25.0589 4.28682 25.0927 4.29557C25.1555 4.31322 25.2095 4.35395 25.2436 4.40962C25.2778 4.46528 25.2897 4.53179 25.277 4.59586L25.014 5.98021C25.0121 5.98823 25.012 5.99654 25.0135 6.00463C25.015 6.01272 25.0182 6.02043 25.0228 6.02724C25.0274 6.03406 25.0334 6.03984 25.0403 6.04425C25.0473 6.04866 25.0551 6.0516 25.0632 6.05287L25.0836 6.05648C25.0976 6.05943 25.1122 6.05729 25.1247 6.05047C25.1373 6.04364 25.147 6.03257 25.1521 6.01924L25.629 4.8409C25.6585 4.77465 25.7091 4.71997 25.7728 4.68524C25.8365 4.65052 25.9098 4.63769 25.9815 4.64873C26.0132 4.65327 26.0434 4.66512 26.0697 4.68339C26.0959 4.70167 26.1176 4.72583 26.1329 4.75395C26.1481 4.78207 26.1566 4.81337 26.1577 4.84536C26.1587 4.87735 26.1523 4.90915 26.1388 4.9382L25.6716 6.09311C25.6644 6.10784 25.6634 6.12483 25.6688 6.14032C25.6741 6.15581 25.6854 6.16852 25.7001 6.17569C25.7149 6.18285 25.7318 6.18388 25.7473 6.17853C25.7628 6.17318 25.7755 6.16189 25.7827 6.14715L26.2001 5.41385C26.2318 5.35627 26.284 5.31279 26.3464 5.29218C26.4088 5.27157 26.4767 5.27534 26.5364 5.30274C26.5678 5.31792 26.5957 5.33938 26.6185 5.36579C26.6412 5.39219 26.6583 5.42298 26.6686 5.45626C26.679 5.48953 26.6824 5.52457 26.6787 5.55922C26.6749 5.59386 26.6641 5.62739 26.6469 5.65769L26.5869 5.75918C26.3578 6.16184 26.2039 6.60285 26.1328 7.06063L25.886 8.64796C25.4848 8.57829 25.2584 8.52786 23.808 8.13688C23.6561 8.14349 23.4759 8.10863 23.4249 8.03296L22.6663 6.57958C22.6299 6.52388 22.6168 6.45612 22.6299 6.39087C22.6429 6.32563 22.681 6.26809 22.736 6.23064Z" fill="#FE9F73"/>
<path d="M7.13966 14.8728L9.51314 18.9891L6.62016 21.129C6.62016 21.129 4.72174 18.5531 4.53556 18.1447C4.11516 17.2228 2.40051 8.54808 2.40051 8.54808L5.01903 8.11328L7.13966 14.8728Z" fill="#FE9F73"/>
<path d="M1.80976 5.57377C1.86941 5.54632 1.93724 5.54248 1.99962 5.56298C2.06201 5.58348 2.11433 5.62682 2.14608 5.6843L2.56648 6.41818C2.57365 6.43292 2.58638 6.44421 2.60186 6.44956C2.61735 6.45491 2.63433 6.45388 2.64906 6.44672C2.6638 6.43955 2.67508 6.42684 2.68043 6.41135C2.68578 6.39586 2.68476 6.37887 2.67759 6.36414L2.21035 5.20864C2.19691 5.17963 2.19045 5.14785 2.19149 5.11589C2.19253 5.08393 2.20103 5.05268 2.21633 5.0246C2.23162 4.99652 2.25328 4.9724 2.27956 4.95419C2.30585 4.93599 2.33603 4.92421 2.3677 4.91976C2.43942 4.90852 2.51285 4.92123 2.57659 4.95598C2.64034 4.99073 2.69083 5.04555 2.72024 5.11193L3.19649 6.29027C3.20162 6.30373 3.21143 6.3149 3.2241 6.32173C3.23678 6.32857 3.25149 6.33062 3.26556 6.32751L3.28597 6.3239C3.29411 6.32263 3.30189 6.31969 3.30884 6.31528C3.31579 6.31087 3.32176 6.30509 3.32638 6.29827C3.331 6.29146 3.33417 6.28375 3.33569 6.27566C3.33721 6.26757 3.33705 6.25926 3.33522 6.25124L3.07157 4.8663C3.05915 4.80226 3.07119 4.73589 3.10533 4.6803C3.13947 4.6247 3.19321 4.58391 3.25594 4.56602C3.28971 4.55717 3.32494 4.55537 3.35944 4.56071C3.39394 4.56605 3.42696 4.5784 3.45648 4.59704C3.48599 4.61569 3.51135 4.64021 3.53099 4.66906C3.55063 4.69792 3.56413 4.73052 3.57065 4.76481L3.8355 6.15813C3.83678 6.16626 3.83971 6.17405 3.84412 6.181C3.84853 6.18795 3.85432 6.19392 3.86114 6.19854C3.86795 6.20316 3.87565 6.20634 3.88374 6.20787C3.89183 6.20939 3.90014 6.20922 3.90817 6.2074L3.97304 6.19479C3.988 6.19241 4.00152 6.18448 4.01087 6.17256C4.02023 6.16064 4.02473 6.14561 4.02348 6.13051L3.94181 4.81285C3.93719 4.74733 3.95753 4.68249 3.99875 4.63135C4.03997 4.58022 4.09901 4.54658 4.16402 4.53719C4.19881 4.53276 4.23416 4.53559 4.26781 4.54549C4.30147 4.55539 4.33271 4.57213 4.35956 4.5947C4.38642 4.61726 4.40831 4.64516 4.42386 4.6766C4.4394 4.70805 4.44826 4.74238 4.44989 4.77742C4.44989 4.77742 4.6733 6.77734 4.73396 7.08723L5.25406 6.56592C5.27211 6.53658 5.29592 6.51122 5.32405 6.49135C5.35218 6.47148 5.38405 6.4575 5.41773 6.45029C5.45142 6.44309 5.4862 6.44281 5.52 6.44944C5.5538 6.45608 5.58591 6.46949 5.61437 6.48889C5.64284 6.50828 5.66707 6.53326 5.6856 6.56229C5.70414 6.59132 5.7166 6.62382 5.72221 6.6578C5.72783 6.69178 5.72649 6.72654 5.71829 6.76C5.71008 6.79345 5.69517 6.82487 5.67447 6.8524L4.91594 8.30639C4.86429 8.38206 4.68412 8.4169 4.53277 8.41029C3.08238 8.80307 2.85536 8.85113 2.45478 8.9214L2.20794 7.33406C2.13685 6.87628 1.98299 6.43528 1.7539 6.03262L1.69384 5.93113C1.67632 5.90041 1.66541 5.86636 1.66179 5.83119C1.65818 5.79601 1.66194 5.76048 1.67286 5.72685C1.68377 5.69321 1.70157 5.66221 1.72515 5.63585C1.74872 5.60949 1.77754 5.58835 1.80976 5.57377Z" fill="#FE9F73"/>
<path d="M6.16829 17.9849L6.21634 17.9399C6.44942 17.7217 6.69573 17.5181 6.95385 17.3303L6.99469 17.3008C7.35629 17.0358 7.75205 16.8209 8.17122 16.6618C8.29654 16.6156 8.42449 16.5769 8.55439 16.5459L11.0846 19.3374C11.0846 19.3374 11.4221 19.3494 11.9374 19.3656H11.9446C12.2011 19.374 12.5008 19.383 12.8245 19.3915L13.1362 19.3993C13.8869 19.4185 14.7259 19.4353 15.4358 19.4371C15.894 19.4371 16.2982 19.4371 16.5901 19.4215C16.7403 19.4212 16.8901 19.4049 17.0369 19.3728C17.2375 19.3002 17.7438 18.7993 18.2453 18.2642C18.8765 17.5909 19.5005 16.863 19.5005 16.863C19.6241 16.8694 19.7465 16.8895 19.8656 16.9231C20.3947 17.0594 21.498 17.4918 23.1574 18.8684C23.2715 18.9624 23.388 19.0615 23.5069 19.1656L23.4787 19.2077C23.1976 19.6227 20.9383 22.9799 20.8218 23.5594C20.8055 23.6417 20.7941 23.9618 20.7863 24.4555C20.7443 27.1341 20.8145 34.9127 20.8392 37.4381C20.8392 37.5499 20.8392 37.6508 20.8392 37.7384H7.71298C7.72199 37.6496 7.7316 37.5487 7.74241 37.4381C7.86973 36.1427 8.13879 33.344 8.37301 30.6444C8.47931 29.4132 8.5784 28.2019 8.65288 27.1611C8.65288 27.1551 8.65288 27.1497 8.65288 27.1443C8.73515 26.0032 8.78741 25.0747 8.78741 24.5552V24.5522C8.78741 24.3312 8.7772 24.1852 8.75678 24.1318C8.75138 24.118 8.74416 24.1017 8.73576 24.0843C8.37541 23.348 5.25242 19.9163 4.88847 19.52L4.85364 19.4827C4.85364 19.4827 4.95994 19.3278 5.15393 19.0888C5.46607 18.6977 5.805 18.3289 6.16829 17.9849Z" fill="#F7F0F2"/>
<path d="M14.3608 20.3872C13.1759 20.3902 11.9261 19.3662 11.9261 19.3662L16.5926 19.4227C16.5926 19.4227 15.5452 20.3848 14.3608 20.3872Z" fill="#FE9F73"/>
<path d="M19.4599 16.8338L19.4779 16.8086L19.5085 16.8128C19.5259 16.8128 21.2718 17.0681 23.5426 19.1304C23.5526 19.1395 23.5586 19.1522 23.5593 19.1657C23.56 19.1792 23.5553 19.1925 23.5462 19.2025C23.5414 19.2078 23.5355 19.2119 23.529 19.2148C23.5225 19.2177 23.5155 19.2192 23.5084 19.2193C23.4957 19.2191 23.4836 19.2144 23.4741 19.2061C21.3925 17.3149 19.7644 16.9617 19.5253 16.9185C19.1698 17.4114 18.7708 17.8715 18.3332 18.2932C18.3234 18.3018 18.3107 18.3063 18.2977 18.3058C18.2847 18.3053 18.2723 18.2999 18.2632 18.2906C18.254 18.2813 18.2488 18.2689 18.2485 18.2559C18.2483 18.2429 18.253 18.2302 18.2617 18.2206C18.703 17.7962 19.1041 17.332 19.4599 16.8338Z" fill="black"/>
<path d="M20.3453 21.378C20.3577 21.3728 20.3717 21.3727 20.3842 21.3778C20.3966 21.3828 20.4066 21.3926 20.4119 21.405C20.4257 21.4363 20.6888 22.0795 20.7891 24.4584C20.8113 24.9863 20.8257 25.5994 20.8269 26.3117C20.8347 29.4828 20.878 35.315 20.8942 37.441C20.8942 37.5521 20.8942 37.6536 20.8942 37.7413H20.7927C20.7927 37.6512 20.7927 37.5503 20.7927 37.441C20.7765 35.3144 20.7326 29.4828 20.7254 26.3117C20.7158 22.4272 20.3224 21.4537 20.3188 21.4471C20.3159 21.4408 20.3142 21.434 20.3139 21.4271C20.3136 21.4202 20.3148 21.4133 20.3172 21.4069C20.3197 21.4004 20.3235 21.3945 20.3283 21.3895C20.3331 21.3846 20.3389 21.3807 20.3453 21.378Z" fill="black"/>
<path d="M8.75959 24.0842C8.76622 24.0845 8.77272 24.0861 8.77873 24.0889C8.78473 24.0917 8.79011 24.0957 8.79458 24.1006C8.79904 24.1056 8.80249 24.1113 8.80473 24.1175C8.80697 24.1238 8.80796 24.1304 8.80764 24.137C8.80764 24.1833 8.59143 28.7446 8.42687 30.6016C8.42568 30.6142 8.41986 30.6259 8.41054 30.6345C8.40122 30.643 8.38907 30.6478 8.37642 30.6479H8.37162C8.35829 30.6466 8.34596 30.6402 8.33731 30.63C8.32866 30.6198 8.32438 30.6066 8.32538 30.5932C8.48993 28.738 8.70374 24.1791 8.70614 24.1328C8.7062 24.126 8.70766 24.1193 8.71043 24.1131C8.7132 24.1069 8.71722 24.1014 8.72224 24.0968C8.72726 24.0923 8.73316 24.0888 8.73959 24.0866C8.74602 24.0844 8.75283 24.0836 8.75959 24.0842Z" fill="black"/>
<path d="M9.55039 36.2634L10.6278 37.44C10.6344 37.4473 10.6388 37.4563 10.6403 37.466C10.6419 37.4757 10.6407 37.4856 10.6367 37.4946C10.6328 37.5036 10.6264 37.5113 10.6182 37.5167C10.61 37.5222 10.6004 37.5251 10.5906 37.5252C10.5835 37.5252 10.5764 37.5236 10.5699 37.5208C10.5634 37.5179 10.5576 37.5137 10.5527 37.5084L9.47532 36.3319C9.47053 36.3272 9.46672 36.3216 9.46412 36.3154C9.46152 36.3092 9.46017 36.3026 9.46017 36.2959C9.46017 36.2892 9.46152 36.2825 9.46412 36.2763C9.46672 36.2701 9.47053 36.2645 9.47532 36.2598C9.48035 36.2549 9.48635 36.251 9.49295 36.2485C9.49954 36.246 9.50659 36.2448 9.51365 36.2452C9.5207 36.2455 9.52761 36.2473 9.53393 36.2505C9.54026 36.2536 9.54587 36.258 9.55039 36.2634Z" fill="black"/>
<path d="M9.81421 37.168L10.0689 37.4419L10.3511 37.7422H10.2118L9.93012 37.4419L9.73974 37.2371C9.73489 37.2325 9.73102 37.227 9.72838 37.2208C9.72574 37.2147 9.72438 37.208 9.72438 37.2014C9.72438 37.1947 9.72574 37.1881 9.72838 37.1819C9.73102 37.1758 9.73489 37.1702 9.73974 37.1656C9.74463 37.1606 9.75052 37.1567 9.75702 37.1541C9.76352 37.1514 9.7705 37.1502 9.7775 37.1504C9.78451 37.1506 9.7914 37.1523 9.79772 37.1553C9.80404 37.1584 9.80965 37.1627 9.81421 37.168Z" fill="black"/>
<path d="M8.55003 16.4951H8.57525L11.1079 19.289L12.7745 19.3412C12.7812 19.3414 12.7878 19.3429 12.7939 19.3456C12.8001 19.3483 12.8056 19.3522 12.8102 19.357C12.8149 19.3619 12.8185 19.3676 12.8209 19.3739C12.8233 19.3801 12.8245 19.3868 12.8243 19.3935C12.8242 19.4002 12.8227 19.4068 12.8199 19.413C12.8172 19.4191 12.8132 19.4247 12.8083 19.4293C12.8034 19.4338 12.7976 19.4374 12.7912 19.4397C12.7849 19.442 12.7782 19.4431 12.7715 19.4427L11.061 19.3899L11.0466 19.3737L8.53441 16.602C8.314 16.6338 6.63719 16.9624 4.89672 19.5154C4.89216 19.5224 4.88591 19.528 4.87856 19.5319C4.87121 19.5358 4.86299 19.5378 4.85468 19.5376C4.84463 19.5378 4.83477 19.5349 4.82645 19.5292C4.82089 19.5255 4.81612 19.5207 4.81242 19.5151C4.80872 19.5095 4.80615 19.5032 4.80487 19.4966C4.80359 19.4901 4.80361 19.4833 4.80494 19.4767C4.80628 19.4702 4.80889 19.4639 4.81264 19.4583C6.70446 16.6843 8.47555 16.5005 8.55003 16.4951Z" fill="black"/>
<path d="M27.791 30.3136L31.8989 31.2884L35.0309 28.4561L35.3739 32.6649L39.035 34.7681L35.1385 36.3945L34.2688 40.5264L31.5182 37.3236L27.3195 37.7734L29.5165 34.1675L27.791 30.3136Z" fill="#EEB217"/>
<path d="M29.5159 34.1667L27.3195 37.7732L31.5176 37.3227L34.2688 40.5262L35.1378 36.3943L39.0344 34.7679L35.3709 32.6659L35.0285 28.457L31.8965 31.2888L27.7904 30.3134L29.5159 34.1667ZM29.8852 34.3919L30.0053 34.198L29.9128 33.9902L28.5453 30.9362L31.801 31.7086L32.0221 31.7614L32.1908 31.6089L34.673 29.3645L34.9445 32.6995L34.9625 32.9259L35.1601 33.0394L38.0608 34.7066L34.9733 35.9955L34.7637 36.0826L34.7168 36.3054L34.0292 39.5797L31.8491 37.0411L31.7008 36.8687L31.4749 36.8927L28.1477 37.2495L29.8852 34.3919Z" fill="white"/>
<path d="M26.8778 22.2822L27.2171 20.457L28.4597 21.8366L30.3011 21.5951L29.3726 23.2035L30.1713 24.8797L28.3552 24.4935L27.0075 25.7709L26.8129 23.9248L25.1818 23.0377L26.8778 22.2822Z" fill="#EEB217"/>
<path d="M25.1818 23.0378L26.8129 23.9248L27.0075 25.771L28.3546 24.4936L30.1713 24.8798L29.3726 23.2029L30.3005 21.5952L28.4597 21.8354L27.2171 20.4541L26.8778 22.2793L25.1818 23.0378ZM26.9919 23.8053L26.9036 23.7573L25.6112 23.0546L26.9553 22.454L27.0466 22.4138L27.0646 22.3153L27.3336 20.8685L28.3186 21.9622L28.3852 22.036L28.4843 22.0234L29.9431 21.8318L29.2056 23.1081L29.1552 23.1946L29.1984 23.2852L29.8314 24.6137L28.39 24.3074L28.2921 24.287L28.2195 24.3554L27.1517 25.368L27.0015 23.9044L26.9919 23.8053Z" fill="white"/>
<path d="M51.3304 8.68287C51.3304 8.68287 51.6187 7.79222 52.4943 7.94837C53.37 8.10452 53.0601 9.39934 53.0601 9.39934C53.0601 9.39934 53.3429 9.3393 53.5405 9.47383C53.5826 9.50208 53.6141 9.54341 53.6303 9.59142C53.6464 9.63944 53.6463 9.69145 53.6298 9.73937C53.6134 9.78728 53.5816 9.82843 53.5394 9.85643C53.4972 9.88444 53.4469 9.89773 53.3964 9.89423C52.7358 9.8564 51.1791 9.79033 49.8278 9.90444C49.6955 9.91581 49.5624 9.89928 49.4369 9.85593C49.3114 9.81259 49.1965 9.74341 49.0994 9.65283C49.0024 9.56225 48.9255 9.45232 48.8736 9.33014C48.8218 9.20795 48.7961 9.07623 48.7984 8.94352C48.8038 8.71349 48.8861 8.44684 49.0987 8.14414C49.9179 6.97903 51.3442 8.09251 51.3304 8.68287Z" fill="white"/>
<path d="M39.5261 14.3087C40.281 13.0475 41.3278 14.0427 41.3278 14.0427C41.3278 14.0427 41.3554 11.4314 43.658 11.6332C45.6658 11.8092 45.5198 14.4673 45.5198 14.4673C45.9486 14.4973 46.2033 14.6271 46.3528 14.7862C46.3917 14.8271 46.4214 14.8758 46.4399 14.9291H37.5724C38.233 13.5616 39.5261 14.3087 39.5261 14.3087Z" fill="white"/>
<path d="M57.7937 16.1364C57.7937 16.1364 57.6808 14.0944 59.2213 13.9617C60.9888 13.8067 61.0098 15.8102 61.0098 15.8102C61.0098 15.8102 61.8134 15.0481 62.3911 16.0144C62.3911 16.0144 63.3833 15.4415 63.8925 16.4907H57.088C57.1021 16.4499 57.1249 16.4126 57.1547 16.3814C57.2718 16.2601 57.4652 16.1592 57.7937 16.1364Z" fill="white"/>
</g>
<defs>
<clipPath id="clip0_477_316">
<rect width="65.4545" height="40" fill="white" transform="translate(0.0610275 0.584961)"/>
</clipPath>
</defs>
</svg>
