<svg width="50" height="51" viewBox="0 0 50 51" fill="none" xmlns="http://www.w3.org/2000/svg">
<path fill-rule="evenodd" clip-rule="evenodd" d="M49.901 25.7894C49.901 39.5169 38.7726 50.6452 25.0451 50.6452C11.3177 50.6452 0.189331 39.5169 0.189331 25.7894C0.189331 12.0619 11.3177 0.933594 25.0451 0.933594C38.7726 0.933594 49.901 12.0619 49.901 25.7894ZM28.2193 16.4211C28.0123 18.5545 27.9059 20.6938 27.7996 22.8327C27.7279 24.2733 27.6563 25.7137 27.554 27.152C27.528 27.5127 27.5231 27.8756 27.5182 28.238V28.238C27.5143 28.5201 27.5105 28.8018 27.4968 29.0818C27.4323 30.4494 26.3909 31.5019 25.1007 31.524C23.8105 31.5461 22.7359 30.5379 22.6511 29.1574C22.556 27.6148 22.4668 26.0717 22.3775 24.5285L22.3775 24.5282C22.2315 22.004 22.0855 19.4797 21.9139 16.9575C21.9078 16.8695 21.9014 16.7817 21.8951 16.6942L21.895 16.6937V16.6937C21.8141 15.582 21.7358 14.5068 22.3765 13.4886C23.1377 12.2777 24.4224 11.6823 25.7458 11.9957C26.4088 12.1472 27.0061 12.5067 27.4504 13.0217C27.8947 13.5366 28.1628 14.18 28.2156 14.8581C28.2395 15.2156 28.2326 15.5723 28.2257 15.9258V15.9258V15.9258C28.2225 16.0917 28.2193 16.2569 28.2193 16.4211ZM25.1469 33.2505C23.5121 33.186 21.9454 34.7139 21.9214 36.3931C21.9129 36.8156 21.9879 37.2357 22.1423 37.6291C22.2966 38.0226 22.5272 38.3817 22.8208 38.6857C23.1144 38.9897 23.4652 39.2327 23.853 39.4007C24.2408 39.5687 24.658 39.6584 25.0806 39.6647C26.697 39.6628 28.1974 38.1717 28.214 36.5497C28.2305 34.8153 26.8371 33.3168 25.1469 33.2505Z" fill="#F53636"/>
</svg>
