<svg width="21" height="21" viewBox="0 0 21 21" fill="none" xmlns="http://www.w3.org/2000/svg">
<path d="M11.8532 13.2012C11.301 13.2012 10.8532 13.6489 10.8532 14.2012C10.8532 14.7535 11.301 15.2012 11.8532 15.2012V13.2012ZM16.0199 14.2012H17.0199C17.0199 13.6489 16.5722 13.2012 16.0199 13.2012V14.2012ZM15.0199 18.3678C15.0199 18.9201 15.4676 19.3678 16.0199 19.3678C16.5722 19.3678 17.0199 18.9201 17.0199 18.3678H15.0199ZM11.8532 15.2012H16.0199V13.2012H11.8532V15.2012ZM15.0199 14.2012V18.3678H17.0199V14.2012H15.0199Z" fill="#EEB217"/>
<path d="M4.00536 13.3652C4.47259 14.5217 5.25488 15.5239 6.26331 16.2579C7.27173 16.9919 8.46585 17.4283 9.70993 17.5175C10.954 17.6066 12.1982 17.345 13.301 16.7623C14.4038 16.1797 15.321 15.2993 15.9484 14.2213" stroke="#EEB217" stroke-width="2" stroke-linecap="round" stroke-linejoin="round"/>
<path d="M8.51992 8.53385C9.0722 8.53385 9.51992 8.08614 9.51992 7.53385C9.51992 6.98157 9.0722 6.53385 8.51992 6.53385V8.53385ZM4.35325 7.53385H3.35325C3.35325 8.08614 3.80096 8.53385 4.35325 8.53385V7.53385ZM5.35325 3.36719C5.35325 2.8149 4.90553 2.36719 4.35325 2.36719C3.80096 2.36719 3.35325 2.8149 3.35325 3.36719H5.35325ZM8.51992 6.53385H4.35325V8.53385H8.51992V6.53385ZM5.35325 7.53385V3.36719H3.35325V7.53385H5.35325Z" fill="#EEB217"/>
<path d="M16.3679 8.37046C15.9007 7.21401 15.1184 6.21183 14.11 5.47782C13.1015 4.74381 11.9074 4.30741 10.6633 4.21824C9.41927 4.12906 8.17512 4.39068 7.07231 4.97335C5.9695 5.55603 5.05227 6.43639 4.42487 7.51437" stroke="#EEB217" stroke-width="2" stroke-linecap="round" stroke-linejoin="round"/>
</svg>
