<svg width="35" height="25" viewBox="0 0 35 25" fill="none" xmlns="http://www.w3.org/2000/svg">
<g opacity="0.8">
<g filter="url(#filter0_b_107_18988)">
<rect x="0.774902" y="0.507812" width="34.1013" height="24" rx="4" fill="black" fill-opacity="0.25"/>
</g>
<path d="M17.8126 22.3466H9.17471C7.70974 22.3466 6.5897 21.4138 6.32427 19.9744C6.30108 19.8327 6.29035 19.6891 6.29221 19.5455C6.29221 15.7697 6.29221 11.9946 6.29221 8.22004C6.29119 7.4789 6.58454 6.76769 7.10776 6.24279C7.63099 5.71788 8.34125 5.42225 9.08239 5.42089C10.0979 5.41768 11.1135 5.41512 12.1297 5.42474C12.322 5.42474 12.4194 5.36768 12.4733 5.18111C12.5637 4.86632 12.6727 4.55665 12.781 4.24763C12.9688 3.68979 13.3284 3.20573 13.8082 2.86482C14.288 2.52391 14.8634 2.34365 15.452 2.3499C17.0334 2.34691 18.617 2.34691 20.2027 2.3499C21.4324 2.3499 22.4633 3.08784 22.8711 4.24955C22.9768 4.55152 23.0858 4.85285 23.1705 5.16059C23.2282 5.36896 23.3384 5.4273 23.5481 5.42474C24.5399 5.41576 25.5317 5.41576 26.521 5.42089C28.1174 5.42089 29.3554 6.65441 29.3567 8.24504C29.3592 12.0042 29.3592 15.7633 29.3567 19.5224C29.3567 21.1131 28.1167 22.3434 26.5203 22.3434C23.6186 22.3477 20.716 22.3487 17.8126 22.3466ZM17.8184 20.7771H26.3581C26.7903 20.7771 27.1781 20.6771 27.4775 20.3335C27.7257 20.0482 27.7898 19.7109 27.7898 19.3519C27.7898 17.8965 27.7898 16.4412 27.7898 14.9858C27.7898 12.7949 27.7898 10.604 27.7898 8.41302C27.7898 7.99949 27.6955 7.62508 27.3756 7.32888C27.0903 7.06537 26.7479 6.99165 26.3799 6.991C25.1804 6.991 23.9809 6.991 22.7813 6.991C22.3049 6.991 22.0575 6.81534 21.9055 6.36591C21.7382 5.87416 21.5792 5.37986 21.4112 4.89132C21.1862 4.23032 20.7605 3.92514 20.0649 3.92386C18.5689 3.92386 17.0729 3.92386 15.577 3.92386C14.8929 3.92386 14.4634 4.23224 14.2422 4.87786C14.0742 5.3696 13.9152 5.86391 13.7491 6.35629C13.5921 6.82111 13.3504 6.99357 12.858 6.99357C11.6745 6.99357 10.4909 6.99357 9.30743 6.99357C8.35792 6.99357 7.8604 7.49557 7.85976 8.45085C7.85976 10.2887 7.85976 12.1277 7.85976 13.9677C7.85976 15.7753 7.85976 17.5824 7.85976 19.3891C7.85976 19.8565 8.00594 20.252 8.39254 20.538C8.67143 20.7438 8.99455 20.781 9.32602 20.781L17.8184 20.7771Z" fill="white"/>
<path fill-rule="evenodd" clip-rule="evenodd" d="M13.3221 13.4952C13.3106 15.9715 15.3584 18.0229 17.8213 17.9989C18.4111 18.0016 18.9957 17.8879 19.5415 17.6642C20.0872 17.4404 20.5834 17.1111 21.0016 16.6951C21.4198 16.2791 21.7517 15.7847 21.9783 15.2401C22.2048 14.6955 22.3216 14.1115 22.322 13.5217C22.326 11.0049 20.3346 9 17.8268 9C15.3279 8.99701 13.3356 10.9979 13.3221 13.4952ZM17.8228 10.6713C18.0437 10.6713 18.2228 10.8504 18.2228 11.0713V13.099H20.2494C20.4704 13.099 20.6494 13.2781 20.6494 13.499C20.6494 13.7199 20.4704 13.899 20.2494 13.899H18.2228V15.9259C18.2228 16.1468 18.0437 16.3259 17.8228 16.3259C17.6019 16.3259 17.4228 16.1468 17.4228 15.9259V13.899H15.3948C15.1739 13.899 14.9948 13.7199 14.9948 13.499C14.9948 13.2781 15.1739 13.099 15.3948 13.099H17.4228V11.0713C17.4228 10.8504 17.6019 10.6713 17.8228 10.6713Z" fill="white"/>
</g>
<defs>
<filter id="filter0_b_107_18988" x="-3.2251" y="-3.49219" width="42.1013" height="32" filterUnits="userSpaceOnUse" color-interpolation-filters="sRGB">
<feFlood flood-opacity="0" result="BackgroundImageFix"/>
<feGaussianBlur in="BackgroundImage" stdDeviation="2"/>
<feComposite in2="SourceAlpha" operator="in" result="effect1_backgroundBlur_107_18988"/>
<feBlend mode="normal" in="SourceGraphic" in2="effect1_backgroundBlur_107_18988" result="shape"/>
</filter>
</defs>
</svg>
