<svg width="13" height="11" viewBox="0 0 13 11" fill="none" xmlns="http://www.w3.org/2000/svg">
<path d="M8.26669 10.2102C8.28292 10.2104 8.29902 10.2074 8.31407 10.2013C8.32912 10.1953 8.34282 10.1863 8.35436 10.1749C8.36591 10.1634 8.37507 10.1498 8.38133 10.1349C8.38758 10.1199 8.3908 10.1038 8.3908 10.0875C8.39088 9.56252 8.28763 9.04263 8.08693 8.55757C7.88624 8.07251 7.59204 7.63178 7.22115 7.26058C6.85026 6.88938 6.40994 6.59497 5.92535 6.39417C5.44076 6.19338 4.9214 6.09013 4.39694 6.09033C3.33826 6.09025 2.3229 6.51111 1.57417 7.26036C0.825426 8.00961 0.404622 9.02589 0.404297 10.0857L-nan -nanL0.404297 10.0857C0.404296 10.1019 0.407517 10.118 0.413772 10.133C0.420028 10.148 0.429194 10.1616 0.440739 10.173C0.452284 10.1844 0.465978 10.1934 0.481027 10.1995C0.496076 10.2056 0.51218 10.2086 0.528406 10.2084L8.26669 10.2102Z" fill="#8E8B9E"/>
<path d="M8.28678 9.18137H12.6655C12.6791 9.18145 12.6925 9.17885 12.7051 9.17373C12.7176 9.1686 12.729 9.16105 12.7386 9.1515C12.7483 9.14196 12.7559 9.1306 12.7611 9.11809C12.7664 9.10558 12.7691 9.09216 12.7691 9.0786C12.7692 8.64082 12.6832 8.2073 12.5159 7.80281C12.3487 7.39832 12.1034 7.03078 11.7943 6.72118C11.4851 6.41158 11.118 6.16599 10.714 5.99843C10.31 5.83087 9.87693 5.74463 9.43962 5.74463C8.94962 5.74417 8.46559 5.85221 8.02221 6.06101C7.57883 6.26982 7.18707 6.57421 6.875 6.95238" fill="#8E8B9E"/>
<path d="M4.40372 5.13281C5.58994 5.13281 6.55157 4.17016 6.55157 2.98266C6.55157 1.79517 5.58994 0.83252 4.40372 0.83252C3.21749 0.83252 2.25586 1.79517 2.25586 2.98266C2.25586 4.17016 3.21749 5.13281 4.40372 5.13281Z" fill="#8E8B9E"/>
<path d="M9.44024 4.92908C10.4779 4.92908 11.319 4.08702 11.319 3.04828C11.319 2.00954 10.4779 1.16748 9.44024 1.16748C8.4026 1.16748 7.56144 2.00954 7.56144 3.04828C7.56144 4.08702 8.4026 4.92908 9.44024 4.92908Z" fill="#8E8B9E"/>
</svg>
