<svg width="25" height="25" viewBox="0 0 25 25" fill="none" xmlns="http://www.w3.org/2000/svg">
<path d="M12.2591 17.8704L10.0724 20.0393C9.40702 20.6962 8.50965 21.0645 7.57466 21.0645C6.63967 21.0645 5.7423 20.6962 5.07688 20.0393C4.75249 19.7157 4.49512 19.3312 4.31951 18.9079C4.14391 18.4847 4.05352 18.0309 4.05352 17.5727C4.05352 17.1144 4.14391 16.6607 4.31951 16.2374C4.49512 15.8141 4.75249 15.4297 5.07688 15.106L9.24577 10.9727C9.91119 10.3158 10.8086 9.94755 11.7435 9.94755C12.6785 9.94755 13.5759 10.3158 14.2413 10.9727C14.6648 11.3934 14.9712 11.9173 15.1302 12.4927C15.2177 12.4205 15.2981 12.3401 15.3702 12.2527L16.5169 11.1149C16.2601 10.5805 15.9145 10.0935 15.4947 9.67489C14.4961 8.68695 13.1482 8.13281 11.7435 8.13281C10.3389 8.13281 8.99095 8.68695 7.99244 9.67489L3.81466 13.8438C3.32257 14.3321 2.932 14.913 2.66547 15.553C2.39894 16.193 2.26172 16.8794 2.26172 17.5727C2.26172 18.2659 2.39894 18.9524 2.66547 19.5923C2.932 20.2323 3.32257 20.8132 3.81466 21.3016C4.81317 22.2895 6.16112 22.8436 7.56577 22.8436C8.97043 22.8436 10.3184 22.2895 11.3169 21.3016L14.5613 18.0838H14.1169C13.4909 18.0948 12.8663 18.023 12.2591 17.8704Z" fill="#0064A2"/>
<path d="M22.0461 3.20419C21.0476 2.21625 19.6996 1.66211 18.295 1.66211C16.8903 1.66211 15.5424 2.21625 14.5438 3.20419L11.2994 6.42197H11.735C12.3655 6.42181 12.9932 6.50551 13.6016 6.67086L15.7883 4.50197C16.4537 3.84513 17.3511 3.47684 18.2861 3.47684C19.2211 3.47684 20.1184 3.84513 20.7839 4.50197C21.1082 4.82563 21.3656 5.2101 21.5412 5.63337C21.7168 6.05664 21.8072 6.51038 21.8072 6.96863C21.8072 7.42688 21.7168 7.88063 21.5412 8.3039C21.3656 8.72716 21.1082 9.11164 20.7839 9.4353L16.615 13.5686C15.9495 14.2255 15.0522 14.5938 14.1172 14.5938C13.1822 14.5938 12.2848 14.2255 11.6194 13.5686C11.1959 13.1479 10.8895 12.624 10.7305 12.0486C10.6415 12.1091 10.5582 12.1775 10.4816 12.2531L9.33496 13.3909C9.59171 13.9253 9.93736 14.4122 10.3572 14.8309C11.3557 15.8188 12.7036 16.3729 14.1083 16.3729C15.5129 16.3729 16.8609 15.8188 17.8594 14.8309L22.0283 10.6975C22.5193 10.2086 22.9089 9.62749 23.1748 8.98759C23.4407 8.34768 23.5775 7.66157 23.5775 6.96863C23.5775 6.2757 23.4407 5.58958 23.1748 4.94968C22.9089 4.30977 22.5193 3.72868 22.0283 3.23974L22.0461 3.20419Z" fill="#0064A2"/>
</svg>
