<svg width="21" height="21" viewBox="0 0 21 21" fill="none" xmlns="http://www.w3.org/2000/svg">
<path d="M10.6864 18.3672C14.8285 18.3672 18.1864 15.0093 18.1864 10.8672C18.1864 6.72505 14.8285 3.36719 10.6864 3.36719C6.54427 3.36719 3.1864 6.72505 3.1864 10.8672C3.1864 15.0093 6.54427 18.3672 10.6864 18.3672Z" stroke="#12AE25" stroke-width="2" stroke-miterlimit="10" stroke-linecap="round" stroke-linejoin="round"/>
<path d="M13.8935 9.90828C14.284 9.51775 14.284 8.88459 13.8935 8.49407C13.503 8.10354 12.8698 8.10354 12.4793 8.49407L13.8935 9.90828ZM9.85307 12.5345L9.14596 13.2416C9.53649 13.6321 10.1697 13.6321 10.5602 13.2416L9.85307 12.5345ZM8.89351 10.1607C8.50298 9.77021 7.86982 9.77021 7.47929 10.1607C7.08877 10.5513 7.08877 11.1844 7.47929 11.5749L8.89351 10.1607ZM12.4793 8.49407L9.14596 11.8274L10.5602 13.2416L13.8935 9.90828L12.4793 8.49407ZM10.5602 11.8274L8.89351 10.1607L7.47929 11.5749L9.14596 13.2416L10.5602 11.8274Z" fill="#12AE25"/>
</svg>
