<svg width="317" height="572" viewBox="0 0 317 572" fill="none" xmlns="http://www.w3.org/2000/svg">
<path opacity="0.5" d="M251.915 220.804C287.854 342.342 218.462 470.002 96.9238 505.94C-24.6139 541.878 -152.273 472.486 -188.212 350.948C-224.15 229.411 -154.758 101.751 -33.2201 65.8128C88.3177 29.8746 215.977 99.2667 251.915 220.804ZM-134.617 335.101C-107.431 427.039 -10.8622 479.531 81.0761 452.345C173.014 425.16 225.507 328.59 198.321 236.652C171.135 144.714 74.5659 92.2215 -17.3724 119.407C-109.311 146.593 -161.803 243.162 -134.617 335.101Z" fill="#063857"/>
<path opacity="0.5" d="M155.869 249.201C176.122 317.696 137.015 389.64 68.5213 409.893C0.0270772 430.147 -71.9171 391.04 -92.1706 322.546C-112.424 254.051 -73.3172 182.107 -4.82303 161.854C63.6712 141.6 135.615 180.707 155.869 249.201ZM-45.7455 308.818C-33.0736 351.672 11.9392 376.14 54.7936 363.468C97.6479 350.796 122.116 305.783 109.444 262.929C96.7719 220.075 51.759 195.607 8.9047 208.279C-33.9496 220.951 -58.4174 265.964 -45.7455 308.818Z" fill="#063857"/>
<path opacity="0.5" d="M83.6464 270.56C92.1053 299.167 75.7723 329.214 47.1655 337.673C18.5587 346.132 -11.489 329.799 -19.9479 301.192C-28.4069 272.585 -12.0738 242.538 16.533 234.079C45.1398 225.62 75.1875 241.953 83.6464 270.56ZM12.2296 291.677C15.4336 302.513 26.8151 308.7 37.6507 305.496C48.4864 302.292 54.673 290.91 51.4689 280.075C48.2649 269.239 36.8834 263.052 26.0478 266.256C15.2121 269.46 9.02551 280.842 12.2296 291.677Z" fill="#063857"/>
</svg>
