<svg width="18" height="20" viewBox="0 0 18 20" fill="none" xmlns="http://www.w3.org/2000/svg">
<path d="M15.7814 8.56172H15.7368V7.47013C15.7368 3.96366 12.8943 1.12109 9.38776 1.12109C5.88125 1.12109 3.03872 3.96366 3.03872 7.47013V8.56172H2.77141C1.7912 8.56172 1.03378 9.43052 1.03378 10.433V13.2177C1.00909 14.1893 1.77679 14.997 2.74843 15.0217C2.7561 15.0219 2.76374 15.022 2.77141 15.0221H4.41992C4.65342 15.0112 4.83383 14.8129 4.82283 14.5794C4.82245 14.571 4.82181 14.5626 4.82091 14.5543V9.09634C4.82091 8.82903 4.66498 8.56168 4.41992 8.56168H3.92982V7.47009C3.92982 4.45577 6.37344 2.01215 9.38776 2.01215C12.4021 2.01215 14.8457 4.45577 14.8457 7.47009V8.56168H14.3556C14.1105 8.56168 13.9546 8.82899 13.9546 9.09634V14.5543C13.9298 14.7867 14.098 14.9953 14.3304 15.0202C14.3388 15.0211 14.3472 15.0217 14.3556 15.0221H14.868L14.8234 15.0889C14.1549 15.9773 13.106 16.4977 11.9942 16.4924C11.7508 15.2989 10.586 14.5287 9.39249 14.7721C8.3719 14.9803 7.63606 15.8741 7.62783 16.9157C7.64003 18.1373 8.63388 19.1212 9.85557 19.1211C10.4603 19.1113 11.0368 18.8631 11.4595 18.4305C11.7447 18.1384 11.9316 17.7646 11.9942 17.3612C13.3865 17.3665 14.6995 16.7141 15.5363 15.6013L15.9596 14.9775C16.9175 14.9107 17.5189 14.3092 17.5189 13.4404V10.6557C17.519 9.69787 16.8061 8.56172 15.7814 8.56172ZM3.92982 14.131H2.77141C2.29171 14.1194 1.9123 13.7211 1.92398 13.2414C1.92419 13.2335 1.92449 13.2256 1.92488 13.2176V10.433C1.92488 9.92062 2.28131 9.45277 2.77141 9.45277H3.92982V14.131ZM10.8135 17.8068C10.5666 18.0745 10.2198 18.2278 9.85561 18.2301C9.13081 18.2186 8.54263 17.6402 8.51897 16.9157C8.51867 16.1898 9.10689 15.6011 9.8328 15.6008C10.5587 15.6005 11.1474 16.1887 11.1477 16.9146C11.1477 16.915 11.1477 16.9154 11.1477 16.9157C11.1662 17.2465 11.045 17.5698 10.8135 17.8068ZM16.6279 13.4404C16.6279 14.0419 16.0487 14.131 15.7814 14.131H14.8457V9.45282H15.7814C16.2715 9.45282 16.6279 10.1434 16.6279 10.6558V13.4404Z" fill="#8E8B9E" stroke="#8E8B9E" stroke-width="0.3"/>
</svg>
