<svg width="21" height="21" viewBox="0 0 21 21" fill="none" xmlns="http://www.w3.org/2000/svg">
<path d="M13.2556 3.64128C13.3471 3.37959 13.6342 3.24013 13.8895 3.34817C15.4225 3.99688 16.714 5.11843 17.5712 6.55541C18.5144 8.13648 18.8718 9.99878 18.581 11.8167C18.2901 13.6346 17.3695 15.2924 15.9801 16.5003C14.5907 17.7081 12.8209 18.3892 10.9802 18.4243C9.13954 18.4594 7.34507 17.8464 5.91059 16.6925C4.4761 15.5385 3.4929 13.917 3.13288 12.1115C2.77287 10.3061 3.05896 8.43147 3.94112 6.81557C4.7429 5.34692 5.99068 4.1769 7.4978 3.47016C7.74879 3.35246 8.04101 3.48086 8.14244 3.73887C8.24386 3.99687 8.11592 4.28659 7.86604 4.40664C6.57768 5.0256 5.5112 6.03471 4.82229 7.29662C4.05295 8.70585 3.80345 10.3407 4.11742 11.9152C4.43139 13.4898 5.28884 14.9039 6.53985 15.9102C7.79086 16.9166 9.35581 17.4512 10.9611 17.4206C12.5663 17.3899 14.1097 16.796 15.3214 15.7426C16.5331 14.6893 17.336 13.2435 17.5897 11.6581C17.8433 10.0727 17.5316 8.44858 16.7091 7.06974C15.9725 5.83504 14.8683 4.86736 13.5572 4.29801C13.303 4.18758 13.1641 3.90296 13.2556 3.64128Z" fill="#F53636"/>
<rect x="10.2611" y="1.87158" width="1" height="6.63704" rx="0.5" fill="#F53636"/>
</svg>
