<svg width="21" height="21" viewBox="0 0 21 21" fill="none" xmlns="http://www.w3.org/2000/svg">
<path d="M12.7011 3.96305C12.7926 3.70136 13.0797 3.56191 13.335 3.66994C14.868 4.31865 16.1596 5.44021 17.0168 6.87719C17.96 8.45826 18.3174 10.3206 18.0265 12.1385C17.7357 13.9564 16.8151 15.6142 15.4257 16.8221C14.0363 18.0299 12.2665 18.711 10.4258 18.7461C8.5851 18.7812 6.79063 18.1682 5.35614 17.0142C3.92166 15.8603 2.93845 14.2388 2.57844 12.4333C2.21842 10.6278 2.50451 8.75325 3.38668 7.13735C4.18845 5.6687 5.43624 4.49868 6.94335 3.79194C7.19435 3.67424 7.48657 3.80264 7.58799 4.06065C7.68942 4.31865 7.56148 4.60837 7.31159 4.72842C6.02324 5.34738 4.95675 6.35649 4.26784 7.6184C3.49851 9.02762 3.24901 10.6624 3.56298 12.237C3.87695 13.8116 4.7344 15.2256 5.98541 16.232C7.23642 17.2384 8.80137 17.773 10.4066 17.7423C12.0119 17.7117 13.5553 17.1178 14.767 16.0644C15.9787 15.011 16.7816 13.5652 17.0352 11.9799C17.2889 10.3945 16.9772 8.77036 16.1546 7.39152C15.4181 6.15681 14.3138 5.18914 13.0028 4.61979C12.7485 4.50936 12.6096 4.22474 12.7011 3.96305Z" fill="#F53636"/>
<rect x="9.70667" y="2.19336" width="1" height="6.63704" rx="0.5" fill="#F53636"/>
</svg>
