<svg width="17" height="17" viewBox="0 0 17 17" fill="none" xmlns="http://www.w3.org/2000/svg">
<path d="M9.39092 3.70703C9.39092 3.38877 9.26449 3.08355 9.03945 2.8585C8.8144 2.63346 8.50918 2.50703 8.19092 2.50703C7.87266 2.50703 7.56743 2.63346 7.34239 2.8585C7.11735 3.08355 6.99092 3.38877 6.99092 3.70703H6.19092C6.19092 3.1766 6.40163 2.66789 6.7767 2.29282C7.15178 1.91774 7.66049 1.70703 8.19092 1.70703C8.72135 1.70703 9.23006 1.91774 9.60513 2.29282C9.9802 2.66789 10.1909 3.1766 10.1909 3.70703H13.7909C13.897 3.70703 13.9987 3.74917 14.0738 3.82419C14.1488 3.8992 14.1909 4.00094 14.1909 4.10703C14.1909 4.21312 14.1488 4.31486 14.0738 4.38987C13.9987 4.46489 13.897 4.50703 13.7909 4.50703H13.3477L12.3109 13.491C12.2658 13.8809 12.0789 14.2407 11.7858 14.5018C11.4927 14.7628 11.1138 14.9071 10.7213 14.907H5.66052C5.268 14.9071 4.88915 14.7628 4.59605 14.5018C4.30295 14.2407 4.11606 13.8809 4.07092 13.491L3.03332 4.50703H2.59092C2.4973 4.50706 2.40663 4.47425 2.33471 4.41432C2.26279 4.35439 2.21417 4.27112 2.19732 4.17903L2.19092 4.10703C2.19092 4.00094 2.23306 3.8992 2.30808 3.82419C2.38309 3.74917 2.48483 3.70703 2.59092 3.70703H9.39092ZM12.5413 4.50703H3.83972L4.86532 13.399C4.8879 13.5941 4.9814 13.774 5.12803 13.9045C5.27467 14.0351 5.46419 14.1072 5.66052 14.107H10.7213C10.9175 14.107 11.1068 14.0348 11.2533 13.9043C11.3998 13.7737 11.4932 13.5939 11.5157 13.399L12.5413 4.50703ZM6.99092 6.50703C7.18692 6.50703 7.35092 6.63103 7.38452 6.79423L7.39092 6.85743V11.7574C7.39092 11.9502 7.21172 12.107 6.99092 12.107C6.79492 12.107 6.63092 11.983 6.59732 11.8198L6.59092 11.7566V6.85823C6.59092 6.66463 6.77012 6.50783 6.99092 6.50783V6.50703ZM9.39092 6.50703C9.58692 6.50703 9.75092 6.63103 9.78452 6.79423L9.79092 6.85743V11.7574C9.79092 11.9502 9.61172 12.107 9.39092 12.107C9.19492 12.107 9.03092 11.983 8.99732 11.8198L8.99092 11.7566V6.85823C8.99092 6.66463 9.17012 6.50783 9.39092 6.50783V6.50703Z" fill="white"/>
</svg>
