<svg width="147" height="74" viewBox="0 0 147 74" fill="none" xmlns="http://www.w3.org/2000/svg">
<g opacity="0.85">
<g clip-path="url(#clip0_19_1431)">
<path d="M43.715 23.909L43.8614 23.8309L43.4134 23.9463C43.3311 24.0932 43.4051 24.0782 43.715 23.909Z" fill="#F53636"/>
<path d="M138.924 40.3318C138.88 39.6031 138.907 39.5712 139.491 39.6766C139.849 39.7444 139.91 39.8041 139.722 39.9136C139.585 39.9927 139.356 40.2507 139.213 40.4853L139.14 40.6029L146.105 38.8097L144.364 32.0483C144.351 32.0726 144.333 32.0939 144.312 32.1111C144.29 32.1282 144.265 32.1407 144.238 32.1478C144.193 32.1622 144.143 32.1584 144.1 32.1372C144.058 32.116 144.025 32.0792 144.01 32.0345C144.002 31.9882 144.013 31.9408 144.041 31.9023C144.068 31.8638 144.109 31.8373 144.156 31.8286C144.183 31.8216 144.21 31.82 144.237 31.8239C144.264 31.8278 144.29 31.8372 144.313 31.8515L142.521 24.8921C142.468 25.0327 142.448 25.1664 142.478 25.2206C142.518 25.2903 142.518 25.4895 142.479 25.6635C142.441 25.8375 142.295 26.0095 142.149 26.0472C141.833 26.1286 141.77 25.943 141.999 25.6097C142.132 25.4173 142.077 25.3298 141.751 25.2222C141.346 25.0882 141.345 25.0825 141.772 25.0669C142.017 25.0562 142.334 24.9133 142.481 24.7496L140.836 18.3584C140.668 18.3655 140.501 18.3599 140.334 18.3417C139.887 18.3056 139.528 17.7024 139.897 17.6073C139.943 17.5928 139.993 17.5967 140.036 17.6183C140.079 17.64 140.111 17.6775 140.126 17.7228C140.149 17.8136 140.394 17.9132 140.669 17.948L140.733 17.9579L140.062 15.3521C140.05 15.3551 140.039 15.3581 140.026 15.3613C139.954 15.384 139.877 15.3782 139.81 15.3451C139.743 15.312 139.692 15.2543 139.668 15.1843C139.62 14.9951 139.787 14.9124 139.959 14.9547L136.128 0.0732652L116.888 5.02722C116.886 5.0527 116.84 5.10677 116.747 5.19282C116.436 5.48588 116.189 5.54966 116.283 5.31229C116.32 5.23984 116.379 5.17986 116.45 5.13993L112.602 6.13079C112.653 6.21434 112.69 6.30554 112.711 6.40083C112.756 6.57682 112.718 6.74009 112.626 6.76365C112.534 6.78721 112.461 6.65279 112.472 6.4623C112.475 6.35682 112.492 6.25211 112.524 6.15106L101.54 8.97911C101.526 9.04111 101.505 9.1016 101.479 9.15969C101.306 9.53307 101.188 9.44987 101.21 9.06414L44.0458 23.7833C43.9725 23.8695 43.7813 24.1077 43.5838 24.3583C43.1714 24.8768 43.1714 24.8768 43.0818 24.5286C43.033 24.3394 42.8969 24.2083 42.7798 24.2384C42.6992 24.2592 42.6708 24.2181 42.6942 24.1313L41.8872 24.3391C41.9316 24.3409 41.9756 24.3469 42.0188 24.357C42.0585 24.3737 42.0948 24.5144 42.0988 24.668C42.1039 24.9021 42.0029 24.8945 41.528 24.6374L41.2735 24.4972L37.7696 25.3994C37.73 25.4519 37.681 25.4969 37.625 25.5321C37.5157 25.5979 37.4394 25.5799 37.4266 25.4877L36.5307 25.7184C36.5278 25.7339 36.5253 25.748 36.5212 25.7639C36.4359 26.1161 36.3024 26.4195 36.2244 26.4396C36.0272 26.4903 36.0228 26.4518 36.207 25.8051L25.1905 28.6417C25.0854 28.7448 25.018 28.7534 25.0017 28.6903L0.158649 35.0871L2.05896 42.4673C2.17485 42.496 2.27849 42.5487 2.28872 42.5884C2.29896 42.6282 2.22211 42.6796 2.12036 42.7058L4.7324 52.85C4.7819 52.6792 4.83766 52.5539 4.89014 52.5404C5.10069 52.4862 5.18751 52.9346 4.99724 53.1074C4.90898 53.1886 4.87143 53.39 4.9135 53.5534L8.30483 66.7241C8.41806 66.6842 8.50324 66.7235 8.53231 66.8364C8.54254 66.8888 8.53552 66.9432 8.51228 66.9917C8.48903 67.0401 8.45078 67.0801 8.40309 67.1058L10.1322 73.8211L12.6351 73.1766C12.6724 73.0722 12.7452 72.9788 12.79 72.9672C12.8348 72.9557 12.8887 73.0165 12.9116 73.1054L19.8419 71.321C19.8606 71.2847 19.8867 71.2525 19.9186 71.2266C19.9805 71.1757 20.0555 71.1428 20.1351 71.1316C20.2146 71.1204 20.2956 71.1313 20.369 71.163C20.3791 71.1678 20.3873 71.1731 20.3967 71.1781L26.4169 69.6279C26.161 69.6939 26.1548 69.421 26.4097 69.12C26.6549 68.8268 26.7047 68.8691 26.6304 69.3039C26.6058 69.4576 26.5078 69.6045 26.4169 69.6279L27.4575 69.36C27.4986 69.2546 27.5676 69.1622 27.6131 69.1505C27.6585 69.1388 27.7124 69.1995 27.7353 69.2885L39.7437 66.1964C39.7868 66.1173 39.8449 66.047 39.915 65.9896C40.3213 65.6569 40.6247 65.5842 40.2515 65.9103C40.1891 65.9662 40.1368 66.0322 40.097 66.1055L64.4313 59.8397C64.3954 59.7936 64.3621 59.7456 64.3315 59.6959C64.235 59.5331 64.2275 59.3823 64.321 59.3582C64.4144 59.3342 64.5249 59.4584 64.5702 59.6344C64.5839 59.6875 64.5943 59.7414 64.6015 59.7958L68.3178 58.8389C68.3111 58.7918 68.323 58.7439 68.3512 58.705C68.3793 58.6662 68.4215 58.6395 68.4689 58.6305C68.5777 58.6025 68.6322 58.6631 68.5918 58.7684L73.2245 57.5755C73.0735 57.6144 72.9274 57.572 72.9026 57.4755C72.8777 57.3789 72.7074 57.2291 72.5197 57.1362C72.0587 56.9092 72.0066 56.5957 72.3525 56.0997C72.5093 55.871 72.622 55.6119 72.5991 55.523C72.5762 55.4341 72.7244 55.3233 72.9305 55.2702C73.1366 55.2171 73.3597 55.1536 73.4299 55.1268C73.4704 55.1162 73.513 55.118 73.5522 55.1319C73.5914 55.1459 73.6253 55.1713 73.6493 55.2048C73.6993 55.272 73.5595 55.386 73.3445 55.4575C72.6972 55.6679 72.6023 55.9621 73.007 56.4948C73.2028 56.7545 73.3981 57.0862 73.4361 57.2338C73.4447 57.2698 73.4461 57.3071 73.4401 57.3436C73.4342 57.3802 73.4209 57.4153 73.4013 57.4469C73.3816 57.4785 73.3558 57.506 73.3254 57.5279C73.295 57.5497 73.261 57.5667 73.2245 57.5755L80.4149 55.7227C80.3272 55.7453 79.7888 55.056 79.7371 54.8554C79.6455 54.4996 80.0854 54.8195 80.2752 55.2462C80.389 55.5 80.4508 55.7135 80.4149 55.7227L89.2619 53.4447C89.1859 53.4424 89.1115 53.4237 89.0438 53.3898C88.9762 53.356 88.9169 53.3079 88.8703 53.2489C88.7616 53.1115 88.6189 53.0042 88.4557 52.9373C88.3348 52.9052 88.285 52.8044 88.3495 52.7131C88.4575 52.5575 89.3347 53.0278 89.4085 53.2799C89.4192 53.3039 89.4209 53.3309 89.4133 53.3561C89.4056 53.3814 89.3892 53.4032 89.3669 53.4177L89.8148 53.3023C89.9362 53.184 90.0808 53.0914 90.2395 53.0302C90.3419 53.0039 90.3169 53.0816 90.186 53.2068L95.716 51.7829C95.7062 51.6387 95.712 51.529 95.7406 51.4887C95.8804 51.2872 96.2098 51.4559 96.1768 51.6642L122.601 44.8604C122.519 44.801 122.441 44.7358 122.369 44.6651C121.947 44.2646 121.996 44.1558 122.579 44.1952C122.892 44.2155 123.012 44.3227 122.999 44.5776C122.997 44.6399 122.99 44.7019 122.978 44.7631L138.948 40.6511C138.937 40.5792 138.931 40.4732 138.924 40.3318ZM140.924 39.0884C140.563 38.9123 140.528 38.7141 140.845 38.6324C140.984 38.5968 141.181 38.7007 141.28 38.8614C141.481 39.1937 141.332 39.2886 140.924 39.0884ZM140.589 27.2225C140.498 27.3803 140.353 27.5287 140.264 27.5516C139.985 27.6233 139.969 27.1567 140.238 26.7753C140.474 26.434 140.496 26.4284 140.622 26.6765C140.656 26.7641 140.671 26.8582 140.666 26.9523C140.66 27.0465 140.633 27.1388 140.589 27.2225ZM137.059 15.7869C137.037 15.7942 137.013 15.797 136.989 15.7952C136.966 15.7934 136.943 15.787 136.922 15.7764C136.901 15.7658 136.882 15.7512 136.867 15.7334C136.852 15.7157 136.84 15.6951 136.833 15.6729C136.828 15.6274 136.839 15.5814 136.866 15.5434C136.892 15.5055 136.931 15.4782 136.976 15.4666C137.021 15.455 137.069 15.4599 137.11 15.4804C137.152 15.501 137.184 15.5357 137.201 15.5781C137.21 15.624 137.201 15.6717 137.174 15.7107C137.148 15.7497 137.106 15.7774 137.059 15.7869ZM139.823 22.0623C139.808 22.1356 139.778 22.2052 139.735 22.2671C139.693 22.329 139.638 22.382 139.575 22.4229C139.446 22.4976 139.361 22.4563 139.375 22.3249C139.391 22.2514 139.421 22.1816 139.465 22.1196C139.508 22.0575 139.563 22.0045 139.627 21.9635C139.754 21.8863 139.84 21.9281 139.823 22.0623ZM138.97 20.9018C138.946 20.8084 139.021 20.754 139.138 20.7805C139.255 20.8069 139.356 20.8663 139.366 20.9048C139.376 20.9432 139.303 20.9963 139.2 21.0227C139.153 21.0363 139.103 21.0313 139.06 21.0087C139.017 20.9861 138.985 20.9477 138.97 20.9018ZM143.648 33.318C144.268 33.6394 144.282 33.7523 143.7 33.703C143.629 33.6957 143.563 33.6686 143.507 33.6251C143.452 33.5815 143.411 33.5232 143.388 33.4571C143.356 33.3309 143.207 33.2622 143.054 33.3016C142.901 33.341 142.757 33.3008 142.735 33.2143C142.662 32.9324 142.976 32.9672 143.648 33.318ZM138.74 18.0756C138.808 17.9006 139.181 17.8786 139.224 18.0476C139.234 18.0861 139.11 18.1524 138.954 18.1926C138.798 18.2328 138.696 18.1804 138.74 18.0756ZM138.778 19.7694C138.931 19.73 139.037 19.6274 139.015 19.5442C138.994 19.4609 139.102 19.3967 139.253 19.4082C139.404 19.4198 139.527 19.5679 139.519 19.763C139.506 20.0017 139.426 20.0693 139.238 19.9986C139.061 19.9279 138.92 19.9756 138.807 20.1407C138.676 20.3263 138.621 20.3231 138.567 20.1143C138.558 20.078 138.555 20.0402 138.561 20.0031C138.566 19.9659 138.579 19.9302 138.599 19.8979C138.618 19.8656 138.644 19.8375 138.675 19.8153C138.706 19.793 138.741 19.7782 138.778 19.7694ZM133.888 3.40618C133.849 3.21464 133.883 3.16953 133.976 3.28083C134.059 3.38163 134.088 3.52095 134.039 3.59198C133.991 3.66301 133.922 3.57043 133.887 3.40176L133.888 3.40618ZM132.457 3.2791C132.546 3.1977 132.644 3.24506 132.679 3.3832C132.715 3.52134 132.662 3.64997 132.559 3.67649C132.516 3.69176 132.469 3.68981 132.427 3.67107C132.386 3.65232 132.354 3.61827 132.337 3.57619C132.315 3.48788 132.367 3.35546 132.456 3.27532L132.457 3.2791ZM128.114 2.5249C128.231 2.55261 128.331 2.60801 128.341 2.64649C128.351 2.68496 128.278 2.73806 128.175 2.7646C128.128 2.77853 128.078 2.77365 128.035 2.75101C127.991 2.72837 127.959 2.6898 127.945 2.64366C127.92 2.54589 127.996 2.49197 128.112 2.52048L128.114 2.5249ZM122.627 5.33332C122.657 5.16019 122.739 5.04217 122.808 5.0767C122.878 5.11124 122.855 5.25585 122.755 5.39793C122.609 5.59694 122.582 5.58425 122.622 5.32974L122.627 5.33332ZM123.093 6.03052C123.126 6.16046 123.073 6.29068 122.974 6.31605C122.875 6.34143 122.813 6.24121 122.84 6.09561C122.867 5.95001 122.916 5.81905 122.955 5.809C122.994 5.79895 123.055 5.89761 123.089 6.02692L123.093 6.03052ZM120.577 5.31104C120.63 5.23 120.847 5.2494 121.052 5.35131C121.543 5.59349 121.424 5.75934 120.889 5.58782C120.656 5.51244 120.515 5.386 120.572 5.30745L120.577 5.31104ZM118.82 7.04525C118.928 7.0174 118.984 7.08117 118.942 7.18281C118.9 7.28444 118.833 7.38239 118.788 7.39392C118.743 7.40546 118.687 7.34247 118.665 7.25416C118.657 7.20643 118.668 7.15745 118.697 7.11773C118.725 7.07801 118.768 7.05071 118.816 7.04166L118.82 7.04525ZM118.159 6.51738C118.453 6.6805 118.508 6.78523 118.365 6.91306C118.254 7.01351 118.074 6.99657 117.936 6.87136C117.619 6.57629 117.38 6.66274 117.338 7.08662C117.296 7.5105 116.981 7.62367 116.882 7.237C116.708 6.57613 117.483 6.13861 118.155 6.51379L118.159 6.51738ZM115.847 7.05471C115.858 7.09382 115.738 7.15831 115.576 7.2C115.414 7.2417 115.321 7.18748 115.363 7.08206C115.424 6.904 115.8 6.88207 115.843 7.05112L115.847 7.05471ZM115.007 6.49029C115.03 6.43502 115.066 6.38521 115.11 6.34412C115.154 6.30304 115.207 6.27159 115.264 6.25185C115.366 6.22548 115.419 6.29072 115.377 6.39487C115.353 6.45002 115.317 6.49955 115.272 6.54021C115.227 6.58088 115.174 6.61176 115.117 6.63082C115.015 6.65765 114.966 6.59491 115.007 6.49029ZM114.155 7.39032C114.26 7.36329 114.427 7.4365 114.523 7.55646C114.786 7.89225 114.616 7.98052 114.269 7.69399C114.077 7.53676 114.034 7.42146 114.155 7.39032ZM108.532 8.89331C108.907 8.61507 108.939 8.61711 108.907 8.93114C108.902 9.03242 108.923 9.13321 108.967 9.22435C109.011 9.31548 109.078 9.39407 109.161 9.45298C109.693 9.77823 109.322 9.82732 108.716 9.50917L108.117 9.19853L108.532 8.89331ZM107.407 9.63823C107.466 9.62881 107.525 9.63139 107.582 9.64579C107.639 9.66019 107.692 9.68611 107.738 9.72191C107.825 9.79311 107.764 9.88671 107.605 9.92758C107.447 9.96844 107.297 9.92905 107.274 9.84137C107.265 9.79726 107.274 9.75127 107.299 9.71337C107.324 9.67547 107.363 9.64807 107.407 9.63823ZM102.775 10.7086C103.067 10.9656 103.153 11.5227 102.881 11.3848C102.791 11.3409 102.667 11.1131 102.612 10.8872C102.523 10.5254 102.544 10.5059 102.775 10.7086ZM101.425 10.9217C101.514 10.8403 101.615 10.8862 101.651 11.0237C101.686 11.1612 101.63 11.2926 101.527 11.3191C101.484 11.3338 101.437 11.3316 101.396 11.313C101.355 11.2943 101.322 11.2605 101.306 11.2188C101.285 11.1374 101.34 11.0042 101.426 10.9242L101.425 10.9217ZM92.3364 12.4945C92.383 12.4785 92.4339 12.4811 92.4783 12.5017C92.5228 12.5223 92.5572 12.5593 92.5743 12.6047C92.5972 12.6937 92.5785 12.7725 92.5325 12.7843C92.4864 12.7962 92.3828 12.7489 92.2959 12.6764C92.209 12.604 92.2282 12.525 92.337 12.497L92.3364 12.4945ZM92.1065 14.0852C92.1155 13.8972 92.1991 13.721 92.2951 13.6963C92.3911 13.6716 92.4404 13.7308 92.4035 13.8285C92.2773 14.1522 92.8219 14.1283 92.9815 13.802C93.068 13.6237 93.2697 13.4453 93.4291 13.4043C93.5885 13.3633 93.7038 13.162 93.6867 12.9552C93.6697 12.7484 93.7189 12.6429 93.7953 12.7141C93.8716 12.7852 93.9647 13.1467 94.0012 13.5139C94.0592 14.1527 94.0505 14.1664 93.7306 13.8755C93.5465 13.709 93.3281 13.6375 93.2461 13.7137C93.2257 13.7291 93.2091 13.7488 93.1974 13.7713C93.1856 13.7937 93.1791 13.8185 93.1782 13.8437C93.1773 13.8689 93.1821 13.8939 93.1922 13.917C93.2024 13.9401 93.2176 13.9606 93.2368 13.9771C93.3137 14.0427 93.0905 14.1722 92.7372 14.2631C92.183 14.4085 92.0963 14.3844 92.1072 14.0877L92.1065 14.0852ZM90.2564 13.1491C90.2848 12.973 90.3649 12.8575 90.4348 12.8933C90.5048 12.9291 90.4808 13.0718 90.3804 13.212C90.2394 13.4198 90.2122 13.4067 90.2577 13.1541L90.2564 13.1491ZM89.4425 12.9961C89.677 12.847 89.6927 12.8678 89.5491 13.1214C89.352 13.4687 89.2529 13.5239 89.2001 13.3188C89.1812 13.2457 89.2888 13.1016 89.4438 13.0012L89.4425 12.9961ZM85.5974 15.8197C85.7174 15.6469 85.9675 15.4971 86.1553 15.4844C86.413 15.4651 86.3676 15.5642 85.9607 15.8923C85.3937 16.3564 85.2486 16.3306 85.5975 15.8251L85.5974 15.8197ZM84.0575 15.6459C84.1663 15.6178 84.2757 15.6664 84.298 15.7528C84.3202 15.8392 84.2991 15.924 84.2543 15.9355C84.2095 15.9471 84.1023 15.8966 84.0164 15.8253C83.9304 15.7539 83.9519 15.6784 84.0575 15.6512L84.0575 15.6459ZM80.6219 16.5904C80.6448 16.5575 80.864 16.7063 81.1107 16.9198C81.3575 17.1334 81.4884 17.3264 81.4077 17.3471C81.2541 17.3921 80.543 16.7055 80.6219 16.5957L80.6219 16.5904ZM79.1365 17.6192C79.1809 17.6407 79.1207 17.7807 79.0082 17.932C78.8957 18.0834 78.7868 18.1323 78.7649 18.0472C78.7188 17.8868 79.0097 17.5563 79.1365 17.6246L79.1365 17.6192ZM78.0479 16.8529C78.133 16.831 78.2953 17.0186 78.4064 17.2698C78.5357 17.5573 78.53 17.7498 78.3918 17.7854C78.274 17.8157 78.1124 17.628 78.0358 17.3652C77.9593 17.1024 77.9647 16.8797 78.0479 16.8583L78.0479 16.8529ZM72.9296 19.1919C72.9735 19.1764 73.0217 19.1785 73.0639 19.1976C73.1061 19.2168 73.1389 19.2516 73.1553 19.2945C73.1761 19.3752 73.1202 19.5053 73.0321 19.5899C72.944 19.6744 72.845 19.6239 72.8101 19.4883C72.7752 19.3527 72.8266 19.2238 72.9296 19.1972L72.9296 19.1919ZM60.3715 21.7024C60.5693 21.6965 60.7389 21.7194 60.7476 21.7528C60.7562 21.7863 60.6437 21.9854 60.4982 22.1944C60.2412 22.5612 60.2287 22.5631 60.1209 22.1442C60.0339 21.8115 60.087 21.7185 60.3715 21.7077L60.3715 21.7024ZM59.5732 22.5509C59.7353 22.6504 59.8279 22.7927 59.776 22.8666C59.7241 22.9405 59.6637 22.9157 59.637 22.8116C59.6102 22.7076 59.4614 22.6598 59.3091 22.699C59.1567 22.7382 59.0133 22.6978 58.9905 22.6095C58.9296 22.3783 59.2335 22.3472 59.5733 22.5563L59.5732 22.5509ZM53.3651 22.7087C53.4317 22.742 53.4755 22.9386 53.4679 23.145C53.4484 23.5489 53.1572 23.7456 53.0754 23.4095C53.0091 23.1468 53.2214 22.6435 53.3651 22.7141L53.3651 22.7087ZM50.9712 23.6547C51.08 23.6267 51.134 23.6881 51.0968 23.7925C51.0595 23.897 50.9852 23.9928 50.9392 24.0046C50.8931 24.0165 50.8397 23.9522 50.8171 23.8646C50.8118 23.8177 50.8248 23.7705 50.8535 23.7325C50.8821 23.6946 50.9242 23.6687 50.9712 23.6601L50.9712 23.6547ZM38.752 25.7585C38.8956 25.0893 38.8995 25.091 39.1247 25.7775C39.2422 26.136 39.1994 26.285 38.962 26.3622C38.5804 26.4941 38.5858 26.5149 38.7513 25.764L38.752 25.7585ZM38.0884 26.9685C38.1926 26.6975 38.4978 26.6714 38.5634 26.9263C38.5861 26.9925 38.6274 27.0509 38.6827 27.0946C38.7379 27.1383 38.8047 27.1654 38.8753 27.1728C39.0146 27.184 39.0439 27.2209 38.9428 27.2496C38.6157 27.3493 38.0147 27.1489 38.0884 26.9685ZM22.3414 30.3506C22.5014 30.3094 22.6495 30.3493 22.6714 30.4345C22.6811 30.4789 22.6725 30.5254 22.6477 30.5639C22.6229 30.6024 22.5837 30.6298 22.5387 30.6401C22.4803 30.6496 22.4206 30.6468 22.3635 30.632C22.3064 30.6171 22.2532 30.5905 22.2074 30.5539C22.1217 30.4859 22.1827 30.3915 22.3414 30.3506ZM21.0036 30.5114C21.0223 30.5273 21.0372 30.5469 21.0474 30.5691C21.0575 30.5912 21.0627 30.6153 21.0624 30.6396C21.0622 30.664 21.0566 30.6881 21.0461 30.7102C21.0356 30.7323 21.0203 30.7519 21.0014 30.7676C20.9238 30.8401 20.7823 30.8045 20.6885 30.6894C20.5083 30.4614 20.7661 30.315 21.0036 30.5114ZM20.0306 31.5745C20.188 31.3322 20.2657 31.3398 20.5554 31.6223C20.739 31.8051 20.8988 31.9832 20.9074 32.0166C20.9482 32.175 20.3816 32.1877 20.1298 32.0339C19.9088 31.8964 19.8835 31.798 20.0306 31.5745ZM18.4678 32.5204C18.474 32.5766 18.4664 32.6336 18.4457 32.6865C18.425 32.7394 18.3919 32.7868 18.349 32.8247C18.2606 32.9053 18.1688 32.8987 18.147 32.8142C18.1408 32.7572 18.1484 32.6995 18.1692 32.6458C18.19 32.5921 18.2235 32.544 18.2668 32.5055C18.3532 32.4248 18.4427 32.4306 18.4659 32.5208L18.4678 32.5204ZM17.8417 31.6787C17.8883 31.6626 17.9393 31.6651 17.9838 31.6857C18.0283 31.7063 18.0627 31.7434 18.0796 31.789C18.1025 31.8779 18.0839 31.9567 18.0391 31.9682C17.9943 31.9798 17.8887 31.933 17.8018 31.8605C17.7149 31.788 17.7342 31.7064 17.8417 31.6787ZM3.56232 37.9726C3.80639 37.6219 4.10326 37.6141 3.9692 37.9627C3.92908 38.0719 3.76699 38.1977 3.61275 38.2374C3.36829 38.3004 3.36111 38.2645 3.56232 37.9726ZM3.55103 43.4943C3.67248 43.5551 3.77197 43.7454 3.775 43.9188C3.7768 44.1511 3.71937 44.1242 3.55377 43.8097C3.41122 43.537 3.41082 43.4268 3.55103 43.4943ZM6.09762 55.1149C6.2688 55.157 6.37226 55.246 6.32939 55.3048C6.28652 55.3636 6.06165 55.3542 5.83349 55.2764C5.38134 55.1238 5.59753 54.9908 6.09762 55.1149ZM7.85813 63.5158C7.75382 63.5427 7.69482 63.4805 7.73673 63.3782C7.77864 63.276 7.84554 63.178 7.89034 63.1665C7.93514 63.155 7.9911 63.2186 8.01384 63.3069C8.02057 63.3545 8.00834 63.4029 7.97972 63.442C7.9511 63.4811 7.90833 63.5078 7.86038 63.5166L7.85813 63.5158ZM7.87725 62.5565C7.91725 62.5024 8.0249 62.5574 8.11934 62.6777C8.31929 62.9242 8.22252 63.0016 7.97659 62.7939C7.8836 62.7189 7.84013 62.6111 7.87725 62.5565ZM9.05975 66.4625C8.83198 66.4048 8.82813 66.358 9.04494 66.2195C9.21557 66.1083 9.33721 66.1328 9.37521 66.2804C9.44537 66.5502 9.43338 66.5566 9.05975 66.4625ZM7.87396 60.45C7.77221 60.4762 7.65022 60.355 7.60491 60.179C7.55959 60.003 7.60784 59.8379 7.70959 59.8117C7.81135 59.7855 7.9311 59.9087 7.97609 60.0834C8.02108 60.2581 7.977 60.4235 7.87396 60.45ZM10.4226 68.8107C10.1909 68.8704 10.1474 68.7013 10.2996 68.3332C10.3945 68.103 10.4333 68.1159 10.512 68.4057C10.5661 68.6023 10.5224 68.785 10.4226 68.8107ZM4.62883 45.5466C4.42644 45.7333 4.37187 45.5213 4.52586 45.1467C4.62666 44.9022 4.65548 44.9001 4.71813 45.1302C4.75694 45.2782 4.71726 45.466 4.62883 45.5466ZM7.35165 54.9709C7.26491 54.8991 7.28639 54.8156 7.39199 54.7884C7.43856 54.7726 7.4894 54.7754 7.53364 54.7962C7.57789 54.817 7.61202 54.8541 7.62876 54.8996C7.65085 54.9854 7.63305 55.0673 7.58825 55.0788C7.54345 55.0904 7.43613 55.0393 7.35165 54.9709ZM11.1198 69.2184C11.0844 69.0809 11.1515 68.9916 11.2649 69.021C11.3782 69.0503 11.4951 69.1386 11.5173 69.225C11.5232 69.2705 11.511 69.3166 11.4832 69.3536C11.4555 69.3906 11.4143 69.4156 11.3685 69.4234C11.2693 69.4463 11.1554 69.3565 11.1198 69.2184ZM12.1276 71.0386C12.1257 71.3384 12.1161 71.3409 11.9065 71.1022C11.6882 70.8504 11.7556 70.5398 12.0026 70.6618C12.0761 70.6981 12.1323 70.8686 12.1276 71.0386ZM10.1417 63.7793C10.0541 63.8019 9.97722 63.6307 9.96967 63.3999C9.96211 63.1691 9.987 62.969 10.026 62.9589C10.0651 62.9489 10.1413 63.1203 10.1981 63.3411C10.255 63.5618 10.2281 63.7571 10.1417 63.7793ZM9.44894 60.0445C9.40752 60.1486 9.33996 60.2441 9.29516 60.2556C9.25036 60.2671 9.19504 60.2034 9.17247 60.1157C9.16552 60.0679 9.17789 60.0193 9.2069 59.9802C9.23592 59.9412 9.27925 59.9148 9.32753 59.9069C9.43569 59.8791 9.49036 59.9403 9.44894 60.0445ZM8.99585 57.9483C8.88833 57.976 8.83383 57.9153 8.87381 57.8109C8.91379 57.7064 8.98343 57.6138 9.02951 57.602C9.07559 57.5901 9.12865 57.6504 9.15155 57.7394C9.15871 57.7872 9.14635 57.8361 9.11717 57.8753C9.08798 57.9144 9.04436 57.9407 8.99585 57.9483ZM3.56091 37.2277C3.40475 37.2679 3.308 37.2155 3.34862 37.1109C3.4154 36.9356 3.78926 36.914 3.83279 37.0831C3.84286 37.1222 3.7209 37.1865 3.56091 37.2277ZM14.1254 70.921C14.0785 70.9349 14.028 70.93 13.985 70.9073C13.942 70.8846 13.9099 70.846 13.8957 70.7999C13.8721 70.7084 13.947 70.6522 14.0637 70.6813C14.1804 70.7105 14.2817 70.7644 14.2916 70.8029C14.3015 70.8414 14.2272 70.8948 14.1254 70.921ZM14.985 71.2115C14.8852 71.2372 14.7758 71.149 14.7423 71.0191C14.7089 70.8892 14.7136 70.7696 14.7526 70.7595C14.7917 70.7495 14.9017 70.8375 14.9958 70.9538C15.0899 71.0702 15.081 71.1868 14.9876 71.2109L14.985 71.2115ZM16.6156 70.9612C16.4595 71.0014 16.3101 70.9618 16.288 70.876C16.2781 70.8319 16.2862 70.7856 16.3107 70.7471C16.3352 70.7087 16.374 70.6813 16.4187 70.6709C16.4772 70.6614 16.5369 70.6642 16.5939 70.6791C16.651 70.6939 16.7042 70.7205 16.7501 70.7571C16.8374 70.826 16.7782 70.9193 16.6182 70.9605L16.6156 70.9612ZM16.8968 70.0043C16.929 69.7451 17.3184 69.5029 17.3726 69.7136C17.3947 69.7994 17.2902 69.9474 17.1406 70.0424C16.9781 70.1481 16.8847 70.1325 16.8993 70.0036L16.8968 70.0043ZM17.0279 69.154C16.9511 68.8556 16.992 68.8 17.2025 68.9073C17.413 69.0145 17.4349 69.0969 17.3008 69.2889C17.1666 69.4808 17.1068 69.4498 17.0304 69.1533L17.0279 69.154ZM17.7164 70.6777C17.557 70.7188 17.4019 70.6067 17.3516 70.4111C17.2787 70.1279 17.3176 70.0937 17.5933 70.1996C17.7756 70.269 17.9378 70.39 17.9574 70.4663C17.9771 70.5427 17.8738 70.6372 17.7189 70.6771L17.7164 70.6777ZM19.7366 70.1434C19.5175 70.1911 19.466 70.166 19.6004 70.0756C19.7208 69.9948 19.8829 69.9618 19.959 69.9974C20.035 70.033 19.9376 70.0998 19.7391 70.1428L19.7366 70.1434ZM20.8312 70.247C20.8668 70.6501 20.5532 70.9138 20.2903 70.6957C20.1065 70.5412 20.3403 70.0021 20.6238 69.9291C20.7223 69.9037 20.8173 70.0447 20.8338 70.2463L20.8312 70.247ZM22.3401 69.0628C22.2456 69.2257 22.1386 69.3696 22.0996 69.3796C22.0605 69.3897 22.0017 69.2884 21.9683 69.1585C21.9348 69.0286 22.0425 68.8824 22.2083 68.8398C22.4553 68.7762 22.4821 68.8164 22.3427 69.0621L22.3401 69.0628ZM23.6042 68.9922C23.5805 69.0471 23.5454 69.0966 23.501 69.1372C23.4566 69.1779 23.4041 69.2088 23.3469 69.2279C23.2451 69.2541 23.1956 69.1889 23.2375 69.0866C23.2604 69.0311 23.2953 68.9811 23.3396 68.9401C23.3839 68.8991 23.4367 68.868 23.4943 68.849C23.5986 68.8221 23.6478 68.8861 23.6067 68.9915L23.6042 68.9922ZM24.2589 68.8236C24.0093 68.8879 23.7795 68.645 23.9487 68.4912C24.0269 68.4186 24.1672 68.4517 24.2613 68.5681C24.3554 68.6844 24.3549 68.7989 24.2614 68.823L24.2589 68.8236ZM25.6352 68.8102C25.5913 68.8253 25.5433 68.8231 25.5013 68.8039C25.4594 68.7847 25.4267 68.7501 25.4102 68.7074C25.3887 68.6242 25.4443 68.4901 25.5314 68.4072C25.6186 68.3242 25.7192 68.373 25.7547 68.5111C25.7903 68.6492 25.7383 68.7837 25.6378 68.8096L25.6352 68.8102ZM26.0558 66.9982C26.0147 67.1037 25.862 67.221 25.7135 67.2592C25.5651 67.2975 25.4291 67.2544 25.4062 67.1655C25.3833 67.0766 25.5376 66.9628 25.7456 66.9093C25.9536 66.8557 26.0998 66.8934 26.0596 66.9972L26.0558 66.9982ZM29.0077 68.1107C28.9085 68.1362 28.7959 68.0515 28.762 67.9197C28.728 67.7879 28.7854 67.6581 28.8846 67.6326C28.9838 67.607 29.0983 67.6912 29.1325 67.8243C29.1668 67.9574 29.1139 68.0833 29.0115 68.1097L29.0077 68.1107ZM36.1163 65.7705C36.0706 65.785 36.021 65.7814 35.9783 65.7604C35.9355 65.7393 35.9028 65.7026 35.8873 65.6579C35.8796 65.6115 35.8906 65.5639 35.9181 65.5252C35.9455 65.4866 35.9872 65.46 36.0341 65.4513C36.079 65.4368 36.1277 65.4403 36.1697 65.4611C36.2118 65.4819 36.2437 65.5183 36.2585 65.5623C36.2668 65.608 36.2567 65.6551 36.2306 65.6938C36.2044 65.7325 36.1641 65.7598 36.1182 65.77L36.1163 65.7705ZM40.8503 65.7393C40.8036 65.7526 40.7536 65.7473 40.7111 65.7246C40.6686 65.7018 40.637 65.6634 40.6231 65.6176C40.599 65.5242 40.6725 65.4703 40.7889 65.5009C40.9052 65.5315 41.0095 65.5786 41.0204 65.6209C41.0313 65.6631 40.9533 65.7128 40.8503 65.7393ZM43.4447 65.0713C43.398 65.0843 43.3481 65.0788 43.3056 65.0562C43.2631 65.0335 43.2313 64.9953 43.2169 64.9497C43.1928 64.8564 43.2695 64.8016 43.3833 64.8329C43.4971 64.8641 43.602 64.9111 43.6129 64.9533C43.6238 64.9956 43.5471 65.0449 43.4447 65.0713ZM44.0301 63.8995C43.8772 63.9389 43.7451 63.9427 43.7361 63.908C43.7272 63.8733 43.8373 63.771 43.9736 63.68C44.1099 63.5891 44.246 63.5877 44.2676 63.6716C44.2892 63.7555 44.185 63.8624 44.034 63.9012L44.0301 63.8995ZM47.2782 63.7479C47.218 63.7588 47.1563 63.7569 47.097 63.7425C47.0378 63.7281 46.9824 63.7014 46.9346 63.6642C46.8525 63.5945 46.8639 63.5143 46.9669 63.4877C47.0262 63.4773 47.0868 63.4791 47.1452 63.493C47.2035 63.507 47.2582 63.5327 47.3057 63.5686C47.3942 63.6393 47.3806 63.7215 47.2782 63.7479ZM47.5029 61.9863C47.4581 61.9979 47.3519 61.9512 47.266 61.8799C47.1801 61.8085 47.199 61.7283 47.3078 61.7003C47.3539 61.6839 47.4046 61.686 47.4488 61.7062C47.4931 61.7264 47.5274 61.763 47.5444 61.8082C47.5667 61.8946 47.549 61.9745 47.5029 61.9863ZM48.1415 63.3534C48.0385 63.38 47.9259 63.2899 47.8913 63.1555C47.8567 63.0212 47.9224 62.9289 48.0395 62.9573C48.1567 62.9856 48.2659 63.0759 48.2882 63.1623C48.2933 63.2068 48.2806 63.2516 48.2528 63.2872C48.225 63.3227 48.1842 63.3462 48.1393 63.3527L48.1415 63.3534ZM47.6452 61.4338C47.621 61.3398 47.694 61.2867 47.8101 61.3133C47.9261 61.34 48.0312 61.3983 48.0411 61.4368C48.051 61.4753 47.9748 61.5292 47.8724 61.5556C47.8257 61.5689 47.7758 61.5636 47.7333 61.5408C47.6908 61.518 47.6591 61.4796 47.6452 61.4338ZM48.263 62.174C48.155 62.3269 48.1146 62.2707 48.1276 61.9849C48.1362 61.7533 48.2036 61.6573 48.2806 61.7653C48.3168 61.8274 48.3345 61.8984 48.3317 61.9703C48.3288 62.0422 48.3055 62.112 48.2644 62.1716L48.263 62.174ZM52.2062 60.776C52.0975 60.804 52.0444 60.7436 52.0845 60.6398C52.1247 60.536 52.1942 60.4428 52.2358 60.4321C52.2774 60.4213 52.3355 60.4804 52.3584 60.5693C52.3641 60.6157 52.3516 60.6626 52.3237 60.7005C52.2957 60.7384 52.2542 60.7645 52.2077 60.7736L52.2062 60.776ZM55.9087 60.5046C55.8089 60.5303 55.7488 60.4321 55.771 60.2852C55.7932 60.1382 55.8526 60.0086 55.8917 59.9985C55.9307 59.9885 55.9916 60.0871 56.0257 60.2196C56.0598 60.3521 56.0068 60.4774 55.9101 60.5023L55.9087 60.5046ZM60.9069 59.2177C60.8599 59.2316 60.8095 59.2267 60.7664 59.204C60.7234 59.1813 60.6913 59.1427 60.6771 59.0966C60.6533 59.0038 60.7285 58.9488 60.8453 58.9786C60.9622 59.0084 61.0618 59.0614 61.0719 59.1005C61.082 59.1396 61.0075 59.1897 60.9083 59.2153L60.9069 59.2177ZM61.1095 58.7801C61.062 58.8475 60.9933 58.7663 60.9594 58.5948C60.9203 58.4084 60.9526 58.3591 61.0448 58.4705C61.1297 58.567 61.1598 58.7079 61.1109 58.7777L61.1095 58.7801ZM63.4469 58.5636C63.3464 58.4039 63.3244 58.2548 63.3968 58.2362C63.5753 58.1902 64.0635 58.4405 64.1043 58.5988C64.1765 58.8688 63.6154 58.839 63.4484 58.5612L63.4469 58.5636ZM64.5426 57.7993C64.5265 58.1397 64.4257 58.2067 64.0428 58.1082C63.8743 58.0662 63.9186 57.9545 64.1767 57.7643C64.5059 57.5161 64.5528 57.5209 64.544 57.7969L64.5426 57.7993ZM64.4083 57.1451C64.3881 57.1928 64.3583 57.236 64.3206 57.272C64.2829 57.3079 64.2381 57.3359 64.1892 57.3542C63.9901 57.4054 63.6922 57.0355 63.8053 56.8732C63.9281 56.693 64.4884 56.9449 64.4097 57.1427L64.4083 57.1451ZM67.5701 58.4792C67.3085 58.8547 67.1799 58.7022 67.3643 58.2417C67.4273 58.0862 67.5529 57.9987 67.644 58.0452C67.7351 58.0917 67.706 58.2862 67.5716 58.4769L67.5701 58.4792ZM67.8551 57.0499C67.4826 57.392 67.3961 57.2918 67.6945 56.8632C67.922 56.5356 68.0951 56.4473 68.1432 56.634C68.1613 56.6966 68.0333 56.8856 67.8566 57.0475L67.8551 57.0499ZM70.2279 56.5358C69.9409 56.3965 69.9251 55.8739 70.2022 55.8025C70.375 55.758 70.5186 55.8812 70.5819 56.1272C70.6839 56.5152 70.5347 56.6834 70.2293 56.5334L70.2279 56.5358ZM71.7052 57.7945C71.5363 57.838 71.405 57.7891 71.42 57.6857C71.4274 57.6326 71.4499 57.5825 71.4847 57.5411C71.5196 57.4998 71.5654 57.4689 71.617 57.452C71.6705 57.4421 71.7256 57.4471 71.7761 57.4664C71.8266 57.4857 71.8706 57.5186 71.9031 57.5613C71.963 57.6481 71.8736 57.7512 71.7052 57.7945ZM74.7057 56.5962C74.3584 56.3977 74.2833 56.2173 74.578 56.2887C74.6918 56.3173 74.7583 56.2228 74.7207 56.0771C74.611 55.6507 75.1356 55.7934 75.3179 56.2388C75.5063 56.6974 75.193 56.8776 74.7063 56.5987L74.7057 56.5962ZM76.5743 56.3693C76.552 56.3767 76.5285 56.3798 76.5051 56.3783C76.4817 56.3768 76.4588 56.3707 76.4378 56.3604C76.4169 56.3501 76.3982 56.3358 76.3829 56.3183C76.3676 56.3009 76.3559 56.2806 76.3486 56.2586C76.34 56.2123 76.3503 56.1644 76.3771 56.1253C76.4039 56.0862 76.4452 56.0589 76.492 56.0495C76.5151 56.0419 76.5394 56.0389 76.5636 56.0406C76.5878 56.0424 76.6114 56.0489 76.6329 56.0597C76.6545 56.0706 76.6737 56.0855 76.6893 56.1038C76.7049 56.122 76.7167 56.1431 76.724 56.166C76.7279 56.1893 76.7271 56.2132 76.7216 56.2362C76.7161 56.2593 76.706 56.2811 76.6919 56.3003C76.6778 56.3196 76.6599 56.3358 76.6394 56.3482C76.6189 56.3606 76.5961 56.3688 76.5724 56.3725L76.5743 56.3693ZM76.5044 55.0138C76.2881 55.0614 76.2332 55.0339 76.3684 54.9466C76.4888 54.8658 76.65 54.829 76.727 54.8684C76.804 54.9078 76.7024 54.9743 76.5051 55.0163L76.5044 55.0138ZM82.5653 52.7867C82.5328 52.7904 82.5 52.7847 82.4709 52.7705C82.4417 52.7562 82.4174 52.7339 82.4008 52.7063C82.3842 52.6786 82.3761 52.6468 82.3775 52.6146C82.3788 52.5823 82.3895 52.5511 82.4083 52.5246C82.4271 52.4982 82.4532 52.4776 82.4835 52.4653C82.5137 52.453 82.5469 52.4496 82.5789 52.4554C82.611 52.4613 82.6406 52.4762 82.6642 52.4983C82.6878 52.5204 82.7044 52.5488 82.712 52.58C82.72 52.6266 82.7092 52.6746 82.6819 52.7137C82.6546 52.7528 82.613 52.7799 82.5659 52.7892L82.5653 52.7867ZM83.9475 52.767C83.9156 52.771 83.8833 52.7658 83.8544 52.7521C83.8255 52.7384 83.8012 52.7168 83.7845 52.6898C83.7678 52.6628 83.7593 52.6316 83.7601 52.5998C83.7609 52.5681 83.7709 52.5372 83.789 52.5108C83.807 52.4844 83.8323 52.4636 83.8619 52.4509C83.8914 52.4382 83.924 52.4342 83.9557 52.4393C83.9874 52.4443 84.0169 52.4583 84.0407 52.4795C84.0645 52.5007 84.0815 52.5283 84.0898 52.5589C84.0947 52.5819 84.0949 52.6057 84.0905 52.6289C84.086 52.6521 84.077 52.6742 84.0639 52.694C84.0508 52.7139 84.0339 52.7309 84.0142 52.7443C83.9944 52.7577 83.9722 52.7671 83.9488 52.7721L83.9475 52.767ZM85.2072 52.0169C85.1549 52.3438 84.8591 52.4247 84.3587 52.2542C84.0034 52.1359 83.9986 52.1068 84.2698 51.7579C84.422 51.5539 84.6633 51.4151 84.8035 51.4456C84.9856 51.4902 84.9926 51.557 84.832 51.7073C84.6715 51.8576 84.6863 51.8914 84.9378 51.8294C85.1412 51.7844 85.2388 51.8507 85.2104 52.0215L85.2072 52.0169ZM89.4839 52.3645C89.4392 52.376 89.332 52.3256 89.2467 52.2541C89.1614 52.1826 89.1789 52.102 89.2877 52.074C89.3339 52.0578 89.3846 52.0601 89.4289 52.0804C89.4731 52.1007 89.5075 52.1374 89.5245 52.1826C89.5483 52.2753 89.5313 52.3577 89.4852 52.3696L89.4839 52.3645ZM90.8438 52.6977C90.8216 52.7052 90.7981 52.7082 90.7748 52.7067C90.7514 52.7051 90.7286 52.699 90.7078 52.6887C90.6869 52.6783 90.6683 52.664 90.6532 52.6465C90.638 52.629 90.6265 52.6087 90.6194 52.5867C90.6133 52.541 90.6244 52.4946 90.6506 52.4562C90.6768 52.4178 90.7163 52.3902 90.7616 52.3785C90.8069 52.3669 90.8548 52.372 90.8963 52.3929C90.9378 52.4139 90.97 52.4491 90.9867 52.4921C90.9911 52.5148 90.9908 52.5381 90.986 52.5608C90.9812 52.5835 90.9718 52.605 90.9585 52.6241C90.9452 52.6432 90.9283 52.6596 90.9086 52.6722C90.8889 52.6849 90.8669 52.6935 90.8438 52.6977ZM92.4946 51.4232C92.4478 51.4367 92.3976 51.4315 92.3548 51.4088C92.3121 51.3861 92.2802 51.3476 92.2661 51.3017C92.2421 51.2084 92.3181 51.1538 92.4329 51.1835C92.5476 51.2131 92.6532 51.2653 92.6633 51.3044C92.6733 51.3435 92.5925 51.398 92.4907 51.4242L92.4946 51.4232ZM94.3568 49.9099C94.1379 49.9582 94.0852 49.9307 94.2203 49.8435C94.3413 49.7619 94.5019 49.7259 94.5757 49.7634C94.6495 49.8009 94.5554 49.8648 94.3568 49.9099ZM95.3552 50.0052C95.2199 50.4497 95.2103 50.4522 95.1208 50.1181C95.0421 49.8121 95.257 49.3828 95.4312 49.5001C95.468 49.5235 95.4321 49.7527 95.3552 50.0052ZM96.0934 50.8369C96.0494 50.852 96.0014 50.8497 95.9593 50.8306C95.9172 50.8115 95.8844 50.7769 95.8677 50.7342C95.8461 50.6503 95.9025 50.5167 95.9896 50.4338C96.0768 50.3508 96.178 50.4021 96.2129 50.5377C96.2478 50.6733 96.1977 50.81 96.0966 50.836L96.0934 50.8369ZM97.4826 48.7505C97.182 48.5926 97.1454 48.5246 97.338 48.475C97.4769 48.4393 97.7172 48.485 97.8659 48.5772C98.2877 48.8345 97.9402 48.9905 97.4826 48.7505ZM98.9078 48.8631C98.6604 48.7769 98.581 48.654 98.6548 48.4662C98.7286 48.2784 98.7796 48.2538 98.8182 48.3905C98.8463 48.4996 98.9978 48.5581 99.1508 48.5188C99.3038 48.4794 99.4589 48.5544 99.4923 48.6844C99.5687 48.9755 99.3938 49.0279 98.9078 48.8631ZM100.28 48.9584C100.008 48.8267 100.089 48.7022 100.544 48.5602C100.797 48.4823 101.009 48.4406 101.017 48.4746C101.049 48.6043 100.411 49.0243 100.281 48.9568L100.28 48.9584ZM102.639 48.9933C102.561 48.9247 102.568 48.8045 102.659 48.7191C102.751 48.6337 102.849 48.6844 102.884 48.82C102.958 49.1029 102.856 49.1729 102.639 48.9933ZM105.201 48.8717C105.109 48.7326 104.942 48.4678 104.826 48.2897C104.658 48.0308 104.681 47.9664 104.934 47.9848C105.133 48.0007 105.243 48.1245 105.225 48.3201C105.207 48.4908 105.293 48.6572 105.412 48.6871C105.53 48.717 105.647 48.8067 105.668 48.89C105.738 49.1533 105.371 49.14 105.203 48.8733L105.201 48.8717ZM105.278 46.8254C105.252 46.9613 105.019 47.1712 104.754 47.2865L104.276 47.4985L104.711 46.9955C105.177 46.4653 105.347 46.4129 105.28 46.8269L105.278 46.8254ZM106.174 46.9539C106.094 47.0303 106.113 47.2958 106.217 47.5481C106.449 48.0998 106.335 48.1905 106.039 47.6882C105.797 47.2796 105.813 46.6311 106.07 46.5651C106.296 46.5102 106.369 46.7839 106.176 46.9555L106.174 46.9539ZM108.469 45.9487C108.422 45.9621 108.372 45.9568 108.329 45.9341C108.286 45.9114 108.254 45.8731 108.24 45.8273C108.216 45.7333 108.289 45.68 108.406 45.7065C108.523 45.7329 108.627 45.7915 108.637 45.8299C108.647 45.8684 108.572 45.9241 108.47 45.9503L108.469 45.9487ZM112.582 46.7243C112.482 46.8645 112.342 46.9913 112.26 47.0124C112.05 47.0666 112.004 46.7792 112.193 46.6039C112.282 46.5225 112.316 46.3193 112.272 46.1483C112.228 45.9774 112.277 45.8175 112.38 45.7911C112.641 45.7259 112.792 46.4261 112.584 46.7258L112.582 46.7243ZM115.415 45.6909C115.29 45.8395 115.171 45.8884 115.148 45.8007C115.125 45.713 115.212 45.5186 115.333 45.3711C115.454 45.2235 115.578 45.1694 115.601 45.2609C115.625 45.3524 115.542 45.5411 115.417 45.6924L115.415 45.6909ZM116.85 44.4902C116.622 44.7539 116.599 44.7518 116.644 44.4658C116.671 44.252 116.662 44.0355 116.616 43.8254C116.571 43.6513 116.631 43.5335 116.746 43.559C116.861 43.5845 116.99 43.743 117.031 43.9014C117.072 44.0597 116.992 44.3277 116.851 44.4918L116.85 44.4902ZM118.338 45.4474C118.166 45.4916 118.008 45.3913 117.959 45.2046C117.914 45.0273 117.793 44.907 117.69 44.9335C117.648 44.9492 117.6 44.9477 117.559 44.9293C117.518 44.9109 117.485 44.877 117.469 44.8351C117.449 44.7575 117.608 44.6863 117.824 44.6797C118.04 44.6732 118.232 44.724 118.25 44.7941C118.301 44.9224 118.371 45.0417 118.46 45.1476C118.576 45.2946 118.535 45.4 118.34 45.4503L118.338 45.4474ZM119.126 42.9435C119.03 43.0819 118.766 42.9502 118.711 42.737C118.685 42.6361 118.771 42.6246 118.933 42.7053C119.08 42.7798 119.169 42.8875 119.125 42.9457L119.126 42.9435ZM120.471 42.9786C120.424 43.0492 120.355 42.9673 120.321 42.7958C120.282 42.6076 120.317 42.5589 120.407 42.6716C120.49 42.774 120.521 42.9127 120.47 42.9809L120.471 42.9786ZM126.543 42.7402C126.586 42.9619 126.526 43.167 126.413 43.1961C126.299 43.2253 126.2 43.0739 126.192 42.8305C126.176 42.2818 126.443 42.213 126.542 42.7424L126.543 42.7402ZM128.535 41.8001C128.427 41.828 128.372 41.7674 128.41 41.6636C128.447 41.5598 128.523 41.463 128.567 41.4515C128.612 41.4399 128.668 41.5023 128.691 41.5912C128.698 41.6394 128.685 41.6885 128.656 41.728C128.627 41.7675 128.583 41.7942 128.534 41.8024L128.535 41.8001ZM129.167 41.1424C129.123 40.9734 128.975 40.8313 128.838 40.8236C128.701 40.8159 128.64 40.7313 128.704 40.6315C128.836 40.4286 129.477 40.8109 129.562 41.1408C129.579 41.1922 129.574 41.2482 129.55 41.2967C129.525 41.3451 129.482 41.3823 129.43 41.4001C129.329 41.4288 129.209 41.3124 129.166 41.1446L129.167 41.1424ZM130.307 41.9249C130.173 42.1148 130.141 42.364 130.23 42.4768C130.32 42.5895 130.313 42.7069 130.213 42.7328C130.112 42.7587 129.94 42.6343 129.833 42.4547C129.599 42.0764 129.584 42.1227 130.123 41.8184C130.514 41.5974 130.531 41.6051 130.307 41.9249ZM130.231 40.8179C130.276 41.1938 130.249 41.2257 130.072 41.0109C129.952 40.8703 129.812 40.5633 129.754 40.3253C129.659 39.9576 129.685 39.9309 129.914 40.1349C130.059 40.2636 130.202 40.5705 130.231 40.8179ZM131.308 42.3014C131.081 42.5712 131.055 42.5583 131.074 42.1707C131.086 41.9565 131.076 41.7418 131.046 41.5297C131.016 41.4161 131.09 41.3447 131.203 41.3701C131.316 41.3955 131.449 41.5535 131.49 41.7118C131.531 41.8701 131.445 42.1384 131.308 42.3014ZM134.455 38.5108L117.964 42.7571C117.988 42.9009 118.057 42.9693 118.158 42.9433C118.278 42.9123 118.342 42.9731 118.302 43.0776C118.156 43.4515 117.695 43.4055 117.592 43.0063C117.58 42.9581 117.563 42.911 117.543 42.8654L85.8732 51.0202C85.8515 51.0595 85.8184 51.0915 85.7781 51.1119C85.7538 51.1182 85.7236 51.099 85.6978 51.0653L82.3777 51.9202C82.2812 52.1394 82.1707 52.3172 82.0923 52.3623C81.874 52.4925 81.7974 52.3037 81.8753 52.0496L77.311 53.2248C77.3128 53.2318 77.3146 53.2387 77.312 53.2474C77.3594 53.6671 77.3427 53.6794 77.1364 53.403C77.1098 53.3661 77.0861 53.3272 77.0656 53.2867L73.0248 54.3271C72.9635 54.4445 72.9082 54.5132 72.8708 54.4952C72.8255 54.4714 72.7864 54.4375 72.7566 54.3962L55.2899 58.8937C55.3711 59.2252 55.1285 59.2184 54.8163 59.0156L49.3253 60.4295C49.3253 60.4295 49.3263 60.4333 49.3268 60.4352C49.3309 60.6951 49.3012 60.7148 49.061 60.4975L46.0007 61.2855C46.0256 61.3242 46.0551 61.3597 46.0886 61.3914C46.2408 61.5264 46.2591 61.6266 46.1439 61.6563C46.0159 61.6892 45.8408 61.5393 45.7325 61.3546L36.2021 63.8086C36.2797 63.8222 36.3533 63.8527 36.4174 63.8977C36.6274 64.0266 36.6557 64.0994 36.5046 64.1383C36.3696 64.173 36.4391 64.3051 36.6933 64.508C36.9121 64.6818 37.058 64.9092 37.0158 65.0209C36.88 65.3707 36.6507 65.3019 36.3397 64.8204C36.1702 64.5594 35.8839 64.3593 35.7013 64.3761C35.469 64.3962 35.4236 64.4691 35.5471 64.6256C35.6472 64.7492 35.6428 64.87 35.5398 64.8965C35.4368 64.9231 35.2756 64.8112 35.177 64.6483C35.0041 64.3639 35.1272 64.2454 35.684 64.1713C35.8303 64.1511 35.9913 64.0397 36.03 63.9249C36.0419 63.8909 36.0626 63.8606 36.0899 63.8368L12.7949 69.835C12.8262 69.8585 12.8617 69.8851 12.9083 69.9282C13.0579 70.0585 13.1511 70.2087 13.1185 70.2568C13.0197 70.4033 12.7591 70.2101 12.696 69.9412C12.6882 69.9109 12.6819 69.8863 12.681 69.8643L12.4743 69.9176L4.09341 37.3691L10.4208 35.7398C10.4303 35.7033 10.45 35.67 10.4777 35.6439C10.5053 35.6177 10.5398 35.5997 10.5772 35.592C10.6579 35.5712 10.7095 35.6023 10.7114 35.665L22.2571 32.6921C22.2162 32.6233 22.1533 32.4612 22.009 32.0942C21.7832 31.5194 21.7864 31.5186 22.2382 31.7231C22.6142 31.8953 22.6722 31.9987 22.5738 32.316C22.5394 32.4305 22.4929 32.5413 22.435 32.6463L38.7543 28.4443C38.719 28.428 38.686 28.407 38.6564 28.3821C38.5819 28.3178 38.6066 28.1622 38.7125 28.0353C38.8598 27.8629 38.9321 27.8786 39.0135 28.1072C39.0492 28.193 39.0495 28.2894 39.0144 28.3759L51.8932 25.0598C51.8988 25.0496 51.9031 25.0398 51.9093 25.0294C52.0503 24.7819 52.0024 24.6779 51.6408 24.4609C51.398 24.3129 51.2873 24.2251 51.3917 24.2675C51.4961 24.3099 51.7277 24.2233 51.9019 24.0783C52.1869 23.8468 52.2281 23.8692 52.2801 24.2856C52.3132 24.5306 52.292 24.8273 52.2332 24.9702L54.8046 24.3081C54.7963 24.2415 54.7721 24.1778 54.7341 24.1222C54.6961 24.0667 54.6453 24.0209 54.5858 23.9885C54.3491 23.8429 54.3581 23.8144 54.6506 23.8373C54.8589 23.8509 55.0389 23.7548 55.1025 23.5965C55.1688 23.4274 55.2772 23.3739 55.4178 23.4481C55.5758 23.5318 55.5587 23.8496 55.4595 24.1402L62.862 22.2341C62.8466 22.1752 62.8469 22.1133 62.8628 22.0543C62.8899 21.93 62.903 21.8033 62.902 21.6763C62.8926 21.6397 62.9659 21.5879 63.0676 21.5617C63.1694 21.5355 63.3075 21.73 63.3756 21.9943C63.3845 22.029 63.3931 22.0624 63.3964 22.0965L90.2913 15.1714C90.2614 15.1198 90.2398 15.0638 90.2274 15.0056C90.2114 14.9427 90.2109 14.8769 90.2261 14.8136C90.2413 14.7503 90.2717 14.6915 90.3146 14.6421C90.3956 14.5695 90.4526 14.6637 90.4434 14.8531C90.443 14.9515 90.428 15.0494 90.3988 15.1437L114.839 8.8507C114.79 8.47583 114.909 8.46463 115.095 8.78478L116.498 8.42341C116.511 8.3907 116.53 8.36091 116.555 8.33595C116.58 8.311 116.61 8.29142 116.643 8.27849C116.815 8.23433 116.935 8.2424 117.001 8.29405L120.175 7.47655C120.148 7.46049 120.124 7.43917 120.105 7.41383C120.086 7.38849 120.072 7.35963 120.064 7.32892C120.033 7.20718 119.873 7.09831 119.706 7.08883C119.623 7.08135 119.544 7.05034 119.478 6.99948C119.413 6.94863 119.363 6.88009 119.336 6.80206C119.283 6.59327 119.391 6.52779 119.848 6.48998C120.352 6.44836 120.418 6.3985 120.34 6.09446C120.258 5.77907 120.285 5.76266 120.598 5.91752C121.063 6.14638 120.968 6.64165 120.461 6.65911C120.126 6.66734 120.105 6.72322 120.303 7.05684C120.395 7.21479 120.431 7.3387 120.412 7.41575L127.707 5.53719C127.707 5.53719 127.707 5.53719 127.706 5.53277C127.627 5.22621 127.826 4.37788 127.986 4.33669C128.05 4.32021 128.296 4.37868 128.531 4.46557C128.943 4.61972 128.942 4.62857 128.517 4.65466C128.164 4.67843 128.096 4.7544 128.171 5.04456C128.191 5.17158 128.182 5.30177 128.145 5.42527L132.381 4.33439C132.34 4.27962 132.313 4.2155 132.304 4.14782C132.265 3.95611 132.299 3.91101 132.391 4.02168C132.469 4.11543 132.498 4.24098 132.463 4.3133L133.791 3.97136L133.907 4.42111C133.926 4.42835 133.947 4.43761 133.971 4.44907C134.107 4.51754 134.21 4.66509 134.197 4.77623C134.183 4.88737 134.111 4.92813 134.03 4.89798L134.907 8.30422C134.976 8.31114 135.046 8.30586 135.113 8.28862C135.442 8.20393 135.528 8.28558 135.667 8.82805C135.757 9.17814 135.747 9.48547 135.644 9.512C135.541 9.53853 135.422 9.41169 135.376 9.2294C135.346 9.11522 135.208 8.93625 135.026 8.76595L137.295 17.5799L137.331 17.5887C137.546 17.6497 137.594 17.7322 137.479 17.8474C137.446 17.8814 137.417 17.9184 137.392 17.9577L138.571 22.5372C138.745 22.547 138.752 22.6005 138.619 22.7221L139.007 24.2271C139.031 24.241 139.049 24.2636 139.057 24.2902C139.065 24.3233 139.062 24.3583 139.049 24.3899L142.173 36.523L134.51 38.4961C134.49 38.524 134.474 38.5302 134.455 38.5108ZM137.833 38.7267C137.73 38.7532 137.617 38.6639 137.582 38.529C137.547 38.394 137.614 38.3016 137.731 38.3299C137.848 38.3583 137.957 38.4485 137.979 38.5318C137.984 38.5766 137.972 38.6219 137.945 38.6582C137.917 38.6945 137.878 38.7193 137.833 38.7267Z" fill="#F53636"/>
<path d="M62.9961 22.1982L62.9883 22.205L63.138 22.1664C63.1222 22.118 63.0751 22.1288 62.9961 22.1982Z" fill="#F53636"/>
<path d="M34.9926 56.5009C34.9276 56.4766 34.8558 56.4467 34.7767 56.4099C34.4721 56.2684 34.3679 56.084 34.4435 55.8156L34.4514 55.7907L33.6022 56.0094C33.9633 56.3516 33.5784 56.4998 33.055 56.1503L26.9369 57.7256L25.1756 50.8854L27.0354 50.4066C26.9926 50.3093 27.0678 50.2092 27.2297 50.1675C27.3916 50.1258 27.5097 50.1761 27.5185 50.2821L31.5133 49.2535L30.6833 46.0302L28.6994 46.5411C28.7403 46.6946 28.7615 46.8527 28.7626 47.0118C28.7337 47.8566 28.0128 47.8102 27.246 46.9153L24.9933 47.4953C25.1449 47.8881 25.2456 48.4063 25.2108 48.7906C25.1882 49.013 25.081 49.2195 24.9671 49.2488C24.8532 49.2782 24.798 49.1222 24.8611 48.8369C24.9136 48.5826 24.812 48.029 24.6356 47.6063C24.6344 47.6003 24.6329 47.5944 24.6311 47.5886L24.3482 47.6615L22.6715 41.1499L25.3837 40.4515C25.3235 40.2905 25.2374 40.1403 25.1286 40.0067C24.9202 39.796 25.8291 38.8921 26.0838 39.0518C26.1652 39.1028 26.3298 39.5938 26.4475 40.1359C26.4511 40.1498 26.4542 40.1617 26.4576 40.175L30.5195 39.1291L29.6897 35.9064L26.7785 36.656C26.8806 36.8248 26.878 36.9788 26.7679 37.0072C26.6578 37.0355 26.5267 36.9159 26.4713 36.7351L17.8886 38.9451C17.895 38.9697 17.9055 38.9945 17.9124 39.0217C17.9815 39.2898 17.9377 39.5331 17.8161 39.5644C17.7788 39.5702 17.7406 39.5658 17.7058 39.5518C17.6709 39.5378 17.6406 39.5146 17.6182 39.4849L21.7998 55.725C21.8037 55.6192 21.8389 55.5165 21.9013 55.4299C22.0022 55.3185 22.1065 55.3098 22.131 55.4158C22.1556 55.5218 22.1199 55.794 22.0522 56.0159C22.0045 56.1781 21.9722 56.2645 21.9424 56.2789L22.0492 56.6933C22.0806 56.7141 22.1097 56.7382 22.1359 56.7651C22.3662 56.9997 22.3278 57.1448 22.1591 57.1203L23.3711 61.8272C23.4395 61.8909 23.5018 61.9606 23.5571 62.0356L31.1203 60.0882C31.1225 60.0633 31.1289 60.0389 31.1393 60.016C31.2293 59.8516 31.4064 59.8739 31.5337 59.9817L35.618 58.9301L34.9926 56.5009ZM29.1594 48.158C29.5717 48.2724 29.6379 48.2063 29.5845 47.7472C29.5447 47.4467 29.6115 47.2902 29.7232 47.4007C29.8349 47.5112 29.8729 47.8599 29.8045 48.1748C29.7099 48.6236 29.5835 48.7213 29.2365 48.619C28.6122 48.4367 28.5398 47.9913 29.1587 48.1581L29.1594 48.158ZM27.2664 47.5645C27.4643 47.5909 27.6551 47.7092 27.6847 47.824C27.7143 47.9388 27.5884 48.0728 27.4092 48.1189C27.3185 48.139 27.2237 48.123 27.1453 48.0744C27.0669 48.0259 27.0112 47.9487 26.9903 47.8596C26.9356 47.6497 27.0431 47.5319 27.2658 47.5647L27.2664 47.5645ZM25.9473 48.6588C26.0454 48.4782 26.9085 49.3651 27.009 49.7555C27.0827 50.0419 26.6426 50.127 26.5324 49.85C26.3601 49.4007 26.2919 49.279 26.0721 49.0639C25.9486 48.9396 25.8937 48.758 25.9473 48.6588ZM28.3077 38.8659C28.3495 38.7159 28.4837 38.5717 28.6027 38.5411C28.7218 38.5104 28.7898 38.6026 28.7486 38.7524C28.7073 38.9023 28.5724 39.046 28.4501 39.0774C28.3279 39.1089 28.2664 39.0158 28.3077 38.8659ZM23.9697 38.9801C24.0919 38.9486 24.2806 39.0137 24.3859 39.1258C24.4912 39.2379 24.489 39.3488 24.3643 39.3809C24.2886 39.3917 24.2115 39.3845 24.1395 39.3599C24.0675 39.3352 24.0027 39.2939 23.9504 39.2393C23.8416 39.1267 23.85 39.0109 23.9703 38.9799L23.9697 38.9801ZM23.6672 60.8625C23.6141 60.8762 23.4807 60.7955 23.3732 60.6853C23.2657 60.5751 23.2808 60.4589 23.4101 60.4256C23.4411 60.418 23.4733 60.4164 23.5048 60.4211C23.5363 60.4257 23.5666 60.4364 23.5938 60.4527C23.6211 60.4689 23.6448 60.4903 23.6636 60.5156C23.6824 60.5409 23.6959 60.5697 23.7034 60.6003C23.7361 60.7297 23.721 60.8486 23.6666 60.8626L23.6672 60.8625ZM22.1733 52.4555C21.9143 52.5094 21.8499 52.4715 22.0045 52.3483C22.1442 52.239 22.337 52.2008 22.4281 52.2601C22.5191 52.3194 22.4087 52.405 22.1733 52.4555ZM18.7921 39.6924C18.563 39.5153 18.5085 39.3861 18.657 39.3479C18.785 39.3149 18.9865 39.3821 19.1 39.4995C19.4422 39.8479 19.1987 40.0047 18.7921 39.6924ZM25.3247 61.4345C25.2945 61.4412 25.2633 61.4419 25.2329 61.4365C25.2025 61.4312 25.1736 61.42 25.1477 61.4035C25.1218 61.387 25.0995 61.3656 25.0821 61.3405C25.0647 61.3154 25.0526 61.2872 25.0464 61.2573C25.0353 61.228 25.0306 61.1966 25.0326 61.1653C25.0346 61.1339 25.0432 61.1033 25.058 61.0754C25.0728 61.0475 25.0933 61.0229 25.1183 61.0033C25.1432 60.9836 25.172 60.9694 25.2029 60.9614C25.2337 60.9535 25.2658 60.9521 25.2972 60.9572C25.3285 60.9623 25.3583 60.9739 25.3847 60.9912C25.4112 61.0085 25.4335 61.0312 25.4504 61.0577C25.4673 61.0841 25.4784 61.1139 25.4828 61.1449C25.4918 61.1741 25.4948 61.2047 25.4917 61.2351C25.4886 61.2654 25.4794 61.295 25.4647 61.3219C25.45 61.3488 25.43 61.3726 25.406 61.392C25.382 61.4113 25.3543 61.4258 25.3247 61.4345ZM24.1819 53.2862C23.5752 53.9274 23.3878 53.8647 23.7811 53.1527C23.9091 52.9105 24.1808 52.7067 24.3818 52.7C24.6386 52.6904 24.5797 52.8643 24.1813 53.2837L24.1819 53.2862ZM23.6064 48.8459C23.5646 48.9912 23.4887 49.1284 23.4356 49.1421C23.3825 49.1558 23.3107 49.0599 23.2774 48.9306C23.2615 48.8694 23.2707 48.8042 23.303 48.7493C23.3354 48.6943 23.3883 48.6541 23.4503 48.6372C23.5796 48.6039 23.6497 48.6989 23.6064 48.8459ZM27.2188 59.6951C27.1546 59.7061 27.0887 59.6918 27.0355 59.6551C26.9822 59.6185 26.9459 59.5625 26.9343 59.4993C26.8989 59.3618 26.9875 59.2899 27.1272 59.3393C27.2669 59.3888 27.3974 59.4715 27.4126 59.5308C27.4279 59.5901 27.3431 59.6664 27.2222 59.6976L27.2188 59.6951ZM29.3641 57.6192C29.1053 57.6744 29.0376 57.6313 29.1943 57.5137C29.3353 57.404 29.5255 57.3611 29.6169 57.4217C29.7082 57.4822 29.6006 57.5678 29.3667 57.6186L29.3641 57.6192ZM30.5752 57.8253C30.443 58.4647 30.4315 58.4677 30.3008 57.9733C30.1846 57.5223 30.4134 56.9132 30.6318 57.0964C30.6774 57.1358 30.6509 57.4648 30.5752 57.8253ZM31.5222 59.0861C31.4628 59.1007 31.4001 59.0915 31.3478 59.0607C31.2955 59.0298 31.2578 58.9797 31.2429 58.9212C31.2319 58.8457 31.2376 58.7687 31.2596 58.6953C31.2815 58.622 31.3193 58.5541 31.3703 58.4963C31.4724 58.3893 31.5946 58.4635 31.6459 58.6628C31.6972 58.8621 31.6443 59.0567 31.5227 59.088L31.5222 59.0861Z" fill="#F53636"/>
<path d="M34.8427 55.9194L34.787 55.703L34.6462 55.7393C34.6635 55.7818 34.69 55.82 34.724 55.8511C34.7579 55.8822 34.7985 55.9055 34.8427 55.9194Z" fill="#F53636"/>
<path d="M31.7336 35.3799L31.9313 35.6175C32.0121 35.486 32.1083 35.3643 32.2181 35.2551L31.7336 35.3799Z" fill="#F53636"/>
<path d="M50.5151 50.8212C50.4183 50.8606 50.3185 50.8923 50.2167 50.9162C49.7809 51.0284 49.5538 50.9443 49.2578 50.5578C48.9149 50.114 48.9133 50.0149 49.2021 49.6681C49.2664 49.5895 49.3187 49.502 49.3569 49.4083L47.8266 47.5411C47.8422 47.559 47.8527 47.5807 47.8571 47.604C47.8616 47.6272 47.8598 47.6513 47.8519 47.6738C47.7593 47.8442 47.4712 47.6608 47.4005 47.3864C47.3671 47.2565 47.4574 47.2467 47.6338 47.3593C47.6795 47.3888 47.7219 47.4229 47.7603 47.4613L44.8856 43.9533L45.3531 41.3617C45.2587 41.2253 45.2857 41.1 45.4085 41.0468L45.6919 39.4787C45.5492 39.6876 45.3992 39.8473 45.3097 39.873C45.1733 39.9081 45.1171 40.1244 45.1754 40.3508C45.2695 40.7161 45.2265 40.7453 44.8216 40.6067C44.4471 40.4772 44.3453 40.5114 44.2585 40.8049C44.2016 41.0025 44.2228 41.2681 44.3093 41.3971C44.3958 41.5262 44.3855 41.6533 44.2914 41.6775C44.1327 41.7383 43.9838 41.822 43.8497 41.9258C43.6981 42.0395 43.5509 42.0377 43.5216 41.9235C43.4922 41.8093 43.5756 41.6405 43.7072 41.5394C43.862 41.4249 43.8576 41.1798 43.7003 40.8262C43.5554 40.5097 43.5441 40.3229 43.6717 40.3627C43.9437 40.4568 44.6803 39.2441 44.5822 38.8631C44.4904 38.5067 44.8705 37.786 45.1772 37.7286C45.3414 37.7011 45.3457 37.7363 45.1949 37.8532C45.0753 37.9452 45.0269 38.1971 45.0831 38.4153C45.1573 38.7036 45.3198 38.7754 45.6865 38.681L45.8375 38.6421L46.0193 37.6362C45.7822 37.3939 45.8451 37.0259 46.1642 36.8341L47.0086 32.1627C46.9731 32.1874 46.9334 32.2056 46.8914 32.2164C46.7366 32.2563 46.5348 32.212 46.4431 32.1132C46.3515 32.0144 46.45 31.8935 46.6663 31.8378C46.8289 31.796 46.9819 31.8097 47.0618 31.8658L47.1435 31.4143L45.9634 31.7182C45.9621 31.7462 45.9576 31.774 45.9499 31.801C45.864 32.1036 45.7154 32.1305 45.2319 31.9065L42.6522 32.5708L41.4734 40.6927L41.3915 40.7138L40.9484 40.1458C40.7106 40.4546 40.4904 40.5167 40.4227 40.2536C40.3931 40.1388 40.4979 40.0157 40.6585 39.9743C40.6998 39.9635 40.7392 39.9464 40.7751 39.9234L39.6449 38.4731C39.6365 38.4752 39.6289 38.4772 39.6212 38.4792C39.4452 38.5245 39.3614 38.4748 39.4372 38.3611C39.4535 38.3367 39.4724 38.307 39.4906 38.274L36.3134 34.2009L32.6284 35.1498C32.6606 35.2404 32.6025 35.4147 32.4516 35.6715C32.3862 35.7831 32.3149 35.8912 32.2382 35.9955L34.7868 39.1011C34.8231 39.1227 34.8619 39.1491 34.8995 39.1703L35.5157 39.5625L35.3628 39.8037L36.4309 41.1053C36.4884 41.1434 36.5331 41.1977 36.5591 41.2612L37.477 42.3802C37.4696 42.3512 37.457 42.3181 37.4479 42.2828C37.4108 42.1389 37.529 41.8583 37.7082 41.6588C38.0256 41.3013 38.033 41.3061 37.85 41.8967C37.7296 42.2903 37.6472 42.487 37.5793 42.5045L39.7405 45.1389L37.3323 58.4853L41.8307 57.3271L43.1005 48.3739L43.1849 48.3522L48.8249 55.5261L53.4046 54.3469L50.5151 50.8212ZM44.8377 32.3793C44.9376 32.1948 45.3788 32.3604 45.441 32.602C45.4551 32.6511 45.4492 32.7038 45.4244 32.7489C45.3997 32.794 45.3581 32.8279 45.3086 32.8432C45.0837 32.9025 44.738 32.5617 44.8377 32.3793ZM43.1515 36.9164C43.2225 36.8981 43.4507 36.9866 43.6542 37.1172C43.8578 37.2477 43.9378 37.3731 43.838 37.3988C43.7382 37.4245 43.5125 37.3353 43.3368 37.1989C43.1611 37.0626 43.0753 36.9333 43.1508 36.9139L43.1515 36.9164ZM33.8206 37.7814C33.7137 37.8089 33.5813 37.6473 33.5223 37.4183C33.4634 37.1894 33.5008 36.9847 33.6083 36.957C33.7158 36.9293 33.8477 37.0917 33.9063 37.3195C33.965 37.5472 33.9281 37.7511 33.8212 37.7786L33.8206 37.7814ZM33.8188 36.6775C33.4862 36.7665 32.9865 36.3019 32.9548 35.8688C32.9174 35.3498 33.3456 35.4756 33.4107 35.9989C33.4381 36.2246 33.5921 36.4567 33.7476 36.5122C33.9338 36.5806 33.9596 36.6412 33.8188 36.6775ZM36.4643 39.4649C35.9419 39.0445 35.9227 38.999 36.0675 38.5198C36.1554 38.2281 36.1968 38.2457 36.2973 38.6174C36.3833 38.9356 36.4946 39.0179 36.6768 38.8802C36.859 38.7424 36.9718 38.8304 37.0726 39.2222C37.2401 39.8779 37.0676 39.9472 36.4647 39.4662L36.4643 39.4649ZM38.7566 54.8154C38.4727 54.635 38.4924 54.3723 38.7938 54.2947C38.8744 54.2774 38.9583 54.2924 39.0272 54.3363C39.0961 54.3803 39.1443 54.4496 39.1613 54.529C39.2447 54.8532 39.0384 55.0005 38.7575 54.8186L38.7566 54.8154ZM40.1786 57.6717C40.1268 57.6835 40.0725 57.6749 40.0273 57.6477C39.9821 57.6206 39.9495 57.577 39.9364 57.5263C39.9268 57.4604 39.9316 57.3931 39.9504 57.329C39.9692 57.2649 40.0016 57.2054 40.0454 57.1545C40.1313 57.0611 40.2429 57.1265 40.2876 57.3C40.3323 57.4734 40.2825 57.6484 40.1794 57.6749L40.1786 57.6717ZM39.966 56.846C39.9128 56.8573 39.8574 56.8475 39.8117 56.8187C39.766 56.79 39.7337 56.7446 39.7217 56.6923C39.7088 56.6422 39.7166 56.5888 39.7435 56.5441C39.7704 56.4993 39.8141 56.4668 39.865 56.4537C39.9159 56.4406 39.9699 56.4479 40.015 56.4742C40.0602 56.5004 40.0928 56.5433 40.1057 56.5935C40.1137 56.6192 40.1164 56.6462 40.1137 56.673C40.1111 56.6998 40.103 56.7258 40.0901 56.7496C40.0772 56.7734 40.0597 56.7944 40.0385 56.8115C40.0173 56.8286 39.993 56.8414 39.9668 56.8492L39.966 56.846ZM39.7704 46.4448C39.7184 46.2005 39.7499 46.1427 39.855 46.2885C39.95 46.4214 39.9855 46.6019 39.9404 46.6862C39.8952 46.7705 39.816 46.6644 39.7704 46.4448ZM41.1703 52.0988C41.078 52.2705 40.933 52.4255 40.8504 52.4468C40.6309 52.5033 40.5652 52.1342 40.7553 51.9211C40.8439 51.8223 40.8686 51.5657 40.8117 51.345C40.7549 51.1242 40.7972 50.9229 40.9009 50.8962C41.1702 50.8289 41.3731 51.7311 41.1708 52.1007L41.1703 52.0988ZM37.3672 36.8467C37.1411 36.8935 37.0817 36.859 37.2183 36.7505C37.3438 36.655 37.5112 36.6186 37.5929 36.6736C37.6746 36.7285 37.5732 36.8064 37.3677 36.8486L37.3672 36.8467ZM39.4654 42.9175C39.412 42.926 39.3574 42.9145 39.3124 42.8854C39.2673 42.8563 39.235 42.8115 39.2217 42.7599C39.2084 42.7083 39.2151 42.6535 39.2405 42.6063C39.2659 42.559 39.3081 42.5226 39.359 42.5043C39.4133 42.4934 39.4697 42.5035 39.5165 42.5324C39.5632 42.5613 39.5969 42.6069 39.6105 42.6598C39.6241 42.7127 39.6167 42.7689 39.5897 42.8168C39.5627 42.8647 39.5182 42.9007 39.4654 42.9175ZM38.9195 38.444C38.8062 38.4731 38.7442 38.3889 38.7814 38.2575C38.8186 38.1262 38.8854 38.0122 38.9321 38.0001C38.9788 37.9881 39.0418 38.0735 39.07 38.1832C39.0774 38.2103 39.0793 38.2385 39.0756 38.2663C39.0719 38.2942 39.0626 38.321 39.0483 38.3453C39.034 38.3697 39.0149 38.391 38.9923 38.4081C38.9696 38.4251 38.9438 38.4376 38.9163 38.4448L38.9195 38.444ZM40.6556 42.8491C40.7786 42.7145 40.7907 42.515 40.6859 42.4102C40.5811 42.3053 40.5769 42.1907 40.6767 42.165C40.9033 42.1067 41.2504 42.5856 41.1344 42.7951C41.0876 42.8784 40.9109 42.9872 40.7437 43.0242C40.4925 43.0848 40.4743 43.0538 40.6524 42.8499L40.6556 42.8491ZM42.0944 45.5376C42.0589 45.6645 41.9928 45.7817 41.9551 45.7914C41.9173 45.8012 41.8029 45.7304 41.7105 45.6365C41.618 45.5426 41.6788 45.4234 41.849 45.3795C42.0193 45.3357 42.127 45.4068 42.0912 45.5384L42.0944 45.5376ZM41.8767 38.4641C42.1346 37.9975 42.8193 37.577 42.8892 37.8482C42.9203 37.9693 42.8174 38.0994 42.6657 38.1385C42.514 38.1776 42.35 38.3543 42.3049 38.5287C42.2597 38.7031 42.1058 38.8342 41.9613 38.8189C41.7489 38.7997 41.7289 38.7221 41.8732 38.4636L41.8767 38.4641ZM43.8496 43.982C43.879 44.0961 43.8653 44.1992 43.8185 44.2112C43.7718 44.2233 43.6556 44.1536 43.561 44.0563C43.4663 43.9589 43.4795 43.8593 43.5928 43.8301C43.6475 43.817 43.705 43.8255 43.7531 43.8539C43.8011 43.8823 43.8358 43.9283 43.8496 43.982ZM42.4554 44.5622C42.3622 44.4652 42.377 44.3611 42.4871 44.3328C42.7757 44.2585 42.5979 43.7029 42.2791 43.668C42.1309 43.6517 42.0623 43.5415 42.1214 43.4214C42.2661 43.138 42.7153 43.5947 42.8698 44.1811C42.9959 44.6578 42.7613 44.8756 42.4559 44.5641L42.4554 44.5622ZM43.2748 46.7693C43.2696 46.5264 43.3924 46.3778 43.5691 46.4043C43.7459 46.4307 43.9756 46.2922 44.1016 46.1057C44.2873 45.8252 44.401 45.8107 44.7381 46.0279C45.1194 46.266 45.1147 46.2955 44.638 46.4183C44.3036 46.5152 43.987 46.6648 43.7005 46.8614C43.337 47.1407 43.2782 47.1242 43.2753 46.7711L43.2748 46.7693ZM45.5432 49.5072C45.3186 49.83 45.2942 49.8255 45.327 49.4626C45.3419 49.1878 45.3183 48.9125 45.2569 48.6446C45.1991 48.4201 45.2554 48.273 45.3763 48.3132C45.4972 48.3534 45.6453 48.5628 45.6983 48.7684C45.7512 48.974 45.6831 49.3084 45.5437 49.5091L45.5432 49.5072ZM47.2637 53.0272C46.9784 53.0112 46.831 52.8944 46.8795 52.7225C46.938 52.5178 47.1185 52.5164 47.54 52.7118C48.1371 52.9899 48.0695 53.0692 47.2641 53.0291L47.2637 53.0272ZM47.1727 50.8189C46.9942 50.8648 46.8201 50.7267 46.7582 50.4864C46.6992 50.2574 46.5649 50.0963 46.46 50.1233C46.4091 50.1364 46.3551 50.1291 46.31 50.1028C46.2648 50.0766 46.2322 50.0337 46.2193 49.9835C46.1936 49.8838 46.3575 49.802 46.5833 49.807C46.8091 49.8121 47.0172 49.889 47.0405 49.9792C47.1003 50.1437 47.182 50.2996 47.2833 50.4427C47.414 50.6377 47.3767 50.7684 47.1732 50.8208L47.1727 50.8189ZM46.9893 47.7903C46.8586 48.2605 46.3677 48.1723 46.2347 47.6557C46.1615 47.3712 46.0262 47.1585 45.9321 47.1827C45.838 47.2069 45.6676 47.0538 45.552 46.8407C45.3117 46.3874 45.3175 46.3859 46.0353 46.5313C46.468 46.6217 46.5839 46.7539 46.5945 47.1554C46.6 47.4762 46.6901 47.646 46.829 47.6103C46.9543 47.58 47.0263 47.661 46.9898 47.7922L46.9893 47.7903Z" fill="#F53636"/>
<path d="M58.7163 45.8605L58.6567 45.629C58.6431 45.6453 58.6296 45.6615 58.613 45.6792C58.4262 45.8841 58.4467 45.9238 58.7163 45.8605Z" fill="#F53636"/>
<path d="M64.4973 39.4771C64.6293 39.2454 64.9054 39.0478 65.1069 39.0383C65.1505 39.0325 65.1948 39.0398 65.2339 39.0594C65.7619 38.0968 65.9478 36.9822 65.7782 35.7325C65.7676 35.7387 65.7562 35.7437 65.7444 35.7472C65.6209 35.779 65.5776 35.6294 65.6439 35.3568C65.6619 35.2583 65.6657 35.1579 65.6551 35.0586C65.6358 34.9835 65.621 34.9073 65.6012 34.8304L65.4374 34.1945C65.4374 34.1945 65.4374 34.1945 65.4361 34.1895C65.2974 33.8627 65.2474 33.6684 65.2812 33.5877L65.1267 32.9878C64.3054 29.798 61.9997 28.3119 58.5004 28.646C58.5249 28.6989 58.5446 28.7539 58.5591 28.8104C58.6228 29.0577 58.6376 29.2664 58.5909 29.2784C58.5442 29.2905 58.4026 29.1144 58.2743 28.8838C58.238 28.8198 58.2094 28.7517 58.1894 28.681C57.5977 28.7559 57.0113 28.869 56.434 29.0193L50.1751 30.6309L52.6237 40.1406C52.637 40.1026 52.665 40.0712 52.7015 40.0533C52.9895 39.9792 53.195 40.2047 53.1525 40.5513C53.124 40.8169 52.9782 40.9554 52.837 40.9688L56.1027 53.652L58.5449 53.0232C58.6252 52.8344 58.7977 52.7462 58.9541 52.895C58.9593 52.901 58.9639 52.9074 58.9679 52.9143L60.4398 52.5353L58.8847 46.4955C58.7135 46.5941 58.442 46.5678 58.0764 46.4124C57.6408 46.2313 57.6336 46.1901 57.9442 45.7214C58.1223 45.4455 58.4032 45.2669 58.57 45.3161C58.5741 45.3172 58.5782 45.3187 58.5821 45.3204L57.9842 42.9984L59.9041 42.5041C60.0065 42.4777 60.107 42.4518 60.2063 42.4216C60.2114 42.4041 60.2242 42.4008 60.2454 42.4115C62.4089 41.8033 63.9632 40.859 64.8773 39.6201C64.2756 40.2142 64.0971 40.1519 64.4973 39.4771ZM64.2307 35.1873C64.3587 35.1543 64.4301 35.2435 64.385 35.3836C64.3398 35.5237 64.2621 35.654 64.209 35.6677C64.1559 35.6814 64.0843 35.5915 64.0528 35.4692C64.039 35.4088 64.05 35.3453 64.0833 35.2925C64.1166 35.2397 64.1696 35.2019 64.2307 35.1873ZM54.7952 43.5519C54.9175 43.5204 55.0524 43.6444 55.0998 43.8286C55.1473 44.0128 55.0893 44.1878 54.9671 44.2192C54.8448 44.2507 54.7092 44.1269 54.6615 43.9415C54.6137 43.756 54.6723 43.5835 54.7952 43.5519ZM55.9316 47.0588C55.8867 47.0708 55.8394 47.0693 55.7955 47.0546C55.7517 47.0399 55.7134 47.0126 55.6855 46.9761C55.6576 46.9397 55.6413 46.8959 55.6388 46.8502C55.6363 46.8044 55.6476 46.7589 55.6713 46.7194C55.6951 46.6798 55.7301 46.6481 55.772 46.6282C55.814 46.6083 55.8609 46.6011 55.9067 46.6075C55.9526 46.614 55.9954 46.6338 56.0297 46.6644C56.064 46.6951 56.0882 46.7352 56.0992 46.7796C56.1138 46.8383 56.1044 46.9004 56.073 46.9527C56.0417 47.0049 55.9909 47.043 55.9316 47.0588ZM56.2253 44.3432C56.0939 44.4773 55.8986 44.9722 55.7848 45.442C55.6711 45.9119 55.4716 46.3614 55.3394 46.4445C54.9705 46.6868 54.9198 46.0394 55.2673 45.5363C55.4872 45.1996 55.6708 44.8412 55.8149 44.467C55.9406 44.1307 56.1361 43.9095 56.25 43.9783C56.364 44.0472 56.3519 44.2097 56.2253 44.3432ZM57.6023 47.0994C57.558 47.1119 57.5109 47.1112 57.4671 47.0972C57.4234 47.0832 57.3849 47.0567 57.3566 47.021C57.3284 46.9852 57.3115 46.942 57.3082 46.8966C57.305 46.8512 57.3155 46.8059 57.3384 46.7662C57.3612 46.7266 57.3955 46.6944 57.4368 46.6739C57.478 46.6534 57.5245 46.6455 57.5702 46.651C57.6158 46.6566 57.6587 46.6755 57.6934 46.7052C57.728 46.735 57.7528 46.7743 57.7647 46.8182C57.7802 46.8765 57.7719 46.9386 57.7416 46.9912C57.7112 47.0438 57.6612 47.0827 57.6023 47.0994ZM56.8805 30.5468C56.9852 30.4419 57.1107 30.5104 57.1594 30.6997C57.2081 30.8889 57.1476 31.0726 57.0241 31.1044C56.9958 31.1122 56.9662 31.1143 56.9371 31.1108C56.9079 31.1072 56.8799 31.098 56.8544 31.0837C56.829 31.0694 56.8067 31.0502 56.7889 31.0273C56.771 31.0044 56.7579 30.9783 56.7504 30.9503C56.7406 30.8785 56.7471 30.8053 56.7694 30.7361C56.7917 30.6669 56.8292 30.6033 56.8793 30.5498L56.8805 30.5468ZM61.2086 35.7132C61.7082 37.6535 60.9966 38.7831 58.911 39.3201L57.1491 39.7738L55.3376 32.7386L55.9853 32.5719C55.9773 32.5001 55.9849 32.4275 56.0074 32.3586C56.0298 32.2898 56.0668 32.2263 56.1158 32.1724C56.2192 32.065 56.3259 32.0792 56.3577 32.2029C56.3747 32.2992 56.3602 32.3986 56.3162 32.4867L57.0956 32.286C59.1813 31.7489 60.3501 32.395 60.8497 34.3353L61.2086 35.7132ZM62.8948 38.8324C62.6359 38.887 62.5688 38.8491 62.7273 38.7329C62.8691 38.6292 63.0625 38.5881 63.1531 38.6428C63.2436 38.6975 63.1313 38.7863 62.8935 38.8354L62.8948 38.8324Z" fill="#F53636"/>
<path d="M71.1521 25.2306L69.7973 25.5794L69.6359 25.9015L69.5932 25.632L68.9276 25.8034C68.901 25.936 68.8644 26.0349 68.8279 26.0443C68.7914 26.0537 68.7423 25.9769 68.6985 25.8624L66.8176 26.3467L68.4389 32.6432L68.5604 32.7202L68.4881 32.8343L69.2908 35.9516C69.3471 36.0654 69.379 36.1895 69.3847 36.3162L70.1029 39.1056C70.1469 38.9691 70.2175 38.8561 70.2674 38.8433C70.3173 38.8304 70.3926 38.9213 70.4264 39.0525C70.4349 39.0834 70.4373 39.1157 70.4332 39.1476C70.4291 39.1794 70.4187 39.2102 70.4025 39.2382C70.3864 39.2661 70.3649 39.2907 70.3392 39.3105C70.3135 39.3303 70.2841 39.3449 70.2527 39.3535C70.2248 39.3615 70.1953 39.3622 70.1672 39.3554L70.3214 39.954C70.549 40.1039 70.7403 40.2718 70.759 40.3444C70.7952 40.4851 70.6412 40.5496 70.4687 40.5261L72.7451 49.3672L77.0797 48.2511L71.1521 25.2306ZM69.1978 31.5223C69.2989 31.1862 69.347 31.2061 69.461 31.6354C69.5601 32.002 69.6883 32.0968 69.8986 31.9384C70.1089 31.78 70.2385 31.8805 70.355 32.3328C70.5489 33.0859 70.3498 33.1661 69.6551 32.6118C69.0526 32.1273 69.0305 32.0758 69.1978 31.5223ZM69.2739 34.9188C69.293 34.7041 69.3993 34.5072 69.5081 34.4792C69.6169 34.4512 69.748 34.5869 69.7987 34.7837C69.8494 34.9805 69.7414 35.1785 69.5654 35.2238C69.3657 35.2752 69.2527 35.1543 69.2739 34.9188ZM71.0054 41.312C70.903 41.4258 70.7947 41.408 70.7608 41.2762C70.7477 41.1988 70.7519 41.1195 70.773 41.0436C70.7941 40.9678 70.8317 40.8973 70.8831 40.8371C70.9855 40.7233 71.0932 40.7413 71.1262 40.8693C71.1401 40.9468 71.1368 41.0265 71.1164 41.1029C71.096 41.1792 71.059 41.2504 71.008 41.3114L71.0054 41.312ZM71.1851 39.9428C70.8199 39.9023 70.6125 39.2615 70.9383 39.1777C71.0663 39.1447 71.2695 39.2659 71.393 39.4487C71.6641 39.847 71.6026 39.9873 71.1877 39.9421L71.1851 39.9428ZM71.0926 37.5957C70.8338 37.6508 70.7659 37.6125 70.9234 37.4872C71.0679 37.3753 71.2617 37.3328 71.3546 37.397C71.4476 37.4612 71.3336 37.5457 71.0951 37.595L71.0926 37.5957ZM70.7859 35.8586C70.7431 35.6927 70.8791 35.3698 71.0858 35.139C71.4571 34.7259 71.4594 34.7348 71.2487 35.4139C71.0125 36.1903 70.9015 36.297 70.7879 35.856L70.7859 35.8586ZM71.8085 38.9025C71.7987 38.8476 71.8113 38.7909 71.8435 38.7449C71.8757 38.6988 71.925 38.667 71.9805 38.6564C72.1028 38.6249 72.2435 38.7501 72.2913 38.9356C72.339 39.121 72.5155 39.2948 72.6837 39.3201C72.852 39.3454 72.8903 39.4015 72.7666 39.4488C72.5021 39.5371 71.884 39.185 71.8105 38.8999L71.8085 38.9025ZM75.0791 47.1735C74.9706 47.3722 74.8057 47.5506 74.7052 47.5764C74.4524 47.6415 74.3767 47.2151 74.5948 46.9699C74.6973 46.8568 74.7248 46.5605 74.6593 46.3063C74.5939 46.0521 74.6425 45.8196 74.7647 45.7881C75.0786 45.7087 75.3124 46.7489 75.0791 47.1735ZM73.4691 40.6555C73.4088 40.3737 73.4475 40.3066 73.5672 40.4775C73.6751 40.6314 73.7184 40.8422 73.6655 40.9358C73.6125 41.0295 73.5198 40.9081 73.467 40.6607L73.4691 40.6555ZM70.6982 29.5923C70.4391 29.6462 70.3695 29.6063 70.5274 29.4829C70.6723 29.3723 70.8644 29.3289 70.9588 29.3933C71.0532 29.4578 70.9326 29.546 70.6953 29.5944L70.6982 29.5923ZM73.1137 36.5882C73.052 36.5985 72.9888 36.5856 72.9366 36.552C72.8843 36.5185 72.8468 36.4668 72.8314 36.407C72.8161 36.3473 72.8239 36.2839 72.8535 36.2293C72.883 36.1747 72.9321 36.1329 72.9911 36.112C73.0528 36.1018 73.1161 36.1147 73.1683 36.1482C73.2205 36.1818 73.258 36.2335 73.2734 36.2932C73.2888 36.353 73.2809 36.4164 73.2514 36.471C73.2218 36.5256 73.1727 36.5674 73.1137 36.5882ZM72.4843 31.4327C72.3563 31.4656 72.2828 31.3682 72.325 31.2168C72.3672 31.0653 72.4449 30.935 72.4987 30.9212C72.5524 30.9073 72.6255 31.0056 72.6578 31.1311C72.6666 31.1624 72.669 31.1951 72.6648 31.2274C72.6606 31.2597 72.65 31.2909 72.6335 31.3192C72.6171 31.3475 72.5951 31.3723 72.5689 31.3921C72.5426 31.412 72.5127 31.4266 72.4808 31.4349L72.4843 31.4327Z" fill="#F53636"/>
<path d="M82.0696 22.4191L81.9141 22.4592C81.8811 22.5633 81.8386 22.6643 81.787 22.7609C81.6267 23.0712 81.4748 23.2711 81.4506 23.2114C81.3677 23.0034 81.2949 22.8109 81.2333 22.6324L75.8159 24.0273L78.4146 34.1199L78.4594 34.1534C79.0452 34.5972 79.2103 34.8594 79.075 35.1074C78.9698 35.3033 78.8526 35.3039 78.6657 35.0951L79.6927 39.0835C79.7432 39.049 79.7958 39.0119 79.8472 38.9731C80.0142 38.8481 80.2603 38.9051 80.3915 39.102C80.6011 39.4072 80.1974 39.6733 79.8309 39.6203L80.7265 43.0985C80.7825 43.1108 80.8354 43.1341 80.882 43.1669C80.9287 43.1997 80.9681 43.2414 80.9982 43.2895C81.2769 43.6987 81.2438 43.8484 80.8933 43.7463L81.7425 47.044L86.077 45.928L84.2332 38.7673C84.1933 38.8008 84.1464 38.8251 84.0959 38.8383C83.8898 38.8913 83.7295 38.788 83.7405 38.611C83.7541 38.3324 83.9088 38.1459 84.0638 38.1094L83.7893 37.0433C83.7823 37.0956 83.7745 37.1528 83.7658 37.2169C83.7093 37.5805 83.5565 37.907 83.4228 37.9415C83.2705 37.9807 83.254 37.8666 83.3746 37.6405C83.5278 37.3663 83.4635 37.2302 83.1066 37.0792C82.6987 36.8971 82.7157 36.8544 83.2539 36.7158C83.467 36.6609 83.6053 36.6334 83.6902 36.6532L83.5733 36.199L84.3976 35.9868C84.2811 35.8338 84.1967 35.6679 84.2017 35.5442C84.2145 35.329 84.3837 35.3843 84.663 35.7086C84.7142 35.7667 84.7613 35.8252 84.8039 35.8821L85.5764 35.6832L90.3706 42.8241C90.3842 42.5873 90.4541 42.3566 90.5746 42.1508L90.9387 41.4846L90.8852 42.3634C90.8394 43.0867 90.8009 43.3079 90.6417 43.2278L91.5176 44.5331L93.6058 43.9954C93.5737 43.96 93.5506 43.9176 93.5384 43.8715C93.5006 43.7245 93.5916 43.6487 93.7431 43.6964C93.8771 43.7426 94.0019 43.8242 94.0384 43.884L96.0972 43.3539L91.7141 37.1282C91.6229 37.1188 91.5579 37.0279 91.5497 36.8955L89.4301 33.8845C90.1376 33.3089 90.6584 32.6441 90.992 31.899C90.8789 31.7856 90.8856 31.4859 91.0514 31.3026C91.3692 30.947 91.1758 30.6753 90.5674 30.6396L89.9974 30.6095L90.4544 30.2006C90.7061 29.975 90.8865 29.6978 90.8583 29.5881C90.8328 29.489 91.084 29.577 91.4299 29.7832C91.4244 29.1904 91.3446 28.6009 91.1923 28.0284L90.7692 26.3852C89.791 22.6048 86.7305 21.219 82.0696 22.4191ZM80.2778 34.8468C80.3256 34.7673 80.4684 34.8583 80.5987 35.0514C80.8691 35.4526 80.7563 35.563 80.419 35.2228C80.2973 35.0974 80.2347 34.9312 80.2778 34.8468ZM77.8186 29.5019C77.6823 29.537 77.6073 29.4339 77.6512 29.276C77.6952 29.118 77.7782 28.9742 77.8346 28.9597C77.8909 28.9452 77.9665 29.0482 78.0019 29.1857C78.0108 29.2182 78.0132 29.2521 78.0088 29.2856C78.0044 29.3191 77.9933 29.3515 77.9763 29.3808C77.9593 29.4102 77.9366 29.436 77.9095 29.4568C77.8825 29.4776 77.8516 29.4929 77.8186 29.5019ZM78.751 31.1303C78.6836 31.1415 78.6145 31.1265 78.5584 31.0884C78.5022 31.0503 78.4634 30.9921 78.45 30.926C78.4122 30.779 78.507 30.7021 78.6544 30.755C78.8018 30.8079 78.9443 30.8976 78.9602 30.9594C78.9761 31.0212 78.8809 31.0969 78.751 31.1303ZM82.9623 44.3503C82.8536 44.8134 82.8171 44.8148 82.5324 44.3399C82.1619 43.7223 82.2176 43.5466 82.7128 43.715C82.9794 43.8071 83.0508 43.9838 82.9623 44.3503ZM79.7553 31.0419C79.3482 30.725 79.233 30.0417 79.4484 29.2168C79.5732 28.7232 79.6456 28.8297 79.9394 29.9547C80.3134 31.3677 80.3011 31.4576 79.7578 31.0412L79.7553 31.0419ZM81.9622 37.7815C81.93 37.7886 81.8968 37.7893 81.8645 37.7836C81.8322 37.7779 81.8013 37.766 81.7738 37.7484C81.7462 37.7309 81.7225 37.7081 81.704 37.6814C81.6855 37.6547 81.6725 37.6246 81.6659 37.5928C81.6548 37.5617 81.6503 37.5286 81.6529 37.4956C81.6554 37.4626 81.6649 37.4305 81.6807 37.4012C81.6965 37.3719 81.7183 37.3462 81.7447 37.3257C81.771 37.3051 81.8014 37.2902 81.8339 37.2818C81.8663 37.2735 81.9002 37.2719 81.9332 37.2771C81.9662 37.2824 81.9977 37.2944 82.0257 37.3124C82.0536 37.3304 82.0775 37.3539 82.0956 37.3816C82.1138 37.4092 82.1259 37.4404 82.1312 37.473C82.1408 37.5039 82.1441 37.5363 82.1409 37.5685C82.1377 37.6008 82.1281 37.6321 82.1126 37.6607C82.0972 37.6893 82.0761 37.7146 82.0507 37.7353C82.0254 37.7559 81.9961 37.7714 81.9648 37.7808L81.9622 37.7815ZM81.3543 31.5301C81.2263 31.5631 81.074 31.4193 81.0207 31.2125C80.9674 31.0056 81.0298 30.8106 81.1604 30.777C81.2909 30.7433 81.4367 30.8881 81.4892 31.0918C81.5416 31.2956 81.4868 31.496 81.3569 31.5295L81.3543 31.5301ZM92.3816 38.4381C92.5316 38.4903 92.6852 38.6391 92.7187 38.769C92.7348 38.8312 92.7255 38.8973 92.6928 38.9531C92.66 39.0088 92.6064 39.0498 92.5436 39.067C92.4156 39.1 92.2642 38.952 92.2085 38.7356C92.1528 38.5192 92.2314 38.3846 92.3842 38.4374L92.3816 38.4381ZM87.8364 24.4963C87.843 24.3366 87.9495 24.18 88.0711 24.1487C88.1926 24.1174 88.3666 24.2018 88.4502 24.3383C88.5338 24.4748 88.428 24.6312 88.2098 24.6874C87.9915 24.7436 87.8343 24.6576 87.8422 24.4949L87.8364 24.4963ZM85.6729 25.0756C85.7958 25.044 85.9884 25.1107 86.1036 25.2297C86.2189 25.3487 86.1455 25.488 85.9478 25.5389C85.75 25.5898 85.5522 25.5183 85.5168 25.3808C85.5064 25.3503 85.5024 25.318 85.5049 25.2858C85.5075 25.2536 85.5166 25.2222 85.5317 25.1935C85.5467 25.1647 85.5675 25.1393 85.5927 25.1185C85.6179 25.0978 85.647 25.0823 85.6784 25.0729L85.6729 25.0756ZM82.9275 23.5434C83.0437 23.2209 83.2984 23.0121 83.5312 23.047C84.0547 23.1187 84.1731 23.5919 83.6989 23.7141C83.5011 23.765 83.4308 23.9001 83.5456 24.0172C83.779 24.2584 83.7713 24.2604 83.1644 24.1638C82.7851 24.1061 82.7558 24.0215 82.9275 23.5434ZM83.8504 24.7263C83.8628 24.8062 83.8575 24.8879 83.8348 24.9658C83.8121 25.0436 83.7725 25.1158 83.7188 25.1772C83.613 25.2966 83.4758 25.2196 83.4201 25.0033C83.3644 24.7869 83.428 24.5835 83.5573 24.5502C83.5885 24.5424 83.6209 24.5407 83.6527 24.5453C83.6844 24.5499 83.7149 24.5607 83.7423 24.577C83.7698 24.5933 83.7936 24.6149 83.8125 24.6404C83.8314 24.666 83.8449 24.695 83.8523 24.7258L83.8504 24.7263ZM81.8154 23.6636C81.9338 23.6331 82.1271 23.7051 82.2423 23.8187C82.3575 23.9323 82.2868 24.0763 82.089 24.1272C81.8913 24.1781 81.6934 24.1067 81.658 23.9692C81.6387 23.908 81.6446 23.8416 81.6744 23.7843C81.7042 23.7271 81.7556 23.6835 81.8174 23.6631L81.8154 23.6636ZM85.1349 35.3866C84.8675 35.2968 84.8507 35.1867 85.0511 34.8863C85.2515 34.5858 85.3624 34.5767 85.5405 34.8443C85.824 35.259 85.6089 35.5471 85.1367 35.3855L85.1349 35.3866ZM86.9726 37.2232C86.9176 37.3248 86.8226 37.1945 86.7661 36.9246C86.7022 36.6316 86.7398 36.5574 86.8681 36.7376C86.9806 36.8989 87.0264 37.1165 86.9725 37.2225L86.9726 37.2232ZM85.9434 32.7968L85.5778 33.513L85.5522 32.7192C85.545 32.479 85.5425 32.2919 85.5484 32.1478C85.212 32.3095 84.8597 32.4361 84.4972 32.5255L82.7392 32.9781L80.9775 26.1366L82.7355 25.684C83.4395 25.5027 84.0344 25.4571 84.5378 25.5488C84.6208 25.2779 84.7266 25.0142 84.8541 24.7605C85.1934 24.1384 85.2024 24.1361 85.3271 24.6205C85.3965 24.8899 85.2732 25.2855 85.0529 25.4982C85.0054 25.5448 84.963 25.5963 84.9267 25.6518C85.697 25.9351 86.2031 26.6206 86.4891 27.7314L86.794 28.9154C87.1453 30.2798 86.8966 31.2431 85.9937 31.8791C86.2145 32.0369 86.1994 32.291 85.9433 32.7961L85.9434 32.7968ZM89.4475 38.7941C89.369 39.1836 89.3665 39.6322 89.442 39.7957C89.5175 39.9592 89.4195 40.1378 89.2205 40.189C88.6861 40.3266 88.6669 39.8701 89.1602 38.9266C89.5928 38.0915 89.596 38.0906 89.4475 38.7941ZM86.5422 26.4506C86.4924 26.4669 86.4389 26.4681 86.3887 26.454C86.3385 26.4399 86.2938 26.4112 86.2605 26.3717C86.2271 26.3321 86.2067 26.2834 86.2018 26.232C86.197 26.1806 86.2079 26.1288 86.2331 26.0834C86.2584 26.038 86.2969 26.0011 86.3435 25.9774C86.3902 25.9537 86.4429 25.9444 86.4948 25.9506C86.5467 25.9568 86.5954 25.9783 86.6345 26.0123C86.6737 26.0463 86.7015 26.0913 86.7143 26.1412C86.7329 26.2039 86.7256 26.2714 86.6941 26.3291C86.6626 26.3868 86.6094 26.4301 86.546 26.4496L86.5422 26.4506ZM91.0944 40.2392C91.2224 40.2063 91.3489 40.2658 91.3709 40.3698C91.3929 40.4738 91.3603 40.7552 91.288 40.9911C91.1829 41.3437 91.1282 41.3194 91.0101 40.8609C90.9304 40.5512 90.9676 40.2718 91.0982 40.2382L91.0944 40.2392ZM87.6193 28.3121C87.3754 28.3749 87.2572 28.2628 87.2845 27.9766C87.3069 27.754 87.3003 27.5296 87.2648 27.3091C87.2571 27.2787 87.2557 27.2472 87.2605 27.2162C87.2653 27.1852 87.2763 27.1555 87.2928 27.1286C87.3093 27.1018 87.331 27.0784 87.3567 27.0599C87.3824 27.0413 87.4115 27.028 87.4423 27.0205C87.5703 26.9876 87.7475 27.2413 87.8357 27.5838C87.9466 27.9985 87.8714 28.2472 87.6231 28.3111L87.6193 28.3121ZM88.5774 25.609C88.1484 26.3282 87.8238 26.5517 87.7303 26.1884C87.6367 25.825 88.3436 24.8601 88.6739 24.8894C88.8752 24.9102 88.8413 25.1577 88.5774 25.609ZM90.2424 28.1714C90.1144 28.2044 89.9526 28.0079 89.8809 27.7298C89.8093 27.4516 89.8544 27.2026 89.9843 27.1691C90.1142 27.1357 90.2749 27.3331 90.3462 27.61C90.4175 27.8869 90.371 28.1383 90.2405 28.1719L90.2424 28.1714ZM89.1857 25.8513C89.1405 25.2199 89.6604 25.3732 89.7396 26.0093C89.7727 26.2839 89.9598 26.5653 90.1518 26.6323C90.3777 26.7147 90.4058 26.7841 90.2356 26.8333C89.8337 26.9422 89.226 26.379 89.1857 25.8513Z" fill="#F53636"/>
<path d="M110.596 36.1836L105.646 37.4583C105.663 37.4653 105.679 37.4739 105.695 37.4841C105.873 37.5975 105.823 37.7449 105.548 37.9019C105.319 38.0382 105.102 38.0565 105.074 37.9492C105.059 37.8835 105.061 37.8148 105.08 37.7497C105.099 37.6847 105.134 37.6254 105.183 37.5775L102.746 38.205L100.985 31.3648L102.545 30.963C102.584 30.8802 102.63 30.8181 102.662 30.8097C102.695 30.8013 102.743 30.8394 102.778 30.9029L103.456 30.7285C103.448 30.7008 103.441 30.6724 103.434 30.6434C103.366 30.3797 103.423 30.3355 103.651 30.4817C103.715 30.5232 103.771 30.5752 103.817 30.6354L107.325 29.7321L106.495 26.5087L101.202 27.8719C101.185 27.9196 101.165 27.966 101.141 28.0105C100.989 28.2912 100.955 28.2751 100.983 27.928L100.155 28.1414L99.1946 24.4129C98.8795 24.5727 98.7304 24.3515 98.6371 23.7002C98.572 23.2354 98.4375 22.8772 98.3415 22.9019C98.2455 22.9266 98.1161 22.7582 98.0568 22.5279C97.9976 22.2977 97.7971 22.0069 97.6095 21.8878C97.3496 21.7213 97.3173 21.5958 97.4648 21.3258C97.6122 21.0557 97.6726 21.0355 97.7297 21.2575C97.769 21.4102 98.0503 21.477 98.3511 21.3995C98.6378 21.3257 98.8545 21.3695 98.949 21.5113L102.692 20.5476C102.359 20.3776 102.401 20.3568 102.895 20.3687C103.027 20.3703 103.158 20.3787 103.289 20.3938L106.329 19.611L105.499 16.3857L93.3136 19.5233L93.9251 21.8982C94.0236 21.8089 94.1371 21.8759 94.1847 22.0607C94.2323 22.2455 94.1958 22.4776 94.1051 22.5971L95.2074 26.8782C95.2228 26.6463 95.2577 26.4348 95.3026 26.3412C95.3722 26.2009 95.4306 26.3083 95.4325 26.5808C95.4377 26.866 95.6401 27.2094 95.9052 27.3779C96.5254 27.7724 96.4502 28.0897 95.7675 27.9588C95.6591 27.9417 95.5545 27.9066 95.4582 27.8548L96.0092 29.9945C96.01 29.8597 96.0639 29.751 96.1522 29.7283C96.2667 29.6988 96.3472 29.8496 96.3281 30.059C96.309 30.2684 96.2552 30.4571 96.2047 30.4701C96.1771 30.4772 96.1374 30.4262 96.099 30.3433L97.0496 34.0353C97.1803 34.0393 97.2887 34.1183 97.3311 34.283C97.3571 34.3839 97.3036 34.51 97.2018 34.6263L98.1879 38.4558C98.2463 38.3063 98.348 38.1846 98.4587 38.156C98.9956 38.0178 99.0863 38.4148 98.6703 39.0681C98.583 39.204 98.5043 39.3191 98.4344 39.4133L99.2405 42.5439L104.777 41.1184C104.73 41.052 104.704 40.9739 104.701 40.893C104.657 40.2756 105.152 40.0633 105.299 40.6322C105.332 40.7468 105.332 40.8683 105.3 40.9836L108.692 40.1102C108.678 40.0566 108.663 39.9973 108.642 39.9314C108.512 39.4268 108.539 39.2927 108.767 39.4379C108.971 39.5637 109.03 39.7414 108.973 40.038L111.427 39.4061L110.596 36.1836ZM104.451 29.8468C105.116 30.2384 105.09 30.27 104.283 30.0857C103.974 30.0146 103.7 29.8685 103.672 29.7587C103.591 29.4446 103.81 29.4689 104.451 29.8468ZM102.765 29.0285C102.879 28.999 103.061 29.068 103.168 29.1728C103.276 29.2776 103.207 29.417 103.022 29.4648C102.836 29.5126 102.65 29.4454 102.617 29.3148C102.599 29.2577 102.605 29.196 102.632 29.1427C102.66 29.0893 102.707 29.0484 102.765 29.0285ZM98.1358 35.4815C98.0136 35.513 97.8266 35.4521 97.7188 35.3407C97.6109 35.2292 97.6212 35.1129 97.7422 35.0818C97.8631 35.0506 98.0496 35.1176 98.1584 35.2275C98.2672 35.3373 98.2593 35.4497 98.1371 35.4812L98.1358 35.4815ZM97.9127 23.81C97.9689 24.0283 97.9345 24.2975 97.8357 24.4096C97.6069 24.663 97.5274 24.3545 97.6849 23.8236C97.793 23.4696 97.8229 23.4693 97.914 23.8097L97.9127 23.81ZM96.989 22.0038C97.1536 22.1632 97.3068 22.374 97.3318 22.4711C97.4219 22.7943 96.9301 22.7663 96.7039 22.4364C96.3989 21.9856 96.6312 21.6399 96.9903 22.0035L96.989 22.0038ZM97.0482 24.9871C97.1097 24.9751 97.1734 24.9873 97.2256 25.0211C97.2778 25.0549 97.3144 25.1077 97.3275 25.1681C97.3367 25.1972 97.3398 25.2279 97.3366 25.2583C97.3334 25.2887 97.3239 25.3182 97.3088 25.345C97.2937 25.3717 97.2733 25.3952 97.2487 25.414C97.2242 25.4328 97.196 25.4464 97.1661 25.4542C97.1361 25.4619 97.1048 25.4635 97.0743 25.4589C97.0437 25.4543 97.0144 25.4436 96.9883 25.4275C96.9621 25.4113 96.9396 25.3901 96.9221 25.365C96.9046 25.3399 96.8925 25.3115 96.8865 25.2816C96.8688 25.2214 96.876 25.1566 96.9066 25.1014C96.9371 25.0461 96.9885 25.0049 97.0495 24.9867L97.0482 24.9871ZM97.5928 27.1021C97.6396 27.0867 97.69 27.0854 97.7374 27.0986C97.7848 27.1118 97.827 27.1387 97.8585 27.1759C97.89 27.2131 97.9095 27.2588 97.9143 27.3073C97.9191 27.3557 97.9091 27.4045 97.8855 27.4474C97.862 27.4904 97.826 27.5254 97.7822 27.548C97.7383 27.5707 97.6887 27.5798 97.6398 27.5744C97.5908 27.5689 97.5448 27.549 97.5076 27.5173C97.4704 27.4856 97.4437 27.4436 97.4311 27.3966C97.4223 27.3668 97.4195 27.3356 97.4229 27.3046C97.4263 27.2737 97.4358 27.2437 97.4509 27.2163C97.4661 27.1889 97.4865 27.1647 97.511 27.145C97.5356 27.1254 97.5638 27.1107 97.594 27.1018L97.5928 27.1021ZM97.0632 29.9961C97.0615 29.221 97.0884 29.161 97.4335 29.1946C97.6079 29.2068 97.5903 29.475 97.3864 29.921L97.0644 30.6234L97.0632 29.9961ZM100.162 40.724C100.098 40.7356 100.032 40.7221 99.9787 40.6864C99.9252 40.6507 99.888 40.5955 99.8753 40.5328C99.8397 40.3947 99.9289 40.3226 100.071 40.3714C100.213 40.4202 100.338 40.5078 100.354 40.5677C100.369 40.6276 100.284 40.6927 100.163 40.7237L100.162 40.724ZM98.8057 35.4408C98.5749 35.2628 98.5219 35.1339 98.671 35.0955C98.799 35.0625 98.9959 35.1302 99.1139 35.2465C99.4569 35.5953 99.2083 35.7535 98.807 35.4405L98.8057 35.4408ZM98.4716 33.0833C98.5605 33.8312 98.1619 33.8679 97.9718 33.1299C97.8843 32.7899 97.9289 32.5659 98.0774 32.6178C98.4398 32.7397 98.2372 32.1119 97.8293 31.8503C97.5651 31.6856 97.5492 31.531 97.76 31.1492C98.0047 30.6947 98.0424 30.6904 98.2959 31.073C98.4485 31.3028 98.7354 31.5424 98.935 31.61C99.2272 31.7056 99.2134 31.8114 98.857 32.1366C98.6078 32.3588 98.4353 32.7859 98.4703 33.0836L98.4716 33.0833ZM101.368 41.4176C101.188 41.4639 101.031 41.2636 100.966 40.8937C100.908 40.5656 100.926 40.2792 101.007 40.2583C101.088 40.2373 101.267 40.4731 101.408 40.7798C101.58 41.1559 101.564 41.3659 101.365 41.4172L101.368 41.4176ZM101.078 38.7347C100.972 38.7619 100.79 38.6414 100.672 38.4639C100.554 38.2865 100.538 38.1224 100.645 38.0948C100.752 38.0673 100.933 38.1881 101.056 38.3651C101.179 38.542 101.178 38.709 101.075 38.7355L101.078 38.7347ZM98.7776 28.0487C98.7308 28.0642 98.6806 28.0654 98.6334 28.0522C98.5862 28.039 98.5441 28.0121 98.5128 27.975C98.4814 27.9378 98.4622 27.8921 98.4576 27.8438C98.4529 27.7955 98.4631 27.7469 98.4869 27.7042C98.5106 27.6615 98.5467 27.6268 98.5905 27.6045C98.6343 27.5822 98.6838 27.5734 98.7326 27.5793C98.7814 27.5851 98.8271 27.6053 98.8639 27.6372C98.9007 27.6692 98.9268 27.7114 98.9389 27.7583C98.9476 27.788 98.9503 27.8191 98.9467 27.8499C98.9431 27.8806 98.9334 27.9104 98.9181 27.9375C98.9028 27.9646 98.8822 27.9885 98.8575 28.0077C98.8328 28.027 98.8046 28.0412 98.7744 28.0496L98.7776 28.0487ZM99.464 28.3933C99.4145 28.3399 99.3873 28.27 99.3877 28.1974C99.3881 28.1248 99.4161 28.0548 99.4662 28.0013C99.5673 27.8905 99.6929 27.9597 99.7452 28.1628C99.8503 28.5763 99.7315 28.6714 99.4621 28.3937L99.464 28.3933ZM103.305 40.1676C103.258 40.1843 103.207 40.1866 103.159 40.1743C103.111 40.162 103.068 40.1355 103.035 40.0985C103.003 40.0614 102.982 40.0154 102.977 39.9665C102.971 39.9176 102.981 39.8681 103.004 39.8245C103.027 39.7808 103.064 39.7451 103.108 39.7219C103.152 39.6987 103.202 39.6892 103.251 39.6946C103.301 39.7 103.348 39.72 103.385 39.752C103.423 39.7841 103.45 39.8267 103.462 39.8742C103.472 39.9038 103.475 39.9349 103.472 39.9658C103.469 39.9967 103.459 40.0267 103.444 40.0541C103.429 40.0815 103.409 40.1057 103.385 40.1253C103.36 40.145 103.332 40.1596 103.302 40.1684L103.305 40.1676ZM108.833 38.8667C108.732 38.9773 108.61 38.9032 108.559 38.7039C108.507 38.5045 108.561 38.3119 108.682 38.2807C108.711 38.2736 108.741 38.2723 108.771 38.2768C108.801 38.2813 108.829 38.2915 108.855 38.307C108.88 38.3224 108.903 38.3426 108.92 38.3666C108.938 38.3905 108.95 38.4177 108.957 38.4466C108.968 38.5215 108.963 38.598 108.941 38.6707C108.919 38.7435 108.881 38.8107 108.83 38.8675L108.833 38.8667Z" fill="#F53636"/>
<path d="M124.496 35.574L124.5 35.573C126.847 34.1307 127.73 31.95 127.018 29.1853L125.233 22.253L124.771 22.5133L125.139 21.8878L124.813 20.623C124.795 20.7114 124.755 20.7941 124.696 20.8636C124.595 20.9744 124.488 20.957 124.455 20.829C124.442 20.7524 124.446 20.674 124.467 20.599C124.488 20.524 124.525 20.4542 124.576 20.3943C124.593 20.3688 124.618 20.3488 124.646 20.3368C124.675 20.3247 124.706 20.3212 124.737 20.3266L124.088 17.8059C123.113 14.0212 120.054 12.6378 115.393 13.8381L109.177 15.4385L115.105 38.4596L121.32 36.8592C122.524 36.5492 123.549 36.1393 124.394 35.6373C124.421 35.6066 124.457 35.5845 124.496 35.574ZM123.432 32.3397C123.553 32.3085 123.69 32.4409 123.74 32.6358C123.79 32.8307 123.735 33.0131 123.614 33.0442C123.493 33.0754 123.355 32.9434 123.305 32.7478C123.254 32.5523 123.31 32.3711 123.432 32.3397ZM111.485 16.3488C111.722 15.9938 111.763 16.0042 111.794 16.4039C111.81 16.6615 111.714 16.943 111.576 17.0405C111.22 17.2767 111.156 16.831 111.485 16.3488ZM113.047 30.2536C113.03 30.192 113.039 30.1261 113.071 30.0704C113.104 30.0148 113.157 29.9738 113.219 29.9565C113.343 29.9245 113.417 30.0205 113.376 30.1689C113.335 30.3173 113.258 30.4495 113.204 30.4636C113.149 30.4776 113.08 30.3804 113.047 30.2536ZM114.925 35.2814C114.883 35.4316 114.753 35.5785 114.632 35.6097C114.512 35.6408 114.443 35.5448 114.485 35.3947C114.527 35.2447 114.662 35.0998 114.784 35.0683C114.906 35.0368 114.968 35.1353 114.925 35.2814ZM115.505 34.8826C115.278 34.9409 115.163 34.836 115.188 34.5889C115.21 34.3593 115.097 34.2376 114.911 34.2855C114.823 34.3052 114.732 34.3048 114.645 34.2841C114.558 34.2634 114.476 34.2231 114.408 34.1663C114.293 34.0486 114.388 33.9883 114.648 34.0177C115.232 34.0837 115.74 34.3332 115.805 34.5861C115.832 34.7014 115.696 34.8314 115.503 34.8812L115.505 34.8826ZM115.109 30.9764C114.987 31.0079 114.848 30.8689 114.795 30.6658C114.743 30.4627 114.814 30.3374 114.957 30.3866C115.03 30.4127 115.096 30.4539 115.15 30.5076C115.205 30.5612 115.247 30.6259 115.274 30.6973C115.289 30.7559 115.28 30.8182 115.249 30.8706C115.218 30.923 115.167 30.9613 115.107 30.9769L115.109 30.9764ZM114.543 25.8605C114.273 25.9299 113.852 25.5616 113.958 25.3579C114.001 25.2863 114.199 25.3564 114.403 25.5124C114.631 25.6891 114.682 25.8248 114.538 25.8617L114.543 25.8605ZM118.548 35.6037C118.368 35.65 118.271 35.9688 118.323 36.3476C118.409 36.9618 118.39 36.9781 118.122 36.5614C117.804 36.0662 117.792 35.2972 118.104 35.2168C118.212 35.1891 118.26 35.0052 118.21 34.8109C118.19 34.7205 118.134 34.6417 118.056 34.5918C117.977 34.5418 117.881 34.5246 117.789 34.544C117.421 34.6387 117.326 34.4466 117.476 33.9318C117.556 33.6611 117.679 33.659 118.033 33.9142C118.749 34.4313 119.066 35.4704 118.543 35.6048L118.548 35.6037ZM122.422 33.6207C122.431 34.3966 122.143 34.5086 122.002 33.7802C121.907 33.2663 121.794 33.1536 121.511 33.2842C121.449 33.3153 121.38 33.3329 121.31 33.3359C120.996 33.4804 120.669 33.5951 120.333 33.6785L119.753 33.8278C119.815 33.8782 119.86 33.9461 119.882 34.0225C119.899 34.0786 119.893 34.1392 119.864 34.1909C119.836 34.2427 119.788 34.2815 119.732 34.2987C119.543 34.3472 119.286 34.1579 119.201 33.9706L118.611 34.1224L114.343 17.5454L116.06 17.1032C118.146 16.5662 119.315 17.2123 119.814 19.1526L122.625 30.0708C122.955 31.3494 122.758 32.2758 121.989 32.9124C122.224 33.0975 122.416 33.3701 122.418 33.6218L122.422 33.6207ZM123.937 34.4326C124.153 34.0794 124.331 33.7054 124.468 33.3165C124.589 32.9647 124.781 32.735 124.894 32.8086C125.008 32.8822 124.999 33.0507 124.875 33.1922C124.751 33.3338 124.56 33.8485 124.454 34.3412C124.348 34.8339 124.156 35.3032 124.025 35.3887C123.655 35.6393 123.594 34.9582 123.932 34.4338L123.937 34.4326Z" fill="#F53636"/>
</g>
</g>
<defs>
<clipPath id="clip0_19_1431">
<rect width="140.408" height="40" fill="white" transform="translate(0.157837 35.084) rotate(-14.4394)"/>
</clipPath>
</defs>
</svg>
