<svg width="49" height="53" viewBox="0 0 49 53" fill="none" xmlns="http://www.w3.org/2000/svg">
<g opacity="0.75">
<g opacity="0.5" filter="url(#filter0_f_107_11547)">
<path d="M40.8835 27.4986C41.45 26.7676 41.7835 25.8831 41.8407 24.9601C41.8979 24.0371 41.676 23.1182 41.204 22.3229C40.8758 21.8011 40.4478 21.349 39.9447 20.9927C39.4416 20.6363 38.8732 20.3826 38.272 20.2461C37.6708 20.1096 37.0485 20.093 36.4409 20.1971C35.8332 20.3013 35.252 20.5242 34.7306 20.8531C34.2802 21.1275 33.8764 21.4719 33.5344 21.8734C33.4953 21.7991 33.4602 21.7249 33.4172 21.6506C32.881 20.7882 32.0766 20.1257 31.1275 19.7649C30.1783 19.404 29.137 19.3647 28.1634 19.6531C28.3504 19.0461 28.4073 18.4065 28.3306 17.7761C28.2538 17.1457 28.045 16.5385 27.7177 15.9942C27.3892 15.4726 26.961 15.0209 26.4578 14.665C25.9545 14.309 25.386 14.0557 24.7848 13.9195C24.1836 13.7834 23.5615 13.7671 22.954 13.8715C22.3465 13.976 21.7655 14.1991 21.2443 14.5283C20.3669 15.0467 19.6794 15.8334 19.2832 16.7723C18.8869 17.7113 18.8029 18.7527 19.0435 19.743C18.6689 19.8609 18.3095 20.0222 17.9724 20.2238C17.4389 20.5332 16.9716 20.9447 16.5973 21.4349C16.223 21.9251 15.949 22.4843 15.7911 23.0805C15.6331 23.6767 15.5943 24.2981 15.6768 24.9094C15.7594 25.5206 15.9616 26.1095 16.272 26.6425C16.5763 27.1417 16.9745 27.5771 17.4447 27.9246C15.5527 29.3593 14.8725 31.7673 15.9475 33.542C16.7293 34.8241 18.2226 35.4457 19.8058 35.3089C19.5624 36.3844 19.7415 37.5124 20.3061 38.4596C20.7274 39.1181 21.3113 39.6569 22.0015 40.024C22.6917 40.391 23.465 40.5738 24.2465 40.5548C24.4395 41.4026 24.8331 42.1917 25.3941 42.856C25.9551 43.5203 26.6673 44.0403 27.4708 44.3725C28.2743 44.7047 29.1458 44.8394 30.0121 44.7652C30.8784 44.691 31.7143 44.4102 32.4497 43.9462C33.185 43.4823 33.7984 42.8488 34.2383 42.0988C34.6783 41.3488 34.932 40.5043 34.9781 39.636C35.0243 38.7678 34.8615 37.9011 34.5035 37.1087C34.1455 36.3164 33.6028 35.6214 32.9207 35.0821C33.7703 34.4092 34.3691 33.4703 34.6211 32.4162C35.5945 36.1728 41.0906 38.0843 43.9208 36.0281C46.0513 34.4645 46.9347 31.7868 45.6174 29.6094C45.1302 28.8242 44.4186 28.2033 43.5746 27.827C42.7306 27.4506 41.7932 27.3362 40.8835 27.4986ZM32.5063 27.4751C32.6473 27.3419 32.778 27.1981 32.8972 27.0451C32.9402 27.1194 32.9754 27.1976 33.0184 27.2718C33.6204 28.2609 34.5811 28.9794 35.7 29.2772C35.2591 29.3779 34.8255 29.5085 34.4022 29.6681C34.3139 29.4483 34.2093 29.2353 34.0895 29.0309C33.7004 28.3879 33.156 27.8529 32.5063 27.4751V27.4751Z" fill="#DFDFDB"/>
</g>
<g opacity="0.5" filter="url(#filter1_f_107_11547)">
<path d="M15.5841 27.8032C15.0342 27.4019 14.5693 26.8957 14.2159 26.3139C13.492 25.0693 13.2913 23.5885 13.6577 22.1962C14.0241 20.8038 14.9277 19.6136 16.1704 18.8866C16.4341 18.7337 16.71 18.603 16.9952 18.4957C16.3215 17.9355 15.4907 17.598 14.6172 17.5296C13.7436 17.4611 12.8704 17.6651 12.1176 18.1135C11.3648 18.5619 10.7696 19.2327 10.4138 20.0334C10.058 20.8341 9.95918 21.7254 10.1309 22.5846C9.74842 22.7114 9.3813 22.8805 9.03638 23.0889C7.94986 23.7093 7.13665 24.7159 6.75852 25.9086C6.38039 27.1012 6.46504 28.3925 6.99562 29.5256C7.52621 30.6587 8.46385 31.5506 9.62206 32.0238C10.7803 32.4971 12.0742 32.517 13.2465 32.0797C13.2893 31.237 13.5218 30.4148 13.9266 29.6743C14.3313 28.9339 14.8979 28.2943 15.5841 27.8032V27.8032Z" fill="#DFDFDB"/>
</g>
<g opacity="0.5" filter="url(#filter2_f_107_11547)">
<path d="M33.8317 20.1644C34.2323 19.6633 34.7278 19.2462 35.2898 18.9369C36.4885 18.3015 37.8904 18.1677 39.1876 18.5649C40.4849 18.9622 41.5715 19.858 42.2088 21.0556C42.3459 21.3064 42.4622 21.5678 42.5567 21.8375C43.1075 21.2235 43.4545 20.454 43.5501 19.6347C43.6456 18.8155 43.485 17.9867 43.0903 17.2625C42.6956 16.5383 42.0862 15.9541 41.346 15.5903C40.6057 15.2266 39.771 15.1011 38.9565 15.2311C38.8518 14.8667 38.7062 14.5152 38.5226 14.1835C37.9897 13.1179 37.0713 12.295 35.9538 11.8819C34.8363 11.4687 33.6035 11.4963 32.5056 11.9589C31.4076 12.4216 30.5269 13.2847 30.0421 14.373C29.5573 15.4613 29.5048 16.6933 29.8953 17.8189C30.6856 17.8883 31.4502 18.1353 32.1318 18.5414C32.8134 18.9475 33.3945 19.5023 33.8317 20.1644V20.1644Z" fill="#DFDFDB"/>
</g>
<path opacity="0.3" d="M39.3551 27.3061C39.8623 26.6528 40.1611 25.862 40.2127 25.0365C40.2643 24.211 40.0663 23.3891 39.6444 22.6778C39.3504 22.2109 38.9673 21.8066 38.517 21.4879C38.0667 21.1692 37.558 20.9424 37.0199 20.8204C36.4819 20.6984 35.9251 20.6837 35.3814 20.777C34.8377 20.8703 34.3177 21.0699 33.8511 21.3643C33.4477 21.6087 33.086 21.9162 32.78 22.2751C32.7449 22.2087 32.7136 22.1422 32.6745 22.0758C32.1948 21.3068 31.4766 20.7159 30.6296 20.3933C29.7826 20.0707 28.8533 20.0342 27.9836 20.2893C28.1514 19.747 28.2033 19.1755 28.136 18.6118C28.0686 18.0482 27.8835 17.505 27.5927 17.0174C26.9983 16.0754 26.0542 15.4079 24.9679 15.1616C23.8816 14.9154 22.742 15.1104 21.7995 15.704C21.0172 16.1705 20.4052 16.8757 20.0534 17.7158C19.7016 18.5559 19.6285 19.4867 19.8449 20.3714C19.2359 20.5588 18.6765 20.8799 18.2075 21.3112C17.7386 21.7426 17.3719 22.2733 17.1343 22.8645C16.8968 23.4557 16.7944 24.0926 16.8346 24.7285C16.8747 25.3644 17.0565 25.9833 17.3666 26.5399C17.6386 26.9881 17.9959 27.3785 18.4181 27.6892C16.7294 28.9714 16.1196 31.1253 17.0773 32.7124C17.4463 33.2743 17.9662 33.7209 18.5774 34.0009C19.1886 34.281 19.8663 34.3831 20.5329 34.2955C20.3144 35.2561 20.474 36.2639 20.9786 37.1101C21.3543 37.6985 21.8756 38.18 22.4919 38.508C23.1082 38.836 23.7987 38.9994 24.4967 38.9825C24.6129 39.4912 24.8095 39.9782 25.0792 40.4249C25.7515 41.5194 26.8295 42.3035 28.0779 42.6059C29.3262 42.9083 30.6436 42.7045 31.7422 42.039C32.8409 41.3736 33.6316 40.3004 33.9417 39.0539C34.2519 37.8075 34.0563 36.4889 33.3977 35.3862C33.0984 34.8906 32.7116 34.4536 32.2562 34.0962C33.0182 33.4945 33.5541 32.6527 33.7768 31.7077C34.6486 35.0695 39.5662 36.7895 42.0953 34.9405C44.003 33.5489 44.7965 31.1487 43.616 29.1981C43.1783 28.4909 42.5376 27.932 41.7775 27.5945C41.0174 27.257 40.1732 27.1565 39.3551 27.3061ZM31.8614 27.3061C31.9897 27.1827 32.1111 27.0522 32.2249 26.9152C32.2601 26.9817 32.2953 27.0481 32.3344 27.1146C32.8713 27.9998 33.7301 28.6428 34.7307 28.9088C34.3321 29.0006 33.9403 29.1194 33.5579 29.2646C33.4808 29.0665 33.3866 28.8756 33.2765 28.6938C32.9314 28.1126 32.4445 27.6284 31.8614 27.2866V27.3061Z" fill="#F2F2F1"/>
<path d="M44.8201 24.5465C43.4441 24.5465 37.8463 24.7849 37.4632 23.2213C36.8573 20.7547 48.7174 10.8452 48.7174 10.8452C48.7174 10.8452 35.9895 21.04 33.4721 19.1558C31.4863 17.6704 34.1171 10.079 34.1171 10.079C34.1171 10.079 30.0751 18.4249 28.2535 18.1551C26.4318 17.8854 24.7353 11.5097 24.7353 11.5097C24.7353 11.5097 25.8298 18.3506 23.9965 19.3513C22.0263 20.4341 12.2263 8.87891 12.2263 8.87891C12.2263 8.87891 22.0693 20.9032 20.8888 22.1697C19.7082 23.4363 15.3223 21.7788 15.3223 21.7788C15.3223 21.7788 19.0437 24.1243 18.9264 25.4924C18.7896 27.1108 10.1623 28.0412 4.34559 27.6815C10.3069 28.2679 18.5551 28.264 19.0828 29.5696C20.2086 32.3529 0.0964355 43.2513 0.0964355 43.2513C0.0964355 43.2513 20.3024 33.0878 21.6198 34.0416C22.7573 34.8703 18.8834 46.4099 18.8834 46.4099C18.8834 46.4099 23.8128 35.2573 25.5953 35.6873C27.5498 36.1564 28.4411 52.0702 28.4411 52.0702C28.4411 52.0702 28.4098 35.0228 30.9468 34.4794C32.6981 34.1159 40.0784 42.0786 40.0784 42.0786C40.0784 42.0786 34.3946 32.7907 35.6807 31.3991C37.0645 29.9214 47.3336 33.4904 47.3336 33.4904C47.3336 33.4904 37.2443 29.5462 37.6352 27.1694C37.8776 25.7153 44.8201 24.5465 44.8201 24.5465Z" fill="#F53636"/>
<path d="M33.988 27.42C34.0271 27.7288 34.0544 28.0454 34.0662 28.3699C34.1281 30.049 33.7408 31.7142 32.9443 33.1937C34.004 32.4319 34.8044 31.3633 35.2374 30.1322C35.6704 28.901 35.7152 27.5666 35.3657 26.3092C35.0162 25.0518 34.2892 23.9319 33.2829 23.1009C32.2767 22.2698 31.0396 21.7675 29.7388 21.6619C31.0899 21.1946 32.5587 21.1946 33.9098 21.6619C33.4915 21.3648 33.0381 21.0599 32.8543 20.9583C29.7779 19.25 26.6702 20.4814 24.958 23.5617C24.4488 24.4786 24.1735 25.5069 24.1564 26.5556C24.1394 27.6042 24.3811 28.6409 24.8603 29.5739C23.7167 28.6462 22.9295 27.3512 22.6323 25.909C22.3352 24.4667 22.5464 22.9661 23.2302 21.6619C22.2754 22.4361 21.5648 23.47 21.1843 24.6389C20.8038 25.8078 20.7695 27.0618 21.0856 28.2497C21.4017 29.4377 22.0547 30.5088 22.9658 31.334C23.8769 32.1592 25.0073 32.7032 26.2207 32.9005C25.3922 33.1134 24.5295 33.158 23.6835 33.0318C22.8375 32.9056 22.0254 32.611 21.2952 32.1656C22.6829 34.0263 24.7391 35.1873 27.0142 35.1208C30.7278 35.0192 33.6987 31.6496 33.988 27.42Z" fill="#FFFFAA"/>
<path d="M32.397 34.0298C33.7886 33.8957 35.0974 33.3076 36.1218 32.3563C37.1462 31.4049 37.8293 30.143 38.0657 28.7651C38.3022 27.3872 38.0789 25.9698 37.4303 24.7313C36.7817 23.4929 35.7438 22.5021 34.4766 21.9117C33.6209 20.7068 32.5122 19.7035 31.2282 18.9721C28.5661 17.4944 25.8532 18.1902 24.0589 20.3989C23.3375 20.4636 22.6319 20.6486 21.9715 20.9461C20.4322 21.6474 19.2342 22.9309 18.6405 24.5148C18.0468 26.0986 18.106 27.8534 18.8051 29.3936C19.0728 29.9832 19.4302 30.5278 19.8645 31.0081C20.8027 34.581 23.6993 37.1492 27.0494 37.0515C28.1144 36.9989 29.1525 36.6984 30.0809 36.1738C31.0093 35.6492 31.8024 34.915 32.397 34.0298V34.0298ZM21.2796 32.1691C22.0098 32.6145 22.8219 32.9091 23.6679 33.0353C24.5139 33.1615 25.3766 33.1169 26.205 32.904C24.9917 32.7067 23.8613 32.1627 22.9501 31.3375C22.039 30.5123 21.386 29.4411 21.0699 28.2532C20.7538 27.0653 20.7881 25.8113 21.1687 24.6424C21.5492 23.4735 22.2597 22.4396 23.2146 21.6654C22.5308 22.9696 22.3195 24.4702 22.6167 25.9125C22.9138 27.3547 23.701 28.6497 24.8446 29.5774C24.3655 28.6444 24.1237 27.6077 24.1408 26.5591C24.1578 25.5104 24.4331 24.4821 24.9424 23.5652C26.6545 20.4849 29.7623 19.2652 32.8387 20.9618C33.0224 21.0634 33.4759 21.3527 33.8941 21.6654C32.5431 21.1981 31.0742 21.1981 29.7232 21.6654C31.024 21.771 32.261 22.2733 33.2673 23.1043C34.2736 23.9354 35.0005 25.0553 35.35 26.3127C35.6996 27.5701 35.6548 28.9045 35.2218 30.1357C34.7887 31.3668 33.9883 32.4354 32.9286 33.1972C33.7306 31.7192 34.1233 30.0539 34.0661 28.3734C34.0661 28.0489 34.027 27.7323 33.988 27.4235C33.6987 31.6531 30.7278 35.0188 26.9985 35.1282C24.7352 35.1908 22.6673 34.0298 21.2796 32.1691Z" fill="#EEB217"/>
<path d="M27.2566 23.9286C27.8489 23.4435 28.5726 23.1466 29.3349 23.0759C30.0972 23.0053 30.8633 23.1642 31.5345 23.5323C32.2058 23.9004 32.7517 24.4607 33.1021 25.1414C33.4525 25.8221 33.5914 26.592 33.5008 27.3522C33.4103 28.1124 33.0945 28.8282 32.5941 29.4075C32.0937 29.9869 31.4314 30.4034 30.6925 30.6035C29.9535 30.8036 29.1716 30.7782 28.4472 30.5306C27.7228 30.2829 27.089 29.8243 26.6273 29.2137C26.0121 28.4285 25.733 27.4317 25.8509 26.4412C25.9689 25.4508 26.4743 24.5474 27.2566 23.9286V23.9286Z" fill="#FFFFCC"/>
<path d="M15.6974 19.9998L10.0566 16.1298L10.9245 14.8398L15.6974 19.9998Z" fill="#FF9E0D"/>
<path d="M26.1504 11.6896L24.2506 0.701172L26.2638 0.736354L26.1504 11.6896Z" fill="#F53636"/>
<path d="M24.6805 40.9141L22.3937 49.0997L25.0714 48.396L24.6805 40.9141Z" fill="#FF9E0D"/>
<path d="M41.9429 19.6684L42.2243 19.3753L46.7784 16.3105L47.3687 18.5661L41.9429 19.6684Z" fill="#F53636"/>
<path d="M40.7781 27.6187L46.2508 29.8234L46.9857 27.9979L42.0681 26.8369L40.7781 27.6187Z" fill="#F53636"/>
<path d="M35.6064 12.6196L37.1779 9.32812L37.9402 10.5908L35.6064 12.6196Z" fill="#FF9E0D"/>
<path d="M17.8396 39.4242L16.2838 43.3724L14.3331 43.1144L17.6011 38.8496L17.8396 39.4242Z" fill="#D30000"/>
<path d="M8.95037 35.261L6.59712 36.723L5.65503 35.8396L9.04419 34.8662L8.95037 35.261Z" fill="#FF9E0D"/>
</g>
<defs>
<filter id="filter0_f_107_11547" x="14.4369" y="12.8037" width="32.8003" height="32.9814" filterUnits="userSpaceOnUse" color-interpolation-filters="sRGB">
<feFlood flood-opacity="0" result="BackgroundImageFix"/>
<feBlend mode="normal" in="SourceGraphic" in2="BackgroundImageFix" result="shape"/>
<feGaussianBlur stdDeviation="0.5" result="effect1_foregroundBlur_107_11547"/>
</filter>
<filter id="filter1_f_107_11547" x="5.52563" y="16.5166" width="12.4696" height="16.877" filterUnits="userSpaceOnUse" color-interpolation-filters="sRGB">
<feFlood flood-opacity="0" result="BackgroundImageFix"/>
<feBlend mode="normal" in="SourceGraphic" in2="BackgroundImageFix" result="shape"/>
<feGaussianBlur stdDeviation="0.5" result="effect1_foregroundBlur_107_11547"/>
</filter>
<filter id="filter2_f_107_11547" x="28.6362" y="10.5908" width="15.9407" height="12.2471" filterUnits="userSpaceOnUse" color-interpolation-filters="sRGB">
<feFlood flood-opacity="0" result="BackgroundImageFix"/>
<feBlend mode="normal" in="SourceGraphic" in2="BackgroundImageFix" result="shape"/>
<feGaussianBlur stdDeviation="0.5" result="effect1_foregroundBlur_107_11547"/>
</filter>
</defs>
</svg>
