<svg width="17" height="19" viewBox="0 0 17 19" fill="none" xmlns="http://www.w3.org/2000/svg">
<path d="M0.858659 18.7129C0.854401 18.6312 0.846832 18.5496 0.846832 18.4679C0.846832 12.6487 0.846832 6.83021 0.846832 1.01252C0.846832 0.971696 0.850144 0.930398 0.846832 0.889569C0.834531 0.764268 0.882314 0.708891 1.01667 0.713115C1.27073 0.720154 1.52526 0.718277 1.77931 0.713115C1.89191 0.713115 1.94206 0.751597 1.93732 0.866105C1.93212 0.994691 1.943 1.12375 1.93732 1.25186C1.92739 1.39922 1.98227 1.40485 2.10149 1.35323C2.68772 1.10139 3.30295 0.922021 3.93333 0.819175C5.36635 0.580305 6.74496 0.781632 8.08052 1.32601C8.43914 1.47611 8.78829 1.64756 9.12607 1.83942C10.2279 2.45373 11.4007 2.81133 12.6743 2.78927C13.8854 2.76862 14.9972 2.40821 16.0423 1.82018C16.258 1.69863 16.4742 1.57802 16.689 1.45413C16.7912 1.395 16.8428 1.41189 16.8366 1.53766C16.8338 1.59023 16.8366 1.64279 16.8366 1.69535C16.8366 5.06738 16.8387 8.4391 16.8428 11.8105C16.8428 12.0583 16.7742 12.1935 16.5509 12.3174C15.5375 12.8805 14.464 13.2559 13.3078 13.3761C12.0158 13.5122 10.7772 13.2907 9.58308 12.7979C9.23576 12.6522 8.89752 12.4861 8.57017 12.3005C7.44136 11.6688 6.23921 11.3079 4.93251 11.3478C3.91772 11.3783 2.96395 11.6449 2.05844 12.0944C1.93401 12.1564 1.93732 12.2493 1.93732 12.3568C1.93732 14.3941 1.93732 16.4312 1.93732 18.4679C1.93732 18.5496 1.92976 18.6312 1.9255 18.7129H0.858659ZM1.93543 6.78672C1.93543 8.09793 1.93543 9.40898 1.93543 10.7199C1.93543 10.9409 1.93543 10.9381 2.14549 10.8513C3.34006 10.3618 4.57864 10.1431 5.8702 10.2797C7.01557 10.4003 8.08004 10.7701 9.07734 11.3332C10.0746 11.8964 11.1216 12.2512 12.2656 12.3047C13.4303 12.3591 14.5312 12.0977 15.572 11.5914C15.7107 11.5238 15.7513 11.4402 15.7513 11.2929C15.7472 8.66483 15.7461 6.03679 15.748 3.40874C15.748 3.19709 15.748 3.1985 15.5465 3.28203C14.3529 3.77244 13.1119 3.98879 11.8223 3.85645C10.6707 3.73678 9.60106 3.36369 8.59856 2.79772C7.60789 2.23879 6.55383 1.88166 5.4094 1.83003C4.2574 1.77794 3.17022 2.03605 2.13603 2.53398C1.99031 2.6039 1.93023 2.68509 1.93118 2.8531C1.93922 4.16477 1.93543 5.47551 1.93543 6.78672Z" fill="#0064A2"/>
</svg>
