<svg width="22" height="21" viewBox="0 0 22 21" fill="none" xmlns="http://www.w3.org/2000/svg">
<path d="M2.02026 12.3901L3.23723 12.1047L2.02026 12.3901ZM2.02026 6.90455L3.23723 7.19001L2.02026 6.90455ZM17.5747 6.90456L18.7917 6.61909L17.5747 6.90456ZM17.5747 12.3901L18.7917 12.6756L17.5747 12.3901ZM12.5403 17.4246L12.2548 16.2076L12.5403 17.4246ZM7.0547 17.4246L6.76924 18.6415L7.0547 17.4246ZM7.0547 1.87011L6.76924 0.653144L7.0547 1.87011ZM12.5403 1.87011L12.8257 0.653143L12.5403 1.87011ZM18.913 20.5307C19.4012 21.0188 20.1927 21.0188 20.6808 20.5307C21.169 20.0425 21.169 19.2511 20.6808 18.7629L18.913 20.5307ZM3.23723 12.1047C2.8581 10.4884 2.8581 8.80629 3.23723 7.19001L0.803291 6.61909C0.336078 8.61089 0.336077 10.6838 0.803291 12.6756L3.23723 12.1047ZM16.3577 7.19002C16.7369 8.80629 16.7369 10.4884 16.3577 12.1047L18.7917 12.6756C19.2589 10.6838 19.2589 8.61089 18.7917 6.61909L16.3577 7.19002ZM12.2548 16.2076C10.6385 16.5867 8.95644 16.5867 7.34016 16.2076L6.76924 18.6415C8.76104 19.1087 10.8339 19.1087 12.8257 18.6415L12.2548 16.2076ZM7.34016 3.08708C8.95644 2.70795 10.6385 2.70795 12.2548 3.08708L12.8257 0.653143C10.8339 0.185931 8.76103 0.185932 6.76924 0.653144L7.34016 3.08708ZM7.34016 16.2076C5.30435 15.7301 3.71476 14.1405 3.23723 12.1047L0.803291 12.6756C1.49766 15.6358 3.80903 17.9472 6.76924 18.6415L7.34016 16.2076ZM12.8257 18.6415C15.7859 17.9472 18.0973 15.6358 18.7917 12.6756L16.3577 12.1047C15.8802 14.1405 14.2906 15.7301 12.2548 16.2076L12.8257 18.6415ZM12.2548 3.08708C14.2906 3.56462 15.8802 5.1542 16.3577 7.19002L18.7917 6.61909C18.0973 3.65888 15.7859 1.34752 12.8257 0.653143L12.2548 3.08708ZM6.76924 0.653144C3.80902 1.34752 1.49766 3.65887 0.803291 6.61909L3.23723 7.19001C3.71476 5.1542 5.30435 3.56462 7.34016 3.08708L6.76924 0.653144ZM15.229 16.8467L18.913 20.5307L20.6808 18.7629L16.9968 15.0789L15.229 16.8467Z" fill="#6D6BE6"/>
</svg>
