<svg width="16" height="21" viewBox="0 0 16 21" fill="none" xmlns="http://www.w3.org/2000/svg">
<path d="M1.30469 17.4285C1.30469 15.0428 2.98274 13.0107 5.26326 12.6348L5.46868 12.6009C7.2948 12.2998 9.15559 12.2998 10.9817 12.6009L11.1871 12.6348C13.4677 13.0107 15.1457 15.0428 15.1457 17.4285C15.1457 18.4597 14.3365 19.2956 13.3383 19.2956H3.11206C2.11387 19.2956 1.30469 18.4597 1.30469 17.4285Z" stroke="#8E8B9E" stroke-width="1.5"/>
<path d="M12.2622 5.39279C12.2622 7.54271 10.4548 9.28558 8.22522 9.28558C5.99567 9.28558 4.18825 7.54271 4.18825 5.39279C4.18825 3.24286 5.99567 1.5 8.22522 1.5C10.4548 1.5 12.2622 3.24286 12.2622 5.39279Z" stroke="#8E8B9E" stroke-width="1.5"/>
</svg>
