<svg width="21" height="22" viewBox="0 0 21 22" fill="none" xmlns="http://www.w3.org/2000/svg">
<path d="M16.1247 6.28963V2.40157C16.1278 2.19309 16.0479 1.99193 15.9027 1.84229C15.7576 1.69265 15.5589 1.60677 15.3504 1.60352H4.91304C4.70457 1.60677 4.50591 1.69265 4.36073 1.84229C4.21554 1.99193 4.13571 2.19309 4.13876 2.40157V6.28963C4.13876 6.28963 4.09503 11.7329 8.30963 14.4127C8.42327 14.4861 8.51668 14.5868 8.58129 14.7056C8.6459 14.8245 8.67964 14.9576 8.67942 15.0929V18.0251C8.68114 18.1799 8.63726 18.3319 8.55324 18.4619C8.46923 18.592 8.3488 18.6945 8.20696 18.7566C8.04067 18.8255 7.88292 18.9133 7.73687 19.0185C7.12657 19.4672 7.44218 20.4625 8.19175 20.4625H12.0713C12.8213 20.4625 13.1369 19.4672 12.5266 19.0185C12.3806 18.9133 12.2228 18.8255 12.0565 18.7566C11.9147 18.6945 11.7942 18.592 11.7102 18.4619C11.6262 18.3319 11.5823 18.1799 11.5841 18.0251V15.0929C11.5838 14.9576 11.6176 14.8245 11.6822 14.7056C11.7468 14.5868 11.8402 14.4861 11.9539 14.4127C16.1685 11.7329 16.1247 6.28963 16.1247 6.28963Z" stroke="#8E8B9E" stroke-width="1.5" stroke-miterlimit="10"/>
<path d="M16.441 4.23584H18.2586C18.2586 4.23584 19.5445 5.01155 18.191 7.94043C16.8374 10.8693 15.375 10.2024 15.375 10.2024" stroke="#8E8B9E" stroke-width="1.5" stroke-linecap="round" stroke-linejoin="round"/>
<path d="M3.91552 4.23584H2.09835C2.09835 4.23584 0.813634 5.01155 2.16593 7.94043C3.51823 10.8693 4.98095 10.2024 4.98095 10.2024" stroke="#8E8B9E" stroke-width="1.5" stroke-linecap="round" stroke-linejoin="round"/>
</svg>
