<svg width="21" height="21" viewBox="0 0 21 21" fill="none" xmlns="http://www.w3.org/2000/svg">
<path d="M2.18359 12.3901L2.93811 12.2131L2.18359 12.3901ZM2.18359 6.90455L2.93811 7.08154L2.18359 6.90455ZM17.738 6.90456L18.4926 6.72757L17.738 6.90456ZM17.738 12.3901L18.4926 12.5671L17.738 12.3901ZM12.7036 17.4246L12.5266 16.67L12.7036 17.4246ZM7.21803 17.4246L7.04105 18.1791L7.21803 17.4246ZM7.21803 1.87011L7.04104 1.11559H7.04104L7.21803 1.87011ZM12.7036 1.87011L12.8806 1.11559L12.7036 1.87011ZM19.4123 20.1948C19.7149 20.4974 20.2056 20.4974 20.5083 20.1948C20.8109 19.8921 20.8109 19.4014 20.5083 19.0988L19.4123 20.1948ZM2.93811 12.2131C2.54224 10.5255 2.54224 8.76917 2.93811 7.08154L1.42907 6.72756C0.978592 8.64802 0.978592 10.6467 1.42907 12.5671L2.93811 12.2131ZM16.9835 7.08154C17.3794 8.76917 17.3794 10.5255 16.9835 12.2131L18.4926 12.5671C18.943 10.6467 18.943 8.64802 18.4926 6.72757L16.9835 7.08154ZM12.5266 16.67C10.839 17.0659 9.08264 17.0659 7.39502 16.67L7.04105 18.1791C8.96149 18.6296 10.9601 18.6296 12.8806 18.1791L12.5266 16.67ZM7.39502 2.62463C9.08264 2.22877 10.839 2.22877 12.5266 2.62463L12.8806 1.11559C10.9601 0.665115 8.96149 0.665116 7.04104 1.11559L7.39502 2.62463ZM7.39502 16.67C5.18357 16.1513 3.45685 14.4246 2.93811 12.2131L1.42907 12.5671C2.08224 15.3517 4.25647 17.5259 7.04105 18.1791L7.39502 16.67ZM12.8806 18.1791C15.6652 17.5259 17.8394 15.3517 18.4926 12.5671L16.9835 12.2131C16.4648 14.4246 14.7381 16.1513 12.5266 16.67L12.8806 18.1791ZM12.5266 2.62463C14.7381 3.14337 16.4648 4.87009 16.9835 7.08154L18.4926 6.72757C17.8394 3.94299 15.6652 1.76877 12.8806 1.11559L12.5266 2.62463ZM7.04104 1.11559C4.25647 1.76876 2.08224 3.94299 1.42907 6.72756L2.93811 7.08154C3.45685 4.87009 5.18357 3.14337 7.39502 2.62463L7.04104 1.11559ZM15.7282 16.5108L19.4123 20.1948L20.5083 19.0988L16.8243 15.4148L15.7282 16.5108Z" fill="#8E8B9E"/>
</svg>
