<svg width="21" height="21" viewBox="0 0 21 21" fill="none" xmlns="http://www.w3.org/2000/svg">
<path d="M18.5102 7.77001C18.5102 7.35579 18.1744 7.02001 17.7602 7.02001C17.346 7.02001 17.0102 7.35579 17.0102 7.77001H18.5102ZM3.93021 7.77001C3.93021 7.35579 3.59442 7.02001 3.18021 7.02001C2.76599 7.02001 2.43021 7.35579 2.43021 7.77001H3.93021ZM12.9835 18.9564L12.8081 18.2272L12.9835 18.9564ZM7.95695 18.9564L8.13232 18.2272H8.13232L7.95695 18.9564ZM13.2986 2.98027L12.7617 3.50394L13.2986 2.98027ZM18.9333 9.83161C19.2225 10.1281 19.6974 10.1341 19.9939 9.84486C20.2904 9.55564 20.2963 9.08081 20.0071 8.78428L18.9333 9.83161ZM7.64179 2.98027L8.1787 3.50394L7.64179 2.98027ZM0.933304 8.78428C0.644091 9.08081 0.650021 9.55564 0.946549 9.84486C1.24308 10.1341 1.71791 10.1281 2.00713 9.83161L0.933304 8.78428ZM8.18864 16.5265L7.45107 16.3905V16.3905L8.18864 16.5265ZM8.20798 16.4216L8.94555 16.5576V16.5576L8.20798 16.4216ZM12.7325 16.4216L11.9949 16.5576L11.9949 16.5576L12.7325 16.4216ZM12.7518 16.5265L13.4894 16.3905L13.4894 16.3905L12.7518 16.5265ZM12.462 18.7984L11.7826 18.4808L11.7826 18.4808L12.462 18.7984ZM11.6658 18.7306C11.4904 19.1059 11.6524 19.5523 12.0276 19.7277C12.4029 19.9031 12.8492 19.7411 13.0246 19.3658L11.6658 18.7306ZM8.47844 18.7984L7.79901 19.116L7.79901 19.116L8.47844 18.7984ZM7.91578 19.3658C8.09119 19.7411 8.53758 19.9031 8.91282 19.7277C9.28806 19.5522 9.45006 19.1059 9.27465 18.7306L7.91578 19.3658ZM9.83127 14.6149L10.0352 15.3366L9.83127 14.6149ZM11.1092 14.6149L10.9053 15.3366L11.1092 14.6149ZM17.0102 7.77001V12.7771H18.5102V7.77001H17.0102ZM3.93021 12.7771V7.77001H2.43021V12.7771H3.93021ZM12.8081 18.2272C11.2703 18.5971 9.67012 18.5971 8.13232 18.2272L7.78157 19.6856C9.54992 20.1109 11.3905 20.1109 13.1588 19.6856L12.8081 18.2272ZM8.13232 18.2272C5.68251 17.638 3.93021 15.3894 3.93021 12.7771H2.43021C2.43021 16.0588 4.63474 18.9288 7.78157 19.6856L8.13232 18.2272ZM13.1588 19.6856C16.3057 18.9288 18.5102 16.0588 18.5102 12.7771H17.0102C17.0102 15.3894 15.2579 17.638 12.8081 18.2272L13.1588 19.6856ZM12.7617 3.50394L18.9333 9.83161L20.0071 8.78428L13.8356 2.45661L12.7617 3.50394ZM7.10488 2.45661L0.933304 8.78428L2.00713 9.83161L8.1787 3.50394L7.10488 2.45661ZM13.8356 2.45661C13.1838 1.78838 12.6432 1.2318 12.1572 0.85161C11.6547 0.458522 11.1202 0.179688 10.4702 0.179688V1.67969C10.6487 1.67969 10.8617 1.74262 11.233 2.03306C11.6208 2.3364 12.0801 2.80511 12.7617 3.50394L13.8356 2.45661ZM8.1787 3.50394C8.86029 2.80511 9.31968 2.3364 9.70745 2.03306C10.0787 1.74262 10.2917 1.67969 10.4702 1.67969V0.179688C9.82026 0.179688 9.28573 0.45852 8.78323 0.851609C8.29723 1.2318 7.75662 1.78838 7.10488 2.45661L8.1787 3.50394ZM8.92621 16.6625L8.94555 16.5576L7.47041 16.2857L7.45107 16.3905L8.92621 16.6625ZM11.9949 16.5576L12.0142 16.6625L13.4894 16.3905L13.47 16.2856L11.9949 16.5576ZM11.7826 18.4808L11.6658 18.7306L13.0246 19.3658L13.1414 19.116L11.7826 18.4808ZM7.79901 19.116L7.91578 19.3658L9.27465 18.7306L9.15787 18.4808L7.79901 19.116ZM12.0142 16.6625C12.1279 17.2792 12.0463 17.9165 11.7826 18.4808L13.1414 19.116C13.538 18.2677 13.6595 17.3131 13.4894 16.3905L12.0142 16.6625ZM7.45107 16.3905C7.28097 17.3131 7.40245 18.2677 7.79901 19.116L9.15787 18.4808C8.8941 17.9165 8.81251 17.2792 8.92621 16.6625L7.45107 16.3905ZM10.0352 15.3366C10.32 15.2562 10.6204 15.2562 10.9053 15.3366L11.313 13.8931C10.7616 13.7374 10.1789 13.7374 9.62739 13.8931L10.0352 15.3366ZM13.47 16.2857C13.2592 15.1423 12.4288 14.2083 11.313 13.8931L10.9053 15.3366C11.4555 15.4921 11.8847 15.96 11.9949 16.5576L13.47 16.2857ZM8.94555 16.5576C9.05574 15.96 9.4849 15.4921 10.0352 15.3366L9.62739 13.8931C8.51159 14.2083 7.68122 15.1423 7.47041 16.2857L8.94555 16.5576Z" fill="#8E8B9E"/>
</svg>
