<svg width="72" height="80" viewBox="0 0 72 80" fill="none" xmlns="http://www.w3.org/2000/svg">
<g filter="url(#filter0_d_107_3133)">
<circle r="29.5844" transform="matrix(-1 0 0 1 36.0465 34.0844)" fill="#F24973"/>
<circle r="28.5844" transform="matrix(-1 0 0 1 36.0465 34.0844)" stroke="white" stroke-width="2"/>
</g>
<path d="M28.0049 73.8584V76.5H26.7695V69.3906H29.4893C30.2835 69.3906 30.9134 69.5973 31.3789 70.0107C31.8477 70.4242 32.082 70.971 32.082 71.6514C32.082 72.348 31.8525 72.89 31.3936 73.2773C30.9378 73.6647 30.2982 73.8584 29.4746 73.8584H28.0049ZM28.0049 72.8672H29.4893C29.9287 72.8672 30.264 72.7646 30.4951 72.5596C30.7262 72.3512 30.8418 72.0518 30.8418 71.6611C30.8418 71.277 30.7246 70.971 30.4902 70.7432C30.2559 70.512 29.9336 70.3932 29.5234 70.3867H28.0049V72.8672ZM34.3135 76.5H33.127V69H34.3135V76.5ZM38.7666 76.5C38.7145 76.3991 38.6689 76.2347 38.6299 76.0068C38.2523 76.4007 37.79 76.5977 37.2432 76.5977C36.7126 76.5977 36.2796 76.4463 35.9443 76.1436C35.609 75.8408 35.4414 75.4665 35.4414 75.0205C35.4414 74.4574 35.6497 74.026 36.0664 73.7266C36.4863 73.4238 37.0853 73.2725 37.8633 73.2725H38.5908V72.9258C38.5908 72.6523 38.5143 72.4342 38.3613 72.2715C38.2083 72.1055 37.9756 72.0225 37.6631 72.0225C37.3929 72.0225 37.1715 72.0908 36.999 72.2275C36.8265 72.361 36.7402 72.5319 36.7402 72.7402H35.5537C35.5537 72.4505 35.6497 72.1803 35.8418 71.9297C36.0339 71.6758 36.2943 71.4772 36.623 71.334C36.9551 71.1908 37.3245 71.1191 37.7314 71.1191C38.3499 71.1191 38.8431 71.2754 39.2109 71.5879C39.5788 71.8971 39.7676 72.3333 39.7773 72.8965V75.2793C39.7773 75.7546 39.8441 76.1338 39.9775 76.417V76.5H38.7666ZM37.4629 75.6455C37.6973 75.6455 37.917 75.5885 38.1221 75.4746C38.3304 75.3607 38.4867 75.2077 38.5908 75.0156V74.0195H37.9512C37.5117 74.0195 37.1813 74.096 36.96 74.249C36.7386 74.402 36.6279 74.6185 36.6279 74.8984C36.6279 75.1263 36.7028 75.3086 36.8525 75.4453C37.0055 75.5788 37.209 75.6455 37.4629 75.6455ZM42.79 74.8008L43.8643 71.2168H45.1289L43.0293 77.3008C42.707 78.1895 42.1602 78.6338 41.3887 78.6338C41.2161 78.6338 41.0257 78.6045 40.8174 78.5459V77.6279L41.042 77.6426C41.3415 77.6426 41.5661 77.5872 41.7158 77.4766C41.8688 77.3691 41.9893 77.1868 42.0771 76.9297L42.248 76.4756L40.3926 71.2168H41.6719L42.79 74.8008Z" fill="#8E8B9E"/>
<path d="M28.7109 22.6235L46.5395 34.0848L28.7109 45.546V22.6235Z" stroke="white" stroke-width="2.5" stroke-linecap="round" stroke-linejoin="round"/>
<defs>
<filter id="filter0_d_107_3133" x="0.462097" y="0.5" width="71.1688" height="71.1687" filterUnits="userSpaceOnUse" color-interpolation-filters="sRGB">
<feFlood flood-opacity="0" result="BackgroundImageFix"/>
<feColorMatrix in="SourceAlpha" type="matrix" values="0 0 0 0 0 0 0 0 0 0 0 0 0 0 0 0 0 0 127 0" result="hardAlpha"/>
<feOffset dy="2"/>
<feGaussianBlur stdDeviation="3"/>
<feComposite in2="hardAlpha" operator="out"/>
<feColorMatrix type="matrix" values="0 0 0 0 0.94902 0 0 0 0 0.286275 0 0 0 0 0.45098 0 0 0 0.3 0"/>
<feBlend mode="normal" in2="BackgroundImageFix" result="effect1_dropShadow_107_3133"/>
<feBlend mode="normal" in="SourceGraphic" in2="effect1_dropShadow_107_3133" result="shape"/>
</filter>
</defs>
</svg>
