<svg width="21" height="22" viewBox="0 0 21 22" fill="none" xmlns="http://www.w3.org/2000/svg">
<path d="M18.8535 8.52147C18.8535 7.83111 18.2938 7.27147 17.6035 7.27147C16.9131 7.27147 16.3535 7.83111 16.3535 8.52147H18.8535ZM4.27347 8.52147C4.27347 7.83111 3.71382 7.27147 3.02347 7.27147C2.33311 7.27147 1.77347 7.83111 1.77347 8.52147H4.27347ZM12.8267 19.7079L12.5344 18.4926H12.5344L12.8267 19.7079ZM7.80021 19.7079L8.0925 18.4926H8.0925L7.80021 19.7079ZM13.1419 3.73174L12.2471 4.60452H12.2471L13.1419 3.73174ZM18.4186 10.9322C18.9006 11.4264 19.692 11.4363 20.1863 10.9543C20.6805 10.4722 20.6903 9.68085 20.2083 9.18663L18.4186 10.9322ZM7.48505 3.73174L8.3799 4.60452V4.60452L7.48505 3.73174ZM0.418624 9.18663C-0.0633969 9.68085 -0.0535136 10.4722 0.4407 10.9543C0.934913 11.4363 1.72631 11.4264 2.20833 10.9322L0.418624 9.18663ZM8.0319 17.278L6.80262 17.0513L6.80262 17.0513L8.0319 17.278ZM8.05124 17.1731L9.28052 17.3998L9.28052 17.3998L8.05124 17.1731ZM12.5757 17.1731L11.3464 17.3998L11.3464 17.3998L12.5757 17.1731ZM12.5951 17.278L13.8243 17.0514L13.8243 17.0513L12.5951 17.278ZM12.3053 19.5499L11.1729 19.0205L11.1729 19.0205L12.3053 19.5499ZM11.0561 19.2704C10.7637 19.8958 11.0337 20.6397 11.6591 20.9321C12.2845 21.2244 13.0285 20.9544 13.3209 20.329L11.0561 19.2704ZM8.3217 19.5499L7.18931 20.0792L7.18931 20.0792L8.3217 19.5499ZM7.30609 20.329C7.59844 20.9544 8.34242 21.2244 8.96782 20.9321C9.59322 20.6397 9.86321 19.8957 9.57086 19.2703L7.30609 20.329ZM9.67453 15.3664L10.0143 16.5693L9.67453 15.3664ZM10.9524 15.3664L10.6126 16.5693H10.6126L10.9524 15.3664ZM16.3535 8.52147V13.5286H18.8535V8.52147H16.3535ZM4.27347 13.5286V8.52147H1.77347V13.5286H4.27347ZM12.5344 18.4926C11.0735 18.8439 9.55345 18.8439 8.0925 18.4926L7.50792 20.9232C9.35311 21.367 11.2738 21.367 13.119 20.9232L12.5344 18.4926ZM8.0925 18.4926C5.87503 17.9592 4.27347 15.9177 4.27347 13.5286H1.77347C1.77347 17.0335 4.12874 20.1105 7.50792 20.9232L8.0925 18.4926ZM13.119 20.9232C16.4982 20.1105 18.8535 17.0335 18.8535 13.5286H16.3535C16.3535 15.9177 14.7519 17.9592 12.5344 18.4926L13.119 20.9232ZM12.2471 4.60452L18.4186 10.9322L20.2083 9.18663L14.0368 2.85896L12.2471 4.60452ZM6.5902 2.85896L0.418624 9.18663L2.20833 10.9322L8.3799 4.60452L6.5902 2.85896ZM14.0368 2.85896C13.395 2.20094 12.8273 1.61506 12.3085 1.20926C11.7623 0.781954 11.1206 0.431152 10.3135 0.431152V2.93115C10.3348 2.93115 10.4406 2.92212 10.7682 3.17834C11.1232 3.45607 11.5555 3.89548 12.2471 4.60452L14.0368 2.85896ZM8.3799 4.60452C9.07144 3.89548 9.50376 3.45607 9.85878 3.17834C10.1863 2.92212 10.2922 2.93115 10.3135 2.93115V0.431152C9.50636 0.431152 8.86466 0.781952 8.31842 1.20926C7.79968 1.61506 7.23199 2.20094 6.5902 2.85896L8.3799 4.60452ZM9.26118 17.5047L9.28052 17.3998L6.82196 16.9465L6.80262 17.0513L9.26118 17.5047ZM11.3464 17.3998L11.3658 17.5047L13.8243 17.0513L13.805 16.9465L11.3464 17.3998ZM11.1729 19.0205L11.0561 19.2704L13.3209 20.329L13.4376 20.0792L11.1729 19.0205ZM7.18931 20.0792L7.30609 20.329L9.57086 19.2703L9.45409 19.0205L7.18931 20.0792ZM11.3658 17.5047C11.4607 18.0194 11.3924 18.5509 11.1729 19.0205L13.4376 20.0792C13.8785 19.1362 14.0132 18.0759 13.8243 17.0514L11.3658 17.5047ZM6.80262 17.0513C6.61372 18.0759 6.7485 19.1362 7.18931 20.0792L9.45409 19.0205C9.23457 18.5509 9.16628 18.0194 9.26118 17.5047L6.80262 17.0513ZM10.0143 16.5693C10.2103 16.5139 10.4166 16.5139 10.6126 16.5693L11.2922 14.1634C10.6519 13.9825 9.97509 13.9825 9.33474 14.1634L10.0143 16.5693ZM13.805 16.9465C13.5606 15.6212 12.5965 14.5319 11.2922 14.1634L10.6126 16.5693C10.9744 16.6715 11.2698 16.984 11.3464 17.3998L13.805 16.9465ZM9.28052 17.3998C9.35717 16.984 9.6526 16.6715 10.0143 16.5693L9.33474 14.1634C8.03041 14.5319 7.06631 15.6212 6.82196 16.9465L9.28052 17.3998Z" fill="#6D6BE6"/>
</svg>
