<svg width="20" height="22" viewBox="0 0 20 22" fill="none" xmlns="http://www.w3.org/2000/svg">
<path d="M15.6527 6.02059V2.13253C15.6557 1.92405 15.5759 1.72289 15.4307 1.57325C15.2855 1.42361 15.0868 1.33773 14.8784 1.33447H4.44097C4.23249 1.33773 4.03384 1.42361 3.88865 1.57325C3.74347 1.72289 3.66363 1.92405 3.66668 2.13253V6.02059C3.66668 6.02059 3.62295 11.4639 7.83755 14.1437C7.95119 14.217 8.04461 14.3178 8.10921 14.4366C8.17382 14.5554 8.20756 14.6886 8.20735 14.8239V17.7561C8.20906 17.9109 8.16518 18.0628 8.08117 18.1929C7.99715 18.323 7.87673 18.4255 7.73488 18.4876C7.56859 18.5564 7.41085 18.6443 7.2648 18.7495C6.6545 19.1982 6.97011 20.1935 7.71968 20.1935H11.5992C12.3492 20.1935 12.6648 19.1982 12.0545 18.7495C11.9085 18.6443 11.7507 18.5564 11.5844 18.4876C11.4426 18.4255 11.3222 18.323 11.2382 18.1929C11.1541 18.0628 11.1103 17.9109 11.112 17.7561V14.8239C11.1118 14.6886 11.1455 14.5554 11.2101 14.4366C11.2747 14.3178 11.3681 14.217 11.4818 14.1437C15.6964 11.4639 15.6527 6.02059 15.6527 6.02059Z" stroke="#6D6BE6" stroke-width="2" stroke-miterlimit="10"/>
<path d="M15.9689 3.9668H17.7865C17.7865 3.9668 19.0724 4.74251 17.7189 7.67139C16.3654 10.6003 14.9029 9.9334 14.9029 9.9334" stroke="#6D6BE6" stroke-width="2" stroke-linecap="round" stroke-linejoin="round"/>
<path d="M3.44344 3.9668H1.62627C1.62627 3.9668 0.341558 4.74251 1.69386 7.67139C3.04616 10.6003 4.50887 9.9334 4.50887 9.9334" stroke="#6D6BE6" stroke-width="2" stroke-linecap="round" stroke-linejoin="round"/>
</svg>
