<svg width="25" height="25" viewBox="0 0 25 25" fill="none" xmlns="http://www.w3.org/2000/svg">
<path d="M12.3484 20.1953H11.7484C11.7484 20.5267 12.017 20.7953 12.3484 20.7953V20.1953ZM13.3484 12.7953H19.3484V11.5953H13.3484V12.7953ZM19.7484 13.1953V19.1953H20.9484V13.1953H19.7484ZM19.3484 19.5953H12.3484V20.7953H19.3484V19.5953ZM12.9484 20.1953V13.1953H11.7484V20.1953H12.9484ZM19.7484 19.1953C19.7484 19.4162 19.5693 19.5953 19.3484 19.5953V20.7953C20.232 20.7953 20.9484 20.079 20.9484 19.1953H19.7484ZM19.3484 12.7953C19.5693 12.7953 19.7484 12.9744 19.7484 13.1953H20.9484C20.9484 12.3117 20.232 11.5953 19.3484 11.5953V12.7953ZM13.3484 11.5953C12.4647 11.5953 11.7484 12.3117 11.7484 13.1953H12.9484C12.9484 12.9744 13.1275 12.7953 13.3484 12.7953V11.5953Z" fill="#8E8B9E"/>
<path d="M12.3484 20.1953V20.7953C12.6798 20.7953 12.9484 20.5267 12.9484 20.1953H12.3484ZM5.34839 12.7953H11.3484V11.5953H5.34839V12.7953ZM11.7484 13.1953V20.1953H12.9484V13.1953H11.7484ZM12.3484 19.5953H5.34839V20.7953H12.3484V19.5953ZM4.94839 19.1953V13.1953H3.74839V19.1953H4.94839ZM5.34839 19.5953C5.12747 19.5953 4.94839 19.4162 4.94839 19.1953H3.74839C3.74839 20.079 4.46473 20.7953 5.34839 20.7953V19.5953ZM11.3484 12.7953C11.5693 12.7953 11.7484 12.9744 11.7484 13.1953H12.9484C12.9484 12.3117 12.232 11.5953 11.3484 11.5953V12.7953ZM5.34839 11.5953C4.46473 11.5953 3.74839 12.3117 3.74839 13.1953H4.94839C4.94839 12.9744 5.12747 12.7953 5.34839 12.7953V11.5953Z" fill="#8E8B9E"/>
<path d="M20.3484 8.19531H13.3484C12.7961 8.19531 12.3484 8.64303 12.3484 9.19531V11.1953C12.3484 11.7476 12.7961 12.1953 13.3484 12.1953H20.3484C20.9007 12.1953 21.3484 11.7476 21.3484 11.1953V9.19531C21.3484 8.64303 20.9007 8.19531 20.3484 8.19531Z" stroke="#8E8B9E" stroke-width="1.2" stroke-linecap="round" stroke-linejoin="round"/>
<path d="M11.3484 8.19531H4.34839C3.7961 8.19531 3.34839 8.64303 3.34839 9.19531V11.1953C3.34839 11.7476 3.7961 12.1953 4.34839 12.1953H11.3484C11.9007 12.1953 12.3484 11.7476 12.3484 11.1953V9.19531C12.3484 8.64303 11.9007 8.19531 11.3484 8.19531Z" stroke="#8E8B9E" stroke-width="1.2" stroke-linecap="round" stroke-linejoin="round"/>
<path d="M12.3484 8.19531H11.7484C11.7484 8.52668 12.017 8.79531 12.3484 8.79531V8.19531ZM11.7484 5.69531V8.19531H12.9484V5.69531H11.7484ZM12.3484 8.79531H14.8484V7.59531H12.3484V8.79531ZM14.8484 8.79531C16.5605 8.79531 17.9484 7.4074 17.9484 5.69531H16.7484C16.7484 6.74465 15.8977 7.59531 14.8484 7.59531V8.79531ZM14.8484 2.59531C13.1363 2.59531 11.7484 3.98323 11.7484 5.69531H12.9484C12.9484 4.64597 13.799 3.79531 14.8484 3.79531V2.59531ZM14.8484 3.79531C15.8977 3.79531 16.7484 4.64597 16.7484 5.69531H17.9484C17.9484 3.98323 16.5605 2.59531 14.8484 2.59531V3.79531Z" fill="#8E8B9E"/>
<path d="M12.3484 8.19531V8.79531C12.6798 8.79531 12.9484 8.52668 12.9484 8.19531H12.3484ZM11.7484 5.69531V8.19531H12.9484V5.69531H11.7484ZM12.3484 7.59531H9.84839V8.79531H12.3484V7.59531ZM9.84839 7.59531C8.79905 7.59531 7.94839 6.74465 7.94839 5.69531H6.74839C6.74839 7.4074 8.13631 8.79531 9.84839 8.79531V7.59531ZM9.84839 3.79531C10.8977 3.79531 11.7484 4.64597 11.7484 5.69531H12.9484C12.9484 3.98323 11.5605 2.59531 9.84839 2.59531V3.79531ZM9.84839 2.59531C8.13631 2.59531 6.74839 3.98323 6.74839 5.69531H7.94839C7.94839 4.64597 8.79905 3.79531 9.84839 3.79531V2.59531Z" fill="#8E8B9E"/>
</svg>
