<svg width="27" height="30" viewBox="0 0 27 30" fill="none" xmlns="http://www.w3.org/2000/svg">
<g clip-path="url(#clip0_107_16767)">
<path d="M23.4011 11.5086C23.4011 11.5086 20.4499 5.83897 13.6432 5.90487V16.2198C13.9982 16.2557 14.2002 16.4764 14.4658 16.5198L14.3672 16.5777C14.5186 16.9061 14.4211 17.1949 14.5288 17.4483L14.4211 17.3878C14.2142 17.6771 13.9217 17.7424 13.7525 17.9509V17.8367C13.4104 17.8078 13.3093 17.525 13.0566 17.4746L12.9654 17.3599C12.75 16.8734 13.2666 16.561 12.6961 16.2262L4.16485 11.3506C4.16485 11.3506 0.728339 16.6168 4.11637 22.4884H4.12122C4.53442 23.1935 7.57336 28.007 13.6448 28.007H13.8301C13.8301 28.007 19.887 28.2786 23.3445 22.5023C23.3445 22.5023 26.7514 17.2501 23.4011 11.5086Z" fill="#12AE25"/>
<path d="M13.8204 7.1084H13.6553V8.86075H13.8204V7.1084Z" fill="#6D6BE6"/>
<path d="M13.8204 25.0479H13.6553V26.8002H13.8204V25.0479Z" fill="#6D6BE6"/>
<path d="M13.7581 7.10742H13.7168V7.91389H13.7581V7.10742Z" fill="#0B1938"/>
<path d="M13.7586 25.9941H13.7173V26.8006H13.7586V25.9941Z" fill="#6D6BE6"/>
<path d="M8.80261 8.41795L8.76685 8.43848L9.17217 9.13696L9.20793 9.11644L8.80261 8.41795Z" fill="#0B1938"/>
<path d="M18.3005 24.7724L18.2648 24.793L18.6702 25.4914L18.706 25.4709L18.3005 24.7724Z" fill="#0B1938"/>
<path d="M5.17104 12.0182L5.15039 12.0537L5.85258 12.4571L5.87323 12.4215L5.17104 12.0182Z" fill="#0B1938"/>
<path d="M21.6156 21.4596L21.595 21.4951L22.2972 21.8983L22.3179 21.8628L21.6156 21.4596Z" fill="#0B1938"/>
<path d="M4.65012 16.9336H3.83923V16.9747H4.65012V16.9336Z" fill="#0B1938"/>
<path d="M23.6366 16.9336H22.8257V16.9747H23.6366V16.9336Z" fill="#0B1938"/>
<path d="M5.17531 21.8949L5.15466 21.859L5.85705 21.4561L5.8777 21.4914L5.17531 21.8949Z" fill="#0B1938"/>
<path d="M22.3063 12.0102L21.6039 12.4131L21.6245 12.4487L22.327 12.0458L22.3063 12.0102Z" fill="#0B1938"/>
<path d="M8.87032 8.38174L8.72729 8.46387L9.60828 9.98145L9.75131 9.89932L8.87032 8.38174Z" fill="#6D6BE6"/>
<path d="M17.8654 23.9269L17.7228 24.0088L18.6035 25.5265L18.7461 25.4447L17.8654 23.9269Z" fill="#6D6BE6"/>
<path d="M5.21307 11.9535L5.13049 12.0957L6.6564 12.9719L6.73898 12.8296L5.21307 11.9535Z" fill="#6D6BE6"/>
<path d="M20.8314 20.9216L20.749 21.0635L22.2749 21.9397L22.3573 21.7978L20.8314 20.9216Z" fill="#6D6BE6"/>
<path d="M5.60072 16.8721H3.83923V17.0363H5.60072V16.8721Z" fill="#6D6BE6"/>
<path d="M23.6361 16.8721H21.8746V17.0363H23.6361V16.8721Z" fill="#6D6BE6"/>
<path d="M6.66086 20.926L5.13525 21.8027L5.21764 21.9445L6.74324 21.0678L6.66086 20.926Z" fill="#6D6BE6"/>
<path d="M22.2652 11.961L20.7391 12.8369L20.8217 12.9792L22.3478 12.1033L22.2652 11.961Z" fill="#6D6BE6"/>
<path d="M9.60169 23.918L8.7207 25.4355L8.86373 25.5177L9.74471 24.0001L9.60169 23.918Z" fill="#6D6BE6"/>
<path d="M18.6101 8.39401L17.7283 9.91113L17.8708 9.99309L18.7526 8.47597L18.6101 8.39401Z" fill="#6D6BE6"/>
<path d="M7.79089 13.4346L12.8694 17.2277C12.8869 17.3162 12.9178 17.4015 12.9611 17.4807C13.074 17.6867 13.2644 17.8397 13.4906 17.9063C13.7168 17.9728 13.9603 17.9473 14.1676 17.8355C14.3748 17.7233 14.5288 17.534 14.5957 17.309C14.6627 17.0841 14.6372 16.8419 14.5248 16.6356C14.4282 16.4587 14.2739 16.3198 14.0873 16.2417C13.9008 16.1636 13.6931 16.151 13.4983 16.2059L7.79089 13.4346ZM14.2723 16.7702C14.3488 16.9108 14.3661 17.0758 14.3205 17.229C14.2749 17.3823 14.17 17.5113 14.0289 17.5877C13.8876 17.6638 13.7217 17.6812 13.5677 17.6359C13.4136 17.5906 13.2839 17.4864 13.2069 17.3461C13.1304 17.2055 13.113 17.0406 13.1587 16.8873C13.2043 16.7341 13.3092 16.6051 13.4503 16.5286C13.5203 16.4907 13.5971 16.4669 13.6763 16.4585C13.7556 16.4501 13.8357 16.4574 13.9121 16.4798C13.9886 16.5023 14.0598 16.5395 14.1217 16.5893C14.1837 16.6391 14.2352 16.7006 14.2732 16.7702H14.2723Z" fill="#6D6BE6"/>
<path d="M13.7177 6.12582L13.1399 16.3998C13.0089 16.5192 12.9174 16.6755 12.8774 16.8481C12.8373 17.0208 12.8506 17.2018 12.9155 17.3674C12.9804 17.533 13.0939 17.6755 13.241 17.7762C13.3882 17.8769 13.5622 17.9312 13.7402 17.9318C13.9182 17.9325 14.092 17.8796 14.2387 17.78C14.3855 17.6803 14.4983 17.5387 14.5625 17.3736C14.6267 17.2085 14.6393 17.0276 14.5985 16.8547C14.5577 16.6817 14.4656 16.5248 14.3341 16.4044L13.7177 6.12582ZM14.2598 17.3514C14.2005 17.4539 14.112 17.5365 14.0054 17.5887C13.8988 17.6409 13.7788 17.6602 13.6608 17.6444C13.5427 17.6286 13.4317 17.5782 13.342 17.4997C13.2523 17.4212 13.1877 17.3181 13.1566 17.2034C13.1254 17.0887 13.1291 16.9676 13.167 16.8554C13.2049 16.7431 13.2755 16.6448 13.3697 16.5729C13.464 16.5009 13.5776 16.4586 13.6964 16.4512C13.8152 16.4437 13.9337 16.4716 14.037 16.5312C14.1754 16.6113 14.2766 16.7426 14.3183 16.8964C14.3601 17.0502 14.339 17.2138 14.2598 17.3514Z" fill="#2C2C2C"/>
<path d="M13.7177 6.12582L13.1399 16.3998C13.0089 16.5192 12.9174 16.6755 12.8774 16.8481C12.8373 17.0208 12.8506 17.2018 12.9155 17.3674C12.9804 17.533 13.0939 17.6755 13.241 17.7762C13.3882 17.8769 13.5622 17.9312 13.7402 17.9318C13.9182 17.9325 14.092 17.8796 14.2387 17.78C14.3855 17.6803 14.4983 17.5387 14.5625 17.3736C14.6267 17.2085 14.6393 17.0276 14.5985 16.8547C14.5577 16.6817 14.4656 16.5248 14.3341 16.4044L13.7177 6.12582ZM14.2598 17.3514C14.2005 17.4539 14.112 17.5365 14.0054 17.5887C13.8988 17.6409 13.7788 17.6602 13.6608 17.6444C13.5427 17.6286 13.4317 17.5782 13.342 17.4997C13.2523 17.4212 13.1877 17.3181 13.1566 17.2034C13.1254 17.0887 13.1291 16.9676 13.167 16.8554C13.2049 16.7431 13.2755 16.6448 13.3697 16.5729C13.464 16.5009 13.5776 16.4586 13.6964 16.4512C13.8152 16.4437 13.9337 16.4716 14.037 16.5312C14.1754 16.6113 14.2766 16.7426 14.3183 16.8964C14.3601 17.0502 14.339 17.2138 14.2598 17.3514Z" fill="black" fill-opacity="0.2"/>
<path d="M22.0312 7.1238L22.5943 6.35983L22.7033 6.4391C22.7288 6.45771 22.7577 6.47113 22.7883 6.47862C22.819 6.4861 22.8509 6.48749 22.8821 6.4827C22.9133 6.47791 22.9433 6.46703 22.9703 6.4507C22.9973 6.43437 23.0208 6.4129 23.0394 6.38753L23.5387 5.71046C23.5574 5.68515 23.5709 5.6564 23.5784 5.62589C23.586 5.59537 23.5874 5.56369 23.5825 5.53264C23.5777 5.50159 23.5668 5.47179 23.5504 5.44495C23.5339 5.41811 23.5124 5.39475 23.4868 5.37623L21.7926 4.13954C21.7671 4.12093 21.7382 4.10751 21.7075 4.10003C21.6769 4.09254 21.645 4.09116 21.6138 4.09595C21.5825 4.10074 21.5526 4.11161 21.5256 4.12795C21.4986 4.14428 21.4751 4.16574 21.4565 4.19112L20.9567 4.86866C20.938 4.89397 20.9245 4.92272 20.917 4.95323C20.9094 4.98375 20.908 5.01544 20.9129 5.04649C20.9177 5.07754 20.9286 5.10733 20.945 5.13418C20.9615 5.16102 20.983 5.18437 21.0086 5.20289L21.1824 5.32991L20.6178 6.09388C19.0711 5.12162 17.3331 4.48992 15.5205 4.24125V2.26066H16.0453C16.1089 2.26066 16.17 2.23551 16.215 2.19073C16.26 2.14596 16.2853 2.08524 16.2853 2.02192V0.596162C16.2853 0.532844 16.26 0.472126 16.215 0.427354C16.17 0.382581 16.1089 0.357422 16.0453 0.357422H11.2644C11.2008 0.357422 11.1397 0.382581 11.0947 0.427354C11.0497 0.472126 11.0244 0.532844 11.0244 0.596162V2.02192C11.0244 2.08524 11.0497 2.14596 11.0947 2.19073C11.1397 2.23551 11.2008 2.26066 11.2644 2.26066H11.9543V4.24125C5.67172 5.10502 0.83374 10.4662 0.83374 16.9518C0.83374 24.0395 6.6108 29.7855 13.7374 29.7855C20.864 29.7855 26.6411 24.0419 26.6411 16.9532C26.6428 15.0791 26.2308 13.2275 25.4343 11.5291C24.6377 9.83069 23.476 8.32686 22.0312 7.1238ZM13.7374 27.792C7.71983 27.792 2.83912 22.9404 2.83912 16.9556C2.83912 10.9709 7.71743 6.11967 13.7374 6.11967C19.7574 6.11967 24.6319 10.9694 24.6319 16.9532C24.6319 22.937 19.755 27.792 13.7374 27.792Z" fill="#6D6BE6"/>
</g>
<defs>
<clipPath id="clip0_107_16767">
<rect width="25.8078" height="29.43" fill="white" transform="translate(0.83374 0.357422)"/>
</clipPath>
</defs>
</svg>
