<svg width="14" height="15" viewBox="0 0 14 15" fill="none" xmlns="http://www.w3.org/2000/svg">
<line x1="0.5" y1="-0.5" x2="13.4805" y2="-0.5" transform="matrix(0.173648 0.984808 0.984808 -0.173648 8.60321 0.78125)" stroke="#2C2C2C" stroke-linecap="round"/>
<line x1="0.5" y1="-0.5" x2="13.4805" y2="-0.5" transform="matrix(0.173648 0.984808 0.984808 -0.173648 8.60321 0.78125)" stroke="black" stroke-opacity="0.2" stroke-linecap="round"/>
<line x1="0.5" y1="-0.5" x2="13.4805" y2="-0.5" transform="matrix(0.173648 0.984808 0.984808 -0.173648 4.26239 0.78125)" stroke="#2C2C2C" stroke-linecap="round"/>
<line x1="0.5" y1="-0.5" x2="13.4805" y2="-0.5" transform="matrix(0.173648 0.984808 0.984808 -0.173648 4.26239 0.78125)" stroke="black" stroke-opacity="0.2" stroke-linecap="round"/>
<line x1="0.5" y1="-0.5" x2="11.2442" y2="-0.5" transform="matrix(1 0 0 -1 1.81226 9.33984)" stroke="#2C2C2C" stroke-linecap="round"/>
<line x1="0.5" y1="-0.5" x2="11.2442" y2="-0.5" transform="matrix(1 0 0 -1 1.81226 9.33984)" stroke="black" stroke-opacity="0.2" stroke-linecap="round"/>
<line x1="0.5" y1="-0.5" x2="11.2442" y2="-0.5" transform="matrix(1 0 0 -1 0.818115 4.68359)" stroke="#2C2C2C" stroke-linecap="round"/>
<line x1="0.5" y1="-0.5" x2="11.2442" y2="-0.5" transform="matrix(1 0 0 -1 0.818115 4.68359)" stroke="black" stroke-opacity="0.2" stroke-linecap="round"/>
</svg>
