<svg width="24" height="17" viewBox="0 0 24 17" fill="none" xmlns="http://www.w3.org/2000/svg">
<path d="M23.4317 14.3365C23.2329 14.8426 22.8579 15.056 22.3195 15.0515C21.0839 15.041 19.8478 15.0478 18.6122 15.0483C18.3212 15.0483 18.3212 15.0483 18.3131 15.3315C18.2936 15.9993 17.7761 16.4959 17.0829 16.4977C15.3794 16.5007 13.6756 16.5007 11.9716 16.4977C10.4433 16.4977 8.91504 16.4977 7.38678 16.4977C6.66774 16.4977 6.23196 16.1518 6.08534 15.4536C6.05719 15.3175 5.98139 15.3175 5.88243 15.3175H4.56601C3.73258 15.3175 2.89778 15.2925 2.06572 15.3256C1.4302 15.3506 0.8882 14.9289 0.939949 14.1858C0.982619 13.5748 0.888201 12.9565 1.01349 12.3487C1.62994 9.35862 4.88376 7.84382 7.56881 9.30096C7.73086 9.38857 7.82347 9.38404 7.9601 9.25557C10.2411 7.08393 13.8127 6.9936 16.1968 9.04721C16.367 9.19384 16.4855 9.23197 16.702 9.10305C19.4052 7.49838 22.8447 9.0799 23.3976 12.1721C23.4067 12.2221 23.4203 12.2715 23.4321 12.321L23.4317 14.3365ZM12.1926 15.7269C13.7941 15.7269 15.3958 15.7269 16.9976 15.7269C17.3889 15.7269 17.5423 15.5739 17.5423 15.1822C17.5423 14.6048 17.5423 14.0269 17.5423 13.4491C17.5389 13.0172 17.4719 12.5881 17.3435 12.1758C16.4356 9.19429 13.3143 7.61867 10.3723 8.65274C9.35149 9.01382 8.46613 9.67962 7.83591 10.5601C7.20568 11.4406 6.86098 12.4934 6.84841 13.5762C6.84432 14.0882 6.84841 14.6002 6.84841 15.1118C6.84841 15.5921 6.97733 15.7269 7.45532 15.7269H12.1926ZM20.4393 14.2775H22.3459C22.5115 14.2775 22.6722 14.2507 22.6704 14.0419C22.6654 13.4518 22.7303 12.8567 22.625 12.2715C22.1607 9.71677 19.3462 8.49976 17.1551 9.71859C17.0085 9.79984 16.9962 9.86793 17.1001 10.0018C17.4156 10.4145 17.6751 10.867 17.8718 11.3478C18.2227 12.1853 18.3458 13.0591 18.3149 13.9615C18.3044 14.277 18.3149 14.2793 18.6195 14.2793L20.4393 14.2775ZM3.94411 14.5435C4.57236 14.5435 5.20107 14.5371 5.82932 14.5476C6.02088 14.5508 6.08307 14.4917 6.07989 14.2984C6.07263 13.8603 6.0522 13.4209 6.10032 12.9842C6.2072 11.9695 6.57537 10.9998 7.16889 10.1698C7.25968 10.0404 7.22245 9.98823 7.10034 9.92422C5.08667 8.84385 2.45883 9.97415 1.84419 12.1803C1.65581 12.8567 1.73071 13.5421 1.71573 14.228C1.70937 14.5004 1.7584 14.5435 2.03666 14.5458C2.67263 14.5449 3.30815 14.5435 3.94411 14.5435Z" fill="#0064A2" stroke="#0064A2" stroke-width="0.5"/>
<path d="M12.0664 7.19105C10.2243 7.19105 8.68229 5.68806 8.69046 3.8537C8.69954 1.90176 10.2792 0.501816 12.0682 0.5C13.9244 0.5 15.4541 2.01842 15.4487 3.85506C15.4414 5.67671 13.9076 7.1915 12.0664 7.19105ZM12.0759 1.2717C11.3915 1.26878 10.7338 1.53675 10.2463 2.01711C9.7588 2.49746 9.48114 3.15118 9.47396 3.83554C9.45852 5.11292 10.4726 6.39666 12.0827 6.41527C13.4899 6.43116 14.6597 5.25273 14.6702 3.85097C14.6806 2.44921 13.4949 1.27124 12.0759 1.2717Z" fill="#0064A2" stroke="#0064A2" stroke-width="0.5"/>
<path d="M21.6091 5.37673C21.6137 6.80982 20.4398 7.98279 18.9985 7.98552C17.5428 7.98824 16.3534 6.81844 16.3525 5.38354C16.3516 3.94865 17.5287 2.78112 18.9699 2.7793C20.4384 2.77703 21.6046 3.92504 21.6091 5.37673ZM20.8329 5.38672C20.8343 5.1448 20.7876 4.90502 20.6955 4.68131C20.6034 4.45761 20.4677 4.25444 20.2964 4.08363C20.1251 3.91282 19.9215 3.77776 19.6975 3.68633C19.4736 3.59489 19.2337 3.54889 18.9917 3.551C17.9708 3.551 17.1229 4.37852 17.1242 5.37446C17.1242 6.37948 17.9654 7.21246 18.9786 7.21337C19.2205 7.216 19.4605 7.17076 19.6849 7.08024C19.9093 6.98972 20.1135 6.85571 20.2859 6.68592C20.4582 6.51614 20.5953 6.31394 20.6892 6.09097C20.7831 5.868 20.8319 5.62865 20.8329 5.38672Z" fill="#0064A2" stroke="#0064A2" stroke-width="0.5"/>
<path d="M2.77832 5.54986C2.78513 4.09408 3.96355 2.94834 5.44611 2.9556C6.87375 2.96241 8.04446 4.154 8.03356 5.58844C8.02267 7.02289 6.83562 8.16953 5.36304 8.16046C4.67516 8.15364 4.01778 7.87559 3.53378 7.38674C3.04978 6.8979 2.77829 6.23777 2.77832 5.54986ZM3.55501 5.55939C3.55475 5.80138 3.60256 6.04102 3.69565 6.26439C3.78875 6.48777 3.92528 6.69042 4.09732 6.86061C4.26936 7.03079 4.47349 7.16512 4.69786 7.25578C4.92223 7.34645 5.16237 7.39165 5.40435 7.38876C6.42344 7.38876 7.2655 6.55896 7.2655 5.55757C7.2655 4.55619 6.42027 3.72503 5.40435 3.72684C4.37301 3.72957 3.55637 4.53894 3.55682 5.55939H3.55501Z" fill="#0064A2" stroke="#0064A2" stroke-width="0.5"/>
</svg>
