<svg width="20" height="19" viewBox="0 0 20 19" fill="none" xmlns="http://www.w3.org/2000/svg">
<path fill-rule="evenodd" clip-rule="evenodd" d="M0.6411 9.35523C0.6411 14.4362 4.76006 18.5552 9.84106 18.5552C14.9221 18.5552 19.041 14.4362 19.041 9.35523C19.041 4.27423 14.9221 0.155273 9.84106 0.155273C4.76006 0.155273 0.6411 4.27423 0.6411 9.35523ZM10.6651 11.1452V10.5446C10.6615 9.79817 10.23 9.23658 9.50388 9.04013C8.74362 8.83498 8.24785 8.38048 8.12464 7.57921C8.00078 6.77278 8.50364 5.97797 9.28874 5.72475C10.3651 5.37799 11.4357 6.04925 11.5789 7.16954C11.5986 7.32244 11.665 7.35792 11.8008 7.35631C12.2082 7.3518 12.6159 7.34825 13.0233 7.35631C13.1952 7.36051 13.2491 7.29599 13.2407 7.13051C13.1952 6.36667 12.9256 5.68927 12.4104 5.13057C11.4582 4.09835 10.2754 3.73352 8.92457 4.11319C7.60855 4.48285 6.79183 5.38153 6.50831 6.72343C6.16737 8.33628 7.1302 9.98494 8.71878 10.5243C8.95102 10.603 9.03392 10.7059 9.0165 10.9478C9.00309 11.1365 9.00584 11.3262 9.00859 11.516C9.01041 11.6411 9.01223 11.7663 9.00941 11.8913C9.00521 12.0597 9.07392 12.1171 9.2381 12.1171C9.63839 12.11 10.039 12.1081 10.4393 12.1171C10.6225 12.1213 10.6751 12.0446 10.668 11.8742C10.6607 11.7032 10.6623 11.5318 10.6638 11.3604C10.6644 11.2887 10.6651 11.2169 10.6651 11.1452ZM9.01319 14.1895C9.0128 14.1204 9.0124 14.0514 9.0124 13.9824C9.01256 13.8763 9.01296 13.7696 9.01336 13.6627C9.01377 13.5552 9.01417 13.4476 9.01433 13.3404C9.01337 13.2214 9.05465 13.1537 9.18755 13.1537C9.623 13.1569 10.0584 13.1569 10.4939 13.1537C10.6236 13.1527 10.6687 13.2101 10.6687 13.335C10.6649 13.763 10.6639 14.1914 10.6687 14.6194C10.6707 14.7585 10.6113 14.8094 10.4771 14.8094C10.0562 14.8056 9.63332 14.8046 9.214 14.8094C9.06562 14.811 9.00918 14.7468 9.0124 14.6033C9.01477 14.4655 9.01398 14.3275 9.01319 14.1895Z" fill="#8E8B9E"/>
</svg>
