<svg width="25" height="26" viewBox="0 0 25 26" fill="none" xmlns="http://www.w3.org/2000/svg">
<path d="M22.6805 10.0368C22.6805 9.34646 22.1209 8.78681 21.4305 8.78681C20.7401 8.78681 20.1805 9.34646 20.1805 10.0368H22.6805ZM5.1845 10.0368C5.1845 9.34646 4.62485 8.78681 3.9345 8.78681C3.24414 8.78681 2.6845 9.34646 2.6845 10.0368H5.1845ZM15.6984 23.4605L15.4061 22.2452H15.4061L15.6984 23.4605ZM9.66658 23.4605L9.95888 22.2452H9.95888L9.66658 23.4605ZM16.0766 4.28913L15.1818 5.16191L16.0766 4.28913ZM22.5877 12.7551C23.0697 13.2493 23.8611 13.2592 24.3553 12.7772C24.8495 12.2952 24.8594 11.5038 24.3774 11.0096L22.5877 12.7551ZM9.28839 4.28913L10.1832 5.16191L10.1832 5.16191L9.28839 4.28913ZM0.987655 11.0096C0.505634 11.5038 0.515517 12.2952 1.00973 12.7772C1.50394 13.2592 2.29534 13.2493 2.77736 12.7551L0.987655 11.0096ZM9.94462 20.5446L8.71534 20.318L8.71534 20.318L9.94462 20.5446ZM9.96782 20.4188L11.1971 20.6454V20.6454L9.96782 20.4188ZM15.3972 20.4188L14.1679 20.6454L14.1679 20.6454L15.3972 20.4188ZM15.4204 20.5447L16.6497 20.318L16.6497 20.318L15.4204 20.5447ZM15.0726 23.2709L13.9403 22.7416L13.9403 22.7416L15.0726 23.2709ZM13.8001 23.0413C13.5078 23.6667 13.7778 24.4107 14.4032 24.7031C15.0286 24.9954 15.7726 24.7254 16.0649 24.1L13.8001 23.0413ZM10.2924 23.2709L9.15999 23.8002L9.15999 23.8002L10.2924 23.2709ZM9.30012 24.1C9.59247 24.7254 10.3365 24.9954 10.9619 24.7031C11.5872 24.4107 11.8572 23.6667 11.5649 23.0413L9.30012 24.1ZM11.9158 18.2507L12.2556 19.4536L11.9158 18.2507ZM13.4492 18.2507L13.1094 19.4536H13.1094L13.4492 18.2507ZM20.1805 10.0368V16.0454H22.6805V10.0368H20.1805ZM5.1845 16.0454V10.0368H2.6845V16.0454H5.1845ZM15.4061 22.2452C13.6146 22.6761 11.7504 22.6761 9.95888 22.2452L9.37429 24.6759C11.5501 25.1992 13.8149 25.1992 15.9907 24.6759L15.4061 22.2452ZM9.95888 22.2452C7.18174 21.5773 5.1845 19.0239 5.1845 16.0454H2.6845C2.6845 20.1396 5.43545 23.7286 9.37429 24.6759L9.95888 22.2452ZM15.9907 24.6759C19.9295 23.7286 22.6805 20.1396 22.6805 16.0454H20.1805C20.1805 19.0239 18.1833 21.5773 15.4061 22.2452L15.9907 24.6759ZM15.1818 5.16191L22.5877 12.7551L24.3774 11.0096L16.9715 3.41636L15.1818 5.16191ZM8.39354 3.41636L0.987655 11.0096L2.77736 12.7551L10.1832 5.16191L8.39354 3.41636ZM16.9715 3.41636C16.1964 2.62163 15.5287 1.93322 14.9225 1.45907C14.2889 0.963408 13.5725 0.57843 12.6825 0.57843V3.07843C12.7867 3.07843 12.9673 3.10357 13.3822 3.42815C13.8246 3.77423 14.3569 4.31617 15.1818 5.16191L16.9715 3.41636ZM10.1832 5.16191C11.0081 4.31617 11.5404 3.77423 11.9828 3.42815C12.3978 3.10357 12.5784 3.07843 12.6825 3.07843V0.57843C11.7925 0.57843 11.0761 0.963406 10.4425 1.45906C9.83635 1.93322 9.16867 2.62163 8.39354 3.41636L10.1832 5.16191ZM11.1739 20.7713L11.1971 20.6454L8.73854 20.1921L8.71534 20.318L11.1739 20.7713ZM14.1679 20.6454L14.1911 20.7713L16.6497 20.318L16.6265 20.1921L14.1679 20.6454ZM13.9403 22.7416L13.8001 23.0413L16.0649 24.1L16.205 23.8002L13.9403 22.7416ZM9.15999 23.8002L9.30012 24.1L11.5649 23.0413L11.4248 22.7416L9.15999 23.8002ZM14.1911 20.7713C14.3144 21.4399 14.2258 22.1307 13.9403 22.7416L16.205 23.8002C16.7119 22.716 16.867 21.4964 16.6497 20.318L14.1911 20.7713ZM8.71534 20.318C8.49806 21.4964 8.65314 22.716 9.15999 23.8002L11.4248 22.7416C11.1392 22.1307 11.0506 21.4399 11.1739 20.7713L8.71534 20.318ZM12.2556 19.4536C12.5352 19.3746 12.8298 19.3746 13.1094 19.4536L13.789 17.0477C13.065 16.8432 12.3 16.8432 11.576 17.0477L12.2556 19.4536ZM16.6265 20.1921C16.35 18.6927 15.26 17.4632 13.789 17.0477L13.1094 19.4536C13.6378 19.6028 14.0592 20.0556 14.1679 20.6454L16.6265 20.1921ZM11.1971 20.6454C11.3059 20.0556 11.7272 19.6028 12.2556 19.4536L11.576 17.0477C10.105 17.4632 9.015 18.6927 8.73854 20.1921L11.1971 20.6454Z" fill="#6D6BE6"/>
</svg>
