<svg width="24" height="24" viewBox="0 0 24 24" fill="#8E8B9E" xmlns="http://www.w3.org/2000/svg">
<path d="M21.774 9.33338C21.774 8.91917 21.4382 8.58338 21.024 8.58338C20.6098 8.58338 20.274 8.91917 20.274 9.33338H21.774ZM4.278 9.33338C4.278 8.91917 3.94222 8.58338 3.528 8.58338C3.11379 8.58338 2.778 8.91917 2.778 9.33338H4.278ZM15.2919 22.7571L15.1165 22.0279H15.1165L15.2919 22.7571ZM9.26009 22.7571L9.43547 22.0279H9.43547L9.26009 22.7571ZM15.6701 3.5857L15.1332 4.10937L15.6701 3.5857ZM22.5391 11.7026C22.8283 11.9991 23.3032 12.005 23.5997 11.7158C23.8962 11.4266 23.9021 10.9518 23.6129 10.6552L22.5391 11.7026ZM8.8819 3.5857L9.41881 4.10937H9.41881L8.8819 3.5857ZM0.939102 10.6552C0.649889 10.9518 0.655819 11.4266 0.952347 11.7158C1.24887 12.005 1.72371 11.9991 2.01292 11.7026L0.939102 10.6552ZM9.53812 19.8412L8.80055 19.7052L8.80055 19.7052L9.53812 19.8412ZM9.56133 19.7153L10.2989 19.8513V19.8513L9.56133 19.7153ZM14.9907 19.7153L14.2531 19.8513V19.8513L14.9907 19.7153ZM15.0139 19.8412L15.7515 19.7052L15.7515 19.7052L15.0139 19.8412ZM14.6661 22.5675L13.9867 22.2499L13.9867 22.2499L14.6661 22.5675ZM13.8466 22.5496C13.6712 22.9249 13.8332 23.3713 14.2084 23.5467C14.5837 23.7221 15.03 23.5601 15.2054 23.1848L13.8466 22.5496ZM9.88588 22.5675L9.20645 22.8851L9.20645 22.8851L9.88588 22.5675ZM9.34658 23.1848C9.52199 23.5601 9.96838 23.7221 10.3436 23.5467C10.7189 23.3713 10.8809 22.9249 10.7054 22.5496L9.34658 23.1848ZM11.5093 17.5472L11.7132 18.269L11.5093 17.5472ZM13.0427 17.5472L12.8389 18.269L13.0427 17.5472ZM20.274 9.33338V15.3419H21.774V9.33338H20.274ZM4.278 15.3419V9.33338H2.778V15.3419H4.278ZM15.1165 22.0279C13.2481 22.4772 11.3039 22.4772 9.43547 22.0279L9.08472 23.4863C11.1837 23.9911 13.3683 23.9911 15.4673 23.4863L15.1165 22.0279ZM9.43547 22.0279C6.42599 21.3041 4.278 18.5436 4.278 15.3419H2.778C2.778 19.213 5.37822 22.5949 9.08472 23.4863L9.43547 22.0279ZM15.4673 23.4863C19.1738 22.5949 21.774 19.213 21.774 15.3419H20.274C20.274 18.5436 18.126 21.3041 15.1165 22.0279L15.4673 23.4863ZM15.1332 4.10937L22.5391 11.7026L23.6129 10.6552L16.207 3.06204L15.1332 4.10937ZM8.34499 3.06204L0.939102 10.6552L2.01292 11.7026L9.41881 4.10937L8.34499 3.06204ZM16.207 3.06204C15.422 2.25711 14.7814 1.59799 14.208 1.14945C13.6181 0.688011 13.0088 0.375 12.276 0.375V1.875C12.5373 1.875 12.8251 1.97211 13.2838 2.3309C13.7589 2.7026 14.3183 3.27383 15.1332 4.10937L16.207 3.06204ZM9.41881 4.10937C10.2337 3.27383 10.7931 2.7026 11.2683 2.3309C11.7269 1.97211 12.0147 1.875 12.276 1.875V0.375C11.5432 0.375 10.9339 0.688009 10.3441 1.14945C9.77068 1.59799 9.13006 2.25711 8.34499 3.06204L9.41881 4.10937ZM10.2757 19.9772L10.2989 19.8513L8.82376 19.5794L8.80055 19.7052L10.2757 19.9772ZM14.2531 19.8513L14.2763 19.9772L15.7515 19.7052L15.7283 19.5794L14.2531 19.8513ZM13.9867 22.2499L13.8466 22.5496L15.2054 23.1848L15.3456 22.8851L13.9867 22.2499ZM9.20645 22.8851L9.34658 23.1848L10.7054 22.5496L10.5653 22.2499L9.20645 22.8851ZM14.2763 19.9772C14.4184 20.7478 14.3165 21.5443 13.9867 22.2499L15.3456 22.8851C15.8082 21.8955 15.95 20.7817 15.7515 19.7052L14.2763 19.9772ZM8.80055 19.7052C8.60208 20.7817 8.74386 21.8955 9.20645 22.8851L10.5653 22.2499C10.2355 21.5443 10.1336 20.7478 10.2757 19.9772L8.80055 19.7052ZM11.7132 18.269C12.0817 18.1649 12.4704 18.1649 12.8389 18.269L13.2466 16.8255C12.6115 16.6461 11.9405 16.6461 11.3054 16.8255L11.7132 18.269ZM15.7283 19.5794C15.4854 18.2619 14.529 17.1877 13.2466 16.8255L12.8389 18.269C13.5557 18.4715 14.1108 19.0796 14.2531 19.8513L15.7283 19.5794ZM10.2989 19.8513C10.4412 19.0796 10.9963 18.4715 11.7132 18.269L11.3054 16.8255C10.023 17.1877 9.06668 18.2619 8.82376 19.5794L10.2989 19.8513Z"/>
</svg>
