<svg width="26" height="29" viewBox="0 0 26 29" fill="none" xmlns="http://www.w3.org/2000/svg">
<path d="M6.0518 7.50935C5.88174 7.2915 5.73833 7.12458 5.6106 6.94277C4.6138 5.49537 4.44845 3.95471 5.15765 2.34666C5.76811 0.962736 7.32209 0.152441 8.90585 0.300551C10.7419 0.473738 12.1141 1.34908 13.0145 2.95321C13.1297 3.15774 13.176 3.13815 13.2888 2.95321C14.0552 1.68605 15.1061 0.777795 16.5801 0.439258C17.5338 0.219836 18.4868 0.204162 19.4013 0.619497C20.7445 1.22683 21.4012 2.3255 21.5689 3.74548C21.7256 5.08239 21.3338 6.25864 20.4717 7.28601C20.4247 7.34243 20.3487 7.38632 20.3534 7.51327C20.9803 7.51327 21.5994 7.51327 22.2224 7.51327C22.7854 7.50984 23.3381 7.66402 23.8179 7.95838C24.8351 8.5853 25.3962 9.49512 25.3962 10.7012C25.4033 15.4219 25.3664 20.1441 25.4166 24.8649C25.4354 26.5889 24.1964 28.2957 21.9685 28.2831C18.2955 28.2628 14.6226 28.2777 10.9488 28.2777C8.72535 28.2777 6.50187 28.2777 4.27839 28.2777C3.19147 28.2777 2.26441 27.9062 1.5795 27.0324C1.14419 26.494 0.907337 25.8221 0.908697 25.1297C0.908697 20.3009 0.908697 15.472 0.908697 10.6432C0.908697 8.93873 2.33416 7.52737 4.0433 7.50857C4.69608 7.50386 5.34886 7.50935 6.0518 7.50935ZM12.129 17.8426C12.1533 15.1782 12.129 12.5137 12.1948 9.85403C12.2019 9.56487 12.129 9.46221 11.8226 9.46221C9.2867 9.47318 6.75081 9.46691 4.21492 9.47004C3.34036 9.47004 2.83021 9.9802 2.82943 10.8587C2.82943 15.5386 2.82943 20.2186 2.82943 24.8986C2.82943 25.8068 3.34899 26.3162 4.25489 26.3162H11.4809C12.1251 26.3162 12.1274 26.3162 12.1282 25.6532C12.1298 23.0515 12.13 20.4479 12.129 17.8426ZM14.1743 17.9758C14.1508 20.6284 14.1743 23.2819 14.1148 25.9345C14.1069 26.317 14.1148 26.3177 14.5066 26.3177C17.0232 26.3177 19.5395 26.3177 22.0555 26.3177C22.9583 26.3177 23.4755 25.806 23.4763 24.8954C23.4763 20.2353 23.4763 15.5749 23.4763 10.9143C23.4763 10.064 22.9771 9.44888 22.0234 9.46064C19.6348 9.49042 17.2431 9.47004 14.8569 9.47004C14.1775 9.47004 14.1743 9.47004 14.1743 10.1636C14.1733 12.7684 14.1733 15.3725 14.1743 17.9758ZM15.2714 7.52346C16.1632 7.55402 17.1216 7.42001 17.9837 6.91691C19.0745 6.28059 19.7461 5.36685 19.6583 4.0417C19.6089 3.29958 19.2978 2.68833 18.5612 2.40857C18.1358 2.25089 17.6763 2.20791 17.229 2.28397C16.1507 2.45481 15.3913 3.06762 14.8882 4.0127C14.3397 5.05026 14.183 6.17871 14.1281 7.33224C14.1203 7.507 14.2229 7.52346 14.3507 7.52346H15.2714ZM11.245 7.51013C11.4801 7.51013 11.7152 7.50308 11.9503 7.51013C12.1212 7.51719 12.1651 7.45058 12.1572 7.28444C12.1118 6.32055 11.9574 5.37861 11.6087 4.47662C11.0052 2.91873 9.91911 2.18758 8.29382 2.25654C7.64574 2.28397 7.15753 2.59586 6.87306 3.18674C6.64533 3.64793 6.5783 4.17201 6.68264 4.67567C6.92713 5.85506 7.66847 6.62696 8.74834 7.09323C9.53904 7.43804 10.3838 7.52189 11.2419 7.51013H11.245Z" fill="white"/>
</svg>
