<svg width="18" height="22" viewBox="0 0 18 22" fill="none" xmlns="http://www.w3.org/2000/svg">
<rect x="5.36409" y="0.251953" width="7.7049" height="3.08196" fill="#EEEDF7"/>
<path fill-rule="evenodd" clip-rule="evenodd" d="M9.2163 21.1656C13.8971 21.1656 17.6917 17.3711 17.6917 12.6902C17.6917 8.00941 13.8971 4.21484 9.2163 4.21484C4.53547 4.21484 0.740906 8.00941 0.740906 12.6902C0.740906 17.3711 4.53547 21.1656 9.2163 21.1656ZM13.8075 7.32236C13.6112 7.12814 13.2946 7.12984 13.1004 7.32614L8.69438 11.7795C8.50016 11.9758 8.50186 12.2924 8.69816 12.4866L9.03347 12.8184C9.22977 13.0126 9.54635 13.0109 9.74056 12.8146L14.1466 8.36119C14.3408 8.16489 14.3391 7.84831 14.1428 7.6541L13.8075 7.32236Z" fill="#EEEDF7"/>
</svg>
