<svg width="24" height="25" viewBox="0 0 24 25" fill="none" xmlns="http://www.w3.org/2000/svg">
<g filter="url(#filter0_d_177_38)">
<path d="M2.31021 8.61159C3.02538 5.52556 5.40594 3.11597 8.45479 2.39208C10.6566 1.8693 12.9481 1.86931 15.15 2.39209C18.1988 3.11597 20.5794 5.52557 21.2945 8.61159C21.811 10.8403 21.811 13.1597 21.2945 15.3884C20.5794 18.4744 18.1988 20.884 15.15 21.6079C12.9481 22.1307 10.6566 22.1307 8.45479 21.6079C5.40594 20.884 3.02538 18.4744 2.31021 15.3884C1.79373 13.1597 1.79373 10.8403 2.31021 8.61159Z" stroke="white" stroke-width="1.5"/>
<path d="M8.19654 8.27416L15.4226 15.5002M15.4226 8.27416L8.19654 15.5002" stroke="white" stroke-width="1.5" stroke-linecap="round"/>
</g>
<defs>
<filter id="filter0_d_177_38" x="0.672852" y="0.75" width="23.259" height="23.5" filterUnits="userSpaceOnUse" color-interpolation-filters="sRGB">
<feFlood flood-opacity="0" result="BackgroundImageFix"/>
<feColorMatrix in="SourceAlpha" type="matrix" values="0 0 0 0 0 0 0 0 0 0 0 0 0 0 0 0 0 0 127 0" result="hardAlpha"/>
<feOffset dx="0.5" dy="0.5"/>
<feGaussianBlur stdDeviation="0.5"/>
<feComposite in2="hardAlpha" operator="out"/>
<feColorMatrix type="matrix" values="0 0 0 0 0 0 0 0 0 0 0 0 0 0 0 0 0 0 0.15 0"/>
<feBlend mode="normal" in2="BackgroundImageFix" result="effect1_dropShadow_177_38"/>
<feBlend mode="normal" in="SourceGraphic" in2="effect1_dropShadow_177_38" result="shape"/>
</filter>
</defs>
</svg>
