<svg width="15" height="17" viewBox="0 0 15 17" fill="none" xmlns="http://www.w3.org/2000/svg">
<path d="M3.81617 5.05199C3.719 4.9275 3.63706 4.83212 3.56407 4.72824C2.99448 3.90117 2.89999 3.02081 3.30524 2.10195C3.65407 1.31115 4.54204 0.848132 5.44703 0.932765C6.4962 1.03173 7.28028 1.53191 7.79479 2.44854C7.86062 2.56541 7.88704 2.55421 7.95152 2.44854C8.38946 1.72446 8.98995 1.20547 9.83224 1.01202C10.3772 0.886642 10.9217 0.877686 11.4443 1.11502C12.2118 1.46205 12.587 2.08986 12.6829 2.90125C12.7724 3.66518 12.5485 4.33732 12.056 4.92437C12.0291 4.95661 11.9857 4.98169 11.9884 5.05423C12.3466 5.05423 12.7003 5.05423 13.0563 5.05423C13.378 5.05227 13.6938 5.14037 13.968 5.30857C14.5493 5.66681 14.8699 6.18669 14.8699 6.87584C14.8739 9.57333 14.8529 12.2717 14.8815 14.9692C14.8923 15.9543 14.1843 16.9296 12.9112 16.9225C10.8125 16.9108 8.71366 16.9193 6.61442 16.9193C5.34389 16.9193 4.07335 16.9193 2.80282 16.9193C2.18174 16.9193 1.652 16.7071 1.26063 16.2078C1.01189 15.9001 0.876545 15.5162 0.877323 15.1206C0.877323 12.3613 0.877323 9.60199 0.877323 6.8427C0.877323 5.86876 1.69185 5.06229 2.66848 5.05154C3.04149 5.04885 3.4145 5.05199 3.81617 5.05199ZM7.28879 10.9566C7.30267 9.43407 7.28879 7.91158 7.3264 6.39178C7.33043 6.22654 7.28879 6.16788 7.1137 6.16788C5.66465 6.17415 4.2156 6.17057 2.76655 6.17236C2.26682 6.17236 1.97531 6.46387 1.97486 6.96585C1.97486 9.64005 1.97486 12.3143 1.97486 14.9885C1.97486 15.5075 2.27174 15.7985 2.78939 15.7985H6.91847C7.28655 15.7985 7.28789 15.7985 7.28834 15.4197C7.28924 13.933 7.28939 12.4453 7.28879 10.9566ZM8.45752 11.0327C8.44409 12.5484 8.45752 14.0647 8.42349 15.5804C8.41901 15.799 8.42349 15.7994 8.64739 15.7994C10.0854 15.7994 11.5232 15.7994 12.961 15.7994C13.4768 15.7994 13.7723 15.507 13.7728 14.9867C13.7728 12.3238 13.7728 9.6608 13.7728 6.99764C13.7728 6.51179 13.4876 6.16027 12.9426 6.16699C11.5777 6.184 10.2111 6.17236 8.84755 6.17236C8.45931 6.17236 8.45752 6.17236 8.45752 6.56866C8.45693 8.05711 8.45693 9.54512 8.45752 11.0327ZM9.08443 5.06005C9.59402 5.07751 10.1417 5.00094 10.6342 4.71346C11.2576 4.34985 11.6413 3.82773 11.5912 3.07052C11.563 2.64646 11.3852 2.29718 10.9643 2.13732C10.7211 2.04722 10.4586 2.02266 10.203 2.06612C9.58685 2.16374 9.15294 2.51391 8.86546 3.05395C8.55201 3.64682 8.46245 4.29164 8.4311 4.95079C8.42663 5.05065 8.48529 5.06005 8.55828 5.06005H9.08443ZM6.78368 5.05244C6.91802 5.05244 7.05236 5.04841 7.18669 5.05244C7.28431 5.05647 7.30939 5.0184 7.30491 4.92347C7.27894 4.37269 7.19072 3.83445 6.99146 3.31904C6.64666 2.42883 6.02602 2.01104 5.0973 2.05045C4.72698 2.06612 4.44801 2.24434 4.28546 2.58198C4.15533 2.84551 4.11703 3.14498 4.17664 3.43278C4.31636 4.1067 4.73996 4.54778 5.35702 4.81421C5.80884 5.01124 6.29156 5.05915 6.78189 5.05244H6.78368Z" fill="white"/>
</svg>
