<svg width="50" height="29" viewBox="0 0 50 29" fill="none" xmlns="http://www.w3.org/2000/svg">
<mask id="mask0_531_10219" style="mask-type:alpha" maskUnits="userSpaceOnUse" x="0" y="0" width="50" height="29">
<rect x="0.505859" y="0.662109" width="48.6406" height="27.827" rx="4" fill="#ECE9E9"/>
</mask>
<g mask="url(#mask0_531_10219)">
<g filter="url(#filter0_d_531_10219)">
<rect x="0.449219" y="0.6875" width="48.6973" height="28.6136" rx="4" fill="#EEEDF7"/>
</g>
<path d="M31.4309 21.6243H18.1659C17.2515 21.6243 16.5078 20.8806 16.5078 19.9662V10.0175C16.5078 9.10304 17.2515 8.35938 18.1659 8.35938H31.4309C32.3453 8.35938 33.089 9.10304 33.089 10.0175V19.9662C33.089 20.8806 32.3453 21.6243 31.4309 21.6243ZM18.1659 9.18843C17.7091 9.18843 17.3369 9.56068 17.3369 10.0175V19.9662C17.3369 20.423 17.7091 20.7952 18.1659 20.7952H31.4309C31.8877 20.7952 32.2599 20.423 32.2599 19.9662V10.0175C32.2599 9.56068 31.8877 9.18843 31.4309 9.18843H18.1659Z" fill="white"/>
<path d="M31.4309 21.6243H18.1659C17.2515 21.6243 16.5078 20.8806 16.5078 19.9662V10.0175C16.5078 9.10304 17.2515 8.35938 18.1659 8.35938H31.4309C32.3453 8.35938 33.089 9.10304 33.089 10.0175V19.9662C33.089 20.8806 32.3453 21.6243 31.4309 21.6243ZM18.1659 9.18843C17.7091 9.18843 17.3369 9.56068 17.3369 10.0175V19.9662C17.3369 20.423 17.7091 20.7952 18.1659 20.7952H31.4309C31.8877 20.7952 32.2599 20.423 32.2599 19.9662V10.0175C32.2599 9.56068 31.8877 9.18843 31.4309 9.18843H18.1659Z" fill="black" fill-opacity="0.2"/>
<path d="M20.6523 14.1639C19.7378 14.1639 18.9941 13.4202 18.9941 12.5058C18.9941 11.5913 19.7378 10.8477 20.6523 10.8477C21.5667 10.8477 22.3104 11.5913 22.3104 12.5058C22.3104 13.4202 21.5667 14.1639 20.6523 14.1639ZM20.6523 11.6767C20.1954 11.6767 19.8232 12.049 19.8232 12.5058C19.8232 12.9626 20.1954 13.3348 20.6523 13.3348C21.1091 13.3348 21.4813 12.9626 21.4813 12.5058C21.4813 12.049 21.1091 11.6767 20.6523 11.6767Z" fill="white"/>
<path d="M20.6523 14.1639C19.7378 14.1639 18.9941 13.4202 18.9941 12.5058C18.9941 11.5913 19.7378 10.8477 20.6523 10.8477C21.5667 10.8477 22.3104 11.5913 22.3104 12.5058C22.3104 13.4202 21.5667 14.1639 20.6523 14.1639ZM20.6523 11.6767C20.1954 11.6767 19.8232 12.049 19.8232 12.5058C19.8232 12.9626 20.1954 13.3348 20.6523 13.3348C21.1091 13.3348 21.4813 12.9626 21.4813 12.5058C21.4813 12.049 21.1091 11.6767 20.6523 11.6767Z" fill="black" fill-opacity="0.2"/>
<path d="M16.9811 20.7375C16.875 20.7375 16.7689 20.6969 16.6877 20.6165C16.526 20.4548 16.526 20.192 16.6877 20.0303L20.6033 16.1147C21.0725 15.6454 21.8925 15.6454 22.3617 16.1147L23.5274 17.2803L26.7541 13.4086C26.9887 13.1276 27.3336 12.9643 27.7009 12.9609H27.71C28.0731 12.9609 28.4172 13.1185 28.6543 13.3945L32.9903 18.4534C33.1395 18.6267 33.1196 18.8887 32.9455 19.0379C32.7722 19.1872 32.5111 19.1681 32.361 18.9932L28.025 13.9343C27.9446 13.8414 27.8335 13.79 27.71 13.79C27.6238 13.7825 27.472 13.8422 27.3916 13.9392L23.8739 18.16C23.7993 18.2495 23.6907 18.3034 23.5738 18.3084C23.4561 18.3167 23.3442 18.2702 23.2621 18.1873L21.7756 16.7008C21.6189 16.545 21.3461 16.545 21.1894 16.7008L17.2738 20.6165C17.1934 20.6969 17.0873 20.7375 16.9811 20.7375Z" fill="white"/>
<path d="M16.9811 20.7375C16.875 20.7375 16.7689 20.6969 16.6877 20.6165C16.526 20.4548 16.526 20.192 16.6877 20.0303L20.6033 16.1147C21.0725 15.6454 21.8925 15.6454 22.3617 16.1147L23.5274 17.2803L26.7541 13.4086C26.9887 13.1276 27.3336 12.9643 27.7009 12.9609H27.71C28.0731 12.9609 28.4172 13.1185 28.6543 13.3945L32.9903 18.4534C33.1395 18.6267 33.1196 18.8887 32.9455 19.0379C32.7722 19.1872 32.5111 19.1681 32.361 18.9932L28.025 13.9343C27.9446 13.8414 27.8335 13.79 27.71 13.79C27.6238 13.7825 27.472 13.8422 27.3916 13.9392L23.8739 18.16C23.7993 18.2495 23.6907 18.3034 23.5738 18.3084C23.4561 18.3167 23.3442 18.2702 23.2621 18.1873L21.7756 16.7008C21.6189 16.545 21.3461 16.545 21.1894 16.7008L17.2738 20.6165C17.1934 20.6969 17.0873 20.7375 16.9811 20.7375Z" fill="black" fill-opacity="0.2"/>
</g>
<defs>
<filter id="filter0_d_531_10219" x="-1.55078" y="-0.3125" width="52.6973" height="32.6133" filterUnits="userSpaceOnUse" color-interpolation-filters="sRGB">
<feFlood flood-opacity="0" result="BackgroundImageFix"/>
<feColorMatrix in="SourceAlpha" type="matrix" values="0 0 0 0 0 0 0 0 0 0 0 0 0 0 0 0 0 0 127 0" result="hardAlpha"/>
<feOffset dy="1"/>
<feGaussianBlur stdDeviation="1"/>
<feComposite in2="hardAlpha" operator="out"/>
<feColorMatrix type="matrix" values="0 0 0 0 0 0 0 0 0 0 0 0 0 0 0 0 0 0 0.15 0"/>
<feBlend mode="normal" in2="BackgroundImageFix" result="effect1_dropShadow_531_10219"/>
<feBlend mode="normal" in="SourceGraphic" in2="effect1_dropShadow_531_10219" result="shape"/>
</filter>
</defs>
</svg>
