<svg width="23" height="23" viewBox="0 0 23 23" fill="none" xmlns="http://www.w3.org/2000/svg">
<path d="M19.5984 9.45318H20.0984C20.0984 9.30136 20.0294 9.15776 19.9109 9.06287L19.5984 9.45318ZM3.09839 9.45318L2.79682 9.05437C2.67184 9.14887 2.59839 9.2965 2.59839 9.45318H3.09839ZM11.0151 3.46676L11.3167 3.86557V3.86557L11.0151 3.46676ZM12.1409 3.48235L12.4534 3.09204V3.09204L12.1409 3.48235ZM19.0984 9.45318V18.6198H20.0984V9.45318H19.0984ZM18.6817 19.0365H4.01506V20.0365H18.6817V19.0365ZM3.59839 18.6198V9.45318H2.59839V18.6198H3.59839ZM3.39996 9.852L11.3167 3.86557L10.7136 3.06794L2.79682 9.05437L3.39996 9.852ZM11.8284 3.87266L19.2859 9.84349L19.9109 9.06287L12.4534 3.09204L11.8284 3.87266ZM11.3167 3.86557C11.4688 3.75056 11.6796 3.75347 11.8284 3.87266L12.4534 3.09204C11.9473 2.68682 11.2307 2.67689 10.7136 3.06794L11.3167 3.86557ZM4.01506 19.0365C3.78494 19.0365 3.59839 18.85 3.59839 18.6198H2.59839C2.59839 19.4023 3.23265 20.0365 4.01506 20.0365V19.0365ZM19.0984 18.6198C19.0984 18.85 18.9118 19.0365 18.6817 19.0365V20.0365C19.4641 20.0365 20.0984 19.4023 20.0984 18.6198H19.0984Z" fill="#8E8B9E"/>
<path d="M3.09839 9.45312L11.5841 14.9531L19.5984 9.45312" stroke="#8E8B9E" stroke-linecap="round" stroke-linejoin="round"/>
</svg>
