<svg width="44" height="37" viewBox="0 0 44 37" fill="none" xmlns="http://www.w3.org/2000/svg">
<path d="M40.4654 20.3961C40.4235 20.5026 40.3673 20.6048 40.293 20.6977L33.6875 28.9386C33.3546 29.3537 32.7827 29.4904 32.2982 29.2708L18.3003 22.9245C18.2985 22.9236 18.2968 22.9228 18.2949 22.922L4.3293 16.505C3.84347 16.2818 3.5722 15.7563 3.67145 15.231L5.638 4.81589C5.66072 4.69581 5.70287 4.58362 5.75858 4.48023C4.98851 3.78282 4.72069 2.63929 5.17694 1.64632C5.73988 0.42117 7.19444 -0.117525 8.41959 0.445412C9.64475 1.00835 10.1834 2.46291 9.62051 3.68807C9.30349 4.37802 8.70372 4.85007 8.02133 5.03044L9.58636 9.30558C9.98186 10.3861 10.8084 11.2812 11.854 11.7616C13.0903 12.3297 14.5388 12.2842 15.733 11.6416L23.438 7.49643C23.2204 6.90954 23.2265 6.23955 23.5079 5.62705C24.0709 4.40189 25.5254 3.8632 26.7506 4.42613C27.9757 4.98907 28.5144 6.44363 27.9515 7.66879C27.6785 8.26296 27.1948 8.69387 26.6302 8.91775C26.6306 8.92002 26.6316 8.92215 26.632 8.92457L28.4627 17.4724C28.7484 18.8064 29.6589 19.9428 30.8987 20.5125C31.9539 20.9974 33.135 21.0424 34.224 20.6389L38.5039 19.0539C38.1857 18.414 38.1475 17.6416 38.4684 16.9432C39.0314 15.718 40.4859 15.1793 41.7111 15.7423C42.9362 16.3052 43.4749 17.7598 42.912 18.9849C42.4679 19.9514 41.4688 20.4878 40.4654 20.3961ZM31.5365 33.0212C31.805 32.4369 31.5489 31.7455 30.9646 31.4771L3.59792 18.9025C3.01362 18.6341 2.32227 18.8901 2.0538 19.4744L0.887086 22.0136C0.618614 22.5979 0.874656 23.2892 1.45895 23.5577L28.8257 36.1322C29.41 36.4007 30.1013 36.1447 30.3698 35.5604L31.5365 33.0212Z" fill="#EEB217"/>
</svg>
