<svg width="21" height="22" viewBox="0 0 21 22" fill="none" stroke="#fff" xmlns="http://www.w3.org/2000/svg">
<path d="M16.221 6.08278V1.95311C16.2241 1.73168 16.1442 1.51802 15.9991 1.35908C15.8539 1.20014 15.6552 1.10892 15.4468 1.10547H5.00936C4.80088 1.10892 4.60223 1.20014 4.45704 1.35908C4.31186 1.51802 4.23202 1.73168 4.23507 1.95311V6.08278C4.23507 6.08278 4.19134 11.8643 8.40594 14.7106C8.51958 14.7886 8.613 14.8955 8.6776 15.0217C8.74221 15.148 8.77595 15.2894 8.77574 15.4331V18.5475C8.77745 18.7119 8.73357 18.8733 8.64956 19.0115C8.56554 19.1496 8.44512 19.2585 8.30327 19.3244C8.13698 19.3976 7.97924 19.4909 7.83319 19.6026C7.22289 20.0792 7.5385 21.1363 8.28806 21.1363H12.1676C12.9176 21.1363 13.2332 20.0792 12.6229 19.6026C12.4769 19.4909 12.3191 19.3976 12.1528 19.3244C12.011 19.2585 11.8906 19.1496 11.8065 19.0115C11.7225 18.8733 11.6787 18.7119 11.6804 18.5475V15.4331C11.6802 15.2894 11.7139 15.148 11.7785 15.0217C11.8431 14.8955 11.9365 14.7886 12.0502 14.7106C16.2648 11.8643 16.221 6.08278 16.221 6.08278Z" stroke="#8E8B9E" stroke-width="1.2" stroke-miterlimit="10"/>
<path d="M16.5373 3.90234H18.3549C18.3549 3.90234 19.6408 4.72626 18.2873 7.83714C16.9338 10.948 15.4713 10.2397 15.4713 10.2397" stroke="#8E8B9E" stroke-width="1.2" stroke-linecap="round" stroke-linejoin="round"/>
<path d="M4.01183 3.90234H2.19466C2.19466 3.90234 0.909948 4.72626 2.26225 7.83714C3.61455 10.948 5.07726 10.2397 5.07726 10.2397" stroke="#8E8B9E" stroke-width="1.2" stroke-linecap="round" stroke-linejoin="round"/>
</svg>
