<svg width="22" height="22" viewBox="0 0 22 22" fill="none" xmlns="http://www.w3.org/2000/svg">
<path d="M4.89761 4.06293H14.194V9.75697H15.356V4.06293C15.356 3.75473 15.2336 3.45916 15.0157 3.24123C14.7978 3.02331 14.5022 2.90088 14.194 2.90088H4.89761C4.58942 2.90088 4.29385 3.02331 4.07592 3.24123C3.85799 3.45916 3.73557 3.75473 3.73557 4.06293V18.0075C3.73557 18.3157 3.85799 18.6113 4.07592 18.8292C4.29385 19.0471 4.58942 19.1696 4.89761 19.1696H14.194C14.5022 19.1696 14.7978 19.0471 15.0157 18.8292C15.2336 18.6113 15.356 18.3157 15.356 18.0075H4.89761V4.06293Z" fill="#2C2C2C"/>
<path d="M4.89761 4.06293H14.194V9.75697H15.356V4.06293C15.356 3.75473 15.2336 3.45916 15.0157 3.24123C14.7978 3.02331 14.5022 2.90088 14.194 2.90088H4.89761C4.58942 2.90088 4.29385 3.02331 4.07592 3.24123C3.85799 3.45916 3.73557 3.75473 3.73557 4.06293V18.0075C3.73557 18.3157 3.85799 18.6113 4.07592 18.8292C4.29385 19.0471 4.58942 19.1696 4.89761 19.1696H14.194C14.5022 19.1696 14.7978 19.0471 15.0157 18.8292C15.2336 18.6113 15.356 18.3157 15.356 18.0075H4.89761V4.06293Z" fill="black" fill-opacity="0.2"/>
<path d="M17.1921 10.6168C17.0809 10.5216 16.938 10.4718 16.7917 10.4775C16.6455 10.4831 16.5068 10.5438 16.4033 10.6472C16.2998 10.7507 16.2392 10.8894 16.2336 11.0356C16.2279 11.1819 16.2777 11.3249 16.3729 11.436L18.3367 13.3592H9.91187C9.75777 13.3592 9.60998 13.4204 9.50102 13.5294C9.39206 13.6383 9.33084 13.7861 9.33084 13.9402C9.33084 14.0943 9.39206 14.2421 9.50102 14.3511C9.60998 14.46 9.75777 14.5212 9.91187 14.5212H18.3367L16.3729 16.5316C16.312 16.5837 16.2626 16.6478 16.2278 16.7199C16.1929 16.7919 16.1733 16.8705 16.1702 16.9505C16.1671 17.0305 16.1806 17.1103 16.2098 17.1848C16.239 17.2594 16.2833 17.3271 16.3399 17.3837C16.3966 17.4404 16.4643 17.4847 16.5388 17.5139C16.6134 17.5431 16.6932 17.5566 16.7732 17.5535C16.8532 17.5504 16.9317 17.5308 17.0038 17.4959C17.0759 17.4611 17.14 17.4117 17.1921 17.3508L20.5853 13.9809L17.1921 10.6168Z" fill="#2C2C2C"/>
<path d="M17.1921 10.6168C17.0809 10.5216 16.938 10.4718 16.7917 10.4775C16.6455 10.4831 16.5068 10.5438 16.4033 10.6472C16.2998 10.7507 16.2392 10.8894 16.2336 11.0356C16.2279 11.1819 16.2777 11.3249 16.3729 11.436L18.3367 13.3592H9.91187C9.75777 13.3592 9.60998 13.4204 9.50102 13.5294C9.39206 13.6383 9.33084 13.7861 9.33084 13.9402C9.33084 14.0943 9.39206 14.2421 9.50102 14.3511C9.60998 14.46 9.75777 14.5212 9.91187 14.5212H18.3367L16.3729 16.5316C16.312 16.5837 16.2626 16.6478 16.2278 16.7199C16.1929 16.7919 16.1733 16.8705 16.1702 16.9505C16.1671 17.0305 16.1806 17.1103 16.2098 17.1848C16.239 17.2594 16.2833 17.3271 16.3399 17.3837C16.3966 17.4404 16.4643 17.4847 16.5388 17.5139C16.6134 17.5431 16.6932 17.5566 16.7732 17.5535C16.8532 17.5504 16.9317 17.5308 17.0038 17.4959C17.0759 17.4611 17.14 17.4117 17.1921 17.3508L20.5853 13.9809L17.1921 10.6168Z" fill="black" fill-opacity="0.2"/>
</svg>
