<svg width="21" height="21" viewBox="0 0 21 21" fill="none" xmlns="http://www.w3.org/2000/svg">
<path d="M4.16488 3.45486H13.0538V8.89931H14.1649V3.45486C14.1649 3.16018 14.0478 2.87756 13.8394 2.66919C13.6311 2.46081 13.3485 2.34375 13.0538 2.34375H4.16488C3.8702 2.34375 3.58758 2.46081 3.37921 2.66919C3.17084 2.87756 3.05377 3.16018 3.05377 3.45486V16.7882C3.05377 17.0829 3.17084 17.3655 3.37921 17.5739C3.58758 17.7822 3.8702 17.8993 4.16488 17.8993H13.0538C13.3485 17.8993 13.6311 17.7822 13.8394 17.5739C14.0478 17.3655 14.1649 17.0829 14.1649 16.7882H4.16488V3.45486Z" fill="#8E8B9E"/>
<path d="M15.9205 9.72148C15.8142 9.63046 15.6775 9.5829 15.5377 9.5883C15.3978 9.59371 15.2652 9.65167 15.1663 9.75061C15.0673 9.84955 15.0094 9.98218 15.004 10.122C14.9986 10.2618 15.0461 10.3985 15.1371 10.5048L17.0149 12.3437H8.95936C8.81202 12.3437 8.67071 12.4022 8.56653 12.5064C8.46234 12.6106 8.40381 12.7519 8.40381 12.8993C8.40381 13.0466 8.46234 13.1879 8.56653 13.2921C8.67071 13.3963 8.81202 13.4548 8.95936 13.4548H17.0149L15.1371 15.377C15.079 15.4268 15.0318 15.4881 14.9984 15.557C14.9651 15.626 14.9463 15.701 14.9434 15.7776C14.9404 15.8541 14.9533 15.9304 14.9812 16.0017C15.0092 16.0729 15.0515 16.1377 15.1057 16.1918C15.1598 16.246 15.2246 16.2883 15.2959 16.3163C15.3671 16.3442 15.4434 16.3571 15.5199 16.3541C15.5965 16.3512 15.6715 16.3324 15.7405 16.2991C15.8094 16.2658 15.8707 16.2185 15.9205 16.1604L19.1649 12.9381L15.9205 9.72148Z" fill="#8E8B9E"/>
</svg>
