<svg width="72" height="78" viewBox="0 0 72 78" fill="none" xmlns="http://www.w3.org/2000/svg">
<path fill-rule="evenodd" clip-rule="evenodd" d="M27.9921 68.3184C20.8651 71.214 14.1963 72.3667 14.0981 75.1569V77.4356H37.6124C34.3568 74.443 31.0769 71.4855 27.9921 68.3184Z" fill="#FBCB22"/>
<path fill-rule="evenodd" clip-rule="evenodd" d="M56.4822 75.1574C56.3501 71.4121 44.382 71.3867 35.289 64.5566C34.0256 65.3966 32.7085 66.1529 31.3462 66.8208C31.4856 66.959 31.6237 67.0971 31.7643 67.2341C35.3072 70.7212 39.0477 74.0217 42.6645 77.4361H56.4822V75.1574Z" fill="#FBCB22"/>
<path d="M34.9209 74.9648H17.2804C17.2036 74.9648 17.1299 74.9954 17.0756 75.0497C17.0212 75.104 16.9907 75.1777 16.9907 75.2545C16.9907 75.3314 17.0212 75.4051 17.0756 75.4594C17.1299 75.5137 17.2036 75.5442 17.2804 75.5442H35.5512L34.9209 74.9648Z" fill="#ECA400"/>
<path d="M53.2989 74.9648H40.0146L40.6413 75.5442H53.2989C53.3758 75.5442 53.4494 75.5137 53.5038 75.4594C53.5581 75.4051 53.5886 75.3314 53.5886 75.2545C53.5886 75.1777 53.5581 75.104 53.5038 75.0497C53.4494 74.9954 53.3758 74.9648 53.2989 74.9648Z" fill="#ECA400"/>
<path fill-rule="evenodd" clip-rule="evenodd" d="M37.39 47.8422C36.5589 47.497 35.6554 47.3622 34.7598 47.4498C33.8641 47.5373 33.0039 47.8444 32.2554 48.344C31.5069 48.8435 30.8932 49.52 30.4687 50.3135C30.0441 51.107 29.8219 51.993 29.8218 52.8929C30.2299 53.5436 30.5904 54.2229 30.9005 54.9256C32.1393 53.6658 33.3546 52.3826 34.5464 51.076C35.5088 50.0191 36.4167 48.8955 37.39 47.8422Z" fill="#ECA400"/>
<path fill-rule="evenodd" clip-rule="evenodd" d="M40.7594 69.6317C40.7594 69.6317 39.6189 67.7821 38.608 64.6101C38.2722 63.5544 37.899 62.4599 37.8868 61.2623C37.8747 60.0648 38.2104 58.9594 38.5401 57.9146C39.5473 54.7062 40.7594 52.893 40.7594 52.893C40.7594 51.7197 39.7643 50.0325 39.1353 49.1416C38.9983 49.2822 38.865 49.4252 38.7341 49.5731C38.4177 49.9367 38.1074 50.3004 37.7911 50.664C36.4905 52.1536 34.0239 52.9827 32.6615 54.4153C31.8923 55.2234 31.1125 56.0234 30.3223 56.8153C30.6374 57.8237 32.704 60.1278 32.6931 61.2648C32.6822 62.4623 32.3088 63.5568 31.9719 64.6125C31.7295 65.3907 31.4689 66.0888 31.224 66.7009C31.4034 66.8791 31.5877 67.0585 31.7646 67.2367C33.3524 68.799 34.979 70.3238 36.6129 71.8425C38.8443 71.6292 40.7594 70.8947 40.7594 69.6317Z" fill="#ECA400"/>
<path d="M14.7203 40.3111C11.9035 40.3111 8.63449 39.5148 5.99338 37.2337C2.76926 34.4532 1.06143 30.1236 0.914772 24.3638C0.793565 19.4707 1.96565 15.9884 4.40676 14.0139C8.19571 10.951 13.4488 12.9655 13.6706 13.0528C14.5191 13.3885 14.9688 14.4272 14.667 15.3739C14.3652 16.3205 13.4319 16.8138 12.5822 16.4817C12.5252 16.4611 8.70358 15.0272 6.32427 16.9665C4.81403 18.1956 4.09525 20.6513 4.18737 24.2657C4.30858 28.8873 5.58734 32.2847 8.00058 34.3659C10.8841 36.8518 14.8149 37.0046 17.3045 36.3804C18.1856 36.1585 19.062 36.7731 19.262 37.7524C19.4619 38.7318 18.908 39.7051 18.0256 39.9269C16.9433 40.1876 15.8335 40.3167 14.7203 40.3111Z" fill="#ECA400"/>
<path d="M50.4799 40.7852C49.4596 40.3429 48.497 39.778 47.6134 39.1029C46.8946 38.5453 46.7782 37.4314 47.3552 36.6157C47.9321 35.8 48.9806 35.5878 49.6994 36.1454C51.7272 37.7211 55.3876 39.1574 59.0323 38.0399C62.0783 37.1041 64.6188 34.5079 66.5835 30.3238C68.1205 27.0512 68.4489 24.5143 67.5605 22.7811C66.1569 20.0466 62.0637 19.8297 62.0225 19.8273C61.111 19.7848 60.4565 18.9545 60.568 17.9691C60.6795 16.9837 61.4965 16.2141 62.4092 16.2492C62.6516 16.2589 68.2671 16.5256 70.5046 20.8551C71.947 23.6429 71.6233 27.3057 69.5434 31.7359C67.095 36.9478 63.7897 40.2289 59.7256 41.4797C56.373 42.5027 53.0592 41.9173 50.4799 40.7852Z" fill="#ECA400"/>
<path fill-rule="evenodd" clip-rule="evenodd" d="M64.2713 6.80408C63.544 5.65382 62.4229 4.89627 61.166 4.6987L44.5702 2.08789C44.7351 2.57759 44.864 3.07871 44.9557 3.58723C44.9859 3.76206 44.9969 3.93968 44.9884 4.1169C45.3653 4.689 45.735 5.26596 46.0793 5.85503C46.1706 6.01059 46.2315 6.18211 46.2586 6.36045C47.7047 8.49734 49.3119 10.5603 50.25 12.9723C50.8124 14.4171 51.0245 15.9589 50.7349 17.4922C50.4221 19.1333 49.5312 20.6169 48.4513 21.8665C46.3798 24.264 43.4975 25.7197 40.694 27.0942C39.3413 27.7584 37.9766 28.4044 36.6748 29.1632C36.3803 29.3341 36.0882 29.5111 35.8033 29.6977C35.7524 29.7305 35.5827 29.8468 35.5136 29.8929C35.4445 29.9389 35.2942 30.0553 35.2506 30.0892C35.0082 30.2759 34.7755 30.471 34.5537 30.6795C34.4591 30.768 34.3719 30.8625 34.2785 30.9522C34.2494 30.9874 34.2167 31.0213 34.19 31.0577C34.1828 31.0674 34.1767 31.0783 34.1694 31.0892C34.1827 31.0892 34.1609 31.1292 34.0579 31.2516C34.0033 31.3619 33.9476 31.4698 33.8979 31.5825L33.8882 31.6104C33.9246 31.6807 33.8543 31.7934 33.8179 31.8261L33.7997 31.8892C33.7997 31.9025 33.7937 31.9122 33.79 31.9231C33.79 31.9522 33.79 31.9934 33.79 32.0346C33.79 32.0758 33.8034 32.1292 33.8094 32.1558C33.8494 32.231 33.8809 32.317 33.9234 32.3885C33.9367 32.4091 33.9804 32.4685 34.0155 32.517C34.0507 32.5655 34.0979 32.6091 34.1136 32.6249C34.1876 32.7013 34.2664 32.774 34.3464 32.8443C34.4264 32.9146 34.544 33.0006 34.6421 33.0867L34.6761 33.1158C34.8761 33.237 35.076 33.3582 35.2821 33.4673C37.3026 34.5303 39.5704 35.0212 41.6709 35.8914C42.9453 36.426 44.1177 37.1768 45.1363 38.1107C46.1593 39.0368 47.1059 40.2682 47.0525 41.7215C46.9422 44.7081 43.7654 46.1432 41.5461 47.4607C40.9146 47.834 40.2892 48.2182 39.6843 48.6328C39.6843 48.6328 39.3656 48.863 39.3098 48.9043C39.1462 49.0255 38.985 49.154 38.825 49.2849C38.4553 49.5915 38.0977 49.9054 37.7244 50.2145C36.2085 51.4823 34.6668 52.7199 33.0992 53.9271L33.0386 53.9732C33.3137 54.0326 33.5913 54.0883 33.8725 54.132C46.9701 56.1925 60.4036 40.0985 63.8919 18.1927L65.0494 10.8342C65.2849 9.44095 65.0085 8.00953 64.2713 6.80408Z" fill="#FBCB22"/>
<path fill-rule="evenodd" clip-rule="evenodd" d="M43.1315 42.046C43.0903 42.0012 43.0673 41.9745 43.0551 41.9587C43.0295 41.9428 43.0049 41.9254 42.9812 41.9066C42.86 41.8169 42.7473 41.7188 42.6273 41.6303C41.6464 40.8769 40.517 40.3398 39.3135 40.0546C38.2226 39.7794 37.1124 39.6037 36.0069 39.4122C33.9137 39.0485 31.4592 38.7055 29.8957 37.125C27.937 35.1457 28.8678 31.9252 30.3902 30.004C32.1683 27.7678 34.7137 26.2127 37.0166 24.5788C38.2287 23.7207 39.4286 22.8419 40.5316 21.8432L40.7413 21.6504L40.7837 21.6092C40.905 21.488 41.0334 21.3571 41.1546 21.2286C41.3752 20.9935 41.5885 20.7523 41.7897 20.5014C41.9126 20.3511 42.0302 20.1972 42.1425 20.0396C42.2285 19.9184 42.3667 19.6832 42.2104 19.9499C42.3813 19.6578 42.557 19.3681 42.7145 19.0687C42.8212 18.8651 42.9061 18.6518 43.0115 18.4481L43.0176 18.4372C43.0418 18.3669 43.0661 18.2966 43.0891 18.2263C43.134 18.0821 43.1752 17.9354 43.2103 17.7888C43.2261 17.7245 43.2382 17.6676 43.2515 17.5973C43.2515 17.4239 43.2806 17.247 43.2891 17.0736C43.2891 17.0251 43.2891 16.9767 43.2891 16.9282C43.2503 16.6615 43.2128 16.3997 43.1594 16.1343C43.1602 16.1266 43.1602 16.1189 43.1594 16.1113C43.1594 16.1113 43.1594 16.104 43.1594 16.0979C43.1364 16.0349 43.117 15.9767 43.094 15.9076C43.0406 15.7585 42.9812 15.6119 42.917 15.4676C42.8528 15.3234 42.7837 15.1755 42.7097 15.0337C42.6807 14.9755 42.5885 14.8095 42.5885 14.8071C42.2415 14.2434 41.8538 13.7058 41.4285 13.1986C39.5147 10.8569 37.2324 8.85093 35.4458 6.40375C34.4458 5.32137 33.4471 4.23777 32.5719 3.04994C32.4843 2.92874 32.4125 2.79675 32.3586 2.65723H15.9592C13.3072 2.65723 11.1582 5.09834 11.1582 8.11156V15.4301C11.1582 35.1348 19.6246 51.5499 30.7938 55.0419C32.0738 53.7425 33.3283 52.4189 34.5573 51.0711C35.8118 49.6918 36.973 48.2009 38.3147 46.9004C39.4141 45.8313 40.6007 44.875 41.7789 43.8956C42.0213 43.6908 42.2697 43.4847 42.5061 43.2714C42.6067 43.1829 42.7025 43.0884 42.8031 42.9999C42.8419 42.9623 42.8806 42.9248 42.917 42.8787C43.0831 42.7017 43.2309 42.5151 43.3897 42.3296C43.2976 42.2399 43.2176 42.1418 43.1315 42.046Z" fill="#FBCB22"/>
<path fill-rule="evenodd" clip-rule="evenodd" d="M48.3847 21.8605C46.3314 24.2737 43.4612 25.7537 40.6722 27.15C39.3256 27.8251 37.9669 28.4833 36.6724 29.2517C36.3791 29.425 36.0893 29.6044 35.8057 29.7923C35.7548 29.8262 35.5863 29.9438 35.5173 29.9899L35.2555 30.1899C35.0131 30.3777 34.7839 30.5753 34.5633 30.785C34.47 30.8735 34.3827 30.9704 34.2906 31.0601C34.2627 31.0953 34.2301 31.1292 34.2034 31.1668L34.1828 31.1971C34.1961 31.1971 34.1755 31.2383 34.0725 31.3619C34.0191 31.471 33.9646 31.5801 33.9161 31.694L33.9052 31.7207C33.9428 31.791 33.8737 31.9049 33.8373 31.9377L33.8192 32.0007C33.8192 32.014 33.8131 32.0237 33.8106 32.0358C33.8082 32.048 33.8106 32.1049 33.8106 32.1461C33.8106 32.1873 33.824 32.2407 33.8301 32.2673C33.8713 32.3413 33.9028 32.4273 33.9513 32.4989C33.9646 32.5195 34.0082 32.5789 34.0446 32.6261C34.081 32.6734 34.1282 32.7182 34.144 32.734C34.2179 32.8104 34.2967 32.8819 34.3779 32.951C34.4591 33.02 34.5767 33.1061 34.6749 33.1861L34.7101 33.2152C34.9113 33.3364 35.1125 33.4576 35.3161 33.5606C37.3451 34.6067 39.6165 35.0806 41.7243 35.9375C42.3437 36.1896 42.9402 36.4945 43.5072 36.849C44.93 36.1709 46.205 35.2187 47.2592 34.0471C48.3134 32.8755 49.1262 31.5074 49.6508 30.0212C50.1755 28.535 50.4019 26.9598 50.3169 25.386C50.2319 23.8122 49.8372 22.2707 49.1555 20.8496C48.9155 21.2047 48.6525 21.5405 48.3847 21.8605Z" fill="#FEEDB4"/>
<path fill-rule="evenodd" clip-rule="evenodd" d="M34.5922 39.1628C32.8808 38.8392 31.1172 38.3592 29.8966 37.1253C27.9379 35.146 28.8688 31.9255 30.3911 30.0044C32.168 27.7669 34.7134 26.2118 37.0164 24.5779C38.2284 23.7198 39.4284 22.841 40.5314 21.8423L40.7411 21.6496L40.7835 21.6083C40.9047 21.4871 41.0332 21.3562 41.1544 21.2278C41.375 20.9926 41.5883 20.7514 41.7895 20.5005C41.9123 20.3502 42.0299 20.1963 42.1422 20.0387C42.2283 19.9175 42.3665 19.6824 42.2101 19.949C42.381 19.6569 42.5567 19.3672 42.7143 19.0678C42.821 18.8642 42.9058 18.6509 43.0113 18.4473L43.0173 18.4363C43.0416 18.366 43.0658 18.2957 43.0889 18.2254L43.1179 18.1236C41.6762 16.8828 39.9597 16.003 38.1104 15.5572C36.2612 15.1115 34.3323 15.1124 32.4835 15.5601C30.6347 16.0078 28.9191 16.8892 27.4786 18.1316C26.0381 19.3739 24.9142 20.9415 24.1997 22.7044C23.4853 24.4674 23.201 26.3752 23.3703 28.2698C23.5396 30.1645 24.1576 31.9917 25.1732 33.6001C26.1888 35.2085 27.5728 36.5519 29.2107 37.5192C30.8486 38.4866 32.6933 39.05 34.5922 39.1628Z" fill="#FEEDB4"/>
<path d="M51.4848 23.1942C51.907 25.9621 51.5393 28.793 50.4242 31.3612C49.3642 33.839 47.6245 35.9662 45.4062 37.4967C45.4952 37.5515 45.5767 37.6175 45.6487 37.6931C45.7278 37.7762 45.7954 37.8696 45.8498 37.9706C48.1174 36.373 49.8962 34.1766 50.9878 31.6267C52.15 28.9498 52.5372 26.0004 52.1054 23.1143C51.9093 23.1956 51.6951 23.2232 51.4848 23.1942Z" fill="#ECA400"/>
<path d="M35.2902 41.1834C36.9507 41.1844 38.598 40.8885 40.1543 40.3095C39.89 40.2186 39.6113 40.1374 39.3131 40.0671L39.0876 40.0125C36.9077 40.6613 34.5982 40.7425 32.3781 40.2482C30.1581 39.7539 28.1011 38.7006 26.4024 37.1882C24.7037 35.6759 23.4195 33.7546 22.6718 31.6066C21.924 29.4586 21.7374 27.1552 22.1296 24.9149C22.5219 22.6746 23.4801 20.5716 24.9133 18.8055C26.3464 17.0394 28.207 15.6688 30.3185 14.8236C32.4301 13.9784 34.7226 13.6868 36.9785 13.9762C39.2344 14.2657 41.3789 15.1268 43.2087 16.4777C43.1905 16.3686 43.1723 16.2595 43.1505 16.1504C43.1513 16.1428 43.1513 16.135 43.1505 16.1274C43.1505 16.1274 43.1505 16.1201 43.1505 16.1141C43.1275 16.051 43.1081 15.9928 43.085 15.9238C43.0341 15.7844 42.9784 15.6462 42.919 15.5092C41.097 14.3209 39.0227 13.5744 36.8613 13.3293C34.6998 13.0841 32.511 13.347 30.4692 14.097C28.4273 14.847 26.5887 16.0635 25.0999 17.6494C23.6111 19.2354 22.5133 21.1471 21.8937 23.2323C21.2741 25.3174 21.1499 27.5185 21.5311 29.6601C21.9123 31.8017 22.7883 33.8247 24.0893 35.5681C25.3903 37.3114 27.0804 38.7269 29.025 39.7017C30.9696 40.6766 33.1149 41.184 35.2902 41.1834Z" fill="#ECA400"/>
<path fill-rule="evenodd" clip-rule="evenodd" d="M34.5592 30.7776C34.4659 30.8673 34.3786 30.963 34.2865 31.0527C34.2574 31.0891 34.2247 31.123 34.1992 31.1606L34.1786 31.1909C34.192 31.1909 34.1714 31.2321 34.0684 31.3558C34.015 31.4648 33.9605 31.5739 33.9132 31.6879L33.9023 31.7145C33.9399 31.7848 33.8708 31.8988 33.8344 31.9315L33.8162 31.9945C33.8162 32.0078 33.8101 32.0175 33.8077 32.0297C33.8053 32.0418 33.8077 32.0988 33.8077 32.14C33.8077 32.1533 33.8077 32.1666 33.8077 32.1787L37.427 30.2867C37.5145 30.2407 37.6143 30.2236 37.7122 30.238C37.81 30.2524 37.9007 30.2974 37.9712 30.3667L41.2135 33.5411C41.2841 33.6099 41.3747 33.6546 41.4723 33.6688C41.5698 33.6831 41.6693 33.6661 41.7567 33.6204C41.844 33.5747 41.9147 33.5026 41.9587 33.4144C42.0026 33.3261 42.0175 33.2263 42.0014 33.129C41.7589 31.6648 41.3844 29.4831 41.2438 28.654C41.2276 28.557 41.2423 28.4573 41.2858 28.369C41.3293 28.2807 41.3994 28.2083 41.4862 28.1619L45.5079 26.059C45.5955 26.0132 45.6663 25.9408 45.7103 25.8522C45.7542 25.7637 45.7689 25.6635 45.7524 25.566C45.7358 25.4686 45.6888 25.3789 45.6181 25.3098C45.5474 25.2407 45.4566 25.1957 45.3588 25.1814L44.4801 25.0518C43.2462 25.819 41.9347 26.4868 40.6523 27.1341C39.3069 27.8104 37.9482 28.4674 36.6525 29.2407C36.3592 29.4152 36.0695 29.5946 35.7859 29.7837L35.4986 29.9813L35.2368 30.1813C35.0113 30.3703 34.7786 30.5679 34.5592 30.7776Z" fill="#FBCB22"/>
<path fill-rule="evenodd" clip-rule="evenodd" d="M28.1851 26.1925L31.6043 28.6761C33.2224 27.1149 35.1872 25.8774 36.998 24.595C36.6829 23.6253 36.1266 21.9127 35.7351 20.7067C35.7045 20.6128 35.6449 20.531 35.565 20.473C35.4851 20.415 35.3889 20.3838 35.2902 20.3838C35.1915 20.3838 35.0953 20.415 35.0154 20.473C34.9355 20.531 34.876 20.6128 34.8454 20.7067C34.3872 22.1187 33.7024 24.2217 33.443 25.0229C33.4127 25.117 33.3533 25.199 33.2733 25.2572C33.1934 25.3154 33.0971 25.3466 32.9982 25.3465H28.4602C28.3608 25.3458 28.2638 25.3769 28.1833 25.435C28.1027 25.4932 28.0427 25.5755 28.0121 25.67C27.9814 25.7646 27.9817 25.8664 28.0128 25.9608C28.0439 26.0551 28.1042 26.1371 28.1851 26.1949V26.1925Z" fill="#FBCB22"/>
<path opacity="0.85" d="M18.5259 36.1794C18.3275 36.1724 18.1361 36.1047 17.9774 35.9855C17.8187 35.8663 17.7005 35.7013 17.6386 35.5127C13.4387 24.2865 13.8812 13.6518 13.8969 13.2106C13.9248 12.6045 14.3818 12.1427 14.909 12.1755C15.4363 12.2082 15.8484 12.7221 15.8193 13.3257C15.8193 13.4627 15.3975 23.9374 19.4106 34.6643C19.6191 35.2194 19.3912 35.8618 18.9016 36.0982C18.784 36.1533 18.6556 36.181 18.5259 36.1794Z" fill="#FFDB76"/>
<path opacity="0.85" d="M22.8509 44.8276C22.6952 44.8248 22.5427 44.7829 22.4074 44.7059C22.272 44.6288 22.1583 44.5189 22.0765 44.3864C21.0475 42.8049 20.124 41.1574 19.3117 39.4545C19.0572 38.9236 19.2305 38.2594 19.6971 37.9709C20.1638 37.6824 20.7492 37.8788 21.0038 38.4097C21.7721 40.0233 22.6471 41.5838 23.6231 43.081C23.776 43.3185 23.84 43.6026 23.8036 43.8828C23.7672 44.163 23.6328 44.4212 23.4243 44.6118C23.2649 44.7496 23.0616 44.8261 22.8509 44.8276Z" fill="#FFDB76"/>
<path fill-rule="evenodd" clip-rule="evenodd" d="M32.5591 3.05482C32.4714 2.93363 32.3998 2.80164 32.3458 2.66211H11.3612C9.85092 2.66211 8.62793 4.00872 8.62793 5.66926C8.62793 7.33101 9.85092 8.67763 11.3612 8.67763H37.2995C36.6372 7.95059 36.0122 7.19045 35.4269 6.40014C34.4294 5.3214 33.433 4.24023 32.5591 3.05482Z" fill="#FFDB76"/>
<path fill-rule="evenodd" clip-rule="evenodd" d="M64.8939 5.02374L44.0596 0.916016C44.2053 1.41162 44.3147 1.91718 44.3869 2.42868C44.4109 2.60462 44.415 2.78272 44.399 2.95957C44.7541 3.545 45.102 4.13649 45.4268 4.73889C45.5119 4.8982 45.5662 5.07216 45.5868 5.25161C46.085 6.054 46.6062 6.84669 47.1067 7.64908L63.7303 10.9277C65.2115 11.2199 66.672 10.1351 66.9932 8.5036C67.3108 6.87457 66.3715 5.31585 64.8939 5.02374Z" fill="#FFDB76"/>
<path d="M34.2818 5.14648H13.0317C12.9016 5.15903 12.7807 5.21961 12.6928 5.31641C12.6048 5.41322 12.5562 5.53931 12.5562 5.67009C12.5562 5.80088 12.6048 5.92696 12.6928 6.02377C12.7807 6.12058 12.9016 6.18116 13.0317 6.1937H35.2357C34.9157 5.84584 34.5921 5.49799 34.2818 5.14648Z" fill="#ECA400"/>
<path d="M63.0818 7.07012L44.8037 3.54297C44.9749 4.02528 45.1912 4.49036 45.4498 4.93202L45.474 4.98291L62.8721 8.34037C63.0035 8.35908 63.137 8.32494 63.2433 8.24542C63.3497 8.16591 63.4202 8.04751 63.4394 7.91614C63.4939 7.63252 63.329 7.36707 63.0818 7.07012Z" fill="#ECA400"/>
</svg>
