<svg width="27" height="30" viewBox="0 0 27 30" fill="none" xmlns="http://www.w3.org/2000/svg">
<path d="M4.12755 9.7618L5.09275 10.0233H5.09275L4.12755 9.7618ZM10.5529 3.02568L10.2445 2.07441H10.2445L10.5529 3.02568ZM4.05782 10.0192L3.09262 9.75765L3.09262 9.75765L4.05782 10.0192ZM3.75696 16.3493L4.74262 16.1806V16.1806L3.75696 16.3493ZM3.79197 16.5538L2.80631 16.7226L2.80631 16.7226L3.79197 16.5538ZM4.53167 23.4889L4.73129 22.509L4.53167 23.4889ZM5.10349 23.6054L5.30311 22.6255H5.30311L5.10349 23.6054ZM21.7318 23.6054L21.5322 22.6255H21.5322L21.7318 23.6054ZM22.3036 23.4889L22.5032 24.4688L22.3036 23.4889ZM23.05 16.5146L24.0357 16.6834V16.6834L23.05 16.5146ZM23.0872 16.2977L22.1015 16.129V16.129L23.0872 16.2977ZM22.8159 10.063L21.8486 10.3168V10.3168L22.8159 10.063ZM22.7188 9.69298L23.686 9.43921V9.43921L22.7188 9.69298ZM16.4775 3.03525L16.7911 2.0857L16.4775 3.03525ZM23.3001 17.0234L22.8118 17.8961L23.3001 17.0234ZM3.56782 17.0054L3.08893 16.1275L3.56782 17.0054ZM14.4176 1C14.4176 0.447715 13.9699 0 13.4176 0C12.8654 0 12.4176 0.447715 12.4176 1H14.4176ZM12.4176 2.56293C12.4176 3.11521 12.8654 3.56293 13.4176 3.56293C13.9699 3.56293 14.4176 3.11521 14.4176 2.56293H12.4176ZM8.76513 24.1831L8.87685 23.1893L7.68041 23.0548L7.76777 24.2556L8.76513 24.1831ZM18.0702 24.1831L19.0675 24.2556L19.1549 23.0548L17.9584 23.1893L18.0702 24.1831ZM17.929 25.0757L18.9001 25.3144L17.929 25.0757ZM17.8015 25.5942L16.8304 25.3554V25.3554L17.8015 25.5942ZM14.5126 28.8708L14.7452 29.8434L14.7452 29.8434L14.5126 28.8708ZM12.3227 28.8708L12.0901 29.8434L12.3227 28.8708ZM9.03381 25.5942L8.06274 25.833L9.03381 25.5942ZM8.9063 25.0757L9.87738 24.8369L8.9063 25.0757ZM5.09275 10.0233C5.866 7.16947 8.05611 4.88625 10.8613 3.97695L10.2445 2.07441C6.80144 3.19051 4.11366 5.98927 3.16235 9.50028L5.09275 10.0233ZM5.02301 10.2807L5.09275 10.0233L3.16235 9.50028L3.09262 9.75765L5.02301 10.2807ZM4.74262 16.1806C4.40641 14.2169 4.50213 12.2031 5.02301 10.2807L3.09262 9.75765C2.49572 11.9606 2.38606 14.2681 2.7713 16.5181L4.74262 16.1806ZM4.77763 16.3851L4.74262 16.1806L2.7713 16.5181L2.80631 16.7226L4.77763 16.3851ZM2.75098 20.0717C2.75098 19.1262 3.27439 18.3046 4.04671 17.8833L3.08893 16.1275C1.69692 16.8869 0.750977 18.3688 0.750977 20.0717H2.75098ZM4.73129 22.509C3.58234 22.275 2.75098 21.2582 2.75098 20.0717H0.750977C0.750977 22.2024 2.24531 24.0437 4.33205 24.4688L4.73129 22.509ZM5.30311 22.6255L4.73129 22.509L4.33205 24.4688L4.90387 24.5853L5.30311 22.6255ZM21.5322 22.6255C16.177 23.7165 10.6583 23.7165 5.30311 22.6255L4.90387 24.5853C10.5225 25.7299 16.3127 25.7299 21.9314 24.5853L21.5322 22.6255ZM22.104 22.509L21.5322 22.6255L21.9314 24.5853L22.5032 24.4688L22.104 22.509ZM24.0843 20.0717C24.0843 21.2582 23.2529 22.275 22.104 22.509L22.5032 24.4688C24.59 24.0437 26.0843 22.2024 26.0843 20.0717H24.0843ZM22.8118 17.8961C23.5714 18.3212 24.0843 19.1358 24.0843 20.0717H26.0843C26.0843 18.386 25.1573 16.9168 23.7884 16.1508L22.8118 17.8961ZM22.1015 16.129L22.0644 16.3459L24.0357 16.6834L24.0728 16.4665L22.1015 16.129ZM21.8486 10.3168C22.3463 12.2136 22.4325 14.1957 22.1015 16.129L24.0728 16.4665C24.4519 14.2522 24.3532 11.9819 23.7831 9.80927L21.8486 10.3168ZM21.7515 9.94676L21.8486 10.3168L23.7831 9.80927L23.686 9.43921L21.7515 9.94676ZM16.1639 3.98481C18.9094 4.89154 21.0137 7.1345 21.7515 9.94676L23.686 9.43921C22.7771 5.97477 20.1831 3.20592 16.7911 2.0857L16.1639 3.98481ZM10.8613 3.97696C12.5814 3.41937 14.4514 3.41922 16.1639 3.98481L16.7911 2.0857C14.6704 1.38529 12.3646 1.38719 10.2445 2.07441L10.8613 3.97696ZM23.7884 16.1508C23.9538 16.2433 24.0767 16.444 24.0357 16.6834L22.0644 16.3459C21.9534 16.994 22.2857 17.6017 22.8118 17.8961L23.7884 16.1508ZM2.80631 16.7226C2.76139 16.4602 2.89645 16.2325 3.08893 16.1275L4.04671 17.8833C4.56255 17.6019 4.88493 17.0118 4.77763 16.3851L2.80631 16.7226ZM12.4176 1V2.56293H14.4176V1H12.4176ZM8.65341 25.1768C11.8197 25.5328 15.0156 25.5328 18.1819 25.1768L17.9584 23.1893C14.9407 23.5286 11.8946 23.5286 8.87685 23.1893L8.65341 25.1768ZM18.9001 25.3144C18.9856 24.9666 19.0416 24.6124 19.0675 24.2556L17.0728 24.1105C17.055 24.3553 17.0166 24.5983 16.9579 24.8369L18.9001 25.3144ZM18.7725 25.833L18.9001 25.3144L16.9579 24.8369L16.8304 25.3554L18.7725 25.833ZM14.7452 29.8434C16.7315 29.3682 18.2842 27.8192 18.7725 25.833L16.8304 25.3554C16.5198 26.6185 15.5342 27.5982 14.2799 27.8983L14.7452 29.8434ZM12.0901 29.8434C12.9629 30.0522 13.8724 30.0522 14.7452 29.8434L14.2799 27.8983C13.713 28.0339 13.1223 28.0339 12.5554 27.8983L12.0901 29.8434ZM8.06274 25.833C8.55113 27.8192 10.1037 29.3682 12.0901 29.8434L12.5554 27.8983C11.3011 27.5982 10.3155 26.6185 10.0049 25.3554L8.06274 25.833ZM7.93523 25.3144L8.06274 25.833L10.0049 25.3554L9.87738 24.8369L7.93523 25.3144ZM7.76777 24.2556C7.79373 24.6124 7.8497 24.9666 7.93523 25.3144L9.87738 24.8369C9.81871 24.5983 9.78031 24.3553 9.7625 24.1105L7.76777 24.2556Z" fill="white"/>
</svg>
