<svg width="15" height="18" viewBox="0 0 15 18" fill="none" xmlns="http://www.w3.org/2000/svg">
<path d="M2.11817 6.413L2.60077 6.54376L2.11817 6.413ZM5.7898 2.56378L5.63562 2.08815L5.7898 2.56378ZM2.07833 6.56006L1.59573 6.4293L1.59573 6.4293L2.07833 6.56006ZM1.90641 10.1773L2.39924 10.0929L1.90641 10.1773ZM1.92641 10.2941L1.43358 10.3785L1.43358 10.3785L1.92641 10.2941ZM2.3491 14.2571L2.44891 13.7671H2.44891L2.3491 14.2571ZM2.67585 14.3236L2.77566 13.8337H2.77566L2.67585 14.3236ZM12.1777 14.3236L12.0779 13.8337L12.1777 14.3236ZM12.5045 14.2571L12.6043 14.747L12.5045 14.2571ZM12.931 10.2717L13.4238 10.3561L12.931 10.2717ZM12.9522 10.1478L12.4594 10.0634V10.0634L12.9522 10.1478ZM12.7972 6.58513L12.3136 6.71202V6.71202L12.7972 6.58513ZM12.7417 6.37367L13.2254 6.24678V6.24678L12.7417 6.37367ZM9.17531 2.56925L9.33211 2.09447L9.17531 2.56925ZM13.0739 10.5625L12.8297 10.9988L13.0739 10.5625ZM1.79833 10.5522L1.55888 10.1133L1.79833 10.5522ZM7.9268 1.40625C7.9268 1.13011 7.70294 0.90625 7.4268 0.90625C7.15066 0.90625 6.9268 1.13011 6.9268 1.40625H7.9268ZM6.9268 2.29935C6.9268 2.57549 7.15066 2.79935 7.4268 2.79935C7.70294 2.79935 7.9268 2.57549 7.9268 2.29935H6.9268ZM4.76822 14.6537L4.82408 14.1568L4.22586 14.0896L4.26954 14.69L4.76822 14.6537ZM10.0854 14.6537L10.5841 14.69L10.6277 14.0896L10.0295 14.1568L10.0854 14.6537ZM10.0047 15.1638L10.4902 15.2832L10.0047 15.1638ZM9.93184 15.4601L9.44631 15.3407L9.93184 15.4601ZM8.05247 17.3324L8.1688 17.8187H8.1688L8.05247 17.3324ZM6.80113 17.3324L6.6848 17.8187L6.80113 17.3324ZM4.92175 15.4601L4.43621 15.5795V15.5795L4.92175 15.4601ZM4.84889 15.1638L5.33443 15.0444L4.84889 15.1638ZM2.60077 6.54376C3.04899 4.88951 4.31826 3.5664 5.94398 3.03942L5.63562 2.08815C3.69092 2.71853 2.17282 4.29941 1.63557 6.28223L2.60077 6.54376ZM2.56092 6.69082L2.60077 6.54376L1.63558 6.28223L1.59573 6.4293L2.56092 6.69082ZM2.39924 10.0929C2.20537 8.96061 2.26056 7.79938 2.56092 6.69082L1.59573 6.4293C1.25736 7.67813 1.19519 8.98619 1.41358 10.2617L2.39924 10.0929ZM2.41924 10.2098L2.39924 10.0929L1.41358 10.2617L1.43358 10.3785L2.41924 10.2098ZM1.26013 12.3044C1.26013 11.737 1.57432 11.2439 2.03777 10.9911L1.55888 10.1133C0.785583 10.5351 0.260132 11.3583 0.260132 12.3044H1.26013ZM2.44891 13.7671C1.75888 13.6265 1.26013 13.0161 1.26013 12.3044H0.260132C0.260132 13.4882 1.09036 14.5109 2.24929 14.747L2.44891 13.7671ZM2.77566 13.8337L2.44891 13.7671L2.24929 14.747L2.57604 14.8136L2.77566 13.8337ZM12.0779 13.8337C9.0084 14.459 5.8452 14.459 2.77566 13.8337L2.57604 14.8136C5.7773 15.4657 9.07629 15.4657 12.2776 14.8136L12.0779 13.8337ZM12.4047 13.7671L12.0779 13.8337L12.2776 14.8136L12.6043 14.747L12.4047 13.7671ZM13.5935 12.3044C13.5935 13.0161 13.0947 13.6265 12.4047 13.7671L12.6043 14.747C13.7632 14.5109 14.5935 13.4882 14.5935 12.3044H13.5935ZM12.8297 10.9988C13.2856 11.2539 13.5935 11.7428 13.5935 12.3044H14.5935C14.5935 11.3679 14.0785 10.5517 13.3181 10.1262L12.8297 10.9988ZM12.4594 10.0634L12.4382 10.1874L13.4238 10.3561L13.4451 10.2322L12.4594 10.0634ZM12.3136 6.71202C12.6005 7.80575 12.6503 8.94869 12.4594 10.0634L13.4451 10.2322C13.66 8.97693 13.604 7.68992 13.2808 6.45825L12.3136 6.71202ZM12.2581 6.50056L12.3136 6.71202L13.2808 6.45825L13.2254 6.24678L12.2581 6.50056ZM9.0185 3.04403C10.6104 3.56978 11.8304 4.87026 12.2581 6.50056L13.2254 6.24678C12.7121 4.29039 11.2473 2.72698 9.33211 2.09447L9.0185 3.04403ZM5.94398 3.03942C6.94119 2.71617 8.02533 2.71602 9.0185 3.04403L9.33211 2.09447C8.13482 1.69905 6.8328 1.70008 5.63562 2.08815L5.94398 3.03942ZM13.3181 10.1262C13.3879 10.1652 13.4418 10.251 13.4238 10.3561L12.4382 10.1874C12.3802 10.5261 12.5539 10.8444 12.8297 10.9988L13.3181 10.1262ZM1.43358 10.3785C1.41335 10.2604 1.47419 10.1595 1.55888 10.1133L2.03777 10.9911C2.30724 10.8441 2.47512 10.5361 2.41924 10.2098L1.43358 10.3785ZM6.9268 1.40625V2.29935H7.9268V1.40625H6.9268ZM4.71236 15.1506C6.51634 15.3534 8.33726 15.3534 10.1412 15.1506L10.0295 14.1568C8.29979 14.3513 6.55381 14.3513 4.82408 14.1568L4.71236 15.1506ZM10.4902 15.2832C10.5382 15.0883 10.5695 14.8899 10.5841 14.69L9.58669 14.6174C9.57623 14.7613 9.55365 14.9041 9.51917 15.0444L10.4902 15.2832ZM10.4174 15.5795L10.4902 15.2832L9.51917 15.0444L9.44631 15.3407L10.4174 15.5795ZM8.1688 17.8187C9.27769 17.5535 10.1447 16.6886 10.4174 15.5795L9.44631 15.3407C9.26249 16.0883 8.67901 16.6685 7.93614 16.8462L8.1688 17.8187ZM6.6848 17.8187C7.17264 17.9354 7.68096 17.9354 8.1688 17.8187L7.93614 16.8462C7.60125 16.9263 7.25235 16.9263 6.91745 16.8462L6.6848 17.8187ZM4.43621 15.5795C4.70894 16.6886 5.57591 17.5535 6.6848 17.8187L6.91745 16.8462C6.17459 16.6685 5.59111 16.0883 5.40729 15.3407L4.43621 15.5795ZM4.36335 15.2832L4.43621 15.5795L5.40729 15.3407L5.33443 15.0444L4.36335 15.2832ZM4.26954 14.69C4.28408 14.8899 4.31544 15.0883 4.36335 15.2832L5.33443 15.0444C5.29994 14.9041 5.27737 14.7613 5.2669 14.6174L4.26954 14.69Z" fill="#2C2C2C"/>
<path d="M2.11817 6.413L2.60077 6.54376L2.11817 6.413ZM5.7898 2.56378L5.63562 2.08815L5.7898 2.56378ZM2.07833 6.56006L1.59573 6.4293L1.59573 6.4293L2.07833 6.56006ZM1.90641 10.1773L2.39924 10.0929L1.90641 10.1773ZM1.92641 10.2941L1.43358 10.3785L1.43358 10.3785L1.92641 10.2941ZM2.3491 14.2571L2.44891 13.7671H2.44891L2.3491 14.2571ZM2.67585 14.3236L2.77566 13.8337H2.77566L2.67585 14.3236ZM12.1777 14.3236L12.0779 13.8337L12.1777 14.3236ZM12.5045 14.2571L12.6043 14.747L12.5045 14.2571ZM12.931 10.2717L13.4238 10.3561L12.931 10.2717ZM12.9522 10.1478L12.4594 10.0634V10.0634L12.9522 10.1478ZM12.7972 6.58513L12.3136 6.71202V6.71202L12.7972 6.58513ZM12.7417 6.37367L13.2254 6.24678V6.24678L12.7417 6.37367ZM9.17531 2.56925L9.33211 2.09447L9.17531 2.56925ZM13.0739 10.5625L12.8297 10.9988L13.0739 10.5625ZM1.79833 10.5522L1.55888 10.1133L1.79833 10.5522ZM7.9268 1.40625C7.9268 1.13011 7.70294 0.90625 7.4268 0.90625C7.15066 0.90625 6.9268 1.13011 6.9268 1.40625H7.9268ZM6.9268 2.29935C6.9268 2.57549 7.15066 2.79935 7.4268 2.79935C7.70294 2.79935 7.9268 2.57549 7.9268 2.29935H6.9268ZM4.76822 14.6537L4.82408 14.1568L4.22586 14.0896L4.26954 14.69L4.76822 14.6537ZM10.0854 14.6537L10.5841 14.69L10.6277 14.0896L10.0295 14.1568L10.0854 14.6537ZM10.0047 15.1638L10.4902 15.2832L10.0047 15.1638ZM9.93184 15.4601L9.44631 15.3407L9.93184 15.4601ZM8.05247 17.3324L8.1688 17.8187H8.1688L8.05247 17.3324ZM6.80113 17.3324L6.6848 17.8187L6.80113 17.3324ZM4.92175 15.4601L4.43621 15.5795V15.5795L4.92175 15.4601ZM4.84889 15.1638L5.33443 15.0444L4.84889 15.1638ZM2.60077 6.54376C3.04899 4.88951 4.31826 3.5664 5.94398 3.03942L5.63562 2.08815C3.69092 2.71853 2.17282 4.29941 1.63557 6.28223L2.60077 6.54376ZM2.56092 6.69082L2.60077 6.54376L1.63558 6.28223L1.59573 6.4293L2.56092 6.69082ZM2.39924 10.0929C2.20537 8.96061 2.26056 7.79938 2.56092 6.69082L1.59573 6.4293C1.25736 7.67813 1.19519 8.98619 1.41358 10.2617L2.39924 10.0929ZM2.41924 10.2098L2.39924 10.0929L1.41358 10.2617L1.43358 10.3785L2.41924 10.2098ZM1.26013 12.3044C1.26013 11.737 1.57432 11.2439 2.03777 10.9911L1.55888 10.1133C0.785583 10.5351 0.260132 11.3583 0.260132 12.3044H1.26013ZM2.44891 13.7671C1.75888 13.6265 1.26013 13.0161 1.26013 12.3044H0.260132C0.260132 13.4882 1.09036 14.5109 2.24929 14.747L2.44891 13.7671ZM2.77566 13.8337L2.44891 13.7671L2.24929 14.747L2.57604 14.8136L2.77566 13.8337ZM12.0779 13.8337C9.0084 14.459 5.8452 14.459 2.77566 13.8337L2.57604 14.8136C5.7773 15.4657 9.07629 15.4657 12.2776 14.8136L12.0779 13.8337ZM12.4047 13.7671L12.0779 13.8337L12.2776 14.8136L12.6043 14.747L12.4047 13.7671ZM13.5935 12.3044C13.5935 13.0161 13.0947 13.6265 12.4047 13.7671L12.6043 14.747C13.7632 14.5109 14.5935 13.4882 14.5935 12.3044H13.5935ZM12.8297 10.9988C13.2856 11.2539 13.5935 11.7428 13.5935 12.3044H14.5935C14.5935 11.3679 14.0785 10.5517 13.3181 10.1262L12.8297 10.9988ZM12.4594 10.0634L12.4382 10.1874L13.4238 10.3561L13.4451 10.2322L12.4594 10.0634ZM12.3136 6.71202C12.6005 7.80575 12.6503 8.94869 12.4594 10.0634L13.4451 10.2322C13.66 8.97693 13.604 7.68992 13.2808 6.45825L12.3136 6.71202ZM12.2581 6.50056L12.3136 6.71202L13.2808 6.45825L13.2254 6.24678L12.2581 6.50056ZM9.0185 3.04403C10.6104 3.56978 11.8304 4.87026 12.2581 6.50056L13.2254 6.24678C12.7121 4.29039 11.2473 2.72698 9.33211 2.09447L9.0185 3.04403ZM5.94398 3.03942C6.94119 2.71617 8.02533 2.71602 9.0185 3.04403L9.33211 2.09447C8.13482 1.69905 6.8328 1.70008 5.63562 2.08815L5.94398 3.03942ZM13.3181 10.1262C13.3879 10.1652 13.4418 10.251 13.4238 10.3561L12.4382 10.1874C12.3802 10.5261 12.5539 10.8444 12.8297 10.9988L13.3181 10.1262ZM1.43358 10.3785C1.41335 10.2604 1.47419 10.1595 1.55888 10.1133L2.03777 10.9911C2.30724 10.8441 2.47512 10.5361 2.41924 10.2098L1.43358 10.3785ZM6.9268 1.40625V2.29935H7.9268V1.40625H6.9268ZM4.71236 15.1506C6.51634 15.3534 8.33726 15.3534 10.1412 15.1506L10.0295 14.1568C8.29979 14.3513 6.55381 14.3513 4.82408 14.1568L4.71236 15.1506ZM10.4902 15.2832C10.5382 15.0883 10.5695 14.8899 10.5841 14.69L9.58669 14.6174C9.57623 14.7613 9.55365 14.9041 9.51917 15.0444L10.4902 15.2832ZM10.4174 15.5795L10.4902 15.2832L9.51917 15.0444L9.44631 15.3407L10.4174 15.5795ZM8.1688 17.8187C9.27769 17.5535 10.1447 16.6886 10.4174 15.5795L9.44631 15.3407C9.26249 16.0883 8.67901 16.6685 7.93614 16.8462L8.1688 17.8187ZM6.6848 17.8187C7.17264 17.9354 7.68096 17.9354 8.1688 17.8187L7.93614 16.8462C7.60125 16.9263 7.25235 16.9263 6.91745 16.8462L6.6848 17.8187ZM4.43621 15.5795C4.70894 16.6886 5.57591 17.5535 6.6848 17.8187L6.91745 16.8462C6.17459 16.6685 5.59111 16.0883 5.40729 15.3407L4.43621 15.5795ZM4.36335 15.2832L4.43621 15.5795L5.40729 15.3407L5.33443 15.0444L4.36335 15.2832ZM4.26954 14.69C4.28408 14.8899 4.31544 15.0883 4.36335 15.2832L5.33443 15.0444C5.29994 14.9041 5.27737 14.7613 5.2669 14.6174L4.26954 14.69Z" fill="black" fill-opacity="0.2"/>
</svg>
