<svg width="50" height="39" viewBox="0 0 50 39" fill="none" xmlns="http://www.w3.org/2000/svg">
<path d="M12.3028 21.277L13.713 24.1258C13.8604 24.4235 14.1453 24.6298 14.4748 24.6775L17.6282 25.1344C19.644 25.4265 20.4488 27.8961 18.9902 29.3137L16.7084 31.5312C16.47 31.7629 16.3612 32.0967 16.4175 32.4239L16.9561 35.5551C17.3004 37.5566 15.1933 39.0829 13.3903 38.138L10.5698 36.6597C10.275 36.5052 9.92295 36.5052 9.62829 36.6597L6.80772 38.138C5.0048 39.083 2.89756 37.5566 3.24188 35.5551L3.7805 32.4239C3.83676 32.0967 3.72798 31.7629 3.48957 31.5312L1.20772 29.3137C-0.250874 27.8961 0.554005 25.4265 2.56979 25.1344L5.72319 24.6775C6.05268 24.6298 6.3375 24.4234 6.48492 24.1258L7.89521 21.277C8.79662 19.4559 11.4013 19.4559 12.3028 21.277Z" fill="url(#paint0_linear_491_1152)"/>
<path d="M13.3901 38.1366L10.5697 36.6581C10.2749 36.5035 9.92296 36.5035 9.62829 36.6581L6.80792 38.1366C5.005 39.0815 2.89747 37.5553 3.24169 35.5534L3.7807 32.4226C3.83667 32.0951 3.72818 31.7612 3.48938 31.5296L1.20763 29.3122C0.42342 28.5499 0.293595 27.4836 0.654465 26.6152L16.4262 32.0376C16.3988 32.1624 16.395 32.2931 16.4172 32.4226L16.9562 35.5534C17.3005 37.5553 15.193 39.0815 13.3901 38.1366Z" fill="url(#paint1_linear_491_1152)"/>
<path d="M10.5705 36.6586L13.391 38.1369C15.194 39.082 17.3011 37.5556 16.9568 35.554L16.4181 32.4228C16.3618 32.0957 16.4706 31.7618 16.709 31.5301L18.9909 29.3126C20.4495 27.895 19.6446 25.4254 17.6288 25.1334L14.4754 24.6765C14.1459 24.6288 13.8611 24.4224 13.7137 24.1248L12.3034 21.2759C11.8527 20.3654 10.9761 19.9102 10.0996 19.9102V36.5428C10.2615 36.5427 10.4232 36.5814 10.5705 36.6586Z" fill="url(#paint2_linear_491_1152)"/>
<path d="M6.80849 38.1366L9.62887 36.6581C9.92363 36.5035 10.2756 36.5035 10.5703 36.6581L13.3906 38.1366C15.1936 39.0815 17.3011 37.5553 16.9569 35.5534L16.4179 32.4226C16.3619 32.0951 16.4704 31.7612 16.7092 31.5296L18.9909 29.3122C19.7751 28.5499 19.9051 27.4836 19.5441 26.6152L3.77238 32.0376C3.79974 32.1624 3.80356 32.2931 3.78137 32.4226L3.24236 35.5534C2.89804 37.5553 5.00557 39.0815 6.80849 38.1366Z" fill="url(#paint3_linear_491_1152)"/>
<path d="M18.042 30.234L18.9899 29.3129C20.2663 28.0725 19.8095 26.0266 18.3249 25.3389L15.7285 27.9274L18.042 30.234Z" fill="url(#paint4_linear_491_1152)"/>
<path d="M41.8224 21.277L43.2327 24.1258C43.38 24.4235 43.6649 24.6298 43.9944 24.6775L47.1478 25.1344C49.1636 25.4265 49.9685 27.8961 48.5099 29.3137L46.228 31.5312C45.9896 31.7629 45.8808 32.0967 45.9371 32.4239L46.4757 35.5551C46.82 37.5566 44.7128 39.0829 42.9099 38.138L40.0893 36.6597C39.7946 36.5052 39.4425 36.5052 39.1478 36.6597L36.3273 38.138C34.5243 39.083 32.4171 37.5566 32.7614 35.5551L33.3 32.4239C33.3563 32.0967 33.2475 31.7629 33.0091 31.5312L30.7273 29.3137C29.2687 27.8961 30.0735 25.4265 32.0893 25.1344L35.2427 24.6775C35.5722 24.6298 35.857 24.4234 36.0045 24.1258L37.4147 21.277C38.3162 19.4559 40.9209 19.4559 41.8224 21.277Z" fill="url(#paint5_linear_491_1152)"/>
<path d="M46.4659 36.4588L34.7286 24.7569L34.7133 24.7529L32.0893 25.133C30.0735 25.4251 29.2687 27.8947 30.7273 29.3123L33.0091 31.5298C33.2475 31.7615 33.3563 32.0953 33.3 32.4225L32.7614 35.5537C32.4171 37.5553 34.5243 39.0816 36.3273 38.1366L39.1478 36.6583C39.4425 36.5038 39.7946 36.5038 40.0893 36.6583L42.9099 38.1366C44.4279 38.9325 46.1615 37.9758 46.4659 36.4588Z" fill="url(#paint6_linear_491_1152)"/>
<path d="M42.9096 38.1366L40.0893 36.6581C39.7945 36.5035 39.4426 36.5035 39.1479 36.6581L36.3275 38.1366C34.5246 39.0815 32.417 37.5553 32.7613 35.5534L33.3003 32.4226C33.3562 32.0951 33.2477 31.7612 33.009 31.5296L30.7272 29.3122C29.943 28.5499 29.8131 27.4836 30.174 26.6152L45.9458 32.0376C45.9184 32.1624 45.9146 32.2931 45.9368 32.4226L46.4758 35.5534C46.8201 37.5553 44.7127 39.0815 42.9096 38.1366Z" fill="url(#paint7_linear_491_1152)"/>
<path d="M40.0898 36.6586L42.9104 38.1369C44.7133 39.082 46.8206 37.5556 46.4763 35.554L45.9376 32.4228C45.8814 32.0957 45.9902 31.7618 46.2286 31.5301L48.5104 29.3126C49.969 27.895 49.1641 25.4254 47.1483 25.1334L43.9949 24.6765C43.6654 24.6288 43.3806 24.4224 43.2332 24.1248L41.8229 21.2759C41.3722 20.3654 40.4957 19.9102 39.6191 19.9102V36.5428C39.7808 36.5427 39.9425 36.5814 40.0898 36.6586Z" fill="url(#paint8_linear_491_1152)"/>
<path d="M36.328 38.1366L39.1484 36.6581C39.4432 36.5035 39.7951 36.5035 40.0898 36.6581L42.9102 38.1366C44.7131 39.0815 46.8206 37.5553 46.4764 35.5534L45.9374 32.4226C45.8814 32.0951 45.9899 31.7612 46.2287 31.5296L48.5105 29.3122C49.2947 28.5499 49.4245 27.4836 49.0636 26.6152L33.2919 32.0376C33.3193 32.1624 33.3231 32.2931 33.3009 32.4226L32.7619 35.5534C32.4176 37.5553 34.5251 39.0815 36.328 38.1366Z" fill="url(#paint9_linear_491_1152)"/>
<path d="M28.0535 4.3072L30.098 8.43733C30.3116 8.86893 30.7246 9.16805 31.2022 9.2372L35.774 9.89953C38.6963 10.3229 39.8632 13.9034 37.7486 15.9584L34.4405 19.1732C34.0949 19.5092 33.9371 19.9931 34.0187 20.4675L34.7997 25.007C35.2989 27.9088 32.2439 30.1215 29.6301 28.7516L25.541 26.6083C25.1138 26.3844 24.6034 26.3844 24.1761 26.6083L20.087 28.7516C17.4732 30.1216 14.4182 27.9088 14.9175 25.007L15.6984 20.4675C15.78 19.9931 15.6223 19.5092 15.2766 19.1732L11.9685 15.9584C9.85388 13.9034 11.0208 10.3228 13.9431 9.89953L18.5149 9.2372C18.9925 9.16805 19.4055 8.86893 19.6191 8.43733L21.6636 4.3072C22.9704 1.66713 26.7466 1.66713 28.0535 4.3072Z" fill="url(#paint10_linear_491_1152)"/>
<path d="M29.6298 28.7509L25.5409 26.6074C25.1136 26.3833 24.6033 26.3833 24.1761 26.6074L20.0872 28.7509C17.4734 30.1209 14.418 27.9082 14.9171 25.0059L15.6987 20.467C15.7798 19.9923 15.6225 19.5082 15.2764 19.1724L11.9684 15.9577C10.8314 14.8526 10.6432 13.3067 11.1665 12.0479L34.0315 19.9089C33.9919 20.0898 33.9862 20.2794 34.0185 20.467L34.8 25.0059C35.2989 27.9082 32.2436 30.1209 29.6298 28.7509Z" fill="url(#paint11_linear_491_1152)"/>
<path d="M25.5399 26.6074L29.629 28.7506C32.2428 30.1207 35.2978 27.9079 34.7986 25.0061L34.0176 20.4665C33.936 19.9922 34.0938 19.5082 34.4394 19.1723L37.7475 15.9575C39.8621 13.9025 38.6952 10.3219 35.7729 9.89863L31.2012 9.23629C30.7235 9.16714 30.3106 8.86803 30.0969 8.43642L28.0524 4.3063C27.399 2.98621 26.1282 2.32617 24.8574 2.32617V26.4394C25.0918 26.4394 25.3263 26.4954 25.5399 26.6074Z" fill="url(#paint12_linear_491_1152)"/>
<path d="M20.0875 28.7509L24.1763 26.6074C24.6036 26.3833 25.1139 26.3833 25.5412 26.6074L29.6301 28.7509C32.2439 30.1209 35.2992 27.9082 34.8001 25.0059L34.0186 20.467C33.9374 19.9923 34.0947 19.5082 34.4409 19.1724L37.7489 15.9577C38.8858 14.8526 39.0741 13.3067 38.5508 12.0479L15.6858 19.9089C15.7254 20.0898 15.7311 20.2794 15.6988 20.467L14.9173 25.0059C14.4182 27.9082 17.4736 30.1209 20.0875 28.7509Z" fill="url(#paint13_linear_491_1152)"/>
<path d="M40.9432 8.43673C40.3444 7.83973 40.3444 6.8717 40.9432 6.27471L43.1979 4.02685C43.7967 3.42985 44.7676 3.42985 45.3664 4.02685C45.9652 4.62384 45.9652 5.59178 45.3664 6.18887L43.1117 8.43673C42.5129 9.03372 41.542 9.03372 40.9432 8.43673Z" fill="url(#paint14_linear_491_1152)"/>
<path d="M37.4104 6.38791C36.5635 6.38791 35.877 5.70344 35.877 4.85913V1.68015C35.877 0.835827 36.5635 0.151367 37.4104 0.151367C38.2572 0.151367 38.9438 0.835827 38.9438 1.68015V4.85913C38.9437 5.70344 38.2571 6.38791 37.4104 6.38791Z" fill="url(#paint15_linear_491_1152)"/>
<path d="M42.998 11.9594C42.998 11.1151 43.6846 10.4307 44.5315 10.4307H47.7201C48.5669 10.4307 49.2535 11.1151 49.2535 11.9594C49.2535 12.8038 48.5669 13.4882 47.7201 13.4882H44.5315C43.6846 13.4882 42.998 12.8038 42.998 11.9594Z" fill="url(#paint16_linear_491_1152)"/>
<path d="M8.77274 8.43673C9.37154 7.83973 9.37154 6.8717 8.77274 6.27471L6.51806 4.02685C5.91926 3.42985 4.94839 3.42985 4.34949 4.02685C3.75069 4.62384 3.75069 5.59178 4.34949 6.18887L6.60417 8.43673C7.20307 9.03372 8.17393 9.03372 8.77274 8.43673Z" fill="url(#paint17_linear_491_1152)"/>
<path d="M12.3049 6.38791C13.1518 6.38791 13.8383 5.70344 13.8383 4.85913V1.68015C13.8383 0.835827 13.1518 0.151367 12.3049 0.151367C11.458 0.151367 10.7715 0.835827 10.7715 1.68015V4.85913C10.7716 5.70344 11.4581 6.38791 12.3049 6.38791Z" fill="url(#paint18_linear_491_1152)"/>
<path d="M6.71628 11.9594C6.71628 11.1151 6.02975 10.4307 5.18287 10.4307H1.99425C1.14747 10.4308 0.460938 11.1151 0.460938 11.9594C0.460938 12.8038 1.14747 13.4882 1.99435 13.4882H5.18296C6.02974 13.4882 6.71628 12.8038 6.71628 11.9594Z" fill="url(#paint19_linear_491_1152)"/>
<defs>
<linearGradient id="paint0_linear_491_1152" x1="4.91602" y1="25.228" x2="16.2335" y2="36.5796" gradientUnits="userSpaceOnUse">
<stop stop-color="#FEE45A"/>
<stop offset="1" stop-color="#FEA613"/>
</linearGradient>
<linearGradient id="paint1_linear_491_1152" x1="7.27039" y1="32.9286" x2="17.0215" y2="26.912" gradientUnits="userSpaceOnUse">
<stop stop-color="#FEA613" stop-opacity="0"/>
<stop offset="1" stop-color="#E94444"/>
</linearGradient>
<linearGradient id="paint2_linear_491_1152" x1="16.1139" y1="30.3296" x2="3.55209" y2="26.4503" gradientUnits="userSpaceOnUse">
<stop stop-color="#FEA613" stop-opacity="0"/>
<stop offset="1" stop-color="#E94444"/>
</linearGradient>
<linearGradient id="paint3_linear_491_1152" x1="8.06111" y1="27.4782" x2="17.9938" y2="40.2509" gradientUnits="userSpaceOnUse">
<stop stop-color="#FEA613" stop-opacity="0"/>
<stop offset="1" stop-color="#E94444"/>
</linearGradient>
<linearGradient id="paint4_linear_491_1152" x1="21.1854" y1="33.4023" x2="17.7887" y2="27.4798" gradientUnits="userSpaceOnUse">
<stop stop-color="#FEA613" stop-opacity="0"/>
<stop offset="1" stop-color="#E94444"/>
</linearGradient>
<linearGradient id="paint5_linear_491_1152" x1="34.4357" y1="25.228" x2="45.7532" y2="36.5797" gradientUnits="userSpaceOnUse">
<stop stop-color="#FEE45A"/>
<stop offset="1" stop-color="#FEA613"/>
</linearGradient>
<linearGradient id="paint6_linear_491_1152" x1="38.4283" y1="32.9432" x2="29.2505" y2="29.555" gradientUnits="userSpaceOnUse">
<stop stop-color="#FEA613" stop-opacity="0"/>
<stop offset="1" stop-color="#E94444"/>
</linearGradient>
<linearGradient id="paint7_linear_491_1152" x1="36.7901" y1="32.9286" x2="46.541" y2="26.912" gradientUnits="userSpaceOnUse">
<stop stop-color="#FEA613" stop-opacity="0"/>
<stop offset="1" stop-color="#E94444"/>
</linearGradient>
<linearGradient id="paint8_linear_491_1152" x1="45.6333" y1="30.3296" x2="33.0714" y2="26.4503" gradientUnits="userSpaceOnUse">
<stop stop-color="#FEA613" stop-opacity="0"/>
<stop offset="1" stop-color="#E94444"/>
</linearGradient>
<linearGradient id="paint9_linear_491_1152" x1="37.5807" y1="27.4782" x2="47.5133" y2="40.2509" gradientUnits="userSpaceOnUse">
<stop stop-color="#FEA613" stop-opacity="0"/>
<stop offset="1" stop-color="#E94444"/>
</linearGradient>
<linearGradient id="paint10_linear_491_1152" x1="17.3446" y1="10.0352" x2="33.7521" y2="26.4924" gradientUnits="userSpaceOnUse">
<stop stop-color="#FEE45A"/>
<stop offset="1" stop-color="#FEA613"/>
</linearGradient>
<linearGradient id="paint11_linear_491_1152" x1="20.7578" y1="21.2005" x2="34.8944" y2="12.4779" gradientUnits="userSpaceOnUse">
<stop stop-color="#FEA613" stop-opacity="0"/>
<stop offset="1" stop-color="#E94444"/>
</linearGradient>
<linearGradient id="paint12_linear_491_1152" x1="33.5765" y1="17.4318" x2="15.3649" y2="11.8078" gradientUnits="userSpaceOnUse">
<stop stop-color="#FEA613" stop-opacity="0"/>
<stop offset="1" stop-color="#E94444"/>
</linearGradient>
<linearGradient id="paint13_linear_491_1152" x1="21.9035" y1="13.299" x2="36.3033" y2="31.8161" gradientUnits="userSpaceOnUse">
<stop stop-color="#FEA613" stop-opacity="0"/>
<stop offset="1" stop-color="#E94444"/>
</linearGradient>
<linearGradient id="paint14_linear_491_1152" x1="42.1276" y1="5.13209" x2="45.1295" y2="8.1431" gradientUnits="userSpaceOnUse">
<stop stop-color="#F83F5F"/>
<stop offset="1" stop-color="#6B5DD3"/>
</linearGradient>
<linearGradient id="paint15_linear_491_1152" x1="34.1809" y1="3.26962" x2="40.2952" y2="3.26968" gradientUnits="userSpaceOnUse">
<stop stop-color="#6B5DD3"/>
<stop offset="1" stop-color="#F83F5F"/>
</linearGradient>
<linearGradient id="paint16_linear_491_1152" x1="46.1257" y1="10.5897" x2="46.1257" y2="14.8356" gradientUnits="userSpaceOnUse">
<stop stop-color="#F83F5F"/>
<stop offset="1" stop-color="#6B5DD3"/>
</linearGradient>
<linearGradient id="paint17_linear_491_1152" x1="7.59339" y1="5.13215" x2="4.59147" y2="8.14317" gradientUnits="userSpaceOnUse">
<stop stop-color="#F83F5F"/>
<stop offset="1" stop-color="#6B5DD3"/>
</linearGradient>
<linearGradient id="paint18_linear_491_1152" x1="13.6789" y1="3.26968" x2="9.42013" y2="3.26968" gradientUnits="userSpaceOnUse">
<stop stop-color="#F83F5F"/>
<stop offset="1" stop-color="#6B5DD3"/>
</linearGradient>
<linearGradient id="paint19_linear_491_1152" x1="3.58861" y1="10.5897" x2="3.58861" y2="14.8356" gradientUnits="userSpaceOnUse">
<stop stop-color="#F83F5F"/>
<stop offset="1" stop-color="#6B5DD3"/>
</linearGradient>
</defs>
</svg>
