<svg width="12" height="12" viewBox="0 0 12 12" fill="none" xmlns="http://www.w3.org/2000/svg">
<path d="M1.19596 5.62352C0.95126 5.3746 0.850649 5.07343 0.921742 4.72302C1.00807 4.29657 1.30927 4.04236 1.77518 3.97393C2.515 3.8655 3.25197 3.73128 3.99432 3.64864C4.30282 3.61558 4.44818 3.47178 4.57101 3.19475C4.89284 2.46748 5.24227 1.75607 5.58663 1.0407C5.80531 0.585822 6.27599 0.388794 6.71778 0.562678C6.93873 0.649601 7.11788 0.823729 7.21639 1.04731C7.59471 1.85062 7.97811 2.65161 8.35516 3.45492C8.39515 3.53922 8.44498 3.59079 8.53956 3.60467C9.37745 3.72798 10.2144 3.85591 11.052 3.97988C11.2954 4.01591 11.5115 4.10682 11.674 4.30484C11.9914 4.69195 11.9727 5.23046 11.6236 5.59145C11.01 6.22308 10.3934 6.85196 9.77386 7.47807C9.70182 7.55113 9.66944 7.62485 9.68722 7.72964C9.79544 8.37064 9.90304 9.01163 10.0046 9.65328C10.0522 9.95081 10.1166 10.2434 10.1363 10.5439C10.1415 10.6685 10.1198 10.7927 10.0728 10.9075C9.86114 11.4285 9.30414 11.6463 8.81632 11.3845C8.07047 10.9841 7.32801 10.577 6.58893 10.1634C6.45214 10.087 6.34613 10.0807 6.20616 10.1591C5.4637 10.5749 4.71785 10.9841 3.96862 11.3865C3.64044 11.563 3.3129 11.532 3.01647 11.3049C2.72003 11.0778 2.6099 10.7581 2.66735 10.3885C2.80319 9.51444 2.95045 8.64204 3.09835 7.7703C3.11994 7.64336 3.09581 7.5541 3.00504 7.46286C2.40053 6.85217 1.79751 6.23906 1.19596 5.62352Z" fill="#EEB217"/>
</svg>
