<svg width="27" height="30" viewBox="0 0 27 30" fill="none" xmlns="http://www.w3.org/2000/svg">
<g clip-path="url(#clip0_107_16697)">
<path d="M13.5982 6.96582H13.5574V7.77217H13.5982V6.96582Z" fill="#0B1938"/>
<path d="M13.5986 25.8496H13.5579V26.656H13.5986V25.8496Z" fill="#0B1938"/>
<path d="M8.70487 8.27733L8.66956 8.29785L9.06987 8.99625L9.10519 8.97573L8.70487 8.27733Z" fill="#0B1938"/>
<path d="M18.0838 24.6279L18.0485 24.6484L18.4489 25.3468L18.4842 25.3262L18.0838 24.6279Z" fill="#0B1938"/>
<path d="M5.11988 11.8766L5.09949 11.9121L5.79298 12.3154L5.81337 12.2799L5.11988 11.8766Z" fill="#0B1938"/>
<path d="M21.3599 21.316L21.3395 21.3516L22.033 21.7547L22.0534 21.7192L21.3599 21.316Z" fill="#0B1938"/>
<path d="M4.60286 16.791H3.802V16.8321H4.60286V16.791Z" fill="#0B1938"/>
<path d="M23.3544 16.79H22.5536V16.8311H23.3544V16.79Z" fill="#0B1938"/>
<path d="M5.12159 21.7512L5.1012 21.7154L5.79489 21.3125L5.81528 21.3478L5.12159 21.7512Z" fill="#0B1938"/>
<path d="M22.0386 11.8657L21.3448 12.2686L21.3652 12.3041L22.059 11.9013L22.0386 11.8657Z" fill="#0B1938"/>
<path d="M9.07353 24.6246L8.67358 25.3232L8.70892 25.3437L9.10886 24.6451L9.07353 24.6246Z" fill="#0B1938"/>
<path d="M18.4485 8.2721L18.0486 8.9707L18.0839 8.99121L18.4839 8.29261L18.4485 8.2721Z" fill="#0B1938"/>
<path d="M8.76772 8.2382L8.62646 8.32031L9.49655 9.83768L9.63781 9.75556L8.76772 8.2382Z" fill="#0064A2"/>
<path d="M17.6578 23.7863L17.517 23.8682L18.3868 25.3857L18.5276 25.3038L17.6578 23.7863Z" fill="#0064A2"/>
<path d="M5.15492 11.8099L5.07336 11.9521L6.58039 12.8282L6.66195 12.686L5.15492 11.8099Z" fill="#0064A2"/>
<path d="M20.5803 20.7781L20.499 20.9199L22.0061 21.796L22.0874 21.6542L20.5803 20.7781Z" fill="#0064A2"/>
<path d="M5.5417 16.7295H3.802V16.8937H5.5417V16.7295Z" fill="#0064A2"/>
<path d="M13.4968 5.71581V16.0085C14.1594 16.0824 14.3941 16.7282 15.1112 16.2708L22.9539 11.4118C22.9539 11.4118 21.0179 6.33143 13.4968 5.71581Z" fill="#F53636"/>
<path d="M23.354 16.7295H21.6143V16.8937H23.354V16.7295Z" fill="#0064A2"/>
<path d="M21.7694 6.98121L22.3251 6.21735L22.4327 6.29659C22.4579 6.3152 22.4864 6.32864 22.5167 6.33612C22.547 6.3436 22.5785 6.34499 22.6093 6.3402C22.6401 6.33541 22.6697 6.32453 22.6964 6.3082C22.723 6.29187 22.7462 6.27041 22.7646 6.24504L23.2582 5.56806C23.2767 5.54275 23.2901 5.51402 23.2975 5.48351C23.3049 5.453 23.3063 5.42131 23.3015 5.39027C23.2968 5.35922 23.286 5.32942 23.2698 5.30258C23.2535 5.27574 23.2322 5.2524 23.207 5.23387L21.5332 3.99786C21.5081 3.97925 21.4796 3.96581 21.4493 3.95833C21.419 3.95085 21.3875 3.94948 21.3566 3.95427C21.3258 3.95906 21.2962 3.96992 21.2696 3.98625C21.2429 4.00258 21.2197 4.02405 21.2013 4.04942L20.7082 4.72496C20.6897 4.75024 20.6763 4.77894 20.6689 4.80943C20.6614 4.83993 20.66 4.87161 20.6647 4.90266C20.6694 4.9337 20.6801 4.9635 20.6963 4.99035C20.7125 5.01721 20.7338 5.04058 20.7589 5.05914L20.931 5.18613L20.373 5.94999C18.8454 4.97787 17.1289 4.34627 15.3388 4.09764V2.1178H15.8571C15.9199 2.1178 15.9802 2.09266 16.0247 2.04789C16.0692 2.00313 16.0941 1.9424 16.0941 1.8791V0.45355C16.0941 0.390241 16.0692 0.32952 16.0247 0.284754C15.9802 0.239988 15.9199 0.214844 15.8571 0.214844H11.1358C11.073 0.214844 11.0127 0.239988 10.9682 0.284754C10.9237 0.32952 10.8988 0.390241 10.8988 0.45355V1.8791C10.8988 1.9424 10.9237 2.00313 10.9682 2.04789C11.0127 2.09266 11.073 2.1178 11.1358 2.1178H11.8167V4.09764C5.61186 4.96367 0.83374 10.3255 0.83374 16.8106C0.83374 23.8973 6.53932 29.642 13.5778 29.642C20.6162 29.642 26.3223 23.8973 26.3223 16.8106C26.3241 14.9366 25.9174 13.085 25.1307 11.3865C24.344 9.68808 23.1965 8.18425 21.7694 6.98121ZM13.5778 27.645C7.63463 27.645 2.81716 22.794 2.81716 16.8106C2.81716 10.8272 7.63463 5.97338 13.5778 5.97338C19.5209 5.97338 24.3412 10.8244 24.3412 16.8106C24.3412 22.7969 19.5209 27.645 13.5778 27.645Z" fill="#0064A2"/>
<path d="M19.5446 13.4521L13.8419 16.0779C13.673 16.0242 13.4919 16.0231 13.3224 16.0747C13.1528 16.1264 13.0028 16.2284 12.8918 16.3674C12.7808 16.5064 12.7141 16.6759 12.7005 16.8537C12.6868 17.0315 12.7269 17.2093 12.8153 17.3638C12.9037 17.5183 13.0364 17.6424 13.1961 17.7196C13.3557 17.7969 13.5348 17.8238 13.7099 17.7968C13.885 17.7699 14.0479 17.6903 14.1773 17.5685C14.3067 17.4467 14.3965 17.2884 14.435 17.1144L19.5446 13.4521ZM13.5777 17.5235C13.4593 17.5235 13.3435 17.4881 13.245 17.4219C13.1465 17.3556 13.0698 17.2615 13.0245 17.1513C12.9791 17.0411 12.9673 16.9199 12.9904 16.8029C13.0135 16.6859 13.0705 16.5785 13.1543 16.4942C13.238 16.4099 13.3447 16.3524 13.4609 16.3292C13.5771 16.3059 13.6975 16.3178 13.8069 16.3635C13.9163 16.4091 14.0099 16.4864 14.0757 16.5855C14.1415 16.6847 14.1766 16.8013 14.1766 16.9205C14.1765 17.0804 14.1134 17.2337 14.0011 17.3468C13.8888 17.4598 13.7365 17.5234 13.5777 17.5235Z" fill="#0064A2"/>
<path d="M13.5456 5.98324L12.9678 16.2573C12.8368 16.3767 12.7453 16.5329 12.7052 16.7056C12.6652 16.8782 12.6785 17.0592 12.7434 17.2248C12.8083 17.3904 12.9218 17.5329 13.0689 17.6336C13.2161 17.7343 13.3901 17.7886 13.5681 17.7892C13.7461 17.7899 13.9199 17.737 14.0666 17.6374C14.2134 17.5378 14.3262 17.3961 14.3904 17.231C14.4546 17.0659 14.4671 16.885 14.4264 16.7121C14.3856 16.5391 14.2934 16.3822 14.1619 16.2618L13.5456 5.98324ZM14.0876 17.2088C14.0284 17.3114 13.9399 17.394 13.8333 17.4461C13.7266 17.4983 13.6067 17.5177 13.4886 17.5018C13.3706 17.486 13.2596 17.4357 13.1699 17.3572C13.0801 17.2787 13.0156 17.1755 12.9845 17.0608C12.9533 16.9462 12.9569 16.825 12.9949 16.7128C13.0328 16.6006 13.1034 16.5022 13.1976 16.4303C13.2918 16.3583 13.4055 16.316 13.5243 16.3086C13.6431 16.3012 13.7616 16.329 13.8649 16.3887C14.0033 16.4687 14.1045 16.6 14.1462 16.7538C14.188 16.9076 14.1669 17.0712 14.0876 17.2088Z" fill="#2C2C2C"/>
<path d="M13.5456 5.98324L12.9678 16.2573C12.8368 16.3767 12.7453 16.5329 12.7052 16.7056C12.6652 16.8782 12.6785 17.0592 12.7434 17.2248C12.8083 17.3904 12.9218 17.5329 13.0689 17.6336C13.2161 17.7343 13.3901 17.7886 13.5681 17.7892C13.7461 17.7899 13.9199 17.737 14.0666 17.6374C14.2134 17.5378 14.3262 17.3961 14.3904 17.231C14.4546 17.0659 14.4671 16.885 14.4264 16.7121C14.3856 16.5391 14.2934 16.3822 14.1619 16.2618L13.5456 5.98324ZM14.0876 17.2088C14.0284 17.3114 13.9399 17.394 13.8333 17.4461C13.7266 17.4983 13.6067 17.5177 13.4886 17.5018C13.3706 17.486 13.2596 17.4357 13.1699 17.3572C13.0801 17.2787 13.0156 17.1755 12.9845 17.0608C12.9533 16.9462 12.9569 16.825 12.9949 16.7128C13.0328 16.6006 13.1034 16.5022 13.1976 16.4303C13.2918 16.3583 13.4055 16.316 13.5243 16.3086C13.6431 16.3012 13.7616 16.329 13.8649 16.3887C14.0033 16.4687 14.1045 16.6 14.1462 16.7538C14.188 16.9076 14.1669 17.0712 14.0876 17.2088Z" fill="black" fill-opacity="0.2"/>
<path d="M9.49118 23.7737L8.62109 25.291L8.76235 25.3731L9.63243 23.8558L9.49118 23.7737Z" fill="#0064A2"/>
<path d="M18.3942 8.25262L17.5233 9.76953L17.6641 9.85148L18.535 8.33457L18.3942 8.25262Z" fill="#0064A2"/>
<path d="M6.58546 20.7797L5.07874 21.6562L5.1601 21.798L6.66683 20.9214L6.58546 20.7797Z" fill="#0064A2"/>
<path d="M22.0016 11.8205L20.4944 12.6963L20.5759 12.8385L22.0831 11.9627L22.0016 11.8205Z" fill="#0064A2"/>
<path d="M13.6598 24.9033H13.4967V26.6554H13.6598V24.9033Z" fill="#0064A2"/>
</g>
<defs>
<clipPath id="clip0_107_16697">
<rect width="25.4885" height="29.4258" fill="white" transform="translate(0.83374 0.216797)"/>
</clipPath>
</defs>
</svg>
