<svg width="21" height="20" viewBox="0 0 21 20" fill="none" xmlns="http://www.w3.org/2000/svg">
<path d="M1.67871 11.9223L2.43323 11.7454L1.67871 11.9223ZM1.67871 6.43678L2.43323 6.61376L1.67871 6.43678ZM17.2331 6.43678L17.9877 6.2598L17.2331 6.43678ZM17.2332 11.9223L17.9877 12.0993L17.2332 11.9223ZM12.1987 16.9568L12.0217 16.2023L12.1987 16.9568ZM6.71315 16.9568L6.53616 17.7113L6.71315 16.9568ZM6.71315 1.40234L6.53616 0.647818H6.53616L6.71315 1.40234ZM12.1987 1.40234L12.3757 0.647818L12.1987 1.40234ZM18.9074 19.727C19.21 20.0297 19.7007 20.0297 20.0034 19.727C20.306 19.4244 20.306 18.9337 20.0034 18.631L18.9074 19.727ZM2.43323 11.7454C2.03736 10.0577 2.03736 8.30139 2.43323 6.61376L0.924186 6.25979C0.473709 8.18024 0.473709 10.1789 0.924186 12.0993L2.43323 11.7454ZM16.4786 6.61377C16.8745 8.30139 16.8745 10.0577 16.4786 11.7454L17.9877 12.0993C18.4381 10.1789 18.4381 8.18024 17.9877 6.2598L16.4786 6.61377ZM12.0217 16.2023C10.3341 16.5981 8.57776 16.5981 6.89014 16.2023L6.53616 17.7113C8.45661 18.1618 10.4552 18.1618 12.3757 17.7113L12.0217 16.2023ZM6.89013 2.15686C8.57776 1.761 10.3341 1.76099 12.0217 2.15686L12.3757 0.647818C10.4552 0.197342 8.45661 0.197342 6.53616 0.647818L6.89013 2.15686ZM6.89014 16.2023C4.67868 15.6835 2.95196 13.9568 2.43323 11.7454L0.924186 12.0993C1.57736 14.8839 3.75158 17.0581 6.53616 17.7113L6.89014 16.2023ZM12.3757 17.7113C15.1603 17.0581 17.3345 14.8839 17.9877 12.0993L16.4786 11.7454C15.9599 13.9568 14.2332 15.6835 12.0217 16.2023L12.3757 17.7113ZM12.0217 2.15686C14.2332 2.67559 15.9599 4.40232 16.4786 6.61377L17.9877 6.2598C17.3345 3.47522 15.1603 1.30099 12.3757 0.647818L12.0217 2.15686ZM6.53616 0.647818C3.75158 1.30099 1.57736 3.47521 0.924186 6.25979L2.43323 6.61376C2.95196 4.40231 4.67868 2.67559 6.89013 2.15686L6.53616 0.647818ZM15.2234 16.043L18.9074 19.727L20.0034 18.631L16.3194 14.947L15.2234 16.043Z" fill="#6D6BE6"/>
</svg>
