<svg width="172" height="196" viewBox="0 0 172 196" fill="none" xmlns="http://www.w3.org/2000/svg">
<path opacity="0.2" d="M166.733 44.6353C167.376 44.3511 167.921 43.8845 168.302 43.2934C168.682 42.7023 168.881 42.0126 168.873 41.3097C168.873 39.3255 167.381 37.709 165.518 37.6993C163.656 37.6895 162.141 39.2939 162.134 41.2781C162.12 41.9872 162.317 42.6846 162.699 43.2822C163.081 43.8797 163.632 44.3506 164.281 44.6353C159.096 45.4144 159.329 51.0528 159.329 51.0528L171.595 51.1088C171.595 51.1088 171.875 45.4095 166.733 44.6353Z" fill="#EBEBEB"/>
<path d="M107.34 110.383L125.049 116.825C125.834 117.111 126.472 117.696 126.825 118.452C127.178 119.208 127.216 120.074 126.931 120.858L126.717 121.444L103.094 112.85L103.307 112.264C103.593 111.48 104.178 110.841 104.934 110.489C105.69 110.136 106.556 110.098 107.34 110.383Z" fill="#E0E0E0"/>
<path d="M112.488 104.455C112.488 104.455 110.101 106.173 108.053 106.309C107.448 106.338 106.852 106.47 106.29 106.697C105.982 106.809 105.713 107.007 105.514 107.266C105.314 107.526 105.192 107.837 105.163 108.163C104.96 109.571 107.479 110.434 107.479 110.434L117.348 114.043L119.854 107.155L112.488 104.455Z" fill="#EBEBEB"/>
<path d="M125.086 116.855C125.086 116.912 121.064 115.509 116.154 113.721C111.245 111.933 107.273 110.417 107.293 110.384C107.314 110.351 111.311 111.73 116.225 113.518C121.138 115.306 125.106 116.801 125.086 116.855Z" fill="#E0E0E0"/>
<g opacity="0.3">
<path d="M135.761 73.9513C137.58 71.765 137.281 68.5185 135.095 66.7002C132.909 64.8818 129.662 65.1801 127.844 67.3665C126.025 69.5528 126.324 72.7993 128.51 74.6176C130.696 76.436 133.943 76.1377 135.761 73.9513Z" fill="#E0E0E0"/>
<path d="M135.285 65.0354C135.194 65.2828 135.032 65.4978 134.82 65.6533C134.607 65.8089 134.353 65.8979 134.09 65.9093C133.827 65.9207 133.566 65.8538 133.341 65.7172C133.115 65.5806 132.936 65.3803 132.824 65.1416C132.712 64.903 132.674 64.6366 132.714 64.3762C132.753 64.1157 132.869 63.8728 133.047 63.6782C133.224 63.4835 133.455 63.3458 133.711 63.2824C133.967 63.219 134.236 63.2327 134.484 63.3219C134.817 63.4429 135.089 63.6915 135.239 64.0128C135.389 64.3341 135.405 64.702 135.285 65.0354Z" fill="#EBEBEB"/>
<path d="M126.019 117.173C126.019 117.173 127.324 117.792 128.083 116.682C128.291 116.375 128.408 116.015 128.42 115.644C128.432 115.274 128.338 114.907 128.149 114.588C127.847 114.078 127.471 113.615 127.034 113.213C125.552 111.793 124.825 108.94 124.825 108.94L117.455 106.26L114.949 113.147" fill="#EBEBEB"/>
<path d="M111.869 102.291L112.471 104.451L124.85 108.955L126.779 107.717L111.869 102.291Z" fill="#E0E0E0"/>
<path d="M130.572 88.7114L121.17 85.2913C120.63 85.0948 120.033 85.3733 119.837 85.9134L119.696 86.3014C119.499 86.8414 119.778 87.4385 120.318 87.6349L129.72 91.0551C130.26 91.2516 130.857 90.973 131.053 90.433L131.195 90.045C131.391 89.5049 131.112 88.9079 130.572 88.7114Z" fill="#EBEBEB"/>
<path d="M130.59 87.054L122.228 84.0121C121.889 83.8889 121.515 84.0636 121.392 84.4022L121.303 84.6466C121.18 84.9852 121.355 85.3596 121.693 85.4827L130.055 88.5246C130.394 88.6478 130.768 88.4731 130.891 88.1345L130.98 87.8901C131.103 87.5515 130.929 87.1771 130.59 87.054Z" fill="#EBEBEB"/>
<path d="M130.907 84.6896L123.499 81.995C123.298 81.9217 123.075 82.0256 123.002 82.2271L122.948 82.3745C122.875 82.576 122.979 82.7987 123.18 82.8719L130.588 85.5666C130.789 85.6399 131.012 85.536 131.085 85.3345L131.139 85.1871C131.212 84.9856 131.108 84.7629 130.907 84.6896Z" fill="#EBEBEB"/>
<path d="M121.729 88.1465C121.729 88.1465 117.641 98.9853 111.865 102.293L119.342 105.014L125.04 89.3522L121.729 88.1465Z" fill="#EBEBEB"/>
<path d="M128.117 90.4701C128.117 90.4701 124.483 101.474 126.779 107.717L119.111 104.926L124.809 89.2686L128.117 90.4701Z" fill="#EBEBEB"/>
<path d="M139.335 72.3809C138.303 70.3164 136.358 71.4189 135.577 71.7987C134.797 72.1786 133.695 71.6253 133.459 70.3453C133.261 69.2841 132.675 69.0612 132.419 68.9992C132.163 68.9373 131.593 68.6772 130.767 69.3626C129.76 70.1884 128.562 69.9076 128.207 69.1149C127.852 68.3221 127.067 66.2245 124.958 67.1453C124.958 67.1453 126.712 72.4264 125.668 76.8568C124.623 81.2873 123.851 83.2528 122.971 84.2892L126.308 85.5031L126.522 85.5774L129.863 86.8161C129.863 85.4701 130.515 83.4633 132.559 79.3838C134.603 75.3043 139.335 72.3809 139.335 72.3809Z" fill="#EBEBEB"/>
<path d="M124.925 108.981C124.904 109.035 122.1 108.069 118.665 106.818C115.23 105.567 112.471 104.509 112.471 104.452C112.471 104.394 115.283 105.372 118.739 106.611C122.195 107.85 124.945 108.923 124.925 108.981Z" fill="#E0E0E0"/>
<path d="M126.778 107.717C126.758 107.77 123.405 106.602 119.288 105.103C115.172 103.604 111.856 102.349 111.856 102.291C111.856 102.233 115.234 103.406 119.35 104.905C123.467 106.404 126.799 107.659 126.778 107.717Z" fill="#E0E0E0"/>
<path d="M129.479 90.9651C129.479 91.0188 127.447 90.3375 124.982 89.4415C122.517 88.5455 120.54 87.7899 120.56 87.7197C120.581 87.6495 122.596 88.3473 125.057 89.2392C127.518 90.1311 129.5 90.9197 129.479 90.9651Z" fill="#E0E0E0"/>
<path d="M130.33 88.6202C130.33 88.678 128.298 87.9967 125.837 87.1007C123.376 86.2047 121.394 85.4491 121.415 85.3789C121.436 85.3087 123.446 86.0024 125.912 86.8984C128.377 87.7944 130.35 88.5666 130.33 88.6202Z" fill="#E0E0E0"/>
<path d="M130.458 87.0022C130.458 87.0559 128.608 86.4448 126.37 85.6313C125.007 85.1745 123.669 84.648 122.361 84.054C122.381 84.0004 124.206 84.6156 126.444 85.429C127.808 85.8852 129.147 86.4103 130.458 87.0022Z" fill="#E0E0E0"/>
<path d="M130.594 85.5976C129.321 85.2522 128.068 84.8387 126.84 84.3589C125.585 83.9411 124.354 83.4545 123.153 82.9014C124.427 83.2477 125.681 83.6612 126.911 84.1401C128.164 84.5577 129.394 85.0443 130.594 85.5976Z" fill="#E0E0E0"/>
<path d="M130.941 84.6484C129.667 84.3027 128.413 83.8892 127.183 83.4097C125.929 82.9933 124.699 82.5066 123.5 81.9521C124.773 82.2992 126.027 82.7127 127.257 83.1909C128.511 83.6094 129.74 84.096 130.941 84.6484Z" fill="#E0E0E0"/>
<path d="M124.949 67.1496C125.001 67.1156 125.056 67.0879 125.114 67.0671L125.325 66.9804L125.631 66.9102C125.767 66.8865 125.905 66.8754 126.043 66.8771C126.2 66.8824 126.356 66.9088 126.506 66.9556C126.873 67.0782 127.198 67.2997 127.447 67.5956C127.741 67.9496 127.982 68.3447 128.162 68.7682C128.241 68.9955 128.363 69.2057 128.521 69.3876C128.695 69.5654 128.92 69.6851 129.165 69.7303C129.432 69.7789 129.707 69.7671 129.969 69.6956C130.232 69.6242 130.475 69.495 130.68 69.3174C130.923 69.1087 131.203 68.9488 131.506 68.8467C131.833 68.7403 132.188 68.764 132.497 68.9128C132.656 68.9528 132.805 69.0244 132.935 69.1233C133.068 69.2249 133.183 69.3493 133.273 69.4908C133.438 69.7615 133.549 70.0616 133.6 70.3744C133.643 70.6432 133.745 70.8991 133.898 71.124C134.052 71.3488 134.253 71.537 134.487 71.6751C134.705 71.795 134.954 71.8482 135.202 71.8279C135.439 71.7861 135.667 71.7022 135.875 71.5801C136.285 71.3719 136.723 71.2245 137.175 71.1425C137.557 71.0722 137.95 71.1108 138.311 71.2539C138.458 71.3161 138.597 71.3966 138.724 71.4934C138.824 71.5783 138.918 71.6708 139.005 71.7701L139.19 72.0219L139.298 72.2201C139.351 72.3316 139.38 72.3894 139.372 72.3936C139.364 72.3977 139.327 72.344 139.261 72.2449L139.137 72.055L138.943 71.8237C138.864 71.7412 138.765 71.6627 138.662 71.5719C138.541 71.4875 138.411 71.4182 138.274 71.3654C137.932 71.2449 137.564 71.2192 137.208 71.2911C136.777 71.383 136.36 71.5345 135.97 71.7412L135.635 71.9063C135.505 71.967 135.365 72.0034 135.222 72.0137C134.937 72.0434 134.649 71.9858 134.397 71.8485C134.133 71.6997 133.906 71.4938 133.732 71.2459C133.559 70.998 133.443 70.7143 133.393 70.4157C133.29 69.8542 133.034 69.2596 132.398 69.1068C132.141 68.9811 131.844 68.9618 131.572 69.0532C131.298 69.1404 131.044 69.2807 130.825 69.4661C130.595 69.662 130.324 69.8041 130.031 69.882C129.739 69.9598 129.433 69.9715 129.136 69.9161C128.853 69.8586 128.594 69.7143 128.397 69.5032C128.3 69.4046 128.22 69.2901 128.162 69.1646L128.013 68.826C127.846 68.4133 127.621 68.0267 127.344 67.6782C127.12 67.3941 126.821 67.1782 126.481 67.0547C126.348 67.0078 126.209 66.9773 126.068 66.9638C125.943 66.9552 125.818 66.9552 125.692 66.9638L125.391 67.0134L125.18 67.0795C125.109 67.1182 125.03 67.1421 124.949 67.1496Z" fill="#E0E0E0"/>
</g>
<path opacity="0.3" d="M48.5617 85.4456C49.6795 84.7718 50.882 84.2497 52.1375 83.893L52.8766 80.3544L58.8555 80.2471L59.7143 83.7609C60.983 84.0693 62.204 84.5485 63.3438 85.1854L66.3663 83.2035L70.6894 87.3614L68.8189 90.45C69.4917 91.5683 70.0138 92.7706 70.3714 94.0257L73.91 94.7607L74.0133 100.744L70.5036 101.603C70.1912 102.871 69.7107 104.091 69.0749 105.232L71.0569 108.254L66.8824 112.557L63.7939 110.682C62.6762 111.357 61.4738 111.881 60.2181 112.239L59.479 115.778L53.5001 115.881L52.6372 112.371C51.3704 112.059 50.1512 111.578 49.0118 110.942L45.9894 112.924L41.6869 108.771L43.5573 105.678C42.882 104.561 42.3599 103.358 42.0048 102.102L38.4827 101.367L38.3754 95.3883L41.8892 94.5254C42.2023 93.2575 42.6828 92.037 43.3179 90.8959L41.3359 87.8776L45.4897 83.571L48.5783 85.4456H48.5617ZM51.7494 93.4146C50.8696 94.3284 50.2804 95.4823 50.0562 96.7308C49.832 97.9792 49.9828 99.2661 50.4896 100.429C50.9964 101.592 51.8364 102.578 52.9036 103.264C53.9708 103.949 55.2172 104.303 56.4854 104.281C57.7536 104.258 58.9867 103.86 60.0289 103.137C61.0711 102.414 61.8757 101.399 62.341 100.219C62.8062 99.0388 62.9114 97.7474 62.643 96.5076C62.3747 95.2679 61.7449 94.1356 60.8333 93.2536C60.2281 92.6652 59.5127 92.2021 58.7282 91.8908C57.9436 91.5796 57.1053 91.4262 56.2613 91.4397C55.4174 91.4531 54.5844 91.633 53.8101 91.9691C53.0359 92.3052 52.3356 92.7908 51.7494 93.3981V93.4146Z" fill="#E0E0E0"/>
<path opacity="0.3" d="M7.92772 149.201C8.70217 148.735 9.53531 148.374 10.4052 148.128L10.913 145.688L15.0421 145.613L15.6367 148.037C16.5108 148.252 17.3523 148.582 18.1389 149.02L20.2241 147.653L23.1887 150.519L21.8963 152.649C22.3648 153.423 22.726 154.256 22.9699 155.127L25.4102 155.635L25.4845 159.764L23.0607 160.358C22.846 161.232 22.5155 162.074 22.078 162.86L23.4447 164.946L20.5792 167.91L18.4486 166.622C17.674 167.087 16.8408 167.447 15.9711 167.691L15.4633 170.132L11.3342 170.206L10.7396 167.782C9.8655 167.568 9.02399 167.237 8.2374 166.799L6.14396 168.133L3.1793 165.268L4.4717 163.137C4.00368 162.363 3.64256 161.53 3.39815 160.66L0.957865 160.152L0.883545 156.023L3.3073 155.428C3.522 154.554 3.8525 153.712 4.29002 152.926L2.9233 150.841L5.78887 147.876L7.91945 149.168L7.92772 149.201ZM10.1285 154.693C9.52111 155.322 9.11385 156.117 8.95825 156.978C8.80264 157.838 8.90567 158.726 9.25429 159.528C9.60291 160.33 10.1815 161.01 10.9169 161.483C11.6523 161.957 12.5114 162.201 13.3858 162.186C14.2601 162.171 15.1104 161.897 15.8291 161.399C16.5478 160.901 17.1027 160.201 17.4236 159.387C17.7445 158.574 17.817 157.684 17.632 156.829C17.447 155.974 17.0127 155.194 16.384 154.586C15.9662 154.181 15.4725 153.862 14.9312 153.648C14.39 153.434 13.8118 153.329 13.2298 153.339C12.6479 153.349 12.0737 153.474 11.5401 153.706C11.0065 153.938 10.524 154.274 10.1202 154.693H10.1285Z" fill="#EBEBEB"/>
<path opacity="0.3" d="M5.75171 58.206C6.22249 57.9208 6.72938 57.7 7.25883 57.5495L7.5685 56.063L10.0831 56.0176L10.4464 57.4958C10.9787 57.6266 11.4911 57.828 11.9701 58.0945L13.2418 57.2687L15.0545 59.0194L14.2658 60.3159C14.5487 60.7874 14.7681 61.2941 14.9182 61.823L16.4088 62.1327L16.4501 64.6473L14.976 65.0107C14.8437 65.5431 14.641 66.0555 14.3732 66.5343L15.199 67.806L13.4524 69.6146L12.1518 68.83C11.6814 69.1122 11.1761 69.3315 10.6488 69.4824L10.3391 70.9689L7.82037 71.0143L7.46115 69.5361C6.92697 69.4072 6.41295 69.2057 5.93339 68.9374L4.66166 69.7632L2.85313 68.0166L3.64177 66.716C3.35665 66.2466 3.13585 65.7411 2.98526 65.213L1.49878 64.8992L1.45337 62.3846L2.93158 62.0254C3.06251 61.4918 3.26383 60.9781 3.53027 60.4976L2.70446 59.2259L4.4552 57.4173L5.75171 58.206ZM7.09365 61.5546C6.72215 61.9386 6.47289 62.4242 6.37742 62.9498C6.28195 63.4755 6.34458 64.0177 6.55736 64.5078C6.77013 64.9979 7.12349 65.4138 7.57274 65.703C8.02199 65.9922 8.54692 66.1416 9.08112 66.1324C9.61531 66.1231 10.1348 65.9556 10.5737 65.651C11.0127 65.3465 11.3515 64.9185 11.5471 64.4214C11.7428 63.9242 11.7866 63.3802 11.673 62.8581C11.5594 62.3361 11.2935 61.8595 10.9089 61.4886C10.3938 60.9955 9.7048 60.7258 8.99183 60.7382C8.27886 60.7505 7.59962 61.044 7.10192 61.5546H7.09365Z" fill="#EBEBEB"/>
<g opacity="0.2">
<path d="M81.1154 7.38367C81.3389 8.8977 81.1081 10.444 80.4522 11.8267C79.7962 13.2095 78.7447 14.3665 77.4307 15.1511C76.1167 15.9358 74.5994 16.3129 73.071 16.2346C71.5425 16.1563 70.0717 15.6262 68.8448 14.7114C67.6179 13.7966 66.69 12.5382 66.1788 11.0957C65.6675 9.65315 65.5959 8.09136 65.9729 6.60809C66.3499 5.12482 67.1587 3.7868 68.2967 2.7635C69.4347 1.7402 70.8508 1.07765 72.3657 0.859754C74.3907 0.567093 76.4491 1.08958 78.0894 2.31261C79.7297 3.53564 80.818 5.35934 81.1154 7.38367Z" fill="#F5F5F5"/>
<path d="M79.2957 7.64675C79.4667 8.8009 79.2914 9.97986 78.7918 11.0343C78.2923 12.0887 77.491 12.9711 76.4896 13.5698C75.4881 14.1684 74.3315 14.4564 73.1662 14.3971C72.0009 14.3379 70.8795 13.9341 69.9439 13.237C69.0083 12.5399 68.3006 11.5807 67.9106 10.4811C67.5206 9.38145 67.4657 8.19079 67.7529 7.05993C68.0401 5.92907 68.6565 4.9089 69.524 4.12865C70.3916 3.34841 71.4711 2.8432 72.626 2.67701C74.1692 2.45357 75.738 2.85128 76.9883 3.78294C78.2386 4.71459 79.0684 6.10412 79.2957 7.64675Z" fill="#EBEBEB"/>
<path d="M79.2672 7.46473C79.1551 7.24877 79.0677 7.02084 79.0068 6.78526C78.6372 5.75494 77.9958 4.84374 77.1507 4.1481C76.756 3.83055 76.3231 3.56379 75.862 3.35408C75.083 2.9986 74.2347 2.82076 73.3785 2.83342C73.0748 2.84122 72.772 2.8708 72.4725 2.92194C72.1739 2.97647 71.8798 3.05304 71.5926 3.15102C71.3135 3.2457 71.0427 3.36325 70.783 3.50247C70.2894 3.76424 69.8362 4.09565 69.437 4.48653C69.0759 4.84146 68.7618 5.2413 68.5024 5.67625C68.2788 6.05847 68.0964 6.4634 67.9584 6.88419C67.7668 7.50815 67.6728 8.15797 67.6798 8.81064C67.7064 9.05115 67.7064 9.29385 67.6798 9.53436C67.5735 9.31034 67.5158 9.06635 67.5106 8.81845C67.4413 8.14587 67.4969 7.46627 67.6746 6.8139C67.9376 5.83201 68.4507 4.93507 69.1637 4.21058C69.3686 4.00105 69.5887 3.807 69.8223 3.63004C70.0684 3.44218 70.3297 3.27499 70.6033 3.1302C70.8826 2.97925 71.1734 2.85042 71.4728 2.74491C71.7825 2.63404 72.1001 2.547 72.423 2.48458C72.7457 2.42997 73.0721 2.39952 73.3993 2.39346C73.7172 2.38788 74.035 2.40877 74.3495 2.45594C74.6537 2.49908 74.954 2.56611 75.2476 2.6564C75.5285 2.74276 75.8026 2.84979 76.0677 2.9766C76.5566 3.21064 77.0119 3.50922 77.4214 3.86434C77.7747 4.17313 78.0902 4.52267 78.3612 4.90566C78.7533 5.45536 79.0393 6.07337 79.2047 6.72799C79.2789 6.96609 79.3002 7.21753 79.2672 7.46473Z" fill="#E0E0E0"/>
<path d="M74.6279 11.8771L74.7893 12.8924L73.886 13.0356L73.7271 12.0489C72.9192 12.1526 72.0983 12.0273 71.3581 11.6871L71.6783 10.5026C72.256 10.7825 72.8966 10.9072 73.5371 10.8644L73.295 9.3519C72.2537 9.26859 71.077 9.11499 70.8687 7.82115C70.7151 6.86052 71.28 5.92593 72.691 5.53283L72.5322 4.53055L73.4356 4.38477L73.5944 5.37142C74.2472 5.30426 74.9067 5.3935 75.5182 5.63175L75.2293 6.81366C74.7646 6.63074 74.2681 6.54224 73.7688 6.55333L74.0291 8.09189C75.0705 8.16479 76.2289 8.32359 76.432 9.59921C76.5778 10.5546 76.0103 11.4788 74.6279 11.8771ZM73.0815 8.02941L72.8863 6.72775C72.4255 6.91259 72.2771 7.20416 72.324 7.50875C72.3708 7.81334 72.665 7.95912 73.0815 8.02941ZM74.9898 9.96107C74.9377 9.64607 74.6487 9.51591 74.2374 9.44041L74.4379 10.6874C74.8726 10.5104 75.034 10.2448 74.9898 9.95326V9.96107Z" fill="#EEB217"/>
</g>
<g opacity="0.2">
<path d="M126.972 184.378C127.259 186.309 126.965 188.283 126.129 190.048C125.293 191.813 123.952 193.29 122.276 194.292C120.6 195.295 118.665 195.777 116.714 195.679C114.764 195.581 112.886 194.906 111.319 193.74C109.753 192.575 108.567 190.97 107.913 189.13C107.258 187.29 107.164 185.297 107.643 183.404C108.122 181.511 109.152 179.802 110.602 178.494C112.053 177.186 113.858 176.338 115.791 176.057C118.377 175.678 121.008 176.342 123.105 177.902C125.202 179.462 126.593 181.792 126.972 184.378Z" fill="#F5F5F5"/>
<path d="M124.648 184.716C124.865 186.188 124.641 187.691 124.004 189.036C123.366 190.38 122.344 191.505 121.067 192.269C119.79 193.032 118.315 193.399 116.829 193.324C115.343 193.249 113.913 192.734 112.719 191.845C111.526 190.957 110.623 189.734 110.124 188.332C109.626 186.93 109.555 185.412 109.92 183.969C110.285 182.527 111.07 181.225 112.176 180.229C113.281 179.233 114.657 178.587 116.129 178.373C118.1 178.086 120.104 178.593 121.701 179.782C123.298 180.971 124.358 182.746 124.648 184.716Z" fill="#EBEBEB"/>
<path d="M124.611 184.485C124.472 184.208 124.362 183.918 124.284 183.618C124.003 182.842 123.601 182.115 123.095 181.463C122.35 180.501 121.38 179.737 120.271 179.237C119.954 179.093 119.627 178.971 119.292 178.874C118.943 178.773 118.587 178.699 118.227 178.651C117.855 178.598 117.48 178.575 117.104 178.585C116.716 178.593 116.33 178.631 115.948 178.696C115.567 178.765 115.191 178.863 114.825 178.989C114.469 179.11 114.124 179.259 113.793 179.435C113.162 179.761 112.583 180.179 112.075 180.674C111.205 181.526 110.557 182.578 110.188 183.738C109.938 184.524 109.812 185.345 109.812 186.17C109.847 186.477 109.847 186.787 109.812 187.095C109.676 186.81 109.602 186.498 109.597 186.182C109.507 185.323 109.577 184.455 109.804 183.622C110.143 182.375 110.798 181.237 111.707 180.319C111.964 180.052 112.24 179.803 112.533 179.576C112.845 179.338 113.175 179.125 113.52 178.94C113.877 178.747 114.248 178.583 114.631 178.448C115.428 178.17 116.264 178.022 117.108 178.011C117.907 177.998 118.703 178.112 119.466 178.349C119.824 178.46 120.173 178.598 120.51 178.762C121.136 179.059 121.718 179.439 122.241 179.894C122.692 180.288 123.095 180.735 123.442 181.223C123.941 181.928 124.305 182.719 124.516 183.556C124.612 183.856 124.645 184.172 124.611 184.485Z" fill="#E0E0E0"/>
<path d="M118.694 190.112L118.9 191.405L117.748 191.591L117.546 190.352C116.515 190.486 115.467 190.326 114.523 189.889L114.936 188.378C115.672 188.737 116.49 188.897 117.306 188.841L116.997 186.912C115.667 186.805 114.164 186.607 113.9 184.955C113.706 183.716 114.429 182.54 116.216 182.04L116.014 180.76L117.166 180.574L117.368 181.813C118.208 181.722 119.058 181.834 119.846 182.139L119.495 183.655C118.902 183.423 118.269 183.315 117.633 183.337L117.946 185.298C119.276 185.393 120.754 185.595 121.014 187.222C121.184 188.424 120.473 189.604 118.694 190.112ZM116.72 185.195L116.46 183.543C115.87 183.778 115.68 184.154 115.742 184.534C115.804 184.914 116.188 185.116 116.72 185.195ZM119.152 187.672C119.09 187.259 118.739 187.102 118.194 187.007L118.45 188.601C118.999 188.366 119.214 188.027 119.152 187.66V187.672Z" fill="#EEB217"/>
</g>
<path d="M133.699 121.062C135.231 121.145 136.379 119.369 136.082 117.866C135.784 116.363 134.463 115.249 133.047 114.662C131.631 114.076 130.086 113.898 128.604 113.519C126.397 112.942 124.304 111.204 122.503 109.804C120.703 108.403 120.128 107.696 119.027 105.699C118.24 104.172 117.225 101.897 116.723 100.253C114.658 91.4669 111.241 79.268 110.523 74.3751C108.698 61.7443 105.473 47.8706 87.4249 49.163C87.4249 49.163 75.4217 51.4216 70.8178 60.0307C66.7672 67.5993 69.1042 90.4247 68.5675 106.867L72.5025 109.237L73.1136 109.274C73.5684 110.954 74.3011 112.547 75.2813 113.985C78.8777 119.113 83.7707 123.23 89.0724 126.558C99.8079 133.284 112.608 136.955 125.202 135.692C127.861 135.423 130.569 134.924 132.882 133.606C135.194 132.289 137.131 130.035 137.481 127.388C137.832 124.741 136.276 121.789 133.699 121.062Z" fill="#263238"/>
<path d="M85.0219 53.8577L86.1532 52.7842L98.3546 57.7019C99.2072 57.7491 100.011 58.1149 100.607 58.7267C101.202 59.3384 101.547 60.1516 101.571 61.0051L101.464 100.768C101.464 103.464 100.939 105.801 99.3125 107.948L97.599 110.211C93.6888 115.372 85.6495 114.947 82.5568 109.261C82.3764 108.938 82.2377 108.592 82.1439 108.233C82.082 107.878 81.9829 107.647 81.9622 107.346C81.5989 104.146 81.5782 101.371 81.5782 101.371C81.3635 97.8611 81.2892 96.416 81.2892 96.449C81.2892 96.482 73.8156 95.5901 71.7924 85.9983C70.7849 81.2251 70.9666 74.6599 71.2597 68.198C71.6313 59.2544 77.8332 53.8495 85.0219 53.8577Z" fill="#FFBF9D"/>
<path d="M81.2683 96.4451C85.8331 96.2909 90.2651 94.8699 94.0684 92.3408C94.0684 92.3408 91.1285 99.1992 81.4252 98.7656L81.2683 96.4451Z" fill="#FF9A6C"/>
<path d="M101.327 77.9715C101.327 77.9715 94.4934 80.098 90.6245 63.2266C89.299 57.4459 83.9519 52.7842 83.9519 52.7842L86.1197 52.1318C86.1197 52.1318 99.601 55.9306 99.8281 56.0999C100.055 56.2692 103.23 63.0697 103.23 63.0697L101.327 77.9715Z" fill="#263238"/>
<path d="M99.6424 77.3399C99.6094 76.6215 100.357 74.8831 101.063 74.7345C102.946 74.3422 106.377 74.3216 106.654 79.1485C107.025 85.755 100.332 84.7557 100.307 84.5658C100.282 84.3759 99.7622 79.8298 99.6424 77.3399Z" fill="#FFBF9D"/>
<path d="M102.182 81.9557C102.206 81.9309 102.301 82.03 102.5 82.1043C102.779 82.208 103.087 82.1976 103.358 82.0754C104.04 81.7781 104.564 80.6426 104.527 79.4493C104.513 78.8843 104.372 78.3297 104.114 77.8266C104.04 77.6253 103.919 77.4449 103.76 77.301C103.601 77.1571 103.409 77.0541 103.202 77.0008C103.068 76.9724 102.928 76.992 102.807 77.0561C102.687 77.1203 102.592 77.225 102.541 77.3518C102.462 77.5417 102.512 77.6738 102.479 77.6862C102.446 77.6986 102.33 77.583 102.368 77.3064C102.398 77.1463 102.481 77.001 102.603 76.8935C102.689 76.8195 102.788 76.7632 102.896 76.7278C103.004 76.6924 103.117 76.6785 103.23 76.687C103.5 76.7292 103.755 76.8387 103.972 77.0054C104.188 77.1721 104.359 77.3906 104.469 77.6408C104.783 78.1963 104.956 78.82 104.973 79.4576C105.006 80.7872 104.395 82.0713 103.458 82.4016C103.283 82.4627 103.098 82.484 102.914 82.464C102.73 82.444 102.553 82.3832 102.396 82.286C102.202 82.1126 102.157 81.9681 102.182 81.9557Z" fill="#FF9A6C"/>
<path d="M106.897 102.255C106.797 101.491 106.748 100.721 106.753 99.951C106.782 97.8498 106.997 95.7552 107.393 93.6914C107.628 92.3825 107.884 90.9497 108.161 89.4137C108.46 87.7759 108.657 86.1211 108.751 84.4588C108.863 82.6303 108.724 80.7952 108.338 79.0043C108.124 78.0622 107.813 77.1448 107.409 76.2668C106.987 75.3666 106.463 74.5174 105.849 73.7356C104.603 72.2111 103.213 70.8104 101.699 69.5529C100.254 68.3142 98.8705 67.0755 97.64 65.8368C95.4608 63.6133 93.4886 61.1961 91.7478 58.615C90.5641 56.8801 89.4912 55.0721 88.5354 53.2018C88.1968 52.537 87.9491 52.0168 87.7881 51.6617C87.7096 51.4883 87.6477 51.3561 87.6064 51.2488C87.5834 51.2036 87.5641 51.1566 87.5486 51.1084L87.6229 51.2405L87.8211 51.6534C87.9904 52.0044 88.234 52.5205 88.5974 53.1771C89.5762 55.0291 90.6641 56.8216 91.8552 58.5448C93.616 61.1082 95.6046 63.5073 97.7969 65.7129C99.0356 66.9516 100.406 68.1903 101.852 69.429C103.378 70.6911 104.777 72.0989 106.03 73.6324C106.655 74.4244 107.186 75.2863 107.612 76.2007C108.02 77.0905 108.334 78.0205 108.549 78.9754C108.935 80.783 109.074 82.6345 108.962 84.4795C108.859 86.142 108.655 87.7967 108.351 89.4343C108.066 90.9703 107.802 92.4031 107.562 93.7079C107.154 95.7642 106.921 97.8513 106.864 99.9469C106.864 100.69 106.864 101.268 106.91 101.656L106.939 102.098C106.931 102.152 106.917 102.205 106.897 102.255Z" fill="#455A64"/>
<path d="M109.02 102.895C108.916 102.131 108.868 101.361 108.875 100.591C108.9 98.4828 109.11 96.3812 109.503 94.3103C109.738 93.0014 109.994 91.5686 110.271 90.0326C110.568 88.3945 110.766 86.7398 110.861 85.0777C110.973 83.2479 110.834 81.4113 110.449 79.6191C110.237 78.6767 109.927 77.7592 109.524 76.8815C109.101 75.9814 108.577 75.1322 107.963 74.3504C106.716 72.8258 105.325 71.4251 103.809 70.1677C102.368 68.929 100.981 67.6903 99.7543 66.4515C97.5615 64.2334 95.5767 61.8188 93.825 59.2381C92.6413 57.5031 91.5683 55.6951 90.6126 53.8249C90.274 53.1642 90.0263 52.644 89.8652 52.2847L89.6794 51.8718C89.6578 51.8266 89.6398 51.7796 89.6257 51.7314C89.6518 51.774 89.6753 51.8181 89.6959 51.8636L89.8983 52.2765C90.0676 52.6275 90.3112 53.1436 90.6745 53.8001C91.6533 55.6522 92.7412 57.4446 93.9323 59.1679C95.694 61.7281 97.6811 64.1256 99.8699 66.3318C101.109 67.5705 102.479 68.8092 103.929 70.048C105.455 71.31 106.854 72.7178 108.107 74.2513C108.728 75.046 109.259 75.9074 109.689 76.8196C110.097 77.7094 110.411 78.6394 110.626 79.5943C111.012 81.4019 111.151 83.2535 111.039 85.0984C110.937 86.7609 110.733 88.4156 110.428 90.0532C110.143 91.5893 109.879 93.022 109.635 94.3268C109.231 96.3835 108.999 98.4705 108.941 100.566C108.941 101.309 108.941 101.887 108.983 102.275C108.983 102.465 109.008 102.61 109.012 102.721C109.023 102.778 109.026 102.837 109.02 102.895Z" fill="#455A64"/>
<path d="M61.8332 112.392C58.9841 114.213 55.8089 117.157 54.3018 120.179C51.5766 125.654 32.4632 140.362 31.7158 143.921C29.9981 159.141 46.8282 158.943 53.6411 150.8C57.1673 146.588 64.9382 130.811 64.9382 130.811L61.8332 112.392Z" fill="#807EF3"/>
<path d="M40.1804 135.927C40.1804 135.927 52.8154 115.587 55.2928 112.742C59.0874 108.369 65.6815 106.61 65.6815 106.61L67.1019 133.28C67.1886 132.912 54.0458 149.709 54.0458 149.709C54.0458 149.709 41.7866 140.605 40.1804 135.927Z" fill="#807EF3"/>
<path d="M48.0298 115.327L34.2924 141.559C33.6228 142.814 33.4455 144.274 33.7952 145.653C34.145 147.033 34.9966 148.232 36.1835 149.016L36.2413 149.053C41.51 152.385 48.4923 149.132 49.6525 143.008L54.4877 118.494L48.0298 115.327Z" fill="#FFBF9D"/>
<path d="M61.3954 92.5029L52.5798 113.553L54.5866 114.395L63.1296 93.1099L61.3954 92.5029Z" fill="white"/>
<g filter="url(#filter0_b_107_11202)">
<path d="M76.8741 82.1791C77.4149 75.5301 72.8642 69.7343 66.7099 69.2338C60.5556 68.7332 55.1282 73.7174 54.5874 80.3663C54.0466 87.0153 58.5972 92.8111 64.7515 93.3116C70.9058 93.8122 76.3333 88.828 76.8741 82.1791Z" fill="#EDFDFC" fill-opacity="0.3"/>
</g>
<path d="M76.8936 81.2746C76.8219 81.0266 76.7841 80.77 76.7813 80.5118C76.7813 80.3855 76.7813 80.2451 76.7486 80.0953C76.7158 79.9455 76.6924 79.7771 76.6643 79.5946C76.6105 79.1809 76.5292 78.7713 76.421 78.3684C76.1558 77.2743 75.7399 76.2222 75.1855 75.2423C74.4785 73.9735 73.5368 72.8506 72.4103 71.9337C71.0934 70.8513 69.5291 70.1117 67.8568 69.7809C67.4062 69.6923 66.9493 69.6391 66.4903 69.6218C66.2563 69.6218 66.0223 69.589 65.7837 69.5937L65.0676 69.6358C64.9506 69.6358 64.829 69.6358 64.7073 69.6639L64.347 69.7248C64.1083 69.7716 63.879 69.7996 63.6216 69.8558C63.1296 69.9791 62.6464 70.1354 62.1755 70.3238C61.6923 70.5135 61.2232 70.7371 60.7715 70.993C60.5422 71.1287 60.3035 71.2831 60.093 71.4282C59.8637 71.5662 59.6462 71.7227 59.4425 71.8962C58.5424 72.5855 57.7641 73.4207 57.14 74.3672C56.4551 75.3464 55.9233 76.4242 55.5629 77.5635C54.7962 79.9399 54.7635 82.4923 55.4693 84.8875C55.7966 86.0274 56.3003 87.109 56.9621 88.0932C57.2767 88.5663 57.6222 89.0181 57.9964 89.4456C58.3706 89.8491 58.7725 90.2259 59.1991 90.5735C59.4018 90.744 59.6161 90.9004 59.8403 91.0415C60.0649 91.1866 60.2801 91.341 60.5048 91.4767C60.9556 91.7355 61.4249 91.9607 61.9087 92.1506C62.3749 92.3388 62.8534 92.4952 63.3408 92.6186C63.5794 92.6747 63.8088 92.7075 64.0662 92.7496L64.4218 92.8151C64.5435 92.8151 64.6652 92.8151 64.7822 92.8432L65.4982 92.8853C65.7369 92.8853 65.9662 92.8853 66.2048 92.8619C66.6653 92.8447 67.1238 92.7915 67.5761 92.7028C69.2632 92.3767 70.8454 91.6442 72.1857 90.5688C73.3344 89.6551 74.3039 88.5365 75.0451 87.2695C75.6232 86.2919 76.0656 85.2402 76.3601 84.1434C76.4782 83.741 76.5705 83.3314 76.6362 82.9173C76.669 82.7394 76.7064 82.5756 76.7298 82.4212L76.7766 82.0047C76.7835 81.7454 76.8276 81.4885 76.9077 81.2419C76.9642 81.4968 76.9784 81.7592 76.9498 82.0187C76.9498 82.1451 76.9498 82.2902 76.9498 82.4446C76.9498 82.599 76.917 82.7722 76.8936 82.9594C76.8559 83.3881 76.7871 83.8135 76.6877 84.2323C76.444 85.388 76.0309 86.5014 75.4616 87.5363C74.7268 88.8951 73.7406 90.1021 72.5554 91.093C71.1568 92.2699 69.4902 93.0848 67.7024 93.4656C67.2212 93.5671 66.7332 93.6328 66.2423 93.6622C65.9943 93.6622 65.7415 93.6996 65.4888 93.695L64.7213 93.6622C64.595 93.6622 64.4639 93.6622 64.3376 93.6341L63.9492 93.5733C63.6918 93.5312 63.4344 93.4984 63.1723 93.4422C62.1068 93.1863 61.0816 92.7848 60.1257 92.2489C59.8824 92.1085 59.6577 91.94 59.4097 91.7809C59.1645 91.6273 58.9314 91.4552 58.7124 91.2661C57.7628 90.5208 56.9422 89.6243 56.2836 88.6126C55.5687 87.5519 55.0225 86.3869 54.6643 85.1589C53.8931 82.5719 53.929 79.8113 54.7673 77.2453C55.1572 76.0165 55.7333 74.8549 56.4754 73.8009C56.8302 73.294 57.2179 72.8109 57.636 72.3548C58.0547 71.9244 58.5019 71.5225 58.9745 71.1521C59.1988 70.9655 59.4348 70.7936 59.6811 70.6373C59.9245 70.4829 60.1491 70.3191 60.4112 70.1693C61.3793 69.637 62.4152 69.2387 63.4905 68.9853C63.7479 68.9292 64.01 68.9011 64.2674 68.8543L64.6558 68.7981C64.7868 68.7981 64.9132 68.7981 65.0442 68.7701L65.8071 68.7373C66.0598 68.7373 66.3125 68.7654 66.5605 68.7748C67.05 68.8054 67.5365 68.8727 68.016 68.976C69.788 69.3578 71.4358 70.1784 72.8081 71.3627C74.8629 73.1613 76.2485 75.6025 76.7392 78.2889C76.8271 78.7085 76.885 79.1339 76.9123 79.5618C76.9123 79.749 76.9498 79.9175 76.9545 80.0766C76.9592 80.2357 76.9545 80.3761 76.9545 80.5025C76.9751 80.7614 76.9545 81.0221 76.8936 81.2746Z" fill="white"/>
<path d="M59.6206 89.0041C59.5644 89.0977 58.7969 88.7139 57.8703 87.661C56.6486 86.2268 55.8627 84.4731 55.6053 82.6067C55.3369 80.7011 55.5975 78.7584 56.3587 76.9909C56.9484 75.6712 57.5661 75.0394 57.6457 75.119C57.7252 75.1985 57.3321 75.9473 56.925 77.2436C56.3887 78.9213 56.2289 80.6965 56.457 82.4429C56.7105 84.157 57.3507 85.7909 58.3289 87.2211C59.1105 88.3255 59.7048 88.8871 59.6206 89.0041Z" fill="white"/>
<path d="M62.6201 90.8774C62.6042 90.9492 62.5664 91.0143 62.5119 91.0638C62.4574 91.1132 62.3889 91.1446 62.3159 91.1535C62.0896 91.1987 61.8546 91.1587 61.656 91.0412C61.4469 90.9311 61.2817 90.7528 61.188 90.5358C61.1519 90.4692 61.1357 90.3935 61.1415 90.318C61.1474 90.2424 61.1749 90.1702 61.2208 90.1099C61.408 89.9414 61.7403 90.0397 62.0585 90.2082C62.3767 90.3766 62.6388 90.62 62.6201 90.8774Z" fill="white"/>
<path d="M49.5616 112.049C49.5616 112.049 53.5255 101.545 54.1036 101C54.6816 100.455 60.5325 95.5412 60.5325 95.5412C61.1435 95.4422 61.7701 95.5269 62.3328 95.7848C62.9067 96.1234 64.3023 98.3283 64.8597 99.2326C64.9346 99.355 64.9844 99.491 65.0064 99.6327C65.0283 99.7745 65.022 99.9191 64.9877 100.058L64.3519 102.123C64.3519 102.123 65.1157 103.325 64.9341 104.187C64.8068 104.757 64.5953 105.304 64.3064 105.81C64.6963 106.562 64.7905 107.433 64.5707 108.25C64.2736 109.017 63.6987 109.644 62.9604 110.005C62.9604 110.005 62.5144 112.161 62.4525 112.586C62.3906 113.011 60.2393 113.982 60.0164 113.92C59.7934 113.858 58.2243 113.189 58.2243 113.189C58.2243 113.189 57.5018 116.711 56.5934 117.5C55.9867 117.993 55.2652 118.325 54.4958 118.466L53.3892 124.085L46.407 118.784L49.5616 112.049Z" fill="#FFBF9D"/>
<path d="M59.1658 108.87C59.8108 109.025 60.4441 109.225 61.061 109.469C61.6954 109.662 62.3185 109.891 62.9273 110.154C62.2713 110.049 61.6288 109.871 61.0114 109.626C60.3741 109.432 59.7562 109.179 59.1658 108.87Z" fill="#FF9A6C"/>
<path d="M59.2195 104.501C59.4828 104.508 59.7445 104.544 59.9999 104.608C60.4789 104.699 61.1313 104.848 61.8497 105.046C62.5682 105.244 63.204 105.459 63.6665 105.62C63.9202 105.694 64.1642 105.798 64.3932 105.93C64.1347 105.886 63.8804 105.82 63.6334 105.731C63.1669 105.595 62.5227 105.405 61.8084 105.207C61.0941 105.009 60.4458 104.844 59.9792 104.724C59.7202 104.671 59.4661 104.596 59.2195 104.501Z" fill="#FF9A6C"/>
<path d="M58.4636 101.087C58.7508 101.046 59.0419 101.039 59.3307 101.066C60.0236 101.093 60.7136 101.17 61.3952 101.298C62.081 101.423 62.7571 101.597 63.4185 101.818C63.7062 101.894 63.9835 102.005 64.2443 102.148C63.9637 102.097 63.6876 102.024 63.4185 101.929C62.9065 101.785 62.1798 101.607 61.3952 101.459C60.6107 101.31 59.8716 101.227 59.3307 101.182C59.0397 101.172 58.7499 101.14 58.4636 101.087Z" fill="#FF9A6C"/>
<path d="M62.8448 101.626C62.6568 101.135 62.5985 100.603 62.6755 100.082C62.4424 100.107 62.2066 100.079 61.9857 100.001C61.7648 99.922 61.5645 99.7946 61.3996 99.6279C61.0321 100.09 60.5408 100.73 60.1609 101.193L62.8448 101.626Z" fill="#455A64"/>
<path d="M62.9275 110.438L64.9672 134.614C64.9672 134.614 68.7164 158.851 68.4398 160.569C68.1631 162.287 64.8021 170.64 64.8021 170.64C79.3116 176.507 101.072 178.799 120.445 170.099L115.552 158.831L121.003 108.493L101.282 101.759C101.282 101.759 100.097 108.943 90.65 108.146C81.2027 107.35 81.372 102.13 81.372 102.13L64.6122 106.928L62.9275 110.438Z" fill="#807EF3"/>
<path d="M137.874 159.619C137.874 159.619 125.821 108.894 120.495 108.489L116.498 146.968L124.037 168.439C129.182 165.755 133.906 162.861 137.874 159.619Z" fill="#807EF3"/>
<path d="M119.672 118.173C119.734 118.173 119.202 124.3 118.492 131.84C117.781 139.38 117.154 145.491 117.096 145.487C117.038 145.482 117.567 139.363 118.277 131.819C118.987 124.276 119.615 118.173 119.672 118.173Z" fill="#263238"/>
<path d="M63.1876 117.722C63.2113 117.809 63.2265 117.899 63.233 117.99C63.2577 118.188 63.2908 118.444 63.3279 118.762C63.4023 119.464 63.5096 120.414 63.6376 121.615C63.8895 124.023 64.2363 127.351 64.6575 131.021C65.0787 134.692 65.5163 138.012 65.8632 140.407C66.0407 141.584 66.1811 142.55 66.2761 143.243L66.3876 144.016C66.4069 144.105 66.4152 144.197 66.4124 144.288C66.3815 144.202 66.3594 144.114 66.3463 144.024C66.305 143.826 66.2554 143.574 66.1935 143.256C66.0655 142.591 65.9003 141.625 65.7063 140.432C65.3181 138.037 64.8598 134.721 64.4386 131.046C64.0175 127.371 63.6913 124.027 63.4766 121.632C63.3775 120.443 63.2949 119.472 63.2371 118.77C63.2123 118.453 63.1958 118.192 63.1834 117.994C63.173 117.904 63.1744 117.812 63.1876 117.722Z" fill="#263238"/>
<path d="M79.196 103.37L81.1243 100.29L91.2735 108.49L101.196 98.8076L104.359 102.809L92.3471 115.679L79.196 103.37Z" fill="#C1BCFF"/>
<path d="M91.4089 109.649C91.4064 109.817 91.3914 109.984 91.3641 110.15C91.3209 110.473 91.2529 110.942 91.1414 111.536C90.8276 113.147 90.3819 114.73 89.8087 116.269L89.7513 116.423L89.6415 116.299C88.7248 115.258 87.7494 114.11 86.691 112.91C84.6287 110.569 82.7203 108.48 81.3378 106.977L79.6958 105.197L79.2403 104.709C79.1393 104.593 79.0885 104.531 79.0964 104.526C79.1586 104.572 79.2169 104.622 79.2707 104.677L79.7242 105.14C80.1272 105.546 80.7073 106.135 81.4121 106.875C82.8299 108.355 84.7533 110.426 86.8201 112.771C87.8785 113.97 88.8707 115.121 89.7593 116.174L89.5906 116.188C90.1711 114.665 90.6389 113.102 90.9901 111.512C91.1188 110.925 91.2078 110.457 91.2883 110.135C91.3146 109.97 91.3549 109.807 91.4089 109.649Z" fill="#263238"/>
<path d="M103.436 104.456C103.413 104.52 103.383 104.581 103.345 104.638L103.056 105.138C102.796 105.55 102.412 106.182 101.904 106.925C100.587 108.859 99.13 110.693 97.5439 112.413C96.491 113.557 95.4422 114.585 94.4925 115.452L94.4224 115.518L94.3563 115.452C93.4097 114.479 92.6199 113.364 92.0151 112.149C91.8004 111.703 91.6517 111.323 91.5609 111.092C91.5077 110.965 91.4675 110.834 91.4412 110.699C91.5133 110.815 91.5728 110.938 91.6187 111.067C91.7261 111.311 91.8871 111.661 92.1183 112.095C92.7476 113.285 93.549 114.376 94.4967 115.332H94.3604C95.3018 114.457 96.3382 113.425 97.3829 112.289C98.961 110.573 100.43 108.76 101.78 106.859C102.301 106.129 102.705 105.53 102.986 105.113L103.308 104.634C103.387 104.506 103.428 104.452 103.436 104.456Z" fill="#263238"/>
<path d="M91.3972 174.657C91.3393 174.657 91.2898 160.346 91.2898 142.698C91.2898 125.051 91.3352 110.739 91.3972 110.739C91.4591 110.739 91.5045 125.046 91.5045 142.702C91.5045 160.358 91.455 174.657 91.3972 174.657Z" fill="#263238"/>
<path d="M96.4466 154.983C96.4466 155.041 92.3175 154.157 87.2636 152.989C82.2096 151.82 78.1218 150.842 78.1218 150.792C78.1218 150.742 82.2509 151.618 87.309 152.786C92.3671 153.955 96.459 154.921 96.4466 154.983Z" fill="#263238"/>
<path d="M49.3056 150.817C49.2685 150.792 49.7185 150.293 50.1975 149.368C50.4828 148.824 50.7191 148.256 50.9036 147.671C51.3535 146.232 51.4777 144.712 51.2669 143.22C51.1842 142.612 51.046 142.014 50.854 141.432C50.5154 140.437 50.1727 139.875 50.2099 139.854C50.3111 139.971 50.3971 140.1 50.4659 140.238C50.5602 140.392 50.6444 140.552 50.7177 140.717C50.8235 140.932 50.9172 141.153 50.9985 141.378C51.2177 141.965 51.3768 142.572 51.4734 143.191C51.5834 143.949 51.6111 144.718 51.5559 145.482C51.4841 146.246 51.3319 147.001 51.1017 147.733C50.9046 148.327 50.6487 148.899 50.3379 149.442C50.2211 149.65 50.0929 149.851 49.9539 150.045C49.8557 150.197 49.7466 150.342 49.6277 150.479C49.5335 150.603 49.4254 150.717 49.3056 150.817Z" fill="#263238"/>
<defs>
<filter id="filter0_b_107_11202" x="50.5437" y="65.1992" width="30.374" height="32.1475" filterUnits="userSpaceOnUse" color-interpolation-filters="sRGB">
<feFlood flood-opacity="0" result="BackgroundImageFix"/>
<feGaussianBlur in="BackgroundImage" stdDeviation="2"/>
<feComposite in2="SourceAlpha" operator="in" result="effect1_backgroundBlur_107_11202"/>
<feBlend mode="normal" in="SourceGraphic" in2="effect1_backgroundBlur_107_11202" result="shape"/>
</filter>
</defs>
</svg>
