<svg width="20" height="20" viewBox="0 0 20 20" fill="none" xmlns="http://www.w3.org/2000/svg">
<path d="M10.276 13.4961C12.14 13.4961 13.651 11.9851 13.651 10.1211C13.651 8.25713 12.14 6.74609 10.276 6.74609C8.41204 6.74609 6.901 8.25713 6.901 10.1211C6.901 11.9851 8.41204 13.4961 10.276 13.4961Z" stroke="#8E8B9E" stroke-width="1.2" stroke-linecap="round" stroke-linejoin="round"/>
<path d="M16.3305 12.5756C16.2216 12.8224 16.1891 13.0962 16.2373 13.3616C16.2854 13.627 16.4119 13.8719 16.6005 14.0647L16.6496 14.1138C16.8018 14.2658 16.9225 14.4463 17.0048 14.6449C17.0872 14.8436 17.1296 15.0565 17.1296 15.2715C17.1296 15.4866 17.0872 15.6995 17.0048 15.8982C16.9225 16.0968 16.8018 16.2773 16.6496 16.4293C16.4977 16.5814 16.3172 16.7021 16.1185 16.7845C15.9199 16.8668 15.707 16.9092 15.4919 16.9092C15.2769 16.9092 15.0639 16.8668 14.8653 16.7845C14.6666 16.7021 14.4862 16.5814 14.3342 16.4293L14.2851 16.3802C14.0923 16.1916 13.8474 16.065 13.5819 16.0169C13.3165 15.9688 13.0428 16.0013 12.796 16.1102C12.554 16.2139 12.3476 16.3861 12.2023 16.6056C12.0569 16.8251 11.9789 17.0824 11.9778 17.3456V17.4847C11.9778 17.9187 11.8054 18.3349 11.4985 18.6418C11.1917 18.9487 10.7754 19.1211 10.3415 19.1211C9.90746 19.1211 9.49125 18.9487 9.18437 18.6418C8.87749 18.3349 8.70509 17.9187 8.70509 17.4847V17.4111C8.69876 17.1403 8.6111 16.8776 8.45351 16.6573C8.29592 16.437 8.07569 16.2691 7.82146 16.1756C7.57468 16.0667 7.30093 16.0342 7.03552 16.0824C6.77011 16.1305 6.52519 16.257 6.33236 16.4456L6.28327 16.4947C6.1313 16.6469 5.95083 16.7676 5.75218 16.8499C5.55352 16.9323 5.34059 16.9747 5.12555 16.9747C4.9105 16.9747 4.69757 16.9323 4.49892 16.8499C4.30027 16.7676 4.11979 16.6469 3.96782 16.4947C3.81568 16.3428 3.69498 16.1623 3.61263 15.9636C3.53028 15.765 3.4879 15.552 3.4879 15.337C3.4879 15.122 3.53028 14.909 3.61263 14.7104C3.69498 14.5117 3.81568 14.3312 3.96782 14.1793L4.01691 14.1302C4.20553 13.9374 4.33206 13.6924 4.38019 13.427C4.42831 13.1616 4.39582 12.8879 4.28691 12.6411C4.18319 12.3991 4.01098 12.1927 3.79147 12.0473C3.57196 11.902 3.31474 11.824 3.05146 11.8229H2.91236C2.47837 11.8229 2.06216 11.6505 1.75528 11.3436C1.4484 11.0368 1.276 10.6205 1.276 10.1865C1.276 9.75256 1.4484 9.33634 1.75528 9.02946C2.06216 8.72259 2.47837 8.55018 2.91236 8.55018H2.986C3.25681 8.54385 3.51946 8.45619 3.73979 8.2986C3.96012 8.14101 4.12795 7.92079 4.22146 7.66655C4.33037 7.41977 4.36286 7.14603 4.31473 6.88061C4.26661 6.6152 4.14008 6.37029 3.95146 6.17746L3.90236 6.12837C3.75022 5.97639 3.62952 5.79592 3.54718 5.59727C3.46483 5.39862 3.42244 5.18568 3.42244 4.97064C3.42244 4.7556 3.46483 4.54266 3.54718 4.34401C3.62952 4.14536 3.75022 3.96489 3.90236 3.81291C4.05434 3.66077 4.23481 3.54007 4.43346 3.45772C4.63211 3.37537 4.84505 3.33299 5.06009 3.33299C5.27514 3.33299 5.48807 3.37537 5.68672 3.45772C5.88537 3.54007 6.06584 3.66077 6.21782 3.81291L6.26691 3.862C6.45974 4.05062 6.70465 4.17715 6.97006 4.22528C7.23548 4.2734 7.50922 4.24092 7.756 4.132H7.82146C8.06345 4.02829 8.26983 3.85608 8.4152 3.63657C8.56058 3.41706 8.63859 3.15983 8.63964 2.89655V2.75746C8.63964 2.32347 8.81204 1.90725 9.11892 1.60037C9.4258 1.2935 9.84201 1.12109 10.276 1.12109C10.71 1.12109 11.1262 1.2935 11.4331 1.60037C11.74 1.90725 11.9124 2.32347 11.9124 2.75746V2.83109C11.9134 3.09437 11.9914 3.3516 12.1368 3.57111C12.2822 3.79062 12.4886 3.96283 12.7305 4.06655C12.9773 4.17546 13.2511 4.20795 13.5165 4.15982C13.7819 4.1117 14.0268 3.98517 14.2196 3.79655L14.2687 3.74746C14.4207 3.59531 14.6012 3.47462 14.7998 3.39227C14.9985 3.30992 15.2114 3.26753 15.4265 3.26753C15.6415 3.26753 15.8544 3.30992 16.0531 3.39227C16.2517 3.47462 16.4322 3.59531 16.5842 3.74746C16.7363 3.89943 16.857 4.0799 16.9394 4.27856C17.0217 4.47721 17.0641 4.69014 17.0641 4.90518C17.0641 5.12023 17.0217 5.33316 16.9394 5.53181C16.857 5.73047 16.7363 5.91094 16.5842 6.06291L16.5351 6.112C16.3465 6.30483 16.2199 6.54974 16.1718 6.81516C16.1237 7.08057 16.1562 7.35432 16.2651 7.60109V7.66655C16.3688 7.90854 16.541 8.11493 16.7605 8.2603C16.98 8.40567 17.2373 8.48368 17.5005 8.48473H17.6396C18.0736 8.48473 18.4898 8.65713 18.7967 8.96401C19.1036 9.27089 19.276 9.6871 19.276 10.1211C19.276 10.5551 19.1036 10.9713 18.7967 11.2782C18.4898 11.5851 18.0736 11.7575 17.6396 11.7575H17.566C17.3027 11.7585 17.0455 11.8365 16.826 11.9819C16.6065 12.1273 16.4343 12.3336 16.3305 12.5756V12.5756Z" stroke="#8E8B9E" stroke-width="1.2" stroke-linecap="round" stroke-linejoin="round"/>
</svg>
