<svg width="19" height="22" viewBox="0 0 19 22" fill="none" xmlns="http://www.w3.org/2000/svg">
<path d="M15.6284 14.7472C15.2231 14.7488 14.8223 14.8349 14.4501 15.0003C14.0779 15.1657 13.7419 15.4071 13.4622 15.7098L6.12745 11.9215C6.30788 11.3569 6.30788 10.7473 6.12745 10.1826L13.4743 6.32601C14.0005 6.89838 14.7141 7.24835 15.4764 7.3079C16.2387 7.36746 16.9953 7.13235 17.599 6.64826C18.2027 6.16418 18.6105 5.46571 18.743 4.68861C18.8756 3.91151 18.7235 3.1113 18.3162 2.44352C17.909 1.77573 17.2757 1.28807 16.5396 1.07533C15.8034 0.862594 15.0169 0.939968 14.3329 1.29242C13.6489 1.64486 13.1163 2.24721 12.8386 2.98237C12.561 3.71753 12.558 4.53299 12.8304 5.27026L5.55583 9.08962C5.16295 8.59369 4.63107 8.23531 4.03311 8.06362C3.43515 7.89193 2.80037 7.91532 2.21579 8.13059C1.63122 8.34587 1.12546 8.74248 0.767842 9.26606C0.410227 9.78965 0.218262 10.4146 0.218262 11.0552C0.218262 11.6958 0.410227 12.3207 0.767842 12.8443C1.12546 13.3679 1.63122 13.7645 2.21579 13.9798C2.80037 14.1951 3.43515 14.2184 4.03311 14.0468C4.63107 13.8751 5.16295 13.5167 5.55583 13.0208L12.8124 16.7904C12.6898 17.1302 12.6266 17.4898 12.6259 17.8524C12.6259 18.4666 12.8023 19.0669 13.1329 19.5775C13.4635 20.0882 13.9333 20.4862 14.4831 20.7212C15.0328 20.9562 15.6377 21.0177 16.2213 20.8979C16.8049 20.7781 17.341 20.4824 17.7617 20.0481C18.1825 19.6138 18.469 19.0605 18.5851 18.4582C18.7012 17.8559 18.6416 17.2315 18.4139 16.6641C18.1862 16.0967 17.8006 15.6118 17.3058 15.2706C16.8111 14.9294 16.2294 14.7472 15.6344 14.7472H15.6284ZM15.6284 2.32655C15.9854 2.32655 16.3344 2.43582 16.6312 2.64054C16.9281 2.84526 17.1594 3.13624 17.2961 3.47668C17.4327 3.81712 17.4684 4.19172 17.3988 4.55313C17.3291 4.91454 17.1572 5.24651 16.9048 5.50707C16.6523 5.76763 16.3307 5.94507 15.9805 6.01696C15.6304 6.08885 15.2674 6.05195 14.9376 5.91094C14.6077 5.76993 14.3258 5.53113 14.1275 5.22474C13.9291 4.91836 13.8232 4.55814 13.8232 4.18966C13.8232 3.69553 14.0134 3.22164 14.352 2.87224C14.6905 2.52284 15.1496 2.32655 15.6284 2.32655ZM3.27537 12.8841C2.91836 12.8841 2.56936 12.7749 2.27251 12.5701C1.97566 12.3654 1.74429 12.0744 1.60767 11.734C1.47104 11.3936 1.4353 11.019 1.50495 10.6576C1.5746 10.2962 1.74652 9.96418 1.99897 9.70362C2.25142 9.44306 2.57306 9.26562 2.92322 9.19373C3.27337 9.12184 3.63632 9.15874 3.96616 9.29975C4.296 9.44076 4.57792 9.67956 4.77627 9.98595C4.97462 10.2923 5.08049 10.6525 5.08049 11.021C5.08049 11.5152 4.89031 11.989 4.55178 12.3384C4.21326 12.6878 3.75412 12.8841 3.27537 12.8841ZM15.6284 19.7155C15.2713 19.7155 14.9223 19.6062 14.6255 19.4015C14.3286 19.1968 14.0973 18.9058 13.9607 18.5654C13.824 18.2249 13.7883 17.8503 13.8579 17.4889C13.9276 17.1275 14.0995 16.7956 14.352 16.535C14.6044 16.2744 14.926 16.097 15.2762 16.0251C15.6264 15.9532 15.9893 15.9901 16.3191 16.1311C16.649 16.2721 16.9309 16.5109 17.1293 16.8173C17.3276 17.1237 17.4335 17.4839 17.4335 17.8524C17.4335 18.3465 17.2433 18.8204 16.9048 19.1698C16.5662 19.5192 16.1071 19.7155 15.6284 19.7155Z" fill="#2C2C2C" stroke="#2C2C2C" stroke-width="0.3"/>
</svg>
