<svg width="31" height="31" viewBox="0 0 31 31" fill="none" xmlns="http://www.w3.org/2000/svg">
<circle cx="15.8679" cy="15.0166" r="15" fill="#F9F9F9"/>
<rect x="7.86792" y="10.1016" width="16" height="9.82908" rx="2" stroke="#6D6BE6" stroke-width="1.2"/>
<mask id="path-3-inside-1_107_18654" fill="white">
<path d="M15.8514 18.7908C14.8516 18.7871 13.894 18.3871 13.1887 17.6784C12.4833 16.9698 12.0878 16.0105 12.0887 15.0106C12.0799 13.0997 13.6085 11.2365 15.8682 11.2412C18.0183 11.2459 19.6369 12.9297 19.6483 15.0382C19.6584 17.113 17.9356 18.7928 15.8514 18.7908ZM15.8514 17.922C16.2334 17.9267 16.6125 17.8558 16.967 17.7134C17.3214 17.5709 17.6442 17.3597 17.9167 17.092C18.1892 16.8242 18.406 16.5052 18.5547 16.1533C18.7033 15.8014 18.7809 15.4236 18.7829 15.0415C18.7883 13.433 17.4895 12.11 15.8971 12.1006C15.5126 12.0957 15.1309 12.1673 14.7743 12.3112C14.4177 12.4551 14.0933 12.6684 13.8199 12.9388C13.5465 13.2092 13.3296 13.5313 13.1818 13.8863C13.0339 14.2413 12.9581 14.6221 12.9588 15.0066C12.9588 16.6387 14.222 17.916 15.848 17.922H15.8514Z"/>
</mask>
<path d="M15.8514 18.7908C14.8516 18.7871 13.894 18.3871 13.1887 17.6784C12.4833 16.9698 12.0878 16.0105 12.0887 15.0106C12.0799 13.0997 13.6085 11.2365 15.8682 11.2412C18.0183 11.2459 19.6369 12.9297 19.6483 15.0382C19.6584 17.113 17.9356 18.7928 15.8514 18.7908ZM15.8514 17.922C16.2334 17.9267 16.6125 17.8558 16.967 17.7134C17.3214 17.5709 17.6442 17.3597 17.9167 17.092C18.1892 16.8242 18.406 16.5052 18.5547 16.1533C18.7033 15.8014 18.7809 15.4236 18.7829 15.0415C18.7883 13.433 17.4895 12.11 15.8971 12.1006C15.5126 12.0957 15.1309 12.1673 14.7743 12.3112C14.4177 12.4551 14.0933 12.6684 13.8199 12.9388C13.5465 13.2092 13.3296 13.5313 13.1818 13.8863C13.0339 14.2413 12.9581 14.6221 12.9588 15.0066C12.9588 16.6387 14.222 17.916 15.848 17.922H15.8514Z" fill="#F24973"/>
<path d="M15.8514 18.7908L15.842 21.2908L15.8489 21.2908L15.8514 18.7908ZM12.0887 15.0106L14.5887 15.0129L14.5886 14.9992L12.0887 15.0106ZM15.8682 11.2412L15.8736 8.74123L15.8734 8.74123L15.8682 11.2412ZM19.6483 15.0382L22.1483 15.026L22.1483 15.0246L19.6483 15.0382ZM15.8514 17.922L15.8821 15.4222L15.8668 15.422H15.8514V17.922ZM18.7829 15.0415L21.2829 15.0547L21.2829 15.0499L18.7829 15.0415ZM15.8971 12.1006L15.8652 14.6004L15.8737 14.6005L15.8823 14.6005L15.8971 12.1006ZM12.9588 15.0066H15.4588L15.4588 15.0024L12.9588 15.0066ZM15.848 17.922L15.8387 20.422H15.848V17.922ZM15.8607 16.2908C15.5227 16.2896 15.199 16.1543 14.9605 15.9148L11.4168 19.4421C12.5891 20.6198 14.1804 21.2846 15.842 21.2908L15.8607 16.2908ZM14.9605 15.9148C14.7221 15.6752 14.5884 15.3509 14.5887 15.0129L9.58866 15.0084C9.58717 16.67 10.2446 18.2644 11.4168 19.4421L14.9605 15.9148ZM14.5886 14.9992C14.5856 14.3392 15.123 13.7397 15.863 13.7412L15.8734 8.74123C12.0941 8.73336 9.57423 11.8602 9.58869 15.0221L14.5886 14.9992ZM15.8627 13.7412C16.5967 13.7428 17.1442 14.2734 17.1484 15.0517L22.1483 15.0246C22.1297 11.5861 19.4398 8.74903 15.8736 8.74123L15.8627 13.7412ZM17.1484 15.0503C17.1515 15.6921 16.5988 16.2915 15.8538 16.2908L15.8489 21.2908C19.2725 21.2941 22.1653 18.534 22.1483 15.026L17.1484 15.0503ZM15.8206 20.4218C16.5323 20.4306 17.2388 20.2985 17.8993 20.033L16.0347 15.3937C15.9862 15.4132 15.9344 15.4229 15.8821 15.4222L15.8206 20.4218ZM17.8993 20.033C18.5597 19.7676 19.1611 19.3741 19.6688 18.8752L16.1645 15.3087C16.1273 15.3453 16.0831 15.3742 16.0347 15.3937L17.8993 20.033ZM19.6688 18.8752C20.1766 18.3763 20.5806 17.7819 20.8576 17.1262L16.2517 15.1804C16.2314 15.2285 16.2018 15.2721 16.1645 15.3087L19.6688 18.8752ZM20.8576 17.1262C21.1346 16.4705 21.2791 15.7665 21.2829 15.0547L16.2829 15.0284C16.2827 15.0806 16.2721 15.1323 16.2517 15.1804L20.8576 17.1262ZM21.2829 15.0499C21.2928 12.0856 18.9048 9.61832 15.9118 9.60064L15.8823 14.6005C16.0742 14.6017 16.2838 14.7804 16.2829 15.0332L21.2829 15.0499ZM15.9289 9.6008C15.2131 9.59168 14.5026 9.72494 13.8387 9.99285L15.7099 14.6295C15.7592 14.6096 15.812 14.5997 15.8652 14.6004L15.9289 9.6008ZM13.8387 9.99285C13.1749 10.2608 12.5709 10.6579 12.0619 11.1613L15.5779 14.7163C15.6157 14.6789 15.6606 14.6494 15.7099 14.6295L13.8387 9.99285ZM12.0619 11.1613C11.5529 11.6647 11.1491 12.2643 10.8739 12.9252L15.4896 14.8474C15.5101 14.7983 15.5401 14.7537 15.5779 14.7163L12.0619 11.1613ZM10.8739 12.9252C10.5987 13.586 10.4576 14.295 10.4588 15.0109L15.4588 15.0024C15.4587 14.9492 15.4692 14.8965 15.4896 14.8474L10.8739 12.9252ZM10.4588 15.0066C10.4588 18.0018 12.8216 20.4108 15.8387 20.422L15.8573 15.422C15.7135 15.4215 15.6254 15.3709 15.5699 15.3149C15.5138 15.2582 15.4588 15.1628 15.4588 15.0066H10.4588ZM15.848 20.422H15.8514V15.422H15.848V20.422Z" fill="#6D6BE6" mask="url(#path-3-inside-1_107_18654)"/>
<mask id="path-5-inside-2_107_18654" fill="white">
<path d="M17.1509 15.7505C17.1509 16.2076 16.907 16.5337 16.455 16.6987C16.3224 16.7468 16.2312 16.7916 16.2021 16.9555C16.1731 17.1194 16.0343 17.2156 15.8665 17.2128C15.7082 17.2128 15.5706 17.1289 15.5409 16.9672C15.5096 16.7961 15.4067 16.7306 15.264 16.6691C15.1045 16.605 14.9619 16.5048 14.8476 16.3764C14.7332 16.248 14.6502 16.0949 14.605 15.929C14.544 15.7186 14.6308 15.5374 14.817 15.4697C15.0033 15.402 15.1695 15.4826 15.2646 15.6722C15.4682 16.075 15.852 16.2025 16.2598 16.0028C16.4998 15.8853 16.5132 15.6672 16.2894 15.5167C16.1345 15.411 15.9538 15.3869 15.7753 15.3522C15.5399 15.3126 15.3146 15.2268 15.1124 15.0999C14.4769 14.6809 14.5362 13.7713 15.2282 13.3943C15.3787 13.312 15.5079 13.2449 15.5465 13.048C15.5762 12.8925 15.7199 12.813 15.8822 12.8186C16.055 12.8242 16.1848 12.9221 16.2077 13.09C16.2284 13.2427 16.309 13.2981 16.4315 13.349C16.7006 13.4604 16.9153 13.6729 17.0295 13.9408C17.1235 14.145 17.0704 14.3397 16.9031 14.4348C16.7252 14.536 16.535 14.4762 16.4047 14.2776C16.2117 13.9839 15.9845 13.886 15.6774 13.9772C15.5286 14.0208 15.4083 14.1098 15.3977 14.2776C15.3871 14.4454 15.5046 14.5299 15.6455 14.5724C15.8184 14.6239 15.998 14.6546 16.1725 14.7022C16.5607 14.809 16.9059 14.9774 17.0793 15.3735C17.1328 15.4917 17.1573 15.6209 17.1509 15.7505Z"/>
</mask>
<path d="M17.1509 15.7505C17.1509 16.2076 16.907 16.5337 16.455 16.6987C16.3224 16.7468 16.2312 16.7916 16.2021 16.9555C16.1731 17.1194 16.0343 17.2156 15.8665 17.2128C15.7082 17.2128 15.5706 17.1289 15.5409 16.9672C15.5096 16.7961 15.4067 16.7306 15.264 16.6691C15.1045 16.605 14.9619 16.5048 14.8476 16.3764C14.7332 16.248 14.6502 16.0949 14.605 15.929C14.544 15.7186 14.6308 15.5374 14.817 15.4697C15.0033 15.402 15.1695 15.4826 15.2646 15.6722C15.4682 16.075 15.852 16.2025 16.2598 16.0028C16.4998 15.8853 16.5132 15.6672 16.2894 15.5167C16.1345 15.411 15.9538 15.3869 15.7753 15.3522C15.5399 15.3126 15.3146 15.2268 15.1124 15.0999C14.4769 14.6809 14.5362 13.7713 15.2282 13.3943C15.3787 13.312 15.5079 13.2449 15.5465 13.048C15.5762 12.8925 15.7199 12.813 15.8822 12.8186C16.055 12.8242 16.1848 12.9221 16.2077 13.09C16.2284 13.2427 16.309 13.2981 16.4315 13.349C16.7006 13.4604 16.9153 13.6729 17.0295 13.9408C17.1235 14.145 17.0704 14.3397 16.9031 14.4348C16.7252 14.536 16.535 14.4762 16.4047 14.2776C16.2117 13.9839 15.9845 13.886 15.6774 13.9772C15.5286 14.0208 15.4083 14.1098 15.3977 14.2776C15.3871 14.4454 15.5046 14.5299 15.6455 14.5724C15.8184 14.6239 15.998 14.6546 16.1725 14.7022C16.5607 14.809 16.9059 14.9774 17.0793 15.3735C17.1328 15.4917 17.1573 15.6209 17.1509 15.7505Z" fill="#F24973"/>
<path d="M16.455 16.6987L17.1372 18.5788L17.1409 18.5774L16.455 16.6987ZM15.8665 17.2128L15.8998 15.2131L15.8832 15.2128H15.8665V17.2128ZM15.5409 16.9672L13.5736 17.3273L13.5737 17.328L15.5409 16.9672ZM15.264 16.6691L16.0562 14.8326L16.0328 14.8226L16.0092 14.8131L15.264 16.6691ZM14.605 15.929L16.5347 15.4033L16.5304 15.3877L16.5259 15.3721L14.605 15.929ZM15.2646 15.6722L13.4768 16.5687L13.4797 16.5746L15.2646 15.6722ZM16.2598 16.0028L15.3804 14.2065L15.3801 14.2066L16.2598 16.0028ZM16.2894 15.5167L15.1622 17.1688L15.1733 17.1763L16.2894 15.5167ZM15.7753 15.3522L16.1569 13.389L16.1322 13.3842L16.1075 13.38L15.7753 15.3522ZM15.1124 15.0999L14.0115 16.7697L14.0302 16.782L14.0492 16.7939L15.1124 15.0999ZM15.2282 13.3943L16.1851 15.1505L16.1873 15.1493L15.2282 13.3943ZM15.5465 13.048L17.5092 13.4327L17.5111 13.4225L15.5465 13.048ZM15.8822 12.8186L15.8132 14.8175L15.8175 14.8176L15.8822 12.8186ZM16.2077 13.09L18.1896 12.8213L18.1893 12.8191L16.2077 13.09ZM16.4315 13.349L15.6641 15.1959L15.6665 15.1969L16.4315 13.349ZM17.0295 13.9408L15.1896 14.7249L15.2008 14.7511L15.2127 14.777L17.0295 13.9408ZM16.9031 14.4348L15.9146 12.6961L15.9138 12.6966L16.9031 14.4348ZM16.4047 14.2776L18.0767 13.1802L18.0761 13.1792L16.4047 14.2776ZM15.6774 13.9772L16.2402 15.8964L16.2467 15.8945L15.6774 13.9772ZM15.6455 14.5724L15.068 16.4872L15.0748 16.4892L15.6455 14.5724ZM16.1725 14.7022L16.7032 12.7739L16.6982 12.7725L16.1725 14.7022ZM17.0793 15.3735L15.2472 16.1757L15.2521 16.1868L15.2571 16.1978L17.0793 15.3735ZM15.1509 15.7505C15.1509 15.6087 15.1949 15.3747 15.3628 15.147C15.5238 14.9288 15.7046 14.8436 15.7691 14.82L17.1409 18.5774C17.6574 18.3888 18.1862 18.058 18.5821 17.5212C18.9849 16.9749 19.1509 16.3494 19.1509 15.7505H15.1509ZM15.7728 14.8187C15.7165 14.8391 15.3285 14.9667 14.9715 15.2796C14.5263 15.6698 14.3117 16.1622 14.2329 16.606L18.1714 17.305C18.1501 17.425 18.1047 17.595 18.0058 17.7833C17.9027 17.9794 17.7654 18.1498 17.608 18.2878C17.337 18.5252 17.0609 18.6065 17.1372 18.5788L15.7728 14.8187ZM14.2329 16.606C14.3068 16.1897 14.5397 15.805 14.8912 15.543C15.2275 15.2924 15.5959 15.208 15.8998 15.2131L15.8332 19.2125C16.8075 19.2288 17.9416 18.5995 18.1714 17.305L14.2329 16.606ZM15.8665 15.2128C16.1292 15.2128 16.4786 15.2818 16.8148 15.5209C17.1777 15.7791 17.4283 16.1712 17.5081 16.6065L13.5737 17.328C13.8231 18.6879 15.0199 19.2128 15.8665 19.2128V15.2128ZM17.5082 16.6072C17.4233 16.1432 17.2039 15.6929 16.8272 15.3323C16.5085 15.0271 16.1685 14.8811 16.0562 14.8326L14.4718 18.5055C14.4714 18.5053 14.4605 18.5006 14.4431 18.4922C14.4255 18.4837 14.3971 18.4693 14.3618 18.4489C14.2917 18.4083 14.1807 18.3361 14.0612 18.2218C13.7794 17.9521 13.6272 17.6201 13.5736 17.3273L17.5082 16.6072ZM16.0092 14.8131C16.1364 14.8642 16.2501 14.944 16.3413 15.0464L13.3539 17.7064C13.6737 18.0656 14.0725 18.3459 14.5188 18.5251L16.0092 14.8131ZM16.3413 15.0464C16.4324 15.1488 16.4987 15.271 16.5347 15.4033L12.6753 16.4547C12.8018 16.9187 13.034 17.3472 13.3539 17.7064L16.3413 15.0464ZM16.5259 15.3721C16.6094 15.6602 16.6278 16.069 16.4309 16.4912C16.2287 16.9246 15.8711 17.2146 15.5001 17.3494L14.134 13.5899C13.5767 13.7924 13.0826 14.2069 12.8057 14.8005C12.5342 15.3828 12.5396 15.9874 12.6841 16.4858L16.5259 15.3721ZM15.5001 17.3494C15.1498 17.4767 14.6874 17.4982 14.2373 17.2906C13.8138 17.0952 13.5841 16.7827 13.4768 16.5687L17.0524 14.7757C16.85 14.372 16.4896 13.9244 15.9127 13.6583C15.3092 13.38 14.6705 13.395 14.134 13.5899L15.5001 17.3494ZM13.4797 16.5746C13.7746 17.158 14.294 17.7086 15.055 17.9614C15.8143 18.2137 16.5571 18.0841 17.1394 17.799L15.3801 14.2066C15.5546 14.1212 15.9016 14.0277 16.3162 14.1655C16.7324 14.3038 16.9581 14.5892 17.0494 14.7698L13.4797 16.5746ZM17.1391 17.7991C17.6461 17.551 18.3803 16.9488 18.4448 15.8942C18.5087 14.8491 17.8643 14.1656 17.4055 13.8571L15.1733 17.1763C14.9383 17.0183 14.3991 16.5191 14.4522 15.65C14.506 14.7715 15.1134 14.3372 15.3804 14.2065L17.1391 17.7991ZM17.4166 13.8646C17.0946 13.6449 16.783 13.5368 16.5649 13.4776C16.3844 13.4286 16.1665 13.3908 16.1569 13.389L15.3937 17.3155C15.4242 17.3214 15.4542 17.327 15.4739 17.3307C15.4963 17.3349 15.5099 17.3375 15.5214 17.3397C15.545 17.3444 15.5381 17.3436 15.5174 17.338C15.473 17.326 15.3292 17.2827 15.1622 17.1688L17.4166 13.8646ZM16.1075 13.38C16.1317 13.3841 16.1548 13.3929 16.1756 13.4059L14.0492 16.7939C14.4744 17.0608 14.9481 17.2411 15.4432 17.3244L16.1075 13.38ZM16.2133 13.4302C16.5167 13.6302 16.6926 13.9979 16.668 14.365C16.644 14.7244 16.4372 15.0131 16.1851 15.1505L14.2713 11.638C12.3681 12.6751 12.0096 15.4497 14.0115 16.7697L16.2133 13.4302ZM16.1873 15.1493C16.2616 15.1087 17.27 14.6526 17.5092 13.4327L13.5839 12.6633C13.6115 12.5223 13.6651 12.3586 13.7597 12.191C13.8545 12.0228 13.9673 11.8919 14.0722 11.795C14.1707 11.704 14.2545 11.6504 14.2847 11.6318C14.3066 11.6182 14.3247 11.6089 14.2691 11.6392L16.1873 15.1493ZM17.5111 13.4225C17.4176 13.9132 17.1213 14.3136 16.7476 14.5543C16.4055 14.7747 16.0626 14.826 15.8132 14.8174L15.9511 10.8198C15.1809 10.7933 13.8591 11.2196 13.5819 12.6734L17.5111 13.4225ZM15.8175 14.8176C15.5483 14.8089 15.1814 14.7225 14.8416 14.447C14.4828 14.1561 14.2798 13.7536 14.2262 13.3608L18.1893 12.8191C18.1127 12.2585 17.8334 11.7231 17.3608 11.3399C16.9071 10.9721 16.3889 10.834 15.9469 10.8197L15.8175 14.8176ZM14.2259 13.3586C14.2823 13.7749 14.4565 14.2479 14.8444 14.6486C15.1783 14.9936 15.5462 15.1469 15.6641 15.1959L17.1989 11.5021C17.2087 11.5061 17.274 11.5331 17.3603 11.5837C17.4516 11.6373 17.5834 11.7271 17.7185 11.8666C18.0303 12.1888 18.1539 12.5578 18.1896 12.8213L14.2259 13.3586ZM15.6665 15.1969C15.4519 15.108 15.2807 14.9386 15.1896 14.7249L18.8694 13.1568C18.55 12.4072 17.9493 11.8127 17.1965 11.501L15.6665 15.1969ZM15.2127 14.777C15.1001 14.5323 15.016 14.1572 15.129 13.724C15.2469 13.2717 15.5438 12.9069 15.9146 12.6961L17.8916 16.1734C18.4296 15.8675 18.8367 15.3579 18.9996 14.7334C19.1574 14.128 19.0529 13.5535 18.8463 13.1046L15.2127 14.777ZM15.9138 12.6966C16.2661 12.4961 16.748 12.4069 17.2373 12.5611C17.6916 12.7043 17.9538 12.9929 18.0767 13.1802L14.7326 15.375C14.9859 15.7609 15.4083 16.1786 16.0348 16.3761C16.6962 16.5846 17.3622 16.4747 17.8924 16.1729L15.9138 12.6966ZM18.0761 13.1792C17.8471 12.8309 17.4644 12.392 16.8541 12.1373C16.2127 11.8696 15.5904 11.9167 15.1082 12.0599L16.2467 15.8945C16.0716 15.9464 15.7164 15.9969 15.3135 15.8288C14.9418 15.6736 14.7692 15.4306 14.7332 15.3759L18.0761 13.1792ZM15.1146 12.058C14.8493 12.1358 14.451 12.2969 14.0907 12.6477C13.6901 13.0376 13.4388 13.5655 13.4017 14.1512L17.3937 14.404C17.3672 14.8218 17.1814 15.2213 16.8808 15.5139C16.6205 15.7674 16.3567 15.8622 16.2402 15.8964L15.1146 12.058ZM13.4017 14.1512C13.3614 14.7883 13.5843 15.4026 14.0242 15.8594C14.4009 16.2505 14.8281 16.4149 15.068 16.4872L16.223 12.6576C16.322 12.6874 16.6199 12.7883 16.9053 13.0846C17.2539 13.4465 17.4234 13.9347 17.3937 14.404L13.4017 14.1512ZM15.0748 16.4892C15.231 16.5357 15.3768 16.569 15.4652 16.589C15.5723 16.6134 15.6106 16.622 15.6468 16.6318L16.6982 12.7725C16.5598 12.7348 16.4211 12.7043 16.3516 12.6885C16.2633 12.6684 16.2329 12.6605 16.2162 12.6556L15.0748 16.4892ZM15.6418 16.6305C15.7399 16.6575 15.6905 16.6562 15.5924 16.5904C15.537 16.5532 15.4686 16.4974 15.4017 16.4194C15.3337 16.3403 15.2824 16.256 15.2472 16.1757L18.9114 14.5713C18.3699 13.3347 17.2798 12.9326 16.7032 12.7739L15.6418 16.6305ZM15.2571 16.1978C15.1796 16.0266 15.1441 15.8393 15.1534 15.6516L19.1485 15.8495C19.1706 15.4025 19.0859 14.9568 18.9015 14.5491L15.2571 16.1978Z" fill="#6D6BE6" mask="url(#path-5-inside-2_107_18654)"/>
</svg>
