<svg width="31" height="31" viewBox="0 0 31 31" fill="none" xmlns="http://www.w3.org/2000/svg">
<circle cx="15.8679" cy="15.0098" r="15" fill="#F9F9F9"/>
<g clip-path="url(#clip0_107_18610)">
<path d="M11.8068 11.1389C11.7096 11.0144 11.6277 10.919 11.5547 10.8152C10.9851 9.98808 10.8906 9.10773 11.2958 8.18886C11.6447 7.39806 12.5326 6.93505 13.4376 7.01968C14.4868 7.11864 15.2709 7.61882 15.7854 8.53545C15.8512 8.65232 15.8776 8.64113 15.9421 8.53545C16.3801 7.81137 16.9805 7.29238 17.8228 7.09894C18.3678 6.97356 18.9123 6.9646 19.4349 7.20193C20.2024 7.54897 20.5776 8.17677 20.6735 8.98817C20.763 9.7521 20.5391 10.4242 20.0466 11.0113C20.0197 11.0435 19.9763 11.0686 19.979 11.1411C20.3372 11.1411 20.6909 11.1411 21.0469 11.1411C21.3686 11.1392 21.6844 11.2273 21.9586 11.3955C22.5399 11.7537 22.8605 12.2736 22.8605 12.9628C22.8645 15.6602 22.8435 18.3586 22.8721 21.0561C22.8829 22.0413 22.1749 23.0165 20.9018 23.0094C18.8031 22.9977 16.7043 23.0062 14.605 23.0062C13.3345 23.0062 12.064 23.0062 10.7934 23.0062C10.1723 23.0062 9.6426 22.794 9.25123 22.2947C9.00249 21.987 8.86715 21.6031 8.86792 21.2075C8.86792 18.4482 8.86792 15.6889 8.86792 12.9296C8.86792 11.9557 9.68245 11.1492 10.6591 11.1385C11.0321 11.1358 11.4051 11.1389 11.8068 11.1389ZM15.2794 17.0435C15.2933 15.521 15.2794 13.9985 15.317 12.4787C15.321 12.3135 15.2794 12.2548 15.1043 12.2548C13.6553 12.2611 12.2062 12.2575 10.7572 12.2593C10.2574 12.2593 9.96591 12.5508 9.96546 13.0528C9.96546 15.727 9.96546 18.4012 9.96546 21.0754C9.96546 21.5944 10.2623 21.8854 10.78 21.8854H14.9091C15.2772 21.8854 15.2785 21.8854 15.2789 21.5066C15.2798 20.0199 15.28 18.5322 15.2794 17.0435ZM16.4481 17.1196C16.4347 18.6354 16.4481 20.1516 16.4141 21.6674C16.4096 21.8859 16.4141 21.8863 16.638 21.8863C18.076 21.8863 19.5138 21.8863 20.9516 21.8863C21.4674 21.8863 21.7629 21.5939 21.7634 21.0736C21.7634 18.4107 21.7634 15.7477 21.7634 13.0846C21.7634 12.5987 21.4782 12.2472 20.9332 12.2539C19.5683 12.2709 18.2017 12.2593 16.8381 12.2593C16.4499 12.2593 16.4481 12.2593 16.4481 12.6556C16.4475 14.144 16.4475 15.632 16.4481 17.1196ZM17.075 11.147C17.5846 11.1644 18.1323 11.0879 18.6248 10.8004C19.2482 10.4368 19.6319 9.91464 19.5818 9.15743C19.5536 8.73337 19.3758 8.3841 18.9549 8.22424C18.7117 8.13413 18.4492 8.10958 18.1936 8.15304C17.5775 8.25065 17.1435 8.60083 16.8561 9.14086C16.5426 9.73374 16.453 10.3786 16.4217 11.0377C16.4172 11.1376 16.4759 11.147 16.5489 11.147H17.075ZM14.7743 11.1394C14.9086 11.1394 15.043 11.1353 15.1773 11.1394C15.2749 11.1434 15.3 11.1053 15.2955 11.0104C15.2695 10.4596 15.1813 9.92136 14.9821 9.40595C14.6373 8.51575 14.0166 8.09796 13.0879 8.13736C12.7176 8.15304 12.4386 8.33126 12.2761 8.66889C12.1459 8.93242 12.1076 9.23189 12.1672 9.51969C12.307 10.1936 12.7306 10.6347 13.3476 10.9011C13.7994 11.0982 14.2822 11.1461 14.7725 11.1394H14.7743Z" fill="#6D6BE6"/>
</g>
<defs>
<clipPath id="clip0_107_18610">
<rect width="14.0046" height="16" fill="white" transform="translate(8.86597 7.00977)"/>
</clipPath>
</defs>
</svg>
