<svg width="619" height="375" viewBox="0 0 619 375" fill="none" xmlns="http://www.w3.org/2000/svg">
<g opacity="0.25">
<path opacity="0.6" d="M37.9446 374.208C37.9446 374.208 -38.0736 287.69 25.0846 194.02C81.126 110.91 133.463 107.05 188.194 125.863C227.884 139.507 240.633 129.35 305.725 57.1589C406.36 -54.455 604.241 25.1328 578.927 204.32C566.537 292.017 649.374 288.559 606.32 374.391L37.9446 374.208Z" fill="#1B1A4B"/>
<path d="M446.153 45.6025C471.817 56.0212 506.141 99.8358 502.777 170.459C500.216 224.195 547.866 260.227 547.866 260.227C509.882 263.048 498.76 295.89 458.892 283.233C422.714 271.75 387.59 272.172 387.59 272.172C394.086 182.658 428.823 152.375 436.206 91.6746C439.972 60.7253 446.153 45.6025 446.153 45.6025Z" fill="#699FF0"/>
<path d="M555.69 320.328H522.196C520.401 318.809 523.433 315.36 526.611 315.128C527.989 315.023 529.731 315.311 531.724 315.731C532.184 309.623 534.817 282.162 544.737 283.265C555.893 284.499 544.737 295.358 541.584 301.785C539.247 306.547 536.785 313.374 535.659 316.601C536.564 316.807 537.5 316.988 538.459 317.165C539.938 312.638 545.438 297.41 552.434 298.287C560.648 299.316 557.346 305.435 551.524 309.061C547.253 311.736 542.009 315.517 539.517 317.348C541.68 317.724 543.872 317.9 546.067 317.873C551.805 317.733 554.606 319.42 555.69 320.328Z" fill="#82B378"/>
<path d="M90.8536 318.814C89.5234 316.728 85.5203 311.318 80.187 312.024C74.3773 312.804 86.6051 316.625 90.3483 318.814C89.6487 318.852 88.9479 318.77 88.2756 318.574C85.774 317.683 81.4884 319.397 80.1169 319.989H103.941C103.67 319.076 103.061 318.299 102.238 317.816C101.848 317.578 101.06 317.543 100.046 317.611C101.462 315.944 102.446 310.614 98.5029 311.991C95.6156 312.991 95.63 316.244 95.9126 318.164C95.2939 318.261 94.6751 318.358 94.0564 318.444C92.8685 312.413 88.6737 294.734 80.1705 294.263C71.5498 293.785 87.4816 312.598 92.786 318.613C92.1137 318.724 91.4599 318.786 90.8536 318.814Z" fill="#82B378"/>
<path d="M603.771 320.005H35.5795C35.2139 320.005 34.9175 320.301 34.9175 320.665V320.927C34.9175 321.292 35.2139 321.587 35.5795 321.587H603.771C604.137 321.587 604.434 321.292 604.434 320.927V320.665C604.434 320.301 604.137 320.005 603.771 320.005Z" fill="white"/>
<path d="M169.913 54.3728C169.913 54.3728 125.011 40.8263 96.3423 80.157C67.6734 119.488 98.5037 147.612 56.1406 160.446C4.04941 176.229 8.48556 225.032 8.48556 225.032C8.48556 225.032 48.3985 219.902 59.4631 231.938C75.7001 249.598 121.72 227.261 121.72 227.261C121.72 227.261 114.708 189.603 135.257 184.23C155.807 178.857 169.913 54.3728 169.913 54.3728Z" fill="#DB5953"/>
<path d="M255.061 319.997H223.595C222.081 318.145 222.64 311.354 222.869 309.136C222.917 308.689 223.622 302.168 223.622 302.168C223.622 302.168 233.693 299.853 235.171 306.42C235.217 306.626 235.27 306.831 235.33 307.025C237.186 313.165 245.528 315.958 250.344 316.733C253.471 317.25 254.628 318.874 255.061 319.997Z" fill="#FFF9C6"/>
<path d="M235.567 304.244C233.26 305.583 230.677 306.379 228.015 306.571C224.011 306.876 221.221 305.405 221.221 305.405C221.221 305.405 199.517 257.787 197.611 237.895C197.032 231.832 190.665 223.751 182.624 214.962C168.495 199.515 149.183 181.869 146.986 169.121C146.332 165.322 147.192 161.956 150.179 159.213C151.545 157.953 152.874 156.791 154.163 155.727C170.419 142.246 180.032 143.483 180.032 143.483C180.032 143.483 187.536 153.552 196.5 167.201C208.566 185.579 223.273 210.45 225.843 225.957C230.312 252.978 235.567 304.244 235.567 304.244Z" fill="#2B478B"/>
<path d="M196.499 167.201L182.624 214.962C168.494 199.515 149.182 181.869 146.986 169.121C149.098 165.057 151.651 160.318 154.163 155.727C170.418 142.246 180.031 143.483 180.031 143.483C180.031 143.483 187.536 153.552 196.499 167.201Z" fill="#233862"/>
<path d="M161.031 319.997H129.57C128.056 318.145 128.615 311.354 128.844 309.136C128.891 308.689 129.597 302.168 129.597 302.168C129.597 302.168 139.667 299.853 141.146 306.42C141.191 306.626 141.245 306.831 141.305 307.025C143.161 313.165 151.503 315.958 156.319 316.733C159.445 317.25 160.604 318.874 161.031 319.997Z" fill="#FFF9C6"/>
<path d="M178.258 147.108C178.258 147.108 168.565 226.936 167.812 236.828C167.073 246.615 143.486 305.289 143.152 306.618C143.152 306.632 138.965 308.139 134.406 307.519C129.691 306.877 128.012 304.749 128.012 304.749C128.012 304.749 127.983 244.88 136.093 233.86C146.786 219.332 110.659 161.607 142.042 132.878C173.425 104.149 178.258 147.108 178.258 147.108Z" fill="#2B478B"/>
<path d="M192.182 62.1816C192.182 62.1816 210.69 68.0958 215.664 80.5372C220.638 92.9786 224.12 130.906 224.12 130.906L211.863 128.745L186.979 106.336L192.182 62.1816Z" fill="#699FF0"/>
<path d="M198.039 100.459C189.926 119.705 197.2 156.431 184.91 163.814C172.621 171.198 142.013 170.667 130.078 165.46C118.529 160.419 127.876 133.003 135.255 103.484C135.504 102.477 135.752 101.471 135.999 100.465C137.22 95.4697 138.995 90.6259 141.291 86.0234C151.762 64.9618 169.911 54.3662 169.911 54.3662L199.349 65.2211C199.349 65.2211 206.157 81.2122 198.039 100.459Z" fill="#699FF0"/>
<path d="M169.908 54.3712C169.908 54.3712 182.567 50.4779 187.644 34.7666L193.584 44.4876L197.62 51.089C197.62 51.089 196.626 53.7642 194.308 58.2687C193.689 59.4519 192.994 60.7607 192.192 62.1785C197.35 70.7369 169.908 54.3712 169.908 54.3712Z" fill="#FFB27D"/>
<path d="M197.61 51.0874C197.61 51.0874 196.616 53.7626 194.298 58.2671C188.392 54.9334 184.908 42.2266 184.908 42.2266C188.445 42.4529 191.302 43.2925 193.57 44.4901L197.61 51.0874Z" fill="#ED975D"/>
<path d="M201.01 52.0176C201.01 52.0176 182.081 48.5708 184.412 36.8414C186.742 25.1119 185.868 16.7717 198.05 18.4735C210.232 20.1753 211.686 25.114 211.868 29.2172C212.049 33.3205 205.992 52.6123 201.01 52.0176Z" fill="#FFB27D"/>
<path d="M183.737 101.689C183.737 101.689 231.342 91.9887 260.717 116.952C260.717 116.952 262.573 182.476 208.153 203.379C208.153 203.369 158.11 167.956 183.737 101.689Z" fill="white"/>
<path d="M209.124 198.558C209.124 198.558 163.735 166.436 186.98 106.334C186.98 106.334 205.065 102.648 225.047 106.187C235.941 108.114 247.397 112.188 256.808 120.18C256.797 120.183 258.491 179.603 209.124 198.558Z" fill="#F99746"/>
<path d="M158.954 86.0205C158.954 86.0205 145.151 97.9722 135.258 103.471C135.507 102.464 135.755 101.457 136.002 100.452C137.222 95.4603 138.996 90.62 141.29 86.0205H158.954Z" fill="#5187D6"/>
<path d="M240.654 97.5467L135.802 149.815L130.081 138.367L234.968 86.0992C238.289 84.4434 242.052 83.8862 245.711 84.5085L250.764 85.3687L248.436 89.8835C246.723 93.1974 243.998 95.8814 240.654 97.5467Z" fill="#D6E8FF"/>
<path d="M250.76 85.3604L132.939 144.084L130.081 138.367L234.968 86.0992C238.289 84.4434 242.052 83.8862 245.711 84.5085L250.76 85.3604Z" fill="#AED3FF"/>
<path d="M137.683 160.818L122.758 131.007C122.568 130.625 122.538 130.183 122.673 129.778C122.809 129.374 123.1 129.039 123.482 128.848L127.116 127.037C127.499 126.848 127.941 126.817 128.346 126.952C128.752 127.087 129.087 127.377 129.279 127.758L144.203 157.569C144.393 157.951 144.423 158.392 144.288 158.797C144.153 159.201 143.862 159.536 143.481 159.728L139.847 161.538C139.464 161.728 139.022 161.759 138.616 161.624C138.211 161.489 137.875 161.199 137.683 160.818Z" fill="#F99746"/>
<path d="M134.257 145.839L132.704 142.74C132.457 142.249 132.025 141.876 131.503 141.702C130.98 141.528 130.41 141.567 129.917 141.812L114.903 149.294C114.411 149.541 114.037 149.973 113.862 150.495C113.688 151.016 113.728 151.586 113.973 152.078L115.526 155.179C115.773 155.67 116.205 156.043 116.728 156.216C117.25 156.39 117.82 156.35 118.312 156.105L133.326 148.623C133.819 148.376 134.193 147.944 134.367 147.423C134.542 146.901 134.502 146.331 134.257 145.839Z" fill="#F99746"/>
<path d="M115.794 159.965L110.135 148.662C109.927 148.244 109.894 147.76 110.042 147.317C110.19 146.874 110.507 146.508 110.925 146.297L112.507 145.509C112.927 145.302 113.411 145.269 113.855 145.417C114.299 145.565 114.666 145.882 114.877 146.3L120.536 157.603C120.744 158.022 120.777 158.505 120.629 158.948C120.48 159.391 120.162 159.758 119.744 159.967L118.164 160.756C117.745 160.963 117.26 160.996 116.816 160.848C116.372 160.7 116.005 160.383 115.794 159.965Z" fill="#F99746"/>
<path d="M117.068 135.568C117.068 135.568 121.694 136.64 124.788 138.941C127.881 141.242 132.006 149.277 128.628 150.961C125.25 152.644 121.969 154.716 120.475 153.136C119.483 152.084 118.304 150.255 117.625 149.148C117.47 148.895 117.225 148.709 116.939 148.628C116.652 148.547 116.346 148.576 116.081 148.709C116.081 148.709 110.805 143.45 110.939 137.068C110.978 135.225 117.068 135.568 117.068 135.568Z" fill="#FFB27D"/>
<path d="M169.91 54.3719C169.91 54.3719 161.943 50.6144 146.786 56.049C131.63 61.4837 98.791 85.6813 96.5534 95.3632C94.3157 105.045 110.942 138.943 110.942 138.943C112.519 139.082 114.107 138.898 115.61 138.402C118.159 137.532 119.448 136.28 119.448 136.28C119.448 136.28 116.327 99.8307 118.194 99.8307C120.06 99.8307 164.428 87.5189 164.428 87.5189L169.91 54.3719Z" fill="#699FF0"/>
<path d="M184.783 35.7711C184.783 35.7711 186.726 36.1229 187.336 33.4972C187.947 30.8714 189.139 27.581 190.97 28.9309C192.801 30.2809 192.313 31.958 193.501 31.3015C194.689 30.6451 196.157 26.618 202.369 28.5256C208.581 30.4331 210.294 33.4458 213.584 33.2173C216.873 32.9889 218.556 28.754 218.556 28.754C218.556 28.754 217.197 29.9887 215.803 30.0463C215.803 30.0463 222.869 25.2784 218.979 18.8765C215.089 12.4747 208.461 13.374 205.207 12.4274C198.06 10.3429 193.391 9.13494 189.454 12.9089C185.517 16.6829 181.883 29.7479 184.783 35.7711Z" fill="#2B478B"/>
<path d="M209.123 198.558C209.123 198.558 233.459 156.499 225.047 106.188C235.94 108.114 247.396 112.188 256.807 120.181C256.797 120.183 258.49 179.604 209.123 198.558Z" fill="#ED7D2B"/>
<path d="M163.335 52.9978C163.335 52.9978 178.504 68.9128 190.076 71.8801C190.076 71.8801 179.546 53.7447 175.322 51.5799C171.098 49.4151 163.335 52.9978 163.335 52.9978Z" fill="#DB5953"/>
<path d="M190.076 71.8808L192.186 62.1803L193.541 59.7109C193.541 59.7109 198.932 61.4024 199.14 63.3121C199.349 65.2217 190.076 71.8808 190.076 71.8808Z" fill="#DB5953"/>
<path d="M186.982 79.2035C186.982 79.2035 185.175 74.6125 190.075 71.8818C190.075 71.8818 192.16 76.5983 186.982 79.2035Z" fill="#DB5953"/>
<path d="M194.611 82.3066C194.611 82.3066 195.624 73.1227 190.074 71.8818C190.225 73.64 190.519 75.3831 190.951 77.0942C191.619 79.5759 194.611 82.3066 194.611 82.3066Z" fill="#DB5953"/>
<path d="M188.572 71.8801C188.571 71.5832 188.659 71.2929 188.824 71.0459C188.989 70.7989 189.224 70.6063 189.499 70.4925C189.774 70.3787 190.076 70.3488 190.368 70.4067C190.66 70.4645 190.928 70.6074 191.138 70.8173C191.349 71.0272 191.492 71.2947 191.55 71.5859C191.608 71.8771 191.578 72.1789 191.464 72.4531C191.35 72.7273 191.157 72.9615 190.909 73.1262C190.662 73.2909 190.371 73.3786 190.073 73.3782C189.675 73.3782 189.293 73.2203 189.012 72.9394C188.73 72.6585 188.572 72.2774 188.572 71.8801Z" fill="#DB5953"/>
<path d="M348.708 71.1864C350.063 74.8226 352.42 79.0452 354.878 80.0946C357.675 81.2841 358.84 82.9756 358.84 82.9756L361.109 81.6668L363.804 80.1049C363.804 80.1049 363.74 79.8045 363.598 79.3189C363.456 78.8332 363.266 78.1603 362.994 77.4113C362.75 77.0681 362.594 76.6711 362.538 76.2542C362.481 75.8374 362.528 75.4132 362.672 75.0181C363.179 73.6867 363.085 71.6289 362.212 70.3736C361.34 69.1184 360.513 66.0317 359.993 66.1222C358.731 66.328 360.612 70.5856 360.074 71.3737C359.585 72.0857 358.974 71.8408 358.861 71.7853L358.84 71.7729C355.303 70.2213 351.003 61.8564 349.114 62.9841C348.405 63.3915 348.13 69.6369 348.708 71.1864Z" fill="#FFB27D"/>
<path d="M424.513 53.124C424.513 53.124 401.965 92.3621 393.783 99.5808L363.792 77.2702C363.792 77.2702 359.441 78.6016 357.535 82.9621C357.535 82.9621 375.748 119.986 393.68 121.556C411.612 123.126 436.784 77.1776 436.784 77.1776L424.513 53.124Z" fill="#9C3029"/>
<path d="M475.53 319.996H488.556C490.205 319.107 491.649 317.074 492.119 314.041C492.757 309.853 497.459 307.569 498.478 304.143C499.496 300.717 494.281 295.899 494.281 295.899L493.408 294.778L492.501 293.613L483.855 295.644C483.855 295.644 483.649 297.702 483.511 300.318C483.397 302.31 483.385 304.308 483.474 306.302C483.728 310.868 482.193 315.788 478.126 316.675C475.117 317.34 475.259 319.12 475.53 319.996Z" fill="#B8C5DE"/>
<path d="M399.931 319.997H429.722C431.166 318.252 430.627 311.813 430.411 309.708C430.365 309.284 430.335 309.037 430.335 309.037C430.335 309.037 420.161 300.917 418.765 307.135C418.721 307.341 418.67 307.52 418.614 307.71C416.853 313.525 408.956 316.167 404.396 316.902C401.433 317.396 400.335 318.933 399.931 319.997Z" fill="#B8C5DE"/>
<path d="M405.616 154.08C405.616 154.08 407.16 173.31 408.977 196.427C411.452 227.829 414.412 266.392 414.705 273.708C415.212 286.396 417.25 306.692 417.25 306.692C417.25 306.692 422.078 311.516 431.744 309.483C431.744 309.483 440.356 280.509 442.817 249.854C442.854 249.352 442.893 248.845 442.93 248.339C445.219 217.131 448.779 151.417 448.779 151.417L405.616 154.08Z" fill="#F99746"/>
<path d="M405.616 154.08C405.616 154.08 407.16 173.31 408.977 196.427L442.817 249.854C442.854 249.352 442.893 248.845 442.93 248.339C445.219 217.131 448.779 151.417 448.779 151.417L405.616 154.08Z" fill="#DE7C2C"/>
<path d="M412.661 156.362C412.661 156.362 440.503 226.009 458.813 258.738C477.122 291.467 482.843 300.602 482.843 300.602C482.843 300.602 493.333 296.416 494.285 293.562C494.285 293.562 487.284 230.375 475.023 214.971C468.095 206.268 459.957 180.149 459.576 171.014C459.194 161.879 457.101 143.804 457.101 143.804L412.661 156.362Z" fill="#F99746"/>
<path d="M419.591 54.8331C430.472 58.2593 449.299 49.0136 449.299 49.0136C449.299 49.0136 439.268 41.5006 439.794 25.8799L431.379 32.6439L425.664 37.2389C425.664 37.2389 425.689 39.947 426.312 44.6964C426.477 45.9434 426.683 47.3365 426.931 48.8572C424.139 50.3849 421.651 52.4103 419.591 54.8331Z" fill="#FFB27D"/>
<path d="M425.663 37.2348C425.663 37.2348 425.687 39.9429 426.31 44.6923C432.644 43.6078 439.827 33.395 439.827 33.395C436.601 32.4669 433.78 32.3002 431.371 32.6398L425.663 37.2348Z" fill="#ED975D"/>
<path d="M422.337 36.9771C422.337 36.9771 440.309 39.9568 441.996 28.7603C443.683 17.5638 447.139 10.4088 435.737 8.03209C424.334 5.65533 421.455 9.59395 419.98 13.1951C418.505 16.7962 417.705 35.9132 422.337 36.9771Z" fill="#FFB27D"/>
<path d="M404.046 160.363C405.607 161.597 422.607 160.2 432.647 158.861C446.671 156.988 450.447 157.667 458.525 154.054C459.597 153.574 459.276 148.555 459.22 147.358C459.183 146.049 459.053 144.147 458.89 141.754C458.317 133.434 457.321 119.118 458.292 102.615C458.467 99.5405 458.558 96.4908 458.57 93.4885C458.653 71.1141 454.206 51.4312 445.27 44.7701C444.507 44.2248 439.821 46.511 435.517 48.6285C431.539 50.5875 427.563 50.8036 423.803 50.0443L420.052 53.3594C415.473 57.6005 410.462 63.3644 408.282 72.1162C406.426 79.5634 405.339 92.9926 404.741 106.912C404.468 113.217 404.25 119.579 404.194 125.615V125.821C404.141 126.419 404.141 127.074 404.141 127.673C403.916 143.174 403.408 159.863 404.046 160.363Z" fill="#B5453C"/>
<path d="M458.889 141.757C458.316 133.438 457.32 119.122 458.291 102.618C458.466 99.5437 458.557 96.4941 458.569 93.4918C454.847 84.4827 451.805 77.9492 451.805 77.9492H442.423C442.423 77.9492 435.543 124.828 458.889 141.757Z" fill="#9C3029"/>
<path d="M481.866 145.506C478.486 146.163 474.825 145.897 474.825 145.897C474.825 145.897 464.794 114.981 463.503 112.15C462.212 109.318 433.71 75.8973 433.71 75.8973L448.844 49.002C448.844 49.002 474.809 79.7825 480.192 102.754C483.157 115.411 486.509 143.527 486.509 143.527C485.107 144.485 483.529 145.157 481.866 145.506Z" fill="#B5453C"/>
<path d="M441.654 30.26C441.654 30.26 440.167 27.3791 440.464 24.85C440.761 22.321 440.759 19.0018 438.693 19.6191C436.626 20.2365 436.525 21.8827 435.678 20.9238C434.83 19.9648 434.814 15.9007 428.666 15.6188C422.518 15.3369 420.022 17.4708 417.164 16.2176C414.305 14.9644 414.155 10.6471 414.155 10.6471C414.156 10.6519 414.156 10.6568 414.155 10.6615C414.278 10.8858 414.467 11.0678 414.695 11.1839C414.924 11.3 415.182 11.3449 415.436 11.3127C415.691 11.2805 415.929 11.1728 416.122 11.0035C416.314 10.8341 416.451 10.611 416.514 10.3632C417.019 8.33829 418.306 5.31333 421.577 2.67111C427.096 -1.79225 430.503 1.92414 433.698 2.11757C440.737 2.54353 447.928 8.35886 448.838 13.4354C450.545 22.7758 442.411 27.912 441.654 30.26Z" fill="#FF9843"/>
<path d="M369.974 149.467L468.968 159.913L470.112 149.115L371.078 138.668C367.942 138.337 364.783 139.011 362.057 140.592L358.293 142.777L361.492 145.679C363.844 147.808 366.815 149.135 369.974 149.467Z" fill="#D6E8FF"/>
<path d="M358.3 142.777L469.548 154.506L470.12 149.109L371.085 138.661C367.949 138.331 364.79 139.004 362.064 140.585L358.3 142.777Z" fill="#AED3FF"/>
<path d="M470.729 169.214L473.714 141.066C473.794 140.315 473.249 139.643 472.497 139.563L469.065 139.201C468.313 139.122 467.639 139.666 467.559 140.416L464.575 168.564C464.495 169.314 465.04 169.987 465.792 170.066L469.223 170.429C469.976 170.508 470.65 169.964 470.729 169.214Z" fill="#233862"/>
<path d="M469.022 156.301L469.333 153.375C469.383 152.911 469.615 152.486 469.978 152.193C470.342 151.899 470.807 151.761 471.272 151.809L485.449 153.305C485.913 153.356 486.339 153.588 486.633 153.951C486.927 154.313 487.065 154.777 487.018 155.242L486.707 158.168C486.657 158.631 486.425 159.057 486.061 159.35C485.698 159.644 485.233 159.782 484.768 159.734L470.591 158.238C470.127 158.187 469.701 157.955 469.407 157.592C469.113 157.229 468.974 156.765 469.022 156.301Z" fill="#233862"/>
<path d="M484.616 150.932L483.485 161.602C483.397 162.425 483.995 163.162 484.82 163.249L486.311 163.407C487.135 163.494 487.875 162.897 487.962 162.075L489.093 151.405C489.18 150.582 488.583 149.845 487.758 149.758L486.267 149.6C485.443 149.513 484.703 150.109 484.616 150.932Z" fill="#233862"/>
<path d="M477.667 143.183C477.667 143.183 475.97 144.644 474.303 148.327C472.955 151.307 472.02 158.787 475.209 159.124C478.397 159.462 481.289 160.001 482.015 158.301C482.542 156.902 482.956 155.462 483.252 153.996C483.3 153.749 483.44 153.528 483.643 153.379C483.846 153.229 484.098 153.161 484.349 153.188C484.349 153.188 486.979 147.438 484.968 142.401C484.376 140.94 477.667 143.183 477.667 143.183Z" fill="#FFB27D"/>
<path d="M479.541 136.91C476.468 136.354 471.803 136.647 472.292 138.145C472.781 139.643 474.822 145.903 474.822 145.903C478.372 146.434 483.872 145.526 486.508 143.54C485.31 136.704 479.541 136.91 479.541 136.91Z" fill="#B5453C"/>
<path d="M402.333 52.0584C402.333 52.0584 364.548 29.1201 331.674 41.4854C331.674 41.4854 309.856 97.0459 350.029 131.666C350.037 131.666 403.836 116.702 402.333 52.0584Z" fill="white"/>
<path d="M350.693 127.245C350.693 127.245 399.488 113.663 398.127 55.0407C398.127 55.0407 383.773 46.328 365.56 43.2207C355.634 41.523 344.561 41.4942 334.043 45.4514C334.039 45.4514 314.253 95.8406 350.693 127.245Z" fill="#32508C"/>
<path d="M350.693 127.243C350.693 127.243 342.823 83.7346 365.557 43.2207C355.63 41.523 344.558 41.4942 334.039 45.4513C334.039 45.4493 314.253 95.8386 350.693 127.243Z" fill="#233862"/>
<path d="M449.3 49.0094C449.3 49.0094 434.767 56.9525 424.643 58.3682C424.643 58.3682 440.145 44.3752 444.132 43.585C447.275 42.9697 449.3 49.0094 449.3 49.0094Z" fill="#699FF0"/>
<path d="M424.642 58.3673L425.586 51.6198C425.586 51.6198 425.454 49.92 424.988 49.7678C424.384 49.562 420.472 50.8502 420.109 52.4532C419.746 54.0562 424.642 58.3673 424.642 58.3673Z" fill="#699FF0"/>
<path d="M426.546 65.0651C426.546 65.0651 428.521 61.3343 424.617 58.5439C424.617 58.5439 422.384 62.3612 426.546 65.0651Z" fill="#699FF0"/>
<path d="M419.762 66.9702C419.762 66.9702 419.782 59.0662 424.619 58.5332C424.324 60.0134 423.91 61.4674 423.381 62.8813C422.567 64.935 419.762 66.9702 419.762 66.9702Z" fill="#699FF0"/>
<path d="M425.841 58.9302C425.925 58.6681 425.922 58.3862 425.832 58.126C425.743 57.8658 425.572 57.6413 425.345 57.4854C425.118 57.3296 424.846 57.2508 424.571 57.2606C424.296 57.2704 424.031 57.3684 423.815 57.54C423.6 57.7116 423.445 57.9478 423.375 58.2136C423.304 58.4795 423.321 58.7609 423.423 59.0164C423.525 59.2719 423.707 59.4879 423.942 59.6324C424.176 59.777 424.451 59.8424 424.726 59.8192C424.979 59.7977 425.22 59.7018 425.419 59.5436C425.617 59.3853 425.764 59.1719 425.841 58.9302Z" fill="#699FF0"/>
</g>
</svg>
