<svg width="16" height="20" viewBox="0 0 16 20" fill="none" xmlns="http://www.w3.org/2000/svg">
<path d="M1.35553 17.1512C1.35553 14.7655 3.03358 12.7334 5.3141 12.3574L5.51952 12.3235C7.34565 12.0225 9.20644 12.0225 11.0326 12.3235L11.238 12.3574C13.5185 12.7334 15.1966 14.7655 15.1966 17.1512C15.1966 18.1823 14.3874 19.0183 13.3892 19.0183H3.1629C2.16472 19.0183 1.35553 18.1823 1.35553 17.1512Z" stroke="#8E8B9E" stroke-width="1.3"/>
<path d="M12.313 5.11544C12.313 7.26537 10.5056 9.00823 8.27606 9.00823C6.04651 9.00823 4.2391 7.26537 4.2391 5.11544C4.2391 2.96552 6.04651 1.22266 8.27606 1.22266C10.5056 1.22266 12.313 2.96552 12.313 5.11544Z" stroke="#8E8B9E" stroke-width="1.3"/>
</svg>
