<svg width="41" height="41" viewBox="0 0 41 41" fill="none" xmlns="http://www.w3.org/2000/svg">
<circle opacity="0.15" cx="20.5964" cy="20.0488" r="20" fill="#EEB217"/>
<g clip-path="url(#clip0_107_18687)">
<path d="M31.0419 10.6032C31.1428 10.7042 31.2118 10.8326 31.2403 10.9725C31.2688 11.1124 31.2555 11.2576 31.2022 11.3901L22.7224 32.5889C22.6476 32.7756 22.5229 32.9381 22.3617 33.0584C22.2006 33.1788 22.0094 33.2523 21.8092 33.271C21.609 33.2897 21.4075 33.2528 21.2269 33.1643C21.0463 33.0759 20.8936 32.9393 20.7857 32.7696L16.1545 25.4906L8.87542 20.8594C8.70538 20.7515 8.56845 20.5988 8.47973 20.418C8.39101 20.2373 8.35395 20.0355 8.37264 19.835C8.39133 19.6345 8.46505 19.4431 8.58566 19.2818C8.70627 19.1206 8.86907 18.9958 9.05612 18.9212L30.255 10.4443C30.3874 10.391 30.5326 10.3778 30.6725 10.4063C30.8124 10.4348 30.9409 10.5037 31.0419 10.6046V10.6032ZM17.6088 25.0651L21.6323 31.3867L28.5296 14.1443L17.6088 25.0651ZM27.4993 13.114L10.2569 20.0113L16.58 24.0333L27.5008 13.114H27.4993Z" fill="#EEB217"/>
</g>
<defs>
<clipPath id="clip0_107_18687">
<rect width="23.3163" height="23.3163" fill="white" transform="translate(7.93823 10.3906)"/>
</clipPath>
</defs>
</svg>
