<svg width="19" height="18" viewBox="0 0 19 18" fill="none" xmlns="http://www.w3.org/2000/svg">
<g clip-path="url(#clip0_493_5483)">
<path d="M9.05631 17.5726C6.76716 17.5726 4.47801 17.5726 2.18887 17.5726C1.63254 17.5726 1.13166 17.4403 0.718982 17.0434C0.322057 16.6616 0.158876 16.1783 0.157616 15.6504C0.148796 12.3956 0.148796 9.14037 0.157616 5.88474C0.162027 4.72672 0.913665 3.99462 2.17942 3.99021C2.72881 3.99021 2.97579 3.81317 3.14338 3.31481C3.39539 2.55876 3.72869 1.83169 4.01409 1.08761C4.22642 0.535068 4.57798 0.164603 5.18975 0.0826977C5.42032 0.0560098 5.6538 0.0926002 5.86515 0.188544C8.22906 1.17141 10.5919 2.15637 12.9537 3.14344C13.4868 3.36521 14.0193 3.5874 14.5515 3.81002C14.8117 3.92432 15.0941 3.979 15.3781 3.97005C15.7664 3.94749 16.1559 3.97908 16.5355 4.06392C17.3458 4.25294 17.9065 4.92141 17.9216 5.75243C17.9336 6.34026 17.9266 6.92872 17.9254 7.51655C17.9254 7.67469 17.9481 7.80132 18.1295 7.8574C18.5863 7.99915 18.7785 8.35702 18.7841 8.79616C18.8001 10.1293 18.8001 11.4627 18.7841 12.7963C18.7797 13.2316 18.5592 13.5649 18.1377 13.7143C17.9594 13.7773 17.9216 13.8774 17.9229 14.0406C17.9273 14.5761 17.9229 15.1117 17.9229 15.6472C17.9178 16.821 17.1737 17.567 15.9817 17.5707C13.677 17.5777 11.3692 17.5726 9.05631 17.5726ZM9.05631 16.5696C11.377 16.5696 13.6974 16.5696 16.0176 16.5696C16.6886 16.5696 16.9961 16.2672 17.0087 15.5905C17.0169 15.1495 17.0087 14.7085 17.0087 14.2674C17.0087 13.793 17.0087 13.7924 16.5481 13.7924C15.5086 13.7924 14.469 13.7955 13.4294 13.7924C12.9456 13.7997 12.4657 13.7037 12.0219 13.5108C10.1223 12.6558 9.55719 10.0632 11.2993 8.51768C11.9595 7.93237 12.7635 7.76667 13.609 7.7547C14.6271 7.74021 15.6459 7.74588 16.664 7.7547C16.9198 7.7547 17.0225 7.67405 17.0131 7.40944C16.9967 6.94762 17.0131 6.48517 17.0068 6.02335C16.9967 5.29187 16.6722 4.9737 15.9445 4.9737H2.18068C1.40069 4.9737 1.15686 5.21375 1.15686 5.98177C1.15686 9.18363 1.15686 12.3859 1.15686 15.5886C1.15686 16.3579 1.37296 16.5696 2.15736 16.5696H9.05631ZM15.2402 12.7894C15.9748 12.7894 16.7088 12.7831 17.4453 12.7894C17.6973 12.7931 17.8013 12.703 17.7994 12.4422C17.791 11.3195 17.791 10.1969 17.7994 9.07463C17.7994 8.84656 17.7162 8.75961 17.4844 8.75961C16.0353 8.75961 14.5862 8.76466 13.1415 8.74891C12.2305 8.73882 11.1783 9.66372 11.2306 10.8047C11.2816 11.9287 12.061 12.7742 13.1648 12.7849C13.8547 12.7969 14.5471 12.7887 15.2395 12.7894H15.2402ZM12.2651 3.92216C12.199 3.82262 12.0912 3.80119 11.9986 3.76213C10.2194 3.0191 8.43992 2.27797 6.66026 1.53872C6.29232 1.38625 5.92501 1.23189 5.54887 1.10273C5.33277 1.02776 5.08705 1.01642 4.98184 1.27663C4.64161 2.08938 4.32092 2.90969 3.99771 3.72433C3.97062 3.79238 3.94416 3.86231 4.01661 3.92531C4.18673 4.07337 4.74746 3.93855 4.83126 3.72496C4.96168 3.39293 5.08327 3.05649 5.21621 2.72698C5.3586 2.37919 5.58163 2.25886 5.90926 2.36596C6.93496 2.70304 7.96193 3.03633 8.97944 3.39608C10.036 3.77473 11.0913 4.15276 12.2651 3.92216ZM7.45159 3.96879L7.46672 3.8957C7.02569 3.74575 6.58466 3.58068 6.13733 3.45152C5.86578 3.37403 5.88909 3.6481 5.83869 3.79301C5.77569 3.9732 5.93068 3.9669 6.04471 3.96753C6.51346 3.97005 6.98284 3.96879 7.45159 3.96879Z" fill="#8E8B9E"/>
<path d="M13.2727 9.49026C14.0344 9.4953 14.5416 10.0176 14.5391 10.7951C14.5391 11.5366 13.9834 12.0961 13.2525 12.0948C12.5122 12.0948 11.9635 11.5221 11.9704 10.7592C11.9773 9.99619 12.5028 9.48585 13.2727 9.49026ZM13.2588 11.1328C13.4693 11.1 13.623 11.0068 13.6123 10.7699C13.6133 10.7246 13.6052 10.6795 13.5884 10.6375C13.5716 10.5954 13.5464 10.5571 13.5145 10.525C13.4825 10.4929 13.4444 10.4676 13.4024 10.4505C13.3605 10.4335 13.3155 10.4251 13.2702 10.4259C13.0547 10.4189 12.9123 10.5519 12.9016 10.7743C12.8884 11.0099 13.0459 11.1025 13.2588 11.1328Z" fill="#8E8B9E"/>
</g>
<defs>
<clipPath id="clip0_493_5483">
<rect width="18.6486" height="17.5" fill="white" transform="translate(0.149902 0.0742188)"/>
</clipPath>
</defs>
</svg>
