<svg width="18" height="17" viewBox="0 0 18 17" fill="none" xmlns="http://www.w3.org/2000/svg">
<g clip-path="url(#clip0_493_2121)">
<path d="M8.69579 16.0919C6.63305 16.0919 4.57031 16.0919 2.50757 16.0919C2.00627 16.0919 1.55493 15.9727 1.18307 15.615C0.825402 15.271 0.678361 14.8356 0.677226 14.3598C0.669278 11.4269 0.669278 8.49367 0.677226 5.56005C0.6812 4.51657 1.3585 3.85687 2.49906 3.85289C2.99412 3.85289 3.21666 3.69336 3.36768 3.24429C3.59477 2.56302 3.8951 1.90787 4.15228 1.23738C4.3436 0.739487 4.66039 0.405663 5.21165 0.331859C5.41942 0.307811 5.62981 0.340782 5.82026 0.427237C7.95037 1.31289 10.0795 2.20044 12.2077 3.08987C12.688 3.28971 13.168 3.48993 13.6475 3.69052C13.8819 3.79352 14.1364 3.84279 14.3924 3.83473C14.7422 3.8144 15.0932 3.84287 15.4353 3.91932C16.1654 4.08964 16.6706 4.69199 16.6843 5.44082C16.695 5.97051 16.6888 6.50077 16.6877 7.03046C16.6877 7.17296 16.7081 7.28707 16.8716 7.3376C17.2832 7.46533 17.4564 7.7878 17.4615 8.18351C17.4759 9.38482 17.4759 10.5863 17.4615 11.788C17.4575 12.1803 17.2588 12.4806 16.879 12.6152C16.7183 12.672 16.6843 12.7622 16.6854 12.9093C16.6894 13.3918 16.6854 13.8744 16.6854 14.357C16.6809 15.4146 16.0104 16.0868 14.9362 16.0902C12.8595 16.0965 10.7799 16.0919 8.69579 16.0919ZM8.69579 15.1881C10.7869 15.1881 12.8778 15.1881 14.9686 15.1881C15.5732 15.1881 15.8503 14.9156 15.8616 14.3059C15.869 13.9085 15.8616 13.5111 15.8616 13.1136C15.8616 12.6861 15.8616 12.6856 15.4466 12.6856C14.5099 12.6856 13.5731 12.6884 12.6364 12.6856C12.2004 12.6921 11.768 12.6056 11.3681 12.4318C9.65638 11.6614 9.14713 9.32521 10.7169 7.93257C11.3119 7.40516 12.0363 7.25584 12.7982 7.24506C13.7156 7.232 14.6336 7.23711 15.5511 7.24506C15.7816 7.24506 15.8741 7.17239 15.8656 6.93394C15.8508 6.5178 15.8656 6.10109 15.8599 5.68495C15.8508 5.02582 15.5585 4.73912 14.9027 4.73912H2.50019C1.79735 4.73912 1.57764 4.95542 1.57764 5.64748C1.57764 8.53266 1.57764 11.4182 1.57764 14.3042C1.57764 14.9974 1.77237 15.1881 2.47919 15.1881H8.69579ZM14.268 11.7818C14.93 11.7818 15.5914 11.7761 16.2551 11.7818C16.4822 11.7852 16.5758 11.704 16.5741 11.4689C16.5666 10.4573 16.5666 9.44575 16.5741 8.43444C16.5741 8.22893 16.4992 8.15058 16.2903 8.15058C14.9845 8.15058 13.6787 8.15512 12.3769 8.14093C11.556 8.13185 10.6079 8.96527 10.655 9.99342C10.701 11.0062 11.4033 11.7681 12.3979 11.7778C13.0196 11.7886 13.6435 11.7812 14.2675 11.7818H14.268ZM11.5872 3.79158C11.5276 3.70188 11.4305 3.68258 11.3471 3.64738C9.74381 2.97784 8.14036 2.31 6.53673 1.64387C6.20517 1.50648 5.87419 1.36739 5.53526 1.25101C5.34053 1.18345 5.11911 1.17323 5.0243 1.4077C4.71773 2.14007 4.42876 2.87924 4.13752 3.61331C4.1131 3.67463 4.08926 3.73765 4.15455 3.79442C4.30783 3.92783 4.81311 3.80634 4.88862 3.61388C5.00614 3.31469 5.11571 3.01152 5.2355 2.7146C5.36381 2.40122 5.56478 2.29278 5.86 2.3893C6.78426 2.69303 7.70965 2.99336 8.62653 3.31753C9.5786 3.65873 10.5295 3.99937 11.5872 3.79158ZM7.24979 3.83359L7.26342 3.76773C6.86601 3.63262 6.4686 3.48387 6.06551 3.36749C5.82082 3.29766 5.84183 3.54462 5.79641 3.6752C5.73964 3.83757 5.8793 3.83189 5.98206 3.83246C6.40445 3.83473 6.8274 3.83359 7.24979 3.83359Z" fill="#2C2C2C"/>
<path d="M8.69579 16.0919C6.63305 16.0919 4.57031 16.0919 2.50757 16.0919C2.00627 16.0919 1.55493 15.9727 1.18307 15.615C0.825402 15.271 0.678361 14.8356 0.677226 14.3598C0.669278 11.4269 0.669278 8.49367 0.677226 5.56005C0.6812 4.51657 1.3585 3.85687 2.49906 3.85289C2.99412 3.85289 3.21666 3.69336 3.36768 3.24429C3.59477 2.56302 3.8951 1.90787 4.15228 1.23738C4.3436 0.739487 4.66039 0.405663 5.21165 0.331859C5.41942 0.307811 5.62981 0.340782 5.82026 0.427237C7.95037 1.31289 10.0795 2.20044 12.2077 3.08987C12.688 3.28971 13.168 3.48993 13.6475 3.69052C13.8819 3.79352 14.1364 3.84279 14.3924 3.83473C14.7422 3.8144 15.0932 3.84287 15.4353 3.91932C16.1654 4.08964 16.6706 4.69199 16.6843 5.44082C16.695 5.97051 16.6888 6.50077 16.6877 7.03046C16.6877 7.17296 16.7081 7.28707 16.8716 7.3376C17.2832 7.46533 17.4564 7.7878 17.4615 8.18351C17.4759 9.38482 17.4759 10.5863 17.4615 11.788C17.4575 12.1803 17.2588 12.4806 16.879 12.6152C16.7183 12.672 16.6843 12.7622 16.6854 12.9093C16.6894 13.3918 16.6854 13.8744 16.6854 14.357C16.6809 15.4146 16.0104 16.0868 14.9362 16.0902C12.8595 16.0965 10.7799 16.0919 8.69579 16.0919ZM8.69579 15.1881C10.7869 15.1881 12.8778 15.1881 14.9686 15.1881C15.5732 15.1881 15.8503 14.9156 15.8616 14.3059C15.869 13.9085 15.8616 13.5111 15.8616 13.1136C15.8616 12.6861 15.8616 12.6856 15.4466 12.6856C14.5099 12.6856 13.5731 12.6884 12.6364 12.6856C12.2004 12.6921 11.768 12.6056 11.3681 12.4318C9.65638 11.6614 9.14713 9.32521 10.7169 7.93257C11.3119 7.40516 12.0363 7.25584 12.7982 7.24506C13.7156 7.232 14.6336 7.23711 15.5511 7.24506C15.7816 7.24506 15.8741 7.17239 15.8656 6.93394C15.8508 6.5178 15.8656 6.10109 15.8599 5.68495C15.8508 5.02582 15.5585 4.73912 14.9027 4.73912H2.50019C1.79735 4.73912 1.57764 4.95542 1.57764 5.64748C1.57764 8.53266 1.57764 11.4182 1.57764 14.3042C1.57764 14.9974 1.77237 15.1881 2.47919 15.1881H8.69579ZM14.268 11.7818C14.93 11.7818 15.5914 11.7761 16.2551 11.7818C16.4822 11.7852 16.5758 11.704 16.5741 11.4689C16.5666 10.4573 16.5666 9.44575 16.5741 8.43444C16.5741 8.22893 16.4992 8.15058 16.2903 8.15058C14.9845 8.15058 13.6787 8.15512 12.3769 8.14093C11.556 8.13185 10.6079 8.96527 10.655 9.99342C10.701 11.0062 11.4033 11.7681 12.3979 11.7778C13.0196 11.7886 13.6435 11.7812 14.2675 11.7818H14.268ZM11.5872 3.79158C11.5276 3.70188 11.4305 3.68258 11.3471 3.64738C9.74381 2.97784 8.14036 2.31 6.53673 1.64387C6.20517 1.50648 5.87419 1.36739 5.53526 1.25101C5.34053 1.18345 5.11911 1.17323 5.0243 1.4077C4.71773 2.14007 4.42876 2.87924 4.13752 3.61331C4.1131 3.67463 4.08926 3.73765 4.15455 3.79442C4.30783 3.92783 4.81311 3.80634 4.88862 3.61388C5.00614 3.31469 5.11571 3.01152 5.2355 2.7146C5.36381 2.40122 5.56478 2.29278 5.86 2.3893C6.78426 2.69303 7.70965 2.99336 8.62653 3.31753C9.5786 3.65873 10.5295 3.99937 11.5872 3.79158ZM7.24979 3.83359L7.26342 3.76773C6.86601 3.63262 6.4686 3.48387 6.06551 3.36749C5.82082 3.29766 5.84183 3.54462 5.79641 3.6752C5.73964 3.83757 5.8793 3.83189 5.98206 3.83246C6.40445 3.83473 6.8274 3.83359 7.24979 3.83359Z" fill="black" fill-opacity="0.2"/>
<path d="M12.4952 8.80862C13.1816 8.81316 13.6386 9.2838 13.6363 9.98438C13.6363 10.6526 13.1356 11.1567 12.477 11.1556C11.81 11.1556 11.3155 10.6395 11.3217 9.95202C11.328 9.2645 11.8014 8.80465 12.4952 8.80862ZM12.4827 10.2887C12.6723 10.2592 12.8109 10.1751 12.8012 9.96167C12.8021 9.92085 12.7948 9.88027 12.7797 9.84236C12.7645 9.80444 12.7419 9.76998 12.7131 9.74103C12.6843 9.71208 12.6499 9.68925 12.6121 9.6739C12.5743 9.65855 12.5337 9.65099 12.4929 9.65169C12.2988 9.64544 12.1705 9.76524 12.1608 9.96564C12.1489 10.178 12.2908 10.2614 12.4827 10.2887Z" fill="#2C2C2C"/>
<path d="M12.4952 8.80862C13.1816 8.81316 13.6386 9.2838 13.6363 9.98438C13.6363 10.6526 13.1356 11.1567 12.477 11.1556C11.81 11.1556 11.3155 10.6395 11.3217 9.95202C11.328 9.2645 11.8014 8.80465 12.4952 8.80862ZM12.4827 10.2887C12.6723 10.2592 12.8109 10.1751 12.8012 9.96167C12.8021 9.92085 12.7948 9.88027 12.7797 9.84236C12.7645 9.80444 12.7419 9.76998 12.7131 9.74103C12.6843 9.71208 12.6499 9.68925 12.6121 9.6739C12.5743 9.65855 12.5337 9.65099 12.4929 9.65169C12.2988 9.64544 12.1705 9.76524 12.1608 9.96564C12.1489 10.178 12.2908 10.2614 12.4827 10.2887Z" fill="black" fill-opacity="0.2"/>
</g>
<defs>
<clipPath id="clip0_493_2121">
<rect width="16.8041" height="15.7692" fill="white" transform="translate(0.670288 0.324707)"/>
</clipPath>
</defs>
</svg>
