<svg width="41" height="41" viewBox="0 0 41 41" fill="none" xmlns="http://www.w3.org/2000/svg">
<circle opacity="0.15" cx="20.1335" cy="20.0488" r="20" fill="#6D6BE6"/>
<g clip-path="url(#clip0_107_18678)">
<path d="M7.3396 20.1975C7.46366 19.8674 7.73047 19.6672 8.03462 19.5539C8.70163 19.3057 8.89307 18.8655 8.84971 18.1611C8.78301 17.0272 8.8297 15.8826 8.8317 14.7427C8.8317 14.015 9.1572 13.6908 9.88224 13.6908C12.5356 13.6908 15.1894 13.6919 17.8437 13.6942C18.0589 13.6988 18.2712 13.6434 18.4567 13.5341C20.8663 12.1369 23.2785 10.7424 25.6931 9.3506C25.7651 9.30925 25.8371 9.26789 25.9098 9.2272C26.4888 8.90237 26.9357 9.01843 27.2725 9.59806C27.9962 10.842 28.7199 12.0853 29.425 13.34C29.5744 13.6068 29.7378 13.7349 30.048 13.6962C30.2694 13.6688 30.4969 13.6902 30.7216 13.6915C31.322 13.6915 31.6688 14.0317 31.6708 14.6307C31.6708 15.4124 31.6708 16.1948 31.6708 16.9765C31.6672 17.134 31.7086 17.2893 31.7902 17.4241C32.1164 17.9757 32.4339 18.532 32.7527 19.087C33.0715 19.6419 32.9681 20.1668 32.3938 20.4256C31.7975 20.6924 31.6261 21.0726 31.6555 21.7143C31.7142 23.001 31.6728 24.2923 31.6728 25.583C31.6728 26.328 31.3546 26.6502 30.6149 26.6502C27.7361 26.6502 24.8575 26.6502 21.9791 26.6502C21.764 26.6466 21.5521 26.7027 21.3668 26.8123C19.0283 28.1685 16.6873 29.5199 14.3439 30.8664C13.7522 31.2065 13.312 31.0825 12.9672 30.4875C12.2835 29.3075 11.5971 28.1283 10.9248 26.9417C10.8027 26.7262 10.6686 26.6208 10.4152 26.6482C10.2078 26.6625 9.99974 26.6639 9.7922 26.6522C9.20856 26.6422 8.84037 26.2813 8.83437 25.697C8.82703 24.99 8.83437 24.283 8.83437 23.5759C8.84185 23.4345 8.80975 23.2939 8.74166 23.1697C8.27475 22.3653 7.80784 21.5576 7.34093 20.7511L7.3396 20.1975ZM20.2316 25.7811H30.4402C30.8097 25.7811 30.8104 25.7811 30.8104 25.4062V14.9475C30.8104 14.5539 30.8104 14.5533 30.4282 14.5533H10.061C9.69948 14.5533 9.69881 14.5533 9.69881 14.9088V25.4422C9.69881 25.7797 9.69881 25.7804 10.0483 25.7804L20.2316 25.7811ZM19.9388 13.6608C20.5291 13.7722 21.006 13.6221 21.4842 13.3273C22.4527 12.727 23.4512 12.1781 24.4384 11.6104C24.8173 11.3923 24.9533 11.4217 25.2175 11.7638C25.5743 12.2308 26.0739 12.3568 26.6182 12.1247C26.971 11.9733 27.1398 12.0266 27.3392 12.3655C27.5507 12.723 27.7675 13.0792 27.9596 13.4474C28.0596 13.6375 28.1863 13.6982 28.3944 13.6962C28.6159 13.6962 28.6319 13.6441 28.5278 13.4614C27.8857 12.3635 27.2496 11.2618 26.6195 10.1564C26.5035 9.95091 26.4194 9.91222 26.204 10.0383C24.9567 10.772 23.7 11.4884 22.4474 12.2121C21.6143 12.6903 20.7885 13.1692 19.9388 13.6608ZM19.9027 26.6675C19.0903 26.6048 19.0483 26.6135 18.6721 26.8309C17.7218 27.3806 16.7705 27.9291 15.818 28.4765C15.4224 28.7032 15.295 28.6766 15.0176 28.3217C14.6841 27.8908 14.1938 27.7467 13.7075 27.9348C13.2073 28.1283 13.1106 28.0936 12.8484 27.6334C12.6877 27.3512 12.5283 27.0684 12.3629 26.7896C12.2915 26.6689 11.9006 26.5715 11.8292 26.6669C11.7352 26.7929 11.8766 26.891 11.932 26.9877C12.5016 27.9842 13.0826 28.9747 13.6495 29.9732C13.7509 30.1526 13.8329 30.1793 14.0144 30.0733C15.3651 29.2842 16.7211 28.5058 18.0758 27.7234L19.9027 26.6675ZM22.6181 13.6475L22.6241 13.6902C23.9455 13.6902 25.2662 13.6902 26.5868 13.6902C26.7409 13.6902 26.969 13.7669 27.0317 13.6488C27.0984 13.5154 26.9123 13.3647 26.841 13.2186C26.7796 13.0932 26.7122 13.0098 26.5342 13.0465C25.8818 13.1799 25.2989 13.0192 24.7999 12.5796C24.7648 12.5394 24.7156 12.5142 24.6624 12.5093C24.6092 12.5045 24.5562 12.5203 24.5144 12.5536C23.8848 12.9191 23.2505 13.2826 22.6181 13.6481V13.6475ZM17.1913 26.6969L17.1707 26.6482H15.1776C14.6214 26.6482 14.0644 26.6482 13.5101 26.6482C13.4434 26.6482 13.3474 26.6115 13.3347 26.7255C13.3187 26.8676 13.5488 27.0737 13.6922 27.045C14.0016 26.9757 14.3232 26.9826 14.6294 27.0651C14.9356 27.1476 15.2171 27.3032 15.4498 27.5186C15.5252 27.5853 15.5898 27.6253 15.6912 27.566C16.1882 27.2765 16.6904 26.9877 17.1913 26.6975V26.6969ZM8.76967 21.5149L8.8317 21.5035C8.8317 21.2234 8.8377 20.9432 8.8317 20.6631C8.82703 20.4923 8.91508 20.2389 8.78301 20.1715C8.61826 20.0868 8.46018 20.3189 8.28676 20.3883C8.1807 20.4303 8.18937 20.5017 8.24006 20.5884C8.41615 20.8959 8.59158 21.206 8.76967 21.5149ZM31.6815 19.838C32.0997 19.6652 32.0997 19.6652 31.9009 19.3197C31.8376 19.209 31.7722 19.0996 31.6815 18.9455V19.838Z" fill="#6D6BE6"/>
<path d="M20.2458 23.9076C19.2533 23.9039 18.3027 23.5068 17.6025 22.8034C16.9023 22.0999 16.5096 21.1475 16.5105 20.155C16.5019 18.258 18.0193 16.4084 20.2625 16.4131C22.3969 16.4178 24.0037 18.0893 24.0151 20.1824C24.0251 22.2421 22.3149 23.9096 20.2458 23.9076ZM20.2458 23.0452C20.625 23.0498 21.0014 22.9794 21.3533 22.838C21.7051 22.6966 22.0255 22.487 22.296 22.2212C22.5665 21.9554 22.7818 21.6387 22.9294 21.2894C23.077 20.94 23.154 20.5649 23.156 20.1857C23.1613 18.5889 21.872 17.2755 20.2912 17.2662C19.9095 17.2613 19.5306 17.3324 19.1766 17.4753C18.8226 17.6181 18.5006 17.8299 18.2292 18.0983C17.9577 18.3668 17.7424 18.6865 17.5957 19.0389C17.4489 19.3912 17.3737 19.7693 17.3743 20.151C17.3743 21.7712 18.6283 23.0392 20.2425 23.0452H20.2458Z" fill="#6D6BE6"/>
<path d="M21.7879 21.0401C21.7879 21.585 21.497 21.9739 20.9581 22.1707C20.8 22.228 20.6913 22.2814 20.6566 22.4768C20.6219 22.6722 20.4565 22.787 20.2564 22.7836C20.0676 22.7836 19.9036 22.6836 19.8682 22.4908C19.8308 22.2867 19.7081 22.2087 19.538 22.1353C19.3478 22.0589 19.1778 21.9395 19.0415 21.7864C18.9052 21.6333 18.8062 21.4507 18.7523 21.2529C18.6796 21.0021 18.783 20.7859 19.0051 20.7052C19.2272 20.6245 19.4253 20.7206 19.5387 20.9467C19.7815 21.4269 20.2391 21.579 20.7253 21.3409C21.0115 21.2008 21.0275 20.9407 20.7607 20.7613C20.5759 20.6352 20.3605 20.6065 20.1477 20.5652C19.867 20.5179 19.5984 20.4157 19.3573 20.2643C18.5995 19.7648 18.6703 18.6802 19.4953 18.2306C19.6748 18.1326 19.8288 18.0525 19.8749 17.8177C19.9102 17.6323 20.0816 17.5376 20.2751 17.5443C20.4812 17.5509 20.6359 17.6677 20.6633 17.8678C20.688 18.0499 20.784 18.1159 20.9301 18.1766C21.251 18.3094 21.507 18.5628 21.6431 18.8823C21.7552 19.1258 21.6918 19.3579 21.4924 19.4713C21.2803 19.592 21.0535 19.5206 20.8981 19.2838C20.6679 18.9337 20.3971 18.8169 20.031 18.9257C19.8535 18.9777 19.7101 19.0837 19.6974 19.2838C19.6848 19.4839 19.8248 19.5847 19.9929 19.6354C20.199 19.6967 20.4131 19.7334 20.6213 19.7901C21.0842 19.9175 21.4957 20.1183 21.7025 20.5905C21.7662 20.7315 21.7955 20.8856 21.7879 21.0401Z" fill="#6D6BE6"/>
</g>
<defs>
<clipPath id="clip0_107_18678">
<rect width="25.5892" height="22" fill="white" transform="translate(7.3396 9.04883)"/>
</clipPath>
</defs>
</svg>
