<svg width="72" height="77" viewBox="0 0 72 77" fill="none" xmlns="http://www.w3.org/2000/svg">
<path fill-rule="evenodd" clip-rule="evenodd" d="M14.3108 74.3013C14.446 70.4564 26.7508 69.6527 35.9959 63.4551C45.2979 70.444 57.5457 70.4701 57.6809 74.3013V76.6343H14.3083V74.3013H14.3108Z" fill="#FBCB22"/>
<path d="M54.4235 74.6983H17.5674C17.4888 74.6983 17.4134 74.6671 17.3578 74.6115C17.3022 74.5559 17.271 74.4805 17.271 74.4019C17.271 74.3233 17.3022 74.2479 17.3578 74.1923C17.4134 74.1367 17.4888 74.1055 17.5674 74.1055H54.4235C54.5021 74.1055 54.5775 74.1367 54.6331 74.1923C54.6887 74.2479 54.7199 74.3233 54.7199 74.4019C54.7199 74.4805 54.6887 74.5559 54.6331 74.6115C54.5775 74.6671 54.5021 74.6983 54.4235 74.6983Z" fill="#ECA400"/>
<path fill-rule="evenodd" clip-rule="evenodd" d="M30.3995 51.519C30.3995 51.519 31.6398 53.3794 32.6704 56.6575C33.0078 57.7303 33.3501 58.8676 33.339 60.0831C33.3278 61.2986 32.9446 62.4297 32.5948 63.5088C31.5604 66.7546 30.3933 68.6485 30.3933 68.6485C30.3933 71.7367 41.5856 71.7367 41.5856 68.6485C41.5856 68.6485 40.4185 66.7546 39.3853 63.5088C39.0405 62.4297 38.6585 61.3085 38.6474 60.0831C38.6362 58.8577 38.9785 57.7266 39.3146 56.6575C40.3465 53.3757 41.5856 51.519 41.5856 51.519C41.5856 50.0348 40.996 48.6114 39.9465 47.5619C38.897 46.5124 37.4736 45.9229 35.9894 45.9229C34.5052 45.9229 33.0819 46.5124 32.0324 47.5619C30.9829 48.6114 30.3933 50.0348 30.3933 51.519H30.3995Z" fill="#ECA400"/>
<path d="M14.9468 38.6452C12.0644 38.6452 8.71934 37.8303 6.01678 35.4961C2.71888 32.6522 0.970073 28.2207 0.82 22.3281C0.695972 17.3211 1.89533 13.7578 4.39449 11.7374C8.27035 8.6032 13.6457 10.6633 13.8727 10.7526C14.7409 11.0962 15.201 12.1591 14.8922 13.1277C14.5834 14.0964 13.6296 14.6024 12.7589 14.2626C12.7019 14.2403 8.79004 12.7743 6.35537 14.7587C4.81123 16.0163 4.07573 18.5291 4.16875 22.2277C4.29278 26.9556 5.60254 30.4333 8.07193 32.5629C11.0213 35.1067 15.0435 35.263 17.5911 34.623C18.494 34.396 19.3907 35.0261 19.5941 36.0282C19.7975 37.0304 19.2319 38.0263 18.329 38.252C17.2218 38.5201 16.086 38.6521 14.9468 38.6452Z" fill="#EEB217"/>
<path d="M56.8953 38.6449C55.7568 38.6498 54.6219 38.5161 53.5156 38.2468C52.6139 38.021 52.0471 37.0251 52.2518 36.0229C52.4564 35.0208 53.3519 34.392 54.2548 34.6177C56.8023 35.2577 60.8283 35.1014 63.7739 32.5576C66.2433 30.428 67.5568 26.9503 67.6758 22.2224C67.7701 18.5239 67.0346 16.0111 65.4892 14.7534C63.0508 12.769 59.1254 14.2474 59.0857 14.2573C58.2175 14.5934 57.2587 14.0837 56.9536 13.1163C56.6485 12.1488 57.1025 11.0896 57.9731 10.7473C58.2001 10.6593 63.5755 8.59793 67.4514 11.7321C69.9505 13.7525 71.1523 17.3134 71.0246 22.3228C70.8757 28.2154 69.127 32.6469 65.8278 35.4909C63.1228 37.8362 59.7778 38.6449 56.8953 38.6449Z" fill="#EEB217"/>
<path fill-rule="evenodd" clip-rule="evenodd" d="M11.2896 13.1882V5.69941C11.2896 2.61732 13.4898 0.118164 16.2035 0.118164H55.6443C56.9479 0.118164 58.1981 0.706047 59.1171 1.75284C60.0574 2.85153 60.5685 4.25334 60.5558 5.69941V13.3222C60.5112 36.0192 49.4913 54.4237 35.9239 54.4237C22.3268 54.4237 11.2896 35.9473 11.2896 13.1882Z" fill="#FBCB22"/>
<path d="M35.9955 37.4914C42.7659 37.4914 48.2544 32.0029 48.2544 25.2325C48.2544 18.4621 42.7659 12.9736 35.9955 12.9736C29.2251 12.9736 23.7366 18.4621 23.7366 25.2325C23.7366 32.0029 29.2251 37.4914 35.9955 37.4914Z" fill="#FEEDB4"/>
<path d="M35.9972 39.5299C33.169 39.5302 30.4043 38.6918 28.0527 37.1207C25.701 35.5497 23.8681 33.3165 22.7856 30.7037C21.7031 28.0909 21.4198 25.2158 21.9714 22.4419C22.523 19.6681 23.8847 17.1201 25.8845 15.1202C27.8842 13.1203 30.4321 11.7583 33.2059 11.2065C35.9797 10.6547 38.8548 10.9378 41.4677 12.02C44.0806 13.1022 46.3139 14.935 47.8852 17.2865C49.4564 19.638 50.2951 22.4026 50.2951 25.2308C50.2908 29.0216 48.7831 32.656 46.1027 35.3367C43.4223 38.0173 39.788 39.5254 35.9972 39.5299ZM35.9972 11.5716C33.2957 11.5716 30.6548 12.3727 28.4085 13.8736C26.1623 15.3745 24.4116 17.5078 23.3778 20.0037C22.3439 22.4996 22.0734 25.246 22.6005 27.8956C23.1275 30.5452 24.4284 32.979 26.3387 34.8893C28.2489 36.7996 30.6828 38.1005 33.3324 38.6275C35.982 39.1546 38.7284 38.8841 41.2243 37.8502C43.7202 36.8164 45.8535 35.0657 47.3544 32.8194C48.8553 30.5732 49.6563 27.9323 49.6563 25.2308C49.6521 21.6095 48.2116 18.1377 45.651 15.577C43.0903 13.0163 39.6185 11.5759 35.9972 11.5716Z" fill="#ECA400"/>
<path fill-rule="evenodd" clip-rule="evenodd" d="M35.5416 18.5843C35.5729 18.4883 35.6338 18.4046 35.7156 18.3452C35.7973 18.2859 35.8957 18.2539 35.9968 18.2539C36.0978 18.2539 36.1962 18.2859 36.278 18.3452C36.3597 18.4046 36.4206 18.4883 36.4519 18.5843C36.9208 20.0292 37.6203 22.1811 37.887 23.0009C37.9179 23.0969 37.9786 23.1806 38.0602 23.2398C38.1418 23.2991 38.24 23.331 38.3409 23.3309H42.9857C43.0873 23.3305 43.1864 23.3624 43.2686 23.422C43.3508 23.4816 43.412 23.5658 43.4432 23.6625C43.4744 23.7592 43.4741 23.8632 43.4422 23.9597C43.4104 24.0561 43.3487 24.14 43.2661 24.199L39.5092 26.9277C39.4277 26.9874 39.367 27.0713 39.3358 27.1675C39.3047 27.2637 39.3046 27.3672 39.3356 27.4635C39.601 28.2808 40.3018 30.4401 40.7706 31.8801C40.8016 31.9762 40.8014 32.0796 40.7701 32.1757C40.7388 32.2717 40.6779 32.3553 40.5962 32.4146C40.5144 32.4739 40.416 32.5059 40.315 32.5059C40.214 32.5059 40.1156 32.4739 40.0339 32.4146L36.2771 29.686C36.1954 29.6268 36.0971 29.5949 35.9962 29.5949C35.8953 29.5949 35.7969 29.6268 35.7152 29.686L31.9584 32.4146C31.8768 32.4735 31.7788 32.5051 31.6782 32.5051C31.5776 32.5051 31.4796 32.4734 31.398 32.4145C31.3165 32.3556 31.2556 32.2725 31.2239 32.177C31.1923 32.0815 31.1915 31.9785 31.2217 31.8826C31.6905 30.4364 32.3913 28.2858 32.6567 27.4659C32.6881 27.3697 32.6882 27.2661 32.657 27.1698C32.6258 27.0735 32.5649 26.9896 32.4831 26.9301L28.7263 24.2015C28.6444 24.142 28.5835 24.0582 28.5522 23.962C28.5208 23.8658 28.5207 23.7621 28.5518 23.6658C28.5829 23.5696 28.6436 23.4856 28.7253 23.4258C28.8069 23.3661 28.9054 23.3337 29.0066 23.3333H33.6514C33.7524 23.3334 33.8508 23.3015 33.9325 23.2422C34.0143 23.183 34.0752 23.0994 34.1066 23.0034C34.372 22.1836 35.0666 20.0292 35.5416 18.5843Z" fill="#FBCB22"/>
<path opacity="0.85" d="M18.8411 34.417C18.6383 34.4096 18.4427 34.3403 18.2806 34.2183C18.1185 34.0963 17.9977 33.9276 17.9344 33.7349C13.6356 22.2462 14.0896 11.364 14.1045 10.9063C14.133 10.2862 14.6006 9.81487 15.1401 9.84836C15.6796 9.88185 16.1013 10.4065 16.0728 11.0241C16.0666 11.1643 15.6412 21.884 19.7477 32.8592C19.9598 33.4285 19.7266 34.0846 19.2268 34.3265C19.1067 34.3854 18.9748 34.4163 18.8411 34.417Z" fill="#FFDB76"/>
<path opacity="0.85" d="M23.2665 43.2644C23.1074 43.2614 22.9515 43.2186 22.8133 43.1397C22.675 43.0608 22.5587 42.9484 22.4752 42.8129C21.4215 41.1954 20.476 39.5099 19.6449 37.7675C19.3857 37.2242 19.5618 36.5446 20.0406 36.2494C20.5193 35.9542 21.1171 36.1551 21.3764 36.6983C22.164 38.3487 23.0594 39.9455 24.0566 41.4784C24.2138 41.721 24.2796 42.0116 24.2424 42.2984C24.2051 42.5851 24.0672 42.8492 23.8532 43.0436C23.6902 43.1848 23.4822 43.2631 23.2665 43.2644Z" fill="#FFDB76"/>
<path fill-rule="evenodd" clip-rule="evenodd" d="M62.973 3.19653C62.973 1.49611 61.7216 0.118164 60.1762 0.118164H11.5077C9.9636 0.118164 8.71216 1.49611 8.71216 3.19653C8.71216 4.89571 9.9636 6.27366 11.5077 6.27366H60.1762C61.7216 6.27366 62.973 4.89571 62.973 3.19653Z" fill="#FFDB76"/>
<path d="M58.7446 3.72883H13.2264C13.0932 3.716 12.9696 3.65401 12.8796 3.55494C12.7896 3.45588 12.7397 3.32686 12.7397 3.19303C12.7397 3.05921 12.7896 2.93017 12.8796 2.83111C12.9696 2.73205 13.0932 2.67006 13.2264 2.65723H58.7446C58.8778 2.67006 59.0015 2.73205 59.0914 2.83111C59.1814 2.93017 59.2313 3.05921 59.2313 3.19303C59.2313 3.32686 59.1814 3.45588 59.0914 3.55494C59.0015 3.65401 58.8778 3.716 58.7446 3.72883Z" fill="#ECA400"/>
</svg>
