<svg width="64" height="37" viewBox="0 0 64 37" fill="none" xmlns="http://www.w3.org/2000/svg">
<g clip-path="url(#clip0_477_171)">
<path d="M32.7444 17.2604V6.0166H3.35932V35.4022H14.0368C14.0368 34.3374 14.4598 33.3161 15.2128 32.5632C15.9657 31.8102 16.987 31.3872 18.0519 31.3872C19.1167 31.3872 20.138 31.8102 20.8909 32.5632C21.6439 33.3161 22.0669 34.3374 22.0669 35.4022H32.7444V25.2905C33.8092 25.2905 34.8305 24.8675 35.5835 24.1145C36.3364 23.3615 36.7594 22.3403 36.7594 21.2754C36.7594 20.2106 36.3364 19.1893 35.5835 18.4364C34.8305 17.6834 33.8092 17.2604 32.7444 17.2604Z" fill="#F24973"/>
<path d="M3.21283 35.5486H14.0362V35.2567H3.50466V6.16351H32.7444V5.87109H3.21283V35.5486Z" fill="black"/>
<path d="M48.3663 2.02734C49.4248 2.0273 50.4406 2.4453 51.1925 3.1904C51.9444 3.93549 52.3717 4.94739 52.3813 6.00592H63.0594V35.3916H33.6755V25.2248C34.7403 25.2248 35.7616 24.8018 36.5146 24.0488C37.2675 23.2959 37.6905 22.2746 37.6905 21.2098C37.6905 20.1449 37.2675 19.1237 36.5146 18.3707C35.7616 17.6177 34.7403 17.1947 33.6755 17.1947V6.00592H44.3529C44.3626 4.94769 44.7896 3.93607 45.5411 3.19102C46.2927 2.44597 47.308 2.02776 48.3663 2.02734Z" fill="#6D6BE6"/>
<path d="M38.4699 10.0572L38.4821 9.97898L38.3263 9.9541L38.3142 10.0322C38.267 10.3243 38.2511 10.6205 38.2667 10.9159L38.2707 10.9946L38.4282 10.9859L38.4242 10.9072C38.4092 10.623 38.4245 10.3381 38.4699 10.0572Z" fill="#FFFFFD"/>
<path d="M38.9569 8.39355C38.852 8.53994 38.7596 8.6949 38.6807 8.85678C38.6309 8.95927 38.5846 9.06639 38.5429 9.17525L38.5145 9.24879L38.6616 9.30669L38.69 9.23316C38.7299 9.12835 38.7745 9.02528 38.8226 8.92684C38.8974 8.77209 38.9852 8.62392 39.0849 8.48388L39.1306 8.41962L39.0026 8.32812L38.9569 8.39355Z" fill="#FFFFFD"/>
<path d="M38.5713 11.7423L38.5475 11.667L38.397 11.7145L38.4207 11.7892C38.5078 12.0757 38.6427 12.3455 38.8197 12.5871L38.8666 12.6502L38.9928 12.5558L38.9459 12.4927C38.7795 12.2656 38.6528 12.0118 38.5713 11.7423Z" fill="#FFFFFD"/>
<path d="M32.6135 3.90096C32.324 3.90096 32.0298 3.91023 31.7398 3.92586L31.6616 3.92991L31.6697 4.08742L31.7484 4.08278C32.038 4.06773 32.3275 4.05962 32.617 4.05847H32.6911V3.90039L32.6135 3.90096Z" fill="#FFFFFD"/>
<path d="M38.5197 5.25479L38.4514 5.21484L38.3715 5.35092L38.4392 5.39087C38.6865 5.53618 38.9244 5.69689 39.1514 5.87206L39.2134 5.92009L39.3101 5.79561L39.2476 5.74698C39.0154 5.56801 38.7723 5.40363 38.5197 5.25479Z" fill="#FFFFFD"/>
<path d="M40.3344 7.30219C40.0613 7.4185 39.8044 7.56974 39.5701 7.7521L39.5076 7.80073L39.6048 7.92522L39.6668 7.87659C39.8905 7.7025 40.136 7.55826 40.397 7.44751L40.4693 7.41624L40.4068 7.27148L40.3344 7.30219Z" fill="#FFFFFD"/>
<path d="M34.3587 3.98878C34.0744 3.95809 33.7797 3.93551 33.4902 3.92104L33.4114 3.91699L33.4033 4.07447L33.4821 4.07855C33.7716 4.09302 34.064 4.1156 34.3449 4.14513L34.423 4.15381L34.4398 3.99689L34.3587 3.98878Z" fill="#FFFFFD"/>
<path d="M36.9227 4.53329L36.848 4.50781L36.7977 4.65721L36.8723 4.68268C37.1497 4.77649 37.4201 4.88187 37.6749 4.99652L37.7467 5.02895L37.8116 4.88535L37.7392 4.85292C37.4798 4.73595 37.2076 4.62883 36.9227 4.53329Z" fill="#FFFFFD"/>
<path d="M40.3732 13.2362C40.2503 13.2318 40.128 13.2165 40.0078 13.1905C39.8565 13.1574 39.7101 13.1046 39.5724 13.0335L39.5023 12.9971L39.4294 13.1372L39.4994 13.1731C39.6492 13.2515 39.8087 13.3099 39.9737 13.3468C40.1033 13.3754 40.2353 13.392 40.368 13.3966L40.4468 13.3995L40.452 13.242L40.3732 13.2362Z" fill="#FFFFFD"/>
<path d="M35.225 4.10807L35.1474 4.09473L35.1231 4.2534L35.2007 4.26671C35.4902 4.31593 35.7681 4.37441 36.0461 4.44043L36.1225 4.45894L36.1607 4.3061L36.0837 4.28699C35.8006 4.2175 35.5162 4.15845 35.225 4.10807Z" fill="#FFFFFD"/>
<path d="M40.3877 7.06723L40.4387 7.12514L40.5585 7.02381L40.5081 6.9659C40.3192 6.74257 40.1192 6.52882 39.9088 6.32548L39.8509 6.26758L39.7415 6.38339L39.7994 6.43784C40.0067 6.63877 40.2041 6.85067 40.3877 7.06723Z" fill="#FFFFFD"/>
<path d="M48.7305 10.5875L48.6876 10.5215L48.5556 10.6072L48.5985 10.6732C48.7547 10.9141 48.8981 11.163 49.0281 11.419L49.064 11.4891L49.2047 11.4178L49.1688 11.3472C49.0363 11.0864 48.8899 10.8328 48.7305 10.5875Z" fill="#FFFFFD"/>
<path d="M47.6135 9.23802L47.5556 9.18359L47.4468 9.2994L47.5047 9.35383C47.7119 9.55171 47.9071 9.76171 48.0895 9.98268L48.1399 10.0435L48.2615 9.9433L48.2111 9.88251C48.0249 9.65604 47.8253 9.44081 47.6135 9.23802Z" fill="#FFFFFD"/>
<path d="M46.2192 8.17549L46.152 8.13379L46.0698 8.26871L46.137 8.30982C46.3813 8.45921 46.6205 8.62252 46.8486 8.79507L46.9117 8.84255L47.0067 8.7169L46.9441 8.6694C46.7114 8.49395 46.4682 8.32778 46.2192 8.17549Z" fill="#FFFFFD"/>
<path d="M50.0258 13.826L50.009 13.749L49.855 13.782L49.8712 13.859C49.9291 14.1341 49.9801 14.4201 50.0206 14.7102L50.0316 14.7884L50.1879 14.7664L50.1769 14.6882C50.1358 14.3947 50.0849 14.1046 50.0258 13.826Z" fill="#FFFFFD"/>
<path d="M44.6419 7.41199L44.5678 7.38477L44.5139 7.533L44.588 7.56023C44.858 7.65869 45.1228 7.77077 45.3813 7.89606L45.452 7.93081L45.5209 7.78893L45.4497 7.75421C45.1864 7.62659 44.9167 7.51236 44.6419 7.41199Z" fill="#FFFFFD"/>
<path d="M49.5278 12.1478L49.4989 12.0742L49.3518 12.1321L49.3807 12.2051C49.4832 12.4668 49.5776 12.7418 49.6598 13.0215L49.6824 13.0974L49.8336 13.0528L49.811 12.9769C49.7276 12.6926 49.632 12.4135 49.5278 12.1478Z" fill="#FFFFFD"/>
<path d="M41.9766 10.1702L42.13 10.1343L42.1121 10.0579C42.0452 9.77207 41.9589 9.49117 41.8538 9.21709L41.826 9.14355L41.6784 9.20146L41.7067 9.275C41.8092 9.54249 41.8933 9.81661 41.9586 10.0955L41.9766 10.1702Z" fill="#FFFFFD"/>
<path d="M42.9401 6.99753L42.8619 6.98828L42.8434 7.1452L42.9216 7.15444C43.2062 7.18884 43.4886 7.24047 43.767 7.30904L43.8434 7.32815L43.881 7.17472L43.8046 7.1562C43.5199 7.0859 43.2312 7.0329 42.9401 6.99753Z" fill="#FFFFFD"/>
<path d="M42.0594 6.95312C41.7649 6.95892 41.4714 6.98974 41.1821 7.04521L41.1045 7.06025L41.1347 7.21485L41.2122 7.19981C41.4925 7.1461 41.7769 7.11644 42.0623 7.1112H42.1416L42.1381 6.95372L42.0594 6.95312Z" fill="#FFFFFD"/>
<path d="M41.3518 8.49037L41.3883 8.55984L41.5278 8.4863L41.4908 8.41684C41.3542 8.15767 41.2032 7.90636 41.0385 7.66409L40.9945 7.59863L40.8637 7.68724L40.9083 7.7521C41.0695 7.98989 41.2176 8.23635 41.3518 8.49037Z" fill="#FFFFFD"/>
<path d="M41.7901 12.582C41.6604 12.8243 41.4512 13.0147 41.1978 13.1211L41.1248 13.15L41.1827 13.2965L41.2557 13.2676C41.5425 13.1485 41.7795 12.9342 41.9268 12.6607L41.9662 12.593L41.8301 12.5137L41.7901 12.582Z" fill="#FFFFFD"/>
<path d="M42.2453 10.9293L42.24 10.8506L42.0831 10.861L42.0883 10.9398C42.1087 11.2232 42.0978 11.5081 42.0559 11.7892L42.0432 11.8674L42.1989 11.8917L42.2117 11.8141C42.2554 11.5213 42.2667 11.2246 42.2453 10.9293Z" fill="#FFFFFD"/>
<path d="M27.485 2.74098L25.4763 3.25227L27.2979 3.76413C27.346 3.77745 30.5562 3.50995 30.5562 3.50995L31.3309 4.11331L30.8961 2.57422L27.485 2.74098Z" fill="#8E8B9E"/>
<path d="M30.8973 2.57636L31.335 0.805664L25.4763 3.25268L30.8973 2.57636Z" fill="#CCCCCC"/>
<path d="M25.4763 3.25293L30.1017 5.39364L30.5562 3.5106L25.4763 3.25293Z" fill="#CCCCCC"/>
<path d="M45.43 3.07823C45.8151 2.69436 46.2722 2.39023 46.7751 2.18326C47.2779 1.9763 47.8167 1.87056 48.3605 1.87209V2.16161C47.3412 2.16427 46.364 2.56793 45.64 3.28533C44.916 4.00273 44.5034 4.97625 44.4913 5.99542V6.14018L33.8237 6.15813V16.0881H33.5342V5.86918L44.2065 5.85066C44.2485 4.80493 44.6858 3.81411 45.43 3.07823Z" fill="black"/>
<path d="M36.6749 14.9704L37.335 15.3897C37.3472 15.3956 37.3611 15.397 37.3743 15.3937C37.3875 15.3904 37.3991 15.3826 37.4071 15.3717C37.4151 15.3607 37.4189 15.3473 37.4181 15.3338C37.4172 15.3202 37.4115 15.3074 37.4022 15.2976L36.5186 14.5547C36.4949 14.5368 36.4758 14.5135 36.4628 14.4869C36.4497 14.4602 36.4431 14.4309 36.4435 14.4012C36.4438 14.3716 36.4511 14.3424 36.4647 14.316C36.4784 14.2897 36.498 14.2669 36.522 14.2495C36.5758 14.2093 36.6414 14.1878 36.7086 14.1886C36.7758 14.1893 36.8409 14.2121 36.8938 14.2536L37.7953 15.0115C37.8056 15.0198 37.8184 15.0243 37.8315 15.0243C37.8447 15.0243 37.8575 15.0198 37.8677 15.0115L37.8828 14.9994C37.8945 14.9898 37.9021 14.9761 37.9038 14.961C37.9056 14.946 37.9013 14.9309 37.892 14.9189L37.075 13.8998C37.0364 13.8527 37.0169 13.7928 37.0206 13.732C37.0242 13.6713 37.0507 13.6141 37.0947 13.572C37.1185 13.5503 37.1465 13.5336 37.177 13.5231C37.2075 13.5125 37.2399 13.5084 37.272 13.5108C37.3042 13.5133 37.3355 13.5223 37.3641 13.5373C37.3926 13.5523 37.4178 13.573 37.4381 13.5981L38.2603 14.6242C38.2699 14.6358 38.2837 14.6433 38.2988 14.6449C38.3138 14.6465 38.3289 14.6422 38.3408 14.6329L38.3889 14.5946C38.3996 14.5858 38.4068 14.5734 38.4091 14.5597C38.4115 14.546 38.4088 14.5318 38.4016 14.5199L37.7687 13.4777C37.7363 13.426 37.7247 13.3641 37.7362 13.3042C37.7477 13.2444 37.7815 13.1911 37.8307 13.1552C37.8571 13.1366 37.887 13.1236 37.9187 13.1171C37.9503 13.1106 37.9829 13.1107 38.0145 13.1173C38.0461 13.124 38.076 13.137 38.1023 13.1556C38.1287 13.1743 38.1509 13.1982 38.1677 13.2258C38.1677 13.2258 39.2186 14.766 39.4028 14.9936L39.6025 14.341C39.6095 14.2789 39.6409 14.222 39.6897 14.1829C39.7386 14.1438 39.8009 14.1257 39.8631 14.1326C39.9253 14.1396 39.9821 14.1709 40.0212 14.2198C40.0603 14.2686 40.0784 14.331 40.0715 14.3931L40.082 15.912C40.0727 15.9965 39.9401 16.103 39.8133 16.1638C38.7959 17.1146 38.6315 17.2524 38.3338 17.484L37.4427 16.2918C37.1856 15.9479 36.8682 15.6536 36.5058 15.4232L36.4149 15.3653C36.3877 15.348 36.3643 15.3253 36.3462 15.2986C36.3281 15.2719 36.3157 15.2418 36.3097 15.2101C36.3038 15.1784 36.3044 15.1458 36.3115 15.1143C36.3186 15.0829 36.3322 15.0532 36.3512 15.0272C36.388 14.9786 36.4419 14.9458 36.5019 14.9353C36.562 14.9247 36.6238 14.9373 36.6749 14.9704Z" fill="#FE9F73"/>
<path d="M51.5139 31.428L54.522 32.5073C54.522 32.5073 54.5145 32.6914 54.4994 33.0319C54.4809 33.4598 54.4508 34.1321 54.408 35.0006C54.4039 35.0846 54.3993 35.1709 54.3946 35.2583H48.1063V35.0006L48.0825 32.7349V32.6104L48.0733 31.7418L48.3292 30.2832L51.5139 31.428Z" fill="#F9B870"/>
<path d="M59.0854 32.6695C59.0854 32.7697 59.0918 33.2485 59.0959 34.0227C59.0959 34.3122 59.0959 34.6359 59.0999 34.9984C59.0999 35.0823 59.0999 35.168 59.0999 35.2561H52.2673L52.2528 35.0881L52.2348 34.9984L51.8434 33.0557L51.8272 32.9764L51.8185 32.9318L51.5157 31.4263L51.075 29.2393L59.0866 32.6481C59.0866 32.6481 59.0849 32.6568 59.0854 32.6695Z" fill="#FEC786"/>
<path d="M59.0953 34.0234C59.1035 34.0234 59.1113 34.0266 59.1172 34.0324C59.123 34.0381 59.1264 34.0459 59.1265 34.0541C59.1381 34.3436 59.1462 34.6615 59.1526 34.9991C59.1526 35.0837 59.1555 35.1693 59.1567 35.2568H59.0953C59.0953 35.1693 59.0953 35.0831 59.0912 34.9991C59.0848 34.6621 59.0767 34.3471 59.0652 34.0564C59.0649 34.0523 59.0655 34.0481 59.0669 34.0442C59.0683 34.0403 59.0705 34.0367 59.0733 34.0336C59.0761 34.0305 59.0795 34.028 59.0833 34.0263C59.087 34.0245 59.0911 34.0236 59.0953 34.0234Z" fill="#21111D"/>
<path d="M40.5863 15.3486L40.8087 15.6277C39.6541 16.1413 38.2117 17.9439 38.2117 17.9439L37.899 17.5223C38.6129 15.9034 40.5863 15.3486 40.5863 15.3486Z" fill="#FFC75A"/>
<path d="M40.9256 15.6068L44.4983 19.5234L48.6842 15.7266C49.2424 15.3879 53.5325 15.3143 53.5325 15.3143C53.5325 15.3143 58.4161 15.2032 58.9754 15.5419C59.5348 15.8806 61.5863 21.462 61.9054 23.9959C62.2244 26.5297 61.9054 28.1649 59.9719 28.4655L59.2684 28.4805L59.2146 32.6461C59.2146 32.6461 55.3176 33.5234 47.8533 32.6461L47.8168 32.5992L48.0061 21.9826C48.0061 21.9826 44.5145 24.3248 43.4682 24.3694C42.4219 24.4139 38.0953 17.9924 38.0953 17.9924C39.0061 15.8968 40.9256 15.6068 40.9256 15.6068Z" fill="#F7C4EB"/>
<path d="M48.9042 26.0225C48.3414 25.5262 48.9314 25.4434 48.9314 25.4434C48.6564 25.1458 48.7207 25.0074 48.8214 24.9431C48.8584 24.9208 48.9001 24.9074 48.9432 24.9039C48.9863 24.9004 49.0297 24.9069 49.0698 24.9229C49.3286 25.0236 50.1179 25.3334 50.6002 25.5563C50.943 25.532 50.8318 24.9541 50.6801 24.6577C50.6014 24.5054 50.5956 24.2523 50.9696 24.5071C51.2736 24.7144 51.7305 25.3971 51.7305 25.3971L53.6413 25.2136L53.357 27.8464C53.357 27.8464 51.1758 27.8163 50.8469 27.8134C50.518 27.8105 49.4178 27.4365 49.0854 27.1475C48.4827 26.6223 48.8619 26.5957 48.8619 26.5957C48.2829 25.9906 48.9042 26.0225 48.9042 26.0225Z" fill="#FE9F73"/>
<path d="M48.9523 25.4092C48.9563 25.4121 49.3576 25.6843 49.6378 25.8006C49.6474 25.8047 49.6551 25.8124 49.6591 25.822C49.6631 25.8317 49.6631 25.8425 49.6593 25.8522C49.6563 25.86 49.6508 25.8666 49.6437 25.871C49.6366 25.8754 49.6282 25.8773 49.6199 25.8765C49.6157 25.8764 49.6116 25.8754 49.6077 25.8736C49.3636 25.7605 49.1294 25.6271 48.9077 25.4747C48.899 25.4687 48.893 25.4596 48.8911 25.4493C48.8891 25.439 48.8913 25.4283 48.8972 25.4196C48.9032 25.411 48.9123 25.405 48.9226 25.403C48.9329 25.4011 48.9436 25.4033 48.9523 25.4092Z" fill="#F07162"/>
<path d="M48.9256 25.99C49.1318 26.1255 49.357 26.2295 49.5938 26.2987C49.5989 26.3 49.6036 26.3023 49.6077 26.3055C49.6119 26.3087 49.6153 26.3127 49.6179 26.3172C49.6205 26.3217 49.6221 26.3267 49.6228 26.3319C49.6234 26.337 49.623 26.3423 49.6216 26.3473C49.6193 26.3562 49.6139 26.3641 49.6064 26.3694C49.5989 26.3747 49.5897 26.3771 49.5805 26.3763H49.5736C49.3269 26.3057 49.0926 26.1977 48.8787 26.0561C48.8702 26.05 48.8644 26.0408 48.8626 26.0306C48.8607 26.0203 48.863 26.0097 48.8689 26.001C48.8717 25.9964 48.8755 25.9925 48.88 25.9894C48.8845 25.9863 48.8895 25.9842 48.8948 25.9831C48.9002 25.9821 48.9057 25.9822 48.911 25.9834C48.9163 25.9846 48.9213 25.9868 48.9256 25.99Z" fill="#F07162"/>
<path d="M48.8822 26.5628C49.0586 26.6915 49.2539 26.7919 49.4612 26.8604C49.4702 26.8636 49.4777 26.8699 49.4825 26.8781C49.4872 26.8864 49.4889 26.896 49.4871 26.9054C49.4854 26.9147 49.4804 26.9232 49.473 26.9291C49.4656 26.9351 49.4563 26.9383 49.4468 26.938H49.4381C49.221 26.8673 49.0166 26.7625 48.8324 26.6276C48.8279 26.6244 48.8242 26.6204 48.8214 26.6157C48.8186 26.611 48.8168 26.6057 48.816 26.6003C48.8153 26.5949 48.8158 26.5894 48.8173 26.5841C48.8188 26.5789 48.8214 26.5739 48.8249 26.5697C48.8281 26.5654 48.8322 26.5618 48.8368 26.5591C48.8415 26.5564 48.8467 26.5547 48.852 26.554C48.8574 26.5534 48.8628 26.5538 48.868 26.5553C48.8732 26.5568 48.878 26.5593 48.8822 26.5628Z" fill="#F07162"/>
<path d="M57.4983 23.966L58.2759 24.6238L58.1966 24.7176L57.3796 24.0274L57.0785 20.3702L57.2012 20.3604L57.4983 23.966Z" fill="#21111D"/>
<path d="M61.8428 23.999L61.965 23.9834C62.1422 25.3876 62.1022 26.3731 61.8399 27.0847C61.5371 27.9052 60.9291 28.3754 59.9801 28.5219L59.2684 28.5375V28.4142L59.9638 28.3997C61.6593 28.1374 62.2036 26.8618 61.8428 23.999Z" fill="#21111D"/>
<path d="M52.4317 24.584C52.1179 25.9528 52.6743 28.4172 52.6743 28.4172H52.1972C51.639 27.2117 52.0478 24.584 52.0478 24.584H52.4317Z" fill="#FFC75A"/>
<path d="M54.4387 24.1895L54.7658 26.0812C54.7658 26.0812 55.1862 27.8009 54.9939 28.1993C54.6876 28.8333 52.7357 28.6776 52.7357 28.6776C52.7357 28.6776 52.6407 28.2647 52.595 28.0239C52.1283 25.538 52.5168 24.3122 52.5168 24.3122L54.4387 24.1895Z" fill="#F7C4EB"/>
<path d="M52.4728 24.2535L57.4352 23.9355L57.4433 24.0583L52.5597 24.371C52.0964 25.6495 52.6905 28.2309 52.7832 28.6142L59.2684 28.4161L59.2719 28.5395L52.6905 28.7404L52.6784 28.6923C52.6477 28.5702 51.9227 25.6877 52.4612 24.2917L52.4728 24.2535Z" fill="#21111D"/>
<path d="M48.5278 15.7846C48.8602 15.483 49.4647 15.4795 49.4908 15.4795V15.6028C49.485 15.6028 48.9077 15.6063 48.6106 15.8761L44.5574 19.553L44.4549 20.571L44.3327 20.5582L44.4392 19.4934L48.5278 15.7846Z" fill="#21111D"/>
<path d="M40.9135 15.5452L40.9465 15.54L44.544 19.4827L44.4531 19.5655L40.9036 15.6744C40.6535 15.7276 39.0119 16.1428 38.1497 18.016L38.038 17.9645C38.9957 15.8817 40.8967 15.5493 40.9135 15.5452Z" fill="#21111D"/>
<path d="M55.5846 15.2975C55.5846 15.3039 55.5846 15.3103 55.5846 15.3172C55.5876 15.8917 55.3643 16.4442 54.9629 16.8553C54.5616 17.2663 54.0145 17.5028 53.4401 17.5135C52.8658 17.5243 52.3102 17.3084 51.8938 16.9127C51.4774 16.5169 51.2336 15.9731 51.2151 15.3989C52.3946 15.334 53.5313 15.3143 53.5313 15.3143C53.5313 15.3143 54.478 15.2929 55.5846 15.2975Z" fill="#8E8B9E"/>
<path d="M48.0669 20.9588L47.9146 32.5888C48.3367 32.6397 51.086 32.9634 52.6251 32.9472V33.0699H52.5168C50.8266 33.0699 47.8735 32.7074 47.8434 32.704L47.7884 32.697L47.9424 20.957L48.0669 20.9588Z" fill="#21111D"/>
<path d="M55.8527 15.8975L55.9714 15.931C55.7739 16.632 55.3213 17.2336 54.7027 17.6178L54.6367 17.5141C55.2297 17.1461 55.6635 16.5693 55.8527 15.8975Z" fill="#21111D"/>
<path d="M53.4137 10.4697C54.2701 10.3319 55.1138 10.875 55.1138 10.875C55.1138 10.875 55.3547 11.4158 55.3767 11.4778C55.3987 11.5397 55.0368 11.2855 55.0368 11.2855L52.3611 11.9196L52.4444 11.4355C52.4858 11.1938 52.6013 10.971 52.775 10.7979C52.9487 10.6249 53.1719 10.5101 53.4137 10.4697Z" fill="#FE9F73"/>
<path d="M52.1016 13.4231L52.4543 11.382L55.2036 11.0479L54.8561 13.5504L54.7235 14.1874C54.7235 14.1874 54.6801 15.5256 54.5718 15.7884C54.4635 16.0513 53.9743 16.5302 53.2452 16.4045C53.0408 16.3692 52.843 16.3028 52.6587 16.2077C52.4997 16.1241 52.3749 15.9876 52.3058 15.8219C52.2367 15.6561 52.2275 15.4715 52.28 15.2997L52.5695 14.3472C51.9453 14.1474 52.1016 13.4231 52.1016 13.4231Z" fill="#FE9F73"/>
<path d="M54.0872 12.3895C54.09 12.3924 54.0923 12.3958 54.0938 12.3995C54.0954 12.4032 54.0962 12.4072 54.0962 12.4112C54.0962 12.4153 54.0954 12.4193 54.0938 12.423C54.0923 12.4267 54.09 12.4301 54.0872 12.433C54.0844 12.4358 54.081 12.4379 54.0773 12.4393C54.0736 12.4407 54.0697 12.4413 54.0657 12.4411C54.0616 12.441 54.0575 12.4401 54.0537 12.4384C54.0499 12.4367 54.0465 12.4343 54.0437 12.4312C54.0281 12.415 53.661 12.0259 53.313 12.298C53.3065 12.303 53.2983 12.3053 53.2902 12.3043C53.2821 12.3033 53.2747 12.2992 53.2696 12.2928C53.2671 12.2896 53.2652 12.2859 53.2642 12.282C53.2631 12.278 53.2628 12.2739 53.2633 12.2699C53.2639 12.2659 53.2652 12.262 53.2673 12.2585C53.2694 12.2549 53.2721 12.2519 53.2754 12.2494C53.6662 11.9437 54.0831 12.3849 54.0872 12.3895Z" fill="#4C222E"/>
<path d="M52.2945 11.8096C52.5087 11.6938 52.7467 11.996 52.7577 12.0094C52.7626 12.0158 52.7647 12.024 52.7636 12.032C52.7625 12.04 52.7583 12.0473 52.7519 12.0522C52.7484 12.0549 52.7444 12.0569 52.7401 12.0579C52.7358 12.0589 52.7313 12.0589 52.727 12.058C52.7198 12.0565 52.7132 12.0527 52.7085 12.047C52.7085 12.0441 52.4937 11.7702 52.3257 11.8634C52.3222 11.8654 52.3183 11.8667 52.3143 11.8671C52.3103 11.8676 52.3062 11.8673 52.3023 11.8662C52.2984 11.8651 52.2948 11.8632 52.2916 11.8607C52.2884 11.8582 52.2857 11.8551 52.2838 11.8516C52.2818 11.848 52.2805 11.8441 52.28 11.8401C52.2796 11.8361 52.2799 11.832 52.281 11.8281C52.2821 11.8242 52.284 11.8206 52.2865 11.8174C52.289 11.8142 52.2921 11.8116 52.2956 11.8096H52.2945Z" fill="#4C222E"/>
<path d="M53.5203 12.5922C53.5322 12.5943 53.5437 12.5986 53.5539 12.6051C53.5642 12.6116 53.5731 12.62 53.5801 12.6299C53.5871 12.6398 53.592 12.6509 53.5947 12.6628C53.5973 12.6746 53.5976 12.6868 53.5956 12.6988C53.5925 12.7169 53.5842 12.7337 53.5716 12.747C53.559 12.7604 53.5427 12.7697 53.5248 12.7738C53.5069 12.7779 53.4882 12.7765 53.4711 12.77C53.4539 12.7634 53.4391 12.7519 53.4285 12.7369C53.4179 12.7219 53.412 12.7041 53.4116 12.6858C53.4111 12.6674 53.4161 12.6493 53.426 12.6338C53.4358 12.6183 53.45 12.6061 53.4668 12.5987C53.4836 12.5913 53.5022 12.589 53.5203 12.5922Z" fill="black"/>
<path d="M52.5666 12.3307C52.5791 12.3322 52.5911 12.3362 52.602 12.3425C52.6129 12.3488 52.6223 12.3573 52.6299 12.3673C52.6374 12.3774 52.6427 12.3889 52.6457 12.4011C52.6486 12.4133 52.649 12.426 52.6469 12.4384C52.6448 12.4508 52.6402 12.4626 52.6333 12.4731C52.6265 12.4836 52.6176 12.4927 52.6072 12.4997C52.5967 12.5067 52.585 12.5115 52.5726 12.5138C52.5603 12.5161 52.5476 12.5159 52.5354 12.5131C52.5122 12.5079 52.4919 12.494 52.4786 12.4743C52.4654 12.4545 52.4603 12.4305 52.4643 12.4071C52.4683 12.3836 52.4811 12.3626 52.5002 12.3484C52.5192 12.3342 52.543 12.3279 52.5666 12.3307Z" fill="black"/>
<path d="M55.1578 11.0511L55.1173 10.8438C55.1173 10.8438 55.8955 10.9399 55.9748 11.6492C56.0542 12.3585 55.6587 12.6579 55.617 12.8576C55.5753 13.0574 55.478 14.439 54.5423 14.1732L54.672 11.8866L55.1578 11.0511Z" fill="#FFC75A"/>
<path d="M54.8133 12.3105C54.9216 12.3287 55.0221 12.3787 55.102 12.454C55.1819 12.5294 55.2377 12.6267 55.2622 12.7338C55.2868 12.8408 55.2791 12.9528 55.24 13.0554C55.201 13.1581 55.1324 13.2469 55.0429 13.3105C54.9534 13.3742 54.847 13.4099 54.7372 13.4131C54.6274 13.4163 54.5192 13.3869 54.4261 13.3285C54.333 13.2702 54.2594 13.1856 54.2144 13.0854C54.1694 12.9852 54.1552 12.8739 54.1735 12.7656C54.198 12.6204 54.2791 12.4909 54.3991 12.4055C54.5191 12.3202 54.6681 12.286 54.8133 12.3105Z" fill="#FE9F73"/>
<path d="M54.7374 12.6168C54.8278 12.592 54.9241 12.6022 55.0073 12.6451C55.0102 12.6474 55.0122 12.6506 55.013 12.6542C55.0138 12.6578 55.0132 12.6616 55.0115 12.6648C55.0098 12.6681 55.007 12.6706 55.0035 12.672C55.0001 12.6734 54.9963 12.6735 54.9928 12.6723C54.9169 12.6339 54.8295 12.6246 54.7473 12.6463C54.6899 12.667 54.6423 12.7083 54.6135 12.7621C54.6602 12.739 54.7128 12.7304 54.7644 12.7375C54.816 12.7447 54.8643 12.7671 54.903 12.802C54.9388 12.835 54.9624 12.879 54.9702 12.9269C54.9779 12.9749 54.9694 13.0241 54.9459 13.0667C54.9252 13.1123 54.8903 13.1501 54.8463 13.1742C54.8023 13.1983 54.7517 13.2075 54.7021 13.2004H54.6986C54.6947 13.1995 54.6913 13.1971 54.6892 13.1937C54.687 13.1903 54.6862 13.1862 54.6869 13.1823C54.6877 13.1784 54.6899 13.1749 54.6932 13.1725C54.6964 13.1702 54.7004 13.1692 54.7044 13.1697H54.7073C54.7503 13.1764 54.7943 13.1687 54.8324 13.1478C54.8706 13.1268 54.9007 13.0938 54.9181 13.0539C54.9384 13.0173 54.9459 12.975 54.9394 12.9337C54.9329 12.8923 54.9128 12.8544 54.8822 12.8258C54.8414 12.7912 54.7903 12.771 54.7368 12.7686C54.6834 12.7662 54.6306 12.7816 54.5869 12.8125L54.5417 12.8443L54.5637 12.7939C54.5784 12.7537 54.6015 12.7171 54.6314 12.6866C54.6614 12.656 54.6975 12.6322 54.7374 12.6168Z" fill="#F07162"/>
<path d="M54.1543 13.9844C54.1543 13.9844 53.9013 15.1975 52.3564 15.051L52.5678 14.3486C52.5678 14.3486 53.5226 14.718 54.1543 13.9844Z" fill="#F07162"/>
<path d="M52.9181 12.3225C52.9201 12.323 52.9219 12.3239 52.9235 12.3252C52.925 12.3265 52.9263 12.328 52.9273 12.3298C52.9282 12.3316 52.9287 12.3336 52.9288 12.3356C52.929 12.3377 52.9287 12.3397 52.9279 12.3416L52.7079 13.0422L52.9974 13.1951C53.001 13.1971 53.0037 13.2003 53.0048 13.2042C53.006 13.2081 53.0057 13.2123 53.0038 13.2159C53.0023 13.2189 53 13.2213 52.997 13.2227C52.9941 13.2242 52.9908 13.2246 52.9876 13.2241H52.983L52.6732 13.059L52.9013 12.3341C52.902 12.3303 52.9042 12.327 52.9073 12.3248C52.9105 12.3226 52.9143 12.3218 52.9181 12.3225Z" fill="#F07162"/>
<path d="M54.7884 13.315L54.7166 14.3625L54.3501 14.3295L54.5284 13.2988L54.7884 13.315Z" fill="#FE9F73"/>
<path d="M52.8197 10.3217C52.8197 10.3217 52.8509 9.53016 53.5145 9.88048C54.1781 10.2308 55.4832 10.4254 55.7351 11.1387C55.987 11.8521 54.6703 11.9181 54.6703 11.9181C54.6703 11.9181 52.3703 11.3796 52.3211 10.8104C52.2719 10.2412 52.8197 10.3217 52.8197 10.3217Z" fill="#FFC75A"/>
<path d="M54.2765 11.727C54.0183 11.5295 54.8556 11.515 54.877 11.5313C54.8984 11.5475 55.3263 11.8682 55.2661 11.8468C55.2059 11.8254 54.7386 11.7814 54.7386 11.7814L54.6517 12.2828C54.4973 12.4636 54.4105 12.6925 54.4062 12.9302C54.4062 12.9302 54.2551 12.958 54.2505 12.8364C54.2458 12.7148 54.5353 11.9244 54.2765 11.727Z" fill="#FFC75A"/>
<path d="M52.7015 13.7054C52.4983 13.651 52.4838 13.4072 52.4838 13.4072L53.0385 13.5549C53.0385 13.5549 52.9048 13.7593 52.7015 13.7054Z" fill="#FBFDFC"/>
<path d="M46.7751 12.0446C46.7751 12.0446 47.053 11.1858 47.8973 11.3358C48.7415 11.4858 48.4433 12.7354 48.4433 12.7354C48.4433 12.7354 48.7154 12.6775 48.9065 12.8066C48.9466 12.8341 48.9766 12.8739 48.9918 12.9201C49.0071 12.9662 49.0068 13.0161 48.9911 13.0621C48.9753 13.108 48.9449 13.1476 48.9046 13.1746C48.8642 13.2017 48.8161 13.2148 48.7675 13.2119C48.1306 13.1748 46.6297 13.1111 45.3269 13.2212C45.1994 13.2321 45.071 13.2162 44.95 13.1744C44.8291 13.1326 44.7183 13.0659 44.6247 12.9786C44.5312 12.8912 44.457 12.7852 44.407 12.6674C44.357 12.5496 44.3323 12.4226 44.3344 12.2947C44.3397 12.0735 44.419 11.8158 44.624 11.524C45.4138 10.4012 46.7884 11.4742 46.7751 12.0446Z" fill="white"/>
<path d="M6.87641 7.73446C6.87641 7.73446 7.08197 7.09751 7.70733 7.20985C8.33269 7.32218 8.11266 8.24635 8.11266 8.24635C8.11266 8.24635 8.31474 8.20348 8.45429 8.29902C8.48388 8.31948 8.50598 8.34905 8.51722 8.38322C8.52846 8.41739 8.52822 8.45429 8.51656 8.48831C8.50488 8.52234 8.48242 8.55164 8.45257 8.57172C8.42273 8.5918 8.38714 8.60155 8.35122 8.59954C7.87814 8.57232 6.76813 8.52486 5.80345 8.60593C5.70904 8.61423 5.61393 8.60257 5.52432 8.57172C5.43471 8.54087 5.35258 8.4915 5.28328 8.42685C5.21399 8.36219 5.15907 8.28368 5.12209 8.19642C5.08511 8.10915 5.0669 8.01509 5.06865 7.92033C5.07212 7.75646 5.13119 7.56598 5.28289 7.35C5.86772 6.51792 6.88625 7.31234 6.87641 7.73446Z" fill="white"/>
<path d="M22.4103 7.02834C22.4103 7.02834 22.6158 7.66528 23.2412 7.55295C23.8666 7.44062 23.6465 6.51648 23.6465 6.51648C23.6465 6.51648 23.8486 6.55932 23.9882 6.46377C24.0179 6.44346 24.0402 6.41394 24.0515 6.37975C24.0629 6.34555 24.0627 6.30858 24.051 6.27451C24.0393 6.24044 24.0167 6.21116 23.9867 6.19116C23.9568 6.17117 23.9211 6.16158 23.8851 6.16385C23.412 6.19049 22.302 6.23796 21.3373 6.1569C21.2429 6.1486 21.1478 6.16023 21.0582 6.19108C20.9686 6.22193 20.8865 6.2713 20.8172 6.33595C20.7479 6.40061 20.6929 6.47911 20.656 6.56638C20.619 6.65364 20.6008 6.74771 20.6025 6.84247C20.606 7.00634 20.6651 7.19685 20.8168 7.41283C21.3999 8.24491 22.4201 7.45046 22.4103 7.02834Z" fill="white"/>
<path d="M57.7531 8.08171C58.262 7.23226 58.9691 7.9022 58.9691 7.9022C58.9691 7.9022 58.9876 6.14194 60.5406 6.27801C61.8938 6.39671 61.7942 8.18884 61.7942 8.18884C62.0837 8.2091 62.2574 8.29653 62.3559 8.40366C62.3818 8.43144 62.4015 8.46439 62.4138 8.50035H56.4363C56.8816 7.57794 57.7531 8.08171 57.7531 8.08171Z" fill="white"/>
<path d="M20.0854 17.312C20.0854 17.312 19.9766 15.3432 21.4618 15.2153C23.1653 15.0659 23.1862 16.9981 23.1862 16.9981C23.1862 16.9981 23.9604 16.2628 24.518 17.195C24.518 17.195 25.4745 16.642 25.9656 17.6542H19.4051C19.4186 17.6146 19.4405 17.5785 19.4693 17.5482C19.5799 17.4301 19.7681 17.3345 20.0854 17.312Z" fill="white"/>
<path d="M18.1127 23.4556L24.3889 26.1562L23.716 28.6258C23.716 28.6258 15.6674 26.6102 15.0953 25.8198C14.5232 25.0294 13.5828 21.3716 13.5828 21.3716L16.994 19.8916L18.1127 23.4556Z" fill="#FE9F73"/>
<path d="M4.8303 31.2107C4.87025 31.0912 4.91426 30.9718 4.96116 30.8415C4.9849 30.7764 5.0098 30.7095 5.03528 30.642C5.11808 30.4239 5.20899 30.1963 5.30222 29.9657C5.92295 28.444 6.71449 26.7951 6.71449 26.7951L7.70523 24.8498L7.73476 24.79L7.8054 24.7984C8.09492 24.8325 8.3966 24.8582 8.71044 24.8844C10.7539 25.038 13.2391 24.9896 14.6688 24.94C15.2264 24.9203 15.6236 24.9006 15.7689 24.8934L15.8332 24.8898L16.1349 25.4484L16.6618 26.6433L16.8083 26.9743L17.2061 28.0616L17.6937 29.6902L17.9403 30.7794L18.209 32.1081L18.4308 33.251L18.586 34.2158L18.7064 35.2912C18.7064 35.2912 18.7133 35.336 18.7243 35.4024H3.58073C3.89631 34.2672 4.23505 33.1046 4.5072 32.2204C4.63169 31.8153 4.74228 31.47 4.8303 31.2107Z" fill="#FEC786"/>
<path d="M4.04896 18.5886L5.16651 17.1989L6.17577 16.1427L7.33385 15.5834L7.88799 15.4792C7.91578 15.4686 7.94475 15.4614 7.97427 15.4578L8.06054 15.4467L8.76292 15.3153L8.85209 15.3732C9.62569 15.3153 10.3854 15.295 10.6286 15.2893C11.0148 15.251 12.9505 15.3472 12.9505 15.3472L13.24 15.3188C13.5643 15.3564 15.551 15.5394 15.9308 15.9262C16.0333 16.0304 16.5678 17.0594 17.1161 19.1914L17.3698 20.3767L17.1103 20.5626L16.7751 20.8521L16.1995 21.064L16.0617 21.2603L15.837 24.6865V24.8909C15.837 24.8909 10.8289 25.1607 7.73628 24.7942L6.7745 22.2232L6.51856 22.7832C4.23194 22.0686 2.61584 20.551 2.61584 20.551L2.9841 20.0299L4.04896 18.5886Z" fill="#6D6BE6"/>
<path d="M7.78434 15.9884C7.79305 15.9862 7.80227 15.9874 7.81012 15.9918C7.81796 15.9962 7.82386 16.0033 7.82659 16.0119C7.82932 16.0204 7.82868 16.0297 7.82481 16.0378C7.82094 16.0459 7.81413 16.0523 7.80576 16.0555C7.79997 16.0555 7.24352 16.242 6.90246 16.6965C6.89917 16.7009 6.89488 16.7045 6.88995 16.7069C6.88501 16.7093 6.87958 16.7105 6.87409 16.7104C6.86659 16.7104 6.8593 16.7079 6.85325 16.7035C6.84584 16.6978 6.84095 16.6895 6.83965 16.6803C6.83835 16.6711 6.84074 16.6617 6.8463 16.6543C7.20067 16.1823 7.7606 15.9959 7.78434 15.9884Z" fill="#21111D"/>
<path d="M7.85035 16.3143C7.85476 16.3128 7.85941 16.3122 7.86404 16.3126C7.86867 16.313 7.87318 16.3142 7.87732 16.3163C7.88146 16.3184 7.88515 16.3213 7.88817 16.3248C7.8912 16.3284 7.89349 16.3324 7.89494 16.3369C7.89638 16.3413 7.89695 16.3459 7.89659 16.3505C7.89624 16.3552 7.89498 16.3597 7.89288 16.3638C7.89078 16.368 7.88789 16.3716 7.88437 16.3747C7.88085 16.3777 7.87677 16.38 7.87235 16.3814C7.86656 16.3814 7.31011 16.5679 6.96905 17.0224C6.96576 17.0268 6.96147 17.0304 6.95654 17.0328C6.9516 17.0352 6.94617 17.0364 6.94068 17.0363C6.93318 17.0362 6.92589 17.0338 6.91984 17.0294C6.91611 17.0266 6.91295 17.0232 6.91058 17.0192C6.9082 17.0152 6.90665 17.0108 6.906 17.0062C6.90535 17.0016 6.90563 16.997 6.90681 16.9925C6.90799 16.988 6.91006 16.9838 6.91289 16.9802C7.26726 16.5071 7.82661 16.3218 7.85035 16.3143Z" fill="#21111D"/>
<path d="M6.28694 15.9897C7.38712 15.2369 9.18214 15.2213 9.25626 15.2207C9.27305 15.2207 9.28916 15.2273 9.30109 15.2392C9.31302 15.251 9.3198 15.267 9.31995 15.2838C9.32008 15.2935 9.31795 15.303 9.31373 15.3116C9.3095 15.3203 9.3033 15.3278 9.29563 15.3336C9.2921 15.337 9.28798 15.3398 9.28347 15.3417C9.27523 15.346 9.26609 15.3481 9.25683 15.3481C9.25336 15.3481 9.19893 15.3481 9.10107 15.3533H9.09412L8.94647 15.3626H8.94183L8.84861 15.3695C8.75944 15.3771 8.65869 15.3869 8.54867 15.4002L8.52203 15.4031C7.89435 15.4795 6.99511 15.6614 6.35758 16.0951C5.34427 16.7847 2.97774 20.1379 2.68069 20.5618C2.9123 20.7853 4.21746 21.974 6.47629 22.7042L6.76581 22.0319L6.81503 22.1645L7.77681 24.7332L7.80171 24.7998L7.78492 24.8264C7.78492 24.8264 7.77623 24.8391 7.76407 24.8588C7.60368 25.1176 6.53593 26.882 5.33211 29.8849C5.28057 30.0128 5.22962 30.1437 5.1775 30.2763C5.14913 30.3498 5.1196 30.4228 5.09239 30.4975C4.9098 30.9719 4.72663 31.4738 4.54288 32.003C4.2163 32.9445 3.89204 33.9717 3.58515 35.0748H3.45313C3.76292 33.9561 4.09007 32.9179 4.4207 31.9654C4.56392 31.5542 4.70675 31.1593 4.84919 30.7807C4.87004 30.7227 4.89146 30.6648 4.91289 30.611C5.02869 30.3022 5.1445 30.0061 5.26031 29.7227C6.4566 26.7552 7.51161 25.0209 7.65811 24.7858L6.75596 22.3742L6.57125 22.8061L6.54751 22.8611L6.48961 22.8437H6.48671C5.9715 22.681 5.46842 22.4821 4.98121 22.2485C4.97542 22.2485 4.96963 22.2433 4.96384 22.2398C4.57195 22.0516 4.1918 21.8399 3.82545 21.6058C2.99048 21.0713 2.55157 20.6243 2.54635 20.6168L2.50987 20.5791L2.53941 20.5357C2.65579 20.3788 5.19314 16.7361 6.28694 15.9897Z" fill="black"/>
<path d="M7.52667 19.9326C7.53277 19.9169 7.5448 19.9042 7.56019 19.8973C7.57557 19.8903 7.59306 19.8897 7.60889 19.8956C7.61673 19.8986 7.62391 19.903 7.63001 19.9087C7.63612 19.9145 7.64103 19.9214 7.64448 19.929C7.64792 19.9367 7.64982 19.9449 7.65007 19.9533C7.65033 19.9617 7.64892 19.97 7.64595 19.9778L6.57646 22.8041C6.57192 22.8159 6.564 22.8261 6.5537 22.8334C6.54341 22.8407 6.53118 22.8448 6.51856 22.8452C6.51085 22.8453 6.50319 22.8439 6.49598 22.8412C6.48814 22.8382 6.48096 22.8337 6.47486 22.828C6.46875 22.8223 6.46383 22.8154 6.46039 22.8077C6.45694 22.8001 6.45504 22.7919 6.45479 22.7835C6.45454 22.7751 6.45594 22.7668 6.45892 22.7589L7.52667 19.9326Z" fill="black"/>
<path d="M7.74149 24.7291L8.65347 24.8258C8.66936 24.8279 8.68387 24.8359 8.6941 24.8483C8.70432 24.8606 8.70951 24.8764 8.70864 24.8924C8.70776 24.9084 8.70087 24.9235 8.68936 24.9346C8.67785 24.9458 8.66255 24.9522 8.64653 24.9526H8.64016L7.72817 24.8559C7.7112 24.8543 7.69557 24.846 7.68471 24.8328C7.67385 24.8197 7.66865 24.8028 7.67027 24.7858C7.67105 24.7773 7.67353 24.7691 7.67758 24.7616C7.68162 24.7542 7.68713 24.7475 7.69378 24.7422C7.70044 24.7369 7.70809 24.7331 7.71629 24.7308C7.72449 24.7285 7.73306 24.7279 7.74149 24.7291Z" fill="black"/>
<path d="M16.0449 21.186L16.0542 21.1722C16.0854 21.1252 16.1121 21.0783 16.1416 21.032C16.1423 21.03 16.1435 21.0282 16.1451 21.0268C16.3149 20.7437 16.4325 20.4325 16.4925 20.1079C16.7125 18.8577 15.8556 17.9706 15.8098 17.9243C15.8036 17.9184 15.7987 17.9114 15.7953 17.9036C15.7919 17.8958 15.7901 17.8874 15.79 17.8788C15.7899 17.8703 15.7915 17.8619 15.7948 17.854C15.798 17.8461 15.8028 17.839 15.8088 17.833C15.8149 17.827 15.822 17.8222 15.8299 17.8191C15.8378 17.8159 15.8463 17.8143 15.8548 17.8145C15.8633 17.8146 15.8717 17.8165 15.8795 17.8199C15.8873 17.8234 15.8943 17.8284 15.9001 17.8346C15.9117 17.8467 16.8023 18.7651 16.6251 20.05C16.579 20.3727 16.4757 20.6847 16.32 20.9712L16.2893 21.0291C16.2725 21.0598 16.2545 21.0911 16.236 21.1218C16.2175 21.1525 16.1914 21.1942 16.1677 21.2301L15.899 24.8745C15.965 24.9828 16.3147 25.5728 16.7571 26.6215C17.1178 27.4826 17.4296 28.3634 17.6911 29.2596C18.1144 30.6991 18.5597 32.6516 18.8197 35.0754H18.6923C18.4329 32.6701 17.9911 30.7327 17.5707 29.3018C17.2995 28.3703 16.9735 27.4555 16.5944 26.5624C16.1312 25.4883 15.7838 24.933 15.7797 24.9243L15.7687 24.9064V24.8936L16.0449 21.186Z" fill="black"/>
<path d="M11.5243 21.0986H15.0385C15.0554 21.0986 15.0716 21.1053 15.0836 21.1173C15.0955 21.1292 15.1022 21.1454 15.1022 21.1623C15.1022 21.1792 15.0955 21.1954 15.0836 21.2073C15.0716 21.2193 15.0554 21.226 15.0385 21.226H11.5243C11.5075 21.226 11.4913 21.2193 11.4793 21.2073C11.4674 21.1954 11.4607 21.1792 11.4607 21.1623C11.4607 21.1454 11.4674 21.1292 11.4793 21.1173C11.4913 21.1053 11.5075 21.0986 11.5243 21.0986Z" fill="black"/>
<path d="M12.2018 21.7129H14.5307C14.5476 21.7129 14.5638 21.7196 14.5758 21.7316C14.5877 21.7435 14.5944 21.7597 14.5944 21.7766C14.5944 21.7935 14.5877 21.8097 14.5758 21.8216C14.5638 21.8336 14.5476 21.8403 14.5307 21.8403H12.2018C12.1849 21.8403 12.1687 21.8336 12.1568 21.8216C12.1448 21.8097 12.1381 21.7935 12.1381 21.7766C12.1381 21.7597 12.1448 21.7435 12.1568 21.7316C12.1687 21.7196 12.1849 21.7129 12.2018 21.7129Z" fill="black"/>
<path d="M6.76697 29.9636C6.70328 30.0875 6.30374 30.5032 6.30374 30.5032L5.68648 30.0441C5.95124 29.9602 6.20769 29.852 6.45255 29.721C6.81561 29.5223 6.83066 29.8402 6.76697 29.9636Z" fill="#F07162"/>
<path d="M5.43923 30.0105C6.02638 30.0933 6.70906 30.1894 6.87698 30.212C7.18503 30.2537 8.17345 30.7366 8.45081 31.0481C8.95399 31.6127 8.59441 31.5924 8.59441 31.5924C9.06285 32.2294 8.48381 32.1246 8.48381 32.1246C8.95341 32.6579 8.38944 32.6654 8.38944 32.6654C8.61179 32.9775 8.53535 33.0997 8.43286 33.1477C8.3956 33.1645 8.3549 33.1723 8.31407 33.1705C8.27324 33.1687 8.23341 33.1573 8.19777 33.1373C8.06286 33.0644 7.76871 32.9057 7.46182 32.7291C7.46182 32.7291 6.46818 32.4037 4.65927 32.0342L3.95631 31.8188L5.42128 29.9746C5.42707 29.9879 5.43344 30.0007 5.43923 30.0105Z" fill="#FE9F73"/>
<path d="M7.79244 32.1743L7.80344 32.1783C8.01875 32.3142 8.22249 32.4676 8.41259 32.6369C8.42027 32.6435 8.42501 32.6529 8.42577 32.663C8.42653 32.6731 8.42325 32.6831 8.41665 32.6908C8.41004 32.6984 8.40066 32.7032 8.39056 32.7039C8.38046 32.7047 8.37047 32.7014 8.36279 32.6948C8.17642 32.5294 7.97697 32.3793 7.76639 32.2461C7.7621 32.2437 7.75834 32.2404 7.75531 32.2365C7.75229 32.2327 7.75006 32.2282 7.74877 32.2235C7.74747 32.2187 7.74714 32.2138 7.74778 32.2089C7.74842 32.204 7.75002 32.1993 7.75249 32.1951C7.75608 32.1878 7.76189 32.1819 7.76907 32.1782C7.77625 32.1744 7.78443 32.173 7.79244 32.1743Z" fill="#F07162"/>
<path d="M7.89088 31.7112H7.89726C8.11984 31.8068 8.32629 31.9363 8.5093 32.0951C8.51659 32.1018 8.52094 32.1111 8.52137 32.121C8.5218 32.1308 8.5183 32.1405 8.51162 32.1478C8.50494 32.1551 8.49563 32.1594 8.48575 32.1599C8.47586 32.1603 8.46622 32.1568 8.45892 32.1501C8.28207 31.9978 8.08312 31.8733 7.86888 31.7807C7.86066 31.7768 7.85412 31.7701 7.85046 31.7618C7.84679 31.7535 7.84624 31.7442 7.84892 31.7355C7.8516 31.7268 7.85732 31.7194 7.86503 31.7146C7.87274 31.7099 7.88192 31.708 7.89088 31.7095V31.7112Z" fill="#F07162"/>
<path d="M8.08196 31.1992H8.08949C8.28463 31.2918 8.464 31.4145 8.62105 31.5628C8.62785 31.57 8.63164 31.5796 8.63164 31.5895C8.63164 31.5994 8.62785 31.6089 8.62105 31.6161C8.61392 31.623 8.60436 31.6269 8.59441 31.6269C8.58446 31.6269 8.57491 31.623 8.56778 31.6161C8.41725 31.4745 8.24552 31.3573 8.0588 31.2687C8.05424 31.2668 8.0501 31.264 8.04665 31.2605C8.0432 31.2569 8.0405 31.2528 8.03871 31.2482C8.03693 31.2436 8.03609 31.2386 8.03626 31.2337C8.03643 31.2288 8.0376 31.2239 8.0397 31.2195C8.04341 31.2118 8.04961 31.2056 8.05729 31.2019C8.06497 31.1983 8.07367 31.1973 8.08196 31.1992Z" fill="#F07162"/>
<path d="M5.73976 22.5736C5.13582 23.5365 4.44444 24.7931 4.1584 25.2412C3.86135 25.7045 5.03043 29.3894 5.44386 30.0953L3.95631 31.8208C2.92563 30.8741 0.713699 27.2575 0.686484 25.199C0.677799 24.6037 2.19198 21.9905 2.80345 20.8486C3.75075 21.6743 5.11903 22.3437 5.73976 22.5736Z" fill="#FE9F73"/>
<path d="M14.1329 15.4035C14.1329 15.4035 13.0808 16.2935 11.2893 16.3132C9.49772 16.3329 8.52493 15.4035 8.52493 15.4035C8.52493 15.4035 11.8932 15.0318 14.1329 15.4035Z" fill="#FE9F73"/>
<path d="M13.4583 15.251C13.4722 15.251 14.8376 15.4248 15.6587 15.7114C16.3999 15.972 17.0241 18.6066 17.324 19.8764C17.3697 20.0692 17.4056 20.2238 17.4323 20.3205L17.4398 20.3507L17.4213 20.3755C17.401 20.4016 16.9274 21.0125 16.2099 21.1248H16.2001C16.1844 21.1243 16.1695 21.118 16.1582 21.1072C16.1468 21.0964 16.1399 21.0817 16.1387 21.0661C16.1374 21.0505 16.142 21.0349 16.1515 21.0225C16.1611 21.01 16.1748 21.0015 16.1902 20.9986C16.7809 20.9077 17.2076 20.4329 17.3008 20.3211C17.2754 20.2215 17.2429 20.0802 17.2001 19.9054C16.9285 18.7571 16.2916 16.0681 15.6164 15.8307C14.8104 15.5469 13.4589 15.3784 13.445 15.3773C13.4367 15.3763 13.4286 15.3736 13.4213 15.3695C13.414 15.3653 13.4076 15.3598 13.4025 15.3532C13.3973 15.3466 13.3935 15.339 13.3913 15.3309C13.389 15.3228 13.3884 15.3144 13.3894 15.3061C13.3905 15.2977 13.3931 15.2897 13.3973 15.2824C13.4014 15.2751 13.4069 15.2687 13.4135 15.2635C13.4201 15.2584 13.4277 15.2546 13.4358 15.2523C13.4439 15.2501 13.4523 15.2495 13.4607 15.2505L13.4583 15.251Z" fill="black"/>
<path d="M12.866 10.8548C13.4861 11.6516 13.5637 14.7483 13.5637 14.7483L13.2632 14.7662C13.2418 14.666 13.1567 14.38 13.1567 14.38L13.0889 14.7767L11.9187 14.8467L10.9922 10.1959C10.9922 10.1959 12.2458 10.0563 12.866 10.8548Z" fill="#3F3334"/>
<path d="M10.3066 10.481C10.3136 10.5238 12.3333 11.4184 12.3333 11.4184C12.3333 11.4184 13.3865 13.6234 12.1949 14.1729L12.4624 15.8029L10.6598 15.705L9.76986 10.463C9.76986 10.463 10.2991 10.4387 10.3066 10.481Z" fill="#FE9F73"/>
<path d="M11.8984 12.1527C11.9022 12.1546 11.9051 12.1579 11.9065 12.1619C11.908 12.1659 11.9077 12.1703 11.9059 12.1741C11.9059 12.1741 11.8127 12.3704 11.8891 12.5465C11.9372 12.6576 12.0408 12.7393 12.1983 12.7885L12.2117 12.7931V12.807C12.2117 12.8157 12.1694 13.012 12.038 13.0653H12.0345C12.0308 13.0659 12.0271 13.0652 12.0239 13.0632C12.0207 13.0613 12.0183 13.0584 12.0171 13.0548C12.0156 13.0509 12.0156 13.0466 12.0172 13.0427C12.0188 13.0388 12.0219 13.0357 12.0258 13.034C12.1248 12.9946 12.1677 12.8603 12.1792 12.8134C12.0206 12.7607 11.9146 12.6744 11.8648 12.558C11.8413 12.4937 11.8308 12.4253 11.8338 12.3568C11.8368 12.2884 11.8532 12.2212 11.8822 12.1591C11.884 12.1565 11.8864 12.1546 11.8893 12.1534C11.8922 12.1523 11.8954 12.152 11.8984 12.1527Z" fill="#F07162"/>
<path d="M12.1978 14.1731L12.2823 14.6699C11.5921 14.583 10.7768 14.0283 10.7768 14.0283C11.3483 14.2663 12.1978 14.1731 12.1978 14.1731Z" fill="#F07162"/>
<path d="M11.408 12.3714C11.4255 12.3684 11.4434 12.3707 11.4596 12.378C11.4758 12.3852 11.4895 12.3971 11.4989 12.4122C11.5083 12.4272 11.5131 12.4447 11.5126 12.4624C11.5121 12.4801 11.5064 12.4973 11.4961 12.5118C11.4858 12.5263 11.4715 12.5374 11.4549 12.5437C11.4383 12.5501 11.4203 12.5513 11.403 12.5474C11.3857 12.5435 11.3699 12.5345 11.3577 12.5216C11.3455 12.5087 11.3374 12.4925 11.3344 12.475C11.3323 12.4634 11.3325 12.4514 11.335 12.4398C11.3376 12.4282 11.3424 12.4173 11.3493 12.4076C11.3561 12.398 11.3649 12.3898 11.375 12.3836C11.385 12.3773 11.3962 12.3732 11.408 12.3714Z" fill="black"/>
<path d="M12.309 12.2483C12.3264 12.2454 12.3444 12.2477 12.3606 12.2549C12.3768 12.2622 12.3905 12.2741 12.3999 12.2891C12.4093 12.3041 12.4141 12.3216 12.4136 12.3394C12.4131 12.3571 12.4073 12.3743 12.3971 12.3888C12.3868 12.4032 12.3725 12.4143 12.3559 12.4206C12.3393 12.427 12.3213 12.4283 12.304 12.4243C12.2867 12.4204 12.2709 12.4114 12.2587 12.3985C12.2465 12.3857 12.2384 12.3695 12.2354 12.352C12.2333 12.3403 12.2336 12.3284 12.2362 12.3168C12.2388 12.3053 12.2436 12.2944 12.2505 12.2847C12.2573 12.2751 12.266 12.2669 12.2761 12.2606C12.2861 12.2544 12.2973 12.2502 12.309 12.2483Z" fill="black"/>
<path d="M11.5823 13.467C11.3547 13.412 11.3321 13.1416 11.3321 13.1416C11.3425 13.1416 11.9534 13.2922 11.9534 13.2922C11.9534 13.2922 11.8092 13.522 11.5823 13.467Z" fill="#FBFDFC"/>
<path d="M9.77276 10.4633C10.3599 10.0771 11.6002 10.0302 11.6019 10.6614C11.6019 10.6614 11.5521 11.7801 10.6072 12.3748C9.66216 12.9694 10.4815 14.2317 10.4815 14.2317L9.26552 12.9474C9.26552 12.9474 8.96616 10.9932 9.77276 10.4633Z" fill="#3F3334"/>
<path d="M11.5811 11.9858C11.5894 11.9872 11.5968 11.9918 11.6016 11.9987C11.6065 12.0055 11.6085 12.014 11.6072 12.0223C11.6057 12.0307 11.601 12.0382 11.5941 12.0432C11.5872 12.0482 11.5785 12.0502 11.5701 12.0489C11.3304 12.0084 11.1248 12.1798 11.1231 12.1815C11.1191 12.1849 11.1143 12.1874 11.1092 12.1886C11.104 12.1898 11.0987 12.1897 11.0935 12.1884C11.0874 12.1866 11.0819 12.183 11.0779 12.178C11.0752 12.1748 11.073 12.1711 11.0717 12.1671C11.0704 12.1631 11.0699 12.1589 11.0702 12.1547C11.0705 12.1505 11.0717 12.1464 11.0736 12.1427C11.0755 12.1389 11.0782 12.1356 11.0814 12.1328C11.093 12.1253 11.3113 11.94 11.5811 11.9858Z" fill="#49263E"/>
<path d="M11.9725 11.9456C12.2331 11.8628 12.4774 12.0145 12.4879 12.0214C12.4914 12.0237 12.4945 12.0266 12.4969 12.03C12.4993 12.0334 12.501 12.0373 12.5019 12.0414C12.5028 12.0455 12.5029 12.0497 12.5022 12.0538C12.5015 12.0579 12.5 12.0619 12.4977 12.0654C12.4955 12.069 12.4926 12.0721 12.4892 12.0746C12.4858 12.0771 12.4819 12.0788 12.4778 12.0797C12.4737 12.0806 12.4694 12.0807 12.4653 12.0799C12.4612 12.0792 12.4572 12.0776 12.4537 12.0752C12.4537 12.0752 12.2221 11.9328 11.9905 12.0069C11.9865 12.0082 11.9823 12.0086 11.9781 12.0083C11.9739 12.0079 11.9699 12.0067 11.9662 12.0048C11.9625 12.0029 11.9592 12.0002 11.9565 11.997C11.9538 11.9938 11.9518 11.9901 11.9505 11.9861C11.9482 11.9778 11.9492 11.9689 11.9533 11.9613C11.9574 11.9538 11.9643 11.9481 11.9725 11.9456Z" fill="#49263E"/>
<path d="M11.4995 11.1743L11.0999 10.7568L11.5985 11.0898L11.4995 11.1743Z" fill="#FE9F73"/>
<path d="M10.6112 12.0484C11.1625 11.7896 11.2591 11.2071 11.2603 11.2013C11.2611 11.1959 11.2629 11.1907 11.2658 11.186C11.2686 11.1813 11.2723 11.1772 11.2767 11.174C11.2812 11.1707 11.2862 11.1684 11.2915 11.1671C11.2968 11.1659 11.3024 11.1657 11.3078 11.1666C11.3187 11.1683 11.3285 11.1742 11.335 11.1831C11.3415 11.192 11.3442 11.2032 11.3425 11.2141C11.3385 11.2401 11.2377 11.8469 10.6477 12.1243C10.6375 12.1286 10.626 12.1287 10.6157 12.1245C10.6054 12.1203 10.5973 12.1122 10.593 12.102C10.5887 12.0918 10.5886 12.0803 10.5928 12.07C10.597 12.0598 10.605 12.0516 10.6153 12.0473L10.6112 12.0484Z" fill="#21111D"/>
<path d="M10.0443 10.3242L10.3558 12.4864C10.3558 12.4864 10.2817 13.462 10.6216 14.8413L10.6946 15.0996C10.3749 15.1289 10.0537 15.1385 9.7328 15.1285C9.66274 14.9293 9.54693 14.6045 9.54693 14.6045L9.49424 15.1164C9.37843 15.1077 9.26262 15.0955 9.14682 15.0787C9.14682 15.0787 8.75423 12.7979 8.79939 11.8703C8.86077 10.729 10.0443 10.3242 10.0443 10.3242Z" fill="#3F3334"/>
<path d="M9.99569 12.432C10.094 12.4152 10.1951 12.428 10.2861 12.4687C10.3771 12.5095 10.454 12.5763 10.5071 12.6608C10.5601 12.7452 10.5868 12.8436 10.5839 12.9432C10.581 13.0429 10.5486 13.1395 10.4908 13.2207C10.4329 13.302 10.3522 13.3642 10.259 13.3996C10.1657 13.435 10.0641 13.4419 9.96693 13.4194C9.86976 13.3969 9.78144 13.3461 9.71317 13.2734C9.64489 13.2007 9.59973 13.1094 9.58341 13.011C9.56145 12.8796 9.59253 12.7448 9.66982 12.6363C9.74711 12.5277 9.8643 12.4542 9.99569 12.432Z" fill="#FE9F73"/>
<path d="M9.81908 12.733C9.89523 12.694 9.98323 12.6849 10.0658 12.7075C10.1021 12.7216 10.135 12.7432 10.1624 12.7709C10.1897 12.7987 10.2109 12.8319 10.2244 12.8685L10.2476 12.9212L10.2007 12.8882C10.1614 12.8604 10.114 12.8464 10.0659 12.8483C10.0178 12.8503 9.97174 12.8682 9.93489 12.8992C9.90752 12.9248 9.88947 12.9588 9.8836 12.9958C9.87773 13.0328 9.88436 13.0707 9.90246 13.1036C9.91808 13.1398 9.94537 13.1698 9.97998 13.1888C10.0146 13.2078 10.0546 13.2147 10.0935 13.2084C10.0956 13.208 10.0978 13.208 10.0999 13.2084C10.102 13.2089 10.104 13.2098 10.1057 13.211C10.1074 13.2123 10.1089 13.2139 10.11 13.2157C10.1111 13.2175 10.1118 13.2196 10.1121 13.2217C10.1125 13.2238 10.1125 13.2259 10.1121 13.2279C10.1117 13.23 10.1108 13.2319 10.1096 13.2337C10.1084 13.2354 10.1069 13.2369 10.1051 13.238C10.1034 13.2391 10.1014 13.2399 10.0993 13.2402C10.0537 13.2467 10.0073 13.2382 9.96693 13.216C9.9266 13.1937 9.89462 13.1589 9.87582 13.1169C9.85465 13.0777 9.84714 13.0325 9.85448 12.9886C9.86182 12.9447 9.88359 12.9045 9.91636 12.8743C9.95099 12.8434 9.99392 12.8233 10.0398 12.8167C10.0857 12.81 10.1326 12.8169 10.1746 12.8366C10.149 12.7909 10.1079 12.7558 10.0588 12.7376C9.98492 12.7179 9.90636 12.7261 9.83819 12.7608C9.83629 12.7618 9.83421 12.7624 9.83207 12.7626C9.82993 12.7628 9.82778 12.7625 9.82573 12.7619C9.82368 12.7612 9.82179 12.7602 9.82015 12.7588C9.81851 12.7574 9.81716 12.7557 9.81618 12.7538C9.81411 12.7506 9.81326 12.7467 9.81379 12.7429C9.81432 12.739 9.8162 12.7356 9.81908 12.733Z" fill="#F07162"/>
<path d="M27.24 25.678L28.005 25.5205C28.0481 25.5453 28.0858 25.5786 28.1157 25.6184C28.1455 25.6583 28.167 25.7037 28.1787 25.7521C28.2047 25.9021 28.1208 25.9953 28.0959 26.0005L27.3275 26.1586C27.2348 26.1777 27.1364 26.0978 27.108 25.971C27.0797 25.8303 27.1399 25.6971 27.24 25.678Z" fill="#FE9F73"/>
<path d="M27.2939 26.1818L28.1387 25.9844C28.1728 26.0055 28.2017 26.0341 28.2232 26.068C28.2446 26.1019 28.2581 26.1402 28.2626 26.1801C28.291 26.3301 28.2395 26.4621 28.2146 26.4696L27.3906 26.6625C27.2985 26.6839 27.1989 26.6045 27.1688 26.48C27.1358 26.3399 27.1937 26.205 27.2939 26.1818Z" fill="#FE9F73"/>
<path d="M27.3715 26.6875L28.1561 26.4912C28.1878 26.5105 28.2147 26.5367 28.2347 26.5679C28.2548 26.5991 28.2675 26.6344 28.2719 26.6713C28.2991 26.8108 28.2528 26.9347 28.2296 26.9405L27.4647 27.1322C27.3784 27.1536 27.2858 27.083 27.2563 26.966C27.2256 26.8363 27.2788 26.7107 27.3715 26.6875Z" fill="#FE9F73"/>
<path d="M27.2319 25.631L27.9893 25.4752C28.0073 25.4711 28.0252 25.4885 28.0299 25.5134C28.033 25.5236 28.0321 25.5347 28.0275 25.5443C28.0229 25.5539 28.0149 25.5615 28.005 25.5655L27.2482 25.7213C27.2271 25.7266 27.2076 25.737 27.1915 25.7515C27.1753 25.766 27.163 25.7843 27.1555 25.8047C27.1351 25.8536 27.1308 25.9078 27.1433 25.9593C27.1659 26.0606 27.2447 26.1272 27.3223 26.111L28.1491 25.9373C28.1671 25.9332 28.1856 25.9506 28.1903 25.9755C28.1925 25.9846 28.1919 25.9942 28.1887 26.0031C28.1856 26.0119 28.1798 26.0197 28.1723 26.0253H28.1654L27.3385 26.199C27.2262 26.2227 27.1121 26.1243 27.0785 25.9761C27.0602 25.9008 27.0665 25.8217 27.0964 25.7502C27.108 25.7211 27.1263 25.6951 27.1499 25.6743C27.1734 25.6536 27.2015 25.6387 27.2319 25.631Z" fill="#F07162"/>
<path d="M27.0675 25.2315L27.837 25.0578C27.9222 25.0387 28.0194 25.1505 28.0374 25.2373C28.0675 25.3867 28.0125 25.5187 27.9876 25.5269L27.1636 25.711C27.0727 25.7313 26.9748 25.6577 26.943 25.5373C26.9065 25.3931 26.9656 25.2547 27.0675 25.2315Z" fill="#FE9F73"/>
<path d="M27.0594 25.1857L27.8121 25.0172C27.8301 25.0132 27.8486 25.03 27.8532 25.0549C27.8563 25.0651 27.8555 25.0761 27.851 25.0858C27.8465 25.0955 27.8387 25.1032 27.8289 25.1075L27.0762 25.276C27.0551 25.2817 27.0357 25.2924 27.0197 25.3073C27.0036 25.3221 26.9914 25.3406 26.9841 25.3611C26.9641 25.4102 26.9602 25.4644 26.9731 25.5158C26.9968 25.6171 27.0762 25.6825 27.1538 25.6651L27.9777 25.4764C27.9957 25.4723 28.0142 25.4891 28.0189 25.514C28.0213 25.5232 28.021 25.5329 28.0179 25.5419C28.0148 25.5508 28.0091 25.5587 28.0015 25.5644C27.9992 25.5648 27.9968 25.5648 27.9945 25.5644L27.1706 25.7532C27.0588 25.7781 26.9436 25.6819 26.9088 25.5343C26.89 25.4588 26.8957 25.3793 26.925 25.3073C26.9363 25.2779 26.9543 25.2515 26.9776 25.2304C27.001 25.2093 27.029 25.194 27.0594 25.1857Z" fill="#F07162"/>
<path d="M27.2852 26.1361L28.13 25.9392C28.148 25.9346 28.1665 25.9514 28.1711 25.9763C28.1745 25.9865 28.1739 25.9975 28.1695 26.0073C28.1651 26.017 28.1572 26.0248 28.1474 26.029L27.302 26.2265C27.2811 26.2325 27.2619 26.2433 27.2461 26.2583C27.2303 26.2732 27.2183 26.2917 27.2111 26.3122C27.1913 26.3615 27.1877 26.4158 27.2007 26.4673C27.225 26.5675 27.2962 26.6248 27.3744 26.6063L28.1746 26.4036C28.1926 26.399 28.2111 26.4158 28.2163 26.4401C28.2188 26.4495 28.2184 26.4595 28.2152 26.4686C28.212 26.4778 28.2062 26.4858 28.1984 26.4917H28.1926L27.3923 26.6943C27.2765 26.7204 27.1723 26.633 27.137 26.4859C27.1177 26.4108 27.1227 26.3315 27.1515 26.2595C27.1626 26.2299 27.1805 26.2034 27.2037 26.1819C27.2269 26.1605 27.2548 26.1449 27.2852 26.1361Z" fill="#F07162"/>
<path d="M27.3501 26.6131L28.1347 26.4168C28.1526 26.4122 28.1711 26.4284 28.1758 26.4533C28.1792 26.4635 28.1787 26.4745 28.1744 26.4844C28.1701 26.4942 28.1624 26.5021 28.1526 26.5065L27.368 26.7034C27.3487 26.709 27.3311 26.7192 27.3167 26.7331C27.3023 26.7471 27.2915 26.7643 27.2852 26.7833C27.2677 26.8286 27.2649 26.8782 27.2771 26.9252C27.2997 27.0173 27.3732 27.0757 27.4444 27.0578L28.2093 26.8661C28.2273 26.8615 28.2458 26.8783 28.251 26.9032C28.2536 26.9125 28.2532 26.9224 28.25 26.9315C28.2468 26.9406 28.2409 26.9485 28.2331 26.9541H28.2273L27.4618 27.1458C27.357 27.1719 27.2476 27.0839 27.2134 26.9455C27.1946 26.8746 27.1986 26.7996 27.225 26.7312C27.2352 26.7032 27.2518 26.6778 27.2735 26.6573C27.2952 26.6368 27.3215 26.6217 27.3501 26.6131Z" fill="#F07162"/>
<path d="M28.0472 16.0428C28.6778 15.6172 29.939 15.2727 29.5585 13.9913C29.5585 13.9913 28.9702 12.6358 30.5215 11.5142C32.0727 10.3926 32.3119 12.3161 32.9088 12.4985C33.5058 12.6809 34.5881 12.4731 34.9806 13.5947C35.3732 14.7163 35.1399 15.5345 35.7681 15.7151C36.3964 15.8958 38.4491 17.5159 37.8926 19.6086C37.3362 21.7012 35.2968 21.5674 35.2968 21.5674C35.2968 21.5674 27.2725 21.8164 26.7548 19.7244C26.2372 17.6323 27.0212 16.7354 28.0472 16.0428Z" fill="#895B1F"/>
<path d="M33.815 14.7402L33.2424 20.6666L30.6946 20.4205L30.8683 18.6139C30.3014 18.5491 30.097 18.1855 30.097 18.1855C29.6737 17.4987 30.3825 14.6533 30.3825 14.6533L33.815 14.7402Z" fill="#FAC4AF"/>
<path d="M31.1445 16.2362C31.236 15.9738 31.0831 15.7028 31.0814 15.6999C31.0799 15.6973 31.0789 15.6944 31.0785 15.6913C31.0781 15.6883 31.0783 15.6852 31.0791 15.6822C31.0799 15.6793 31.0813 15.6765 31.0832 15.6741C31.0851 15.6717 31.0874 15.6696 31.0901 15.6681C31.0927 15.6666 31.0957 15.6656 31.0987 15.6652C31.1018 15.6648 31.1048 15.665 31.1078 15.6659C31.1108 15.6667 31.1135 15.668 31.116 15.6699C31.1184 15.6718 31.1204 15.6741 31.1219 15.6768C31.1289 15.6884 31.287 15.9663 31.1885 16.2512C31.1306 16.4249 30.9841 16.5598 30.7606 16.6525C30.782 16.7156 30.8585 16.9084 31.005 16.9553C31.0079 16.9562 31.0106 16.9576 31.013 16.9595C31.0153 16.9615 31.0173 16.9639 31.0187 16.9666C31.0201 16.9693 31.0209 16.9722 31.0211 16.9753C31.0214 16.9783 31.021 16.9814 31.02 16.9843C31.0186 16.9895 31.0154 16.994 31.0109 16.997C31.0064 17 31.001 17.0012 30.9957 17.0005H30.9911C30.7924 16.9379 30.7125 16.6583 30.7096 16.6467L30.7039 16.6264L30.7235 16.6183C30.9447 16.5297 31.0866 16.4012 31.1445 16.2362Z" fill="#F07162"/>
<path d="M32.9025 18.2588C32.9025 18.2588 31.7849 19.1436 30.7977 19.341L30.8677 18.6143C30.8677 18.6143 32.1028 18.6606 32.9025 18.2588Z" fill="#F07162"/>
<path d="M31.4497 15.551C32.0362 15.1647 32.573 15.8312 32.5782 15.8405C32.582 15.8453 32.5849 15.8507 32.5866 15.8566C32.5883 15.8625 32.5888 15.8687 32.5881 15.8747C32.5874 15.8808 32.5855 15.8867 32.5825 15.8921C32.5795 15.8974 32.5755 15.9021 32.5707 15.9059C32.561 15.9135 32.5486 15.917 32.5364 15.9155C32.5242 15.9141 32.513 15.908 32.5052 15.8984C32.4855 15.8735 32.0159 15.2927 31.5012 15.6309C31.4961 15.6342 31.4904 15.6366 31.4844 15.6378C31.4784 15.6389 31.4722 15.6389 31.4662 15.6377C31.4602 15.6365 31.4545 15.6341 31.4494 15.6307C31.4444 15.6273 31.44 15.6229 31.4366 15.6178C31.4332 15.6127 31.4309 15.607 31.4297 15.601C31.4285 15.595 31.4286 15.5888 31.4298 15.5829C31.431 15.5769 31.4334 15.5712 31.4368 15.5661C31.4402 15.561 31.4446 15.5567 31.4497 15.5533V15.551Z" fill="#4C222E"/>
<path d="M30.9708 15.5778C30.9752 15.5821 30.9786 15.5872 30.981 15.5929C30.9834 15.5986 30.9846 15.6047 30.9846 15.6108C30.9846 15.6169 30.9834 15.623 30.981 15.6287C30.9786 15.6344 30.9752 15.6395 30.9708 15.6438C30.9619 15.6523 30.9501 15.6569 30.9378 15.6569C30.9255 15.6569 30.9137 15.6523 30.9048 15.6438C30.9048 15.6403 30.5655 15.2917 30.3472 15.4446C30.3422 15.4481 30.3366 15.4507 30.3306 15.452C30.3246 15.4534 30.3185 15.4536 30.3125 15.4526C30.3064 15.4515 30.3007 15.4493 30.2955 15.4461C30.2903 15.4428 30.2859 15.4386 30.2823 15.4336C30.2788 15.4286 30.2763 15.423 30.2749 15.4171C30.2735 15.4111 30.2734 15.4049 30.2744 15.3989C30.2754 15.3929 30.2776 15.3871 30.2809 15.382C30.2841 15.3768 30.2883 15.3723 30.2933 15.3688C30.5753 15.1673 30.954 15.561 30.9708 15.5778Z" fill="#4C222E"/>
<path d="M30.5081 15.8482C30.5339 15.8507 30.5583 15.8607 30.5783 15.8771C30.5983 15.8934 30.613 15.9154 30.6205 15.9401C30.628 15.9648 30.628 15.9912 30.6204 16.0159C30.6129 16.0406 30.5982 16.0625 30.5782 16.0789C30.5582 16.0952 30.5338 16.1052 30.508 16.1076C30.4823 16.1101 30.4565 16.1048 30.4338 16.0925C30.411 16.0802 30.3925 16.0614 30.3805 16.0385C30.3685 16.0156 30.3635 15.9897 30.3663 15.964C30.3699 15.93 30.3869 15.8987 30.4134 15.877C30.44 15.8553 30.474 15.845 30.5081 15.8482Z" fill="black"/>
<path d="M31.7965 15.9508C31.8222 15.9532 31.8466 15.9633 31.8666 15.9796C31.8866 15.996 31.9013 16.0179 31.9088 16.0426C31.9163 16.0673 31.9163 16.0937 31.9088 16.1184C31.9013 16.1432 31.8866 16.1651 31.8666 16.1814C31.8466 16.1977 31.8221 16.2078 31.7964 16.2102C31.7707 16.2126 31.7448 16.2073 31.7221 16.195C31.6994 16.1827 31.6809 16.1639 31.6688 16.1411C31.6568 16.1182 31.6519 16.0923 31.6546 16.0666C31.6583 16.0325 31.6752 16.0012 31.7018 15.9796C31.7283 15.9579 31.7624 15.9475 31.7965 15.9508Z" fill="black"/>
<path d="M33.8996 16.1333C34.043 16.1471 34.1791 16.2032 34.2906 16.2944C34.4022 16.3855 34.4842 16.5077 34.5263 16.6455C34.5683 16.7833 34.5686 16.9305 34.527 17.0685C34.4855 17.2064 34.4039 17.329 34.2927 17.4206C34.1815 17.5122 34.0456 17.5687 33.9023 17.5831C33.7589 17.5975 33.6145 17.569 33.4873 17.5013C33.3601 17.4336 33.2559 17.3298 33.1878 17.2028C33.1196 17.0759 33.0907 16.9316 33.1045 16.7881C33.1231 16.5959 33.2174 16.4189 33.3664 16.2961C33.5155 16.1733 33.7073 16.1147 33.8996 16.1333Z" fill="#F4B095"/>
<path d="M33.8289 16.5385C33.9455 16.4969 34.0734 16.5006 34.1874 16.549C34.1907 16.5498 34.1937 16.5514 34.1964 16.5536C34.199 16.5558 34.2011 16.5586 34.2026 16.5617C34.2041 16.5648 34.2048 16.5681 34.2049 16.5716C34.2049 16.575 34.2042 16.5784 34.2028 16.5815C34.2014 16.5847 34.1994 16.5874 34.1968 16.5897C34.1942 16.592 34.1912 16.5936 34.1879 16.5946C34.1846 16.5956 34.1812 16.5958 34.1778 16.5953C34.1744 16.5949 34.1711 16.5936 34.1683 16.5918C34.0662 16.5492 33.9521 16.5455 33.8475 16.5814C33.778 16.6125 33.722 16.6673 33.6894 16.736C33.7481 16.7033 33.8151 16.6886 33.8821 16.6936C33.9491 16.6987 34.0132 16.7232 34.0663 16.7643C34.1171 16.8046 34.1529 16.8607 34.168 16.9237C34.1831 16.9866 34.1767 17.0529 34.1497 17.1118C34.1269 17.1743 34.0843 17.2278 34.0284 17.264C33.9725 17.3003 33.9064 17.3174 33.8399 17.3127H33.8359C33.8297 17.3118 33.8242 17.3087 33.8203 17.3038C33.8164 17.299 33.8145 17.2928 33.815 17.2866C33.8154 17.2836 33.8164 17.2806 33.8179 17.278C33.8194 17.2753 33.8214 17.2729 33.8238 17.2711C33.8262 17.2692 33.829 17.2678 33.832 17.267C33.8349 17.2662 33.838 17.266 33.8411 17.2664C33.8983 17.2711 33.9555 17.2566 34.0036 17.2251C34.0516 17.1937 34.0878 17.1471 34.1063 17.0927C34.1285 17.0436 34.1338 16.9886 34.1214 16.9363C34.1091 16.8839 34.0797 16.8371 34.038 16.8032C33.848 16.6584 33.661 16.8078 33.6535 16.8142L33.5886 16.8674L33.6164 16.7887C33.632 16.7343 33.659 16.6838 33.6956 16.6406C33.7323 16.5975 33.7777 16.5627 33.8289 16.5385Z" fill="#F07162"/>
<path d="M32.2163 13.5794C33.7218 13.6008 33.815 14.7404 33.815 14.7404L32.0779 14.9216L30.4937 14.6559H30.3831C30.3831 14.6559 30.7102 13.558 32.2163 13.5794Z" fill="#FBC0A9"/>
<path d="M32.61 13.2431C32.7137 13.253 34.2806 14.0746 34.2806 14.0746C34.2806 14.0746 34.5579 16.1592 33.679 16.1447C32.8 16.1302 32.54 14.6166 32.54 14.6166C31.3142 14.7064 30.4734 13.7069 30.4734 13.7069L30.7867 12.9629C30.7867 12.9629 32.507 13.2327 32.61 13.2431Z" fill="#895B1F"/>
<path d="M31.2157 17.6102C30.892 17.6444 30.7357 17.2998 30.7357 17.2998C30.749 17.2958 31.6205 17.2061 31.6205 17.2061C31.6205 17.2061 31.5394 17.5761 31.2157 17.6102Z" fill="#FBFDFC"/>
<path d="M24.932 20.7239C26.0901 19.8704 31.3286 19.7314 31.3286 19.7314C31.3286 19.7314 36.2893 19.7558 37.9117 20.0754C39.5342 20.395 41.0513 21.8449 41.3987 23.8363C41.7461 25.8276 41.1804 30.5462 39.8289 32.9544C38.4775 35.3626 36.5863 36.7888 36.1173 36.7639C35.6483 36.739 32.8475 35.9533 32.8475 35.9533C32.573 35.9533 27.1381 35.5514 25.3275 34.7488C23.0113 33.7222 23.0055 26.0997 23.0055 26.0997C23.0055 26.0997 23.3107 21.9202 24.932 20.7239Z" fill="white"/>
<path d="M36.269 19.8555C37.3194 19.9493 38.1306 20.0872 38.6813 20.2701C40.1908 20.767 41.5533 22.6957 41.54 24.3165C41.54 24.3274 41.5357 24.3378 41.5279 24.3455C41.5202 24.3532 41.5098 24.3576 41.4989 24.3576C41.4934 24.3576 41.488 24.3565 41.483 24.3544C41.478 24.3523 41.4734 24.3492 41.4696 24.3453C41.4658 24.3414 41.4628 24.3368 41.4607 24.3318C41.4587 24.3267 41.4577 24.3213 41.4578 24.3159C41.4711 22.727 40.1352 20.8359 38.6558 20.3489C38.1115 20.1694 37.3061 20.0316 36.2626 19.9384C36.2572 19.9379 36.2519 19.9364 36.247 19.9339C36.2421 19.9314 36.2378 19.9279 36.2343 19.9237C36.2308 19.9195 36.2282 19.9146 36.2266 19.9094C36.225 19.9041 36.2244 19.8986 36.225 19.8932C36.226 19.8824 36.2312 19.8725 36.2394 19.8655C36.2476 19.8584 36.2582 19.8549 36.269 19.8555Z" fill="black"/>
<path d="M35.7745 24.3051C35.7773 24.2945 35.7843 24.2854 35.7938 24.28C35.8033 24.2745 35.8146 24.273 35.8252 24.2758C35.8358 24.2787 35.8448 24.2856 35.8503 24.2951C35.8558 24.3046 35.8572 24.3159 35.8544 24.3265L34.1625 30.6351C34.1601 30.6439 34.1548 30.6516 34.1476 30.6572C34.1404 30.6627 34.1316 30.6658 34.1225 30.6658H34.1115C34.1009 30.6628 34.0919 30.6558 34.0864 30.6463C34.0809 30.6368 34.0793 30.6255 34.082 30.6148L35.7745 24.3051Z" fill="black"/>
<path d="M27.0414 23.77C27.0523 23.7683 27.0634 23.7711 27.0723 23.7776C27.0812 23.7841 27.0872 23.7939 27.0889 23.8048L27.9737 29.3595C27.9746 29.3648 27.9744 29.3703 27.9732 29.3756C27.972 29.3809 27.9697 29.3859 27.9665 29.3904C27.9633 29.3948 27.9593 29.3985 27.9547 29.4014C27.9501 29.4042 27.9449 29.4061 27.9395 29.407H27.9331C27.9232 29.4069 27.9136 29.4034 27.9061 29.3969C27.8985 29.3904 27.8936 29.3815 27.892 29.3716L27.0073 23.8169C27.0058 23.8062 27.0085 23.7953 27.0149 23.7865C27.0212 23.7778 27.0308 23.7719 27.0414 23.77Z" fill="black"/>
<path d="M23.463 30.6918C23.4739 30.6903 23.4849 30.6932 23.4937 30.6998C23.5025 30.7064 23.5083 30.7162 23.5099 30.7271C23.5145 30.7578 23.958 33.7885 24.9876 34.4862C26.0171 35.184 29.4751 35.5864 29.5099 35.591C29.5153 35.5915 29.5206 35.5931 29.5254 35.5957C29.5302 35.5983 29.5345 35.6018 29.5379 35.6061C29.5413 35.6104 29.5438 35.6153 29.5452 35.6206C29.5467 35.6258 29.5471 35.6314 29.5464 35.6368C29.5453 35.647 29.5406 35.6564 29.533 35.6633C29.5254 35.6701 29.5155 35.6739 29.5052 35.6738H29.5006C29.3582 35.6576 25.994 35.2685 24.9407 34.5551C23.8874 33.8417 23.4462 30.8655 23.4282 30.7393C23.4273 30.7339 23.4275 30.7283 23.4288 30.723C23.43 30.7177 23.4324 30.7126 23.4356 30.7082C23.4388 30.7038 23.4429 30.7 23.4476 30.6972C23.4523 30.6944 23.4575 30.6926 23.463 30.6918Z" fill="black"/>
<path d="M31.1642 29.8664C31.1665 29.8615 31.1698 29.8571 31.1738 29.8535C31.1778 29.8498 31.1825 29.847 31.1876 29.8452C31.1927 29.8434 31.1981 29.8426 31.2036 29.8428C31.209 29.8431 31.2143 29.8444 31.2192 29.8468C31.2241 29.8491 31.2285 29.8523 31.2321 29.8563C31.2358 29.8604 31.2386 29.8651 31.2404 29.8702C31.2423 29.8753 31.2431 29.8807 31.2428 29.8861C31.2425 29.8915 31.2412 29.8968 31.2389 29.9017C31.2308 29.9185 30.4346 31.6273 29.7571 34.6099C29.7551 34.619 29.7501 34.6272 29.7428 34.6331C29.7356 34.639 29.7265 34.6423 29.7172 34.6423H29.7079C29.7026 34.6412 29.6975 34.6389 29.693 34.6358C29.6885 34.6327 29.6847 34.6287 29.6818 34.624C29.6789 34.6194 29.6769 34.6142 29.676 34.6088C29.6752 34.6034 29.6754 34.5979 29.6766 34.5925C30.3558 31.5995 31.1561 29.8832 31.1642 29.8664Z" fill="black"/>
<path d="M27.7762 23.8111C27.7871 23.8133 27.7967 23.8196 27.8029 23.8286C27.8092 23.8377 27.8117 23.8489 27.8098 23.8598C27.7729 24.1992 27.8608 24.5405 28.0571 24.8199C28.0633 24.8289 28.0658 24.8401 28.0638 24.851C28.0619 24.8618 28.0557 24.8714 28.0467 24.8778C28.0396 24.8824 28.0314 24.885 28.0229 24.8853C28.0162 24.8852 28.0096 24.8835 28.0037 24.8804C27.9977 24.8773 27.9926 24.8728 27.9887 24.8673C27.7779 24.5707 27.685 24.2061 27.7282 23.8447C27.7301 23.8339 27.7363 23.8244 27.7453 23.8181C27.7543 23.8118 27.7654 23.8093 27.7762 23.8111Z" fill="black"/>
<path d="M28.0791 24.0567C28.09 24.0563 28.1007 24.0603 28.1087 24.0678C28.1167 24.0753 28.1215 24.0857 28.1219 24.0966C28.1556 24.4505 28.286 24.7882 28.4989 25.0729C28.5053 25.0817 28.508 25.0928 28.5064 25.1036C28.5048 25.1144 28.499 25.1242 28.4902 25.1308C28.483 25.1362 28.4743 25.139 28.4653 25.1389C28.4589 25.1389 28.4525 25.1374 28.4468 25.1345C28.441 25.1315 28.4361 25.1273 28.4323 25.1221C28.2077 24.8249 28.0715 24.4706 28.0391 24.0995C28.0388 24.0941 28.0396 24.0886 28.0415 24.0834C28.0433 24.0783 28.0462 24.0736 28.0499 24.0696C28.0537 24.0655 28.0582 24.0623 28.0632 24.0601C28.0682 24.0579 28.0736 24.0567 28.0791 24.0567Z" fill="black"/>
<path d="M36.1491 35.5857C36.4863 35.5382 36.7949 35.3701 37.0177 35.1126C37.0209 35.1082 37.0249 35.1045 37.0296 35.1016C37.0343 35.0988 37.0394 35.097 37.0448 35.0962C37.0502 35.0954 37.0557 35.0956 37.061 35.097C37.0663 35.0983 37.0712 35.1006 37.0756 35.1039C37.0844 35.1105 37.0902 35.1202 37.0918 35.1311C37.0934 35.1419 37.0907 35.153 37.0843 35.1618C36.8492 35.4399 36.5188 35.6204 36.1578 35.6679H36.1514C36.1415 35.668 36.1319 35.6644 36.1245 35.6579C36.117 35.6514 36.1122 35.6424 36.1109 35.6326C36.1101 35.627 36.1105 35.6212 36.112 35.6157C36.1135 35.6103 36.1161 35.6052 36.1197 35.6008C36.1233 35.5963 36.1278 35.5927 36.1328 35.5901C36.1379 35.5875 36.1435 35.586 36.1491 35.5857Z" fill="black"/>
<path d="M35.6633 35.4347C36.0166 35.3967 36.3526 35.262 36.6344 35.0456C36.6383 35.0413 36.6432 35.0379 36.6486 35.0356C36.6539 35.0333 36.6597 35.0321 36.6656 35.0322C36.6714 35.0323 36.6772 35.0336 36.6825 35.0361C36.6878 35.0386 36.6925 35.0422 36.6964 35.0466C36.7002 35.051 36.7031 35.0561 36.7048 35.0617C36.7065 35.0673 36.707 35.0732 36.7063 35.079C36.7056 35.0848 36.7037 35.0904 36.7007 35.0954C36.6976 35.1004 36.6936 35.1048 36.6888 35.1081C36.3952 35.3371 36.043 35.4788 35.6726 35.5169H35.668C35.6577 35.5164 35.6479 35.5121 35.6406 35.5049C35.6333 35.4976 35.6289 35.4879 35.6283 35.4776C35.6278 35.4673 35.631 35.4572 35.6375 35.4491C35.6439 35.4411 35.6531 35.4358 35.6633 35.4341V35.4347Z" fill="black"/>
<path d="M30.2545 29.6524L30.2684 29.6211L30.3014 29.6286C30.3304 29.635 33.2105 30.2957 34.5 30.7334H34.5087L35.0814 31.2829C35.0865 31.2864 35.0907 31.2909 35.0939 31.2962C35.097 31.3015 35.0989 31.3074 35.0995 31.3135C35.1001 31.3196 35.0993 31.3258 35.0972 31.3315C35.0951 31.3373 35.0918 31.3426 35.0875 31.3469C35.0831 31.3513 35.0779 31.3546 35.0721 31.3567C35.0663 31.3587 35.0602 31.3595 35.054 31.3589C35.0479 31.3584 35.042 31.3564 35.0367 31.3533C35.0315 31.3502 35.0269 31.3459 35.0235 31.3408L34.4647 30.8046C33.2487 30.3935 30.6431 29.7879 30.3165 29.7126C30.1839 30.0212 29.1271 32.5273 29.0426 34.258L32.8643 35.9089C32.9534 35.9367 35.5226 36.7195 36.1069 36.7195H36.1196C36.6737 36.7079 38.0038 35.3547 38.0171 35.3414C38.0248 35.3338 38.0352 35.3295 38.0461 35.3295C38.0569 35.3295 38.0673 35.3338 38.075 35.3414C38.0789 35.3452 38.0819 35.3497 38.084 35.3547C38.0861 35.3596 38.0872 35.365 38.0872 35.3704C38.0872 35.3758 38.0861 35.3811 38.084 35.3861C38.0819 35.391 38.0789 35.3956 38.075 35.3993C38.0171 35.4572 36.7079 36.789 36.1202 36.8023H36.1074C35.5041 36.8023 32.9476 36.0229 32.8382 35.9917H32.8336L28.9581 34.3171V34.2882C29.038 32.4335 30.2424 29.6796 30.2545 29.6524Z" fill="black"/>
<path d="M21.4607 27.564C21.4607 27.564 21.2522 27.1297 21.6575 26.9988C21.6575 26.9988 21.4259 26.5235 22.1016 26.4777C22.1046 26.3905 22.1373 26.307 22.1943 26.2409C22.2512 26.1749 22.3291 26.1303 22.4149 26.1146C22.7288 26.0475 23.4572 26.209 23.566 26.2768C23.6749 26.3445 24.9465 27.571 24.9465 27.571C24.9465 27.571 26.0038 28.5298 26.225 28.579C26.4462 28.6283 30.1543 29.9983 30.1543 29.9983L29.2667 32.579L28.9737 34.2316C28.9737 34.2316 26.0785 32.9537 25.6349 32.6341C25.1914 32.3144 22.9187 30.6925 22.7102 30.0782C22.5018 29.4638 21.8046 28.6607 21.3338 28.161C21.3338 28.1621 21.0837 27.7447 21.4607 27.564Z" fill="#FAC4AF"/>
<path d="M22.1103 26.4372C22.1468 26.4447 23.0079 26.6236 23.1659 26.6989C23.324 26.7742 23.6465 27.0701 23.6599 27.0828C23.6658 27.0885 23.67 27.0959 23.6717 27.104C23.6735 27.1121 23.6728 27.1205 23.6698 27.1282C23.6667 27.1359 23.6615 27.1426 23.6546 27.1473C23.6478 27.152 23.6398 27.1545 23.6315 27.1546C23.6212 27.1543 23.6114 27.1505 23.6037 27.1436C23.6002 27.1407 23.2788 26.8437 23.1306 26.7736C23.0107 26.7157 22.3999 26.5819 22.0935 26.5188C22.083 26.5164 22.0738 26.5099 22.0679 26.5007C22.062 26.4916 22.06 26.4805 22.0622 26.4698C22.0644 26.4592 22.0706 26.4498 22.0796 26.4437C22.0886 26.4376 22.0996 26.4353 22.1103 26.4372Z" fill="#F07162"/>
<path d="M21.6691 26.9587C21.701 26.9685 22.4462 27.1903 22.6361 27.2986C22.7982 27.4025 22.9493 27.5226 23.0872 27.657C23.0933 27.6627 23.0975 27.6701 23.0993 27.6782C23.1011 27.6864 23.1004 27.6949 23.0973 27.7026C23.0942 27.7103 23.0887 27.7169 23.0817 27.7215C23.0748 27.7261 23.0666 27.7284 23.0582 27.7282C23.0475 27.7281 23.0371 27.724 23.0293 27.7167C22.8962 27.5872 22.751 27.4709 22.5956 27.3692C22.4132 27.2667 21.6529 27.0398 21.6454 27.0374C21.635 27.0341 21.6264 27.0268 21.6213 27.0172C21.6162 27.0076 21.6151 26.9963 21.6182 26.9859C21.6213 26.9754 21.6284 26.9666 21.6379 26.9613C21.6474 26.956 21.6586 26.9547 21.6691 26.9575V26.9587Z" fill="#F07162"/>
<path d="M21.4717 27.524C21.4989 27.5315 22.1509 27.707 22.3402 27.8234C22.4713 27.9071 22.5923 28.0056 22.701 28.1169C22.7085 28.1247 22.7127 28.1351 22.7127 28.1459C22.7127 28.1567 22.7085 28.167 22.701 28.1748C22.6934 28.1822 22.6832 28.1864 22.6726 28.1864C22.6669 28.1864 22.6613 28.1852 22.6561 28.1829C22.651 28.1806 22.6463 28.1773 22.6425 28.1731C22.5389 28.0671 22.4235 27.9732 22.2985 27.8934C22.1173 27.7828 21.456 27.6039 21.4491 27.6039C21.4386 27.601 21.4296 27.5941 21.4242 27.5847C21.4187 27.5753 21.4173 27.564 21.4201 27.5535C21.4215 27.5482 21.424 27.5432 21.4274 27.5388C21.4307 27.5344 21.4349 27.5307 21.4397 27.528C21.4445 27.5252 21.4498 27.5235 21.4553 27.5228C21.4608 27.5221 21.4663 27.5225 21.4717 27.524Z" fill="#F07162"/>
<path d="M34.9685 19.8199C31.9343 22.7881 29.0044 19.868 29.0044 19.868C31.5012 19.4303 34.9685 19.8199 34.9685 19.8199Z" fill="#FAC4AF"/>
</g>
<defs>
<clipPath id="clip0_477_171">
<rect width="62.3729" height="36" fill="white" transform="translate(0.685902 0.805664)"/>
</clipPath>
</defs>
</svg>
