<svg width="27" height="31" viewBox="0 0 27 31" fill="none" xmlns="http://www.w3.org/2000/svg">
<g clip-path="url(#clip0_107_16732)">
<path d="M24.5569 11.3262C24.5569 11.3262 21.2437 4.93416 13.6013 5.00846V16.6376C13.9999 16.6781 13.8105 16.7945 14.1093 16.8434L14.4142 17.0411C14.5841 17.4114 14.2189 17.6468 14.3399 17.9319L14.0503 18.2859C13.8187 18.612 13.9146 18.3543 13.7247 18.5893V18.4612C13.6933 18.4582 13.6642 18.454 13.6346 18.4491L13.6612 29.9206H13.8106C13.8106 29.9206 20.6105 30.2263 24.4922 23.714C24.4922 23.714 28.3188 17.7986 24.5569 11.3262Z" fill="#FFB526"/>
<path d="M13.7659 7.53809H13.6014V9.29044H13.7659V7.53809Z" fill="#0B1938"/>
<path d="M13.7659 25.4775H13.6014V27.2299H13.7659V25.4775Z" fill="#0B1938"/>
<path d="M13.7038 7.53711H13.6627V8.34357H13.7038V7.53711Z" fill="#0B1938"/>
<path d="M13.704 26.4219H13.6628V27.2283H13.704V26.4219Z" fill="#6D6BE6"/>
<path d="M8.76889 8.84569L8.73328 8.86621L9.13689 9.5647L9.1725 9.54417L8.76889 8.84569Z" fill="#0B1938"/>
<path d="M18.2281 25.2021L18.1925 25.2227L18.5962 25.9211L18.6318 25.9005L18.2281 25.2021Z" fill="#0B1938"/>
<path d="M5.15106 12.4459L5.13049 12.4814L5.82973 12.8848L5.85029 12.8492L5.15106 12.4459Z" fill="#0B1938"/>
<path d="M21.5281 21.8873L21.5076 21.9229L22.2069 22.3261L22.2274 22.2905L21.5281 21.8873Z" fill="#0B1938"/>
<path d="M4.63402 17.3633H3.82654V17.4043H4.63402V17.3633Z" fill="#0B1938"/>
<path d="M23.5409 17.3633H22.7334V17.4044H23.5409V17.3633Z" fill="#0B1938"/>
<path d="M5.15703 22.3245L5.13647 22.2887L5.83591 21.8857L5.85647 21.9211L5.15703 22.3245Z" fill="#0B1938"/>
<path d="M22.2161 12.4428L21.5166 12.8457L21.5371 12.8813L22.2367 12.4784L22.2161 12.4428Z" fill="#0B1938"/>
<path d="M9.1441 25.2007L8.74084 25.8994L8.77646 25.9199L9.17971 25.2212L9.1441 25.2007Z" fill="#0B1938"/>
<path d="M18.5848 8.85013L18.1815 9.54883L18.2171 9.56933L18.6204 8.87063L18.5848 8.85013Z" fill="#0B1938"/>
<path d="M8.83652 8.81436L8.69409 8.89648L9.57138 10.4141L9.7138 10.3319L8.83652 8.81436Z" fill="#6D6BE6"/>
<path d="M17.7932 24.3498L17.6511 24.4316L18.5281 25.9494L18.6702 25.8675L17.7932 24.3498Z" fill="#6D6BE6"/>
<path d="M5.19624 12.3831L5.11401 12.5254L6.63351 13.4016L6.71574 13.2593L5.19624 12.3831Z" fill="#6D6BE6"/>
<path d="M21.237 21.627L21.155 21.7695L22.6815 22.6457L22.7635 22.5032L21.237 21.627Z" fill="#6D6BE6"/>
<path d="M5.581 17.2988H3.8269V17.4631H5.581V17.2988Z" fill="#6D6BE6"/>
<path d="M23.54 17.2988H21.7859V17.4631H23.54V17.2988Z" fill="#6D6BE6"/>
<path d="M6.63614 21.3577L5.11694 22.2344L5.19898 22.3762L6.71818 21.4995L6.63614 21.3577Z" fill="#6D6BE6"/>
<path d="M22.1757 12.3878L20.656 13.2637L20.7382 13.4059L22.2579 12.53L22.1757 12.3878Z" fill="#6D6BE6"/>
<path d="M9.56356 24.3496L8.68628 25.8672L8.8287 25.9493L9.70599 24.4317L9.56356 24.3496Z" fill="#6D6BE6"/>
<path d="M18.5331 8.81686L17.655 10.334L17.797 10.4159L18.6751 8.89882L18.5331 8.81686Z" fill="#6D6BE6"/>
<path d="M13.6641 24.4193L14.2803 18.1352C14.347 18.0742 14.404 18.0035 14.4496 17.9256C14.5673 17.7226 14.5996 17.4812 14.5394 17.2545C14.4791 17.0277 14.3313 16.8341 14.1283 16.7161C13.9251 16.5985 13.6835 16.5661 13.4565 16.6262C13.2294 16.6863 13.0355 16.8338 12.9173 17.0365C12.8163 17.2106 12.7777 17.4138 12.8078 17.6127C12.8379 17.8116 12.9348 17.9943 13.0827 18.1309L13.6641 24.4193ZM13.1616 17.1783C13.242 17.0402 13.3741 16.9396 13.5287 16.8986C13.6834 16.8577 13.848 16.8798 13.9863 16.9601C14.1246 17.0404 14.2253 17.1722 14.2664 17.3267C14.3075 17.4811 14.2855 17.6455 14.2053 17.7837C14.1247 17.9218 13.9926 18.0224 13.8379 18.0633C13.6832 18.1043 13.5186 18.0824 13.3801 18.0024C13.2418 17.922 13.1412 17.79 13.1002 17.6355C13.0593 17.481 13.0813 17.3166 13.1616 17.1783Z" fill="#6D6BE6"/>
<path d="M13.6601 6.54965L13.0823 16.8237C12.9513 16.9431 12.8598 17.0993 12.8197 17.272C12.7797 17.4446 12.793 17.6256 12.8579 17.7912C12.9228 17.9568 13.0363 18.0993 13.1834 18.2C13.3306 18.3007 13.5046 18.355 13.6826 18.3557C13.8606 18.3563 14.0344 18.3034 14.1811 18.2038C14.3279 18.1042 14.4407 17.9625 14.5049 17.7974C14.5691 17.6323 14.5816 17.4514 14.5409 17.2785C14.5001 17.1055 14.4079 16.9486 14.2764 16.8282L13.6601 6.54965ZM14.2021 17.7752C14.1429 17.8778 14.0544 17.9604 13.9478 18.0125C13.8411 18.0647 13.7212 18.0841 13.6031 18.0682C13.4851 18.0524 13.3741 18.0021 13.2844 17.9236C13.1947 17.8451 13.1301 17.742 13.099 17.6273C13.0678 17.5126 13.0714 17.3914 13.1094 17.2792C13.1473 17.167 13.2179 17.0687 13.3121 16.9967C13.4063 16.9248 13.52 16.8824 13.6388 16.875C13.7576 16.8676 13.8761 16.8954 13.9794 16.9551C14.1178 17.0351 14.219 17.1665 14.2607 17.3202C14.3025 17.474 14.2814 17.6376 14.2021 17.7752Z" fill="#2C2C2C"/>
<path d="M13.6601 6.54965L13.0823 16.8237C12.9513 16.9431 12.8598 17.0993 12.8197 17.272C12.7797 17.4446 12.793 17.6256 12.8579 17.7912C12.9228 17.9568 13.0363 18.0993 13.1834 18.2C13.3306 18.3007 13.5046 18.355 13.6826 18.3557C13.8606 18.3563 14.0344 18.3034 14.1811 18.2038C14.3279 18.1042 14.4407 17.9625 14.5049 17.7974C14.5691 17.6323 14.5816 17.4514 14.5409 17.2785C14.5001 17.1055 14.4079 16.9486 14.2764 16.8282L13.6601 6.54965ZM14.2021 17.7752C14.1429 17.8778 14.0544 17.9604 13.9478 18.0125C13.8411 18.0647 13.7212 18.0841 13.6031 18.0682C13.4851 18.0524 13.3741 18.0021 13.2844 17.9236C13.1947 17.8451 13.1301 17.742 13.099 17.6273C13.0678 17.5126 13.0714 17.3914 13.1094 17.2792C13.1473 17.167 13.2179 17.0687 13.3121 16.9967C13.4063 16.9248 13.52 16.8824 13.6388 16.875C13.7576 16.8676 13.8761 16.8954 13.9794 16.9551C14.1178 17.0351 14.219 17.1665 14.2607 17.3202C14.3025 17.474 14.2814 17.6376 14.2021 17.7752Z" fill="black" fill-opacity="0.2"/>
<path d="M21.9426 7.55304L22.5029 6.78907L22.6115 6.86833C22.6368 6.88694 22.6656 6.90038 22.6961 6.90786C22.7267 6.91534 22.7584 6.91672 22.7895 6.91193C22.8206 6.90714 22.8504 6.89627 22.8773 6.87994C22.9042 6.86361 22.9276 6.84213 22.9461 6.81676L23.4438 6.13969C23.4624 6.11438 23.4759 6.08565 23.4834 6.05513C23.4909 6.02462 23.4923 5.99292 23.4875 5.96187C23.4827 5.93082 23.4718 5.90102 23.4554 5.87418C23.4391 5.84733 23.4176 5.82398 23.3922 5.80546L21.7045 4.56879C21.6792 4.55017 21.6504 4.53674 21.6199 4.52926C21.5893 4.52177 21.5576 4.52039 21.5265 4.52518C21.4954 4.52997 21.4655 4.54084 21.4387 4.55718C21.4118 4.57351 21.3884 4.59497 21.3699 4.62035L20.8727 5.29742C20.854 5.32271 20.8405 5.35142 20.833 5.38191C20.8255 5.41241 20.824 5.44409 20.8288 5.47514C20.8335 5.50619 20.8444 5.536 20.8607 5.56286C20.877 5.58972 20.8984 5.6131 20.9238 5.63166L21.0974 5.75819L20.5347 6.52454C18.9945 5.55226 17.2638 4.92041 15.4588 4.67144V2.69133H15.9814C16.0448 2.69133 16.1056 2.66617 16.1504 2.6214C16.1952 2.57662 16.2204 2.51591 16.2204 2.45259V1.02683C16.2204 0.963508 16.1952 0.90279 16.1504 0.858018C16.1056 0.813245 16.0448 0.788086 15.9814 0.788086H11.2211C11.1577 0.788086 11.0969 0.813245 11.0521 0.858018C11.0072 0.90279 10.982 0.963508 10.982 1.02683V2.45259C10.982 2.51591 11.0072 2.57662 11.0521 2.6214C11.0969 2.66617 11.1577 2.69133 11.2211 2.69133H11.9076V4.67144C5.6514 5.53568 0.83374 10.8968 0.83374 17.3825C0.83374 24.4702 6.58653 30.2162 13.6832 30.2162C20.7799 30.2162 26.5332 24.4702 26.5332 17.3825C26.5348 15.5084 26.1245 13.6568 25.3313 11.9584C24.5381 10.26 23.3813 8.75616 21.9426 7.55304ZM13.6832 28.2203C7.69091 28.2203 2.83357 23.3686 2.83357 17.3815C2.83357 11.3944 7.69091 6.54507 13.6832 6.54507C19.6755 6.54507 24.5333 11.3968 24.5333 17.3815C24.5333 23.3662 19.6755 28.2203 13.6832 28.2203Z" fill="#6D6BE6"/>
</g>
<defs>
<clipPath id="clip0_107_16732">
<rect width="25.6994" height="29.43" fill="white" transform="translate(0.83374 0.787109)"/>
</clipPath>
</defs>
</svg>
