<svg width="1441" height="1024" viewBox="0 0 1441 1024" fill="none" xmlns="http://www.w3.org/2000/svg">
<ellipse opacity="0.7" cx="1366.05" cy="79.9819" rx="232.991" ry="223.518" fill="#6765D9"/>
<path opacity="0.7" d="M1478.47 960.803C1513.38 1078.84 1445.98 1202.82 1327.95 1237.72C1209.91 1272.63 1085.93 1205.23 1051.03 1087.2C1016.12 969.161 1083.52 845.179 1201.55 810.276C1319.59 775.373 1443.57 842.766 1478.47 960.803ZM1103.08 1071.81C1129.48 1161.1 1223.27 1212.08 1312.56 1185.67C1401.85 1159.27 1452.83 1065.48 1426.42 976.194C1400.02 886.904 1306.23 835.924 1216.94 862.326C1127.65 888.729 1076.67 982.516 1103.08 1071.81Z" fill="#6765D9"/>
<path opacity="0.7" d="M1385.2 988.384C1404.87 1054.91 1366.89 1124.78 1300.37 1144.45C1233.85 1164.12 1163.97 1126.14 1144.3 1059.62C1124.63 993.095 1162.61 923.223 1229.13 903.553C1295.66 883.883 1365.53 921.863 1385.2 988.384ZM1189.39 1046.28C1201.7 1087.9 1245.41 1111.67 1287.03 1099.36C1328.65 1087.05 1352.42 1043.34 1340.11 1001.72C1327.8 960.097 1284.09 936.334 1242.47 948.64C1200.85 960.947 1177.08 1004.66 1189.39 1046.28Z" fill="#6765D9"/>
<path opacity="0.7" d="M165.242 513.86C195.591 616.497 136.99 724.303 34.3537 754.652C-68.2829 785.002 -176.089 726.401 -206.438 623.765C-236.788 521.128 -178.187 413.322 -75.5506 382.972C27.086 352.623 134.892 411.224 165.242 513.86ZM-161.179 610.381C-138.221 688.022 -56.6698 732.351 20.9706 709.393C98.611 686.435 142.94 604.884 119.982 527.243C97.0239 449.603 15.4729 405.274 -62.1675 428.232C-139.808 451.19 -184.137 532.741 -161.179 610.381Z" fill="#6765D9"/>
<path opacity="0.7" d="M84.1334 537.843C101.237 595.686 68.212 656.441 10.3698 673.545C-47.4724 690.649 -108.228 657.624 -125.332 599.781C-142.435 541.939 -109.41 481.184 -51.5682 464.08C6.27401 446.976 67.0297 480.001 84.1334 537.843ZM-86.1265 588.189C-75.4254 624.378 -37.4128 645.041 -1.22299 634.34C34.9668 623.639 55.6294 585.626 44.9282 549.436C34.227 513.246 -3.7856 492.584 -39.9754 503.285C-76.1651 513.986 -96.8277 551.999 -86.1265 588.189Z" fill="#6765D9"/>
</svg>
