<svg width="252" height="103" viewBox="0 0 252 103" fill="none" xmlns="http://www.w3.org/2000/svg">
<g clip-path="url(#clip0_1977_28)">
<path d="M249.208 16.4704C249.888 16.6632 250.464 17.1172 250.81 17.7331C251.157 18.349 251.245 19.0769 251.056 19.7576L228.47 100.336C228.277 101.014 227.823 101.59 227.207 101.936C226.592 102.281 225.864 102.37 225.183 102.182L211.025 98.2213C210.345 98.0293 209.769 97.576 209.423 96.9607C209.076 96.3453 208.988 95.6179 209.177 94.9376L217.048 66.8494C217.237 66.1691 217.149 65.4417 216.802 64.8264C216.456 64.211 215.88 63.7577 215.2 63.5657L177.791 53.0977C177.113 52.904 176.538 52.4504 176.192 51.8356C175.846 51.2207 175.756 50.4942 175.943 49.8139L189.22 2.44408C189.412 1.76469 189.866 1.18899 190.482 0.842892C191.098 0.496792 191.826 0.408461 192.506 0.59721L206.668 4.56193C207.348 4.75473 207.923 5.20831 208.269 5.82359C208.614 6.43886 208.702 7.16583 208.513 7.84566L200.642 35.9303C200.453 36.6106 200.541 37.338 200.888 37.9533C201.234 38.5687 201.81 39.022 202.49 39.214L220.602 44.284C221.283 44.4728 222.011 44.3844 222.627 44.0383C223.242 43.6922 223.696 43.1165 223.888 42.4371L231.763 14.3525C231.955 13.6731 232.409 13.0974 233.025 12.7513C233.641 12.4052 234.369 12.3169 235.049 12.5056L249.208 16.4704Z" fill="#80C9F5"/>
<path d="M57.6452 5.89162C58.3069 5.64473 59.0394 5.66922 59.683 5.95975C60.3267 6.25027 60.8293 6.78328 61.0813 7.44256L90.7147 85.7137C90.9628 86.3748 90.9387 87.1071 90.6479 87.7505C90.357 88.394 89.823 88.8961 89.1626 89.1471L75.411 94.3455C74.7498 94.5936 74.0173 94.57 73.3735 94.2801C72.7296 93.9902 72.2268 93.4574 71.9749 92.7981L61.6273 65.5157C61.3761 64.8559 60.8734 64.3225 60.2293 64.0324C59.5852 63.7423 58.8522 63.7193 58.1912 63.9683L21.8747 77.6987C21.213 77.9456 20.4805 77.9211 19.8369 77.6305C19.1932 77.34 18.6906 76.807 18.4386 76.1477L1.01891 30.1541C0.771836 29.493 0.796349 28.761 1.0871 28.1179C1.37785 27.4747 1.91126 26.9725 2.57105 26.7206L16.3191 21.5116C16.9807 21.2647 17.7132 21.2892 18.3569 21.5797C19.0006 21.8703 19.5032 22.4033 19.7552 23.0626L30.0814 50.3414C30.3334 51.0007 30.836 51.5337 31.4797 51.8242C32.1233 52.1147 32.8558 52.1392 33.5175 51.8923L51.1191 45.2536C51.7788 45.0018 52.3121 44.4994 52.6022 43.856C52.8924 43.2127 52.9159 42.4807 52.6677 41.8201L42.3415 14.5377C42.0944 13.8766 42.1189 13.1446 42.4097 12.5014C42.7004 11.8583 43.2338 11.356 43.8936 11.1042L57.6452 5.89162Z" fill="#80C9F5"/>
<path d="M133.333 6.5625C125.57 6.5625 117.981 8.86268 111.527 13.1722C105.072 17.4816 100.041 23.6069 97.0707 30.7733C94.1 37.9396 93.3227 45.8254 94.8372 53.4332C96.3516 61.041 100.09 68.0292 105.579 73.5141C111.068 78.999 118.062 82.7343 125.675 84.2476C133.289 85.7609 141.181 84.9842 148.353 82.0158C155.525 79.0474 161.654 74.0205 165.967 67.5709C170.28 61.1213 172.582 53.5387 172.582 45.7818C172.582 35.3802 168.447 25.4046 161.086 18.0496C153.725 10.6945 143.742 6.5625 133.333 6.5625ZM154.588 51.3938C153.173 56.8213 149.743 61.507 144.995 64.4989C140.247 67.4908 134.538 68.5645 129.026 67.502C123.515 66.4394 118.615 63.3203 115.322 58.7782C112.029 54.2361 110.59 48.6118 111.297 43.0477C112.004 37.4836 114.804 32.3972 119.129 28.8217C123.454 25.2462 128.978 23.4498 134.58 23.7974C140.183 24.1451 145.442 26.6106 149.291 30.6933C153.14 34.776 155.289 40.1696 155.302 45.7783C155.307 47.673 155.067 49.5605 154.588 51.3938Z" fill="#80C9F5"/>
<path style="mix-blend-mode:multiply" opacity="0.4" d="M148.39 57.6895C148.39 57.6895 150.46 59.6718 151.523 65.1982C151.523 65.1982 144.387 70.6889 138.496 71.5945C132.605 72.5001 125.044 73.666 124.459 77.9694C123.873 82.2729 121.797 83.3175 121.797 83.3175C121.797 83.3175 120.148 80.2156 120.947 75.0066C121.747 69.7975 124.098 68.4712 127.495 67.4622C130.892 66.4532 148.39 57.6895 148.39 57.6895Z" fill="url(#paint0_linear_1977_28)"/>
<path d="M153.428 69.5884C152.715 66.6754 153.271 64.2759 153.1 60.0082C153.1 59.8156 153.082 59.6195 153.071 59.4234C153.024 58.4542 152.877 57.4923 152.633 56.5533C151.969 54.086 150.848 53.1483 150.848 53.1483C149.443 52.4353 146.317 51.4548 141.546 53.9256C141.468 53.9629 141.392 54.0046 141.318 54.0504C138.371 55.6512 136.398 58.3075 135.352 60.0153C134.995 60.5964 134.749 61.0849 134.606 61.3523V61.3737L134.364 61.4414C132.739 61.8448 131.082 62.099 129.411 62.2009C128.612 62.265 127.816 62.3114 127.07 62.3471H126.871C126.057 62.3898 122.914 62.618 120.719 63.734C121.799 64.5018 122.945 65.1712 124.145 65.7342C125.896 65.2493 127.531 64.8678 127.92 64.7822C126.889 65.1307 125.89 65.566 124.933 66.0836C124.309 66.4009 123.567 66.7967 122.699 67.2709C118.639 69.5278 119.192 70.7186 118.86 73.4319C118.528 76.1451 119.952 82.8909 119.952 82.8909C119.952 82.8909 119.709 83.2474 119.374 83.6966C118.692 84.7199 119.203 84.9659 119.203 84.9659C119.203 84.9659 120.933 83.8714 121.818 83.2973L122.036 83.1547C122.61 82.7696 122.036 82.3311 122.036 82.3311L121.989 82.1635C121.988 82.1445 121.988 82.1255 121.989 82.1065C121.989 82.0459 121.961 81.9853 121.95 81.9282C121.939 81.8712 121.95 81.8355 121.925 81.7892C121.9 81.7428 121.925 81.6893 121.925 81.6359C121.811 80.7338 121.964 79.6963 122.007 77.5891C122.061 74.9329 121.415 73.0896 122.403 72.1662C123.627 70.7792 127.177 69.7524 131.081 68.8396C132.794 68.4439 134.571 68.066 136.251 67.688L136.943 67.5347C138.339 67.2138 139.652 66.8965 140.772 66.5614H140.797C141.327 66.4023 141.847 66.2105 142.353 65.9873C142.852 65.7667 143.337 65.5154 143.805 65.235C146.008 63.9634 148 62.3577 149.71 60.4752C149.71 60.5893 149.771 61.0386 149.889 61.7481C150.153 63.3561 150.706 66.2939 151.559 69.6276C151.758 70.2801 152.272 71.6064 151.915 72.0984C151.559 72.5904 151.359 73.4996 151.969 73.5495C152.579 73.5994 152.422 73.1252 152.779 73.1181C153.564 73.1181 153.418 73.3927 153.41 74.6833C153.403 75.974 154.413 75.7957 154.542 74.6833C154.67 73.5709 154.188 72.6297 153.428 69.5884ZM138.546 59.6694C139.461 58.6072 140.527 57.6847 141.71 56.9312C142.456 56.4285 143.024 56.104 143.07 56.0791C143.024 56.1468 141.757 57.9224 138.546 59.6694Z" fill="#EEAB81"/>
<path d="M153.1 60.0071C151.908 60.3514 150.801 60.9431 149.853 61.7434C149.735 61.0304 149.675 60.5847 149.675 60.4706C147.964 62.3493 145.972 63.9513 143.769 65.2197C143.301 65.5001 142.816 65.7513 142.317 65.972L141.86 66.161C141.668 66.2394 141.471 66.3143 141.272 66.382L140.761 66.546H140.736C139.616 66.8812 138.303 67.1985 136.908 67.5194L136.216 67.6727C135.863 65.5192 135.238 63.4191 134.357 61.4226L134.599 61.3548V61.3334C135.19 61.1671 135.765 60.9512 136.319 60.6881C137.414 60.2103 138.549 59.6506 138.549 59.6506C141.76 57.9035 143.027 56.1279 143.073 56.0602C143.027 56.0852 142.46 56.4167 141.714 56.9123C141.709 55.9384 141.573 54.9695 141.311 54.0315C141.385 53.9857 141.461 53.944 141.539 53.9067C146.31 51.4359 149.435 52.4092 150.841 53.1294C150.841 53.1294 151.972 54.0671 152.625 56.5344C152.87 57.4735 153.017 58.4353 153.064 59.4045C153.082 59.6185 153.093 59.8146 153.1 60.0071Z" fill="#EEB217"/>
<path d="M155.302 46.7951C155.126 47.8491 154.764 48.8633 154.231 49.79C153.773 50.597 153.128 51.2828 152.351 51.7902C151.938 52.0547 151.488 52.2555 151.016 52.3856C150.883 52.4123 150.746 52.4123 150.613 52.3856C150.483 52.3627 150.36 52.3075 150.256 52.2252C149.353 51.5121 149.749 48.7596 150.071 47.1766C150.071 47.0803 150.106 46.9948 150.124 46.9092C150.46 45.344 151.509 44.5774 152.861 44.4883C153.028 44.5943 153.209 44.676 153.4 44.7307C153.693 44.8004 153.999 44.8004 154.292 44.7307C155.262 45.3226 155.302 46.7951 155.302 46.7951Z" fill="#EEAB81"/>
<path d="M156.843 45.8781C156.907 48.5593 154.231 49.8 154.231 49.8C154.252 49.6931 154.945 46.0279 153.774 46.4842C152.632 47.0673 151.346 47.3075 150.071 47.1759L149.782 47.1224C147.762 46.6839 148.026 43.935 150.01 43.4287C151.683 43.0044 152.001 43.9492 152.864 44.4983C153.072 44.6362 153.306 44.7298 153.552 44.7733C153.797 44.8169 154.049 44.8094 154.292 44.7514C155.476 44.5161 156.789 43.7496 156.843 45.8781Z" fill="#0D2436"/>
<path d="M151.848 52.0664V52.0842L151.783 52.2197C151.705 52.3909 151.623 52.5763 151.537 52.7581C151.258 53.3891 150.945 54.0044 150.599 54.6014C150.014 55.5213 148.815 55.2289 149.303 54.1664C149.393 53.9703 149.5 53.7457 149.617 53.5068L149.714 53.3107C149.896 52.9542 150.092 52.5477 150.27 52.1948C150.374 52.2771 150.497 52.3322 150.627 52.3552C150.76 52.3819 150.897 52.3819 151.03 52.3552C151.311 52.2834 151.584 52.1867 151.848 52.0664Z" fill="#EEAB81"/>
<path d="M136.208 67.6919C134.528 68.0698 132.751 68.4478 131.038 68.8435C127.135 69.7563 123.584 70.7831 122.36 72.17C121.372 73.0935 122.004 74.9368 121.964 77.593C121.922 79.7001 121.768 80.7377 121.882 81.6397C121.882 81.6932 121.882 81.7396 121.882 81.793C121.882 81.8465 121.882 81.8822 121.907 81.9321C121.906 81.9475 121.906 81.963 121.907 81.9784C121.907 82.0212 121.907 82.0676 121.936 82.1104C121.934 82.1293 121.934 82.1484 121.936 82.1674L121.982 82.335C121.982 82.335 122.553 82.7735 121.982 83.1586L121.765 83.3012C120.88 83.8752 119.149 84.9698 119.149 84.9698C119.149 84.9698 118.639 84.7238 119.32 83.7005C119.656 83.2513 119.898 82.8947 119.898 82.8947C119.898 82.8947 118.471 76.1454 118.807 73.4357C119.142 70.726 118.585 69.5316 122.646 67.2747C123.513 66.797 124.255 66.4048 124.88 66.0875C125.836 65.5699 126.836 65.1345 127.866 64.7861C127.477 64.8717 125.843 65.2532 124.091 65.7381C122.892 65.175 121.745 64.5056 120.666 63.7379C122.86 62.6219 126.018 62.3937 126.817 62.3509H127.017C127.763 62.3153 128.558 62.2689 129.358 62.2047C131.028 62.1029 132.686 61.8487 134.31 61.4453C135.205 63.4389 135.843 65.5378 136.208 67.6919Z" fill="#2C2C2C"/>
<path d="M151.848 52.0664V52.0842C151.829 52.1307 151.808 52.176 151.784 52.2197C151.605 52.5442 151.07 53.2502 149.617 53.507L149.714 53.3108C149.896 52.9543 150.092 52.5478 150.27 52.1948C150.374 52.2771 150.497 52.3323 150.627 52.3552C150.76 52.3819 150.897 52.3819 151.031 52.3552C151.311 52.2834 151.584 52.1868 151.848 52.0664Z" fill="#D68B6F"/>
</g>
<defs>
<linearGradient id="paint0_linear_1977_28" x1="132.448" y1="62.3459" x2="135.765" y2="71.3965" gradientUnits="userSpaceOnUse">
<stop/>
<stop offset="0.99"/>
</linearGradient>
<clipPath id="clip0_1977_28">
<rect width="250.305" height="101.781" fill="white" transform="translate(0.847641 0.503906)"/>
</clipPath>
</defs>
</svg>
