<svg width="722" height="155" viewBox="0 0 722 155" fill="none" xmlns="http://www.w3.org/2000/svg">
<g style="mix-blend-mode:multiply" opacity="0.45">
<g style="mix-blend-mode:multiply" opacity="0.03">
<path d="M479.682 88.5669L437.886 117.798C436.066 122.203 465.134 128.241 472.052 128.241H685.554C692.745 128.241 721.856 121.876 719.533 117.385L674.754 88.6521L479.682 88.5669Z" fill="#F3F3F3"/>
</g>
<g style="mix-blend-mode:multiply" opacity="0.06">
<path d="M480.646 88.8418L440.269 117.261C438.535 121.445 467.386 127.183 473.941 127.183H683.676C690.495 127.183 719.402 121.138 717.194 116.869L673.719 89.0191L480.646 88.8418Z" fill="#E7E7E7"/>
</g>
<g style="mix-blend-mode:multiply" opacity="0.09">
<path d="M481.613 89.1162L442.647 116.734C441.006 120.7 469.636 126.135 475.863 126.135H681.826C688.3 126.135 716.977 120.406 714.888 116.366L672.734 89.3992L481.613 89.1162Z" fill="#DBDBDB"/>
</g>
<g style="mix-blend-mode:multiply" opacity="0.12">
<path d="M482.582 89.3916L445.027 116.191C443.479 119.942 471.879 125.056 477.765 125.056H679.964C686.076 125.056 714.54 119.645 712.566 115.83L671.725 89.7496L482.582 89.3916Z" fill="#CECECE"/>
</g>
<g style="mix-blend-mode:multiply" opacity="0.15">
<path d="M483.546 89.669L447.406 115.657C445.948 119.179 474.139 124.011 479.671 124.011H678.097C683.852 124.011 712.098 118.92 710.244 115.326L670.711 90.1293L483.546 89.669Z" fill="#C2C2C2"/>
</g>
<g style="mix-blend-mode:multiply" opacity="0.19">
<path d="M484.51 89.9482L449.785 115.121C448.417 118.425 476.382 122.964 481.573 122.964H676.232C681.624 122.964 709.657 118.19 707.914 114.821L669.698 90.5107L484.51 89.9482Z" fill="#B6B6B6"/>
</g>
<g style="mix-blend-mode:multiply" opacity="0.22">
<path d="M486.168 89.3409L451.861 113.79C450.544 116.87 479.119 121.127 484.109 121.127H680.693C685.877 121.127 714.523 116.658 712.846 113.503L674.842 89.9876L486.168 89.3409Z" fill="#AAAAAA"/>
</g>
<g style="mix-blend-mode:multiply" opacity="0.25">
<path d="M486.444 90.5005L454.545 114.051C453.361 116.915 480.886 120.839 485.383 120.839H672.498C677.186 120.839 704.772 116.704 703.263 113.785L667.673 91.2404L486.444 90.5005Z" fill="#9E9E9E"/>
</g>
<g style="mix-blend-mode:multiply" opacity="0.28">
<path d="M487.41 90.7754L456.921 113.514C455.83 116.157 483.135 119.781 487.286 119.781H670.641C674.954 119.781 702.34 115.962 700.946 113.269L666.669 91.6073L487.41 90.7754Z" fill="#929292"/>
</g>
<g style="mix-blend-mode:multiply" opacity="0.31">
<path d="M488.376 91.0547L459.302 112.985C458.301 115.406 485.383 118.727 489.19 118.727H668.773C672.728 118.727 699.887 115.229 698.609 112.757L665.64 91.9821L488.376 91.0547Z" fill="#868686"/>
</g>
<g style="mix-blend-mode:multiply" opacity="0.34">
<path d="M489.342 91.3341L461.684 112.45C460.772 114.653 487.637 117.67 491.094 117.67H666.909C670.506 117.67 697.456 114.489 696.297 112.242L664.641 92.3536L489.342 91.3341Z" fill="#797979"/>
</g>
<g style="mix-blend-mode:multiply" opacity="0.37">
<path d="M490.308 91.6089L464.061 111.913C463.243 113.894 489.886 116.612 492.998 116.612H665.049C668.284 116.612 695.022 113.748 693.973 111.729L663.634 92.7205L490.308 91.6089Z" fill="#6D6D6D"/>
</g>
<g style="mix-blend-mode:multiply" opacity="0.4">
<path d="M491.275 91.8839L466.443 111.377C465.714 113.139 492.136 115.554 494.902 115.554H663.182C666.059 115.554 692.592 113.01 691.65 111.213L662.623 93.0909L491.275 91.8839Z" fill="#616161"/>
</g>
<g style="mix-blend-mode:multiply" opacity="0.43">
<path d="M492.238 92.1611L468.821 110.843C468.182 112.384 494.395 114.498 496.807 114.498H661.332C663.846 114.498 690.153 112.271 689.339 110.699L661.634 93.4602L492.238 92.1611Z" fill="#555555"/>
</g>
<g style="mix-blend-mode:multiply" opacity="0.46">
<path d="M493.206 92.4379L471.199 110.311C470.654 111.631 496.637 113.441 498.712 113.441H659.452C661.613 113.441 687.698 111.532 687.003 110.185L660.577 93.8188L493.206 92.4379Z" fill="#494949"/>
</g>
<g style="mix-blend-mode:multiply" opacity="0.5">
<path d="M494.174 92.7173L473.578 109.765C473.122 110.867 498.888 112.374 500.614 112.374H657.59C659.388 112.374 685.261 110.785 684.681 109.646L659.589 94.1766L494.174 92.7173Z" fill="#3D3D3D"/>
</g>
<g style="mix-blend-mode:multiply" opacity="0.53">
<path d="M495.137 92.9971L475.957 109.244C475.59 110.124 501.134 111.331 502.515 111.331H655.723C657.16 111.331 682.814 110.059 682.354 109.162L658.575 94.5757L495.137 92.9971Z" fill="#313131"/>
</g>
<g style="mix-blend-mode:multiply" opacity="0.56">
<path d="M496.106 93.2676L478.341 108.703C478.068 109.364 503.391 110.268 504.426 110.268H653.862C654.94 110.268 680.382 109.313 680.033 108.642L657.57 94.9417L496.106 93.2676Z" fill="#242424"/>
</g>
<g style="mix-blend-mode:multiply" opacity="0.59">
<path d="M497.067 93.5469L480.717 108.171C480.534 108.611 505.634 109.218 506.329 109.218H651.988C652.709 109.218 677.933 108.58 677.698 108.13L656.549 95.313L497.067 93.5469Z" fill="#181818"/>
</g>
<g style="mix-blend-mode:multiply" opacity="0.62">
<path d="M498.036 93.8218L483.097 107.634C483.007 107.856 507.886 108.159 508.244 108.159H650.14C650.502 108.159 675.509 107.839 675.394 107.614L655.553 95.6801L498.036 93.8218Z" fill="#0C0C0C"/>
</g>
<g style="mix-blend-mode:multiply" opacity="0.65">
<path d="M485.479 107.102H673.062L654.538 96.0514L499.003 94.1011L485.479 107.102Z" fill="black"/>
</g>
</g>
<path d="M460.898 112.045H701.565V43.9316L460.898 43.9451V112.045Z" fill="#D57747"/>
<path d="M461.006 43.932H701.565L673.604 25.7686H488.495L460.979 43.6438C460.847 43.7122 460.892 43.932 461.006 43.932Z" fill="#E8EAED"/>
<path d="M602.284 75.7958C603.692 76.2859 604.875 77.2649 605.62 78.5543C606.35 79.8276 606.715 82.8194 606.715 87.5297C606.715 91.0249 606.358 93.7371 605.643 95.6664C604.981 97.5313 603.667 99.0943 601.942 100.067C600.187 101.069 597.939 101.572 595.196 101.574C592.078 101.574 589.631 100.99 587.855 99.8219C586.079 98.654 584.91 97.2248 584.348 95.5342C583.786 93.8415 583.505 90.9044 583.505 86.7232V83.2485H593.345V90.3883C593.345 92.2896 593.447 93.4973 593.649 94.0114C593.851 94.5254 594.302 94.7835 595.002 94.7857C595.326 94.816 595.65 94.7372 595.923 94.5617C596.197 94.3863 596.403 94.1243 596.51 93.8178C596.756 93.1725 596.878 91.4713 596.878 88.7138V85.6746C596.878 83.9905 596.707 82.7592 596.365 81.9805C596.235 81.634 596.033 81.3186 595.773 81.0546C595.514 80.7907 595.201 80.584 594.857 80.4481C594.187 80.2029 592.895 80.063 590.981 80.0286V73.647C593.319 73.647 594.764 73.547 595.315 73.347C595.599 73.2372 595.855 73.0638 596.061 72.8401C596.268 72.6164 596.42 72.3483 596.507 72.0565C596.752 71.3854 596.875 70.3368 596.875 68.9044V66.462C596.875 64.9231 596.73 63.9101 596.449 63.4229C596.319 63.188 596.126 62.9944 595.891 62.8643C595.656 62.7342 595.39 62.6728 595.121 62.6873C594.837 62.6593 594.55 62.7183 594.3 62.8566C594.05 62.9949 593.847 63.2059 593.72 63.4617C593.468 63.9779 593.342 65.078 593.342 66.7622V70.3724H583.502V66.6266C583.502 62.426 584.363 59.589 586.085 58.1157C587.808 56.6423 590.543 55.9046 594.292 55.9024C598.985 55.9024 602.167 56.9241 603.838 58.9674C605.508 61.0107 606.345 63.8499 606.347 67.4848C606.347 69.9476 606.047 71.7253 605.446 72.8179C604.845 73.9105 603.791 74.9032 602.284 75.7958Z" fill="white"/>
<g style="mix-blend-mode:multiply" opacity="0.45">
<g style="mix-blend-mode:multiply" opacity="0.03">
<path d="M49.9597 90.0169L2.78456 123.159C0.726841 128.164 33.5402 135.027 41.3519 135.027H282.347C290.463 135.027 323.323 127.792 320.702 122.691L270.165 90.1021L49.9597 90.0169Z" fill="#F3F3F3"/>
</g>
<g style="mix-blend-mode:multiply" opacity="0.06">
<path d="M51.0507 90.3266L5.46749 122.473C3.51561 127.246 36.0792 133.748 43.4972 133.748H280.241C287.951 133.748 320.566 126.878 318.076 122.029L269.012 90.5073L51.0507 90.3266Z" fill="#E7E7E7"/>
</g>
<g style="mix-blend-mode:multiply" opacity="0.09">
<path d="M52.143 90.642L8.16036 121.796C6.31011 126.296 38.6239 132.475 45.6523 132.475H278.141C285.445 132.475 317.818 125.966 315.459 121.373L267.878 90.9181L52.143 90.642Z" fill="#DBDBDB"/>
</g>
<g style="mix-blend-mode:multiply" opacity="0.12">
<path d="M53.2356 90.9526L10.8448 121.111C9.09611 125.363 41.1644 131.197 47.8033 131.197H276.016C282.913 131.197 315.044 125.059 312.813 120.712L266.714 91.3243L53.2356 90.9526Z" fill="#CECECE"/>
</g>
<g style="mix-blend-mode:multiply" opacity="0.15">
<path d="M54.3236 91.2714L13.5334 120.431C11.8864 124.434 43.7048 129.926 49.9457 129.926H273.924C280.415 129.926 312.301 124.13 310.205 120.056L265.587 91.7351L54.3236 91.2714Z" fill="#C2C2C2"/>
</g>
<g style="mix-blend-mode:multiply" opacity="0.19">
<path d="M55.4121 91.5864L16.2137 119.75C14.6726 123.5 46.2412 128.652 52.0968 128.652H271.841C277.93 128.652 309.57 123.228 307.601 119.399L264.465 92.1489L55.4121 91.5864Z" fill="#B6B6B6"/>
</g>
<g style="mix-blend-mode:multiply" opacity="0.22">
<path d="M56.5051 91.8969L18.8987 119.068C17.4591 122.57 48.7781 127.374 54.2484 127.374H269.742C275.424 127.374 306.819 122.311 304.985 118.738L263.327 92.5549L56.5051 91.8969Z" fill="#AAAAAA"/>
</g>
<g style="mix-blend-mode:multiply" opacity="0.25">
<path d="M57.5954 92.2123L21.6064 118.388C20.2685 121.641 51.3375 126.101 56.4141 126.101H267.627C272.902 126.101 304.039 121.399 302.346 118.085L262.174 92.9659L57.5954 92.2123Z" fill="#9E9E9E"/>
</g>
<g style="mix-blend-mode:multiply" opacity="0.28">
<path d="M58.688 92.5312L24.2742 117.708C23.0421 120.712 53.8612 124.831 58.5483 124.831H265.51C270.379 124.831 301.287 120.49 299.717 117.428L261.022 93.3769L58.688 92.5312Z" fill="#929292"/>
</g>
<g style="mix-blend-mode:multiply" opacity="0.31">
<path d="M59.7739 92.8461L26.9564 117.027C25.8259 119.782 56.3995 123.557 60.697 123.557H263.391C267.854 123.557 298.533 119.578 297.077 116.772L259.868 93.7872L59.7739 92.8461Z" fill="#868686"/>
</g>
<g style="mix-blend-mode:multiply" opacity="0.34">
<path d="M60.869 93.1562L29.6477 116.342C28.6188 118.841 58.9425 122.274 62.8462 122.274H261.306C265.362 122.274 295.784 118.657 294.475 116.106L258.745 94.1893L60.869 93.1562Z" fill="#797979"/>
</g>
<g style="mix-blend-mode:multiply" opacity="0.37">
<path d="M61.9547 93.4731L32.3167 115.663C31.3937 117.913 61.4677 121.002 64.9819 121.002H259.187C262.836 121.002 293.016 117.75 291.835 115.452L257.59 94.6017L61.9547 93.4731Z" fill="#6D6D6D"/>
</g>
<g style="mix-blend-mode:multiply" opacity="0.4">
<path d="M63.0467 93.7885L35.0178 114.983C34.1922 116.984 64.0206 119.729 67.1453 119.729H257.095C260.338 119.729 290.277 116.838 289.227 114.795L256.46 95.0193L63.0467 93.7885Z" fill="#616161"/>
</g>
<g style="mix-blend-mode:multiply" opacity="0.43">
<path d="M64.1343 94.1005L37.7014 114.299C36.9816 116.052 66.5602 118.455 69.2912 118.455H254.99C257.831 118.455 287.52 115.922 286.601 114.135L255.32 95.4235L64.1343 94.1005Z" fill="#555555"/>
</g>
<g style="mix-blend-mode:multiply" opacity="0.46">
<path d="M65.239 94.416L40.3982 113.622C39.7842 115.123 69.1132 117.182 71.4546 117.182H252.894C255.333 117.182 284.78 115.01 283.992 113.479L254.189 95.8344L65.239 94.416Z" fill="#494949"/>
</g>
<g style="mix-blend-mode:multiply" opacity="0.5">
<path d="M66.3146 94.7348L43.0742 112.942C42.5576 114.194 71.6367 115.909 73.5928 115.909H250.777C252.809 115.909 282.011 114.101 281.355 112.823L253.038 96.2452L66.3146 94.7348Z" fill="#3D3D3D"/>
</g>
<g style="mix-blend-mode:multiply" opacity="0.53">
<path d="M67.4079 95.0429L45.7595 112.255C45.3361 113.257 74.1779 114.641 75.7402 114.641H248.674C250.299 114.641 279.26 113.196 278.735 112.176L251.896 96.6625L67.4079 95.0429Z" fill="#313131"/>
</g>
<g style="mix-blend-mode:multiply" opacity="0.56">
<path d="M68.5008 95.3598L48.4443 111.576C48.1395 112.326 76.7188 113.356 77.8917 113.356H246.57C247.789 113.356 276.504 112.272 276.115 111.508L250.757 97.0612L68.5008 95.3598Z" fill="#242424"/>
</g>
<g style="mix-blend-mode:multiply" opacity="0.59">
<path d="M69.5903 95.6728L51.1344 110.897C50.927 111.395 79.2608 112.083 80.0441 112.083H244.467C245.28 112.083 273.754 111.357 273.491 110.849L249.616 97.4697L69.5903 95.6728Z" fill="#181818"/>
</g>
<g style="mix-blend-mode:multiply" opacity="0.62">
<path d="M70.6804 95.9921L53.8079 110.217C53.7063 110.466 81.7904 110.81 82.1756 110.81H242.348C242.771 110.81 270.982 110.449 270.855 110.193L248.461 97.8811L70.6804 95.9921Z" fill="#0C0C0C"/>
</g>
<g style="mix-blend-mode:multiply" opacity="0.65">
<path d="M56.5083 109.534H268.25L247.339 98.289L71.7761 96.3046L56.5083 109.534Z" fill="black"/>
</g>
</g>
<path d="M27.2451 116.586H297.427V39.3911L27.2451 39.408V116.586Z" fill="#CAC7C7"/>
<path d="M27.3606 39.391H297.427L266.032 18.957H58.2048L27.3069 39.0664C27.1949 39.1413 27.2487 39.391 27.3606 39.391Z" fill="#E8EAED"/>
<g opacity="0.85" filter="url(#filter0_f_573_5950)">
<path d="M255.718 116.703V66.7534C234.916 92.1515 204.259 107.39 146.23 116.703H255.718Z" fill="#B5B5B5"/>
</g>
<path d="M167.469 95.0121V103.997H141.507V96.4771C149.197 82.4548 153.768 73.7784 155.22 70.4479C156.671 67.1175 157.396 64.518 157.394 62.6496C157.394 61.2172 157.175 60.1487 156.736 59.4444C156.53 59.1027 156.235 58.8236 155.882 58.6369C155.53 58.4503 155.132 58.3632 154.734 58.3849C154.322 58.3695 153.913 58.473 153.558 58.6829C153.203 58.8928 152.916 59.2003 152.731 59.5687C152.293 60.3579 152.074 61.9097 152.074 64.2241V69.2375H141.501V67.3168C141.462 64.9826 141.598 62.6488 141.91 60.3352C142.221 58.5356 142.907 56.8214 143.924 55.304C144.946 53.6971 146.391 52.402 148.101 51.5602C149.813 50.7138 151.867 50.2905 154.263 50.2905C158.955 50.2905 162.503 51.5878 164.907 54.1823C167.31 56.7768 168.513 60.059 168.515 64.0287C168.515 67.0474 167.838 70.2378 166.483 73.5999C165.128 76.9619 161.142 84.1033 154.524 95.024L167.469 95.0121Z" fill="white"/>
<g style="mix-blend-mode:multiply" opacity="0.45">
<g style="mix-blend-mode:multiply" opacity="0.03">
<path d="M256.726 93.8812L206.58 137.736C204.392 144.333 239.273 153.386 247.573 153.386H503.749C512.38 153.386 547.308 143.839 544.523 137.119L490.793 94.021L256.726 93.8812Z" fill="#F3F3F3"/>
</g>
<g style="mix-blend-mode:multiply" opacity="0.06">
<path d="M257.89 94.309L209.426 136.998C207.351 143.264 241.965 151.863 249.853 151.863H501.507C509.698 151.863 544.373 142.804 541.728 136.411L489.571 94.5919L257.89 94.309Z" fill="#E7E7E7"/>
</g>
<g style="mix-blend-mode:multiply" opacity="0.09">
<path d="M259.045 94.7328L212.287 136.259C210.318 142.198 244.669 150.344 252.14 150.344H499.275C507.04 150.344 541.449 141.758 538.944 135.703L488.354 95.1658L259.045 94.7328Z" fill="#DBDBDB"/>
</g>
<g style="mix-blend-mode:multiply" opacity="0.12">
<path d="M260.204 95.1581L215.153 135.518C213.296 141.127 247.381 148.815 254.439 148.815H497.048C504.383 148.815 538.536 140.707 536.168 134.989L487.151 95.7275L260.204 95.1581Z" fill="#CECECE"/>
</g>
<g style="mix-blend-mode:multiply" opacity="0.15">
<path d="M261.365 95.5838L218 134.795C216.253 140.073 250.082 147.315 256.713 147.315H494.804C501.705 147.315 535.599 139.684 533.37 134.3L485.93 96.3271L261.365 95.5838Z" fill="#C2C2C2"/>
</g>
<g style="mix-blend-mode:multiply" opacity="0.19">
<path d="M262.523 96.0052L220.858 134.036C219.216 138.984 252.773 145.772 259.001 145.772H492.566C499.051 145.772 532.672 138.612 530.583 133.572L484.727 96.8781L262.523 96.0052Z" fill="#B6B6B6"/>
</g>
<g style="mix-blend-mode:multiply" opacity="0.22">
<path d="M263.684 96.4335L223.711 133.298C222.182 137.915 255.472 144.254 261.284 144.254H490.331C496.368 144.254 529.743 137.574 527.795 132.865L483.515 97.4529L263.684 96.4335Z" fill="#AAAAAA"/>
</g>
<g style="mix-blend-mode:multiply" opacity="0.25">
<path d="M264.845 96.8588L226.583 132.551C225.16 136.837 258.19 142.722 263.582 142.722H488.107C493.718 142.722 526.834 136.523 525.021 132.152L482.315 98.0214L264.845 96.8588Z" fill="#9E9E9E"/>
</g>
<g style="mix-blend-mode:multiply" opacity="0.28">
<path d="M265.999 97.2826L229.419 131.815C228.109 135.777 260.873 141.205 265.852 141.205H485.854C491.032 141.205 523.888 135.484 522.216 131.447L481.087 98.5987L265.999 97.2826Z" fill="#929292"/>
</g>
<g style="mix-blend-mode:multiply" opacity="0.31">
<path d="M267.161 97.7079L232.278 131.074C231.076 134.706 263.574 139.684 268.137 139.684H483.617C488.365 139.684 520.962 134.436 519.429 130.737L479.877 99.1706L267.161 97.7079Z" fill="#868686"/>
</g>
<g style="mix-blend-mode:multiply" opacity="0.34">
<path d="M268.32 98.1361L235.133 130.337C234.04 133.637 266.276 138.162 270.426 138.162H481.384C485.698 138.162 518.035 133.388 516.643 130.03L478.664 99.7454L268.32 98.1361Z" fill="#797979"/>
</g>
<g style="mix-blend-mode:multiply" opacity="0.37">
<path d="M269.479 98.5551L237.988 129.583C237.005 132.553 268.974 136.627 272.708 136.627H479.14C483.021 136.627 515.102 132.334 513.846 129.307L477.444 100.304L269.479 98.5551Z" fill="#6D6D6D"/>
</g>
<g style="mix-blend-mode:multiply" opacity="0.4">
<path d="M270.639 98.9833L240.844 128.855C239.967 131.494 271.673 135.115 274.994 135.115H476.907C480.358 135.115 512.18 131.3 511.064 128.61L476.235 100.889L270.639 98.9833Z" fill="#616161"/>
</g>
<g style="mix-blend-mode:multiply" opacity="0.43">
<path d="M271.794 99.4109L243.695 128.117C242.931 130.428 274.371 133.596 277.275 133.596H474.67C477.69 133.596 509.25 130.258 508.274 127.902L475.022 101.464L271.794 99.4109Z" fill="#555555"/>
</g>
<g style="mix-blend-mode:multiply" opacity="0.46">
<path d="M272.955 99.8187L246.552 127.362C245.894 129.343 277.071 132.057 279.562 132.057H472.431C475.022 132.057 506.322 129.196 505.489 127.178L473.807 102.021L272.955 99.8187Z" fill="#494949"/>
</g>
<g style="mix-blend-mode:multiply" opacity="0.5">
<path d="M274.115 100.258L249.405 126.635C248.859 128.285 279.78 130.549 281.828 130.549H470.179C472.336 130.549 503.38 128.163 502.683 126.482L472.578 102.614L274.115 100.258Z" fill="#3D3D3D"/>
</g>
<g style="mix-blend-mode:multiply" opacity="0.53">
<path d="M275.273 100.686L252.262 125.897C251.826 127.216 282.47 129.027 284.132 129.027H467.957C469.684 129.027 500.469 127.121 499.913 125.774L471.384 103.182L275.273 100.686Z" fill="#313131"/>
</g>
<g style="mix-blend-mode:multiply" opacity="0.56">
<path d="M276.434 101.107L255.117 125.155C254.775 126.144 285.171 127.501 286.417 127.501H465.723C467.016 127.501 497.542 126.073 497.122 125.063L470.16 103.75L276.434 101.107Z" fill="#242424"/>
</g>
<g style="mix-blend-mode:multiply" opacity="0.59">
<path d="M277.592 101.524L257.975 124.406C257.756 125.064 287.872 125.971 288.691 125.971H463.475C464.335 125.971 494.605 125.016 494.325 124.344L468.946 104.313L277.592 101.524Z" fill="#181818"/>
</g>
<g style="mix-blend-mode:multiply" opacity="0.62">
<path d="M278.75 101.961L260.825 123.677C260.716 124.018 290.569 124.458 290.986 124.458H461.248C461.681 124.458 491.688 123.98 491.548 123.646L467.742 104.893L278.75 101.961Z" fill="#0C0C0C"/>
</g>
<g style="mix-blend-mode:multiply" opacity="0.65">
<path d="M263.686 122.937H488.759L466.531 105.47L279.911 102.384L263.686 122.937Z" fill="black"/>
</g>
</g>
<g style="mix-blend-mode:multiply" opacity="0.45">
<g style="mix-blend-mode:multiply" opacity="0.03">
<path d="M238.732 25.5804C237.025 24.9258 234.923 36.2185 234.978 38.878L236.739 121.343C236.8 124.109 239.571 134.641 241.288 133.7L251.947 116.331L250.38 41.3466L238.732 25.5804Z" fill="#F3F3F3"/>
</g>
<g style="mix-blend-mode:multiply" opacity="0.06">
<path d="M238.947 26.4895C237.316 25.869 235.336 37.1276 235.391 39.6541L237.128 121.069C237.182 123.695 239.906 133.552 241.537 132.662L251.793 115.955L250.285 41.7271L238.947 26.4895Z" fill="#E7E7E7"/>
</g>
<g style="mix-blend-mode:multiply" opacity="0.09">
<path d="M239.158 27.4003C237.615 26.8105 235.745 38.0384 235.803 40.4319L237.51 120.797C237.564 123.286 240.24 132.468 241.783 131.623L251.632 115.563L250.182 42.0958L239.158 27.4003Z" fill="#DBDBDB"/>
</g>
<g style="mix-blend-mode:multiply" opacity="0.12">
<path d="M239.371 28.3095C237.911 27.7538 236.163 38.9476 236.211 41.2082L237.893 120.523C237.945 122.872 240.569 131.383 242.027 130.585L251.474 115.177L250.081 42.4697L239.371 28.3095Z" fill="#CECECE"/>
</g>
<g style="mix-blend-mode:multiply" opacity="0.15">
<path d="M239.582 29.2367C238.217 28.7116 236.575 39.8747 236.623 42.0023L238.278 120.267C238.323 122.48 240.9 130.315 242.272 129.562L251.316 114.812L249.981 42.8684L239.582 29.2367Z" fill="#C2C2C2"/>
</g>
<g style="mix-blend-mode:multiply" opacity="0.19">
<path d="M239.799 30.1301C238.509 29.6391 236.994 40.7681 237.035 42.7627L238.663 119.977C238.707 122.05 241.233 129.211 242.52 128.501L251.158 114.403L249.885 43.2128L239.799 30.1301Z" fill="#B6B6B6"/>
</g>
<g style="mix-blend-mode:multiply" opacity="0.22">
<path d="M240.011 31.0417C238.809 30.5814 237.407 41.6798 237.448 43.5414L239.048 119.706C239.089 121.642 241.564 128.128 242.765 127.473L251 114.029L249.785 43.596L240.011 31.0417Z" fill="#AAAAAA"/>
</g>
<g style="mix-blend-mode:multiply" opacity="0.25">
<path d="M240.234 31.9666C239.121 31.5404 237.845 42.6046 237.868 44.3333L239.442 119.447C239.479 121.244 241.906 127.058 243.022 126.447L250.855 113.658L249.698 43.9855L240.234 31.9666Z" fill="#9E9E9E"/>
</g>
<g style="mix-blend-mode:multiply" opacity="0.28">
<path d="M240.435 32.8629C239.411 32.4674 238.234 43.501 238.268 45.0967L239.814 119.161C239.848 120.821 242.223 125.96 243.254 125.397L250.681 113.262L249.585 44.3466L240.435 32.8629Z" fill="#929292"/>
</g>
<g style="mix-blend-mode:multiply" opacity="0.31">
<path d="M240.649 33.7677C239.707 33.4097 238.649 44.4092 238.68 45.8719L240.199 118.886C240.233 120.406 242.557 124.873 243.502 124.341L250.526 112.861L249.502 44.7058L240.649 33.7677Z" fill="#868686"/>
</g>
<g style="mix-blend-mode:multiply" opacity="0.34">
<path d="M240.864 34.6914C240.004 34.3504 239.065 45.3329 239.092 46.6626L240.584 118.626C240.615 120.01 242.888 123.802 243.748 123.331L250.369 112.506L249.389 45.1078L240.864 34.6914Z" fill="#797979"/>
</g>
<g style="mix-blend-mode:multiply" opacity="0.37">
<path d="M241.074 35.5898C240.303 35.2966 239.477 46.2348 239.501 47.4316L240.965 118.352C240.992 119.596 243.217 122.716 243.989 122.293L250.207 112.119L249.289 45.4812L241.074 35.5898Z" fill="#6D6D6D"/>
</g>
<g style="mix-blend-mode:multiply" opacity="0.4">
<path d="M241.288 36.4998C240.605 36.2372 239.888 47.1446 239.923 48.2084L241.359 118.068C241.383 119.176 243.557 121.618 244.243 121.243L250.045 111.726L249.182 45.8455L241.288 36.4998Z" fill="#616161"/>
</g>
<g style="mix-blend-mode:multiply" opacity="0.43">
<path d="M241.503 37.4215C240.902 37.1931 240.308 48.0664 240.325 49.0143L241.735 117.824C241.758 118.792 243.881 120.552 244.482 120.235L249.895 111.37L249.089 46.2456L241.503 37.4215Z" fill="#555555"/>
</g>
<g style="mix-blend-mode:multiply" opacity="0.46">
<path d="M241.714 38.3205C241.202 38.1228 240.721 48.9654 240.738 49.7633L242.12 117.523C242.137 118.355 244.216 119.449 244.727 119.17L249.734 110.959L248.99 46.5991L241.714 38.3205Z" fill="#494949"/>
</g>
<g style="mix-blend-mode:multiply" opacity="0.5">
<path d="M241.941 39.2333C241.511 39.0696 241.145 49.8781 241.159 50.543L242.524 117.256C242.524 117.938 244.572 118.367 244.992 118.132L249.596 110.576L248.913 46.9765L241.941 39.2333Z" fill="#3D3D3D"/>
</g>
<g style="mix-blend-mode:multiply" opacity="0.53">
<path d="M242.138 40.1482C241.797 40.0152 241.548 50.7931 241.558 51.325L242.886 116.988C242.886 117.54 244.875 117.288 245.217 117.1L249.418 110.199L248.79 47.3561L242.138 40.1482Z" fill="#313131"/>
</g>
<g style="mix-blend-mode:multiply" opacity="0.56">
<path d="M242.356 41.0525C242.097 40.9536 241.964 51.6974 241.97 52.0963L243.274 116.709C243.274 117.121 245.209 116.197 245.465 116.054L249.26 109.808L248.694 47.7252L242.356 41.0525Z" fill="#242424"/>
</g>
<g style="mix-blend-mode:multiply" opacity="0.59">
<path d="M242.568 41.9636C242.397 41.8954 242.377 52.6085 242.383 52.8745L243.656 116.437C243.656 116.713 245.54 115.114 245.704 115.018L249.097 109.423L248.588 48.101L242.568 41.9636Z" fill="#181818"/>
</g>
<g style="mix-blend-mode:multiply" opacity="0.62">
<path d="M242.781 42.8765C242.692 42.8458 242.781 53.5248 242.781 53.6578L244.03 116.17C244.03 116.306 245.86 114.032 245.945 113.988L248.935 109.047L248.484 48.4819L242.781 42.8765Z" fill="#0C0C0C"/>
</g>
<g style="mix-blend-mode:multiply" opacity="0.65">
<path d="M242.994 43.7783L244.428 115.889L248.789 108.653L248.397 48.8484L242.994 43.7783Z" fill="black"/>
</g>
</g>
<g style="mix-blend-mode:multiply" opacity="0.45">
<g style="mix-blend-mode:multiply" opacity="0.03">
<path d="M496.84 41.0136L513.222 25.3975C515.99 24.6576 519.799 35.7969 519.802 38.4598L519.894 120.523C519.894 123.288 515.908 134.56 513.068 133.708L496.529 118.129L496.84 41.0136Z" fill="#F3F3F3"/>
</g>
<g style="mix-blend-mode:multiply" opacity="0.06">
<path d="M496.914 41.4224L512.917 26.3211C515.545 25.6187 519.166 36.6898 519.17 39.2198L519.265 119.796C519.265 122.422 515.48 133.632 512.781 132.821L496.702 117.672L496.914 41.4224Z" fill="#E7E7E7"/>
</g>
<g style="mix-blend-mode:multiply" opacity="0.09">
<path d="M496.987 41.8287L512.601 27.2422C515.092 26.5603 518.522 37.5837 518.526 39.9772L518.628 119.081C518.628 121.57 515.045 132.719 512.502 131.949L496.884 117.205L496.987 41.8287Z" fill="#DBDBDB"/>
</g>
<g style="mix-blend-mode:multiply" opacity="0.12">
<path d="M497.062 42.2345L512.287 28.1629C514.639 27.5321 517.884 38.4736 517.884 40.7342L517.99 118.337C517.99 120.69 514.608 131.768 512.209 131.045L497.048 116.752L497.062 42.2345Z" fill="#CECECE"/>
</g>
<g style="mix-blend-mode:multiply" opacity="0.15">
<path d="M497.141 42.6444L511.974 29.0843C514.189 28.491 517.243 39.3643 517.243 41.4919L517.356 117.612C517.356 119.821 514.175 130.838 511.916 130.156L497.213 116.292L497.141 42.6444Z" fill="#C2C2C2"/>
</g>
<g style="mix-blend-mode:multiply" opacity="0.19">
<path d="M497.226 43.0494L511.669 30.0042C513.744 29.4484 516.611 40.2535 516.615 42.2515L516.727 116.881C516.727 118.955 513.748 129.906 511.628 129.265L497.386 115.831L497.226 43.0494Z" fill="#B6B6B6"/>
</g>
<g style="mix-blend-mode:multiply" opacity="0.22">
<path d="M497.292 43.4538L511.347 30.9234C513.285 30.4051 515.961 41.1523 515.964 43.0071L516.084 116.151C516.084 118.087 513.306 128.974 511.326 128.377L497.545 115.37L497.292 43.4538Z" fill="#AAAAAA"/>
</g>
<g style="mix-blend-mode:multiply" opacity="0.25">
<path d="M497.367 43.8609L511.019 31.8419C512.818 31.3612 515.306 42.0367 515.309 43.7756L515.435 115.432C515.435 117.233 512.855 128.048 511.019 127.499L497.708 114.921L497.367 43.8609Z" fill="#9E9E9E"/>
</g>
<g style="mix-blend-mode:multiply" opacity="0.28">
<path d="M497.443 44.2656L510.719 32.7615C512.381 32.3183 514.682 42.9257 514.682 44.5214L514.811 114.695C514.811 116.352 512.422 127.11 510.74 126.598L497.876 114.449L497.443 44.2656Z" fill="#929292"/>
</g>
<g style="mix-blend-mode:multiply" opacity="0.31">
<path d="M497.518 44.6711L510.405 33.6818C511.928 33.2761 514.04 43.8152 514.04 45.2746L514.177 113.962C514.177 115.482 511.999 126.175 510.446 125.708L498.04 113.985L497.518 44.6711Z" fill="#868686"/>
</g>
<g style="mix-blend-mode:multiply" opacity="0.34">
<path d="M497.594 45.0773L510.092 34.6029C511.478 34.2313 513.399 44.7056 513.399 46.0388L513.539 113.236C513.539 114.62 511.566 125.248 510.153 124.828L498.208 113.536L497.594 45.0773Z" fill="#797979"/>
</g>
<g style="mix-blend-mode:multiply" opacity="0.37">
<path d="M497.669 45.4828L509.778 35.5233C511.024 35.1823 512.757 45.5987 512.757 46.7955L512.904 112.506C512.904 113.75 511.129 124.317 509.86 123.932L498.372 113.069L497.669 45.4828Z" fill="#6D6D6D"/>
</g>
<g style="mix-blend-mode:multiply" opacity="0.4">
<path d="M497.744 45.8885L509.461 36.4438C510.57 36.1471 512.113 46.4886 512.116 47.5524L512.263 111.78C512.263 112.884 510.693 123.372 509.563 123.031L498.536 112.594L497.744 45.8885Z" fill="#616161"/>
</g>
<g style="mix-blend-mode:multiply" opacity="0.43">
<path d="M497.82 46.2847L509.147 37.3514C510.117 37.0923 511.472 47.3689 511.475 48.2997L511.629 111.037C511.629 112.005 510.263 122.442 509.267 122.142L498.687 112.135L497.82 46.2847Z" fill="#555555"/>
</g>
<g style="mix-blend-mode:multiply" opacity="0.46">
<path d="M497.908 46.703L508.847 38.2813C509.679 38.0596 510.847 48.268 510.847 49.0659L511.007 110.32C511.007 111.152 509.836 121.52 508.987 121.265L498.878 111.687L497.908 46.703Z" fill="#494949"/>
</g>
<g style="mix-blend-mode:multiply" opacity="0.5">
<path d="M497.971 47.1077L508.52 39.2008C509.203 39.0167 510.193 49.1603 510.193 49.8252L510.356 109.589C510.356 110.271 509.387 120.589 508.681 120.377L499.032 111.226L497.971 47.1077Z" fill="#3D3D3D"/>
</g>
<g style="mix-blend-mode:multiply" opacity="0.53">
<path d="M498.046 47.5138L508.206 40.1217C508.759 39.9751 509.551 50.0506 509.551 50.5825L509.722 108.863C509.722 109.416 508.954 119.658 508.387 119.488L499.196 110.766L498.046 47.5138Z" fill="#313131"/>
</g>
<g style="mix-blend-mode:multiply" opacity="0.56">
<path d="M498.121 47.9207L507.892 41.0434C508.309 40.9309 508.916 50.9314 508.916 51.3406L509.09 108.135C509.09 108.551 508.524 118.729 508.101 118.599L499.37 110.307L498.121 47.9207Z" fill="#242424"/>
</g>
<g style="mix-blend-mode:multiply" opacity="0.59">
<path d="M498.196 48.33L507.579 41.9677C507.855 41.8927 508.261 51.8352 508.261 52.1011L508.442 107.409C508.442 107.685 508.077 117.801 507.794 117.716L499.52 109.85L498.196 48.33Z" fill="#181818"/>
</g>
<g style="mix-blend-mode:multiply" opacity="0.62">
<path d="M498.272 48.7324L507.265 42.8849C507.405 42.8474 507.63 52.7217 507.63 52.8546L507.811 106.679C507.811 106.815 507.647 116.867 507.507 116.823L499.695 109.386L498.272 48.7324Z" fill="#0C0C0C"/>
</g>
<g style="mix-blend-mode:multiply" opacity="0.65">
<path d="M506.956 43.8032L507.215 115.934L499.86 108.927L498.352 49.1393L506.956 43.8032Z" fill="black"/>
</g>
</g>
<path d="M240.617 129.116H511.813V26.6464L240.617 26.6669V129.116Z" fill="#F8B827"/>
<path d="M240.676 26.6675H512.115L480.562 0.911133H271.69L240.632 26.2584C240.513 26.3539 240.55 26.6675 240.676 26.6675Z" fill="#E8EAED"/>
<path d="M383.63 43.7104V113.754H367.947V76.2039C367.947 70.7784 367.831 67.518 367.598 66.4229C367.489 65.8895 367.259 65.3882 366.926 64.9571C366.593 64.526 366.166 64.1765 365.677 63.9353C364.629 63.3741 362.294 63.0935 358.672 63.0935H357.119V54.9269C364.7 53.1094 370.457 49.3705 374.389 43.7104H383.63Z" fill="white"/>
<g opacity="0.85" filter="url(#filter1_f_573_5950)">
<path d="M511.28 129.191V62.2134C482.574 96.2699 440.269 116.704 360.192 129.191H511.28Z" fill="#EFA600"/>
</g>
<g opacity="0.85" filter="url(#filter2_f_573_5950)">
<path d="M699.508 112.163V62.2134C676.719 87.6115 644.801 102.85 581.231 112.163H699.508Z" fill="#C06434"/>
</g>
<defs>
<filter id="filter0_f_573_5950" x="142.23" y="62.7534" width="117.488" height="57.9496" filterUnits="userSpaceOnUse" color-interpolation-filters="sRGB">
<feFlood flood-opacity="0" result="BackgroundImageFix"/>
<feBlend mode="normal" in="SourceGraphic" in2="BackgroundImageFix" result="shape"/>
<feGaussianBlur stdDeviation="2" result="effect1_foregroundBlur_573_5950"/>
</filter>
<filter id="filter1_f_573_5950" x="356.192" y="58.2134" width="159.088" height="74.9778" filterUnits="userSpaceOnUse" color-interpolation-filters="sRGB">
<feFlood flood-opacity="0" result="BackgroundImageFix"/>
<feBlend mode="normal" in="SourceGraphic" in2="BackgroundImageFix" result="shape"/>
<feGaussianBlur stdDeviation="2" result="effect1_foregroundBlur_573_5950"/>
</filter>
<filter id="filter2_f_573_5950" x="577.231" y="58.2134" width="126.276" height="57.9496" filterUnits="userSpaceOnUse" color-interpolation-filters="sRGB">
<feFlood flood-opacity="0" result="BackgroundImageFix"/>
<feBlend mode="normal" in="SourceGraphic" in2="BackgroundImageFix" result="shape"/>
<feGaussianBlur stdDeviation="2" result="effect1_foregroundBlur_573_5950"/>
</filter>
</defs>
</svg>
