<svg width="31" height="32" viewBox="0 0 31 32" fill="none" xmlns="http://www.w3.org/2000/svg">
<g clip-path="url(#clip0_440_828)">
<path d="M30.6142 9.82068H1.28777V10.1479H30.6142V9.82068Z" fill="#A6563E"/>
<path d="M30.6142 10.9194H1.28777V11.4691H30.6142V10.9194Z" fill="#E5E5E5"/>
<path d="M28.9451 0.930664H2.82218C1.93765 0.930664 1.22152 1.536 1.22152 2.36097V9.87072H30.6621V2.36097C30.6621 1.5361 29.8297 0.930664 28.9451 0.930664Z" fill="#0064A2"/>
<path d="M9.26152 8.04347V6.22498H9.9059C10.5519 6.22498 10.8749 6.52039 10.875 7.1112C10.875 7.39441 10.7868 7.6205 10.6105 7.78948C10.4342 7.95846 10.1993 8.043 9.9059 8.0431L9.26152 8.04347ZM9.67123 6.55881V7.71127H9.87386C10.0515 7.71127 10.1908 7.65801 10.2918 7.5515C10.3928 7.44499 10.4434 7.30006 10.4434 7.11669C10.4434 6.94346 10.3933 6.80715 10.2931 6.70775C10.193 6.60836 10.0524 6.55872 9.87134 6.55881H9.67123Z" fill="#A3A1FF"/>
<path d="M12.2673 8.04347H11.1765V6.22498H12.2255V6.55859H11.5862V6.963H12.1811V7.29521H11.5862V7.71104H12.2673V8.04347Z" fill="#A3A1FF"/>
<path d="M13.8621 7.97814C13.7294 8.04239 13.556 8.07452 13.3421 8.07452C13.063 8.07452 12.8436 7.99252 12.6837 7.82853C12.5239 7.66454 12.444 7.44606 12.444 7.17309C12.444 6.88232 12.5339 6.6465 12.7136 6.4656C12.8932 6.28471 13.1264 6.19429 13.4131 6.19434C13.5907 6.19434 13.7403 6.21673 13.8621 6.2615V6.65584C13.7403 6.58313 13.6016 6.54678 13.446 6.54678C13.2753 6.54678 13.1374 6.60046 13.0326 6.70781C12.9277 6.81516 12.8753 6.96054 12.8753 7.14395C12.8753 7.31971 12.9248 7.4598 13.0237 7.56423C13.1225 7.66867 13.2557 7.72086 13.4232 7.72081C13.5773 7.72232 13.729 7.68202 13.8621 7.60419L13.8621 7.97814Z" fill="#A3A1FF"/>
<path d="M15.2698 8.04347H14.179V6.22498H15.228V6.55859H14.5887V6.963H15.1836V7.29521H14.5887V7.71104H15.2698V8.04347Z" fill="#A3A1FF"/>
<path d="M17.6341 8.04347H17.2294V6.9553C17.2294 6.83777 17.2345 6.708 17.2447 6.566H17.2345C17.2134 6.67755 17.1944 6.75787 17.1774 6.80695L16.7513 8.04347H16.4164L15.9827 6.82022C15.9708 6.78725 15.9517 6.70271 15.9255 6.5666H15.9141C15.9251 6.74586 15.9306 6.90308 15.9306 7.03826V8.04347H15.5615V6.22498H16.1615L16.5331 7.30262C16.5623 7.3872 16.5839 7.47417 16.5978 7.56255H16.6052C16.6248 7.47388 16.6489 7.38628 16.6775 7.3001L17.0492 6.22512H17.6339L17.6341 8.04347Z" fill="#A3A1FF"/>
<path d="M18.049 8.04347V6.22498H18.7111C18.9139 6.22498 19.0699 6.26217 19.1791 6.33655C19.2884 6.41093 19.3429 6.51574 19.3427 6.65096C19.3438 6.74635 19.3082 6.83849 19.2432 6.90837C19.1768 6.98191 19.092 7.03304 18.9889 7.06176V7.06687C19.1182 7.08288 19.2216 7.13063 19.299 7.2101C19.3764 7.28958 19.4151 7.38635 19.4151 7.50042C19.4151 7.66693 19.3555 7.79899 19.2362 7.89661C19.117 7.99422 18.9542 8.04305 18.7479 8.0431L18.049 8.04347ZM18.4587 6.52708V6.95819H18.6388C18.7234 6.95819 18.7899 6.93768 18.8385 6.89665C18.8872 6.85563 18.9115 6.79921 18.9115 6.7274C18.9115 6.59395 18.8117 6.52723 18.6122 6.52723L18.4587 6.52708ZM18.4587 7.26244V7.74166H18.6806C18.7753 7.74166 18.8495 7.71969 18.9031 7.67575C18.9568 7.63182 18.9836 7.57182 18.9837 7.49575C18.9837 7.4231 18.9573 7.36603 18.9044 7.32457C18.8515 7.2831 18.7778 7.26239 18.683 7.26244H18.4587Z" fill="#A3A1FF"/>
<path d="M20.8048 8.04347H19.714V6.22498H20.763V6.55859H20.1236V6.963H20.7184V7.29521H20.1236V7.71104H20.8047L20.8048 8.04347Z" fill="#A3A1FF"/>
<path d="M22.6227 8.04347H22.1521L21.8693 7.5756C21.8481 7.54016 21.8278 7.50845 21.8084 7.48048C21.7907 7.45493 21.7709 7.43096 21.7491 7.40886C21.731 7.39032 21.71 7.37491 21.6869 7.36327C21.665 7.35259 21.6409 7.34716 21.6165 7.3474H21.5062V8.04347H21.0965V6.22498H21.7459C22.1873 6.22498 22.408 6.38981 22.4081 6.71947C22.4086 6.77924 22.3987 6.83866 22.3788 6.89502C22.3599 6.94779 22.3321 6.9969 22.2964 7.04018C22.2599 7.08416 22.2164 7.12186 22.1677 7.15176C22.1153 7.18395 22.0588 7.2087 21.9996 7.2253V7.23042C22.028 7.23954 22.0546 7.25349 22.0782 7.27164C22.1047 7.29165 22.1293 7.31398 22.1518 7.33836C22.1759 7.36424 22.1986 7.39147 22.2197 7.41991C22.2413 7.44912 22.261 7.47766 22.279 7.50554L22.6227 8.04347ZM21.5065 6.5322V7.03803H21.6841C21.772 7.03803 21.8426 7.01268 21.8959 6.96197C21.9222 6.93759 21.943 6.90793 21.957 6.87494C21.971 6.84195 21.9778 6.80637 21.9771 6.77055C21.9771 6.61165 21.8819 6.5322 21.6917 6.5322H21.5065Z" fill="#A3A1FF"/>
<path d="M2.9494 31.9999H28.9512C29.8694 31.9999 30.6137 31.2196 30.6137 30.2571V12.3081H1.28777V30.2571C1.2868 31.2196 2.03114 31.9999 2.9494 31.9999Z" fill="#CCCCCC"/>
<path d="M2.9494 29.8389H28.9512C29.8694 29.8389 30.6137 29.0586 30.6137 28.0961V10.1475H1.28777V28.0961C1.2868 29.0586 2.03114 29.8389 2.9494 29.8389Z" fill="#F7F7F7"/>
<path d="M30.615 24.9031L25.4865 29.8391H28.9592C29.8736 29.8391 30.615 29.1257 30.615 28.2454V24.9031Z" fill="#DBDBDB"/>
<path d="M25.4865 29.8391L30.615 24.9031H27.1425C26.2279 24.9031 25.4865 25.6165 25.4865 26.4968V29.8391Z" fill="#E8E8E8"/>
<path d="M4.25016 2.63298C4.30477 2.2965 4.07628 1.97946 3.73981 1.92484C3.40333 1.87022 3.08629 2.09871 3.03167 2.43519C2.97705 2.77166 3.20554 3.08871 3.54202 3.14333C3.87849 3.19795 4.19554 2.96945 4.25016 2.63298Z" fill="#A6563E"/>
<path d="M6.71266 2.63298C6.76728 2.2965 6.53878 1.97946 6.20231 1.92484C5.86583 1.87022 5.54879 2.09871 5.49417 2.43519C5.43955 2.77167 5.66804 3.08871 6.00452 3.14333C6.341 3.19795 6.65804 2.96946 6.71266 2.63298Z" fill="#A6563E"/>
<path d="M9.17516 2.63298C9.22977 2.2965 9.00128 1.97946 8.66481 1.92484C8.32833 1.87022 8.01128 2.09871 7.95667 2.43519C7.90205 2.77166 8.13054 3.08871 8.46702 3.14333C8.80349 3.19795 9.12054 2.96945 9.17516 2.63298Z" fill="#A6563E"/>
<path d="M11.6364 2.63298C11.691 2.2965 11.4625 1.97946 11.1261 1.92484C10.7896 1.87022 10.4725 2.09871 10.4179 2.43519C10.3633 2.77166 10.5918 3.08871 10.9283 3.14333C11.2647 3.19795 11.5818 2.96945 11.6364 2.63298Z" fill="#A6563E"/>
<path d="M14.0989 2.63286C14.1536 2.29638 13.9251 1.97933 13.5886 1.92472C13.2521 1.8701 12.9351 2.09859 12.8804 2.43507C12.8258 2.77154 13.0543 3.08859 13.3908 3.14321C13.7273 3.19782 14.0443 2.96933 14.0989 2.63286Z" fill="#A6563E"/>
<path d="M16.5614 2.63298C16.616 2.2965 16.3875 1.97946 16.0511 1.92484C15.7146 1.87022 15.3975 2.09871 15.3429 2.43519C15.2883 2.77166 15.5168 3.08871 15.8533 3.14333C16.1897 3.19795 16.5068 2.96945 16.5614 2.63298Z" fill="#A6563E"/>
<path d="M19.0147 2.65685C19.0854 2.32339 18.8725 1.99571 18.539 1.92496C18.2056 1.8542 17.8779 2.06716 17.8071 2.40062C17.7364 2.73407 17.9493 3.06175 18.2828 3.13251C18.6163 3.20327 18.9439 2.99031 19.0147 2.65685Z" fill="#A6563E"/>
<path d="M21.3108 2.96708C21.5519 2.72604 21.5519 2.33524 21.3108 2.0942C21.0698 1.85316 20.679 1.85316 20.438 2.0942C20.1969 2.33524 20.1969 2.72604 20.438 2.96708C20.679 3.20812 21.0698 3.20812 21.3108 2.96708Z" fill="#A6563E"/>
<path d="M23.9477 2.63298C24.0023 2.2965 23.7738 1.97946 23.4373 1.92484C23.1008 1.87023 22.7838 2.09871 22.7292 2.43519C22.6746 2.77167 22.903 3.08871 23.2395 3.14333C23.576 3.19795 23.893 2.96945 23.9477 2.63298Z" fill="#A6563E"/>
<path d="M26.4089 2.63298C26.4635 2.2965 26.235 1.97946 25.8986 1.92484C25.5621 1.87022 25.245 2.09871 25.1904 2.43519C25.1358 2.77166 25.3643 3.08871 25.7008 3.14333C26.0372 3.19795 26.3543 2.96945 26.4089 2.63298Z" fill="#A6563E"/>
<path d="M28.8714 2.63298C28.9261 2.2965 28.6976 1.97946 28.3611 1.92484C28.0246 1.87022 27.7076 2.09871 27.6529 2.43519C27.5983 2.77167 27.8268 3.08871 28.1633 3.14333C28.4998 3.19795 28.8168 2.96945 28.8714 2.63298Z" fill="#A6563E"/>
<path d="M3.90589 0H3.37288C3.36178 0 3.35277 0.00900155 3.35277 0.0201055V2.65577C3.35277 2.66687 3.36178 2.67587 3.37288 2.67587H3.90589C3.917 2.67587 3.926 2.66687 3.926 2.65577V0.0201055C3.926 0.00900155 3.917 0 3.90589 0Z" fill="#8E8B9E"/>
<path d="M6.36843 0H5.83542C5.82431 0 5.81531 0.00900155 5.81531 0.0201055V2.65577C5.81531 2.66687 5.82431 2.67587 5.83542 2.67587H6.36843C6.37953 2.67587 6.38854 2.66687 6.38854 2.65577V0.0201055C6.38854 0.00900155 6.37953 0 6.36843 0Z" fill="#8E8B9E"/>
<path d="M8.83089 0H8.29788C8.28677 0 8.27777 0.00900155 8.27777 0.0201055V2.65577C8.27777 2.66687 8.28677 2.67587 8.29788 2.67587H8.83089C8.84199 2.67587 8.851 2.66687 8.851 2.65577V0.0201055C8.851 0.00900155 8.84199 0 8.83089 0Z" fill="#8E8B9E"/>
<path d="M11.2921 0H10.7591C10.748 0 10.739 0.00900155 10.739 0.0201055V2.65577C10.739 2.66687 10.748 2.67587 10.7591 2.67587H11.2921C11.3032 2.67587 11.3122 2.66687 11.3122 2.65577V0.0201055C11.3122 0.00900155 11.3032 0 11.2921 0Z" fill="#8E8B9E"/>
<path d="M13.7546 0H13.2216C13.2105 0 13.2015 0.00900155 13.2015 0.0201055V2.65577C13.2015 2.66687 13.2105 2.67587 13.2216 2.67587H13.7546C13.7657 2.67587 13.7747 2.66687 13.7747 2.65577V0.0201055C13.7747 0.00900155 13.7657 0 13.7546 0Z" fill="#8E8B9E"/>
<path d="M16.2159 0H15.6829C15.6718 0 15.6628 0.00900155 15.6628 0.0201055V2.65577C15.6628 2.66687 15.6718 2.67587 15.6829 2.67587H16.2159C16.227 2.67587 16.236 2.66687 16.236 2.65577V0.0201055C16.236 0.00900155 16.227 0 16.2159 0Z" fill="#8E8B9E"/>
<path d="M18.6784 0H18.1454C18.1343 0 18.1253 0.00900155 18.1253 0.0201055V2.65577C18.1253 2.66687 18.1343 2.67587 18.1454 2.67587H18.6784C18.6895 2.67587 18.6985 2.66687 18.6985 2.65577V0.0201055C18.6985 0.00900155 18.6895 0 18.6784 0Z" fill="#8E8B9E"/>
<path d="M21.1409 0H20.6079C20.5968 0 20.5878 0.00900155 20.5878 0.0201055V2.65577C20.5878 2.66687 20.5968 2.67587 20.6079 2.67587H21.1409C21.152 2.67587 21.161 2.66687 21.161 2.65577V0.0201055C21.161 0.00900155 21.152 0 21.1409 0Z" fill="#8E8B9E"/>
<path d="M23.6021 0H23.0691C23.058 0 23.049 0.00900155 23.049 0.0201055V2.65577C23.049 2.66687 23.058 2.67587 23.0691 2.67587H23.6021C23.6132 2.67587 23.6222 2.66687 23.6222 2.65577V0.0201055C23.6222 0.00900155 23.6132 0 23.6021 0Z" fill="#8E8B9E"/>
<path d="M26.0646 0H25.5316C25.5205 0 25.5115 0.00900155 25.5115 0.0201055V2.65577C25.5115 2.66687 25.5205 2.67587 25.5316 2.67587H26.0646C26.0757 2.67587 26.0847 2.66687 26.0847 2.65577V0.0201055C26.0847 0.00900155 26.0757 0 26.0646 0Z" fill="#8E8B9E"/>
<path d="M28.5259 0H27.9929C27.9818 0 27.9728 0.00900155 27.9728 0.0201055V2.65577C27.9728 2.66687 27.9818 2.67587 27.9929 2.67587H28.5259C28.537 2.67587 28.546 2.66687 28.546 2.65577V0.0201055C28.546 0.00900155 28.537 0 28.5259 0Z" fill="#8E8B9E"/>
<path d="M10.3559 14.5718H6.47527V11.895H10.3559V14.5718ZM6.59158 14.4557H10.2398V12.0111H6.59158V14.4557Z" fill="#DDDDE7"/>
<path d="M14.1196 14.5718H10.239V11.895H14.1196V14.5718ZM10.3554 14.4557H14.0035V12.0111H10.3554V14.4557Z" fill="#DDDDE7"/>
<path d="M17.8834 14.5718H14.0028V11.895H17.8834V14.5718ZM14.1192 14.4557H17.7673V12.0111H14.1192V14.4557Z" fill="#DDDDE7"/>
<path d="M21.6484 14.5718H17.7678V11.895H21.6484V14.5718ZM17.8842 14.4557H21.5324V12.0111H17.8842V14.4557Z" fill="#DDDDE7"/>
<path d="M6.59086 17.1323H2.71027V14.4556H6.59086V17.1323ZM2.82669 17.0162H6.47487V14.5717H2.82669V17.0162Z" fill="#DDDDE7"/>
<path d="M10.3559 17.1323H6.47527V14.4556H10.3559V17.1323ZM6.59158 17.0162H10.2398V14.5717H6.59158V17.0162Z" fill="#DDDDE7"/>
<path d="M14.1196 17.1323H10.239V14.4556H14.1196V17.1323ZM10.3554 17.0162H14.0035V14.5717H10.3554V17.0162Z" fill="#DDDDE7"/>
<path d="M21.6484 17.1323H17.7678V14.4556H21.6484V17.1323ZM17.8842 17.0162H21.5324V14.5717H17.8842V17.0162Z" fill="#DDDDE7"/>
<path d="M6.59086 19.693H2.71027V17.0162H6.59086V19.693ZM2.82669 19.577H6.47487V17.1323H2.82669V19.577Z" fill="#DDDDE7"/>
<path d="M10.3559 19.693H6.47527V17.0162H10.3559V19.693ZM6.59158 19.577H10.2398V17.1323H6.59158V19.577Z" fill="#DDDDE7"/>
<path d="M14.1196 19.693H10.239V17.0162H14.1196V19.693ZM10.3554 19.577H14.0035V17.1323H10.3554V19.577Z" fill="#DDDDE7"/>
<path d="M17.8834 19.693H14.0028V17.0162H17.8834V19.693ZM14.1192 19.577H17.7673V17.1323H14.1192V19.577Z" fill="#DDDDE7"/>
<path d="M21.6484 19.693H17.7678V17.0162H21.6484V19.693ZM17.8842 19.577H21.5324V17.1323H17.8842V19.577Z" fill="#DDDDE7"/>
<path d="M6.59086 22.2536H2.71027V19.5769H6.59086V22.2536ZM2.82669 22.1376H6.47487V19.6929H2.82669V22.1376Z" fill="#DDDDE7"/>
<path d="M10.3559 22.2536H6.47527V19.5769H10.3559V22.2536ZM6.59158 22.1376H10.2398V19.6929H6.59158V22.1376Z" fill="#DDDDE7"/>
<path d="M14.1196 22.2536H10.239V19.5769H14.1196V22.2536ZM10.3554 22.1376H14.0035V19.6929H10.3554V22.1376Z" fill="#DDDDE7"/>
<path d="M17.8834 22.2536H14.0028V19.5769H17.8834V22.2536ZM14.1192 22.1376H17.7673V19.6929H14.1192V22.1376Z" fill="#DDDDE7"/>
<path d="M21.6484 22.2536H17.7678V19.5769H21.6484V22.2536ZM17.8842 22.1376H21.5324V19.6929H17.8842V22.1376Z" fill="#DDDDE7"/>
<path d="M6.59086 24.8142H2.71027V22.1375H6.59086V24.8142ZM2.82669 24.6981H6.47487V22.2535H2.82669V24.6981Z" fill="#DDDDE7"/>
<path d="M10.3559 24.8142H6.47527V22.1375H10.3559V24.8142ZM6.59158 24.6981H10.2398V22.2535H6.59158V24.6981Z" fill="#DDDDE7"/>
<path d="M14.1196 24.8142H10.239V22.1375H14.1196V24.8142ZM10.3554 24.6981H14.0035V22.2535H10.3554V24.6981Z" fill="#DDDDE7"/>
<path d="M17.8834 24.8142H14.0028V22.1375H17.8834V24.8142ZM14.1192 24.6981H17.7673V22.2535H14.1192V24.6981Z" fill="#DDDDE7"/>
<path d="M7.50862 12.2594H6.90902V12.6933H7.50862V12.2594Z" fill="#DDDDE7"/>
<path d="M11.2811 12.2594H10.6815V12.6933H11.2811V12.2594Z" fill="#DDDDE7"/>
<path d="M15.0461 12.2594H14.4465V12.6933H15.0461V12.2594Z" fill="#DDDDE7"/>
<path d="M18.8311 12.2594H18.2315V12.6933H18.8311V12.2594Z" fill="#DDDDE7"/>
<path d="M7.50862 14.8394H6.90902V15.2732H7.50862V14.8394Z" fill="#DDDDE7"/>
<path d="M11.2811 14.8394H10.6815V15.2732H11.2811V14.8394Z" fill="#DDDDE7"/>
<path d="M15.0461 14.8394H14.4465V15.2732H15.0461V14.8394Z" fill="#DDDDE7"/>
<path d="M18.8311 14.8394H18.2315V15.2732H18.8311V14.8394Z" fill="#DDDDE7"/>
<path d="M7.50862 17.42H6.90902V17.8539H7.50862V17.42Z" fill="#DDDDE7"/>
<path d="M11.2811 17.42H10.6815V17.8539H11.2811V17.42Z" fill="#DDDDE7"/>
<path d="M15.0461 17.42H14.4465V17.8539H15.0461V17.42Z" fill="#DDDDE7"/>
<path d="M18.8311 17.42H18.2315V17.8539H18.8311V17.42Z" fill="#DDDDE7"/>
<path d="M7.50862 19.9594H6.90902V20.3932H7.50862V19.9594Z" fill="#DDDDE7"/>
<path d="M11.2811 19.9594H10.6815V20.3932H11.2811V19.9594Z" fill="#DDDDE7"/>
<path d="M15.0461 19.9594H14.4465V20.3932H15.0461V19.9594Z" fill="#DDDDE7"/>
<path d="M18.8311 19.9594H18.2315V20.3932H18.8311V19.9594Z" fill="#DDDDE7"/>
<path d="M7.50862 22.4918H6.90902V22.9257H7.50862V22.4918Z" fill="#DDDDE7"/>
<path d="M3.77987 17.42H3.18027V17.8539H3.77987V17.42Z" fill="#DDDDE7"/>
<path d="M3.77987 14.8394H3.18027V15.2732H3.77987V14.8394Z" fill="#DDDDE7"/>
<path d="M3.77987 19.9594H3.18027V20.3932H3.77987V19.9594Z" fill="#DDDDE7"/>
<path d="M3.77987 22.4918H3.18027V22.9257H3.77987V22.4918Z" fill="#DDDDE7"/>
<path d="M11.2811 22.4918H10.6815V22.9257H11.2811V22.4918Z" fill="#DDDDE7"/>
<path d="M15.0461 22.4918H14.4465V22.9257H15.0461V22.4918Z" fill="#DDDDE7"/>
<path d="M25.4084 14.5718H21.5278V11.895H25.4084V14.5718ZM21.6445 14.4557H25.2927V12.0111H21.6445V14.4557Z" fill="#DDDDE7"/>
<path d="M29.1721 14.5718H25.2915V11.895H29.1721V14.5718ZM25.4079 14.4557H29.056V12.0111H25.4079V14.4557Z" fill="#DDDDE7"/>
<path d="M25.4084 17.1323H21.5278V14.4556H25.4084V17.1323ZM21.6445 17.0162H25.2927V14.5717H21.6445V17.0162Z" fill="#DDDDE7"/>
<path d="M29.1721 17.1323H25.2915V14.4556H29.1721V17.1323ZM25.4079 17.0162H29.056V14.5717H25.4079V17.0162Z" fill="#DDDDE7"/>
<path d="M25.4084 19.693H21.5278V17.0162H25.4084V19.693ZM21.6445 19.577H25.2927V17.1323H21.6445V19.577Z" fill="#DDDDE7"/>
<path d="M29.1721 19.693H25.2915V17.0162H29.1721V19.693ZM25.4079 19.577H29.056V17.1323H25.4079V19.577Z" fill="#DDDDE7"/>
<path d="M25.4084 22.2536H21.5278V19.5769H25.4084V22.2536ZM21.6445 22.1376H25.2927V19.6929H21.6445V22.1376Z" fill="#DDDDE7"/>
<path d="M29.1721 22.2536H25.2915V19.5769H29.1721V22.2536ZM25.4079 22.1376H29.056V19.6929H25.4079V22.1376Z" fill="#DDDDE7"/>
<path d="M25.4084 24.8142H21.5278V22.1375H25.4084V24.8142ZM21.6445 24.6981H25.2927V22.2535H21.6445V24.6981Z" fill="#DDDDE7"/>
<path d="M22.5699 12.2594H21.9703V12.6933H22.5699V12.2594Z" fill="#DDDDE7"/>
<path d="M26.3549 12.2594H25.7553V12.6933H26.3549V12.2594Z" fill="#DDDDE7"/>
<path d="M22.5699 14.8394H21.9703V15.2732H22.5699V14.8394Z" fill="#DDDDE7"/>
<path d="M26.3549 14.8394H25.7553V15.2732H26.3549V14.8394Z" fill="#DDDDE7"/>
<path d="M22.5699 17.42H21.9703V17.8539H22.5699V17.42Z" fill="#DDDDE7"/>
<path d="M26.3549 17.42H25.7553V17.8539H26.3549V17.42Z" fill="#DDDDE7"/>
<path d="M22.5699 19.9594H21.9703V20.3932H22.5699V19.9594Z" fill="#DDDDE7"/>
<path d="M26.3549 19.9594H25.7553V20.3932H26.3549V19.9594Z" fill="#DDDDE7"/>
<path d="M22.5699 22.4918H21.9703V22.9257H22.5699V22.4918Z" fill="#DDDDE7"/>
<path d="M21.6459 24.8142H17.7653V22.1375H21.6459V24.8142ZM17.8817 24.6981H21.5299V22.2535H17.8817V24.6981Z" fill="#DDDDE7"/>
<path d="M18.8086 22.4918H18.209V22.9257H18.8086V22.4918Z" fill="#DDDDE7"/>
<path d="M27.8999 18.9783C27.8645 18.9784 27.8302 18.9658 27.8032 18.943L26.6682 17.9895C26.6525 17.9769 26.6394 17.9614 26.6298 17.9437C26.6202 17.9261 26.6143 17.9067 26.6123 17.8867C26.6103 17.8667 26.6123 17.8465 26.6182 17.8273C26.6242 17.8081 26.6339 17.7903 26.6468 17.7749C26.6598 17.7595 26.6756 17.7469 26.6935 17.7377C26.7114 17.7286 26.731 17.7231 26.751 17.7216C26.7711 17.7201 26.7912 17.7227 26.8103 17.7291C26.8293 17.7355 26.8469 17.7457 26.8619 17.759L27.9969 18.7125C28.0206 18.7324 28.0375 18.7591 28.0455 18.789C28.0534 18.8189 28.052 18.8505 28.0414 18.8795C28.0307 18.9085 28.0114 18.9336 27.9861 18.9513C27.9607 18.969 27.9305 18.9784 27.8996 18.9783H27.8999Z" fill="#F24973"/>
<path d="M26.765 18.9783C26.734 18.9784 26.7039 18.969 26.6785 18.9513C26.6531 18.9336 26.6338 18.9085 26.6232 18.8795C26.6126 18.8505 26.6111 18.8189 26.6191 18.789C26.6271 18.7591 26.644 18.7324 26.6677 18.7125L27.8027 17.759C27.8177 17.7457 27.8353 17.7355 27.8543 17.7291C27.8734 17.7227 27.8935 17.7201 27.9135 17.7216C27.9336 17.7231 27.9531 17.7286 27.971 17.7377C27.9889 17.7469 28.0048 17.7595 28.0177 17.7749C28.0307 17.7903 28.0404 17.8081 28.0463 17.8273C28.0523 17.8465 28.0543 17.8667 28.0523 17.8867C28.0503 17.9067 28.0443 17.9261 28.0347 17.9437C28.0251 17.9614 28.0121 17.9769 27.9964 17.9895L26.8614 18.943C26.8344 18.9658 26.8003 18.9783 26.765 18.9783Z" fill="#F24973"/>
<path d="M24.0412 18.9783C24.0058 18.9784 23.9715 18.9658 23.9444 18.943L22.8095 17.9895C22.7937 17.9769 22.7807 17.9614 22.7711 17.9437C22.7615 17.9261 22.7555 17.9067 22.7535 17.8867C22.7515 17.8667 22.7536 17.8465 22.7595 17.8273C22.7654 17.8081 22.7752 17.7903 22.7881 17.7749C22.801 17.7595 22.8169 17.7469 22.8348 17.7377C22.8527 17.7286 22.8722 17.7231 22.8923 17.7216C22.9123 17.7201 22.9325 17.7227 22.9515 17.7291C22.9705 17.7355 22.9881 17.7457 23.0032 17.759L24.1382 18.7125C24.1618 18.7324 24.1788 18.7591 24.1867 18.789C24.1947 18.8189 24.1933 18.8505 24.1826 18.8795C24.172 18.9085 24.1527 18.9336 24.1273 18.9513C24.102 18.969 24.0718 18.9784 24.0409 18.9783H24.0412Z" fill="#F24973"/>
<path d="M22.9062 18.9783C22.8753 18.9784 22.8451 18.969 22.8197 18.9513C22.7944 18.9336 22.7751 18.9085 22.7644 18.8795C22.7538 18.8505 22.7524 18.8189 22.7603 18.789C22.7683 18.7591 22.7853 18.7324 22.8089 18.7125L23.9439 17.759C23.959 17.7457 23.9765 17.7355 23.9956 17.7291C24.0146 17.7227 24.0347 17.7201 24.0548 17.7216C24.0748 17.7231 24.0944 17.7286 24.1123 17.7377C24.1302 17.7469 24.1461 17.7595 24.159 17.7749C24.1719 17.7903 24.1816 17.8081 24.1876 17.8273C24.1935 17.8465 24.1955 17.8667 24.1936 17.8867C24.1916 17.9067 24.1856 17.9261 24.176 17.9437C24.1664 17.9614 24.1533 17.9769 24.1376 17.9895L23.0026 18.943C22.9757 18.9658 22.9415 18.9783 22.9062 18.9783Z" fill="#F24973"/>
<path d="M20.3762 18.9783C20.3408 18.9784 20.3065 18.9658 20.2794 18.943L19.1445 17.9895C19.1287 17.9769 19.1157 17.9614 19.1061 17.9437C19.0965 17.9261 19.0905 17.9067 19.0885 17.8867C19.0865 17.8667 19.0886 17.8465 19.0945 17.8273C19.1004 17.8081 19.1102 17.7903 19.1231 17.7749C19.136 17.7595 19.1519 17.7469 19.1698 17.7377C19.1877 17.7286 19.2072 17.7231 19.2273 17.7216C19.2473 17.7201 19.2675 17.7227 19.2865 17.7291C19.3055 17.7355 19.3231 17.7457 19.3382 17.759L20.4731 18.7125C20.4968 18.7324 20.5138 18.7591 20.5217 18.789C20.5297 18.8189 20.5282 18.8505 20.5176 18.8795C20.507 18.9085 20.4877 18.9336 20.4623 18.9513C20.437 18.969 20.4068 18.9784 20.3759 18.9783H20.3762Z" fill="#F24973"/>
<path d="M19.2412 18.9783C19.2103 18.9784 19.1801 18.969 19.1547 18.9513C19.1294 18.9336 19.1101 18.9085 19.0994 18.8795C19.0888 18.8505 19.0874 18.8189 19.0953 18.789C19.1033 18.7591 19.1203 18.7324 19.1439 18.7125L20.2789 17.759C20.294 17.7457 20.3115 17.7355 20.3306 17.7291C20.3496 17.7227 20.3697 17.7201 20.3898 17.7216C20.4098 17.7231 20.4294 17.7286 20.4473 17.7377C20.4652 17.7469 20.481 17.7595 20.494 17.7749C20.5069 17.7903 20.5166 17.8081 20.5226 17.8273C20.5285 17.8465 20.5305 17.8667 20.5285 17.8867C20.5266 17.9067 20.5206 17.9261 20.511 17.9437C20.5014 17.9614 20.4883 17.9769 20.4726 17.9895L19.3376 18.943C19.3107 18.9658 19.2765 18.9783 19.2412 18.9783Z" fill="#F24973"/>
<path d="M16.5174 18.9783C16.482 18.9784 16.4477 18.9658 16.4207 18.943L15.2857 17.9895C15.27 17.9769 15.2569 17.9614 15.2473 17.9437C15.2377 17.9261 15.2318 17.9067 15.2298 17.8867C15.2278 17.8667 15.2298 17.8465 15.2357 17.8273C15.2417 17.8081 15.2514 17.7903 15.2643 17.7749C15.2773 17.7595 15.2931 17.7469 15.311 17.7377C15.3289 17.7286 15.3485 17.7231 15.3685 17.7216C15.3886 17.7201 15.4087 17.7227 15.4278 17.7291C15.4468 17.7355 15.4644 17.7457 15.4794 17.759L16.6144 18.7125C16.6381 18.7324 16.655 18.7591 16.663 18.789C16.6709 18.8189 16.6695 18.8505 16.6589 18.8795C16.6482 18.9085 16.6289 18.9336 16.6036 18.9513C16.5782 18.969 16.548 18.9784 16.5171 18.9783H16.5174Z" fill="#F24973"/>
<path d="M15.3825 18.9783C15.3515 18.9784 15.3213 18.969 15.296 18.9513C15.2706 18.9336 15.2513 18.9085 15.2407 18.8795C15.2301 18.8505 15.2286 18.8189 15.2366 18.789C15.2446 18.7591 15.2615 18.7324 15.2852 18.7125L16.4202 17.759C16.4352 17.7457 16.4528 17.7355 16.4718 17.7291C16.4909 17.7227 16.511 17.7201 16.531 17.7216C16.5511 17.7231 16.5706 17.7286 16.5885 17.7377C16.6064 17.7469 16.6223 17.7595 16.6352 17.7749C16.6482 17.7903 16.6579 17.8081 16.6638 17.8273C16.6698 17.8465 16.6718 17.8667 16.6698 17.8867C16.6678 17.9067 16.6618 17.9261 16.6522 17.9437C16.6426 17.9614 16.6296 17.9769 16.6139 17.9895L15.4789 18.943C15.4519 18.9658 15.4178 18.9783 15.3825 18.9783Z" fill="#F24973"/>
<path d="M12.7337 18.9783C12.6983 18.9784 12.664 18.9658 12.6369 18.943L11.502 17.9895C11.4862 17.9769 11.4732 17.9614 11.4636 17.9437C11.454 17.9261 11.448 17.9067 11.446 17.8867C11.444 17.8667 11.4461 17.8465 11.452 17.8273C11.4579 17.8081 11.4677 17.7903 11.4806 17.7749C11.4935 17.7595 11.5094 17.7469 11.5273 17.7377C11.5452 17.7286 11.5647 17.7231 11.5848 17.7216C11.6048 17.7201 11.625 17.7227 11.644 17.7291C11.663 17.7355 11.6806 17.7457 11.6957 17.759L12.8307 18.7125C12.8543 18.7324 12.8713 18.7591 12.8792 18.789C12.8872 18.8189 12.8857 18.8505 12.8751 18.8795C12.8645 18.9085 12.8452 18.9336 12.8198 18.9513C12.7945 18.969 12.7643 18.9784 12.7334 18.9783H12.7337Z" fill="#F24973"/>
<path d="M11.6 18.9783C11.569 18.9784 11.5388 18.969 11.5135 18.9513C11.4881 18.9336 11.4688 18.9085 11.4582 18.8795C11.4476 18.8505 11.4461 18.8189 11.4541 18.789C11.4621 18.7591 11.479 18.7324 11.5027 18.7125L12.6377 17.759C12.6527 17.7457 12.6703 17.7355 12.6893 17.7291C12.7084 17.7227 12.7285 17.7201 12.7485 17.7216C12.7686 17.7231 12.7881 17.7286 12.806 17.7377C12.8239 17.7469 12.8398 17.7595 12.8527 17.7749C12.8657 17.7903 12.8754 17.8081 12.8813 17.8273C12.8873 17.8465 12.8893 17.8667 12.8873 17.8867C12.8853 17.9067 12.8793 17.9261 12.8697 17.9437C12.8601 17.9614 12.8471 17.9769 12.8314 17.9895L11.6964 18.943C11.6694 18.9658 11.6353 18.9783 11.6 18.9783Z" fill="#F24973"/>
<path d="M9.06902 18.9784C9.03361 18.9784 8.99933 18.9659 8.97228 18.943L7.83729 17.9895C7.80789 17.9635 7.78982 17.927 7.78693 17.8878C7.78404 17.8487 7.79657 17.8099 7.82183 17.7799C7.8471 17.7498 7.88311 17.7308 7.92218 17.7269C7.96125 17.723 8.0003 17.7346 8.031 17.7591L9.16599 18.7126C9.18965 18.7325 9.2066 18.7592 9.21456 18.789C9.22252 18.8189 9.22109 18.8505 9.21046 18.8795C9.19983 18.9086 9.18053 18.9336 9.15517 18.9513C9.12981 18.969 9.09962 18.9784 9.0687 18.9784H9.06902Z" fill="#F24973"/>
<path d="M7.93495 18.9783C7.90404 18.9784 7.87385 18.969 7.84849 18.9513C7.82313 18.9336 7.80382 18.9085 7.7932 18.8795C7.78257 18.8505 7.78114 18.8189 7.7891 18.789C7.79705 18.7591 7.81401 18.7324 7.83767 18.7125L8.97266 17.759C8.98771 17.7457 9.00527 17.7355 9.02431 17.7291C9.04336 17.7227 9.06349 17.7201 9.08354 17.7216C9.10358 17.7231 9.12313 17.7286 9.14103 17.7377C9.15892 17.7469 9.1748 17.7595 9.18773 17.7749C9.20066 17.7903 9.21039 17.8081 9.21632 17.8273C9.22226 17.8465 9.22429 17.8667 9.2223 17.8867C9.22031 17.9067 9.21433 17.9261 9.20473 17.9437C9.19512 17.9614 9.18207 17.9769 9.16636 17.9895L8.03137 18.943C8.00441 18.9658 7.97026 18.9783 7.93495 18.9783Z" fill="#F24973"/>
<path d="M5.21081 18.9784C5.17521 18.9785 5.14072 18.966 5.11353 18.943L3.97854 17.9895C3.94914 17.9635 3.93107 17.927 3.92818 17.8878C3.92529 17.8487 3.93782 17.8099 3.96308 17.7799C3.98835 17.7498 4.02435 17.7308 4.06343 17.7269C4.1025 17.723 4.14155 17.7346 4.17225 17.7591L5.30724 18.7126C5.33089 18.7325 5.34785 18.7592 5.35581 18.789C5.36377 18.8189 5.36233 18.8505 5.35171 18.8795C5.34108 18.9086 5.32178 18.9336 5.29642 18.9513C5.27105 18.969 5.24087 18.9784 5.20995 18.9784H5.21081Z" fill="#F24973"/>
<path d="M4.0762 18.9783C4.04529 18.9784 4.0151 18.969 3.98974 18.9513C3.96438 18.9336 3.94507 18.9085 3.93445 18.8795C3.92382 18.8505 3.92239 18.8189 3.93035 18.789C3.9383 18.7591 3.95526 18.7324 3.97892 18.7125L5.11391 17.759C5.12896 17.7457 5.14652 17.7355 5.16557 17.7291C5.18461 17.7227 5.20475 17.7201 5.22479 17.7216C5.24484 17.7231 5.26438 17.7286 5.28228 17.7377C5.30017 17.7469 5.31606 17.7595 5.32899 17.7749C5.34192 17.7903 5.35164 17.8081 5.35758 17.8273C5.36351 17.8465 5.36555 17.8667 5.36355 17.8867C5.36156 17.9067 5.35559 17.9261 5.34598 17.9437C5.33637 17.9614 5.32333 17.9769 5.30762 17.9895L4.17262 18.943C4.14566 18.9658 4.11151 18.9783 4.0762 18.9783Z" fill="#F24973"/>
<path d="M27.8999 21.5402C27.8645 21.5403 27.8302 21.5277 27.8032 21.5049L26.6682 20.5514C26.6525 20.5388 26.6394 20.5233 26.6298 20.5056C26.6202 20.488 26.6143 20.4686 26.6123 20.4486C26.6103 20.4286 26.6123 20.4084 26.6182 20.3892C26.6242 20.37 26.6339 20.3522 26.6468 20.3368C26.6598 20.3214 26.6756 20.3087 26.6935 20.2996C26.7114 20.2904 26.731 20.285 26.751 20.2835C26.7711 20.282 26.7912 20.2846 26.8103 20.291C26.8293 20.2974 26.8469 20.3076 26.8619 20.3209L27.9969 21.2744C28.0206 21.2943 28.0375 21.321 28.0455 21.3509C28.0534 21.3808 28.052 21.4124 28.0414 21.4414C28.0307 21.4704 28.0114 21.4955 27.9861 21.5132C27.9607 21.5308 27.9305 21.5403 27.8996 21.5402H27.8999Z" fill="#F24973"/>
<path d="M26.765 21.5402C26.734 21.5403 26.7039 21.5308 26.6785 21.5132C26.6531 21.4955 26.6338 21.4704 26.6232 21.4414C26.6126 21.4124 26.6111 21.3808 26.6191 21.3509C26.6271 21.321 26.644 21.2943 26.6677 21.2744L27.8027 20.3209C27.8177 20.3076 27.8353 20.2974 27.8543 20.291C27.8734 20.2846 27.8935 20.282 27.9135 20.2835C27.9336 20.285 27.9531 20.2904 27.971 20.2996C27.9889 20.3087 28.0048 20.3214 28.0177 20.3368C28.0307 20.3522 28.0404 20.37 28.0463 20.3892C28.0523 20.4084 28.0543 20.4286 28.0523 20.4486C28.0503 20.4686 28.0443 20.488 28.0347 20.5056C28.0251 20.5233 28.0121 20.5388 27.9964 20.5514L26.8614 21.5049C26.8344 21.5277 26.8003 21.5402 26.765 21.5402Z" fill="#F24973"/>
<path d="M24.0412 21.5402C24.0058 21.5403 23.9715 21.5277 23.9444 21.5049L22.8095 20.5514C22.7937 20.5388 22.7807 20.5233 22.7711 20.5056C22.7615 20.488 22.7555 20.4686 22.7535 20.4486C22.7515 20.4286 22.7536 20.4084 22.7595 20.3892C22.7654 20.37 22.7752 20.3522 22.7881 20.3368C22.801 20.3214 22.8169 20.3087 22.8348 20.2996C22.8527 20.2904 22.8722 20.285 22.8923 20.2835C22.9123 20.282 22.9325 20.2846 22.9515 20.291C22.9705 20.2974 22.9881 20.3076 23.0032 20.3209L24.1382 21.2744C24.1618 21.2943 24.1788 21.321 24.1867 21.3509C24.1947 21.3808 24.1933 21.4124 24.1826 21.4414C24.172 21.4704 24.1527 21.4955 24.1273 21.5132C24.102 21.5308 24.0718 21.5403 24.0409 21.5402H24.0412Z" fill="#F24973"/>
<path d="M22.9062 21.5402C22.8753 21.5403 22.8451 21.5308 22.8197 21.5132C22.7944 21.4955 22.7751 21.4704 22.7644 21.4414C22.7538 21.4124 22.7524 21.3808 22.7603 21.3509C22.7683 21.321 22.7853 21.2943 22.8089 21.2744L23.9439 20.3209C23.959 20.3076 23.9765 20.2974 23.9956 20.291C24.0146 20.2846 24.0347 20.282 24.0548 20.2835C24.0748 20.285 24.0944 20.2904 24.1123 20.2996C24.1302 20.3087 24.1461 20.3214 24.159 20.3368C24.1719 20.3522 24.1816 20.37 24.1876 20.3892C24.1935 20.4084 24.1955 20.4286 24.1936 20.4486C24.1916 20.4686 24.1856 20.488 24.176 20.5056C24.1664 20.5233 24.1533 20.5388 24.1376 20.5514L23.0026 21.5049C22.9757 21.5277 22.9415 21.5402 22.9062 21.5402Z" fill="#F24973"/>
<path d="M20.3762 21.5402C20.3408 21.5403 20.3065 21.5277 20.2794 21.5049L19.1445 20.5514C19.1287 20.5388 19.1157 20.5233 19.1061 20.5056C19.0965 20.488 19.0905 20.4686 19.0885 20.4486C19.0865 20.4286 19.0886 20.4084 19.0945 20.3892C19.1004 20.37 19.1102 20.3522 19.1231 20.3368C19.136 20.3214 19.1519 20.3087 19.1698 20.2996C19.1877 20.2904 19.2072 20.285 19.2273 20.2835C19.2473 20.282 19.2675 20.2846 19.2865 20.291C19.3055 20.2974 19.3231 20.3076 19.3382 20.3209L20.4731 21.2744C20.4968 21.2943 20.5138 21.321 20.5217 21.3509C20.5297 21.3808 20.5282 21.4124 20.5176 21.4414C20.507 21.4704 20.4877 21.4955 20.4623 21.5132C20.437 21.5308 20.4068 21.5403 20.3759 21.5402H20.3762Z" fill="#F24973"/>
<path d="M19.2412 21.5402C19.2103 21.5403 19.1801 21.5308 19.1547 21.5132C19.1294 21.4955 19.1101 21.4704 19.0994 21.4414C19.0888 21.4124 19.0874 21.3808 19.0953 21.3509C19.1033 21.321 19.1203 21.2943 19.1439 21.2744L20.2789 20.3209C20.294 20.3076 20.3115 20.2974 20.3306 20.291C20.3496 20.2846 20.3697 20.282 20.3898 20.2835C20.4098 20.285 20.4294 20.2904 20.4473 20.2996C20.4652 20.3087 20.481 20.3214 20.494 20.3368C20.5069 20.3522 20.5166 20.37 20.5226 20.3892C20.5285 20.4084 20.5305 20.4286 20.5285 20.4486C20.5266 20.4686 20.5206 20.488 20.511 20.5056C20.5014 20.5233 20.4883 20.5388 20.4726 20.5514L19.3376 21.5049C19.3107 21.5277 19.2765 21.5402 19.2412 21.5402Z" fill="#F24973"/>
<path d="M16.5174 21.5402C16.482 21.5403 16.4477 21.5277 16.4207 21.5049L15.2857 20.5514C15.27 20.5388 15.2569 20.5233 15.2473 20.5056C15.2377 20.488 15.2318 20.4686 15.2298 20.4486C15.2278 20.4286 15.2298 20.4084 15.2357 20.3892C15.2417 20.37 15.2514 20.3522 15.2643 20.3368C15.2773 20.3214 15.2931 20.3087 15.311 20.2996C15.3289 20.2904 15.3485 20.285 15.3685 20.2835C15.3886 20.282 15.4087 20.2846 15.4278 20.291C15.4468 20.2974 15.4644 20.3076 15.4794 20.3209L16.6144 21.2744C16.6381 21.2943 16.655 21.321 16.663 21.3509C16.6709 21.3808 16.6695 21.4124 16.6589 21.4414C16.6482 21.4704 16.6289 21.4955 16.6036 21.5132C16.5782 21.5308 16.548 21.5403 16.5171 21.5402H16.5174Z" fill="#F24973"/>
<path d="M15.3825 21.5402C15.3515 21.5403 15.3213 21.5308 15.296 21.5132C15.2706 21.4955 15.2513 21.4704 15.2407 21.4414C15.2301 21.4124 15.2286 21.3808 15.2366 21.3509C15.2446 21.321 15.2615 21.2943 15.2852 21.2744L16.4202 20.3209C16.4352 20.3076 16.4528 20.2974 16.4718 20.291C16.4909 20.2846 16.511 20.282 16.531 20.2835C16.5511 20.285 16.5706 20.2904 16.5885 20.2996C16.6064 20.3087 16.6223 20.3214 16.6352 20.3368C16.6482 20.3522 16.6579 20.37 16.6638 20.3892C16.6698 20.4084 16.6718 20.4286 16.6698 20.4486C16.6678 20.4686 16.6618 20.488 16.6522 20.5056C16.6426 20.5233 16.6296 20.5388 16.6139 20.5514L15.4789 21.5049C15.4519 21.5277 15.4178 21.5402 15.3825 21.5402Z" fill="#F24973"/>
<path d="M12.7337 21.5402C12.6983 21.5403 12.664 21.5277 12.6369 21.5049L11.502 20.5514C11.4862 20.5388 11.4732 20.5233 11.4636 20.5056C11.454 20.488 11.448 20.4686 11.446 20.4486C11.444 20.4286 11.4461 20.4084 11.452 20.3892C11.4579 20.37 11.4677 20.3522 11.4806 20.3368C11.4935 20.3214 11.5094 20.3087 11.5273 20.2996C11.5452 20.2904 11.5647 20.285 11.5848 20.2835C11.6048 20.282 11.625 20.2846 11.644 20.291C11.663 20.2974 11.6806 20.3076 11.6957 20.3209L12.8307 21.2744C12.8543 21.2943 12.8713 21.321 12.8792 21.3509C12.8872 21.3808 12.8857 21.4124 12.8751 21.4414C12.8645 21.4704 12.8452 21.4955 12.8198 21.5132C12.7945 21.5308 12.7643 21.5403 12.7334 21.5402H12.7337Z" fill="#F24973"/>
<path d="M11.6 21.5402C11.569 21.5403 11.5388 21.5308 11.5135 21.5132C11.4881 21.4955 11.4688 21.4704 11.4582 21.4414C11.4476 21.4124 11.4461 21.3808 11.4541 21.3509C11.4621 21.321 11.479 21.2943 11.5027 21.2744L12.6377 20.3209C12.6527 20.3076 12.6703 20.2974 12.6893 20.291C12.7084 20.2846 12.7285 20.282 12.7485 20.2835C12.7686 20.285 12.7881 20.2904 12.806 20.2996C12.8239 20.3087 12.8398 20.3214 12.8527 20.3368C12.8657 20.3522 12.8754 20.37 12.8813 20.3892C12.8873 20.4084 12.8893 20.4286 12.8873 20.4486C12.8853 20.4686 12.8793 20.488 12.8697 20.5056C12.8601 20.5233 12.8471 20.5388 12.8314 20.5514L11.6964 21.5049C11.6694 21.5277 11.6353 21.5402 11.6 21.5402Z" fill="#F24973"/>
<path d="M9.06994 21.5402C9.03452 21.5403 9.00024 21.5277 8.9732 21.5049L7.83821 20.5514C7.82249 20.5388 7.80945 20.5233 7.79984 20.5056C7.79023 20.488 7.78426 20.4686 7.78226 20.4486C7.78027 20.4286 7.78231 20.4084 7.78824 20.3892C7.79418 20.37 7.8039 20.3522 7.81683 20.3368C7.82977 20.3214 7.84565 20.3087 7.86354 20.2996C7.88143 20.2904 7.90098 20.285 7.92103 20.2835C7.94107 20.282 7.96121 20.2846 7.98025 20.291C7.9993 20.2974 8.01686 20.3076 8.03191 20.3209L9.1669 21.2744C9.19056 21.2943 9.20752 21.321 9.21547 21.3509C9.22343 21.3808 9.222 21.4124 9.21137 21.4414C9.20075 21.4704 9.18144 21.4955 9.15608 21.5132C9.13072 21.5308 9.10053 21.5403 9.06962 21.5402H9.06994Z" fill="#F24973"/>
<path d="M7.93495 21.5402C7.90404 21.5403 7.87385 21.5308 7.84849 21.5132C7.82313 21.4955 7.80382 21.4704 7.7932 21.4414C7.78257 21.4124 7.78114 21.3808 7.7891 21.3509C7.79705 21.321 7.81401 21.2943 7.83767 21.2744L8.97266 20.3209C8.98771 20.3076 9.00527 20.2974 9.02431 20.291C9.04336 20.2846 9.06349 20.282 9.08354 20.2835C9.10358 20.285 9.12313 20.2904 9.14103 20.2996C9.15892 20.3087 9.1748 20.3214 9.18773 20.3368C9.20066 20.3522 9.21039 20.37 9.21632 20.3892C9.22226 20.4084 9.22429 20.4286 9.2223 20.4486C9.22031 20.4686 9.21433 20.488 9.20473 20.5056C9.19512 20.5233 9.18207 20.5388 9.16636 20.5514L8.03137 21.5049C8.00441 21.5277 7.97026 21.5402 7.93495 21.5402Z" fill="#F24973"/>
<path d="M5.21048 21.5402C5.17487 21.5404 5.14038 21.5279 5.11319 21.5049L3.9782 20.5514C3.96249 20.5388 3.94945 20.5233 3.93984 20.5056C3.93023 20.488 3.92426 20.4686 3.92227 20.4486C3.92027 20.4286 3.92231 20.4084 3.92824 20.3892C3.93418 20.37 3.9439 20.3522 3.95683 20.3368C3.96976 20.3214 3.98564 20.3087 4.00354 20.2996C4.02143 20.2904 4.04098 20.285 4.06102 20.2835C4.08107 20.282 4.10121 20.2846 4.12025 20.291C4.1393 20.2974 4.15686 20.3076 4.17191 20.3209L5.3069 21.2744C5.33056 21.2943 5.34752 21.321 5.35547 21.3509C5.36343 21.3808 5.362 21.4124 5.35137 21.4414C5.34074 21.4704 5.32144 21.4955 5.29608 21.5132C5.27072 21.5308 5.24053 21.5403 5.20961 21.5402H5.21048Z" fill="#F24973"/>
<path d="M4.0762 21.5402C4.04529 21.5403 4.0151 21.5308 3.98974 21.5132C3.96438 21.4955 3.94507 21.4704 3.93445 21.4414C3.92382 21.4124 3.92239 21.3808 3.93035 21.3509C3.9383 21.321 3.95526 21.2943 3.97892 21.2744L5.11391 20.3209C5.12896 20.3076 5.14652 20.2974 5.16557 20.291C5.18461 20.2846 5.20475 20.282 5.22479 20.2835C5.24484 20.285 5.26438 20.2904 5.28228 20.2996C5.30017 20.3087 5.31606 20.3214 5.32899 20.3368C5.34192 20.3522 5.35164 20.37 5.35758 20.3892C5.36351 20.4084 5.36555 20.4286 5.36355 20.4486C5.36156 20.4686 5.35559 20.488 5.34598 20.5056C5.33637 20.5233 5.32333 20.5388 5.30762 20.5514L4.17262 21.5049C4.14566 21.5277 4.11151 21.5402 4.0762 21.5402Z" fill="#F24973"/>
<path d="M24.0412 24.1778C24.0058 24.1778 23.9715 24.1653 23.9444 24.1424L22.8095 23.1889C22.7937 23.1764 22.7807 23.1609 22.7711 23.1432C22.7615 23.1255 22.7555 23.1061 22.7535 23.0861C22.7515 23.0661 22.7536 23.046 22.7595 23.0267C22.7654 23.0075 22.7752 22.9897 22.7881 22.9743C22.801 22.959 22.8169 22.9463 22.8348 22.9372C22.8527 22.928 22.8722 22.9225 22.8923 22.9211C22.9123 22.9196 22.9325 22.9221 22.9515 22.9286C22.9705 22.935 22.9881 22.9452 23.0032 22.9585L24.1382 23.912C24.1618 23.9319 24.1788 23.9586 24.1867 23.9885C24.1947 24.0183 24.1933 24.0499 24.1826 24.079C24.172 24.108 24.1527 24.1331 24.1273 24.1507C24.102 24.1684 24.0718 24.1779 24.0409 24.1778H24.0412Z" fill="#F24973"/>
<path d="M22.9062 24.1778C22.8753 24.1779 22.8451 24.1684 22.8197 24.1507C22.7944 24.1331 22.7751 24.108 22.7644 24.079C22.7538 24.0499 22.7524 24.0183 22.7603 23.9885C22.7683 23.9586 22.7853 23.9319 22.8089 23.912L23.9439 22.9585C23.959 22.9452 23.9765 22.935 23.9956 22.9286C24.0146 22.9221 24.0347 22.9196 24.0548 22.9211C24.0748 22.9225 24.0944 22.928 24.1123 22.9372C24.1302 22.9463 24.1461 22.959 24.159 22.9743C24.1719 22.9897 24.1816 23.0075 24.1876 23.0267C24.1935 23.046 24.1955 23.0661 24.1936 23.0861C24.1916 23.1061 24.1856 23.1255 24.176 23.1432C24.1664 23.1609 24.1533 23.1764 24.1376 23.1889L23.0026 24.1424C22.9757 24.1652 22.9415 24.1778 22.9062 24.1778Z" fill="#F24973"/>
<path d="M20.3762 24.1778C20.3408 24.1778 20.3065 24.1653 20.2794 24.1424L19.1445 23.1889C19.1287 23.1764 19.1157 23.1609 19.1061 23.1432C19.0965 23.1255 19.0905 23.1061 19.0885 23.0861C19.0865 23.0661 19.0886 23.046 19.0945 23.0267C19.1004 23.0075 19.1102 22.9897 19.1231 22.9743C19.136 22.959 19.1519 22.9463 19.1698 22.9372C19.1877 22.928 19.2072 22.9225 19.2273 22.9211C19.2473 22.9196 19.2675 22.9221 19.2865 22.9286C19.3055 22.935 19.3231 22.9452 19.3382 22.9585L20.4731 23.912C20.4968 23.9319 20.5138 23.9586 20.5217 23.9885C20.5297 24.0183 20.5282 24.0499 20.5176 24.079C20.507 24.108 20.4877 24.1331 20.4623 24.1507C20.437 24.1684 20.4068 24.1779 20.3759 24.1778H20.3762Z" fill="#F24973"/>
<path d="M19.2412 24.1778C19.2103 24.1779 19.1801 24.1684 19.1547 24.1507C19.1294 24.1331 19.1101 24.108 19.0994 24.079C19.0888 24.0499 19.0874 24.0183 19.0953 23.9885C19.1033 23.9586 19.1203 23.9319 19.1439 23.912L20.2789 22.9585C20.294 22.9452 20.3115 22.935 20.3306 22.9286C20.3496 22.9221 20.3697 22.9196 20.3898 22.9211C20.4098 22.9225 20.4294 22.928 20.4473 22.9372C20.4652 22.9463 20.481 22.959 20.494 22.9743C20.5069 22.9897 20.5166 23.0075 20.5226 23.0267C20.5285 23.046 20.5305 23.0661 20.5285 23.0861C20.5266 23.1061 20.5206 23.1255 20.511 23.1432C20.5014 23.1609 20.4883 23.1764 20.4726 23.1889L19.3376 24.1424C19.3107 24.1652 19.2765 24.1778 19.2412 24.1778Z" fill="#F24973"/>
<path d="M16.5174 24.1778C16.482 24.1778 16.4477 24.1653 16.4207 24.1424L15.2857 23.1889C15.27 23.1764 15.2569 23.1609 15.2473 23.1432C15.2377 23.1255 15.2318 23.1061 15.2298 23.0861C15.2278 23.0661 15.2298 23.046 15.2357 23.0267C15.2417 23.0075 15.2514 22.9897 15.2643 22.9743C15.2773 22.959 15.2931 22.9463 15.311 22.9372C15.3289 22.928 15.3485 22.9225 15.3685 22.9211C15.3886 22.9196 15.4087 22.9221 15.4278 22.9286C15.4468 22.935 15.4644 22.9452 15.4794 22.9585L16.6144 23.912C16.6381 23.9319 16.655 23.9586 16.663 23.9885C16.6709 24.0183 16.6695 24.0499 16.6589 24.079C16.6482 24.108 16.6289 24.1331 16.6036 24.1507C16.5782 24.1684 16.548 24.1779 16.5171 24.1778H16.5174Z" fill="#F24973"/>
<path d="M15.3825 24.1778C15.3515 24.1779 15.3213 24.1684 15.296 24.1507C15.2706 24.1331 15.2513 24.108 15.2407 24.079C15.2301 24.0499 15.2286 24.0183 15.2366 23.9885C15.2446 23.9586 15.2615 23.9319 15.2852 23.912L16.4202 22.9585C16.4352 22.9452 16.4528 22.935 16.4718 22.9286C16.4909 22.9221 16.511 22.9196 16.531 22.9211C16.5511 22.9225 16.5706 22.928 16.5885 22.9372C16.6064 22.9463 16.6223 22.959 16.6352 22.9743C16.6482 22.9897 16.6579 23.0075 16.6638 23.0267C16.6698 23.046 16.6718 23.0661 16.6698 23.0861C16.6678 23.1061 16.6618 23.1255 16.6522 23.1432C16.6426 23.1609 16.6296 23.1764 16.6139 23.1889L15.4789 24.1424C15.4519 24.1652 15.4178 24.1778 15.3825 24.1778Z" fill="#F24973"/>
<path d="M12.7337 24.1778C12.6983 24.1778 12.664 24.1653 12.6369 24.1424L11.502 23.1889C11.4862 23.1764 11.4732 23.1609 11.4636 23.1432C11.454 23.1255 11.448 23.1061 11.446 23.0861C11.444 23.0661 11.4461 23.046 11.452 23.0267C11.4579 23.0075 11.4677 22.9897 11.4806 22.9743C11.4935 22.959 11.5094 22.9463 11.5273 22.9372C11.5452 22.928 11.5647 22.9225 11.5848 22.9211C11.6048 22.9196 11.625 22.9221 11.644 22.9286C11.663 22.935 11.6806 22.9452 11.6957 22.9585L12.8307 23.912C12.8543 23.9319 12.8713 23.9586 12.8792 23.9885C12.8872 24.0183 12.8857 24.0499 12.8751 24.079C12.8645 24.108 12.8452 24.1331 12.8198 24.1507C12.7945 24.1684 12.7643 24.1779 12.7334 24.1778H12.7337Z" fill="#F24973"/>
<path d="M11.6 24.1778C11.569 24.1779 11.5388 24.1684 11.5135 24.1507C11.4881 24.1331 11.4688 24.108 11.4582 24.079C11.4476 24.0499 11.4461 24.0183 11.4541 23.9885C11.4621 23.9586 11.479 23.9319 11.5027 23.912L12.6377 22.9585C12.6527 22.9452 12.6703 22.935 12.6893 22.9286C12.7084 22.9221 12.7285 22.9196 12.7485 22.9211C12.7686 22.9225 12.7881 22.928 12.806 22.9372C12.8239 22.9463 12.8398 22.959 12.8527 22.9743C12.8657 22.9897 12.8754 23.0075 12.8813 23.0267C12.8873 23.046 12.8893 23.0661 12.8873 23.0861C12.8853 23.1061 12.8793 23.1255 12.8697 23.1432C12.8601 23.1609 12.8471 23.1764 12.8314 23.1889L11.6964 24.1424C11.6694 24.1652 11.6353 24.1778 11.6 24.1778Z" fill="#F24973"/>
<path d="M9.06994 24.1778C9.03452 24.1778 9.00024 24.1653 8.9732 24.1424L7.83821 23.1889C7.82249 23.1764 7.80945 23.1609 7.79984 23.1432C7.79023 23.1255 7.78426 23.1061 7.78226 23.0861C7.78027 23.0661 7.78231 23.046 7.78824 23.0267C7.79418 23.0075 7.8039 22.9897 7.81683 22.9743C7.82977 22.959 7.84565 22.9463 7.86354 22.9372C7.88143 22.928 7.90098 22.9225 7.92103 22.9211C7.94107 22.9196 7.96121 22.9221 7.98025 22.9286C7.9993 22.935 8.01686 22.9452 8.03191 22.9585L9.1669 23.912C9.19056 23.9319 9.20752 23.9586 9.21547 23.9885C9.22343 24.0183 9.222 24.0499 9.21137 24.079C9.20075 24.108 9.18144 24.1331 9.15608 24.1507C9.13072 24.1684 9.10053 24.1779 9.06962 24.1778H9.06994Z" fill="#F24973"/>
<path d="M7.93495 24.1778C7.90404 24.1779 7.87385 24.1684 7.84849 24.1507C7.82313 24.1331 7.80382 24.108 7.7932 24.079C7.78257 24.0499 7.78114 24.0183 7.7891 23.9885C7.79705 23.9586 7.81401 23.9319 7.83767 23.912L8.97266 22.9585C8.98771 22.9452 9.00527 22.935 9.02431 22.9286C9.04336 22.9221 9.06349 22.9196 9.08354 22.9211C9.10358 22.9225 9.12313 22.928 9.14103 22.9372C9.15892 22.9463 9.1748 22.959 9.18773 22.9743C9.20066 22.9897 9.21039 23.0075 9.21632 23.0267C9.22226 23.046 9.22429 23.0661 9.2223 23.0861C9.22031 23.1061 9.21433 23.1255 9.20473 23.1432C9.19512 23.1609 9.18207 23.1764 9.16636 23.1889L8.03137 24.1424C8.00441 24.1652 7.97026 24.1778 7.93495 24.1778Z" fill="#F24973"/>
<path d="M5.21048 24.1778C5.17487 24.178 5.14038 24.1654 5.11319 24.1424L3.9782 23.1889C3.96249 23.1764 3.94945 23.1609 3.93984 23.1432C3.93023 23.1255 3.92426 23.1061 3.92227 23.0861C3.92027 23.0661 3.92231 23.046 3.92824 23.0267C3.93418 23.0075 3.9439 22.9897 3.95683 22.9743C3.96976 22.959 3.98564 22.9463 4.00354 22.9372C4.02143 22.928 4.04098 22.9225 4.06102 22.9211C4.08107 22.9196 4.10121 22.9221 4.12025 22.9286C4.1393 22.935 4.15686 22.9452 4.17191 22.9585L5.3069 23.912C5.33056 23.9319 5.34752 23.9586 5.35547 23.9885C5.36343 24.0183 5.362 24.0499 5.35137 24.079C5.34074 24.108 5.32144 24.1331 5.29608 24.1507C5.27072 24.1684 5.24053 24.1779 5.20961 24.1778H5.21048Z" fill="#F24973"/>
<path d="M4.0762 24.1778C4.04529 24.1779 4.0151 24.1684 3.98974 24.1507C3.96438 24.1331 3.94507 24.108 3.93445 24.079C3.92382 24.0499 3.92239 24.0183 3.93035 23.9885C3.9383 23.9586 3.95526 23.9319 3.97892 23.912L5.11391 22.9585C5.12896 22.9452 5.14652 22.935 5.16557 22.9286C5.18461 22.9221 5.20475 22.9196 5.22479 22.9211C5.24484 22.9225 5.26438 22.928 5.28228 22.9372C5.30017 22.9463 5.31606 22.959 5.32899 22.9743C5.34192 22.9897 5.35164 23.0075 5.35758 23.0267C5.36351 23.046 5.36555 23.0661 5.36355 23.0861C5.36156 23.1061 5.35559 23.1255 5.34598 23.1432C5.33637 23.1609 5.32333 23.1764 5.30762 23.1889L4.17262 24.1424C4.14566 24.1652 4.11151 24.1778 4.0762 24.1778Z" fill="#F24973"/>
<path d="M27.899 16.4166C27.8636 16.4166 27.8293 16.4041 27.8023 16.3812L26.6673 15.4277C26.6379 15.4017 26.6198 15.3652 26.6169 15.3261C26.614 15.2869 26.6266 15.2482 26.6518 15.2181C26.6771 15.1881 26.7131 15.1691 26.7522 15.1652C26.7913 15.1613 26.8303 15.1728 26.861 15.1973L27.996 16.1508C28.0196 16.1707 28.0366 16.1974 28.0446 16.2273C28.0525 16.2571 28.0511 16.2887 28.0405 16.3178C28.0298 16.3468 28.0105 16.3719 27.9852 16.3895C27.9598 16.4072 27.9296 16.4167 27.8987 16.4166H27.899Z" fill="#F24973"/>
<path d="M26.765 16.4166C26.734 16.4166 26.7039 16.4072 26.6785 16.3895C26.6531 16.3718 26.6338 16.3468 26.6232 16.3177C26.6126 16.2887 26.6111 16.2571 26.6191 16.2272C26.6271 16.1974 26.644 16.1707 26.6677 16.1508L27.8027 15.1973C27.8177 15.1839 27.8353 15.1738 27.8543 15.1673C27.8734 15.1609 27.8935 15.1584 27.9135 15.1598C27.9336 15.1613 27.9531 15.1668 27.971 15.1759C27.9889 15.1851 28.0048 15.1977 28.0177 15.2131C28.0307 15.2285 28.0404 15.2463 28.0463 15.2655C28.0523 15.2847 28.0543 15.3049 28.0523 15.3249C28.0503 15.3449 28.0443 15.3643 28.0347 15.382C28.0251 15.3996 28.0121 15.4152 27.9964 15.4277L26.8614 16.3812C26.8344 16.404 26.8003 16.4165 26.765 16.4166Z" fill="#F24973"/>
<path d="M24.0403 16.4166C24.0049 16.4166 23.9706 16.4041 23.9435 16.3812L22.8085 15.4277C22.7791 15.4017 22.7611 15.3652 22.7582 15.3261C22.7553 15.2869 22.7678 15.2482 22.7931 15.2181C22.8183 15.1881 22.8544 15.1691 22.8934 15.1652C22.9325 15.1613 22.9715 15.1728 23.0022 15.1973L24.1372 16.1508C24.1609 16.1707 24.1778 16.1974 24.1858 16.2273C24.1938 16.2571 24.1923 16.2887 24.1817 16.3178C24.1711 16.3468 24.1518 16.3719 24.1264 16.3895C24.1011 16.4072 24.0709 16.4167 24.0399 16.4166H24.0403Z" fill="#F24973"/>
<path d="M22.9062 16.4166C22.8753 16.4166 22.8451 16.4072 22.8197 16.3895C22.7944 16.3718 22.7751 16.3468 22.7644 16.3177C22.7538 16.2887 22.7524 16.2571 22.7603 16.2272C22.7683 16.1974 22.7853 16.1707 22.8089 16.1508L23.9439 15.1973C23.959 15.1839 23.9765 15.1738 23.9956 15.1673C24.0146 15.1609 24.0347 15.1584 24.0548 15.1598C24.0748 15.1613 24.0944 15.1668 24.1123 15.1759C24.1302 15.1851 24.1461 15.1977 24.159 15.2131C24.1719 15.2285 24.1816 15.2463 24.1876 15.2655C24.1935 15.2847 24.1955 15.3049 24.1936 15.3249C24.1916 15.3449 24.1856 15.3643 24.176 15.382C24.1664 15.3996 24.1533 15.4152 24.1376 15.4277L23.0026 16.3812C22.9757 16.404 22.9415 16.4165 22.9062 16.4166Z" fill="#F24973"/>
<path d="M20.3765 16.4166C20.3411 16.4166 20.3068 16.4041 20.2798 16.3812L19.1448 15.4277C19.1154 15.4017 19.0973 15.3652 19.0944 15.3261C19.0915 15.2869 19.1041 15.2482 19.1293 15.2181C19.1546 15.1881 19.1906 15.1691 19.2297 15.1652C19.2688 15.1613 19.3078 15.1728 19.3385 15.1973L20.4735 16.1508C20.4971 16.1707 20.5141 16.1974 20.5221 16.2273C20.53 16.2571 20.5286 16.2887 20.518 16.3178C20.5073 16.3468 20.488 16.3719 20.4627 16.3895C20.4373 16.4072 20.4071 16.4167 20.3762 16.4166H20.3765Z" fill="#F24973"/>
<path d="M19.2412 16.4166C19.2103 16.4166 19.1801 16.4072 19.1547 16.3895C19.1294 16.3718 19.1101 16.3468 19.0994 16.3177C19.0888 16.2887 19.0874 16.2571 19.0953 16.2272C19.1033 16.1974 19.1203 16.1707 19.1439 16.1508L20.2789 15.1973C20.294 15.1839 20.3115 15.1738 20.3306 15.1673C20.3496 15.1609 20.3697 15.1584 20.3898 15.1598C20.4098 15.1613 20.4294 15.1668 20.4473 15.1759C20.4652 15.1851 20.481 15.1977 20.494 15.2131C20.5069 15.2285 20.5166 15.2463 20.5226 15.2655C20.5285 15.2847 20.5305 15.3049 20.5285 15.3249C20.5266 15.3449 20.5206 15.3643 20.511 15.382C20.5014 15.3996 20.4883 15.4152 20.4726 15.4277L19.3376 16.3812C19.3107 16.404 19.2765 16.4165 19.2412 16.4166Z" fill="#F24973"/>
<path d="M16.5178 16.4166C16.4824 16.4166 16.4481 16.4041 16.421 16.3812L15.286 15.4277C15.2566 15.4017 15.2386 15.3652 15.2357 15.3261C15.2328 15.2869 15.2453 15.2482 15.2706 15.2181C15.2958 15.1881 15.3319 15.1691 15.3709 15.1652C15.41 15.1613 15.4491 15.1728 15.4797 15.1973L16.6147 16.1508C16.6384 16.1707 16.6554 16.1974 16.6633 16.2273C16.6713 16.2571 16.6698 16.2887 16.6592 16.3178C16.6486 16.3468 16.6293 16.3719 16.6039 16.3895C16.5786 16.4072 16.5484 16.4167 16.5175 16.4166H16.5178Z" fill="#F24973"/>
<path d="M15.3825 16.4166C15.3515 16.4166 15.3213 16.4072 15.296 16.3895C15.2706 16.3718 15.2513 16.3468 15.2407 16.3177C15.2301 16.2887 15.2286 16.2571 15.2366 16.2272C15.2446 16.1974 15.2615 16.1707 15.2852 16.1508L16.4202 15.1973C16.4352 15.1839 16.4528 15.1738 16.4718 15.1673C16.4909 15.1609 16.511 15.1584 16.531 15.1598C16.5511 15.1613 16.5706 15.1668 16.5885 15.1759C16.6064 15.1851 16.6223 15.1977 16.6352 15.2131C16.6482 15.2285 16.6579 15.2463 16.6638 15.2655C16.6698 15.2847 16.6718 15.3049 16.6698 15.3249C16.6678 15.3449 16.6618 15.3643 16.6522 15.382C16.6426 15.3996 16.6296 15.4152 16.6139 15.4277L15.4789 16.3812C15.4519 16.404 15.4178 16.4165 15.3825 16.4166Z" fill="#F24973"/>
<path d="M12.734 16.4166C12.6986 16.4166 12.6643 16.4041 12.6373 16.3812L11.5023 15.4277C11.4729 15.4017 11.4548 15.3652 11.4519 15.3261C11.449 15.2869 11.4615 15.2482 11.4868 15.2181C11.5121 15.1881 11.5481 15.1691 11.5871 15.1652C11.6262 15.1613 11.6653 15.1728 11.696 15.1973L12.831 16.1508C12.8546 16.1707 12.8716 16.1974 12.8795 16.2273C12.8875 16.2571 12.8861 16.2887 12.8754 16.3178C12.8648 16.3468 12.8455 16.3719 12.8201 16.3895C12.7948 16.4072 12.7646 16.4167 12.7337 16.4166H12.734Z" fill="#F24973"/>
<path d="M11.6 16.4166C11.569 16.4166 11.5388 16.4072 11.5135 16.3895C11.4881 16.3718 11.4688 16.3468 11.4582 16.3177C11.4476 16.2887 11.4461 16.2571 11.4541 16.2272C11.4621 16.1974 11.479 16.1707 11.5027 16.1508L12.6377 15.1973C12.6527 15.1839 12.6703 15.1738 12.6893 15.1673C12.7084 15.1609 12.7285 15.1584 12.7485 15.1598C12.7686 15.1613 12.7881 15.1668 12.806 15.1759C12.8239 15.1851 12.8398 15.1977 12.8527 15.2131C12.8657 15.2285 12.8754 15.2463 12.8813 15.2655C12.8873 15.2847 12.8893 15.3049 12.8873 15.3249C12.8853 15.3449 12.8793 15.3643 12.8697 15.382C12.8601 15.3996 12.8471 15.4152 12.8314 15.4277L11.6964 16.3812C11.6694 16.404 11.6353 16.4165 11.6 16.4166Z" fill="#F24973"/>
<path d="M9.06902 16.4166C9.03361 16.4166 8.99933 16.4041 8.97228 16.3812L7.83729 15.4277C7.80789 15.4017 7.78982 15.3652 7.78693 15.3261C7.78404 15.2869 7.79657 15.2482 7.82183 15.2181C7.8471 15.1881 7.88311 15.1691 7.92218 15.1652C7.96125 15.1613 8.0003 15.1728 8.031 15.1973L9.16599 16.1508C9.18965 16.1707 9.2066 16.1974 9.21456 16.2273C9.22252 16.2571 9.22109 16.2887 9.21046 16.3178C9.19983 16.3468 9.18053 16.3719 9.15517 16.3895C9.12981 16.4072 9.09962 16.4167 9.0687 16.4166H9.06902Z" fill="#F24973"/>
<path d="M7.93495 16.4166C7.90404 16.4166 7.87385 16.4072 7.84849 16.3895C7.82313 16.3718 7.80382 16.3468 7.7932 16.3177C7.78257 16.2887 7.78114 16.2571 7.7891 16.2272C7.79705 16.1974 7.81401 16.1707 7.83767 16.1508L8.97266 15.1973C8.98771 15.1839 9.00527 15.1738 9.02431 15.1673C9.04336 15.1609 9.06349 15.1584 9.08354 15.1598C9.10358 15.1613 9.12313 15.1668 9.14103 15.1759C9.15892 15.1851 9.1748 15.1977 9.18773 15.2131C9.20066 15.2285 9.21039 15.2463 9.21632 15.2655C9.22226 15.2847 9.22429 15.3049 9.2223 15.3249C9.22031 15.3449 9.21433 15.3643 9.20473 15.382C9.19512 15.3996 9.18207 15.4152 9.16636 15.4277L8.03137 16.3812C8.00441 16.404 7.97026 16.4165 7.93495 16.4166Z" fill="#F24973"/>
<path d="M27.899 13.9521C27.8636 13.9522 27.8293 13.9396 27.8023 13.9168L26.6673 12.9633C26.6379 12.9372 26.6198 12.9008 26.6169 12.8616C26.614 12.8224 26.6266 12.7837 26.6518 12.7536C26.6771 12.7236 26.7131 12.7046 26.7522 12.7007C26.7913 12.6968 26.8303 12.7083 26.861 12.7328L27.996 13.6863C28.0196 13.7062 28.0366 13.7329 28.0446 13.7628C28.0525 13.7927 28.0511 13.8243 28.0405 13.8533C28.0298 13.8823 28.0105 13.9074 27.9852 13.9251C27.9598 13.9427 27.9296 13.9522 27.8987 13.9521H27.899Z" fill="#F24973"/>
<path d="M26.765 13.9521C26.734 13.9522 26.7039 13.9427 26.6785 13.925C26.6531 13.9074 26.6338 13.8823 26.6232 13.8533C26.6126 13.8242 26.6111 13.7926 26.6191 13.7628C26.6271 13.7329 26.644 13.7062 26.6677 13.6863L27.8027 12.7328C27.8177 12.7195 27.8353 12.7093 27.8543 12.7029C27.8734 12.6964 27.8935 12.6939 27.9135 12.6954C27.9336 12.6968 27.9531 12.7023 27.971 12.7115C27.9889 12.7206 28.0048 12.7333 28.0177 12.7486C28.0307 12.764 28.0404 12.7818 28.0463 12.801C28.0523 12.8202 28.0543 12.8404 28.0523 12.8604C28.0503 12.8804 28.0443 12.8998 28.0347 12.9175C28.0251 12.9352 28.0121 12.9507 27.9964 12.9632L26.8614 13.9167C26.8344 13.9395 26.8003 13.952 26.765 13.9521Z" fill="#F24973"/>
<path d="M24.0403 13.9521C24.0049 13.9522 23.9706 13.9396 23.9435 13.9168L22.8085 12.9633C22.7791 12.9372 22.7611 12.9008 22.7582 12.8616C22.7553 12.8224 22.7678 12.7837 22.7931 12.7536C22.8183 12.7236 22.8544 12.7046 22.8934 12.7007C22.9325 12.6968 22.9715 12.7083 23.0022 12.7328L24.1372 13.6863C24.1609 13.7062 24.1778 13.7329 24.1858 13.7628C24.1938 13.7927 24.1923 13.8243 24.1817 13.8533C24.1711 13.8823 24.1518 13.9074 24.1264 13.9251C24.1011 13.9427 24.0709 13.9522 24.0399 13.9521H24.0403Z" fill="#F24973"/>
<path d="M22.9062 13.9521C22.8753 13.9522 22.8451 13.9427 22.8197 13.925C22.7944 13.9074 22.7751 13.8823 22.7644 13.8533C22.7538 13.8242 22.7524 13.7926 22.7603 13.7628C22.7683 13.7329 22.7853 13.7062 22.8089 13.6863L23.9439 12.7328C23.959 12.7195 23.9765 12.7093 23.9956 12.7029C24.0146 12.6964 24.0347 12.6939 24.0548 12.6954C24.0748 12.6968 24.0944 12.7023 24.1123 12.7115C24.1302 12.7206 24.1461 12.7333 24.159 12.7486C24.1719 12.764 24.1816 12.7818 24.1876 12.801C24.1935 12.8202 24.1955 12.8404 24.1936 12.8604C24.1916 12.8804 24.1856 12.8998 24.176 12.9175C24.1664 12.9352 24.1533 12.9507 24.1376 12.9632L23.0026 13.9167C22.9757 13.9395 22.9415 13.952 22.9062 13.9521Z" fill="#F24973"/>
<path d="M20.3765 13.9521C20.3411 13.9522 20.3068 13.9396 20.2798 13.9168L19.1448 12.9633C19.1154 12.9372 19.0973 12.9008 19.0944 12.8616C19.0915 12.8224 19.1041 12.7837 19.1293 12.7536C19.1546 12.7236 19.1906 12.7046 19.2297 12.7007C19.2688 12.6968 19.3078 12.7083 19.3385 12.7328L20.4735 13.6863C20.4971 13.7062 20.5141 13.7329 20.5221 13.7628C20.53 13.7927 20.5286 13.8243 20.518 13.8533C20.5073 13.8823 20.488 13.9074 20.4627 13.9251C20.4373 13.9427 20.4071 13.9522 20.3762 13.9521H20.3765Z" fill="#F24973"/>
<path d="M19.2412 13.9521C19.2103 13.9522 19.1801 13.9427 19.1547 13.925C19.1294 13.9074 19.1101 13.8823 19.0994 13.8533C19.0888 13.8242 19.0874 13.7926 19.0953 13.7628C19.1033 13.7329 19.1203 13.7062 19.1439 13.6863L20.2789 12.7328C20.294 12.7195 20.3115 12.7093 20.3306 12.7029C20.3496 12.6964 20.3697 12.6939 20.3898 12.6954C20.4098 12.6968 20.4294 12.7023 20.4473 12.7115C20.4652 12.7206 20.481 12.7333 20.494 12.7486C20.5069 12.764 20.5166 12.7818 20.5226 12.801C20.5285 12.8202 20.5305 12.8404 20.5285 12.8604C20.5266 12.8804 20.5206 12.8998 20.511 12.9175C20.5014 12.9352 20.4883 12.9507 20.4726 12.9632L19.3376 13.9167C19.3107 13.9395 19.2765 13.952 19.2412 13.9521Z" fill="#F24973"/>
<path d="M16.5178 13.9521C16.4824 13.9522 16.4481 13.9396 16.421 13.9168L15.286 12.9633C15.2566 12.9372 15.2386 12.9008 15.2357 12.8616C15.2328 12.8224 15.2453 12.7837 15.2706 12.7536C15.2958 12.7236 15.3319 12.7046 15.3709 12.7007C15.41 12.6968 15.4491 12.7083 15.4797 12.7328L16.6147 13.6863C16.6384 13.7062 16.6554 13.7329 16.6633 13.7628C16.6713 13.7927 16.6698 13.8243 16.6592 13.8533C16.6486 13.8823 16.6293 13.9074 16.6039 13.9251C16.5786 13.9427 16.5484 13.9522 16.5175 13.9521H16.5178Z" fill="#F24973"/>
<path d="M15.3825 13.9521C15.3515 13.9522 15.3213 13.9427 15.296 13.925C15.2706 13.9074 15.2513 13.8823 15.2407 13.8533C15.2301 13.8242 15.2286 13.7926 15.2366 13.7628C15.2446 13.7329 15.2615 13.7062 15.2852 13.6863L16.4202 12.7328C16.4352 12.7195 16.4528 12.7093 16.4718 12.7029C16.4909 12.6964 16.511 12.6939 16.531 12.6954C16.5511 12.6968 16.5706 12.7023 16.5885 12.7115C16.6064 12.7206 16.6223 12.7333 16.6352 12.7486C16.6482 12.764 16.6579 12.7818 16.6638 12.801C16.6698 12.8202 16.6718 12.8404 16.6698 12.8604C16.6678 12.8804 16.6618 12.8998 16.6522 12.9175C16.6426 12.9352 16.6296 12.9507 16.6139 12.9632L15.4789 13.9167C15.4519 13.9395 15.4178 13.952 15.3825 13.9521Z" fill="#F24973"/>
<path d="M12.734 13.9521C12.6986 13.9522 12.6643 13.9396 12.6373 13.9168L11.5023 12.9633C11.4729 12.9372 11.4548 12.9008 11.4519 12.8616C11.449 12.8224 11.4616 12.7837 11.4868 12.7536C11.5121 12.7236 11.5481 12.7046 11.5872 12.7007C11.6263 12.6968 11.6653 12.7083 11.696 12.7328L12.831 13.6863C12.8546 13.7062 12.8716 13.7329 12.8796 13.7628C12.8875 13.7927 12.8861 13.8243 12.8755 13.8533C12.8648 13.8823 12.8455 13.9074 12.8202 13.9251C12.7948 13.9427 12.7646 13.9522 12.7337 13.9521H12.734Z" fill="#F24973"/>
<path d="M11.6 13.9521C11.569 13.9522 11.5388 13.9427 11.5135 13.925C11.4881 13.9074 11.4688 13.8823 11.4582 13.8533C11.4476 13.8242 11.4461 13.7926 11.4541 13.7628C11.4621 13.7329 11.479 13.7062 11.5027 13.6863L12.6377 12.7328C12.6527 12.7195 12.6703 12.7093 12.6893 12.7029C12.7084 12.6964 12.7285 12.6939 12.7485 12.6954C12.7686 12.6968 12.7881 12.7023 12.806 12.7115C12.8239 12.7206 12.8398 12.7333 12.8527 12.7486C12.8657 12.764 12.8754 12.7818 12.8813 12.801C12.8873 12.8202 12.8893 12.8404 12.8873 12.8604C12.8853 12.8804 12.8793 12.8998 12.8697 12.9175C12.8601 12.9352 12.8471 12.9507 12.8314 12.9632L11.6964 13.9167C11.6694 13.9395 11.6353 13.952 11.6 13.9521Z" fill="#F24973"/>
<path d="M9.06902 13.9521C9.03361 13.9522 8.99933 13.9396 8.97228 13.9168L7.83729 12.9633C7.80789 12.9372 7.78982 12.9008 7.78693 12.8616C7.78404 12.8224 7.79657 12.7837 7.82183 12.7536C7.8471 12.7236 7.88311 12.7046 7.92218 12.7007C7.96125 12.6968 8.0003 12.7083 8.031 12.7328L9.16599 13.6863C9.18965 13.7062 9.2066 13.7329 9.21456 13.7628C9.22252 13.7927 9.22109 13.8243 9.21046 13.8533C9.19983 13.8823 9.18053 13.9074 9.15517 13.9251C9.12981 13.9427 9.09962 13.9522 9.0687 13.9521H9.06902Z" fill="#F24973"/>
<path d="M7.93495 13.9521C7.90404 13.9522 7.87385 13.9427 7.84849 13.925C7.82313 13.9074 7.80382 13.8823 7.7932 13.8533C7.78257 13.8242 7.78114 13.7926 7.7891 13.7628C7.79705 13.7329 7.81401 13.7062 7.83767 13.6863L8.97266 12.7328C8.98771 12.7195 9.00527 12.7093 9.02431 12.7029C9.04336 12.6964 9.06349 12.6939 9.08354 12.6954C9.10358 12.6968 9.12313 12.7023 9.14103 12.7115C9.15892 12.7206 9.1748 12.7333 9.18773 12.7486C9.20066 12.764 9.21039 12.7818 9.21632 12.801C9.22226 12.8202 9.22429 12.8404 9.2223 12.8604C9.22031 12.8804 9.21433 12.8998 9.20473 12.9175C9.19512 12.9352 9.18207 12.9507 9.16636 12.9632L8.03137 13.9167C8.00441 13.9395 7.97026 13.952 7.93495 13.9521Z" fill="#F24973"/>
<path d="M5.21081 16.4166C5.17521 16.4168 5.14072 16.4042 5.11353 16.3812L3.97854 15.4277C3.94914 15.4017 3.93107 15.3652 3.92818 15.3261C3.92529 15.2869 3.93782 15.2482 3.96308 15.2181C3.98835 15.1881 4.02435 15.1691 4.06343 15.1652C4.1025 15.1613 4.14155 15.1728 4.17225 15.1973L5.30724 16.1508C5.33089 16.1707 5.34785 16.1974 5.35581 16.2273C5.36377 16.2571 5.36233 16.2887 5.35171 16.3178C5.34108 16.3468 5.32178 16.3719 5.29642 16.3895C5.27105 16.4072 5.24087 16.4167 5.20995 16.4166H5.21081Z" fill="#F24973"/>
<path d="M4.0762 16.4166C4.04529 16.4166 4.0151 16.4072 3.98974 16.3895C3.96438 16.3718 3.94507 16.3468 3.93445 16.3177C3.92382 16.2887 3.92239 16.2571 3.93035 16.2272C3.9383 16.1974 3.95526 16.1707 3.97892 16.1508L5.11391 15.1973C5.12896 15.1839 5.14652 15.1738 5.16557 15.1673C5.18461 15.1609 5.20475 15.1584 5.22479 15.1598C5.24484 15.1613 5.26438 15.1668 5.28228 15.1759C5.30017 15.1851 5.31606 15.1977 5.32899 15.2131C5.34192 15.2285 5.35164 15.2463 5.35758 15.2655C5.36351 15.2847 5.36555 15.3049 5.36355 15.3249C5.36156 15.3449 5.35559 15.3643 5.34598 15.382C5.33637 15.3996 5.32333 15.4152 5.30762 15.4277L4.17262 16.3812C4.14566 16.404 4.11151 16.4165 4.0762 16.4166Z" fill="#F24973"/>
</g>
<path d="M3.77139 13.3017C3.68241 13.2655 3.58029 13.2802 3.50588 13.3409C1.40416 15.0562 0.475814 17.1474 0.903304 19.2143C1.33895 21.3207 3.15077 23.2479 5.97896 24.6132C8.80715 25.9785 12.4448 26.682 16.1696 26.5841C19.8944 26.4861 23.4338 25.5938 26.0849 24.0844C28.7361 22.575 30.3051 20.5589 30.4803 18.4365C30.6555 16.314 29.4241 14.2405 27.0307 12.6277C24.6373 11.0148 21.2569 9.98067 17.5609 9.73056C14.0082 9.49014 10.4137 9.99104 7.43712 11.1358C7.27615 11.1977 7.24547 11.4101 7.38015 11.5178C7.44422 11.5691 7.53074 11.5816 7.60692 11.5511C10.4845 10.4 13.9986 9.89181 17.4707 10.1268C20.9925 10.3651 24.2134 11.3505 26.494 12.8872C28.7745 14.424 29.9478 16.3998 29.7809 18.4221C29.6139 20.4445 28.1189 22.3655 25.5928 23.8037C23.0667 25.2419 19.6942 26.0921 16.1451 26.1855C12.5959 26.2788 9.1298 25.6085 6.43498 24.3076C3.74017 23.0067 2.01379 21.1704 1.59869 19.1633C1.20771 17.2729 2.00699 15.3612 3.84278 13.7654C3.99673 13.6316 3.96035 13.3786 3.77139 13.3017Z" fill="#F24973"/>
<defs>
<clipPath id="clip0_440_828">
<rect width="29.4405" height="32" fill="white" transform="translate(1.22152)"/>
</clipPath>
</defs>
</svg>
