<svg width="30" height="32" viewBox="0 0 30 32" fill="none" xmlns="http://www.w3.org/2000/svg">
<g clip-path="url(#clip0_440_562)">
<path d="M29.4053 9.82068H0.0662498V10.1479H29.4053V9.82068Z" fill="#4947B0"/>
<path d="M29.4053 10.9194H0.0662498V11.4691H29.4053V10.9194Z" fill="#E5E5E5"/>
<path d="M27.7356 0.930664H1.60135C0.716435 0.930664 0 1.536 0 2.36097V9.87071H29.4533V2.36097C29.4533 1.5361 28.6206 0.930664 27.7356 0.930664Z" fill="#0064A2"/>
<path d="M1.7286 31.9999H27.7417C28.6603 31.9999 29.4049 31.2196 29.4049 30.2571V12.3081H0.0662508V30.2571C0.0652775 31.2196 0.809937 31.9999 1.7286 31.9999Z" fill="#CCCCCC"/>
<path d="M1.7286 29.8389H27.7417C28.6603 29.8389 29.4049 29.0587 29.4049 28.0961V10.1475H0.0662508V28.0961C0.0652775 29.0587 0.809937 29.8389 1.7286 29.8389Z" fill="#F7F7F7"/>
<path d="M29.4058 24.9031L24.275 29.8391H27.7491C28.664 29.8391 29.4058 29.1257 29.4058 28.2453V24.9031Z" fill="#DBDBDB"/>
<path d="M24.275 29.8391L29.4058 24.9031H25.9317C25.0167 24.9031 24.275 25.6165 24.275 26.4968V29.8391Z" fill="#E8E8E8"/>
<path d="M8.04625 8.04347V6.22498H8.69063C9.33664 6.22498 9.65967 6.52039 9.65971 7.1112C9.65971 7.39441 9.57155 7.6205 9.39523 7.78948C9.21891 7.95846 8.98404 8.043 8.69063 8.0431L8.04625 8.04347ZM8.45596 6.55881V7.71127H8.65859C8.8362 7.71127 8.97551 7.65801 9.07653 7.5515C9.17755 7.44499 9.22808 7.30006 9.22813 7.11669C9.22813 6.94346 9.17804 6.80715 9.07786 6.70775C8.97768 6.60836 8.83708 6.55872 8.65606 6.55881H8.45596Z" fill="#A3A2FF"/>
<path d="M11.052 8.04347H9.96125V6.22498H11.0102V6.55859H10.3709V6.963H10.9658V7.29521H10.3709V7.71104H11.052V8.04347Z" fill="#A3A2FF"/>
<path d="M12.6469 7.97814C12.5141 8.04239 12.3407 8.07452 12.1268 8.07452C11.8478 8.07452 11.6283 7.99252 11.4685 7.82853C11.3086 7.66454 11.2287 7.44606 11.2287 7.17309C11.2287 6.88232 11.3186 6.6465 11.4983 6.4656C11.678 6.28471 11.9112 6.19429 12.1978 6.19434C12.3754 6.19434 12.5251 6.21673 12.6469 6.2615V6.65584C12.5251 6.58313 12.3864 6.54678 12.2308 6.54678C12.06 6.54678 11.9222 6.60046 11.8173 6.70781C11.7124 6.81516 11.66 6.96054 11.66 7.14395C11.66 7.31971 11.7095 7.4598 11.8084 7.56423C11.9073 7.66867 12.0405 7.72086 12.2079 7.72081C12.3621 7.72232 12.5137 7.68202 12.6468 7.60419L12.6469 7.97814Z" fill="#A3A2FF"/>
<path d="M14.0545 8.04347H12.9637V6.22498H14.0127V6.55859H13.3735V6.963H13.9683V7.29521H13.3735V7.71104H14.0545V8.04347Z" fill="#A3A2FF"/>
<path d="M16.4188 8.04347H16.0142V6.9553C16.0142 6.83777 16.0192 6.708 16.0294 6.566H16.0193C15.9982 6.67755 15.9791 6.75787 15.9622 6.80695L15.536 8.04347H15.2011L14.7674 6.82022C14.7555 6.78725 14.7365 6.70271 14.7103 6.5666H14.6988C14.7098 6.74586 14.7153 6.90308 14.7153 7.03826V8.04347H14.3462V6.22498H14.9462L15.3179 7.30262C15.347 7.3872 15.3687 7.47417 15.3825 7.56255H15.39C15.4095 7.47388 15.4336 7.38628 15.4623 7.3001L15.8339 6.22512H16.4187L16.4188 8.04347Z" fill="#A3A2FF"/>
<path d="M16.8338 8.04347V6.22498H17.4959C17.6986 6.22498 17.8546 6.26217 17.9639 6.33655C18.0731 6.41093 18.1277 6.51574 18.1275 6.65096C18.1285 6.74635 18.0929 6.83849 18.0279 6.90837C17.9615 6.98191 17.8768 7.03304 17.7736 7.06176V7.06687C17.903 7.08288 18.0063 7.13063 18.0837 7.2101C18.1611 7.28958 18.1998 7.38635 18.1998 7.50042C18.1998 7.66693 18.1402 7.79899 18.021 7.89661C17.9018 7.99422 17.739 8.04305 17.5326 8.0431L16.8338 8.04347ZM17.2434 6.52708V6.95819H17.4235C17.5081 6.95819 17.5747 6.93768 17.6233 6.89665C17.6719 6.85563 17.6962 6.79921 17.6963 6.7274C17.6963 6.59395 17.5965 6.52723 17.3969 6.52723L17.2434 6.52708ZM17.2434 7.26244V7.74166H17.4654C17.5601 7.74166 17.6342 7.71969 17.6879 7.67575C17.7415 7.63182 17.7684 7.57182 17.7684 7.49575C17.7684 7.4231 17.742 7.36603 17.6891 7.32457C17.6363 7.2831 17.5625 7.26239 17.4677 7.26244H17.2434Z" fill="#A3A2FF"/>
<path d="M19.5895 8.04347H18.4987V6.22498H19.5477V6.55859H18.9083V6.963H19.5031V7.29521H18.9083V7.71104H19.5894L19.5895 8.04347Z" fill="#A3A2FF"/>
<path d="M21.4074 8.04347H20.9368L20.654 7.5756C20.6328 7.54016 20.6125 7.50845 20.5931 7.48048C20.5755 7.45493 20.5556 7.43096 20.5338 7.40886C20.5157 7.39032 20.4947 7.37491 20.4716 7.36327C20.4497 7.35259 20.4256 7.34716 20.4012 7.3474H20.2909V8.04347H19.8813V6.22498H20.5307C20.972 6.22498 21.1927 6.38981 21.1928 6.71947C21.1934 6.77924 21.1835 6.83866 21.1636 6.89502C21.1447 6.94779 21.1168 6.9969 21.0812 7.04018C21.0446 7.08416 21.0011 7.12186 20.9524 7.15176C20.9001 7.18395 20.8435 7.2087 20.7843 7.2253V7.23042C20.8127 7.23954 20.8393 7.25349 20.8629 7.27164C20.8894 7.29165 20.914 7.31398 20.9365 7.33836C20.9607 7.36424 20.9833 7.39147 21.0044 7.41991C21.026 7.44912 21.0458 7.47766 21.0637 7.50554L21.4074 8.04347ZM20.2912 6.5322V7.03803H20.4688C20.5567 7.03803 20.6273 7.01268 20.6806 6.96197C20.7069 6.93759 20.7277 6.90793 20.7417 6.87494C20.7557 6.84195 20.7625 6.80637 20.7618 6.77055C20.7618 6.61165 20.6666 6.5322 20.4764 6.5322H20.2912Z" fill="#A3A2FF"/>
<path d="M3.0542 2.63225C3.10885 2.29577 2.88025 1.97873 2.54363 1.92411C2.20701 1.86949 1.88983 2.09798 1.83519 2.43446C1.78055 2.77093 2.00914 3.08798 2.34576 3.1426C2.68238 3.19721 2.99956 2.96872 3.0542 2.63225Z" fill="#4947B0"/>
<path d="M5.5192 2.63225C5.57384 2.29577 5.34525 1.97873 5.00863 1.92411C4.67201 1.86949 4.35483 2.09798 4.30019 2.43446C4.24555 2.77094 4.47414 3.08798 4.81076 3.1426C5.14738 3.19721 5.46456 2.96872 5.5192 2.63225Z" fill="#4947B0"/>
<path d="M7.98171 2.63225C8.03635 2.29577 7.80776 1.97873 7.47113 1.92411C7.13451 1.86949 6.81733 2.09798 6.76269 2.43446C6.70805 2.77094 6.93664 3.08798 7.27326 3.1426C7.60988 3.19721 7.92706 2.96872 7.98171 2.63225Z" fill="#4947B0"/>
<path d="M10.4442 2.63225C10.4988 2.29577 10.2703 1.97873 9.93363 1.92411C9.59701 1.86949 9.27983 2.09798 9.22519 2.43446C9.17055 2.77094 9.39914 3.08798 9.73576 3.1426C10.0724 3.19721 10.3896 2.96872 10.4442 2.63225Z" fill="#4947B0"/>
<path d="M12.9067 2.63225C12.9613 2.29577 12.7328 1.97873 12.3961 1.92411C12.0595 1.86949 11.7423 2.09798 11.6877 2.43446C11.633 2.77093 11.8616 3.08798 12.1983 3.1426C12.5349 3.19721 12.8521 2.96872 12.9067 2.63225Z" fill="#4947B0"/>
<path d="M15.3717 2.63225C15.4263 2.29577 15.1978 1.97873 14.8611 1.92411C14.5245 1.86949 14.2073 2.09798 14.1527 2.43446C14.098 2.77093 14.3266 3.08798 14.6633 3.1426C14.9999 3.19721 15.3171 2.96872 15.3717 2.63225Z" fill="#4947B0"/>
<path d="M17.83 2.65746C17.9008 2.32401 17.6877 1.99633 17.3541 1.92557C17.0205 1.85481 16.6927 2.06777 16.6219 2.40123C16.5511 2.73469 16.7642 3.06236 17.0978 3.13312C17.4314 3.20388 17.7592 2.99092 17.83 2.65746Z" fill="#4947B0"/>
<path d="M20.1261 2.96708C20.3673 2.72604 20.3673 2.33524 20.1261 2.0942C19.885 1.85316 19.494 1.85316 19.2529 2.0942C19.0117 2.33524 19.0117 2.72604 19.2529 2.96708C19.494 3.20812 19.885 3.20812 20.1261 2.96708Z" fill="#4947B0"/>
<path d="M22.7617 2.63225C22.8164 2.29577 22.5878 1.97873 22.2511 1.92411C21.9145 1.86949 21.5973 2.09798 21.5427 2.43446C21.488 2.77093 21.7166 3.08798 22.0533 3.1426C22.3899 3.19721 22.7071 2.96872 22.7617 2.63225Z" fill="#4947B0"/>
<path d="M25.2242 2.63225C25.2788 2.29577 25.0503 1.97873 24.7136 1.92411C24.377 1.86949 24.0598 2.09798 24.0052 2.43446C23.9505 2.77093 24.1791 3.08798 24.5158 3.1426C24.8524 3.19721 25.1696 2.96872 25.2242 2.63225Z" fill="#4947B0"/>
<path d="M27.6592 2.63225C27.7138 2.29577 27.4853 1.97873 27.1486 1.92411C26.812 1.86949 26.4948 2.09798 26.4402 2.43446C26.3855 2.77093 26.6141 3.08798 26.9508 3.1426C27.2874 3.19721 27.6046 2.96872 27.6592 2.63225Z" fill="#4947B0"/>
<path d="M2.68586 0H2.15261C2.14151 0 2.1325 0.00900155 2.1325 0.0201055V2.65577C2.1325 2.66687 2.14151 2.67587 2.15261 2.67587H2.68586C2.69697 2.67587 2.70597 2.66687 2.70597 2.65577V0.0201055C2.70597 0.00900155 2.69697 0 2.68586 0Z" fill="#8E8B9E"/>
<path d="M5.14961 0H4.61636C4.60525 0 4.59625 0.00900155 4.59625 0.0201055V2.65577C4.59625 2.66687 4.60525 2.67587 4.61636 2.67587H5.14961C5.16072 2.67587 5.16972 2.66687 5.16972 2.65577V0.0201055C5.16972 0.00900155 5.16072 0 5.14961 0Z" fill="#8E8B9E"/>
<path d="M7.61211 0H7.07886C7.06776 0 7.05875 0.00900155 7.05875 0.0201055V2.65577C7.05875 2.66687 7.06776 2.67587 7.07886 2.67587H7.61211C7.62322 2.67587 7.63222 2.66687 7.63222 2.65577V0.0201055C7.63222 0.00900155 7.62322 0 7.61211 0Z" fill="#8E8B9E"/>
<path d="M10.0759 0H9.54261C9.5315 0 9.5225 0.00900155 9.5225 0.0201055V2.65577C9.5225 2.66687 9.5315 2.67587 9.54261 2.67587H10.0759C10.087 2.67587 10.096 2.66687 10.096 2.65577V0.0201055C10.096 0.00900155 10.087 0 10.0759 0Z" fill="#8E8B9E"/>
<path d="M12.5384 0H12.0052C11.9941 0 11.9851 0.00900155 11.9851 0.0201055V2.65577C11.9851 2.66687 11.9941 2.67587 12.0052 2.67587H12.5384C12.5495 2.67587 12.5585 2.66687 12.5585 2.65577V0.0201055C12.5585 0.00900155 12.5495 0 12.5384 0Z" fill="#8E8B9E"/>
<path d="M15.0009 0H14.4676C14.4565 0 14.4475 0.00900155 14.4475 0.0201055V2.65577C14.4475 2.66687 14.4565 2.67587 14.4676 2.67587H15.0009C15.012 2.67587 15.021 2.66687 15.021 2.65577V0.0201055C15.021 0.00900155 15.012 0 15.0009 0Z" fill="#8E8B9E"/>
<path d="M17.4646 0H16.9314C16.9203 0 16.9113 0.00900155 16.9113 0.0201055V2.65577C16.9113 2.66687 16.9203 2.67587 16.9314 2.67587H17.4646C17.4757 2.67587 17.4847 2.66687 17.4847 2.65577V0.0201055C17.4847 0.00900155 17.4757 0 17.4646 0Z" fill="#8E8B9E"/>
<path d="M19.9271 0H19.3939C19.3828 0 19.3737 0.00900155 19.3737 0.0201055V2.65577C19.3737 2.66687 19.3828 2.67587 19.3939 2.67587H19.9271C19.9382 2.67587 19.9472 2.66687 19.9472 2.65577V0.0201055C19.9472 0.00900155 19.9382 0 19.9271 0Z" fill="#8E8B9E"/>
<path d="M22.3909 0H21.8576C21.8465 0 21.8375 0.00900155 21.8375 0.0201055V2.65577C21.8375 2.66687 21.8465 2.67587 21.8576 2.67587H22.3909C22.402 2.67587 22.411 2.66687 22.411 2.65577V0.0201055C22.411 0.00900155 22.402 0 22.3909 0Z" fill="#8E8B9E"/>
<path d="M24.8534 0H24.3201C24.309 0 24.3 0.00900155 24.3 0.0201055V2.65577C24.3 2.66687 24.309 2.67587 24.3201 2.67587H24.8534C24.8645 2.67587 24.8735 2.66687 24.8735 2.65577V0.0201055C24.8735 0.00900155 24.8645 0 24.8534 0Z" fill="#8E8B9E"/>
<path d="M27.3171 0H26.7839C26.7728 0 26.7638 0.00900155 26.7638 0.0201055V2.65577C26.7638 2.66687 26.7728 2.67587 26.7839 2.67587H27.3171C27.3282 2.67587 27.3372 2.66687 27.3372 2.65577V0.0201055C27.3372 0.00900155 27.3282 0 27.3171 0Z" fill="#8E8B9E"/>
<path d="M9.13851 14.5718H5.25625V11.895H9.13851V14.5718ZM5.37261 14.4557H9.02237V12.0111H5.37261V14.4557Z" fill="#DDDDE7"/>
<path d="M12.9035 14.5718H9.02125V11.895H12.9035V14.5718ZM9.13772 14.4557H12.7874V12.0111H9.13772V14.4557Z" fill="#DDDDE7"/>
<path d="M16.6698 14.5718H12.7875V11.895H16.6698V14.5718ZM12.904 14.4557H16.5536V12.0111H12.904V14.4557Z" fill="#DDDDE7"/>
<path d="M20.4348 14.5718H16.5525V11.895H20.4348V14.5718ZM16.669 14.4557H20.3187V12.0111H16.669V14.4557Z" fill="#DDDDE7"/>
<path d="M5.37226 17.1323H1.49V14.4556H5.37226V17.1323ZM1.60647 17.0162H5.25623V14.5717H1.60647V17.0162Z" fill="#DDDDE7"/>
<path d="M9.13851 17.1323H5.25625V14.4556H9.13851V17.1323ZM5.37261 17.0162H9.02237V14.5717H5.37261V17.0162Z" fill="#DDDDE7"/>
<path d="M12.9035 17.1323H9.02125V14.4556H12.9035V17.1323ZM9.13772 17.0162H12.7874V14.5717H9.13772V17.0162Z" fill="#DDDDE7"/>
<path d="M20.4348 17.1323H16.5525V14.4556H20.4348V17.1323ZM16.669 17.0162H20.3187V14.5717H16.669V17.0162Z" fill="#DDDDE7"/>
<path d="M5.37226 19.693H1.49V17.0162H5.37226V19.693ZM1.60647 19.577H5.25623V17.1323H1.60647V19.577Z" fill="#DDDDE7"/>
<path d="M9.13851 19.693H5.25625V17.0162H9.13851V19.693ZM5.37261 19.577H9.02237V17.1323H5.37261V19.577Z" fill="#DDDDE7"/>
<path d="M12.9035 19.693H9.02125V17.0162H12.9035V19.693ZM9.13772 19.577H12.7874V17.1323H9.13772V19.577Z" fill="#DDDDE7"/>
<path d="M16.6698 19.693H12.7875V17.0162H16.6698V19.693ZM12.904 19.577H16.5536V17.1323H12.904V19.577Z" fill="#DDDDE7"/>
<path d="M20.4348 19.693H16.5525V17.0162H20.4348V19.693ZM16.669 19.577H20.3187V17.1323H16.669V19.577Z" fill="#DDDDE7"/>
<path d="M5.37226 22.2536H1.49V19.5769H5.37226V22.2536ZM1.60647 22.1375H5.25623V19.6929H1.60647V22.1375Z" fill="#DDDDE7"/>
<path d="M9.13851 22.2536H5.25625V19.5769H9.13851V22.2536ZM5.37261 22.1375H9.02237V19.6929H5.37261V22.1375Z" fill="#DDDDE7"/>
<path d="M12.9035 22.2536H9.02125V19.5769H12.9035V22.2536ZM9.13772 22.1375H12.7874V19.6929H9.13772V22.1375Z" fill="#DDDDE7"/>
<path d="M16.6698 22.2536H12.7875V19.5769H16.6698V22.2536ZM12.904 22.1375H16.5536V19.6929H12.904V22.1375Z" fill="#DDDDE7"/>
<path d="M20.4348 22.2536H16.5525V19.5769H20.4348V22.2536ZM16.669 22.1375H20.3187V19.6929H16.669V22.1375Z" fill="#DDDDE7"/>
<path d="M5.37226 24.8142H1.49V22.1375H5.37226V24.8142ZM1.60647 24.6981H5.25623V22.2535H1.60647V24.6981Z" fill="#DDDDE7"/>
<path d="M9.13851 24.8142H5.25625V22.1375H9.13851V24.8142ZM5.37261 24.6981H9.02237V22.2535H5.37261V24.6981Z" fill="#DDDDE7"/>
<path d="M12.9035 24.8142H9.02125V22.1375H12.9035V24.8142ZM9.13772 24.6981H12.7874V22.2535H9.13772V24.6981Z" fill="#DDDDE7"/>
<path d="M16.6698 24.8142H12.7875V22.1375H16.6698V24.8142ZM12.904 24.6981H16.5536V22.2535H12.904V24.6981Z" fill="#DDDDE7"/>
<path d="M6.28986 12.2594H5.69V12.6933H6.28986V12.2594Z" fill="#DDDDE7"/>
<path d="M10.0636 12.2594H9.46375V12.6933H10.0636V12.2594Z" fill="#DDDDE7"/>
<path d="M13.8299 12.2594H13.23V12.6933H13.8299V12.2594Z" fill="#DDDDE7"/>
<path d="M17.6161 12.2594H17.0162V12.6933H17.6161V12.2594Z" fill="#DDDDE7"/>
<path d="M6.28986 14.8394H5.69V15.2732H6.28986V14.8394Z" fill="#DDDDE7"/>
<path d="M10.0636 14.8394H9.46375V15.2732H10.0636V14.8394Z" fill="#DDDDE7"/>
<path d="M13.8299 14.8394H13.23V15.2732H13.8299V14.8394Z" fill="#DDDDE7"/>
<path d="M17.6161 14.8394H17.0162V15.2732H17.6161V14.8394Z" fill="#DDDDE7"/>
<path d="M6.28986 17.42H5.69V17.8539H6.28986V17.42Z" fill="#DDDDE7"/>
<path d="M10.0636 17.42H9.46375V17.8539H10.0636V17.42Z" fill="#DDDDE7"/>
<path d="M13.8299 17.42H13.23V17.8539H13.8299V17.42Z" fill="#DDDDE7"/>
<path d="M17.6161 17.42H17.0162V17.8539H17.6161V17.42Z" fill="#DDDDE7"/>
<path d="M6.28986 19.9594H5.69V20.3932H6.28986V19.9594Z" fill="#DDDDE7"/>
<path d="M10.0636 19.9594H9.46375V20.3932H10.0636V19.9594Z" fill="#DDDDE7"/>
<path d="M13.8299 19.9594H13.23V20.3932H13.8299V19.9594Z" fill="#DDDDE7"/>
<path d="M17.6161 19.9594H17.0162V20.3932H17.6161V19.9594Z" fill="#DDDDE7"/>
<path d="M6.28986 22.4918H5.69V22.9257H6.28986V22.4918Z" fill="#DDDDE7"/>
<path d="M2.55861 17.42H1.95875V17.8539H2.55861V17.42Z" fill="#DDDDE7"/>
<path d="M2.55861 14.8394H1.95875V15.2732H2.55861V14.8394Z" fill="#DDDDE7"/>
<path d="M2.55861 19.9594H1.95875V20.3932H2.55861V19.9594Z" fill="#DDDDE7"/>
<path d="M2.55861 22.4918H1.95875V22.9257H2.55861V22.4918Z" fill="#DDDDE7"/>
<path d="M10.0636 22.4918H9.46375V22.9257H10.0636V22.4918Z" fill="#DDDDE7"/>
<path d="M13.8299 22.4918H13.23V22.9257H13.8299V22.4918Z" fill="#DDDDE7"/>
<path d="M24.1973 14.5718H20.315V11.895H24.1973V14.5718ZM20.4318 14.4557H24.0815V12.0111H20.4318V14.4557Z" fill="#DDDDE7"/>
<path d="M27.9635 14.5718H24.0812V11.895H27.9635V14.5718ZM24.1977 14.4557H27.8474V12.0111H24.1977V14.4557Z" fill="#DDDDE7"/>
<path d="M24.1973 17.1323H20.315V14.4556H24.1973V17.1323ZM20.4318 17.0162H24.0815V14.5717H20.4318V17.0162Z" fill="#DDDDE7"/>
<path d="M27.9635 17.1323H24.0812V14.4556H27.9635V17.1323ZM24.1977 17.0162H27.8474V14.5717H24.1977V17.0162Z" fill="#DDDDE7"/>
<path d="M24.1973 19.693H20.315V17.0162H24.1973V19.693ZM20.4318 19.577H24.0815V17.1323H20.4318V19.577Z" fill="#DDDDE7"/>
<path d="M27.9635 19.693H24.0812V17.0162H27.9635V19.693ZM24.1977 19.577H27.8474V17.1323H24.1977V19.577Z" fill="#DDDDE7"/>
<path d="M24.1973 22.2536H20.315V19.5769H24.1973V22.2536ZM20.4318 22.1375H24.0815V19.6929H20.4318V22.1375Z" fill="#DDDDE7"/>
<path d="M27.9635 22.2536H24.0812V19.5769H27.9635V22.2536ZM24.1977 22.1375H27.8474V19.6929H24.1977V22.1375Z" fill="#DDDDE7"/>
<path d="M24.1973 24.8142H20.315V22.1375H24.1973V24.8142ZM20.4318 24.6981H24.0815V22.2535H20.4318V24.6981Z" fill="#DDDDE7"/>
<path d="M21.3586 12.2594H20.7588V12.6933H21.3586V12.2594Z" fill="#DDDDE7"/>
<path d="M25.1449 12.2594H24.545V12.6933H25.1449V12.2594Z" fill="#DDDDE7"/>
<path d="M21.3586 14.8394H20.7588V15.2732H21.3586V14.8394Z" fill="#DDDDE7"/>
<path d="M25.1449 14.8394H24.545V15.2732H25.1449V14.8394Z" fill="#DDDDE7"/>
<path d="M21.3586 17.42H20.7588V17.8539H21.3586V17.42Z" fill="#DDDDE7"/>
<path d="M25.1449 17.42H24.545V17.8539H25.1449V17.42Z" fill="#DDDDE7"/>
<path d="M21.3586 19.9594H20.7588V20.3932H21.3586V19.9594Z" fill="#DDDDE7"/>
<path d="M25.1449 19.9594H24.545V20.3932H25.1449V19.9594Z" fill="#DDDDE7"/>
<path d="M21.3586 22.4918H20.7588V22.9257H21.3586V22.4918Z" fill="#DDDDE7"/>
<path d="M20.4335 24.8142H16.5513V22.1375H20.4335V24.8142ZM16.6677 24.6981H20.3175V22.2535H16.6677V24.6981Z" fill="#DDDDE7"/>
<path d="M17.5949 22.4918H16.995V22.9257H17.5949V22.4918Z" fill="#DDDDE7"/>
<path d="M10.3556 14.4522L10.3124 14.4392C10.2839 14.4298 10.2408 14.4197 10.1855 14.4068C10.1573 14.4022 10.1266 14.3945 10.0918 14.3907L10.0377 14.3836L9.97898 14.3787C9.88664 14.3725 9.79394 14.3744 9.70192 14.3842C9.5901 14.3966 9.48003 14.4216 9.37382 14.4587L9.33056 14.4742L9.28731 14.4922C9.25811 14.503 9.22988 14.5184 9.20079 14.532C9.18619 14.5387 9.17235 14.5474 9.15754 14.5551L9.13591 14.5669L9.12509 14.5728C9.12358 14.5737 9.12931 14.5709 9.12509 14.5728L9.12218 14.5747L9.11644 14.5783C9.08595 14.5974 9.05232 14.6172 9.02842 14.6361C8.81051 14.7904 8.60667 15.0409 8.51204 15.3463L8.50307 15.3748L8.49571 15.4039C8.49106 15.4233 8.4849 15.4425 8.48165 15.4624L8.47571 15.4919L8.47268 15.5067L8.47192 15.5105C8.4703 15.5175 8.47311 15.5048 8.47257 15.5078L8.47127 15.5166C8.46781 15.5401 8.46421 15.5637 8.46046 15.5873C8.45895 15.5974 8.45804 15.6077 8.45776 15.6179L8.45603 15.6461C8.45549 15.6556 8.45451 15.6646 8.45408 15.6747V15.7059C8.45235 15.7475 8.45548 15.7898 8.45732 15.832C8.4715 16.008 8.5158 16.1801 8.58828 16.3411C8.62621 16.425 8.6705 16.5059 8.72076 16.5831L8.76044 16.6403C8.77364 16.6593 8.78878 16.6771 8.80273 16.6958L8.81354 16.7097C8.81268 16.7085 8.81927 16.7171 8.81235 16.7079L8.8156 16.7119L8.8223 16.7198L8.8488 16.7514C8.85745 16.7614 8.86696 16.773 8.87507 16.7821L8.89778 16.8059L8.92028 16.8299C8.92795 16.838 8.93725 16.8465 8.94569 16.8549C8.96299 16.8716 8.97954 16.889 8.99803 16.9049C9.03361 16.9373 9.07081 16.9697 9.10887 17.0004C9.18689 17.0628 9.26933 17.1195 9.35554 17.1699C9.44407 17.2216 9.53562 17.2679 9.62968 17.3087C9.65336 17.3195 9.67705 17.3296 9.70149 17.3389C9.72593 17.3482 9.74972 17.3585 9.77459 17.367C9.79946 17.3754 9.82358 17.3852 9.84888 17.3929L9.88641 17.405L9.90512 17.4112C9.91366 17.4139 9.89884 17.4092 9.9023 17.4102L9.90771 17.4117L9.91853 17.4148L10.0041 17.4389C10.0179 17.4425 10.0337 17.4476 10.0459 17.4502L10.0821 17.4581L10.1546 17.4742L10.2328 17.4878C10.2848 17.4981 10.3377 17.5037 10.3905 17.511C10.4167 17.5153 10.4434 17.5159 10.4699 17.5185C10.4964 17.5211 10.523 17.5234 10.5496 17.5246C10.7626 17.5347 10.976 17.5183 11.185 17.4758C11.2362 17.4631 11.2887 17.4542 11.3387 17.4375L11.4144 17.4153L11.4886 17.3887L11.5257 17.3755C11.5379 17.3708 11.5497 17.3647 11.5618 17.3602L11.634 17.3295C11.6576 17.3187 11.6805 17.3061 11.7038 17.2947C11.7272 17.2832 11.7509 17.2722 11.7727 17.2582C11.7946 17.2443 11.8175 17.2323 11.8401 17.2194L11.8485 17.2147L11.8527 17.2123C11.8496 17.2145 11.8657 17.2041 11.8468 17.2165L11.8658 17.2036L11.9041 17.1781L11.9423 17.1525C11.9541 17.1452 11.9655 17.1371 11.9765 17.1284L12.0305 17.0857C12.0397 17.0783 12.0486 17.0727 12.0582 17.0641L12.0869 17.0384L12.1445 16.9872L12.1986 16.932L12.2257 16.9046C12.2346 16.8953 12.2425 16.8851 12.251 16.8754C12.3854 16.72 12.502 16.5466 12.5775 16.3589L12.6059 16.2887C12.6147 16.2651 12.6213 16.241 12.6293 16.2173C12.6447 16.1699 12.6577 16.1219 12.6683 16.0732C12.6743 16.0493 12.6791 16.0251 12.6825 16.0008C12.6864 15.9766 12.6918 15.9523 12.6947 15.9281L12.7015 15.8554L12.7052 15.8191V15.7829L12.7064 15.7105C12.7064 15.6865 12.7033 15.6629 12.702 15.639L12.6997 15.6032L12.6986 15.5853C12.7015 15.6037 12.6986 15.5873 12.6994 15.59L12.6986 15.5846L12.697 15.5738L12.684 15.4873C12.6664 15.3955 12.642 15.3052 12.6109 15.2171C12.4761 14.8522 12.2171 14.5335 11.9166 14.3076L11.9027 14.2968C11.9027 14.2968 11.8959 14.292 11.9038 14.2968L11.8998 14.2939L11.8917 14.2882L11.8592 14.2655L11.8268 14.2428L11.8108 14.232L11.7967 14.223L11.7407 14.1863C11.7224 14.174 11.7008 14.1622 11.6811 14.1502C11.6414 14.1254 11.5998 14.1042 11.5592 14.0818C11.5388 14.071 11.5177 14.0611 11.4972 14.0504C11.4766 14.0397 11.4562 14.0294 11.4351 14.0201C11.2723 13.9439 11.1035 13.8811 10.9305 13.8323C10.7683 13.7858 10.6035 13.749 10.437 13.722L10.3197 13.7041L10.2002 13.6892C10.1245 13.6806 10.0497 13.6737 9.97649 13.6676C9.68451 13.6443 9.42497 13.643 9.21053 13.6431C8.99608 13.6432 8.82684 13.6485 8.71135 13.6508L8.53389 13.6539L8.5779 13.6431C8.60688 13.6359 8.64981 13.6245 8.70616 13.6107C8.81873 13.5837 8.98408 13.545 9.19712 13.5044C9.45493 13.4547 9.71541 13.4198 9.97725 13.4C10.0535 13.3942 10.1326 13.3906 10.216 13.3886L10.3379 13.3868L10.4677 13.3886C10.6517 13.3941 10.8352 13.4115 11.017 13.4407C11.2181 13.4734 11.416 13.5234 11.6086 13.5901C11.7118 13.6257 11.8129 13.6673 11.9113 13.7145C11.9367 13.7269 11.9614 13.7376 11.987 13.7517L12.0652 13.7933L12.0848 13.8041L12.1018 13.8139L12.1357 13.8336L12.1699 13.8533L12.1785 13.8582L12.1827 13.8606L12.1919 13.8666L12.2103 13.8785C12.3107 13.9415 12.4067 14.0114 12.4976 14.0876C12.5909 14.1667 12.6791 14.2518 12.7616 14.3422C12.8461 14.4362 12.9234 14.5366 12.9928 14.6424C13.0637 14.7523 13.1259 14.8676 13.1789 14.9872C13.2339 15.1143 13.2766 15.2464 13.3065 15.3816L13.323 15.4681L13.3251 15.4789L13.3262 15.4843C13.3273 15.4894 13.3281 15.4946 13.3286 15.4999L13.3318 15.5257L13.3377 15.5777C13.3413 15.6124 13.3464 15.6471 13.3485 15.682L13.3518 15.7869L13.353 15.8395L13.3505 15.8918L13.345 15.997C13.3422 16.0319 13.3366 16.0665 13.3324 16.1013C13.3282 16.1361 13.3244 16.1713 13.3164 16.2054C13.3034 16.2743 13.2869 16.3425 13.267 16.4098C13.2569 16.4434 13.2478 16.4775 13.2365 16.5107L13.2 16.6092L13.1814 16.6585L13.1597 16.7065L13.1165 16.8024C13.1009 16.8339 13.084 16.8644 13.0672 16.8955C13.0503 16.9265 13.0347 16.9578 13.0151 16.9871C12.9792 17.0477 12.9402 17.1064 12.8984 17.163C12.8767 17.1911 12.8573 17.2203 12.8348 17.2474L12.7665 17.3285C12.755 17.3418 12.7439 17.3556 12.7319 17.3686L12.6952 17.407L12.6212 17.4833L12.5425 17.5551L12.5028 17.5907C12.49 17.6026 12.4735 17.6146 12.459 17.6264L12.3684 17.697C12.3521 17.71 12.3405 17.7174 12.3277 17.7262L12.2896 17.752L12.2517 17.7779L12.2326 17.7908C12.2275 17.7945 12.2222 17.7978 12.2167 17.8009L12.211 17.8042L12.1995 17.811L12.1077 17.8644C12.0773 17.8828 12.0452 17.8975 12.0137 17.9134C11.9821 17.9293 11.9505 17.9451 11.9184 17.9594L11.8211 18.0002C11.8047 18.0068 11.7886 18.0138 11.7723 18.0201L11.7226 18.0375L11.6235 18.0719L11.5229 18.1006C11.4561 18.1213 11.3879 18.1337 11.3204 18.1493C11.2865 18.1566 11.2523 18.161 11.2183 18.1671C11.1842 18.1731 11.1504 18.1794 11.1161 18.1822C11.0477 18.189 10.9795 18.1975 10.9113 18.1994C10.8771 18.2008 10.843 18.2031 10.809 18.2037H10.7071H10.6562L10.6055 18.201L10.5043 18.1954C10.4707 18.1929 10.4373 18.1887 10.4039 18.1854C10.3704 18.182 10.3369 18.1791 10.3039 18.1732C10.2378 18.1624 10.1714 18.1541 10.1065 18.1384L10.0091 18.1168L9.90814 18.0897L9.85786 18.0759C9.8412 18.0712 9.82888 18.0667 9.8146 18.062L9.73014 18.0343L9.70094 18.0247L9.67791 18.0162L9.63184 17.9991C9.60102 17.9883 9.57107 17.975 9.54079 17.9629C9.51051 17.9508 9.48077 17.9372 9.45103 17.924C9.42129 17.9108 9.39188 17.8967 9.36268 17.8825C9.24646 17.8253 9.13427 17.7603 9.0269 17.6879C8.92023 17.6166 8.81882 17.5378 8.72346 17.4519C8.67653 17.4087 8.63024 17.3655 8.58698 17.3185C8.56471 17.2961 8.54373 17.2716 8.52329 17.248C8.51248 17.2359 8.50253 17.2247 8.49204 17.2119L8.46046 17.1727L8.42932 17.1336C8.41969 17.1212 8.41277 17.1109 8.40433 17.0994L8.38022 17.066L8.364 17.0434L8.35091 17.0238C8.33383 16.9973 8.31588 16.9717 8.29998 16.9448C8.28408 16.9178 8.26851 16.8907 8.25283 16.8643C8.19368 16.7576 8.14418 16.6458 8.10489 16.5302C8.02808 16.3088 7.99146 16.0755 7.99675 15.8412C8 15.7844 8.00259 15.7283 8.01059 15.6728L8.01578 15.6314C8.01784 15.6173 8.02087 15.6023 8.02335 15.5882L8.03146 15.5449C8.03417 15.531 8.03687 15.5149 8.0399 15.5045C8.04596 15.4813 8.0519 15.4582 8.05785 15.4352L8.06012 15.4267C8.06012 15.4267 8.06369 15.4111 8.06293 15.4159L8.06445 15.411L8.07061 15.3916L8.08283 15.353C8.09051 15.3271 8.10068 15.3025 8.1103 15.2773L8.12479 15.2403L8.14101 15.2046C8.18256 15.1117 8.23279 15.023 8.291 14.9396C8.3452 14.8605 8.40644 14.7864 8.47398 14.7182C8.53738 14.654 8.60592 14.595 8.6789 14.5418C8.6961 14.5284 8.71438 14.5165 8.73233 14.5045C8.75028 14.4925 8.76758 14.4803 8.7864 14.4697C8.82284 14.4481 8.85831 14.4274 8.89746 14.4083C8.93693 14.3874 8.96926 14.3748 9.0029 14.3602L9.01868 14.3533L9.03242 14.3482L9.05978 14.3382C9.07805 14.3318 9.09568 14.3243 9.11385 14.3192C9.15029 14.3083 9.18522 14.2963 9.2208 14.2889L9.27314 14.2767L9.32483 14.2675C9.44864 14.2459 9.57463 14.2396 9.69997 14.2487C9.79918 14.2557 9.89745 14.2725 9.99336 14.2988C10.0633 14.3178 10.1317 14.342 10.198 14.3715C10.2387 14.3894 10.2784 14.4096 10.3169 14.432L10.3556 14.4522Z" fill="#F24973"/>
<path d="M11.6333 16.8231C11.579 16.8232 11.5264 16.804 11.4849 16.7691L9.74602 15.3084C9.69919 15.269 9.66991 15.2127 9.66462 15.1518C9.65932 15.0909 9.67845 15.0304 9.7178 14.9835C9.73729 14.9603 9.76117 14.9412 9.78807 14.9272C9.81496 14.9133 9.84435 14.9047 9.87454 14.9021C9.90474 14.8995 9.93516 14.9028 9.96406 14.912C9.99296 14.9211 10.0198 14.9358 10.043 14.9553L11.7819 16.4159C11.8287 16.4553 11.858 16.5116 11.8632 16.5726C11.8685 16.6335 11.8494 16.694 11.81 16.7408C11.7884 16.7666 11.7613 16.7874 11.7308 16.8016C11.7003 16.8158 11.667 16.8231 11.6333 16.8231Z" fill="#F24973"/>
<path d="M9.89462 16.8231C9.86092 16.8232 9.82763 16.8158 9.79709 16.8016C9.76654 16.7874 9.73948 16.7667 9.71781 16.7409C9.67846 16.694 9.65932 16.6335 9.66462 16.5726C9.66991 16.5116 9.69919 16.4553 9.74603 16.4159L11.4849 14.9554C11.5081 14.9359 11.5349 14.9211 11.5638 14.912C11.5927 14.9028 11.6231 14.8995 11.6533 14.9021C11.6835 14.9047 11.7129 14.9133 11.7398 14.9273C11.7667 14.9412 11.7905 14.9604 11.81 14.9836C11.8295 15.0067 11.8443 15.0335 11.8534 15.0624C11.8625 15.0913 11.8659 15.1217 11.8633 15.1518C11.8607 15.182 11.8521 15.2113 11.8382 15.2382C11.8242 15.2651 11.8051 15.2889 11.7819 15.3084L10.043 16.7691C10.0015 16.804 9.9489 16.8232 9.89462 16.8231Z" fill="#F24973"/>
</g>
<defs>
<clipPath id="clip0_440_562">
<rect width="29.4533" height="32" fill="white"/>
</clipPath>
</defs>
</svg>
