<svg width="30" height="32" viewBox="0 0 30 32" fill="none" xmlns="http://www.w3.org/2000/svg">
<g clip-path="url(#clip0_440_670)">
<path d="M29.3861 9.82068H0.0662498V10.1479H29.3861V9.82068Z" fill="#A6563E"/>
<path d="M29.3861 10.9194H0.0662498V11.4691H29.3861V10.9194Z" fill="#E5E5E5"/>
<path d="M27.7174 0.930664H1.6003C0.715964 0.930664 0 1.536 0 2.36097V9.87071H29.434V2.36097C29.434 1.5361 28.6018 0.930664 27.7174 0.930664Z" fill="#6D6BE6"/>
<path d="M8.03625 8.04347V6.22498H8.68063C9.32664 6.22498 9.64967 6.52039 9.64972 7.1112C9.64972 7.39441 9.56156 7.6205 9.38523 7.78948C9.20891 7.95846 8.97404 8.043 8.68063 8.0431L8.03625 8.04347ZM8.44596 6.55881V7.71127H8.64859C8.8262 7.71127 8.96551 7.65801 9.06653 7.5515C9.16755 7.44499 9.21808 7.30006 9.21813 7.11669C9.21813 6.94346 9.16804 6.80715 9.06786 6.70775C8.96769 6.60836 8.82709 6.55872 8.64607 6.55881H8.44596Z" fill="#A3A1FF"/>
<path d="M11.042 8.04347H9.95125V6.22498H11.0002V6.55859H10.3609V6.963H10.9558V7.29521H10.3609V7.71104H11.042V8.04347Z" fill="#A3A1FF"/>
<path d="M12.6369 7.97814C12.5041 8.04239 12.3307 8.07452 12.1168 8.07452C11.8378 8.07452 11.6183 7.99252 11.4585 7.82853C11.2986 7.66454 11.2187 7.44606 11.2188 7.17309C11.2188 6.88232 11.3086 6.6465 11.4883 6.4656C11.668 6.28471 11.9012 6.19429 12.1878 6.19434C12.3654 6.19434 12.5151 6.21673 12.6369 6.2615V6.65584C12.5151 6.58313 12.3764 6.54678 12.2208 6.54678C12.05 6.54678 11.9122 6.60046 11.8073 6.70781C11.7024 6.81516 11.65 6.96054 11.65 7.14395C11.65 7.31971 11.6995 7.4598 11.7984 7.56423C11.8973 7.66867 12.0305 7.72086 12.1979 7.72081C12.3521 7.72232 12.5037 7.68202 12.6368 7.60419L12.6369 7.97814Z" fill="#A3A1FF"/>
<path d="M14.0446 8.04347H12.9538V6.22498H14.0027V6.55859H13.3635V6.963H13.9583V7.29521H13.3635V7.71104H14.0446V8.04347Z" fill="#A3A1FF"/>
<path d="M16.4088 8.04347H16.0042V6.9553C16.0042 6.83777 16.0092 6.708 16.0194 6.566H16.0093C15.9882 6.67755 15.9691 6.75787 15.9522 6.80695L15.526 8.04347H15.1911L14.7574 6.82022C14.7455 6.78725 14.7265 6.70271 14.7003 6.5666H14.6888C14.6998 6.74586 14.7053 6.90308 14.7053 7.03826V8.04347H14.3363V6.22498H14.9362L15.3079 7.30262C15.337 7.3872 15.3587 7.47417 15.3725 7.56255H15.38C15.3995 7.47388 15.4236 7.38628 15.4523 7.3001L15.8239 6.22512H16.4087L16.4088 8.04347Z" fill="#A3A1FF"/>
<path d="M16.8238 8.04347V6.22498H17.4859C17.6886 6.22498 17.8446 6.26217 17.9539 6.33655C18.0631 6.41093 18.1177 6.51574 18.1175 6.65096C18.1185 6.74635 18.0829 6.83849 18.0179 6.90837C17.9515 6.98191 17.8668 7.03304 17.7636 7.06176V7.06687C17.893 7.08288 17.9963 7.13063 18.0737 7.2101C18.1511 7.28958 18.1898 7.38635 18.1898 7.50042C18.1898 7.66693 18.1302 7.79899 18.011 7.89661C17.8918 7.99422 17.729 8.04305 17.5226 8.0431L16.8238 8.04347ZM17.2334 6.52708V6.95819H17.4135C17.4981 6.95819 17.5647 6.93768 17.6133 6.89665C17.6619 6.85563 17.6862 6.79921 17.6863 6.7274C17.6863 6.59395 17.5865 6.52723 17.3869 6.52723L17.2334 6.52708ZM17.2334 7.26244V7.74166H17.4554C17.5501 7.74166 17.6242 7.71969 17.6779 7.67575C17.7315 7.63182 17.7584 7.57182 17.7584 7.49575C17.7584 7.4231 17.732 7.36603 17.6791 7.32457C17.6263 7.2831 17.5525 7.26239 17.4577 7.26244H17.2334Z" fill="#A3A1FF"/>
<path d="M19.5795 8.04347H18.4888V6.22498H19.5377V6.55859H18.8983V6.963H19.4931V7.29521H18.8983V7.71104H19.5794L19.5795 8.04347Z" fill="#A3A1FF"/>
<path d="M21.3974 8.04347H20.9268L20.644 7.5756C20.6228 7.54016 20.6025 7.50845 20.5831 7.48048C20.5655 7.45493 20.5456 7.43096 20.5238 7.40886C20.5057 7.39032 20.4847 7.37491 20.4616 7.36327C20.4397 7.35259 20.4156 7.34716 20.3912 7.3474H20.2809V8.04347H19.8713V6.22498H20.5207C20.962 6.22498 21.1827 6.38981 21.1828 6.71947C21.1834 6.77924 21.1735 6.83866 21.1536 6.89502C21.1347 6.94779 21.1068 6.9969 21.0712 7.04018C21.0346 7.08416 20.9911 7.12186 20.9424 7.15176C20.8901 7.18395 20.8335 7.2087 20.7743 7.2253V7.23042C20.8027 7.23954 20.8293 7.25349 20.8529 7.27164C20.8794 7.29165 20.904 7.31398 20.9265 7.33836C20.9507 7.36424 20.9733 7.39147 20.9944 7.41991C21.016 7.44912 21.0358 7.47766 21.0537 7.50554L21.3974 8.04347ZM20.2812 6.5322V7.03803H20.4588C20.5467 7.03803 20.6173 7.01268 20.6706 6.96197C20.6969 6.93759 20.7177 6.90793 20.7317 6.87494C20.7457 6.84195 20.7525 6.80637 20.7518 6.77055C20.7518 6.61165 20.6566 6.5322 20.4664 6.5322H20.2812Z" fill="#A3A1FF"/>
<path d="M1.72848 31.9998H27.7245C28.6431 31.9998 29.3867 31.2196 29.3867 30.257V12.3081H0.0662498V30.257C0.0662498 31.2196 0.81042 31.9998 1.72848 31.9998Z" fill="#CCCCCC"/>
<path d="M1.72848 29.8389H27.7245C28.6431 29.8389 29.3867 29.0586 29.3867 28.0961V10.1475H0.0662498V28.0961C0.0662498 29.0586 0.81042 29.8389 1.72848 29.8389Z" fill="#F7F7F7"/>
<path d="M29.3861 24.9031L24.2587 29.8391H27.7306C28.6449 29.8391 29.3861 29.1257 29.3861 28.2454V24.9031Z" fill="#DBDBDB"/>
<path d="M24.2587 29.8391L29.3861 24.9031H25.9144C25 24.9031 24.2587 25.6165 24.2587 26.4968V29.8391Z" fill="#E8E8E8"/>
<path d="M3.02709 2.63298C3.08169 2.2965 2.85325 1.97946 2.51685 1.92484C2.18045 1.87022 1.86348 2.09871 1.80887 2.43519C1.75427 2.77167 1.98271 3.08871 2.31911 3.14333C2.65551 3.19795 2.97248 2.96945 3.02709 2.63298Z" fill="#A6563E"/>
<path d="M5.48834 2.63298C5.54294 2.2965 5.3145 1.97946 4.9781 1.92484C4.6417 1.87022 4.32473 2.09871 4.27012 2.43519C4.21552 2.77167 4.44396 3.08871 4.78036 3.14333C5.11676 3.19795 5.43373 2.96945 5.48834 2.63298Z" fill="#A6563E"/>
<path d="M7.9496 2.63298C8.0042 2.2965 7.77576 1.97946 7.43936 1.92484C7.10295 1.87022 6.78598 2.09871 6.73137 2.43519C6.67677 2.77167 6.90521 3.08871 7.24161 3.14333C7.57801 3.19795 7.89499 2.96945 7.9496 2.63298Z" fill="#A6563E"/>
<path d="M10.4108 2.63298C10.4654 2.2965 10.237 1.97946 9.9006 1.92484C9.5642 1.87022 9.24723 2.09871 9.19262 2.43519C9.13802 2.77167 9.36646 3.08871 9.70286 3.14333C10.0393 3.19795 10.3562 2.96945 10.4108 2.63298Z" fill="#A6563E"/>
<path d="M12.8733 2.63298C12.9279 2.2965 12.6995 1.97946 12.3631 1.92484C12.0267 1.87022 11.7097 2.09871 11.6551 2.43519C11.6005 2.77166 11.829 3.08871 12.1654 3.14333C12.5018 3.19795 12.8187 2.96945 12.8733 2.63298Z" fill="#A6563E"/>
<path d="M15.3346 2.63298C15.3892 2.2965 15.1608 1.97946 14.8244 1.92484C14.488 1.87022 14.171 2.09871 14.1164 2.43519C14.0618 2.77167 14.2902 3.08871 14.6266 3.14333C14.963 3.19795 15.28 2.96945 15.3346 2.63298Z" fill="#A6563E"/>
<path d="M17.7904 2.65746C17.8611 2.32401 17.6482 1.99633 17.3148 1.92557C16.9814 1.85481 16.6538 2.06777 16.5831 2.40123C16.5123 2.73469 16.7253 3.06236 17.0586 3.13312C17.392 3.20388 17.7196 2.99092 17.7904 2.65746Z" fill="#A6563E"/>
<path d="M20.084 2.96708C20.325 2.72604 20.325 2.33524 20.084 2.0942C19.843 1.85316 19.4523 1.85316 19.2113 2.0942C18.9704 2.33524 18.9704 2.72604 19.2113 2.96708C19.4523 3.20812 19.843 3.20812 20.084 2.96708Z" fill="#A6563E"/>
<path d="M22.7196 2.63298C22.7742 2.2965 22.5458 1.97946 22.2094 1.92484C21.8729 1.87022 21.556 2.09872 21.5014 2.43519C21.4468 2.77167 21.6752 3.08871 22.0116 3.14333C22.348 3.19795 22.665 2.96946 22.7196 2.63298Z" fill="#A6563E"/>
<path d="M25.1808 2.63298C25.2355 2.2965 25.007 1.97946 24.6706 1.92484C24.3342 1.87022 24.0172 2.09871 23.9626 2.43519C23.908 2.77166 24.1365 3.08871 24.4729 3.14333C24.8093 3.19795 25.1262 2.96945 25.1808 2.63298Z" fill="#A6563E"/>
<path d="M27.6421 2.63298C27.6967 2.2965 27.4683 1.97946 27.1319 1.92484C26.7955 1.87022 26.4785 2.09871 26.4239 2.43519C26.3693 2.77166 26.5977 3.08871 26.9341 3.14333C27.2705 3.19795 27.5875 2.96945 27.6421 2.63298Z" fill="#A6563E"/>
<path d="M2.68424 0H2.15135C2.14025 0 2.13125 0.00900155 2.13125 0.0201055V2.65577C2.13125 2.66687 2.14025 2.67587 2.15135 2.67587H2.68424C2.69535 2.67587 2.70435 2.66687 2.70435 2.65577V0.0201055C2.70435 0.00900155 2.69535 0 2.68424 0Z" fill="#8E8B9E"/>
<path d="M5.14549 0H4.6126C4.6015 0 4.5925 0.00900155 4.5925 0.0201055V2.65577C4.5925 2.66687 4.6015 2.67587 4.6126 2.67587H5.14549C5.15659 2.67587 5.16559 2.66687 5.16559 2.65577V0.0201055C5.16559 0.00900155 5.15659 0 5.14549 0Z" fill="#8E8B9E"/>
<path d="M7.60674 0H7.07385C7.06275 0 7.05375 0.00900155 7.05375 0.0201055V2.65577C7.05375 2.66687 7.06275 2.67587 7.07385 2.67587H7.60674C7.61785 2.67587 7.62685 2.66687 7.62685 2.65577V0.0201055C7.62685 0.00900155 7.61785 0 7.60674 0Z" fill="#8E8B9E"/>
<path d="M10.0692 0H9.53635C9.52525 0 9.51625 0.00900155 9.51625 0.0201055V2.65577C9.51625 2.66687 9.52525 2.67587 9.53635 2.67587H10.0692C10.0803 2.67587 10.0893 2.66687 10.0893 2.65577V0.0201055C10.0893 0.00900155 10.0803 0 10.0692 0Z" fill="#8E8B9E"/>
<path d="M12.5305 0H11.9976C11.9865 0 11.9775 0.00900155 11.9775 0.0201055V2.65577C11.9775 2.66687 11.9865 2.67587 11.9976 2.67587H12.5305C12.5416 2.67587 12.5506 2.66687 12.5506 2.65577V0.0201055C12.5506 0.00900155 12.5416 0 12.5305 0Z" fill="#8E8B9E"/>
<path d="M14.9917 0H14.4589C14.4477 0 14.4387 0.00900155 14.4387 0.0201055V2.65577C14.4387 2.66687 14.4477 2.67587 14.4589 2.67587H14.9917C15.0028 2.67587 15.0118 2.66687 15.0118 2.65577V0.0201055C15.0118 0.00900155 15.0028 0 14.9917 0Z" fill="#8E8B9E"/>
<path d="M17.453 0H16.9201C16.909 0 16.9 0.00900155 16.9 0.0201055V2.65577C16.9 2.66687 16.909 2.67587 16.9201 2.67587H17.453C17.4641 2.67587 17.4731 2.66687 17.4731 2.65577V0.0201055C17.4731 0.00900155 17.4641 0 17.453 0Z" fill="#8E8B9E"/>
<path d="M19.9142 0H19.3814C19.3703 0 19.3612 0.00900155 19.3612 0.0201055V2.65577C19.3612 2.66687 19.3703 2.67587 19.3814 2.67587H19.9142C19.9253 2.67587 19.9343 2.66687 19.9343 2.65577V0.0201055C19.9343 0.00900155 19.9253 0 19.9142 0Z" fill="#8E8B9E"/>
<path d="M22.3755 0H21.8426C21.8315 0 21.8225 0.00900155 21.8225 0.0201055V2.65577C21.8225 2.66687 21.8315 2.67587 21.8426 2.67587H22.3755C22.3866 2.67587 22.3956 2.66687 22.3956 2.65577V0.0201055C22.3956 0.00900155 22.3866 0 22.3755 0Z" fill="#8E8B9E"/>
<path d="M24.8367 0H24.3039C24.2927 0 24.2838 0.00900155 24.2838 0.0201055V2.65577C24.2838 2.66687 24.2927 2.67587 24.3039 2.67587H24.8367C24.8478 2.67587 24.8568 2.66687 24.8568 2.65577V0.0201055C24.8568 0.00900155 24.8478 0 24.8367 0Z" fill="#8E8B9E"/>
<path d="M27.2992 0H26.7663C26.7552 0 26.7463 0.00900155 26.7463 0.0201055V2.65577C26.7463 2.66687 26.7552 2.67587 26.7663 2.67587H27.2992C27.3103 2.67587 27.3193 2.66687 27.3193 2.65577V0.0201055C27.3193 0.00900155 27.3103 0 27.2992 0Z" fill="#8E8B9E"/>
<path d="M9.13221 14.5718H5.2525V11.895H9.13221V14.5718ZM5.36878 14.4557H9.01615V12.0111H5.36878V14.4557Z" fill="#DDDDE7"/>
<path d="M12.8947 14.5718H9.015V11.895H12.8947V14.5718ZM9.13139 14.4557H12.7786V12.0111H9.13139V14.4557Z" fill="#DDDDE7"/>
<path d="M16.6585 14.5718H12.7787V11.895H16.6585V14.5718ZM12.8951 14.4557H16.5424V12.0111H12.8951V14.4557Z" fill="#DDDDE7"/>
<path d="M20.4222 14.5718H16.5425V11.895H20.4222V14.5718ZM16.6589 14.4557H20.3062V12.0111H16.6589V14.4557Z" fill="#DDDDE7"/>
<path d="M5.36847 17.1323H1.48875V14.4556H5.36847V17.1323ZM1.60514 17.0162H5.25251V14.5717H1.60514V17.0162Z" fill="#DDDDE7"/>
<path d="M9.13221 17.1323H5.2525V14.4556H9.13221V17.1323ZM5.36878 17.0162H9.01615V14.5717H5.36878V17.0162Z" fill="#DDDDE7"/>
<path d="M12.8947 17.1323H9.015V14.4556H12.8947V17.1323ZM9.13139 17.0162H12.7786V14.5717H9.13139V17.0162Z" fill="#DDDDE7"/>
<path d="M20.4222 17.1323H16.5425V14.4556H20.4222V17.1323ZM16.6589 17.0162H20.3062V14.5717H16.6589V17.0162Z" fill="#DDDDE7"/>
<path d="M5.36847 19.693H1.48875V17.0162H5.36847V19.693ZM1.60514 19.577H5.25251V17.1323H1.60514V19.577Z" fill="#DDDDE7"/>
<path d="M9.13221 19.693H5.2525V17.0162H9.13221V19.693ZM5.36878 19.577H9.01615V17.1323H5.36878V19.577Z" fill="#DDDDE7"/>
<path d="M12.8947 19.693H9.015V17.0162H12.8947V19.693ZM9.13139 19.577H12.7786V17.1323H9.13139V19.577Z" fill="#DDDDE7"/>
<path d="M16.6585 19.693H12.7787V17.0162H16.6585V19.693ZM12.8951 19.577H16.5424V17.1323H12.8951V19.577Z" fill="#DDDDE7"/>
<path d="M20.4222 19.693H16.5425V17.0162H20.4222V19.693ZM16.6589 19.577H20.3062V17.1323H16.6589V19.577Z" fill="#DDDDE7"/>
<path d="M5.36847 22.2536H1.48875V19.5769H5.36847V22.2536ZM1.60514 22.1376H5.25251V19.6929H1.60514V22.1376Z" fill="#DDDDE7"/>
<path d="M9.13221 22.2536H5.2525V19.5769H9.13221V22.2536ZM5.36878 22.1376H9.01615V19.6929H5.36878V22.1376Z" fill="#DDDDE7"/>
<path d="M12.8947 22.2536H9.015V19.5769H12.8947V22.2536ZM9.13139 22.1376H12.7786V19.6929H9.13139V22.1376Z" fill="#DDDDE7"/>
<path d="M16.6585 22.2536H12.7787V19.5769H16.6585V22.2536ZM12.8951 22.1376H16.5424V19.6929H12.8951V22.1376Z" fill="#DDDDE7"/>
<path d="M20.4222 22.2536H16.5425V19.5769H20.4222V22.2536ZM16.6589 22.1376H20.3062V19.6929H16.6589V22.1376Z" fill="#DDDDE7"/>
<path d="M5.36847 24.8142H1.48875V22.1375H5.36847V24.8142ZM1.60514 24.6981H5.25251V22.2535H1.60514V24.6981Z" fill="#DDDDE7"/>
<path d="M9.13221 24.8142H5.2525V22.1375H9.13221V24.8142ZM5.36878 24.6981H9.01615V22.2535H5.36878V24.6981Z" fill="#DDDDE7"/>
<path d="M12.8947 24.8142H9.015V22.1375H12.8947V24.8142ZM9.13139 24.6981H12.7786V22.2535H9.13139V24.6981Z" fill="#DDDDE7"/>
<path d="M16.6585 24.8142H12.7787V22.1375H16.6585V24.8142ZM12.8951 24.6981H16.5424V22.2535H12.8951V24.6981Z" fill="#DDDDE7"/>
<path d="M6.28571 12.2594H5.68625V12.6933H6.28571V12.2594Z" fill="#DDDDE7"/>
<path d="M10.057 12.2594H9.4575V12.6933H10.057V12.2594Z" fill="#DDDDE7"/>
<path d="M13.822 12.2594H13.2225V12.6933H13.822V12.2594Z" fill="#DDDDE7"/>
<path d="M17.6045 12.2594H17.005V12.6933H17.6045V12.2594Z" fill="#DDDDE7"/>
<path d="M6.28571 14.8394H5.68625V15.2732H6.28571V14.8394Z" fill="#DDDDE7"/>
<path d="M10.057 14.8394H9.4575V15.2732H10.057V14.8394Z" fill="#DDDDE7"/>
<path d="M13.822 14.8394H13.2225V15.2732H13.822V14.8394Z" fill="#DDDDE7"/>
<path d="M17.6045 14.8394H17.005V15.2732H17.6045V14.8394Z" fill="#DDDDE7"/>
<path d="M6.28571 17.42H5.68625V17.8539H6.28571V17.42Z" fill="#DDDDE7"/>
<path d="M10.057 17.42H9.4575V17.8539H10.057V17.42Z" fill="#DDDDE7"/>
<path d="M13.822 17.42H13.2225V17.8539H13.822V17.42Z" fill="#DDDDE7"/>
<path d="M17.6045 17.42H17.005V17.8539H17.6045V17.42Z" fill="#DDDDE7"/>
<path d="M6.28571 19.9594H5.68625V20.3932H6.28571V19.9594Z" fill="#DDDDE7"/>
<path d="M10.057 19.9594H9.4575V20.3932H10.057V19.9594Z" fill="#DDDDE7"/>
<path d="M13.822 19.9594H13.2225V20.3932H13.822V19.9594Z" fill="#DDDDE7"/>
<path d="M17.6045 19.9594H17.005V20.3932H17.6045V19.9594Z" fill="#DDDDE7"/>
<path d="M6.28571 22.4918H5.68625V22.9257H6.28571V22.4918Z" fill="#DDDDE7"/>
<path d="M2.55697 17.42H1.9575V17.8539H2.55697V17.42Z" fill="#DDDDE7"/>
<path d="M2.55697 14.8394H1.9575V15.2732H2.55697V14.8394Z" fill="#DDDDE7"/>
<path d="M2.55697 19.9594H1.9575V20.3932H2.55697V19.9594Z" fill="#DDDDE7"/>
<path d="M2.55697 22.4918H1.9575V22.9257H2.55697V22.4918Z" fill="#DDDDE7"/>
<path d="M10.057 22.4918H9.45754V22.9257H10.057V22.4918Z" fill="#DDDDE7"/>
<path d="M13.822 22.4918H13.2225V22.9257H13.822V22.4918Z" fill="#DDDDE7"/>
<path d="M24.181 14.5718H20.3012V11.895H24.181V14.5718ZM20.418 14.4557H24.0653V12.0111H20.418V14.4557Z" fill="#DDDDE7"/>
<path d="M27.9447 14.5718H24.065V11.895H27.9447V14.5718ZM24.1814 14.4557H27.8286V12.0111H24.1814V14.4557Z" fill="#DDDDE7"/>
<path d="M24.181 17.1323H20.3012V14.4556H24.181V17.1323ZM20.418 17.0162H24.0653V14.5717H20.418V17.0162Z" fill="#DDDDE7"/>
<path d="M27.9447 17.1323H24.065V14.4556H27.9447V17.1323ZM24.1814 17.0162H27.8286V14.5717H24.1814V17.0162Z" fill="#DDDDE7"/>
<path d="M24.181 19.693H20.3012V17.0162H24.181V19.693ZM20.418 19.577H24.0653V17.1323H20.418V19.577Z" fill="#DDDDE7"/>
<path d="M27.9447 19.693H24.065V17.0162H27.9447V19.693ZM24.1814 19.577H27.8286V17.1323H24.1814V19.577Z" fill="#DDDDE7"/>
<path d="M24.181 22.2536H20.3012V19.5769H24.181V22.2536ZM20.418 22.1376H24.0653V19.6929H20.418V22.1376Z" fill="#DDDDE7"/>
<path d="M27.9447 22.2536H24.065V19.5769H27.9447V22.2536ZM24.1814 22.1376H27.8286V19.6929H24.1814V22.1376Z" fill="#DDDDE7"/>
<path d="M24.181 24.8142H20.3012V22.1375H24.181V24.8142ZM20.418 24.6981H24.0653V22.2535H20.418V24.6981Z" fill="#DDDDE7"/>
<path d="M21.3445 12.2594H20.745V12.6933H21.3445V12.2594Z" fill="#DDDDE7"/>
<path d="M25.1282 12.2594H24.5287V12.6933H25.1282V12.2594Z" fill="#DDDDE7"/>
<path d="M21.3445 14.8394H20.745V15.2732H21.3445V14.8394Z" fill="#DDDDE7"/>
<path d="M25.1282 14.8394H24.5287V15.2732H25.1282V14.8394Z" fill="#DDDDE7"/>
<path d="M21.3445 17.42H20.745V17.8539H21.3445V17.42Z" fill="#DDDDE7"/>
<path d="M25.1282 17.42H24.5287V17.8539H25.1282V17.42Z" fill="#DDDDE7"/>
<path d="M21.3445 19.9594H20.745V20.3932H21.3445V19.9594Z" fill="#DDDDE7"/>
<path d="M25.1282 19.9594H24.5287V20.3932H25.1282V19.9594Z" fill="#DDDDE7"/>
<path d="M21.3445 22.4918H20.745V22.9257H21.3445V22.4918Z" fill="#DDDDE7"/>
<path d="M20.4197 24.8142H16.54V22.1375H20.4197V24.8142ZM16.6564 24.6981H20.3037V22.2535H16.6564V24.6981Z" fill="#DDDDE7"/>
<path d="M17.5832 22.4918H16.9837V22.9257H17.5832V22.4918Z" fill="#DDDDE7"/>
<path d="M26.6715 18.9783C26.6359 18.9785 26.6014 18.966 26.5742 18.943L25.4395 17.9895C25.4101 17.9635 25.392 17.927 25.3892 17.8878C25.3863 17.8487 25.3988 17.8099 25.4241 17.7799C25.4493 17.7498 25.4853 17.7308 25.5244 17.7269C25.5634 17.723 25.6025 17.7346 25.6332 17.7591L26.7679 18.7125C26.7916 18.7324 26.8085 18.7591 26.8165 18.789C26.8244 18.8189 26.823 18.8505 26.8124 18.8795C26.8018 18.9086 26.7825 18.9336 26.7571 18.9513C26.7317 18.969 26.7016 18.9784 26.6706 18.9783H26.6715Z" fill="#F24973"/>
<path d="M25.5384 18.9783C25.5075 18.9784 25.4773 18.9689 25.452 18.9513C25.4266 18.9336 25.4073 18.9085 25.3967 18.8795C25.386 18.8505 25.3846 18.8189 25.3926 18.789C25.4005 18.7591 25.4175 18.7324 25.4411 18.7125L26.5759 17.759C26.5909 17.7457 26.6085 17.7355 26.6275 17.7291C26.6466 17.7227 26.6667 17.7201 26.6867 17.7216C26.7068 17.7231 26.7263 17.7286 26.7442 17.7377C26.7621 17.7469 26.778 17.7595 26.7909 17.7749C26.8038 17.7903 26.8135 17.8081 26.8195 17.8273C26.8254 17.8465 26.8274 17.8667 26.8255 17.8867C26.8235 17.9067 26.8175 17.9261 26.8079 17.9437C26.7983 17.9614 26.7852 17.9769 26.7695 17.9895L25.6348 18.943C25.6078 18.9658 25.5737 18.9783 25.5384 18.9783Z" fill="#F24973"/>
<path d="M22.814 18.9785C22.7784 18.9786 22.7439 18.9661 22.7168 18.9431L21.582 17.9896C21.5526 17.9636 21.5346 17.9271 21.5317 17.888C21.5288 17.8488 21.5413 17.8101 21.5666 17.78C21.5918 17.75 21.6278 17.731 21.6669 17.7271C21.706 17.7232 21.745 17.7347 21.7757 17.7592L22.9104 18.7127C22.9341 18.7326 22.951 18.7593 22.959 18.7891C22.9669 18.819 22.9655 18.8506 22.9549 18.8796C22.9443 18.9087 22.925 18.9337 22.8996 18.9514C22.8743 18.9691 22.8441 18.9785 22.8132 18.9785H22.814Z" fill="#F24973"/>
<path d="M21.6796 18.9783C21.6487 18.9784 21.6186 18.9689 21.5932 18.9513C21.5678 18.9336 21.5485 18.9085 21.5379 18.8795C21.5273 18.8505 21.5259 18.8189 21.5338 18.789C21.5418 18.7591 21.5587 18.7324 21.5824 18.7125L22.7171 17.759C22.7322 17.7457 22.7497 17.7355 22.7688 17.7291C22.7878 17.7227 22.8079 17.7201 22.828 17.7216C22.848 17.7231 22.8675 17.7286 22.8854 17.7377C22.9033 17.7469 22.9192 17.7595 22.9321 17.7749C22.9451 17.7903 22.9548 17.8081 22.9607 17.8273C22.9667 17.8465 22.9687 17.8667 22.9667 17.8867C22.9647 17.9067 22.9587 17.9261 22.9491 17.9437C22.9395 17.9614 22.9265 17.9769 22.9108 17.9895L21.776 18.943C21.7491 18.9658 21.7149 18.9783 21.6796 18.9783Z" fill="#F24973"/>
<path d="M19.1503 18.9783C19.1147 18.9785 19.0802 18.966 19.053 18.943L17.9183 17.9895C17.8889 17.9635 17.8708 17.927 17.8679 17.8878C17.865 17.8487 17.8775 17.8099 17.9028 17.7799C17.9281 17.7498 17.9641 17.7308 18.0031 17.7269C18.0422 17.723 18.0812 17.7346 18.1119 17.7591L19.2467 18.7125C19.2703 18.7324 19.2873 18.7591 19.2952 18.789C19.3032 18.8189 19.3017 18.8505 19.2911 18.8795C19.2805 18.9086 19.2612 18.9336 19.2358 18.9513C19.2105 18.969 19.1803 18.9784 19.1494 18.9783H19.1503Z" fill="#F24973"/>
<path d="M18.0159 18.9783C17.985 18.9784 17.9548 18.9689 17.9295 18.9513C17.9041 18.9336 17.8848 18.9085 17.8742 18.8795C17.8635 18.8505 17.8621 18.8189 17.8701 18.789C17.878 18.7591 17.895 18.7324 17.9186 18.7125L19.0534 17.759C19.0684 17.7457 19.086 17.7355 19.105 17.7291C19.1241 17.7227 19.1442 17.7201 19.1642 17.7216C19.1843 17.7231 19.2038 17.7286 19.2217 17.7377C19.2396 17.7469 19.2555 17.7595 19.2684 17.7749C19.2813 17.7903 19.291 17.8081 19.297 17.8273C19.3029 17.8465 19.3049 17.8667 19.303 17.8867C19.301 17.9067 19.295 17.9261 19.2854 17.9437C19.2758 17.9614 19.2627 17.9769 19.247 17.9895L18.1123 18.943C18.0853 18.9658 18.0512 18.9783 18.0159 18.9783Z" fill="#F24973"/>
<path d="M15.2928 18.9783C15.2572 18.9785 15.2227 18.966 15.1955 18.943L14.0608 17.9895C14.0314 17.9635 14.0133 17.927 14.0104 17.8878C14.0075 17.8487 14.02 17.8099 14.0453 17.7799C14.0706 17.7498 14.1066 17.7308 14.1456 17.7269C14.1847 17.723 14.2237 17.7346 14.2544 17.7591L15.3891 18.7125C15.4128 18.7324 15.4298 18.7591 15.4377 18.789C15.4457 18.8189 15.4442 18.8505 15.4336 18.8795C15.423 18.9086 15.4037 18.9336 15.3783 18.9513C15.353 18.969 15.3228 18.9784 15.2919 18.9783H15.2928Z" fill="#F24973"/>
<path d="M14.1584 18.9783C14.1275 18.9784 14.0973 18.9689 14.072 18.9513C14.0466 18.9336 14.0273 18.9085 14.0167 18.8795C14.006 18.8505 14.0046 18.8189 14.0126 18.789C14.0205 18.7591 14.0375 18.7324 14.0611 18.7125L15.1959 17.759C15.2109 17.7457 15.2285 17.7355 15.2475 17.7291C15.2665 17.7227 15.2867 17.7201 15.3067 17.7216C15.3268 17.7231 15.3463 17.7286 15.3642 17.7377C15.3821 17.7469 15.398 17.7595 15.4109 17.7749C15.4238 17.7903 15.4335 17.8081 15.4395 17.8273C15.4454 17.8465 15.4474 17.8667 15.4454 17.8867C15.4435 17.9067 15.4375 17.9261 15.4279 17.9437C15.4183 17.9614 15.4052 17.9769 15.3895 17.9895L14.2548 18.943C14.2278 18.9658 14.1937 18.9783 14.1584 18.9783Z" fill="#F24973"/>
<path d="M11.5103 18.9783C11.4747 18.9785 11.4402 18.966 11.413 18.943L10.2783 17.9895C10.2489 17.9635 10.2308 17.927 10.2279 17.8878C10.225 17.8487 10.2375 17.8099 10.2628 17.7799C10.2881 17.7498 10.3241 17.7308 10.3631 17.7269C10.4022 17.723 10.4412 17.7346 10.4719 17.7591L11.6066 18.7125C11.6303 18.7324 11.6473 18.7591 11.6552 18.789C11.6632 18.8189 11.6617 18.8505 11.6511 18.8795C11.6405 18.9086 11.6212 18.9336 11.5958 18.9513C11.5705 18.969 11.5403 18.9784 11.5094 18.9783H11.5103Z" fill="#F24973"/>
<path d="M10.3759 18.9783C10.345 18.9784 10.3148 18.9689 10.2894 18.9513C10.2641 18.9336 10.2448 18.9085 10.2342 18.8795C10.2235 18.8505 10.2221 18.8189 10.2301 18.789C10.238 18.7591 10.255 18.7324 10.2786 18.7125L11.4134 17.759C11.4284 17.7457 11.446 17.7355 11.465 17.7291C11.4841 17.7227 11.5042 17.7201 11.5242 17.7216C11.5443 17.7231 11.5638 17.7286 11.5817 17.7377C11.5996 17.7469 11.6155 17.7595 11.6284 17.7749C11.6413 17.7903 11.651 17.8081 11.657 17.8273C11.6629 17.8465 11.6649 17.8667 11.663 17.8867C11.661 17.9067 11.655 17.9261 11.6454 17.9437C11.6358 17.9614 11.6227 17.9769 11.607 17.9895L10.4723 18.943C10.4453 18.9658 10.4112 18.9783 10.3759 18.9783Z" fill="#F24973"/>
<path d="M7.84596 18.9784C7.81056 18.9784 7.77628 18.9659 7.74924 18.943L6.6145 17.9895C6.58511 17.9635 6.56704 17.927 6.56416 17.8878C6.56127 17.8487 6.57379 17.8099 6.59905 17.7799C6.62431 17.7498 6.66031 17.7308 6.69937 17.7269C6.73844 17.723 6.77748 17.7346 6.80817 17.7591L7.9429 18.7126C7.96656 18.7325 7.98351 18.7592 7.99147 18.789C7.99942 18.8189 7.99799 18.8505 7.98737 18.8795C7.97674 18.9086 7.95744 18.9336 7.93209 18.9513C7.90673 18.969 7.87655 18.9784 7.84564 18.9784H7.84596Z" fill="#F24973"/>
<path d="M6.71215 18.9783C6.68124 18.9784 6.65106 18.9689 6.6257 18.9513C6.60034 18.9336 6.58104 18.9085 6.57042 18.8795C6.5598 18.8505 6.55837 18.8189 6.56632 18.789C6.57427 18.7591 6.59123 18.7324 6.61488 18.7125L7.74962 17.759C7.76467 17.7457 7.78223 17.7355 7.80127 17.7291C7.82031 17.7227 7.84044 17.7201 7.86048 17.7216C7.88052 17.7231 7.90006 17.7286 7.91795 17.7377C7.93584 17.7469 7.95172 17.7595 7.96465 17.7749C7.97758 17.7903 7.9873 17.8081 7.99323 17.8273C7.99917 17.8465 8.0012 17.8667 7.99921 17.8867C7.99722 17.9067 7.99124 17.9261 7.98164 17.9437C7.97203 17.9614 7.95899 17.9769 7.94328 17.9895L6.80855 18.943C6.78159 18.9658 6.74744 18.9783 6.71215 18.9783Z" fill="#F24973"/>
<path d="M3.98846 18.9784C3.95306 18.9784 3.91878 18.9659 3.89174 18.943L2.757 17.9895C2.72761 17.9635 2.70954 17.927 2.70666 17.8878C2.70377 17.8487 2.71629 17.8099 2.74155 17.7799C2.76681 17.7498 2.80281 17.7308 2.84187 17.7269C2.88094 17.723 2.91998 17.7346 2.95067 17.7591L4.0854 18.7126C4.10906 18.7325 4.12601 18.7592 4.13397 18.789C4.14192 18.8189 4.14049 18.8505 4.12987 18.8795C4.11924 18.9086 4.09994 18.9336 4.07459 18.9513C4.04923 18.969 4.01905 18.9784 3.98814 18.9784H3.98846Z" fill="#F24973"/>
<path d="M2.8534 18.9783C2.82249 18.9784 2.79231 18.9689 2.76695 18.9513C2.74159 18.9336 2.72229 18.9085 2.71167 18.8795C2.70105 18.8505 2.69962 18.8189 2.70757 18.789C2.71553 18.7591 2.73248 18.7324 2.75613 18.7125L3.89087 17.759C3.90591 17.7457 3.92347 17.7355 3.94251 17.7291C3.96155 17.7227 3.98169 17.7201 4.00173 17.7216C4.02177 17.7231 4.04131 17.7286 4.0592 17.7377C4.07709 17.7469 4.09297 17.7595 4.1059 17.7749C4.11883 17.7903 4.12854 17.8081 4.13448 17.8273C4.14042 17.8465 4.14245 17.8667 4.14046 17.8867C4.13847 17.9067 4.13249 17.9261 4.12289 17.9437C4.11328 17.9614 4.10024 17.9769 4.08453 17.9895L2.9498 18.943C2.92284 18.9658 2.88869 18.9783 2.8534 18.9783Z" fill="#F24973"/>
</g>
<path d="M2.95441 16.6223C2.92074 16.6175 2.88581 16.6209 2.85366 16.632C0.903808 17.306 0.109511 18.1102 0.628044 18.8876C1.15095 19.6715 2.97064 20.3708 5.72576 20.8465C8.48088 21.3222 11.9699 21.5396 15.4999 21.4555C19.0299 21.3714 22.3428 20.9919 24.7805 20.3925C27.2182 19.793 28.6026 19.0174 28.6586 18.2197C28.7146 17.422 27.4382 16.6605 25.0829 16.0865C22.7275 15.5124 19.4655 15.1679 15.9447 15.1211C12.6948 15.078 9.44374 15.2916 6.74169 15.7222C6.57721 15.7484 6.56494 15.9755 6.72491 16.0219C6.74816 16.0286 6.77244 16.0299 6.79627 16.0257C9.38711 15.5653 12.6111 15.3335 15.8339 15.3763C19.0717 15.4192 22.0714 15.7361 24.2373 16.264C26.4033 16.7919 27.5771 17.4921 27.5255 18.2257C27.474 18.9593 26.201 19.6725 23.9593 20.2238C21.7175 20.7751 18.6711 21.124 15.4249 21.2014C12.1787 21.2787 8.97021 21.0788 6.43661 20.6413C3.90301 20.2039 2.22963 19.5608 1.74877 18.8399C1.34937 18.2412 1.79694 17.6251 3.0065 17.0765C3.21255 16.9831 3.17833 16.6546 2.95441 16.6223Z" fill="#F24973"/>
<defs>
<clipPath id="clip0_440_670">
<rect width="29.434" height="32" fill="white"/>
</clipPath>
</defs>
</svg>
