<svg width="375" height="240" viewBox="0 0 375 240" fill="none" xmlns="http://www.w3.org/2000/svg">
<path opacity="0.2" d="M199.319 45.5469L81.4641 173.482L252.132 175.144L244.492 60.7786L199.319 45.5469Z" fill="url(#paint0_linear_2604_710)"/>
<path d="M248.219 77.8225C248.643 77.9674 249.095 78.0161 249.541 77.965C250.345 77.8718 251.079 77.4635 251.583 76.8296C252.086 76.1957 252.318 75.3879 252.227 74.5835L250.555 60.0816C250.542 59.6597 250.441 59.2453 250.259 58.8644C250.077 58.4835 249.818 58.1445 249.499 57.8687C249.179 57.5929 248.806 57.3864 248.402 57.2622C247.999 57.138 247.574 57.0987 247.155 57.1469C246.736 57.1952 246.331 57.3298 245.966 57.5424C245.601 57.7549 245.285 58.0408 245.036 58.3819C244.788 58.723 244.612 59.1119 244.522 59.5241C244.431 59.9364 244.427 60.3629 244.509 60.7769L246.176 75.2788C246.241 75.8527 246.467 76.3965 246.829 76.8468C247.19 77.2971 247.673 77.6355 248.219 77.8225Z" fill="url(#paint1_linear_2604_710)"/>
<path d="M255.597 76.3903C256.418 73.0577 254.382 69.6906 251.05 68.8696C247.717 68.0486 244.35 70.0846 243.529 73.4171C242.708 76.7496 244.744 80.1167 248.077 80.9378C251.409 81.7588 254.776 79.7228 255.597 76.3903Z" fill="url(#paint2_linear_2604_710)"/>
<path d="M186.031 56.8558C185.542 56.6931 185.103 56.4093 184.754 56.0309C184.405 55.6524 184.158 55.1917 184.036 54.6918C183.913 54.1918 183.919 53.6689 184.054 53.1721C184.188 52.6752 184.447 52.2205 184.804 51.8505L194.914 41.3217C195.19 41.0247 195.522 40.7856 195.891 40.6182C196.26 40.4509 196.659 40.3587 197.064 40.347C197.469 40.3353 197.872 40.4044 198.25 40.5501C198.629 40.6959 198.974 40.9156 199.266 41.1962C199.559 41.4768 199.792 41.8128 199.953 42.1846C200.114 42.5564 200.2 42.9566 200.205 43.3618C200.21 43.767 200.134 44.1691 199.982 44.5448C199.83 44.9204 199.605 45.262 199.319 45.5496L189.209 56.0784C188.808 56.4967 188.296 56.7919 187.733 56.9296C187.17 57.0673 186.58 57.0417 186.031 56.8558Z" fill="url(#paint3_linear_2604_710)"/>
<path d="M191.111 58.1198C193.558 55.7133 193.591 51.7787 191.185 49.3315C188.778 46.8844 184.844 46.8514 182.397 49.2579C179.949 51.6644 179.916 55.5991 182.323 58.0462C184.729 60.4934 188.664 60.5263 191.111 58.1198Z" fill="url(#paint4_linear_2604_710)"/>
<path d="M223.78 50.468C211.473 46.3655 199.389 41.623 187.577 36.2598C193.67 46.0285 205.167 54.8644 219.785 59.7919C234.278 64.6806 248.664 64.659 259.396 60.6556C248.845 58.2588 236.636 54.7996 223.78 50.468Z" fill="url(#paint5_linear_2604_710)"/>
<path d="M293.649 61.8237C295.686 55.7824 267.307 40.7613 230.264 28.2732C193.22 15.7851 161.539 10.5589 159.503 16.6002C157.466 22.6416 185.845 37.6627 222.888 50.1508C259.932 62.6389 291.612 67.8651 293.649 61.8237Z" fill="url(#paint6_linear_2604_710)"/>
<path opacity="0.2" d="M223.741 47.7089C189.252 36.0831 162.283 22.2592 160.369 15.5352C159.977 15.8009 159.675 16.1808 159.506 16.6234C157.472 22.6695 185.849 37.6853 222.89 50.1748C259.931 62.6642 291.612 67.8811 293.651 61.835C293.791 61.3866 293.791 60.9059 293.651 60.4574C288.067 64.6724 258.229 59.3389 223.741 47.7089Z" fill="white"/>
<path d="M229.148 34.433C240.211 38.0702 251.558 40.7815 263.07 42.5391C264.608 34.0281 263.029 25.248 258.622 17.806C254.216 10.364 247.277 4.75782 239.075 2.01371C230.873 -0.730391 221.957 -0.428893 213.959 2.86302C205.961 6.15493 199.417 12.217 195.523 19.9398C195.523 19.9398 211.955 28.6418 229.148 34.433Z" fill="url(#paint7_linear_2604_710)"/>
<path d="M66.4546 100.423C66.3864 99.989 66.1488 99.6003 65.7941 99.3419C65.4393 99.0836 64.9965 98.9767 64.563 99.0449C64.1295 99.113 63.7408 99.3506 63.4824 99.7053C63.2241 100.06 63.1172 100.503 63.1854 100.936C63.4229 102.478 63.7252 107.306 62.0625 109.25C61.7203 109.657 61.2442 109.93 60.7194 110.019L60.8706 100.824C60.8706 100.51 60.8087 100.199 60.6884 99.9086C60.5682 99.6183 60.392 99.3546 60.1699 99.1324C59.9477 98.9102 59.6839 98.734 59.3937 98.6138C59.1034 98.4935 58.7922 98.4316 58.4781 98.4316C58.1639 98.4316 57.8528 98.4935 57.5625 98.6138C57.2722 98.734 57.0085 98.9102 56.7863 99.1324C56.5641 99.3546 56.3879 99.6183 56.2677 99.9086C56.1474 100.199 56.0856 100.51 56.0856 100.824L56.5174 118.271C55.9708 118.194 55.4722 117.917 55.1182 117.494C53.4512 115.551 53.7535 110.722 53.9911 109.181C54.0245 108.966 54.0153 108.747 53.9641 108.536C53.9129 108.325 53.8206 108.126 53.6925 107.95C53.5643 107.775 53.4029 107.626 53.2174 107.513C53.0319 107.4 52.8259 107.325 52.6112 107.291C52.3966 107.258 52.1774 107.267 51.9663 107.318C51.7552 107.369 51.5562 107.462 51.3807 107.59C51.2053 107.718 51.0568 107.879 50.9438 108.065C50.8307 108.25 50.7553 108.456 50.7218 108.671C50.6052 109.431 49.6465 116.19 52.6047 119.645C53.1014 120.227 53.7121 120.702 54.399 121.04C55.086 121.378 55.8348 121.572 56.5995 121.61L56.7895 129.206H60.3999L60.6633 113.335C61.4138 113.288 62.1472 113.091 62.8195 112.754C63.4919 112.417 64.0892 111.948 64.5759 111.375C67.5299 107.946 66.5755 101.183 66.4546 100.423Z" fill="#C6C1BD"/>
<path d="M308.297 77.2414C308.245 76.9048 308.126 76.5819 307.949 76.2911C307.771 76.0003 307.538 75.7473 307.263 75.5466C306.987 75.3459 306.675 75.2014 306.344 75.1213C306.013 75.0412 305.669 75.0272 305.333 75.0799C304.996 75.1327 304.673 75.2512 304.382 75.4287C304.092 75.6063 303.839 75.8393 303.638 76.1146C303.437 76.3899 303.293 76.7021 303.213 77.0332C303.132 77.3644 303.118 77.708 303.171 78.0446C303.543 80.4631 304.035 88.0336 301.4 91.0826C300.866 91.7246 300.121 92.1549 299.297 92.2961L299.535 77.8676C299.549 77.3643 299.463 76.8633 299.28 76.3943C299.097 75.9253 298.821 75.4979 298.469 75.1376C298.118 74.7773 297.697 74.4914 297.233 74.297C296.768 74.1026 296.27 74.0036 295.766 74.0059C295.263 74.0082 294.765 74.1118 294.302 74.3105C293.84 74.5092 293.422 74.799 293.074 75.1625C292.725 75.526 292.454 75.9559 292.275 76.4266C292.096 76.8972 292.014 77.3991 292.033 77.9021L292.711 105.274C291.852 105.154 291.069 104.718 290.513 104.051C287.922 101.002 288.354 93.4319 288.747 91.0135C288.8 90.6766 288.786 90.3326 288.705 90.0012C288.625 89.6698 288.481 89.3574 288.28 89.0819C288.079 88.8064 287.825 88.5732 287.534 88.3955C287.243 88.2179 286.92 88.0993 286.583 88.0466C286.246 87.9938 285.902 88.008 285.571 88.0881C285.24 88.1683 284.927 88.313 284.652 88.5139C284.376 88.7148 284.143 88.968 283.965 89.2591C283.788 89.5501 283.669 89.8733 283.616 90.2102C283.431 91.4021 281.932 102.009 286.566 107.424C287.345 108.34 288.305 109.086 289.384 109.616C290.463 110.147 291.64 110.45 292.841 110.508L293.135 122.423H298.796L299.228 97.5259C300.405 97.4543 301.556 97.1454 302.61 96.6177C303.665 96.09 304.602 95.3545 305.365 94.4554C309.986 89.0139 308.483 78.4117 308.297 77.2414Z" fill="#C6C1BD"/>
<path d="M187.618 239.103C290.776 239.103 374.402 209.497 374.402 172.976C374.402 136.456 290.776 106.85 187.618 106.85C84.4596 106.85 0.833252 136.456 0.833252 172.976C0.833252 209.497 84.4596 239.103 187.618 239.103Z" fill="url(#paint8_linear_2604_710)"/>
<path d="M193.793 65.2831C193.639 65.0834 193.415 64.9498 193.166 64.9093C192.917 64.8689 192.662 64.9247 192.453 65.0653C192.244 65.206 192.096 65.421 192.039 65.6668C191.982 65.9125 192.021 66.1706 192.148 66.3887C192.671 67.1661 194.053 69.7011 193.642 71.1781C193.564 71.4867 193.375 71.7557 193.111 71.9338L190.865 66.9156C190.703 66.572 190.411 66.3068 190.054 66.1784C189.696 66.0501 189.302 66.069 188.959 66.2311C188.615 66.3931 188.35 66.6851 188.222 67.0426C188.093 67.4002 188.112 67.7941 188.274 68.1377L192.921 77.4789C192.605 77.5755 192.265 77.5509 191.967 77.4098C190.572 76.7793 189.514 74.0888 189.255 73.1948C189.179 72.9459 189.009 72.7367 188.78 72.6125C188.552 72.4883 188.284 72.4591 188.034 72.5312C187.784 72.6033 187.573 72.7709 187.445 72.9978C187.318 73.2247 187.286 73.4925 187.354 73.7433C187.48 74.1752 188.65 78.0922 191.146 79.2107C191.563 79.4023 192.014 79.5062 192.473 79.5158C192.931 79.5255 193.386 79.4407 193.811 79.2668L195.836 83.3306L197.793 82.4194L193.906 73.7563C194.3 73.5409 194.647 73.2483 194.926 72.8958C195.205 72.5434 195.411 72.1384 195.53 71.7049C196.264 69.0878 194.048 65.6675 193.793 65.2831Z" fill="#C6C1BD"/>
<path d="M156.766 88.9026C156.766 89.1417 156.695 89.3755 156.562 89.5744C156.429 89.7732 156.24 89.9282 156.019 90.0197C155.798 90.1113 155.555 90.1352 155.32 90.0886C155.086 90.0419 154.87 89.9267 154.701 89.7576C154.532 89.5885 154.417 89.373 154.37 89.1385C154.324 88.9039 154.348 88.6608 154.439 88.4398C154.531 88.2189 154.686 88.03 154.885 87.8971C155.083 87.7643 155.317 87.6934 155.556 87.6934C155.877 87.6945 156.184 87.8223 156.41 88.0488C156.637 88.2753 156.764 88.5822 156.766 88.9026Z" fill="#BDBDBD"/>
<path d="M212.873 67.4843C212.873 67.6662 212.819 67.8441 212.718 67.9954C212.617 68.1466 212.473 68.2645 212.305 68.3342C212.137 68.4038 211.952 68.422 211.774 68.3865C211.595 68.351 211.431 68.2634 211.303 68.1348C211.174 68.0061 211.086 67.8422 211.051 67.6638C211.015 67.4853 211.034 67.3004 211.103 67.1323C211.173 66.9642 211.291 66.8206 211.442 66.7195C211.593 66.6184 211.771 66.5645 211.953 66.5645C212.074 66.5639 212.194 66.5873 212.306 66.6333C212.418 66.6793 212.519 66.7471 212.605 66.8326C212.69 66.9181 212.758 67.0198 212.804 67.1316C212.85 67.2435 212.873 67.3633 212.873 67.4843Z" fill="#BDBDBD"/>
<defs>
<linearGradient id="paint0_linear_2604_710" x1="176.188" y1="-5.23652" x2="165.56" y2="198.475" gradientUnits="userSpaceOnUse">
<stop stop-color="#4E9CFF"/>
<stop offset="0.83" stop-color="#4E9CFF"/>
</linearGradient>
<linearGradient id="paint1_linear_2604_710" x1="249.036" y1="76.6771" x2="246.812" y2="46.4499" gradientUnits="userSpaceOnUse">
<stop stop-color="#A50404"/>
<stop offset="1" stop-color="#E64D4E"/>
</linearGradient>
<linearGradient id="paint2_linear_2604_710" x1="253.37" y1="82.6025" x2="245.881" y2="67.194" gradientUnits="userSpaceOnUse">
<stop stop-color="#A52B04"/>
<stop offset="1" stop-color="#E68D4D"/>
</linearGradient>
<linearGradient id="paint3_linear_2604_710" x1="189.417" y1="51.2872" x2="201.033" y2="39.8537" gradientUnits="userSpaceOnUse">
<stop stop-color="#A50404"/>
<stop offset="1" stop-color="#E64D4E"/>
</linearGradient>
<linearGradient id="paint4_linear_2604_710" x1="182.383" y1="57.1863" x2="191.468" y2="49.8945" gradientUnits="userSpaceOnUse">
<stop stop-color="#A52B04"/>
<stop offset="1" stop-color="#E6694D"/>
</linearGradient>
<linearGradient id="paint5_linear_2604_710" x1="224.771" y1="43.8999" x2="215.808" y2="75.8794" gradientUnits="userSpaceOnUse">
<stop stop-color="#BD5E19"/>
<stop offset="1" stop-color="#F78838"/>
</linearGradient>
<linearGradient id="paint6_linear_2604_710" x1="214.082" y1="76.2449" x2="227.691" y2="35.8781" gradientUnits="userSpaceOnUse">
<stop stop-color="#A52B04"/>
<stop offset="1" stop-color="#E68D4D"/>
</linearGradient>
<linearGradient id="paint7_linear_2604_710" x1="221.984" y1="-0.922782" x2="241.7" y2="67.5223" gradientUnits="userSpaceOnUse">
<stop stop-color="#4E9CFF"/>
<stop offset="0.19" stop-color="#4190F5"/>
<stop offset="0.71" stop-color="#2274DD"/>
<stop offset="1" stop-color="#176AD4"/>
</linearGradient>
<linearGradient id="paint8_linear_2604_710" x1="187.618" y1="76.8784" x2="187.618" y2="180.715" gradientUnits="userSpaceOnUse">
<stop stop-color="#E8DDC9" stop-opacity="0.3"/>
<stop offset="0.48" stop-color="#F5E8D7" stop-opacity="0.4"/>
<stop offset="1" stop-color="#FEFBF0" stop-opacity="0.27"/>
</linearGradient>
</defs>
</svg>
