<svg width="323" height="184" viewBox="0 0 323 184" fill="none" xmlns="http://www.w3.org/2000/svg">
<g clip-path="url(#clip0_1728_622)">
<path opacity="0.8" d="M322.367 176.217C322.367 176.217 318.059 180.05 317.109 183.555H178.158C177.711 180.804 173.214 174.555 173.214 174.555C173.487 175.176 178.011 176.887 178.011 176.887C177.858 176.245 177.557 173.396 177.557 173.396C178.078 174.568 178.697 175.693 179.408 176.761C178.8 174.995 178.64 170.477 178.64 170.477C179.082 171.959 179.628 173.408 180.274 174.813C180.204 174.115 181.426 170.365 181.426 170.365C181.139 171.489 182.243 176.65 182.243 176.65C182.243 174.764 183.842 171.873 183.842 171.873C183.493 173.081 184.233 177.306 184.233 177.306C184.401 176.332 184.785 175.409 185.357 174.604C184.33 170.554 182.913 165.834 182.913 165.834C183.716 166.769 188.366 176.419 188.366 176.419C188.101 175.414 187.626 170.288 187.626 170.288C188.415 172.621 190.915 176.573 190.915 176.573C190.084 173.78 190.51 165.01 190.51 165.01C190.608 167.237 192.716 174.143 192.716 174.143C192.765 173.019 195.9 167.398 195.9 167.398C195.042 169.241 195.097 176.999 195.097 176.999C195.635 174.666 198.672 171.301 198.672 171.301C197.786 172.844 197.234 177.997 197.234 177.997C197.932 176.231 200.509 174.227 200.509 174.227C199.796 175.07 199.331 176.095 199.168 177.187C200.244 175.183 201.493 173.2 201.493 173.2C201.513 175.007 201.429 176.814 201.242 178.612C201.704 177.54 202.231 176.498 202.82 175.49C202.743 176.67 203.826 178.695 203.826 178.695C204.028 177.299 207.792 172.816 207.792 172.816C207.093 173.947 206.625 177.452 206.625 177.452C207.107 176.873 212.47 174.017 212.47 174.017C210.885 174.953 208.015 178.905 208.015 178.905C208.772 178.36 209.581 177.892 210.431 177.508L210.752 176.447C210.752 176.566 210.752 176.943 210.703 177.383C211.199 177.145 211.688 176.929 212.1 176.733C212.302 176.182 212.47 175.763 212.47 175.763C212.417 176.039 212.398 176.32 212.414 176.601C213.245 176.245 213.81 176.014 213.81 176.014C213.314 176.299 212.846 176.631 212.414 177.006C212.414 177.564 212.484 178.074 212.484 178.074C213.034 177.249 213.641 176.463 214.299 175.721C213.967 176.382 213.732 177.087 213.601 177.816L214.46 177.536C215.004 176.957 215.521 176.496 215.521 176.496C215.011 177.131 214.488 179.38 214.488 179.38C214.871 178.839 215.343 178.367 215.884 177.983C216.178 175.84 216.366 173.347 216.366 173.347C216.666 173.85 217.406 178.933 217.406 178.933C217.469 178.402 218.363 175.693 218.363 175.693C218.437 176.829 218.658 177.951 219.019 179.031C219.131 177.564 221.428 172.963 221.428 172.963C220.981 174.122 220.73 177.753 220.73 177.753C221.023 177.159 224.298 174.262 224.298 174.262C223.335 175.218 221.603 179.296 221.603 179.296C222.483 178.067 225.178 176.314 225.178 176.314C224.27 177.117 222.748 179.806 222.748 179.806C223.632 179.014 224.621 178.349 225.688 177.83C225.078 178.235 224.56 178.763 224.165 179.38C225.304 178.332 226.547 177.285 226.547 177.285C226.317 177.9 226.041 178.498 225.723 179.072L226.093 179.205C226.491 178.828 226.875 178.507 226.875 178.507C226.747 178.809 226.692 179.136 226.714 179.463L227.273 179.68C227.426 179.54 227.608 179.38 227.803 179.219C227.468 178.82 227.069 178.478 226.623 178.207C226.623 178.207 227.377 178.549 228.166 178.905C228.655 178.521 229.2 178.123 229.647 177.795C229.648 177.776 229.648 177.757 229.647 177.739L229.696 177.788C230.233 177.397 230.638 177.089 230.638 177.089C230.353 177.351 230.098 177.644 229.877 177.962C230.052 178.165 230.31 178.458 230.575 178.779C231.825 178.283 233.313 177.739 233.313 177.739C232.466 178.152 231.659 178.642 230.904 179.205C231.001 179.331 231.092 179.463 231.176 179.582C231.623 179.429 232.077 179.282 232.482 179.156C232.501 179.104 232.515 179.05 232.523 178.996L232.593 179.121L233.41 178.877C233.441 178.573 233.504 178.274 233.599 177.983C233.599 177.983 234.213 178.912 234.723 179.847C234.722 179.588 234.67 179.33 234.569 179.091C234.468 178.851 234.321 178.634 234.136 178.451C234.136 178.451 235.631 179.415 235.917 180.245C235.917 180.245 236.05 177.871 235.617 177.159C235.617 177.159 237.3 178.751 237.439 179.841C237.439 179.841 238.207 176.279 237.809 175.435C237.809 175.435 239.387 178.046 239.311 178.57C239.311 178.57 241.405 175.421 241.65 174.38C241.65 174.38 241.14 178.444 240.323 179.722C241.351 178.846 242.302 177.884 243.165 176.845C243.165 176.845 242.376 179.233 242.104 179.708C242.104 179.708 246.223 175.253 246.873 174.82C246.873 174.82 245.476 177.02 244.38 178.912C244.704 179.281 244.902 179.743 244.945 180.232C244.945 180.232 245.846 178.228 245.699 177.648C246.004 178.137 246.238 178.666 246.398 179.219L246.747 179.345C246.865 179.086 247.005 178.779 247.138 178.472C246.842 178.274 246.531 178.099 246.209 177.948L247.187 178.346C247.403 177.925 247.531 177.464 247.564 176.992C247.743 177.549 247.892 178.115 248.011 178.688L248.311 178.814C248.576 178.493 249.009 177.997 249.274 177.599C249.198 177.515 249.128 177.446 249.058 177.383L249.302 177.564C249.416 177.418 249.513 177.259 249.589 177.089C249.589 177.089 249.54 177.327 249.449 177.676C249.728 177.885 250.147 178.193 250.58 178.542C250.818 178.179 251.027 177.843 251.111 177.767C251.195 177.69 250.978 178.144 250.776 178.695C251.587 179.278 252.323 179.958 252.968 180.72C253.135 180.143 253.135 179.531 252.968 178.954C252.968 178.954 254.553 180.455 254.742 180.748C254.236 179.762 253.786 178.748 253.394 177.711C253.394 177.711 254.693 178.842 255.894 180.001C255.491 179.328 254.948 178.749 254.302 178.304C255.448 178.894 256.508 179.639 257.451 180.518C257.451 180.518 255.915 177.585 254.958 176.705C254.958 176.705 257.856 178.66 258.778 180.001C258.778 180.001 257.074 175.609 256.054 174.576C256.054 174.576 259.546 177.781 259.86 178.423C259.86 178.423 259.811 174.541 259.371 173.291C259.371 173.291 261.717 178.29 261.759 179.868C262.239 178.73 262.563 177.532 262.723 176.307C262.723 176.307 263.589 179.268 263.63 179.847C263.63 179.847 264.817 174.338 265.202 173.815C265.202 173.815 265.271 176.517 265.481 178.856C266.082 179.306 266.602 179.857 267.017 180.483C267.017 180.483 266.828 179.512 266.549 178.612C266.375 178.535 266.193 178.451 266.012 178.381L266.535 178.556C266.411 178.108 266.221 177.682 265.97 177.292C266.531 177.798 267.063 178.337 267.562 178.905L268.26 179.156C268.148 178.57 267.995 177.83 267.82 177.25C267.579 177.084 267.329 176.93 267.073 176.789L267.771 177.068C267.707 176.858 267.613 176.658 267.492 176.475C267.492 176.475 267.764 176.789 268.113 177.173C268.553 177.362 269.098 177.592 269.684 177.871C269.743 177.438 269.743 176.999 269.684 176.566C269.684 176.566 269.964 177.264 270.229 178.13L271.255 178.619C271.275 178.515 271.289 178.41 271.297 178.304C271.297 178.304 271.346 178.465 271.409 178.695L271.786 178.884C271.786 178.242 271.786 177.592 271.786 177.404C270.954 176.355 269.978 175.429 268.888 174.653C268.888 174.653 275.312 178.018 275.871 178.681C275.871 178.681 275.55 174.736 274.698 173.452C274.698 173.452 279.194 178.612 279.355 180.225C279.355 180.225 280.884 177.983 280.863 176.629C281.558 177.801 282.179 179.016 282.721 180.266C282.721 180.266 282.469 175.12 282.721 174.059C282.721 174.059 284.243 176.377 285.514 178.737C285.364 177.438 284.812 176.217 283.935 175.246C283.935 175.246 287.245 177.655 288.055 179.743C288.055 179.743 287.657 173.731 286.568 171.922C286.568 171.922 290.464 175.93 291.044 178.681C291.044 178.681 291.651 169.604 290.59 167.412C290.59 167.412 294.556 174.087 294.549 175.421C294.549 175.421 298.04 167.244 298.319 164.57C298.319 164.57 298.319 175.113 296.923 178.388C296.923 178.388 300.798 173.738 302.111 170.938C302.111 170.938 301.056 177.117 300.596 178.318C300.596 178.318 308.193 166.679 309.477 165.526C309.477 165.526 306.985 171.322 305.155 176.245C305.934 177.216 306.446 178.374 306.643 179.603C306.643 179.603 308.039 174.45 307.634 172.956C307.634 172.956 309.84 176.573 309.729 178.905C309.729 178.905 311.824 172.621 311.439 171.224C311.439 171.224 313.059 175.895 312.892 176.81C312.892 176.81 315.51 172.621 315.776 171.434C315.776 171.434 315.189 177.061 314.1 179.233C315.282 177.952 316.345 176.566 317.277 175.092C317.277 175.092 316.579 178.66 316.285 179.463C316.285 179.568 321.857 177.006 322.367 176.217Z" fill="#A0B8C1"/>
<path d="M242.487 177.571L241.957 178.193C241.957 178.409 242.013 178.626 242.041 178.8L242.194 178.709C242.264 178.367 242.369 177.997 242.487 177.571Z" fill="#A0B8C1"/>
<path d="M241.454 178.821C241.454 178.975 241.454 179.101 241.412 179.184C241.412 179.066 241.482 178.905 241.531 178.73L241.454 178.821Z" fill="#A0B8C1"/>
<path d="M243.535 179.184C243.774 178.637 244.076 178.119 244.436 177.641C244.194 177.778 243.961 177.929 243.737 178.095C243.626 178.695 243.535 179.184 243.535 179.184Z" fill="#A0B8C1"/>
<path d="M257.849 179.471C257.898 179.624 257.961 179.813 258.017 180.008L258.282 179.918C258.282 179.659 258.359 179.373 258.401 179.101C258.233 179.205 258.044 179.331 257.849 179.471Z" fill="#A0B8C1"/>
<path d="M256.878 180.218C256.878 180.288 256.878 180.358 256.927 180.427L257.2 180.316C257.339 180.11 257.464 179.895 257.577 179.673C257.332 179.855 257.088 180.043 256.878 180.218Z" fill="#A0B8C1"/>
<path d="M255.154 179.478L255.258 179.555L255.824 179.226C255.849 178.889 255.849 178.551 255.824 178.214C255.538 178.696 255.293 179.191 255.154 179.478Z" fill="#A0B8C1"/>
<path d="M253.464 180.015C253.464 180.239 253.464 180.392 253.464 180.392C253.499 180.322 253.538 180.254 253.583 180.19L253.464 180.015Z" fill="#A0B8C1"/>
<path d="M252.745 179.254C252.633 179.533 252.521 179.785 252.438 179.952H252.514C252.64 179.785 252.801 179.589 252.961 179.394C252.884 179.394 252.815 179.31 252.745 179.254Z" fill="#A0B8C1"/>
<path d="M252.284 180.336C252.342 180.238 252.407 180.145 252.479 180.057L252.424 180.015L252.284 180.336Z" fill="#A0B8C1"/>
<path d="M258.177 180.692L258.275 179.994C258.194 180.029 258.117 180.071 258.044 180.12C258.108 180.306 258.152 180.498 258.177 180.692Z" fill="#A0B8C1"/>
<path d="M270.417 179.743L270.683 179.226L270.571 178.912C270.508 179.108 270.424 179.401 270.334 179.687L270.417 179.743Z" fill="#A0B8C1"/>
<path d="M269.754 179.31L270.047 179.498C270.223 179.287 270.386 179.065 270.536 178.835C270.424 178.525 270.293 178.222 270.145 177.927C270.047 178.325 269.908 178.835 269.754 179.31Z" fill="#A0B8C1"/>
<path d="M269.391 180.246L269.635 179.966C269.605 179.925 269.572 179.885 269.538 179.848C269.503 180.001 269.447 180.127 269.391 180.246Z" fill="#A0B8C1"/>
<path d="M267.904 179.562C267.932 179.775 267.932 179.991 267.904 180.204L268.106 179.708C268.042 179.654 267.975 179.605 267.904 179.562Z" fill="#A0B8C1"/>
<path d="M270.486 180.978L270.417 180.895L270.486 180.978Z" fill="#A0B8C1"/>
<path d="M271.004 180.183C271.004 180.183 270.934 179.959 270.829 179.645L270.725 179.952C270.823 180.023 270.916 180.1 271.004 180.183Z" fill="#A0B8C1"/>
<path opacity="0.8" d="M213.964 176.217C213.964 176.217 207.785 180.05 206.423 183.556H7.10121C6.45184 180.804 0 174.555 0 174.555C0.398001 175.177 6.8848 176.887 6.8848 176.887C6.66136 176.245 6.23539 173.396 6.23539 173.396C7.00964 174.6 7.89823 175.728 8.88877 176.762C8.01596 174.995 7.78548 170.477 7.78548 170.477C7.96702 171.413 10.1316 174.813 10.1316 174.813C10.0268 174.115 11.7864 170.366 11.7864 170.366C11.3745 171.49 12.9525 176.65 12.9525 176.65C12.9525 174.765 15.2428 171.874 15.2428 171.874C14.747 173.082 15.8083 177.306 15.8083 177.306C16.0844 176.273 16.643 175.337 17.4213 174.604C15.955 170.554 13.9301 165.834 13.9301 165.834C15.0822 166.77 21.7504 176.419 21.7504 176.419C21.3664 175.414 20.6891 170.289 20.6891 170.289C21.8202 172.621 25.4023 176.573 25.4023 176.573C24.2222 173.78 24.8227 165.01 24.8227 165.01C24.9694 167.237 27.9928 174.143 27.9928 174.143C28.0626 173.019 32.5593 167.398 32.5593 167.398C31.3234 169.241 31.4073 176.999 31.4073 176.999C32.1753 174.667 36.5324 171.301 36.5324 171.301C35.2616 172.844 34.4725 177.997 34.4725 177.997C35.464 176.231 39.1648 174.227 39.1648 174.227C38.2074 174.967 37.5303 176.011 37.2446 177.188C38.7877 175.184 40.5822 173.2 40.5822 173.2C40.8126 174.129 40.2191 178.612 40.2191 178.612C40.8992 177.52 41.6551 176.477 42.4815 175.491C42.3767 176.671 43.9268 178.696 43.9268 178.696C44.2131 177.299 49.6175 172.816 49.6175 172.816C48.5632 173.948 47.9417 177.453 47.9417 177.453C48.64 176.873 56.3207 174.017 56.3207 174.017C54.0514 174.953 49.9387 178.905 49.9387 178.905C51.0625 178.346 52.2302 177.878 53.4299 177.509C53.6953 176.887 53.8908 176.447 53.8908 176.447C53.8885 176.76 53.8652 177.073 53.821 177.383C54.5192 177.146 55.2174 176.929 55.8668 176.734C56.1601 176.182 56.4045 175.763 56.4045 175.763C56.3285 176.035 56.3002 176.319 56.3207 176.601C57.5077 176.245 58.3736 176.014 58.3736 176.014C57.6696 176.287 56.9899 176.619 56.3417 177.006C56.3417 177.565 56.4394 178.074 56.4394 178.074C57.253 177.232 58.1232 176.445 59.0439 175.721C58.5816 176.352 58.2385 177.062 58.0314 177.816L59.2603 177.537C60.0423 176.957 60.7895 176.496 60.7895 176.496C60.0912 177.132 59.3022 179.387 59.3022 179.387C59.8665 178.827 60.5143 178.358 61.2224 177.997C61.6413 175.854 61.9206 173.361 61.9206 173.361C62.3536 173.864 63.4149 178.947 63.4149 178.947C63.8222 177.843 64.2884 176.761 64.8114 175.707C64.7555 176.943 65.747 179.045 65.747 179.045C65.9076 177.579 69.2383 172.977 69.2383 172.977C68.5959 174.136 68.2607 177.767 68.2607 177.767C68.6727 177.174 73.3789 174.276 73.3789 174.276C71.9824 175.232 69.5106 179.31 69.5106 179.31C70.7674 178.081 74.6427 176.329 74.6427 176.329C73.337 177.132 71.1515 179.82 71.1515 179.82C72.3594 178.884 75.341 177.844 75.341 177.844C74.5187 178.21 73.778 178.737 73.1624 179.394C74.7963 178.347 76.5769 177.299 76.5769 177.299C76.2312 177.927 75.8342 178.525 75.3899 179.087L75.9205 179.219L77.0447 178.521C76.8621 178.802 76.7808 179.137 76.8142 179.471L77.6103 179.687C77.8337 179.548 78.092 179.387 78.3783 179.226C77.8648 178.808 77.2933 178.467 76.6816 178.214C76.6816 178.214 77.7709 178.556 78.8951 178.912C79.5933 178.528 80.3754 178.13 80.9898 177.802C80.9774 177.78 80.9607 177.761 80.9409 177.746L81.0107 177.795C81.7858 177.404 82.3654 177.097 82.3654 177.097C81.9712 177.347 81.6059 177.639 81.2761 177.97C81.5274 178.172 81.8905 178.465 82.2606 178.786C84.0621 178.291 86.1848 177.746 86.1848 177.746C85.0024 178.148 83.8517 178.639 82.7424 179.212C82.875 179.345 83.0077 179.471 83.1194 179.589C83.7618 179.436 84.4182 179.289 84.9978 179.164C85.0235 179.112 85.0446 179.058 85.0606 179.003L85.1583 179.129L86.3244 178.884C86.3755 178.575 86.4696 178.274 86.6037 177.99C86.6037 177.99 87.4835 178.919 88.2097 179.855C88.1941 179.571 88.1095 179.296 87.9635 179.053C87.8175 178.81 87.6144 178.605 87.3717 178.458C87.3717 178.458 89.5154 179.422 89.9204 180.253C89.9204 180.253 90.1159 177.879 89.4944 177.167C89.4944 177.167 91.9104 178.759 92.1059 179.848C92.1059 179.848 93.2091 176.287 92.6366 175.442C92.6366 175.442 94.8989 178.053 94.8011 178.577C94.8011 178.577 97.7617 175.428 98.1457 174.388C98.1457 174.388 97.4475 178.451 96.2395 179.729C97.6754 178.88 99.0413 177.918 100.324 176.852C99.8723 177.836 99.3617 178.792 98.7952 179.715C98.7952 179.715 104.709 175.26 105.638 174.827C105.638 174.827 103.613 177.027 102.07 178.919C102.475 179.296 102.908 179.806 102.88 180.239C102.88 180.239 104.165 178.235 103.955 177.655C104.372 178.119 104.708 178.65 104.947 179.226L105.456 179.352C105.624 179.094 105.826 178.786 106.008 178.479C105.577 178.278 105.134 178.103 104.681 177.956L106.078 178.354C106.376 177.959 106.562 177.491 106.615 176.999C106.87 177.549 107.084 178.116 107.258 178.696L107.684 178.821C108.068 178.5 108.654 178.004 109.08 177.606C108.981 177.527 108.876 177.455 108.766 177.39L109.122 177.572C109.279 177.431 109.418 177.272 109.534 177.097C109.534 177.097 109.457 177.334 109.325 177.683C109.737 177.893 110.323 178.2 110.952 178.549C111.294 178.186 111.594 177.851 111.72 177.774L111.231 178.703C112.355 179.254 113.412 179.934 114.38 180.728C114.498 180.448 114.56 180.148 114.56 179.844C114.56 179.541 114.498 179.24 114.38 178.961C114.38 178.961 116.649 180.462 116.922 180.756C116.209 179.79 115.565 178.775 114.994 177.718C114.994 177.718 116.859 178.849 118.576 180.008C117.941 179.294 117.166 178.717 116.3 178.312C116.3 178.312 119.54 179.499 120.818 180.525C120.818 180.525 118.611 177.592 117.236 176.713C117.236 176.713 121.425 178.668 122.71 180.008C122.71 180.008 120.266 175.616 118.807 174.583C118.807 174.583 123.841 177.788 124.267 178.43C124.267 178.43 124.197 174.548 123.569 173.298C123.569 173.298 126.934 178.298 126.99 179.876C126.99 179.876 128.317 177.648 128.387 176.315C128.889 177.468 129.323 178.65 129.686 179.855C129.686 179.855 131.396 174.346 131.941 173.822C131.941 173.822 132.039 176.524 132.339 178.863C133.16 179.281 133.908 179.831 134.552 180.49C134.359 179.853 134.125 179.228 133.854 178.619C133.603 178.542 133.344 178.458 133.072 178.388L133.826 178.563C133.637 178.097 133.365 177.669 133.023 177.299C133.812 177.793 134.572 178.332 135.299 178.912L136.277 179.164C136.116 178.513 135.906 177.876 135.649 177.257C135.272 177.076 134.915 176.922 134.587 176.796L135.565 177.076C135.467 176.857 135.333 176.656 135.167 176.482C135.167 176.482 135.558 176.796 136.047 177.181C136.682 177.369 137.443 177.599 138.309 177.879C138.391 177.447 138.391 177.004 138.309 176.573C138.309 176.573 138.714 177.271 139.091 178.137L140.564 178.626C140.591 178.523 140.61 178.418 140.62 178.312C140.62 178.312 140.69 178.472 140.781 178.703L141.325 178.891C141.291 178.398 141.291 177.904 141.325 177.411C140.053 176.317 138.645 175.393 137.136 174.66C137.136 174.66 146.353 178.025 147.163 178.689C147.163 178.689 146.702 174.744 145.48 173.459C145.48 173.459 151.925 178.619 152.162 180.232C152.162 180.232 154.355 177.99 154.327 176.636C154.327 176.636 156.826 179.68 156.987 180.274C156.987 180.274 156.631 175.128 156.987 174.066C156.987 174.066 159.166 176.385 161.03 178.745C160.745 177.333 159.93 176.084 158.754 175.253C158.754 175.253 163.509 177.662 164.675 179.75C164.675 179.75 164.095 173.738 162.538 171.93C162.538 171.93 168.124 175.938 168.955 178.689C168.955 178.689 169.828 169.611 168.299 167.419C168.299 167.419 173.996 174.094 173.982 175.428C173.982 175.428 178.954 167.251 179.387 164.577C179.387 164.577 179.387 175.121 177.404 178.395C177.404 178.395 182.99 173.745 184.84 170.945C184.84 170.945 183.332 177.125 182.669 178.326C182.669 178.326 193.561 166.686 195.405 165.534C195.405 165.534 191.83 171.329 189.211 176.252C190.189 177.208 191.264 178.5 191.348 179.61C191.348 179.61 193.387 174.457 192.744 172.963C192.744 172.963 195.914 176.58 195.726 178.912C195.726 178.912 198.693 172.628 198.177 171.231C198.177 171.231 200.495 175.903 200.271 176.817C200.271 176.817 204.028 172.628 204.412 171.441C204.412 171.441 203.567 177.069 202.003 179.24C202.003 179.24 205.557 176.503 206.563 175.1C206.174 176.58 205.708 178.039 205.166 179.471C205.166 179.471 213.252 177.006 213.964 176.217Z" fill="#A0B8C1"/>
<path d="M99.4026 177.571L98.6484 178.193C98.6833 178.409 98.7253 178.626 98.7672 178.8L98.9906 178.709C99.0883 178.367 99.242 177.997 99.4026 177.571Z" fill="#A0B8C1"/>
<path d="M97.9293 178.821C97.9293 178.975 97.8804 179.101 97.8665 179.184C97.8665 179.066 97.9572 178.905 98.0271 178.73L97.9293 178.821Z" fill="#A0B8C1"/>
<path d="M100.904 179.184C101.27 178.617 101.706 178.098 102.203 177.641C101.86 177.781 101.504 177.934 101.225 178.095C101.023 178.695 100.904 179.184 100.904 179.184Z" fill="#A0B8C1"/>
<path d="M121.439 179.471C121.516 179.624 121.6 179.82 121.684 180.008L122.061 179.918C122.11 179.659 122.172 179.373 122.235 179.101C121.97 179.205 121.719 179.331 121.439 179.471Z" fill="#A0B8C1"/>
<path d="M120.043 180.218C120.077 180.284 120.103 180.354 120.12 180.427L120.511 180.316C120.706 180.115 120.885 179.901 121.048 179.673C120.699 179.855 120.35 180.043 120.043 180.218Z" fill="#A0B8C1"/>
<path d="M117.578 179.478L117.732 179.555C117.934 179.464 118.213 179.352 118.542 179.226C118.573 178.89 118.573 178.551 118.542 178.214C118.123 178.696 117.78 179.191 117.578 179.478Z" fill="#A0B8C1"/>
<path d="M115.155 180.015C115.155 180.239 115.155 180.392 115.155 180.392C115.204 180.319 115.26 180.251 115.323 180.19L115.155 180.015Z" fill="#A0B8C1"/>
<path d="M114.122 179.254C113.961 179.533 113.8 179.785 113.682 179.952H113.794C113.975 179.785 114.198 179.589 114.429 179.394L114.122 179.254Z" fill="#A0B8C1"/>
<path d="M113.451 180.336C113.5 180.28 113.605 180.183 113.738 180.057L113.654 180.015C113.535 180.218 113.451 180.336 113.451 180.336Z" fill="#A0B8C1"/>
<path d="M121.914 180.692C121.914 180.692 121.97 180.385 122.047 179.994C121.937 180.029 121.83 180.071 121.726 180.12C121.812 180.302 121.876 180.494 121.914 180.692Z" fill="#A0B8C1"/>
<path d="M139.475 179.743C139.587 179.582 139.719 179.401 139.852 179.226L139.685 178.912L139.349 179.687L139.475 179.743Z" fill="#A0B8C1"/>
<path d="M138.518 179.31L138.944 179.498C139.19 179.291 139.423 179.07 139.643 178.835C139.473 178.523 139.286 178.22 139.084 177.927C138.937 178.325 138.728 178.835 138.518 179.31Z" fill="#A0B8C1"/>
<path d="M138.03 180.246L138.386 179.966L138.246 179.848C138.183 179.985 138.111 180.118 138.03 180.246Z" fill="#A0B8C1"/>
<path d="M135.83 179.562C135.869 179.774 135.869 179.992 135.83 180.204C135.83 180.204 135.949 180.008 136.116 179.708C136.025 179.653 135.929 179.604 135.83 179.562Z" fill="#A0B8C1"/>
<path d="M139.565 180.978L139.475 180.895L139.565 180.978Z" fill="#A0B8C1"/>
<path d="M140.306 180.183C140.306 180.183 140.208 179.959 140.055 179.645C140.006 179.743 139.964 179.848 139.908 179.952C140.047 180.018 140.18 180.095 140.306 180.183Z" fill="#A0B8C1"/>
<path d="M202.932 73.7837C206.885 73.7837 210.089 71.6016 210.089 68.9099C210.089 66.2182 206.885 64.0361 202.932 64.0361C198.979 64.0361 195.775 66.2182 195.775 68.9099C195.775 71.6016 198.979 73.7837 202.932 73.7837Z" fill="#A0B8C1"/>
<path d="M191.795 61.5503C194.434 72.5128 199.175 73.0574 199.175 73.0574L201.64 64.1897L191.795 61.5503Z" fill="#A0B8C1"/>
<path opacity="0.8" d="M207.854 72.45C211.932 69.3637 211.932 60.5309 211.932 60.5309L206.912 59.3159L200.362 64.7972L207.854 72.45Z" fill="#A0B8C1"/>
<path d="M209.677 63.9873C211.47 63.9873 212.924 62.6024 212.924 60.894C212.924 59.1857 211.47 57.8008 209.677 57.8008C207.884 57.8008 206.43 59.1857 206.43 60.894C206.43 62.6024 207.884 63.9873 209.677 63.9873Z" fill="#A0B8C1"/>
<path d="M211.813 59.5186L214.858 60.8382L212.379 62.3604L211.813 59.5186Z" fill="#A0B8C1"/>
<path d="M205.215 73.023L203.993 76.8773L202.778 72.8135L205.215 73.023Z" fill="#A0B8C1"/>
<path opacity="0.8" d="M217.951 78.8463C217.441 77.1216 203.099 76.2837 195.97 76.3954C192.479 76.3465 189.805 76.4583 189.379 76.7376C188.101 77.5755 180.741 127.675 179.897 134.071H159.298L159.34 138.546H159.277L160.541 183.709H162.077L163.118 150.975H178.751L179.666 183.709H181.209L182.25 150.975H184.959L185.874 183.709H187.417L188.457 150.975H202.422V150.13L203.274 183.709H204.81L206.207 136.075C207.526 130.223 218.566 80.941 217.951 78.8463ZM163.167 148.671L163.432 140.201H178.423L178.661 148.671H163.167ZM182.292 148.671L182.564 140.201H184.659L184.896 148.671H182.292ZM188.499 148.671L188.771 140.201H202.171L202.38 148.671H188.499Z" fill="#A0B8C1"/>
<path d="M177.753 76.3675C175.092 75.7691 172.325 75.8218 169.688 76.5211C169.006 76.7038 168.409 77.1208 168.003 77.6991C167.597 78.2774 167.408 78.9801 167.468 79.6842L167.593 81.4228C167.684 82.7006 167.314 86.7085 168.892 85.9754C170.68 85.1444 174.562 84.9489 176.021 84.4881C179.841 83.2871 179.226 76.7096 177.753 76.3675Z" fill="#E79B69"/>
<path d="M174.995 81.5555C173.333 81.3251 173.005 81.9116 172.9 82.7006C172.795 83.4896 172.984 84.167 174.618 84.4253C176.252 84.6837 177.767 84.2717 177.886 83.4687C178.004 82.6657 176.699 81.7929 174.995 81.5555Z" fill="#EDB984"/>
<path d="M175.623 78.3294C173.822 78.1339 173.473 78.7413 173.382 79.5443C173.291 80.3473 173.487 81.0386 175.253 81.269C177.02 81.4994 178.668 81.0386 178.786 80.2146C178.905 79.3907 177.467 78.5319 175.623 78.3294Z" fill="#EDB984"/>
<path d="M168.459 74.0141C167.063 73.7278 165.492 75.6899 165.017 78.3013C164.556 80.8081 163.299 83.5591 164.577 83.8873C165.855 84.2155 169.465 81.9951 170.002 79.4395C170.596 76.7861 169.912 74.3074 168.459 74.0141Z" fill="#EDB984"/>
<path opacity="0.8" d="M38.1384 104.039C38.3593 103.836 38.6249 103.688 38.9136 103.607C39.2022 103.526 39.5059 103.513 39.8002 103.571C40.3954 103.665 41.0046 103.602 41.5686 103.391C42.1327 103.179 42.6325 102.825 43.0192 102.363C43.5138 102.372 43.9998 102.233 44.4157 101.965C45.89 100.996 47.314 99.9515 48.682 98.837L49.0311 98.5507C42.67 127.933 39.2067 165.066 35.6177 178.521C35.3636 178.592 35.1262 178.713 34.9194 178.877C32.6222 180.574 25.6048 177.083 25.6048 177.083C25.6048 177.083 28.4747 183.506 35.0801 183.311C36.4277 182.285 36.9235 180.05 36.4766 179.031C41.2037 172.397 54.0305 153.936 64.0853 134.992C72.1291 158.656 82.7285 174.045 85.6053 177.976C84.7604 180.539 79.3211 182.578 79.3211 182.578C79.3211 182.578 85.4866 185.238 88.9708 180.483C88.9708 178.388 86.9878 175.903 86.115 176.294C85.4656 168.613 83.713 145.382 83.699 121.516C87.3299 121.802 92.9229 121.823 97.9852 121.691L99.7029 121.642H100.513H100.548L102.119 121.579H102.21H102.908L103.606 121.544H103.662L104.276 121.509H104.388L105.017 121.467L105.624 121.425H105.722L106.204 121.39H106.308L107.3 121.3H107.412L107.768 121.258H107.844L108.228 121.209H108.284L108.564 121.167H108.647L108.885 121.125H108.927L109.15 121.076H109.199L109.332 121.034H109.374C109.411 121.025 109.447 121.008 109.478 120.985C109.716 120.839 109.813 119.638 109.807 117.752C109.807 117.403 109.807 117.054 109.807 116.642C109.807 115.693 109.751 114.617 109.695 113.451V113.381C109.695 112.935 109.653 112.467 109.625 111.985V111.901C109.513 109.674 109.353 107.202 109.171 104.66V104.542C108.473 94.5567 107.426 83.7199 107.426 83.7199L103.166 83.9643V83.5313C102.95 80.7384 102.712 77.7708 102.468 74.7404C102.531 74.5798 102.587 74.4192 102.642 74.2517L102.747 73.9584C102.88 73.5743 102.999 73.1833 103.11 72.7783V72.6876C103.215 72.3175 103.306 71.9335 103.39 71.5494C103.39 71.4377 103.439 71.326 103.466 71.2143C103.55 70.8023 103.627 70.3973 103.697 69.9854V69.8038C103.753 69.4407 103.802 69.0706 103.851 68.6936L103.892 68.2956C103.934 67.8836 103.969 67.4716 103.997 67.0527C103.997 66.9549 103.997 66.8572 103.997 66.7594C103.997 66.4173 103.997 66.0612 103.997 65.733C103.997 65.5724 103.997 65.4118 103.997 65.2582C103.997 64.8672 103.997 64.4762 103.997 64.0851V63.6034L103.955 62.7096L103.913 62.1371C103.913 61.8089 103.857 61.4737 103.823 61.1455C103.788 60.8174 103.774 60.6428 103.739 60.3914C103.704 60.1401 103.676 59.9026 103.641 59.6583C103.606 59.4139 103.578 59.2114 103.543 58.96C103.508 58.7086 103.46 58.4573 103.418 58.2059C103.376 57.9545 103.285 57.5077 103.215 57.1585C103.215 56.97 103.138 56.7815 103.096 56.586L102.929 55.8388L102.803 55.3431C102.691 54.9055 102.573 54.4656 102.447 54.0234L102.321 53.5905L102.07 52.7875L101.986 52.5431C101.819 52.0264 101.637 51.5237 101.449 51.0209C101.407 50.9022 101.365 50.7905 101.316 50.6718C101.211 50.3995 101.106 50.1272 100.995 49.8618L100.96 49.785C100.736 49.2404 100.499 48.7097 100.262 48.1791L100.115 47.8719C99.9892 47.6135 99.8565 47.3551 99.7239 47.1038C98.7603 45.2045 97.5894 43.4177 96.2326 41.7761C95.4615 39.9167 94.3186 38.2344 92.874 36.8325C92.295 36.2802 91.6111 35.8498 90.8626 35.5667C90.1142 35.2836 89.3165 35.1537 88.5169 35.1847H88.4471C87.9518 35.1888 87.4572 35.2261 86.9669 35.2964C86.3092 35.0782 85.6373 34.9056 84.9559 34.7797L84.2577 33.0411L84.502 27.9229C86.115 28.3419 86.0382 27.0361 85.8077 26.1284C89.5783 27.3713 92.3434 27.3643 93.1185 25.8212C93.2727 25.4993 93.3446 25.1443 93.3279 24.7878C93.6142 22.8885 93.5164 18.5035 89.299 13.3854C89.8925 11.2906 90.5419 8.58842 90.2835 7.53407C90.1648 7.03133 89.1943 6.57048 88.0212 6.0049L87.4277 5.71862C87.3792 5.6996 87.3324 5.67624 87.288 5.64881C87.0786 5.55106 86.8761 5.44631 86.6736 5.33459L86.534 5.26476C86.3315 5.15304 86.122 5.04132 85.9195 4.91564C85.8869 4.90117 85.8563 4.88239 85.8287 4.85979C85.6123 4.72712 85.4028 4.59444 85.2003 4.45479C84.9978 4.31514 85.0048 4.2942 84.9071 4.21739C84.547 3.93305 84.202 3.63007 83.8736 3.30968L83.8178 3.26778C83.3988 2.84883 83.0078 2.42987 82.6238 2.03187C82.1813 1.55868 81.695 1.1285 81.1714 0.747097C81.0527 0.663307 80.9409 0.572531 80.8222 0.502706C80.6021 0.368349 80.3679 0.25831 80.124 0.174529C79.4257 -0.0908054 76.9749 1.57103 74.7964 3.28174C68.0862 0.921662 63.4708 2.48573 61.8579 3.7356C61.5369 3.907 61.2761 4.17261 61.1107 4.49668C60.0773 6.55652 62.9611 10.8438 67.9186 15.2637L68.0234 16.2063C68.0653 16.5345 68.2538 16.7509 68.4563 16.6951H68.5261C68.625 17.1418 68.7701 17.5771 68.959 17.9938C68.8124 21.115 68.8892 24.4177 69.0079 27.071C68.759 29.4027 68.7402 31.7531 68.952 34.0884C68.952 34.0884 69.1057 33.3413 69.3501 32.3079C69.3501 32.4406 69.3501 32.5174 69.3501 32.5174C70.7018 32.5949 72.0571 32.5809 73.4069 32.4755L72.8971 35.9667L72.7505 36.0156L72.5969 36.0645C72.1431 36.2181 71.6962 36.3927 71.2005 36.5672L70.8862 36.6999C70.4253 36.8814 69.9575 37.0769 69.4897 37.2934C69.3335 37.3628 69.1819 37.4421 69.0358 37.5308C68.966 37.5657 68.8962 37.6146 68.8264 37.6565L68.6099 37.7892L68.3027 38.0056L68.2399 38.0545C67.9955 38.243 67.7441 38.4455 67.5416 38.6689C66.9292 39.2544 66.3663 39.8896 65.8588 40.5682C56.4674 51.5167 50.1762 66.0822 47.6136 72.8342C47.2598 73.1819 46.9524 73.5739 46.6989 74.0003C46.3269 74.6471 46.0784 75.3574 45.9658 76.095C42.8217 81.4907 40.0095 87.0731 37.5449 92.8111C36.5264 93.0358 35.582 93.5165 34.8008 94.2076C32.2103 95.3667 29.6058 97.3846 29.7664 99.8773C29.8344 100.362 30.0162 100.824 30.297 101.225C30.4445 102.406 30.9656 103.51 31.7843 104.374C32.1371 104.763 32.5845 105.054 33.083 105.219C29.8432 122.424 20.7031 179.163 20.7031 179.163L21.4433 178.975C21.4433 178.975 32.2591 124.686 35.6456 106.972L35.7644 107.048C36.3283 107.338 36.969 107.443 37.5957 107.347C38.2225 107.252 38.8033 106.962 39.2556 106.518C39.6327 106.078 39.7513 104.165 38.1384 104.039ZM91.4426 37.3911C91.2821 37.2934 91.1284 37.2026 90.9678 37.1188L90.7514 37.0071L90.3743 36.8116C90.7526 36.9607 91.1114 37.1553 91.4426 37.3911ZM101.763 83.8805L89.1943 84.6136C89.299 83.8386 89.3968 83.0426 89.5085 82.2326V82.1837V81.9952C91.0905 81.8006 92.6579 81.5021 94.2007 81.1015C95.8602 81.3907 97.5684 81.0787 99.0186 80.2217C99.925 79.6451 100.613 78.7826 100.974 77.7708V77.715L101.03 77.6312L101.218 77.303C101.393 79.3977 101.56 81.4925 101.707 83.4266L101.763 83.8805Z" fill="#A0B8C1"/>
<path d="M170.568 86.5478L164.64 77.0796L159.843 80.9688L165.771 90.4301L170.568 86.5478Z" fill="#E8DABF"/>
<path d="M142.219 43.1515C141.947 42.2927 131.152 41.6643 119.819 45.8049C108.487 49.9455 100.743 56.6906 101.016 57.5494C101.288 58.4082 111.72 58.9459 123.052 54.7564C134.385 50.5669 142.498 44.0104 142.219 43.1515Z" fill="#D8D4CE"/>
<path d="M175.672 108.955H180.707V183.688H178.654L175.672 108.955Z" fill="#EFE2CB"/>
<path d="M217.602 108.955H222.636V183.688H220.584L217.602 108.955Z" fill="#E8D6BA"/>
<path d="M146.974 108.955H141.94V183.688H143.993L146.974 108.955Z" fill="#D8C1A3"/>
<path d="M133.784 68.2539C141.723 78.2039 151.611 98.4112 152.358 101.267C153.105 104.123 140.606 108.25 137.499 105.163C134.392 102.077 131.306 91.9455 131.306 91.9455C129.811 80.9411 130.237 73.777 133.784 68.2539Z" fill="#EFC967"/>
<path d="M152.358 101.267C151.952 100.052 151.466 98.8646 150.905 97.7128C150.698 98.2334 150.305 98.6587 149.802 98.9068C146.89 100.219 142.855 94.0191 138.63 84.6765C137.527 82.2326 138.525 75.9763 137.869 73.7489C137.024 70.8791 134.936 67.5205 132.884 69.7829C129.895 75.2711 128.296 83.0845 129.665 93.1113C129.665 93.1113 134.385 102.063 137.492 105.163C140.599 108.263 153.105 104.13 152.358 101.267Z" fill="#E9A82A"/>
<path d="M127.807 138.525H123.771L125.908 183.688H127.381L127.807 138.525Z" fill="#D6C9A5"/>
<path d="M105.198 138.525H101.155L103.299 183.688H104.765L105.198 138.525Z" fill="#D6C9A5"/>
<path d="M127.891 134.057H86.0032V140.208H127.891V134.057Z" fill="#EFE2CB"/>
<path d="M100.024 77.2543C98.6275 76.3885 74.5589 77.1356 73.9375 79.349C73.3161 81.5625 86.2336 137.499 86.2336 137.499L110.672 135.139C110.337 132.283 101.393 78.1481 100.024 77.2543Z" fill="#EFE2CB"/>
<path d="M110.288 138.525H106.252L108.389 183.688H109.862L110.288 138.525Z" fill="#EFE2CB"/>
<path d="M90.039 138.525H86.0032L88.1398 183.688H89.6131L90.039 138.525Z" fill="#EFE2CB"/>
<path d="M73.9374 79.37C73.6861 80.2568 75.5853 89.6412 77.9523 100.618C78.6667 100.795 79.4112 100.816 80.1344 100.679C80.8576 100.541 81.5424 100.249 82.1418 99.8217C87.0924 96.7214 91.2191 86.9739 92.1128 76.9331C84.5508 77.1007 74.3354 77.9246 73.9374 79.37Z" fill="#F4EADC"/>
<path d="M158.621 180.518C158.398 181.516 157.818 181.649 157.636 181.216C145.71 151.562 134.392 134.266 134.392 134.266L117.25 132.835C117.25 132.835 89.7249 121.984 94.3264 116.81C101.784 108.431 150.982 122.584 150.982 122.584L158.621 180.518Z" fill="#6D5041"/>
<path d="M137.876 129.19C137.172 125.895 137.207 122.484 137.981 119.205C129.602 118.004 124.714 111.636 119.128 110.679C107 108.585 97.7548 112.963 94.3613 116.782C89.7598 121.956 117.285 132.807 117.285 132.807L134.427 134.238C134.427 134.238 145.745 151.534 157.671 181.188C157.853 181.649 158.433 181.517 158.656 180.49L156.058 160.786C150.458 158.286 140.208 141.975 137.876 129.19Z" fill="#5E4135"/>
<path d="M127.346 181.621C115.232 151.059 109.367 135.537 109.367 135.537L90.9747 132.828C90.9747 132.828 86.7014 121.027 91.3028 115.853C98.7531 107.474 126.152 122.137 126.152 122.137L127.346 181.621Z" fill="#6D5041"/>
<path d="M116.628 142.819C114.603 131.145 115.567 121.013 118.723 118.604C110.051 114.883 96.2744 110.225 91.3169 115.811C86.7154 120.985 90.9887 132.786 90.9887 132.786L109.381 135.495C109.381 135.495 115.246 151.038 127.36 181.579L127.025 164.94C123.178 164.158 118.702 154.773 116.628 142.819Z" fill="#5E4135"/>
<path d="M106.811 144.363C110.91 134.922 115.756 117.34 115.756 117.34L118.381 116.88L118.283 110.728L123.213 116.035L135.425 118.611C135.425 118.611 126.194 116.691 130.105 94.4169C131.208 88.1327 135.509 70.9977 134.888 69.6361C134.266 68.2745 124.581 58.5759 114.638 58.8831C111.776 58.9669 85.4446 91.7008 86.7085 123.904C86.9319 137.345 106.811 144.363 106.811 144.363Z" fill="#F3C766"/>
<path d="M127.507 95.9114C127.507 106.657 127.912 114.359 133.791 118.255L135.404 118.597C135.404 118.597 126.711 116.461 130.621 94.1588C131.683 88.1259 135.977 72.967 135.711 70.5859C132.171 73.8537 127.507 84.495 127.507 95.9114Z" fill="#E9A82A"/>
<path d="M112.285 103.648C112.285 92.5807 103.327 69.2034 114.603 58.8833C111.741 58.9671 85.4096 91.701 86.6734 123.904C86.9527 137.345 106.832 144.363 106.832 144.363C110.7 137.276 114.722 123.052 115.909 117.32C117.264 117.243 118.618 117.208 118.395 116.88C118.479 110.135 119.798 104.681 112.285 103.648Z" fill="#F4B428"/>
<path d="M114.603 58.8832C113.863 58.8832 111.559 61.1106 108.571 64.916C108.494 65.7888 108.452 66.6756 108.452 67.5764C108.452 76.9329 106.93 65.1953 112.851 69.0985C116.188 81.4994 132.911 81.4715 133.372 81.5832C134.643 75.7878 135.23 70.3763 134.888 69.6362C134.266 68.2676 124.581 58.5969 114.603 58.8832Z" fill="#E9A82A"/>
<path d="M95.5901 114.799C91.7009 112.173 87.0227 112.858 86.6177 122.41C86.6177 122.905 86.6177 123.408 86.6526 123.904C86.9319 137.345 106.811 144.362 106.811 144.362C107.321 143.196 107.837 141.905 108.354 140.536C108.871 136.842 102.105 119.198 95.5901 114.799Z" fill="#EFC967"/>
<path d="M105.037 108.955H100.01V183.688H102.056L105.037 108.955Z" fill="#EFE2CB"/>
<path d="M109.045 64.3154C105.442 64.9578 98.4879 76.3392 97.8734 81.5691C97.259 86.799 97.5941 94.1375 105.882 104.918L122.2 96.344C121.844 92.7411 112.648 63.666 109.045 64.3154Z" fill="#F4B428"/>
<path d="M109.457 86.2824C107.46 78.1758 108.99 70.7534 112.851 69.0986C111.371 66.0821 110.009 64.141 109.045 64.3156C105.442 64.958 98.4879 76.3394 97.8734 81.5693C97.259 86.7991 97.5941 94.1377 105.882 104.919L117.117 99.0115C113.961 97.0773 110.938 92.3013 109.457 86.2824Z" fill="#E9A82A"/>
<path d="M137.527 97.0496C135.628 100.164 139.44 108.222 148.273 105.519C151.296 104.605 169.856 90.116 169.856 90.116L161.072 78.8882C161.072 78.8882 139.775 93.3629 137.527 97.0496Z" fill="#EFC967"/>
<path d="M154.285 96.3023C148.399 98.0828 143.308 94.1237 141.514 91.0724C139.107 92.9796 137.065 95.3075 135.488 97.9431C133.596 101.057 139.349 108.906 148.182 106.231C151.199 105.317 169.828 90.1088 169.828 90.1088L167.384 86.9946C162.07 91.1771 155.912 95.8135 154.285 96.3023Z" fill="#E9A82A"/>
<path d="M228.879 106.35H97.1194V112.683H228.879V106.35Z" fill="#EFE2CB"/>
<path d="M241.37 49.792C241.37 49.1015 241.166 48.4265 240.782 47.8524C240.398 47.2783 239.853 46.8308 239.215 46.5665C238.577 46.3023 237.875 46.2332 237.198 46.3679C236.521 46.5026 235.899 46.8351 235.41 47.3233C234.922 47.8116 234.59 48.4337 234.455 49.1109C234.32 49.7881 234.389 50.4901 234.654 51.128C234.918 51.766 235.365 52.3113 235.939 52.6949C236.514 53.0785 237.189 53.2833 237.879 53.2833C238.805 53.2833 239.693 52.9154 240.348 52.2607C241.002 51.606 241.37 50.718 241.37 49.792Z" fill="#DDD1AF"/>
<path d="M217.658 109.485C219.582 109.485 221.142 107.925 221.142 106.001C221.142 104.077 219.582 102.517 217.658 102.517C215.734 102.517 214.174 104.077 214.174 106.001C214.174 107.925 215.734 109.485 217.658 109.485Z" fill="#DDD1AF"/>
<path d="M218.761 107.663L216.792 106.958L237.244 49.9736L196.417 12.331L187.982 16.0108L187.144 14.0906L196.836 9.86621L239.681 49.38L218.761 107.663Z" fill="#DDD1AF"/>
<path d="M239.492 49.7922C239.492 49.4732 239.397 49.1613 239.22 48.896C239.043 48.6308 238.791 48.4241 238.496 48.302C238.202 48.1799 237.877 48.148 237.564 48.2102C237.252 48.2724 236.964 48.4261 236.739 48.6516C236.513 48.8772 236.359 49.1646 236.297 49.4775C236.235 49.7904 236.267 50.1147 236.389 50.4094C236.511 50.7041 236.718 50.9561 236.983 51.1333C237.248 51.3105 237.56 51.4051 237.879 51.4051C238.091 51.4061 238.301 51.365 238.497 51.2842C238.694 51.2035 238.872 51.0847 239.022 50.9348C239.172 50.7848 239.29 50.6066 239.371 50.4105C239.452 50.2144 239.493 50.0042 239.492 49.7922Z" fill="#6D5E63"/>
<path d="M196.655 14.405C198.579 14.405 200.139 12.8451 200.139 10.9208C200.139 8.99648 198.579 7.43652 196.655 7.43652C194.73 7.43652 193.17 8.99648 193.17 10.9208C193.17 12.8451 194.73 14.405 196.655 14.405Z" fill="#DDD1AF"/>
<path d="M196.047 9.87305L170.428 12.3169C179.345 15.4102 188.394 18.1054 197.967 19.2994L198.665 14.2441L196.047 9.87305Z" fill="#DDD1AF"/>
<path d="M198.274 10.9204C198.279 10.5996 198.187 10.2849 198.011 10.0165C197.836 9.74806 197.584 9.53808 197.288 9.41341C196.993 9.28875 196.667 9.25504 196.352 9.31661C196.037 9.37817 195.748 9.53221 195.521 9.75904C195.294 9.98587 195.14 10.2752 195.079 10.59C195.017 10.9048 195.051 11.2309 195.175 11.5264C195.3 11.822 195.51 12.0737 195.778 12.2493C196.047 12.4249 196.362 12.5165 196.682 12.5124C197.102 12.5052 197.503 12.3352 197.8 12.0382C198.097 11.7412 198.267 11.3404 198.274 10.9204Z" fill="#6D5E63"/>
<path d="M191.159 16.5556C186.069 15.5747 181.121 13.9584 176.433 11.7446L170.421 12.3172C179.338 15.4104 188.387 18.1057 197.96 19.2997L198.184 17.7007C195.984 17.4353 193.596 17.0653 191.159 16.5556Z" fill="#EAE1C3"/>
<path d="M228.879 106.35H178.479V112.683H228.879V106.35Z" fill="#E8D6BA"/>
<path d="M141.674 66.9757C141.438 66.9227 141.191 66.9549 140.976 67.0665C141.151 66.6754 141.241 66.2519 141.242 65.8236C138.12 65.4326 135.516 63.0306 134.133 60.2376C132.751 57.4447 132.409 54.1978 132.36 51.0557C132.36 48.9959 132.395 46.8662 131.606 44.953C131.08 43.8136 130.314 42.8013 129.361 41.9854C128.408 41.1695 127.289 40.5693 126.083 40.2259C123.658 39.5614 121.102 39.5421 118.667 40.17C117.306 40.3818 116.043 41.0084 115.05 41.9645C113.654 43.5076 113.696 45.8188 113.807 47.8926L113.347 46.7475C112.565 50.0991 113.507 53.2482 113.898 56.6626C114.2 60.0568 115.015 63.3856 116.314 66.5358C117.63 69.6967 119.856 72.3947 122.71 74.2864C122.957 74.4595 123.242 74.5698 123.541 74.6076C123.483 74.3204 123.518 74.0224 123.639 73.7557C126.934 75.2745 130.591 75.8335 134.189 75.3687C134.189 75.1382 134.147 74.9148 134.133 74.6704C135.391 74.7405 136.643 74.449 137.741 73.8303C138.838 73.2116 139.736 72.2917 140.327 71.1792L139.182 71.3258C140.394 70.1304 141.256 68.6261 141.674 66.9757Z" fill="#704247"/>
<path d="M132.353 51.0698C132.353 49.01 132.388 46.8804 131.599 44.9672C131.073 43.8278 130.308 42.8155 129.354 41.9996C128.401 41.1837 127.283 40.5835 126.076 40.24C123.651 39.5755 121.095 39.5563 118.66 40.1842C117.299 40.3959 116.036 41.0226 115.043 41.9787C113.647 43.5218 113.689 45.833 113.801 47.9068L113.34 46.7616C112.558 50.1132 113.5 53.2623 113.891 56.6768C114.117 58.878 114.523 61.0569 115.106 63.1914C116.649 56.6907 123.806 51.6145 132.353 51.0698Z" fill="#5B343A"/>
<path d="M121.369 49.1287C120.113 51.3841 120.671 57.766 121.558 58.2059C122.445 58.6458 127.109 56.6977 127.954 56.5092C128.799 56.3207 131.62 57.4937 131.857 57.2074C132.095 56.9212 130.628 48.2629 130.293 47.6554C129.958 47.0479 121.607 48.7028 121.369 49.1287Z" fill="#EDB984"/>
<path d="M115.19 56.1253L114.359 46.2451C111.315 48.0606 109.339 50.9653 109.101 53.9817C109.454 53.6498 109.883 53.4099 110.351 53.2835C110.121 54.4011 109.988 55.5365 109.953 56.6769L110.847 55.7343C110.864 56.6384 111.034 57.5331 111.35 58.3807L112.299 57.445C112.796 58.3761 113.484 59.1921 114.317 59.84C114.317 59.6864 114.38 59.5398 114.408 59.3861L115.427 60.1682C115.351 58.8275 115.274 57.4799 115.19 56.1253Z" fill="#5B343A"/>
<path d="M124.225 32.5451C122.131 31.9446 111.07 34.5281 109.136 36.8603C107.202 39.1924 109.52 48.9469 109.974 51.8307L131.669 43.7869C131.669 43.7869 126.292 33.1526 124.225 32.5451Z" fill="#F8F1E4"/>
<path d="M115.316 42.0276C114.027 39.7453 113.43 37.1372 113.598 34.5215C111.503 35.2197 109.8 36.0646 109.136 36.8606C107.202 39.1928 109.52 48.9473 109.974 51.8311L121.146 47.6974C118.66 46.4598 116.622 44.4779 115.316 42.0276Z" fill="#D8D4CE"/>
<path d="M108.983 46.3359C109.36 48.6402 109.799 50.7349 109.974 51.8311L131.669 43.7873C131.669 43.7873 130.803 42.0627 129.623 39.9609C126.506 40.1662 123.417 40.688 120.406 41.518C116.389 42.5753 112.543 44.1974 108.983 46.3359Z" fill="#6D6BE6"/>
<path d="M120.406 48.514C127.46 45.9755 134.751 44.1532 142.17 43.0746C141.298 42.3275 129.686 40.1001 118.716 44.108C108.619 47.7948 102.552 55.4755 101.26 57.1024C107.399 53.726 113.802 50.8538 120.406 48.514Z" fill="#F8F1E4"/>
<path d="M155.828 183.688H168.096C168.096 183.688 159.438 178.333 157.623 178.186C155.807 178.039 155.828 183.688 155.828 183.688Z" fill="#8784E5"/>
<path d="M126.034 183.688H138.302C138.302 183.688 129.644 178.333 127.828 178.186C126.013 178.039 126.034 183.688 126.034 183.688Z" fill="#8784E5"/>
<path d="M128.045 51.705C129.043 51.4967 130.056 51.3637 131.075 51.307C130.897 50.0689 130.636 48.8442 130.293 47.6412C129.965 47.0267 121.607 48.7025 121.369 49.1285C120.671 50.3783 120.532 52.885 120.671 54.9449C122.859 53.3332 125.378 52.2267 128.045 51.705Z" fill="#E79B69"/>
<path d="M127.367 49.8338L123.674 50.0013C123.458 50.0092 123.253 50.0961 123.097 50.2454C122.941 50.3948 122.846 50.5962 122.829 50.8113V51.6492C122.828 51.7484 122.849 51.8466 122.889 51.9373C122.929 52.028 122.988 52.109 123.062 52.1751C123.136 52.2412 123.223 52.2907 123.318 52.3204C123.413 52.3501 123.512 52.3593 123.611 52.3474L127.284 52.1938C127.5 52.188 127.707 52.1031 127.865 51.9551C128.024 51.8072 128.122 51.6065 128.143 51.3908L128.191 50.546C128.195 50.4415 128.176 50.3375 128.134 50.2417C128.092 50.1459 128.029 50.0606 127.95 49.9923C127.871 49.9239 127.778 49.8742 127.677 49.8467C127.576 49.8193 127.47 49.8149 127.367 49.8338Z" fill="#5B343A"/>
<path d="M133.037 49.6382H129.958C129.865 49.6452 129.775 49.6705 129.693 49.7128C129.61 49.755 129.537 49.8132 129.477 49.884C129.417 49.9549 129.372 50.037 129.345 50.1254C129.317 50.2139 129.307 50.307 129.316 50.3993L129.364 51.2232C129.369 51.4125 129.442 51.5937 129.571 51.7326C129.699 51.8716 129.874 51.9586 130.063 51.9773H133.142C133.234 51.9703 133.323 51.9451 133.405 51.9034C133.487 51.8616 133.56 51.804 133.62 51.7339C133.68 51.6638 133.725 51.5826 133.753 51.495C133.781 51.4073 133.792 51.315 133.784 51.2232V50.3993C133.783 50.2004 133.704 50.0099 133.564 49.8679C133.425 49.726 133.236 49.6436 133.037 49.6382Z" fill="#5B343A"/>
<path d="M133.638 52.145L129.316 52.3405L129.385 56.4951C129.385 56.7349 129.433 56.9723 129.527 57.1933C129.62 57.4143 129.756 57.6143 129.928 57.7816C130.1 57.9489 130.304 58.08 130.527 58.1673C130.75 58.2545 130.989 58.2961 131.229 58.2896H131.864C132.359 58.2625 132.823 58.0441 133.159 57.6804C133.496 57.3168 133.677 56.8366 133.666 56.3415L133.638 52.145Z" fill="#FAF0DB"/>
<path d="M115.309 53.074L115.085 54.1213L133.575 53.1857L133.568 52.1313L115.309 53.074Z" fill="#FAF0DB"/>
<path d="M133.247 53.0107L130.119 53.1504L130.167 56.1529C130.165 56.3269 130.199 56.4996 130.265 56.6604C130.332 56.8212 130.431 56.9667 130.556 57.0882C130.68 57.2096 130.829 57.3045 130.991 57.367C131.154 57.4294 131.327 57.4582 131.501 57.4516H131.962C132.316 57.4285 132.649 57.2713 132.891 57.0118C133.134 56.7524 133.268 56.4103 133.268 56.0551L133.247 53.0107Z" fill="#EDB984"/>
<path d="M129.42 54.4702C129.298 54.5338 129.179 54.6037 129.064 54.6797C130.098 56.4183 131.271 59.0577 128.045 57.0188C128.058 57.0802 128.074 57.1408 128.094 57.2004C133.575 61.1525 130.307 55.6852 129.42 54.4702Z" fill="#D27558"/>
<path d="M128.806 53.8906C128.773 53.9575 128.721 54.0128 128.656 54.049C128.591 54.0852 128.517 54.1006 128.443 54.0931C127.514 53.9255 128.08 55.9644 127.423 56.4322C127.374 56.4741 127.423 56.551 127.472 56.6208C132.96 60.5729 129.686 55.1056 128.806 53.8906Z" fill="#EDB984"/>
<path d="M128.82 60.4191C129.35 60.4661 129.865 60.618 130.335 60.866C130.095 60.5707 129.796 60.3288 129.457 60.1556C129.117 59.9825 128.746 59.882 128.366 59.8605C127.712 59.7859 127.05 59.8854 126.446 60.149C125.843 60.4126 125.32 60.831 124.931 61.3618C126.063 60.5718 127.451 60.2354 128.82 60.4191Z" fill="#2D171A"/>
<path d="M128.087 52.6548L122.989 52.8992L123.122 57.0887C123.117 57.3151 123.156 57.5403 123.238 57.7514C123.32 57.9624 123.444 58.155 123.601 58.318C123.758 58.4811 123.946 58.6113 124.154 58.7011C124.362 58.7909 124.585 58.8386 124.812 58.8413L126.571 58.7644C127.032 58.7167 127.456 58.492 127.754 58.1377C128.053 57.7835 128.202 57.3273 128.17 56.8652L128.087 52.6548Z" fill="#FAF0DB"/>
<path d="M127.298 53.3462L123.806 53.4998L123.897 56.4883C123.911 56.6726 123.962 56.8522 124.046 57.0167C124.13 57.1813 124.245 57.3276 124.386 57.4471C124.527 57.5666 124.691 57.657 124.867 57.7129C125.043 57.7689 125.228 57.7893 125.412 57.7731H125.922C126.298 57.7751 126.661 57.6304 126.932 57.3696C127.203 57.1088 127.362 56.7526 127.374 56.3766L127.298 53.3462Z" fill="#EDB984"/>
<path d="M125.014 56.0133C125.377 56.0133 125.657 55.2453 125.629 54.3306C125.629 54.2817 125.629 54.2398 125.629 54.1909L124.323 54.2538C124.323 54.3026 124.323 54.3515 124.323 54.4004C124.33 55.3081 124.651 56.0273 125.014 56.0133Z" fill="#5A4949"/>
<path d="M131.899 55.6715C132.269 55.6715 132.597 54.8964 132.555 53.9817C132.553 53.9469 132.553 53.9118 132.555 53.877L131.229 53.9328C131.229 53.9747 131.229 54.0096 131.229 54.0515C131.222 54.9662 131.529 55.6854 131.899 55.6715Z" fill="#5A4949"/>
<path d="M128.764 61.4946C128.764 61.341 128.408 61.2153 127.961 61.2153C127.514 61.2153 127.165 61.341 127.165 61.4946C127.165 61.6482 127.521 61.7809 127.961 61.7809C128.401 61.7809 128.764 61.6552 128.764 61.4946Z" fill="#2D171A"/>
<path d="M117.704 54.0092C116.663 52.4661 115.155 51.8796 114.338 52.6896C113.521 53.4995 113.696 55.4057 114.743 56.9489C115.79 58.492 117.292 59.0785 118.109 58.2616C118.926 57.4446 118.744 55.5454 117.704 54.0092Z" fill="#E79B69"/>
<path d="M117.313 54.924C116.663 53.9534 115.714 53.5833 115.218 54.093C114.722 54.6028 114.813 55.8038 115.469 56.7673C116.126 57.7309 117.068 58.101 117.564 57.5913C118.06 57.0816 117.969 55.8875 117.313 54.924Z" fill="#D27558"/>
<path d="M117.78 56.223C117.702 56.0875 117.596 55.9696 117.47 55.8767C117.344 55.7838 117.2 55.7179 117.048 55.6831C116.895 55.6484 116.737 55.6456 116.583 55.6748C116.429 55.704 116.283 55.7647 116.154 55.853C115.936 56.0972 115.816 56.4128 115.816 56.7397C115.816 57.0667 115.936 57.3823 116.154 57.6265C116.231 57.7616 116.336 57.8793 116.461 57.9723C116.587 58.0652 116.73 58.1314 116.882 58.1667C117.034 58.2021 117.191 58.2058 117.344 58.1778C117.498 58.1497 117.644 58.0904 117.773 58.0036C117.994 57.7598 118.116 57.4432 118.118 57.1146C118.119 56.786 117.999 56.4685 117.78 56.223Z" fill="#E79B69"/>
<path d="M115.93 59.2952C115.832 58.5062 113.989 58.6878 113.661 59.0369C113.333 59.386 112.963 63.5685 113.975 65.1885L117.829 66.0124C116.223 63.9246 116.028 60.1192 115.93 59.2952Z" fill="#EDB984"/>
<path d="M117.424 57.4238C117.334 56.6697 115.462 56.6767 115.12 56.97C114.778 57.2632 114.338 61.1595 115.365 62.7584L119.268 63.8826C117.662 61.753 117.515 58.171 117.424 57.4238Z" fill="#EDB984"/>
<path d="M120.832 57.2007C120.832 56.4465 118.975 56.2301 118.598 56.5024C118.22 56.7747 117.327 60.5592 118.151 62.2769L121.9 63.855C120.574 61.5019 120.832 57.9338 120.832 57.2007Z" fill="#EDB984"/>
<path d="M113.591 63.666C113.645 62.9505 113.872 62.2589 114.253 61.6507C114.634 61.0425 115.157 60.536 115.776 60.1748C116.26 59.8835 116.825 59.7554 117.387 59.8095C117.949 59.8635 118.478 60.0969 118.898 60.475C119.268 60.8939 119.54 62.7234 117.955 62.8141C116.37 62.9049 116.384 64.1827 116.384 64.1827L113.591 63.666Z" fill="#EDB984"/>
<path d="M113.961 62.5907C112.774 64.2595 114.261 65.0695 115.162 67.3458C115.588 68.4141 115.532 70.062 115.644 71.8146C115.818 74.6076 122.396 73.7976 122.794 72.0869C123.192 70.3762 123.89 66.5707 122.536 64.7344C121.488 63.3379 121.453 62.0112 120.971 61.5364C119.763 60.3563 115.071 61.0336 113.961 62.5907Z" fill="#EDB984"/>
<path d="M123.332 70.998L114.233 68.7427L113.053 74.8035L123.681 78.2458L123.332 70.998Z" fill="#E8DABF"/>
<path d="M104.989 103.662C105.54 107.349 120.406 106.923 122.2 104.444C123.995 101.965 125.573 77.2124 125.573 77.2124L113.004 72.2549C113.004 72.2549 104.346 99.3609 104.989 103.662Z" fill="#E9A82A"/>
<path d="M124.686 77.2125L113.368 72.4644C112.422 75.448 111.794 78.5235 111.496 81.6393C110.323 93.2023 113.242 103.592 118.025 104.849C118.679 104.999 119.359 104.994 120.011 104.835C120.663 104.676 121.269 104.368 121.781 103.934C123.366 99.5564 124.686 77.2125 124.686 77.2125Z" fill="#EFC967"/>
<path d="M175.972 74.8659C174.227 74.7122 173.878 75.3616 173.787 76.2065C173.696 77.0514 173.871 77.7706 175.574 77.9661C177.278 78.1616 178.877 77.631 179.003 76.7581C179.129 75.8853 177.753 75.0334 175.972 74.8659Z" fill="#EDB984"/>
<path d="M170.764 70.9839C170.442 71.0467 169.479 72.3804 167.412 73.8188C165.96 74.8312 166.239 77.31 168.033 78.2387C169.381 77.701 172.767 73.3509 172.747 72.4223C172.726 71.4936 171.476 70.8373 170.764 70.9839Z" fill="#EDB984"/>
<path opacity="0.8" d="M308.074 88.3634L298.41 78.3366C298.41 77.8478 298.41 77.3451 298.41 76.8284C298.41 76.3117 298.41 75.8159 298.41 75.2922C298.41 74.7685 298.41 74.2309 298.41 73.6862C298.41 73.1416 298.41 72.59 298.375 72.0314C298.34 71.4728 298.375 70.9072 298.326 70.3347L298.264 68.61C298.264 68.0304 298.215 67.4509 298.187 66.8714C298.187 66.5781 298.187 66.2848 298.187 65.9986C298.131 64.8464 298.068 63.6943 298.005 62.5632C297.956 61.6834 297.907 60.8175 297.852 59.9657C297.852 59.4071 297.775 58.8555 297.74 58.3108C297.705 57.7662 297.663 57.2286 297.621 56.7049C297.579 56.1812 297.551 55.7064 297.509 55.2246L297.447 54.4216C297.363 53.444 297.279 52.5224 297.195 51.6705C297.153 51.2376 297.111 50.8326 297.07 50.4416C297.028 50.0506 296.986 49.6735 296.944 49.3244C296.86 48.6261 296.776 48.0047 296.699 47.481C296.658 47.2227 296.616 46.9922 296.581 46.7828C296.546 46.5733 296.504 46.3917 296.462 46.2381C296.448 46.1671 296.43 46.0971 296.406 46.0287C296.381 45.9323 296.346 45.8387 296.301 45.7494C296.25 45.6652 296.192 45.5858 296.127 45.512C296.085 45.4561 296.015 45.3863 295.959 45.3234L295.841 45.1908L295.526 44.8766L295.464 44.8207L295.066 44.4436V44.4087L294.884 44.2342L294.437 43.9339L294.193 43.7105L293.913 43.4591L293.655 43.2357L293.229 42.8656L292.894 42.5793L292.594 42.321L292.28 42.0486L292.021 41.8322L291.728 41.5808L291.351 41.2666L291.009 40.9873C290.911 40.8965 290.813 40.8197 290.716 40.736L290.464 40.5265L290.227 40.3379L289.996 40.1424L289.752 39.9399L289.494 39.7305L289.298 39.5699L289.151 39.4512L289.068 39.3813L288.837 39.1998L287.881 38.4178L286.54 37.3494C286.617 37.2765 286.677 37.1879 286.717 37.0896C286.757 36.9913 286.775 36.8856 286.77 36.7797C286.766 36.6738 286.738 36.57 286.69 36.4756C286.642 36.3811 286.574 36.2982 286.491 36.2322C284.444 34.4881 282.255 32.9163 279.949 31.533L279.104 29.5011C279.184 29.2749 279.24 29.0408 279.271 28.8029C279.305 28.5717 279.319 28.3381 279.313 28.1046C279.303 27.8704 279.277 27.6371 279.236 27.4064C279.194 27.162 279.139 26.9176 279.076 26.7081C279.014 26.5555 278.992 26.3897 279.013 26.2264C279.024 26.1838 279.043 26.1436 279.069 26.1077C279.195 25.9155 279.386 25.7744 279.606 25.7096L279.879 25.6049C280.335 25.4211 280.727 25.105 281.003 24.6972C281.059 24.6204 281.108 24.5366 281.156 24.4528C284.725 24.7112 287.587 24.3481 288.579 22.9795C290.904 19.7815 288.732 14.9078 282.679 10.7462C283.179 10.0761 283.617 9.36084 283.984 8.60956C284.199 8.24805 284.296 7.82895 284.262 7.41003C284.228 6.9911 284.065 6.59295 283.796 6.27043C283.716 6.16501 283.63 6.06474 283.538 5.97019L283.433 5.86546L283.209 5.65597L283.063 5.53029L282.818 5.32779L282.651 5.19512C282.539 5.11133 282.42 5.02056 282.295 4.93677L281.938 4.68541L281.771 4.5667L281.429 4.34326L281.282 4.2525L280.891 4.00112C278.967 2.81774 276.933 1.8239 274.816 1.03357C272.289 0.167744 268.853 1.73182 266.57 2.19266C266.143 2.34123 265.751 2.57592 265.418 2.8822C265.085 3.18847 264.819 3.5598 264.636 3.97319C258.701 2.82806 252.612 2.40214 251.774 4.5667C251.674 4.83663 251.597 5.11461 251.544 5.39762C251.544 5.50236 251.544 5.60011 251.502 5.70485C251.477 5.88776 251.463 6.07194 251.46 6.25647C251.453 6.38672 251.453 6.51724 251.46 6.64749C251.46 6.8011 251.46 6.95471 251.502 7.1153C251.544 7.2759 251.502 7.42253 251.565 7.57615C251.628 7.72976 251.614 7.7996 251.642 7.91831C252.584 12.0519 257.088 16.5975 260.719 18.804C261.33 19.1668 261.962 19.4932 262.611 19.7815C262.674 20.9546 262.744 22.0089 262.806 22.8259C261.85 25.2418 258.275 27.8672 257.688 28.7819C257.165 29.5017 256.766 30.3042 256.508 31.156C256.406 31.6376 256.406 32.1354 256.51 32.6167C256.613 33.0981 256.817 33.5521 257.109 33.949C257.198 34.7412 257.457 35.5046 257.869 36.1869C258.282 36.8692 258.837 37.454 259.497 37.901C259.032 38.2245 258.597 38.589 258.198 38.9903C258.115 39.0696 258.043 39.1587 257.982 39.2556C257.15 40.5973 256.513 42.0502 256.089 43.5708C252.417 52.7039 247.801 70.0554 247.801 70.0554L233.752 84.0902L234.067 84.4044L230.945 87.6442L232.426 88.943L231.832 89.5504C231.371 89.7809 230.904 90.0113 230.436 90.1998C229.562 90.556 228.76 91.0669 228.069 91.708C227.714 91.8089 227.392 91.9994 227.133 92.2611C226.873 92.5229 226.686 92.847 226.588 93.2023C225.946 95.6811 225.003 97.0426 225.059 97.3918C225.185 98.1319 226.204 99.1723 227.154 98.886C226.911 98.8568 226.682 98.7534 226.5 98.5898C226.317 98.4262 226.189 98.2104 226.134 97.9718C226.078 97.7331 226.097 97.483 226.188 97.2556C226.28 97.0281 226.439 96.8343 226.644 96.7004C226.85 96.5666 227.091 96.4991 227.336 96.5072C227.581 96.5153 227.818 96.5986 228.014 96.7458C228.209 96.893 228.355 97.0969 228.432 97.3299C228.508 97.5629 228.51 97.8136 228.439 98.0481C228.112 98.3912 227.872 98.8079 227.741 99.2631C227.098 100.96 227.287 102.629 228.159 102.943C228.276 102.983 228.399 103 228.523 102.992C228.965 103.553 229.586 103.947 230.282 104.109C234.548 120.301 242.299 154.474 245.595 183.66H246.768C246.768 183.66 238.836 125.943 232.803 104.507H233.068H233.152H233.201C234.177 104.48 235.123 104.162 235.917 103.592C236.079 103.697 236.27 103.746 236.462 103.732C237.16 103.655 237.558 102.503 237.397 101.086C237.879 99.5773 238.27 97.5454 237.935 96.1279C237.904 95.9944 237.862 95.8637 237.809 95.7369C238.047 95.3948 238.354 94.9689 238.731 94.494L239.722 95.3529L242.99 93.307L247.18 97.4965L252.256 93.307C252.298 97.7339 252.375 100.541 252.375 100.541C252.749 100.404 253.115 100.246 253.471 100.066C253.467 100.129 253.467 100.192 253.471 100.255C253.467 100.308 253.467 100.362 253.471 100.415C256.013 129.323 265.613 168.711 268.337 179.492C266.018 180.099 259.071 183.681 259.071 183.681H270.697C270.697 183.681 270.257 180.581 269.356 179.666L272.694 149.844L280.165 180.225C279.716 181.359 279.354 182.527 279.083 183.716H286.058C286.058 183.716 282.567 180.288 281.233 179.576V179.513C281.345 178.891 281.471 178.186 281.61 177.418V177.292C281.652 177.055 281.694 176.817 281.743 176.594V176.412C281.799 176.119 281.848 175.826 281.904 175.519C282.19 173.871 282.525 171.979 282.888 169.877V169.723C282.958 169.346 283.021 168.969 283.091 168.585V168.452C283.153 168.075 283.216 167.698 283.286 167.314L283.328 167.07C283.391 166.693 283.454 166.309 283.524 165.918V165.729C283.593 165.338 283.663 164.933 283.726 164.528L283.768 164.298L283.956 163.195L284.019 162.825C284.089 162.399 284.159 161.966 284.236 161.533V161.407C284.487 159.906 284.738 158.349 285.004 156.757V156.596C285.081 156.149 285.157 155.688 285.227 155.2C285.227 155.053 285.276 154.906 285.297 154.767C285.367 154.369 285.43 153.971 285.493 153.566L285.555 153.182C285.625 152.777 285.688 152.365 285.758 151.946L285.821 151.527C285.884 151.129 285.953 150.731 286.016 150.326C286.016 150.165 286.065 150.005 286.093 149.837C286.156 149.446 286.219 149.055 286.275 148.664C286.275 148.503 286.331 148.35 286.351 148.189L286.54 147.009C286.54 146.842 286.589 146.667 286.617 146.493C286.694 146.018 286.77 145.543 286.84 145.061C286.84 144.998 286.84 144.935 286.84 144.866L287.364 141.423C287.364 141.353 287.364 141.291 287.364 141.228L287.594 139.72L287.657 139.301C287.72 138.889 287.776 138.477 287.839 138.065C287.839 137.869 287.895 137.674 287.93 137.478L288.097 136.333C288.097 136.151 288.146 135.97 288.174 135.788L288.341 134.636L288.425 134.064C288.481 133.694 288.53 133.317 288.586 132.947L288.67 132.346L288.816 131.299C288.816 131.075 288.879 130.852 288.914 130.6L289.061 129.518C289.061 129.33 289.11 129.148 289.137 128.967L289.305 127.731L289.368 127.284C289.514 126.188 289.661 125.098 289.801 124.016L289.864 123.499C289.912 123.129 289.961 122.759 290.003 122.396C290.003 122.207 290.052 122.012 290.08 121.823L290.206 120.811C290.206 120.609 290.255 120.399 290.283 120.197C290.283 119.868 290.359 119.547 290.394 119.226C290.394 119.023 290.443 118.828 290.471 118.632C290.471 118.304 290.548 117.983 290.583 117.669C290.583 117.466 290.625 117.271 290.653 117.075L290.757 116.133L290.82 115.553L290.925 114.632L290.988 114.059C290.988 113.731 291.051 113.41 291.086 113.088C291.086 112.935 291.086 112.774 291.134 112.614L291.26 111.413V111.196C291.302 110.728 291.351 110.26 291.393 109.8V109.499C291.393 109.339 291.393 109.185 291.442 109.025C292.405 109.025 293.376 109.025 294.332 108.969C294.332 108.969 294.437 105.408 294.57 99.9543L308.074 88.3634Z" fill="#A0B8C1"/>
<path d="M170.847 73.1694H171.245V74.7056C171.114 74.6809 170.981 74.6669 170.847 74.6637C170.557 74.647 170.266 74.6899 169.993 74.7896C169.72 74.8893 169.47 75.0437 169.258 75.2434C169.047 75.4431 168.878 75.6839 168.763 75.951C168.648 76.2181 168.589 76.5059 168.589 76.7968C168.589 77.0877 168.648 77.3755 168.763 77.6426C168.878 77.9097 169.047 78.1505 169.258 78.3502C169.47 78.5499 169.72 78.7044 169.993 78.804C170.266 78.9037 170.557 78.9466 170.847 78.93C170.981 78.9302 171.115 78.9162 171.245 78.8881V80.4242H170.847C170.355 80.4458 169.863 80.3674 169.402 80.1937C168.94 80.0201 168.519 79.7548 168.163 79.4139C167.806 79.073 167.523 78.6636 167.329 78.2102C167.136 77.7568 167.036 77.2689 167.036 76.7759C167.036 76.2829 167.136 75.795 167.329 75.3416C167.523 74.8882 167.806 74.4787 168.163 74.1378C168.519 73.7969 168.94 73.5316 169.402 73.358C169.863 73.1844 170.355 73.106 170.847 73.1275V73.1694Z" fill="#BA3F5D"/>
<g opacity="0.5">
<path opacity="0.5" d="M176.999 55.6713C178.284 53.9955 179.094 52.1172 178.325 50.3436C178.067 49.7292 177.627 49.1426 177.355 48.5352C176.468 46.4404 177.788 44.2758 179.827 42.4395C179.092 42.8325 178.392 43.2855 177.732 43.7941C176.65 44.6599 175.896 45.6933 175.965 46.7546C176.118 47.5389 176.396 48.2934 176.789 48.989C177.907 51.6074 177.152 54.4633 174.736 56.7815C173.647 57.8219 172.244 58.7575 171.28 59.8398C170.317 60.9221 169.849 62.2348 170.736 63.331C171.322 64.0293 172.425 64.6018 173.277 65.2373C175.742 67.0597 176.07 69.5035 176.28 71.7938L177.166 72.0102C175.833 69.6432 177.585 66.8083 175.169 64.7275C174.087 63.7919 172.195 63.0447 172.09 61.9345C172.115 61.4302 172.32 60.9516 172.67 60.5869C173.961 58.8972 175.735 57.347 176.999 55.6713Z" fill="#D6C9A5"/>
</g>
<path d="M170.84 70.2158L182.599 72.3874L180.937 84.509H170.938L170.84 70.2158Z" fill="#CE526A"/>
<path d="M171.42 70.3206C171.42 70.7535 171.357 71.2003 171.357 71.6542C171.357 76.3744 173.452 80.1938 175.952 80.1938C178.451 80.1938 180.434 76.5559 180.539 72.0033L182.634 72.3804L180.965 84.5089H170.966L170.868 70.2158L171.42 70.3206Z" fill="#BA3F5D"/>
<path d="M176.615 73.0226C174.241 73.0226 172.314 72.4919 172.314 71.8425C172.314 71.654 172.474 71.4794 172.753 71.3188L179.827 72.6246C178.78 72.9084 177.699 73.0424 176.615 73.0226Z" fill="#ED7793"/>
</g>
<defs>
<clipPath id="clip0_1728_622">
<rect width="322.353" height="183.688" fill="white"/>
</clipPath>
</defs>
</svg>
