<svg width="725" height="563" viewBox="0 0 725 563" fill="none" xmlns="http://www.w3.org/2000/svg">
<g clip-path="url(#clip0_2360_2199)">
<path d="M439.5 558.971C439.5 558.971 510.51 523.957 522.719 505.696C534.929 487.435 516.996 486.401 516.996 486.401C516.996 486.401 548.687 455.58 544.227 442.607C539.767 429.635 523.352 441.531 523.352 441.531C523.352 441.531 543.731 396.173 534.124 391.614C516.229 383.12 491.123 431.924 491.123 431.924C491.123 431.924 496.518 410.722 484.194 411.412C465.613 412.45 466.38 460.406 466.38 460.406C466.38 460.406 464.282 442.02 453.079 447.991C432.968 458.709 439.5 558.971 439.5 558.971Z" fill="#45892E"/>
<path d="M449.02 440.574C457.769 435.72 466.479 449.906 466.479 449.906C466.479 449.906 465.598 412.45 484.179 411.412C496.503 410.722 491.108 431.924 491.108 431.924C491.108 431.924 516.214 383.12 534.108 391.614L439.416 558.189C438.749 546.559 431.694 450.189 449.02 440.574Z" fill="#67B64D"/>
<path d="M441.335 559.396C441.335 559.396 499.41 566.611 514.447 560.182C529.484 553.753 518.709 545.813 518.709 545.813C518.709 545.813 550.999 539.468 553.491 529.563C555.982 519.658 541.087 520.448 541.087 520.448C541.087 520.448 572.045 500.402 567.906 493.652C560.195 481.084 524.707 501.321 524.707 501.321C524.707 501.321 536.688 490.291 528.721 485.712C516.706 478.81 497.701 509.036 497.701 509.036C497.701 509.036 498.88 501.585 489.467 500.76C472.576 499.28 441.335 559.396 441.335 559.396Z" fill="#45892E"/>
<path d="M489.086 495.353C498.499 496.177 497.701 509.042 497.701 509.042C497.701 509.042 517.049 473.215 529.064 480.117C537.031 484.696 527.607 499.729 527.607 499.729C527.607 499.729 560.195 481.09 567.906 493.658L441.16 559.082C445.468 551.554 473.309 493.968 489.086 495.353Z" fill="#67B64D"/>
<path d="M289.522 557.143C289.522 557.143 218.513 522.129 206.299 503.868C194.086 485.607 212.023 484.573 212.023 484.573C212.023 484.573 180.331 453.752 184.792 440.779C189.252 427.807 205.887 440.203 205.887 440.203C205.887 440.203 185.284 394.345 194.899 389.786C212.793 381.292 237.895 430.096 237.895 430.096C237.895 430.096 232.5 408.893 244.824 409.584C263.405 410.622 262.638 458.578 262.638 458.578C262.638 458.578 264.737 440.192 275.939 446.167C296.054 456.88 289.522 557.143 289.522 557.143Z" fill="#45892E"/>
<path d="M280.003 438.746C271.254 433.892 262.543 448.078 262.543 448.078C262.543 448.078 263.424 410.622 244.843 409.584C232.519 408.893 237.914 430.096 237.914 430.096C237.914 430.096 212.812 381.292 194.918 389.786L289.595 556.349C290.274 544.731 297.329 448.372 280.003 438.746Z" fill="#67B64D"/>
<path d="M287.687 557.577C287.687 557.577 229.612 564.788 214.575 558.363C199.538 551.938 210.313 543.994 210.313 543.994C210.313 543.994 178.023 537.653 175.535 527.732C173.048 517.812 188.458 518.8 188.458 518.8C188.458 518.8 156.977 498.579 161.117 491.818C168.828 479.276 204.315 499.498 204.315 499.498C204.315 499.498 192.335 488.464 200.301 483.889C212.316 476.983 231.325 507.209 231.325 507.209C231.325 507.209 230.142 499.758 239.555 498.933C256.446 497.457 287.687 557.577 287.687 557.577Z" fill="#45892E"/>
<path d="M238.567 488.847C229.15 489.675 229.299 498.817 229.299 498.817C229.299 498.817 211.973 471.388 199.958 478.29C191.991 482.868 201.416 497.901 201.416 497.901C201.416 497.901 168.828 479.278 161.117 491.831L287.866 557.254C283.555 549.727 254.34 487.466 238.567 488.847Z" fill="#67B64D"/>
<path d="M626.812 386.992C628.56 382.795 630.338 378.575 634.871 376.446C638.537 374.721 642.372 375.37 645.63 377.823C654.868 384.767 646.821 392.421 657.332 405.588C660.598 409.682 664.555 412.986 666.512 417.798C669.252 424.509 665.99 427.718 660.759 430.949C635.733 446.33 622.604 414.745 623.085 407.523C623.447 402.131 625.687 389.701 626.812 386.992Z" fill="#13375B"/>
<path d="M611.745 527.047C612.59 530.812 613.739 534.502 615.179 538.081C615.305 538.356 616.457 539.34 616.595 539.607C616.213 546.475 612.016 550.699 608.01 553.725C608.773 550.241 610.623 546.208 610.341 545.449C608.74 540.761 606.786 536.201 604.496 531.809C607.899 531.336 609.04 529.222 611.745 527.047Z" fill="#F7A491"/>
<path d="M627.19 445.438L648.496 461.619C648.496 461.619 637.946 471.768 633.997 475.538C630.048 479.307 605.629 496.874 605.282 497.74C605.026 498.381 610.837 518.572 614.584 529.351C612.333 531.64 607.373 533.907 604.439 534.651C597.052 520.556 587.975 496.496 587.975 493.238C587.963 487.919 627.19 445.438 627.19 445.438Z" fill="#355389"/>
<path d="M686.952 477.719C686.257 478.399 681.633 487.407 679.87 492.218C677.295 490.597 675.738 488.662 672.861 487.571C675.131 484.286 679.557 476.376 679.924 474.495C680.786 470.031 681.801 469.375 681.801 469.375C681.801 469.375 696.765 474.438 697.765 475.861C698.765 477.284 689.752 474.991 686.952 477.719Z" fill="#F7A491"/>
<path d="M679.748 475.497C678.604 475.497 679.847 470.251 680.13 469.041C680.431 467.683 681.217 467.274 681.412 467.225C681.942 467.095 698.581 472.723 701.389 474.745C701.612 474.942 701.808 475.166 701.973 475.413C703.499 478.282 689.798 478.828 687.825 477.572C686.055 476.458 684.972 475.481 679.748 475.497Z" fill="#FF40D2"/>
<path d="M622.642 450.212L641.239 442.699C641.162 442.73 641.349 443.462 641.365 443.512C643.108 450.3 652.429 447.682 656.245 459.476C658.958 467.809 662.93 498.973 662.93 498.973C662.93 498.973 665.745 493.632 674.494 483.757C675.173 482.994 683.792 488.916 683.792 488.916C677.382 505.91 661.644 519.718 659.511 518.741C645.111 512.133 627.816 460.01 627.843 460.014C626.213 456.824 622.642 450.212 622.642 450.212Z" fill="#466EB6"/>
<path d="M621.955 395.358C621.955 395.358 613.233 381.549 611.715 376.956C610.196 372.362 611.715 350.488 611.848 348.931C611.982 347.374 617.262 343.128 616.427 341.907C615.591 340.686 608.323 339.686 607.098 339.927C605.873 340.167 603.504 339.927 602.519 340.93C602.394 341.06 604.835 346.817 604.782 347.71C604.435 353.815 600.967 373.216 602.111 378.467C603.416 384.499 616.366 403.786 616.366 403.786L621.955 395.358Z" fill="#F7A491"/>
<path d="M653.628 403.402C653.628 403.402 676.959 403.982 682.079 404.402C687.2 404.822 705.789 403.257 706.498 403.193C707.208 403.128 711.981 395.046 712.771 395.913C713.561 396.779 710.123 399.911 711.187 400.724C712.252 401.537 723.683 399.717 723.53 400.56C723.248 402.143 716.579 401.941 716.583 402.704C716.586 403.467 723.565 402.277 724.038 403.544C724.511 404.81 717.33 404.059 717.04 404.623C716.75 405.188 723.702 406.226 722.992 407.405C722.611 408.046 716.838 406.336 716.865 407.21C716.892 408.084 721.104 410.068 720.585 410.762C720.066 411.457 717.281 408.63 714.839 408.595C712.397 408.561 710.642 407.283 706.75 408.355C702.858 409.427 689.581 414.78 681.244 414.387C672.907 413.994 654.536 413.174 654.536 413.174L653.628 403.402Z" fill="#F7A491"/>
<path d="M619.38 427.767C619.063 423.917 618.525 413.532 618.701 412.257C617.556 408.259 613.291 402.337 612.398 400.658C612.398 400.658 618.159 394.13 622.432 394.172C622.432 394.172 626.977 399.895 630.349 401.669C630.399 401.669 631.544 402.177 632.047 402.177C635.302 402.154 646.683 401.795 648.805 402.44L647.603 420.026C646.993 421.033 646.248 441.255 644.989 442.918C643.73 444.582 625.412 452.159 622.375 450.202C622.257 450.141 620.013 435.543 619.38 427.767Z" fill="#FF80DB"/>
<path d="M642.879 402.864C644.978 401.86 660.312 401.895 660.312 401.895C660.312 401.895 662.437 412.471 660.72 415.016C660.72 415.016 647.137 417.034 647.527 418.149L642.879 402.864Z" fill="#FF80DB"/>
<path d="M639.472 395.714C639.472 395.714 638.293 401.818 638.53 404.222C638.766 406.626 637.629 414.383 632.536 414.409C627.442 414.436 631.57 404.55 632.051 402.2C632.532 399.849 632.642 392.539 632.642 392.539L639.472 395.714Z" fill="#F7A491"/>
<path d="M632.536 396.194C632.612 394.199 632.639 392.531 632.639 392.531L639.472 395.717C639.472 395.717 639.232 396.965 638.988 398.556C635.996 399.151 633.829 398.045 632.536 396.194Z" fill="#F47458"/>
<path d="M641.968 378.878C643.684 379.941 644.964 381.582 645.577 383.506C646.538 386.669 645.443 394.834 638.644 396.807C631.845 398.779 628.9 392.312 630.3 387.268C631.7 382.224 634.73 375.795 641.968 378.878Z" fill="#F7A491"/>
<path d="M629.434 385.29C629.567 386.649 630.315 387.686 631.109 387.61C631.902 387.534 632.433 386.366 632.299 385.008C632.166 383.65 631.418 382.612 630.624 382.692C629.83 382.772 629.3 383.932 629.434 385.29Z" fill="#F7A491"/>
<path d="M615.244 538.249C615.626 537.154 620.086 540.443 621.131 541.103C622.31 541.866 622.425 542.724 622.406 542.926C622.348 543.457 611.791 557.425 608.632 559.405C608.276 559.575 607.875 559.627 607.487 559.554C605.671 558.925 608.201 547.726 610.479 545.437C611.963 543.968 613.481 543.163 615.244 538.249Z" fill="#FF40D2"/>
<path d="M653.971 329.639L635.241 336.297C634.771 336.465 634.348 336.745 634.01 337.112C633.672 337.48 633.428 337.924 633.299 338.407L628.175 357.663C628.027 358.218 627.726 358.721 627.307 359.114C626.887 359.507 626.366 359.775 625.803 359.887C625.239 359.999 624.655 359.951 624.117 359.748C623.58 359.545 623.11 359.196 622.76 358.739L610.631 342.924C610.327 342.528 609.932 342.211 609.478 342.002C609.025 341.792 608.528 341.696 608.029 341.722L588.189 342.756C587.614 342.785 587.043 342.652 586.539 342.374C586.035 342.095 585.62 341.682 585.339 341.18C585.057 340.678 584.922 340.107 584.948 339.532C584.973 338.957 585.159 338.401 585.483 337.926L596.72 321.493C597.002 321.08 597.18 320.605 597.238 320.109C597.296 319.612 597.232 319.109 597.052 318.642L589.909 300.023C589.702 299.487 589.65 298.904 589.757 298.34C589.864 297.775 590.127 297.252 590.516 296.829C590.905 296.406 591.405 296.101 591.958 295.947C592.512 295.794 593.097 295.798 593.648 295.96L612.726 301.618C613.204 301.762 613.71 301.786 614.199 301.689C614.689 301.592 615.147 301.376 615.534 301.061L630.971 288.519C631.418 288.157 631.958 287.927 632.528 287.856C633.099 287.784 633.679 287.874 634.201 288.116C634.723 288.357 635.168 288.739 635.484 289.22C635.8 289.701 635.975 290.26 635.989 290.835L636.538 310.767C636.552 311.268 636.687 311.757 636.932 312.193C637.176 312.63 637.523 313.001 637.942 313.274L654.627 324.141C655.109 324.456 655.493 324.899 655.736 325.421C655.979 325.942 656.072 326.522 656.004 327.093C655.936 327.665 655.709 328.206 655.35 328.655C654.991 329.105 654.513 329.446 653.971 329.639Z" fill="#F7B62F"/>
<path d="M616.305 342.096C617.003 343.122 613.218 346.373 612.169 348.17L609.792 344.931C610.963 344.702 615.507 340.924 616.305 342.096Z" fill="#F7A491"/>
<path d="M641.17 378.469C641.17 378.469 642.402 387.576 645.367 389.221C648.332 390.865 647.076 394.906 647.076 394.906C647.076 394.906 649.747 385.524 647.42 382.509C645.092 379.495 641.17 378.469 641.17 378.469Z" fill="#13375B"/>
<path d="M643.604 390.528C642.803 391.714 642.807 393.114 643.604 393.652C644.402 394.19 645.707 393.652 646.504 392.481C647.301 391.31 647.298 389.894 646.504 389.356C645.71 388.818 644.402 389.341 643.604 390.528Z" fill="#F7A491"/>
<path d="M610.585 342.863C610.585 342.886 610.623 342.905 610.639 342.928L611.501 344.054C610.868 343.882 609.662 343.539 608.483 344.344C608.483 344.344 608.872 343.512 610.585 342.863Z" fill="#F47257"/>
<path d="M98.7225 444.078C98.9514 444.174 95.6702 448.382 92.511 451.354C89.947 454.571 87.5509 458.378 86.7153 462.53C85.46 468.844 86.5054 500.028 85.4104 502.249C76.0053 511.444 69.1909 534.524 67.2793 541.548C66.9067 542.92 66.1526 544.158 65.1045 545.119L65.5242 553.078L70.2058 557.397C70.2058 557.397 69.1641 550.911 71.2436 546.104C71.2436 546.104 94.9261 510.238 96.3302 507.499C99.001 499.692 108.799 459.691 108.799 459.691L111.088 450.496L98.7225 444.078Z" fill="#F7A491"/>
<path d="M59.9842 547.698C59.9842 547.698 62.945 552.276 63.1968 554.035C63.4486 555.794 65.0244 559.839 66.768 560.094C67.1496 560.151 73.9411 560.651 73.8915 559.804C73.8534 559.156 71.4 558.232 70.2592 557.442C68.2904 556.084 65.2342 545.008 65.2342 545.008C65.2342 545.008 60.1139 546.278 59.9842 547.698Z" fill="#F47458"/>
<path d="M118.964 457.909C118.964 457.909 134.225 490.524 134.317 496.258C134.401 501.173 131.646 528.751 132.409 551.716C132.436 552.548 133.489 553.647 135.015 554.349C135.877 554.73 140.029 556.6 140.029 556.6L140.601 558.084L126.293 557.062L126.087 553.155C126.087 553.155 120.394 518.815 120.974 509.086C121.066 507.56 121.806 498.403 121.806 498.403L104.606 465.189L115.423 450.973L118.964 457.909Z" fill="#F7A491"/>
<path d="M120.394 384.702C118.105 378.544 112.046 374.812 105.758 375.964C104.797 374.415 103.538 373.071 102.054 372.012C100.569 370.952 98.8901 370.197 97.1124 369.791C90.2102 368.311 80.8738 371.039 81.1256 378.349C78.4548 383.259 78.3442 390.28 82.442 394.015C81.015 400.62 87.1998 406.988 95.239 406.77C98.0395 411.391 103.374 414.359 108.677 413.726C109.951 413.573 111.893 413.257 112.214 413.344C111.81 413.272 120.734 420.113 128.3 409.59C136.015 398.842 130.593 385.846 120.394 384.702Z" fill="#602F0A"/>
<path d="M119.482 347.763C119.855 346.881 120.315 346.039 120.856 345.248L121.451 344.378C121.524 344.222 121.581 344.092 121.611 343.997C121.871 343.234 121.673 340.746 121.673 340.746L116.457 342.009L115.312 345.023C114.148 344.485 112.164 340.445 111.443 341.418C110.585 342.562 113.809 347.522 114.064 348.869C114.32 350.216 111.291 371.083 110.417 375.226C109.543 379.37 103.641 390.938 103.641 390.938L109.04 397.806C109.04 397.806 117.697 380.167 118.265 374.78C118.326 374.215 118.395 373.368 118.468 372.319L119.482 347.763Z" fill="#F7A491"/>
<path d="M83.5141 413.113L77.1003 407.676C77.1003 407.676 71.9075 416.333 67.7486 423.391C63.6203 421.9 52.9599 414.952 52.4334 414.616C51.9069 414.28 50.7393 406.439 49.8351 406.855C48.9308 407.271 50.5295 411.003 49.4344 411.281C48.3394 411.56 40.1285 406.073 39.9607 406.806C39.644 408.179 44.8597 410.362 44.5964 410.976C44.3332 411.59 39.354 408.175 38.5604 409.026C37.7668 409.877 43.5625 411.804 43.593 412.357C43.6235 412.91 37.9118 411.3 38.0606 412.498C38.1445 413.147 43.1733 413.803 42.8566 414.498C42.5399 415.192 38.6214 415.303 38.7855 416.024C38.9496 416.745 42.0553 415.471 43.9516 416.302C45.8479 417.134 47.6297 416.726 50.2777 418.973C52.9256 421.22 65.921 433.934 69.9845 432.842C73.5214 431.908 83.5141 413.113 83.5141 413.113Z" fill="#F7A491"/>
<path d="M105.819 405.02C106.231 402.513 110.112 396.244 110.722 394.699C110.722 394.699 106.224 388.976 102.572 389.415C102.572 389.415 97.6657 397.549 94.8727 397.809C92.0798 398.068 82.2817 398.507 80.5495 399.548C78.8173 400.59 71.526 411.804 71.526 411.804C71.526 411.804 78.0885 418.504 80.725 418.488C80.725 418.488 82.1291 415.726 82.69 415.123C83.0715 416.405 89.1991 436.207 89.1762 440.687L89.2258 440.725C90.5758 441.824 92.1351 442.636 93.8091 443.114C95.4831 443.591 97.2366 443.722 98.963 443.5C100.689 443.278 102.353 442.707 103.851 441.822C105.35 440.937 106.653 439.756 107.681 438.352C107.376 434.404 107.3 430.442 107.456 426.486C107.929 417.592 109.734 412.849 105.819 405.02Z" fill="#2436D3"/>
<path d="M137.633 481.631L107.693 438.375C105.901 439.153 104.036 439.749 102.126 440.157C97.8335 440.985 93.5373 440.851 89.1877 440.71C89.189 440.852 89.1813 440.993 89.1648 441.134C88.665 444.701 83.9338 450.222 82.9609 461.043C81.8544 473.325 82.5221 494.661 82.896 496.061C102.801 493.642 131.986 487.556 137.633 481.631Z" fill="#ED730F"/>
<path d="M120.188 344.512C120.188 344.512 118.307 345.771 116.709 345.367C115.874 345.189 115.082 344.849 114.377 344.367C114.377 344.367 115.259 345.977 116.564 346.679C118.799 347.885 120.188 344.512 120.188 344.512Z" fill="#F47458"/>
<path d="M83.0486 335.586L100.459 331.995C100.899 331.906 101.354 331.929 101.783 332.062C102.212 332.196 102.6 332.435 102.912 332.758L115.64 345.7C116.008 346.07 116.474 346.327 116.983 346.44C117.492 346.553 118.023 346.516 118.513 346.336C119.002 346.155 119.429 345.838 119.743 345.422C120.057 345.005 120.245 344.507 120.284 343.987L122.359 325.589C122.407 325.133 122.564 324.696 122.815 324.313C123.067 323.93 123.406 323.613 123.805 323.387L139.506 314.772C139.962 314.509 140.339 314.128 140.597 313.668C140.855 313.208 140.984 312.688 140.97 312.161C140.956 311.634 140.801 311.121 140.519 310.675C140.238 310.229 139.842 309.868 139.372 309.629L123.241 301.853C122.83 301.651 122.474 301.353 122.203 300.985C121.932 300.616 121.754 300.188 121.684 299.735L118.662 281.456C118.596 280.938 118.382 280.451 118.046 280.052C117.711 279.653 117.267 279.358 116.769 279.204C116.271 279.05 115.739 279.042 115.237 279.181C114.734 279.321 114.282 279.601 113.935 279.99L101.893 293.585C101.598 293.923 101.223 294.181 100.803 294.335C100.382 294.49 99.929 294.536 99.4856 294.47L81.9345 291.799C79.6796 291.456 78.0313 293.959 79.1454 296.034L87.8256 312.216C88.0441 312.625 88.1641 313.079 88.176 313.543C88.1879 314.007 88.0915 314.467 87.8943 314.887L80.0611 331.503C79.0424 333.632 80.8166 336.047 83.0486 335.586Z" fill="#F7B62F"/>
<path d="M89.8249 390.613C89.8249 390.613 90.8779 396.283 90.6681 398.519C90.4582 400.755 91.4693 407.966 96.0097 407.989C100.55 408.012 96.872 398.832 96.4447 396.634C96.0174 394.436 95.9143 387.656 95.9143 387.656L89.8249 390.613Z" fill="#F7A491"/>
<path d="M96.0174 391.06C95.9449 389.202 95.922 387.656 95.922 387.656L89.8173 390.613C89.8173 390.613 90.0309 391.758 90.2484 393.25C92.9269 393.807 94.8613 392.78 96.0174 391.06Z" fill="#F47458"/>
<path d="M87.5966 374.967C86.0517 375.975 84.9146 377.499 84.3878 379.267C83.5293 382.208 84.5061 389.797 90.5765 391.629C96.6469 393.46 99.2758 387.432 98.0243 382.75C96.7728 378.069 94.0562 372.101 87.5966 374.967Z" fill="#F7A491"/>
<path d="M98.7836 380.927C98.6653 382.19 97.9937 383.155 97.2879 383.083C96.582 383.01 96.1089 381.938 96.2272 380.664C96.3455 379.389 97.0132 378.439 97.719 378.512C98.4249 378.584 98.9018 379.664 98.7836 380.927Z" fill="#F7A491"/>
<path d="M86.1353 385.797C86.8488 386.9 86.845 388.201 86.1353 388.705C85.4256 389.208 84.2619 388.705 83.5484 387.614C82.8349 386.522 82.8387 385.21 83.5484 384.706C84.2581 384.203 85.4218 384.691 86.1353 385.797Z" fill="#F7A491"/>
<path d="M121.058 337.588C119.879 337.359 114.896 341.27 114.954 341.853C115.011 342.437 119.86 339.946 119.998 340.358C120.108 340.671 114.557 342.124 114.847 342.681C115.045 343.063 120.024 342.014 120.158 342.258C120.364 342.639 116.003 342.8 116.285 343.223C116.609 343.712 120.764 343.509 120.764 343.509C120.764 343.509 121.6 342.166 121.684 341.663C121.723 341.377 121.729 341.088 121.703 340.8C121.703 340.526 121.81 340.285 121.772 339.976C121.604 338.717 121.714 337.721 121.058 337.588Z" fill="#F7A491"/>
<path d="M114.416 340.581L112.561 342.87L111.34 341.958C111.309 341.875 111.296 341.787 111.303 341.698C111.31 341.61 111.335 341.524 111.378 341.447C111.523 341.134 114.377 339.734 114.416 340.581Z" fill="#F7A491"/>
<path d="M126.255 559.781H144.329C144.996 559.72 145.157 559.182 144.928 558.85C144.451 558.163 142.341 557.66 139.968 556.561C135.813 556.996 126.758 554.153 126.102 553.203C125.728 555.122 125.881 559.701 126.255 559.781Z" fill="#F47458"/>
<path d="M112.695 342.715C112.695 342.715 115.148 344.214 116.163 345.962C116.461 346.434 116.663 346.96 116.757 347.51C116.85 348.06 116.834 348.623 116.709 349.167L112.512 343.997L112.695 342.715Z" fill="#F7A491"/>
<path d="M471.901 138.262C471.462 140.314 471.069 142.436 469.993 144.153C468.159 146.371 466.422 148.66 464.781 151.021C465.926 150.94 467.052 150.887 468.215 150.887C479.532 150.887 490.063 154.874 497.869 162.112C504.847 168.579 508.686 176.87 508.686 185.455C508.686 194.04 504.847 202.331 497.869 208.802C490.063 216.051 479.532 220.023 468.215 220.023C456.899 220.023 446.418 216.059 438.623 208.855C438.054 210.538 437.478 212.209 436.921 213.888C433.105 215.822 430.435 220.374 430.435 225.689C430.435 232.755 435.177 238.486 441.026 238.486C445.628 238.486 449.535 234.934 450.996 229.985C456.553 231.833 462.371 232.772 468.227 232.767C496.404 232.767 519.251 211.583 519.251 185.455C519.236 160.46 498.357 140.017 471.901 138.262Z" fill="#E09B35"/>
<path d="M243.08 138.262C243.515 140.314 243.912 142.436 244.988 144.153C246.82 146.371 248.557 148.66 250.2 151.021C249.055 150.94 247.911 150.887 246.766 150.887C235.449 150.887 224.915 154.874 217.112 162.112C210.134 168.579 206.292 176.87 206.292 185.455C206.292 194.04 210.138 202.312 217.101 208.783C224.904 216.032 235.438 220.004 246.755 220.004C258.071 220.004 268.549 216.04 276.347 208.836C276.916 210.519 277.492 212.19 278.045 213.869C281.861 215.803 284.531 220.355 284.531 225.67C284.531 232.736 279.789 238.467 273.936 238.467C269.335 238.467 265.431 234.915 263.97 229.966C258.413 231.814 252.595 232.753 246.739 232.748C218.562 232.748 195.715 211.564 195.715 185.436C195.734 160.46 216.624 140.017 243.08 138.262Z" fill="#E09B35"/>
<path d="M479.242 132.875V145.939C479.242 204.968 431.377 252.833 372.348 252.833C345.159 252.451 326.505 255.283 300.69 243.855C263.493 227.544 236.716 190.168 236.716 145.939V132.875H479.242Z" fill="#F7C653"/>
<path d="M300.69 243.859L300.77 243.893L339.196 132.863H299.194L268.396 221.863C277.721 231.113 288.667 238.569 300.69 243.859Z" fill="#FAE0B2"/>
<path d="M325.689 251.345L366.236 132.875H346.14L307.253 246.534C313.226 248.737 319.401 250.349 325.689 251.345Z" fill="#FAE0B2"/>
<path d="M264.5 217.807L294.822 132.875H285.283L257.85 209.718C259.936 212.526 262.153 215.223 264.5 217.807Z" fill="#FAE0B2"/>
<path d="M468.654 125.473H247.915C239.86 125.473 233.29 129.956 232.828 135.603H483.74C483.275 129.956 476.709 125.473 468.654 125.473Z" fill="#F7C653"/>
<path d="M316.993 249.707L329.481 313.818H384.096L399.571 249.707H316.993Z" fill="#F7C653"/>
<path d="M399.575 249.711L396.084 264.179H319.817L316.997 249.711H399.575Z" fill="#B75742"/>
<path d="M399.575 393.138H316.997L323.186 361.314L329.478 329.02H384.104L391.899 361.314L399.575 393.138Z" fill="#F7C653"/>
<path d="M399.575 393.137H316.997L323.186 361.312H391.899L399.575 393.137Z" fill="#B75742"/>
<path d="M319.901 313.824H393.677C394.451 313.822 395.219 313.973 395.936 314.268C396.652 314.563 397.303 314.997 397.852 315.544C398.401 316.092 398.836 316.742 399.133 317.457C399.43 318.173 399.583 318.94 399.583 319.715V323.126C399.583 323.901 399.43 324.669 399.133 325.385C398.836 326.101 398.401 326.751 397.852 327.299C397.304 327.846 396.652 328.28 395.936 328.576C395.219 328.871 394.452 329.023 393.677 329.021H319.905C318.341 329.021 316.842 328.4 315.736 327.295C314.631 326.189 314.01 324.69 314.01 323.126V319.711C314.011 318.15 314.632 316.652 315.737 315.548C316.841 314.444 318.339 313.824 319.901 313.824Z" fill="#FAE0B2"/>
<path d="M311.537 367.863H402.254C403.164 367.863 404.038 368.225 404.682 368.869C405.326 369.513 405.688 370.386 405.688 371.297V388.818H308.122V371.282C308.127 370.377 308.487 369.511 309.127 368.87C309.766 368.23 310.633 367.868 311.537 367.863Z" fill="#F7C653"/>
<path d="M437.894 401.309V407.68H275.889V401.309C275.889 393.971 280.369 388.012 285.886 388.012H427.897C433.414 388.012 437.894 393.971 437.894 401.309Z" fill="#F7C653"/>
<path d="M314.029 388.02L308.905 407.684H302.144L307.268 388.02H314.029Z" fill="#FAE0B2"/>
<path d="M304.349 388.02L299.225 407.684H292.456L297.588 388.02H304.349Z" fill="#FAE0B2"/>
<path d="M322.637 388.02L317.512 407.684H310.74L315.876 388.02H322.637Z" fill="#FAE0B2"/>
<path d="M498.216 553.184V559.552H226.743V553.184C226.743 545.843 234.248 539.887 243.496 539.887H481.459C490.707 539.887 498.216 545.843 498.216 553.184Z" fill="#F7C653"/>
<path d="M290.655 539.887L282.067 559.552H270.739L279.327 539.887H290.655Z" fill="#FAE0B2"/>
<path d="M274.436 539.887L265.847 559.552H254.504L263.104 539.887H274.436Z" fill="#FAE0B2"/>
<path d="M305.078 539.887L296.489 559.552H285.146L293.75 539.887H305.078Z" fill="#FAE0B2"/>
<path d="M427.44 237.59V242.397C427.441 244.375 427.052 246.333 426.296 248.16C425.54 249.988 424.432 251.648 423.034 253.047C421.636 254.446 419.976 255.556 418.15 256.313C416.323 257.07 414.365 257.46 412.388 257.461H303.647C301.669 257.461 299.71 257.072 297.882 256.315C296.054 255.558 294.393 254.449 292.994 253.05C291.596 251.651 290.486 249.99 289.729 248.162C288.972 246.335 288.583 244.376 288.584 242.397V237.59H427.44Z" fill="#F7C653"/>
<path d="M460.546 539.889H256.255L258.747 407.688H457.807L460.546 539.889Z" fill="#979E9C"/>
<path d="M411.964 539.889H304.837L306.142 407.688H410.529L411.964 539.889Z" fill="#A6B2AF"/>
<path d="M681.271 559.551H1.64583C1.24106 559.551 0.852869 559.712 0.566654 559.998C0.280439 560.284 0.119646 560.672 0.119646 561.077C0.119646 561.482 0.280439 561.87 0.566654 562.156C0.852869 562.442 1.24106 562.603 1.64583 562.603H681.271C681.675 562.603 682.063 562.442 682.35 562.156C682.636 561.87 682.797 561.482 682.797 561.077C682.797 560.672 682.636 560.284 682.35 559.998C682.063 559.712 681.675 559.551 681.271 559.551Z" fill="#184655"/>
<path d="M391.261 535.912L375.061 509.463L351.256 529.341L375.752 380.188L415.757 386.758L391.261 535.912Z" fill="#B73A25"/>
<path d="M465.266 529.268L441.412 509.443L425.272 535.93L400.434 386.83L440.424 380.168L465.266 529.268Z" fill="#B73A25"/>
<path d="M498.216 414.514C498.216 423.133 490.616 430.444 488.094 438.22C485.476 446.278 487.235 456.641 482.371 463.348C477.437 470.121 467.006 471.628 460.241 476.558C453.533 481.441 448.901 490.923 440.843 493.54C433.071 496.066 423.784 491.197 415.169 491.197C406.554 491.197 397.267 496.066 389.491 493.54C381.433 490.923 376.805 481.441 370.097 476.558C363.321 471.628 352.889 470.121 347.967 463.348C343.087 456.641 344.846 446.278 342.244 438.22C339.718 430.444 332.122 423.133 332.122 414.514C332.122 405.895 339.718 398.589 342.244 390.813C344.862 382.755 343.103 372.392 347.967 365.684C352.897 358.912 363.328 357.405 370.097 352.475C376.805 347.591 381.433 338.106 389.491 335.492C397.267 332.967 406.55 337.835 415.169 337.835C423.788 337.835 433.071 332.967 440.843 335.492C448.901 338.106 453.533 347.591 460.241 352.475C467.013 357.405 477.449 358.912 482.371 365.684C487.251 372.392 485.492 382.755 488.094 390.813C490.616 398.589 498.216 405.899 498.216 414.514Z" fill="#F45E44"/>
<path d="M435.845 488.24C433.235 488.24 430.194 487.572 426.978 486.862C423.162 486.031 419.251 485.168 415.15 485.168C411.048 485.168 407.115 486.031 403.322 486.862C400.106 487.572 397.068 488.236 394.455 488.236C393.401 488.258 392.35 488.113 391.341 487.805C388.018 486.729 385.038 483.344 381.887 479.762C379.388 476.923 376.805 473.993 373.634 471.684C370.463 469.376 366.797 467.77 363.298 466.247C358.948 464.34 354.835 462.565 352.821 459.799C350.806 457.033 350.405 452.638 349.944 447.933C349.562 444.118 349.181 440.176 347.944 436.357C346.754 432.69 344.785 429.371 342.881 426.158C340.432 422.026 338.116 418.119 338.116 414.514C338.116 410.908 340.428 407.005 342.881 402.873C344.789 399.66 346.754 396.341 347.944 392.674C349.184 388.858 349.57 384.909 349.944 381.094C350.405 376.393 350.844 371.937 352.824 369.232C354.805 366.527 358.929 364.676 363.298 362.784C366.797 361.257 370.417 359.689 373.634 357.347C376.85 355.004 379.388 352.104 381.887 349.269C385.042 345.687 388.022 342.302 391.341 341.222C392.35 340.917 393.401 340.773 394.455 340.795C397.068 340.795 400.106 341.459 403.322 342.169C407.137 343 411.048 343.863 415.15 343.863C419.251 343.863 423.185 343 426.978 342.169C430.19 341.459 433.231 340.795 435.845 340.795C436.898 340.773 437.947 340.917 438.955 341.222C442.278 342.302 445.258 345.687 448.413 349.269C450.912 352.104 453.495 355.038 456.666 357.347C459.837 359.655 463.499 361.261 466.998 362.784C471.352 364.691 475.461 366.466 477.475 369.232C479.49 371.998 479.891 376.393 480.352 381.098C480.734 384.913 481.115 388.855 482.355 392.674C483.546 396.341 485.515 399.664 487.418 402.873C489.868 407.005 492.184 410.912 492.184 414.514C492.184 418.115 489.868 422.026 487.418 426.158C485.511 429.371 483.546 432.69 482.355 436.357C481.115 440.173 480.726 444.122 480.352 447.933C479.891 452.638 479.456 457.09 477.475 459.799C475.495 462.508 471.371 464.355 466.998 466.247C463.499 467.774 459.882 469.342 456.666 471.684C453.449 474.027 450.908 476.923 448.413 479.762C445.258 483.344 442.278 486.729 438.955 487.805C437.948 488.114 436.898 488.261 435.845 488.24Z" fill="#F7BE44"/>
<path d="M475.077 422.9C479.705 389.802 456.626 359.218 423.527 354.59C390.429 349.962 359.845 373.042 355.217 406.14C350.589 439.239 373.669 469.822 406.767 474.45C439.866 479.078 470.449 455.999 475.077 422.9Z" fill="#F45E44"/>
<path d="M415.146 472.014C446.9 472.014 472.641 446.272 472.641 414.519C472.641 382.765 446.9 357.023 415.146 357.023C383.392 357.023 357.651 382.765 357.651 414.519C357.651 446.272 383.392 472.014 415.146 472.014Z" fill="white"/>
<path d="M467.025 419.66C469.86 391.011 448.933 365.489 420.284 362.654C391.635 359.82 366.113 380.747 363.278 409.396C360.444 438.045 381.371 463.567 410.02 466.401C438.669 469.236 464.191 448.309 467.025 419.66Z" fill="#F7BE44"/>
<path d="M413.719 394.132H413.57L405.138 398.684L403.868 393.685L414.467 388.012H420.083V436.541H413.738L413.719 394.132Z" fill="white"/>
<path d="M475.698 47.2828C475.125 49.6217 474.099 53.3188 474.099 53.3188C474.183 54.3376 474.48 58.5651 474.839 63.7503L467.208 60.698C467.208 60.698 467.3 52.2505 466.956 51.7316C466.67 51.2967 466.193 51.8423 463.85 48.4999C463.179 47.5346 463.053 45.81 463.053 45.81C463.053 45.81 462.912 43.6886 463.389 43.4902C463.613 43.4148 463.857 43.4221 464.076 43.5111C464.295 43.6 464.475 43.7645 464.583 43.9748C464.759 44.3563 464.713 45.1957 464.884 45.562C465.056 45.9283 466.159 46.3709 466.624 46.348C467.09 46.3251 466.567 40.0716 466.567 40.0716C466.567 40.0716 466.308 38.3012 466.185 37.7175C466.075 37.2253 465.625 35.7754 465.625 35.7754C465.625 35.7754 465.094 33.6693 465.751 33.509C466.132 33.4136 467.116 35.1229 467.788 36.9429C468.513 38.8964 468.933 40.9682 469.131 40.9415C469.619 40.8767 469.36 37.4466 469.36 37.4466C469.12 36.6951 468.961 35.9199 468.887 35.1344C468.429 34.2263 468.124 32.5437 468.933 32.4025C469.081 32.3796 470.142 34.5163 470.142 34.5163C470.142 34.5163 470.562 36.0234 470.806 36.7293C471.233 37.9693 471.298 39.9304 471.523 40.7965C471.71 41.5177 471.878 41.22 471.954 41.2506C471.948 40.4708 471.894 39.6922 471.79 38.9193C471.794 38.1617 471.737 37.4051 471.619 36.6568C471.451 35.8698 471.341 35.0714 471.291 34.2683C471.161 32.4941 472.279 32.6772 472.664 34.2988C472.809 34.9131 472.966 35.5884 473.118 36.2714C473.721 38.9422 473.702 41.4909 473.988 41.5138C474.37 41.5405 474.114 36.878 474.114 36.878C474.114 36.878 474.686 34.295 475.259 36.6911C475.663 38.3764 475.858 40.1051 475.839 41.8381C475.789 42.5173 476.266 44.9439 475.698 47.2828Z" fill="#F8A492"/>
<path d="M475.201 57.4999C475.201 57.4999 466.613 55.4434 466.533 56.134C464.728 71.2394 463.919 76.6993 463.61 76.8557C462.572 77.3937 448.779 64.7798 446.318 63.9251C445.143 63.5169 443.861 63.5856 442.633 63.6199C439.71 63.7077 439.13 63.7191 439.13 63.7191H439.023V66.4739C442.32 69.4385 449.867 114.358 450.504 114.331C451.214 114.297 466.147 118.051 465.865 116.792C465.823 116.59 455.754 108.349 452.892 96.4596C451.935 92.4648 451.462 88.1686 450.943 84.4065C454.255 86.0663 467.2 92.419 469.257 91.5948C475.652 88.9813 475.201 57.4999 475.201 57.4999Z" fill="#3AC18E"/>
<path d="M500.883 137.263C500.883 137.263 514.76 148.134 515.226 150.06C515.893 152.838 528.599 149.187 525.527 148.622C524.822 148.492 522.567 147.92 522.38 147.821C521.388 147.29 509.026 132.41 509.026 132.41L500.883 137.263Z" fill="#F7A491"/>
<path d="M531.495 148.62L522.631 147.898C522.631 147.898 520.102 149.993 515.233 150.092C514.752 151.652 514.613 153.297 514.825 154.915C514.89 155.361 514.962 156.716 515.416 156.685C517.053 156.575 521.414 155.491 526.382 154.495C526.382 154.495 533.063 153.084 536.92 150.775C540.778 148.467 531.495 148.62 531.495 148.62Z" fill="#B75742"/>
<path d="M438.71 109.996C445.841 110.959 453.086 110.646 460.108 109.072C473.114 106.02 487.495 103.219 491.707 105.669C495.099 107.638 516.275 139.626 516.275 139.626L508.098 145.598L484.778 119.485C484.778 119.485 455.018 130.462 448.348 129.244C433.128 126.486 432.915 114.334 438.71 109.996Z" fill="#13375B"/>
<path d="M449.817 103.539L459.985 115.623L441.122 121.369L438.707 109.995L449.817 103.539Z" fill="#13375B"/>
<path d="M470.482 158.734C470.482 158.734 469.864 175.522 469.478 178.361C469.093 181.2 476.602 189.712 475.644 186.755C475.423 186.072 474.854 183.817 474.854 183.607C474.854 182.482 477.636 163.336 477.636 163.336L470.482 158.734Z" fill="#F7A491"/>
<path d="M480.44 192.859L474.9 183.846C474.9 183.846 471.848 182.614 469.451 178.379C467.852 178.695 466.339 179.354 465.018 180.31C464.636 180.58 462.172 182.397 462.347 182.812C462.984 184.339 466.365 187.654 470.058 191.264C470.058 191.264 475.297 195.487 479.158 197.784C483.019 200.081 480.44 192.859 480.44 192.859Z" fill="#B75742"/>
<path d="M486.953 125.645C483.397 120.906 454.72 116.404 454.72 116.404L446.708 101.035L429.027 111.94C429.027 111.94 430.793 126.011 432.121 129.769C433.888 134.779 445.773 135.035 453.03 134.958C459.707 134.89 471.905 136.252 471.905 136.252L467.78 172.647C467.78 172.647 475.888 174.494 478.17 174.197C478.46 174.162 491.371 131.536 486.953 125.645Z" fill="#355389"/>
<path d="M439.122 63.7734L429.145 64.3305C429.145 64.3305 428.916 64.3992 428.847 64.4144C428.035 64.5632 428.775 93.637 429.5 104.477C430.225 115.316 431.694 119.895 431.694 119.895C431.694 119.895 445.223 117.495 449.375 115.881C451.099 115.213 455.269 109.998 455.269 109.998C455.269 109.998 451.008 104.275 448.863 94.9648C447.207 87.7879 445.166 75.0672 443.999 72.4116C441.316 66.3107 439.122 63.7734 439.122 63.7734Z" fill="white"/>
<path d="M429.431 55.5002L429.145 64.3101C429.145 64.3101 435.605 75.4359 438.92 73.8868C441.702 72.5858 439.233 64.1193 439.233 64.1193C439.233 64.1193 438.752 62.181 438.088 59.949C437.619 58.3923 437.234 56.7059 437.26 55.4658C437.325 52.4554 429.431 55.5002 429.431 55.5002Z" fill="#F7A491"/>
<path d="M437.253 55.4658C437.322 52.4554 429.427 55.5002 429.427 55.5002L429.397 56.3625C429.64 56.7394 429.938 57.0776 430.282 57.3659C432.471 59.0534 435.219 59.8446 437.97 59.5789C437.543 58.2475 437.301 56.8633 437.253 55.4658Z" fill="#F47458"/>
<path d="M437.146 35.4141C437.146 35.4141 440.435 40.3741 440.683 44.5483C440.855 46.909 440.638 49.2819 440.042 51.5725L429.485 38.951L437.146 35.4141Z" fill="#184655"/>
<path d="M441.774 43.6917C441.923 45.1569 441.355 46.4122 440.507 46.4961C439.66 46.5801 438.848 45.4698 438.699 44.0084C438.55 42.5471 439.119 41.2918 439.969 41.2041C440.82 41.1163 441.625 42.2304 441.774 43.6917Z" fill="#F48C7F"/>
<path d="M426.066 40.9739C425.826 40.9205 425.848 53.0727 429.37 55.9343C432.892 58.7959 439.023 59.0439 440.817 56.1632C442.797 52.9773 440.916 40.1726 435.677 37.4675C430.438 34.7623 426.066 40.9739 426.066 40.9739Z" fill="#F7A491"/>
<path d="M425.173 33.4325C422.502 35.7905 421.182 37.5113 419.362 41.7045C417.126 46.8592 421.564 52.197 425.288 54.3184C429.011 56.4398 429.317 59.0076 429.317 59.0076L429.469 57.4241C429.545 56.941 429.53 56.4479 429.424 55.9705C429.291 55.526 429.114 55.0964 428.893 54.6885C428.576 54.0093 427.558 51.6895 427.161 51.079C426.116 49.4613 425.91 49.1141 426.425 47.5765C426.806 46.3975 426.364 43.7915 426.978 41.8533L431.988 40.7735C431.988 40.7735 435.124 40.0104 436.707 38.1942C441.251 32.9365 432.266 27.0913 425.173 33.4325Z" fill="#184655"/>
<path d="M427.619 48.9077C428.233 50.2393 428.107 51.6128 427.333 51.96C426.558 52.3073 425.425 51.5289 424.811 50.1935C424.196 48.8581 424.322 47.4883 425.097 47.1411C425.871 46.7939 427.001 47.5723 427.619 48.9077Z" fill="#F7A491"/>
<path d="M393.478 15.3845C394.047 17.7272 395.077 21.4244 395.077 21.4244C394.993 22.4393 394.695 26.6706 394.337 31.852L401.968 28.7997C401.968 28.7997 401.876 20.3523 402.216 19.8372C402.506 19.3984 402.979 19.944 405.321 16.6017C405.997 15.6363 406.123 13.9118 406.123 13.9118C406.123 13.9118 406.264 11.7904 405.787 11.592C405.562 11.5182 405.318 11.5268 405.098 11.6162C404.879 11.7057 404.698 11.8701 404.589 12.0803C404.417 12.4619 404.463 13.3013 404.291 13.6676C404.119 14.0339 403.017 14.4764 402.551 14.4536C402.086 14.4307 402.609 8.17713 402.609 8.17713C402.609 8.17713 402.868 6.40294 402.99 5.82299C403.105 5.32698 403.555 3.8771 403.555 3.8771C403.555 3.8771 404.081 1.77479 403.429 1.61072C403.047 1.51533 402.063 3.22847 401.391 5.04463C400.666 6.99815 400.247 9.07376 400.048 9.04324C399.56 8.97837 399.819 5.55209 399.819 5.55209C400.059 4.80044 400.218 4.02531 400.293 3.23993C400.75 2.33185 401.056 0.645417 400.247 0.50806C400.098 0.481352 399.033 2.62183 399.033 2.62183C399.033 2.62183 398.618 4.12892 398.373 4.83097C397.946 6.07481 397.881 8.03596 397.656 8.90207C397.469 9.61937 397.301 9.32558 397.225 9.35229C397.149 9.37899 397.267 8.38317 397.389 7.02105C397.383 6.2634 397.441 5.50658 397.561 4.75847C397.728 3.97142 397.836 3.17308 397.885 2.37001C398.019 0.595818 396.901 0.778954 396.515 2.40052C396.366 3.01863 396.214 3.69396 396.057 4.37693C395.458 7.04775 395.477 9.59648 395.191 9.61555C394.81 9.64608 395.062 4.97978 395.062 4.97978C395.062 4.97978 394.493 2.40052 393.917 4.79663C393.508 6.47985 393.313 8.2079 393.337 9.93987C393.402 10.619 392.91 13.0456 393.478 15.3845Z" fill="#F8A492"/>
<path d="M429.145 64.31C429.145 64.31 419.255 63.8483 416.703 62.696C415.158 61.994 402.448 51.7533 402.448 51.7533L402.589 24.3354L393.654 23.6562C393.654 23.6562 389.018 53.9624 390.624 57.2781C392.28 60.712 410.884 74.8101 414.604 80.9339C416.749 84.4594 421.217 132.408 421.896 132.824C426.707 135.331 441.572 137.834 441.221 136.311C431.53 94.33 429.145 64.31 429.145 64.31Z" fill="#3AC18E"/>
<path d="M251.673 187.569C252.241 189.907 253.268 193.608 253.268 193.608C253.188 194.623 252.886 198.855 252.531 204.036L260.162 200.984C260.162 200.984 260.071 192.536 260.41 192.017C260.7 191.582 261.173 192.128 263.516 188.786C264.191 187.82 264.317 186.115 264.317 186.115C264.317 186.115 264.455 183.993 263.981 183.795C263.756 183.721 263.512 183.73 263.293 183.819C263.073 183.909 262.893 184.073 262.783 184.283C262.612 184.665 262.657 185.504 262.482 185.871C262.306 186.237 261.208 186.68 260.746 186.657C260.284 186.634 260.803 180.38 260.803 180.38C260.803 180.38 261.063 178.606 261.185 178.026C261.299 177.53 261.749 176.08 261.749 176.08C261.749 176.08 262.276 173.974 261.623 173.814C261.242 173.718 260.258 175.432 259.582 177.248C258.857 179.201 258.438 181.277 258.239 181.246C257.755 181.182 258.01 177.755 258.01 177.755C258.252 177.004 258.411 176.229 258.483 175.443C258.941 174.535 259.246 172.849 258.441 172.711C258.293 172.684 257.228 174.825 257.228 174.825C257.228 174.825 256.812 176.351 256.568 177.034C256.137 178.278 256.072 180.239 255.851 181.101C255.664 181.822 255.496 181.529 255.42 181.555C255.343 181.582 255.462 180.586 255.58 179.224C255.641 178.537 255.561 177.744 255.755 176.962C255.92 176.174 256.029 175.376 256.08 174.573C256.213 172.799 255.095 172.982 254.71 174.604C254.561 175.222 254.408 175.893 254.252 176.58C253.653 179.251 253.672 181.8 253.382 181.819C253.001 181.845 253.256 177.183 253.256 177.183C253.256 177.183 252.684 174.604 252.112 177C251.703 178.683 251.508 180.411 251.532 182.143C251.593 182.815 251.104 185.23 251.673 187.569Z" fill="#F8A492"/>
<path d="M332.553 181.405C331.984 183.744 330.954 187.441 330.954 187.441C331.038 188.46 331.336 192.687 331.694 197.872L324.063 194.82C324.063 194.82 324.155 186.373 323.815 185.854C323.525 185.419 323.052 185.964 320.71 182.622C320.034 181.657 319.908 179.951 319.908 179.951C319.908 179.951 319.767 177.83 320.244 177.631C320.469 177.556 320.714 177.564 320.934 177.653C321.154 177.743 321.334 177.908 321.442 178.12C321.614 178.501 321.568 179.337 321.74 179.703C321.912 180.069 323.014 180.512 323.48 180.489C323.945 180.466 323.422 174.213 323.422 174.213C323.422 174.213 323.163 172.442 323.041 171.862C322.926 171.366 322.476 169.916 322.476 169.916C322.476 169.916 321.95 167.81 322.602 167.65C322.984 167.555 323.968 169.264 324.64 171.084C325.365 173.038 325.784 175.109 325.983 175.083C326.471 175.018 326.212 171.588 326.212 171.588C325.973 170.844 325.814 170.076 325.738 169.298C325.281 168.39 324.975 166.704 325.784 166.563C325.933 166.54 326.998 168.68 326.998 168.68C326.998 168.68 327.413 170.184 327.658 170.889C328.085 172.133 328.15 174.094 328.375 174.957C328.562 175.678 328.73 175.38 328.806 175.411C328.882 175.441 328.76 174.442 328.642 173.079C328.648 172.322 328.59 171.565 328.47 170.817C328.304 170.03 328.194 169.231 328.142 168.428C328.012 166.654 329.13 166.837 329.516 168.459C329.665 169.077 329.817 169.749 329.974 170.435C330.573 173.106 330.554 175.651 330.84 175.674C331.221 175.701 330.969 171.038 330.969 171.038C330.969 171.038 331.538 168.459 332.114 170.851C332.524 172.518 332.724 174.229 332.709 175.945C332.629 176.639 333.121 179.066 332.553 181.405Z" fill="#F8A492"/>
<path d="M285.016 208.863C285.016 208.863 288.896 204.773 292.014 209.748C292.702 209.374 293.507 209.275 294.266 209.471C295.024 209.666 295.681 210.141 296.104 210.801C296.104 210.801 300.446 209.496 301.499 215.986C301.499 215.986 303.735 215.566 304.028 218.222C304.217 219.776 303.844 221.346 302.975 222.648C302.975 222.648 304.231 223.59 303.662 226.028C303.561 226.597 303.3 227.124 302.909 227.548C302.519 227.973 302.015 228.277 301.457 228.425C301.457 228.425 300.995 231.923 299.477 232.976C297.958 234.029 295.894 233.522 295.894 233.522C295.894 233.522 295.345 235.43 293.574 235.25C291.804 235.071 289.614 233.396 287.63 234.155C285.646 234.915 280.506 234.113 280.506 234.113C280.506 234.113 274.73 231.542 276.458 225.639C276.458 225.639 273.406 222.9 276.076 219.611C276.076 219.611 274.138 214.468 277.984 211.434C281.83 208.401 285.016 208.863 285.016 208.863Z" fill="#07345A"/>
<path d="M311.724 380.168C311.724 380.168 315.948 385.407 317.001 386.048C318.054 386.689 316.532 394.304 313.666 394.804C312.049 395.086 311.152 393.305 311.152 393.305L311.614 391.114L305.578 384.895L311.724 380.168Z" fill="#F7A491"/>
<path d="M289.942 381.461C289.942 381.461 293.464 387.184 294.425 387.97C295.386 388.756 292.899 396.097 289.999 396.223C288.358 396.299 287.71 394.418 287.71 394.418L288.45 392.305L283.257 385.364L289.942 381.461Z" fill="#F7A491"/>
<path d="M294.215 387.746C293.238 389.004 292.194 390.207 291.086 391.352C290.054 392.284 288.97 393.158 287.84 393.969C287.84 393.969 285.772 397.72 285.207 399.032C283.952 401.943 282.536 405.19 282.742 406.82C282.807 407.346 283.982 407.899 284.963 407.583C289.045 406.327 299.48 396.781 300.797 394.229C302.315 391.279 294.215 387.746 294.215 387.746Z" fill="#07345A"/>
<path d="M264.413 300.394C264.794 299.334 265.176 298.349 265.508 297.43C269.846 298.376 274.749 299.418 279.793 300.482L280.407 318.968C280.407 317.541 276.614 348.454 276.614 348.454C276.614 348.454 286.416 370.152 293.12 382.793C290.369 386.227 289.079 387.333 285.108 389.661C274.703 377.188 261.07 354.364 260.521 350.568C260.216 348.408 259.903 313.123 264.413 300.394Z" fill="#828BB7"/>
<path d="M303.17 305.738C301.846 320.142 298.897 347.682 299.141 349.895C299.904 352.657 312.999 378.129 315.36 381.849C313.487 384.673 310.583 387.725 307.462 388.568C306.848 388.736 285.199 357.93 284.02 355.484C282.685 352.722 280.464 337.643 280.422 318.978L279.808 300.492C288.213 302.282 295.94 304.041 303.17 305.738Z" fill="#9AAAF4"/>
<path d="M275.577 240.074L285.466 241.433C285.466 241.433 293.395 241.627 294.379 241.627C295.364 241.627 301.571 277.71 303.368 291.289C305.166 304.868 303.777 307.272 303.777 307.272C303.777 307.272 291.235 310.095 281.956 309.271C272.307 308.417 261.452 303.209 261.452 303.209C261.452 303.209 269.697 277.111 271.334 268.965C272.971 260.819 275.577 240.074 275.577 240.074Z" fill="#6FE6EF"/>
<path d="M251.589 196.365C251.589 196.365 250.956 223.267 251.97 225.324C253.447 228.319 270.056 249.545 270.056 249.545C270.056 249.545 262.12 282.739 258.785 294.216C258.449 295.361 256.961 302.827 256.961 303.556C256.961 305.17 263.981 307.215 264.813 307.093C265.576 306.986 271.681 275.402 275.596 259.945C276.92 254.709 279.192 249.759 282.299 245.34L285.02 241.479L264.153 220.562C264.153 220.562 261.582 197.288 261.582 195.354C261.582 194.846 252.604 194.468 251.589 196.365Z" fill="#03125E"/>
<path d="M294.021 241.574L320.038 215.06C320.038 215.06 323.667 189.989 323.922 189.046C324.178 188.104 330.637 187.615 333.243 187.363C334.079 187.28 332.805 214.072 331.561 218.555C330.088 223.858 310.419 248.025 310.419 248.025C310.419 248.025 306.894 261.116 307.749 270.72C309.156 286.665 312.96 308.6 312.277 309.29C308.05 311.961 291.819 312.24 290.793 310.584C279.446 292.319 294.021 241.574 294.021 241.574Z" fill="#03125E"/>
<path d="M285.657 236.614L284.955 241.822C284.955 241.822 283.383 249.327 285.405 250.773C287.427 252.219 294.009 241.616 294.009 241.616L293.315 228.418L285.657 236.614Z" fill="#F7A491"/>
<path d="M293.54 232.695C291.869 237.197 287.889 239.944 285.062 241.036L285.657 236.621L293.315 228.418L293.54 232.695Z" fill="#F47458"/>
<path d="M304.093 219.445C304.093 221.455 302.949 223.085 301.541 223.085C300.133 223.085 298.988 221.455 298.988 219.445C298.988 217.434 300.133 215.805 301.541 215.805C302.949 215.805 304.093 217.442 304.093 219.445Z" fill="#07345A"/>
<path d="M293.315 213.721C295.03 213.721 296.421 212.785 296.421 211.63C296.421 210.475 295.03 209.539 293.315 209.539C291.599 209.539 290.209 210.475 290.209 211.63C290.209 212.785 291.599 213.721 293.315 213.721Z" fill="#07345A"/>
<path d="M288.641 214.555C287.678 214.229 286.655 214.118 285.644 214.23C284.633 214.342 283.659 214.674 282.791 215.203C281.922 215.732 281.18 216.444 280.617 217.291C280.053 218.137 279.682 219.097 279.529 220.102C279.2 222.315 279.011 224.547 278.965 226.783C278.854 232.865 282.017 238.787 284.768 238.787C287.519 238.787 295.165 234.849 295.451 226.196C295.612 220.881 292.948 216.039 288.641 214.555Z" fill="#F7A491"/>
<path d="M293.41 226.899C293.41 228.238 294.303 229.326 295.398 229.326C296.493 229.326 297.386 228.238 297.386 226.899C297.386 225.56 296.497 224.469 295.398 224.469C294.299 224.469 293.41 225.549 293.41 226.899Z" fill="#F7A491"/>
<path d="M276.672 211.527C273.818 213.786 272.818 217.22 274.44 219.196C276.061 221.173 279.686 220.944 282.536 218.681C285.386 216.419 286.39 212.989 284.772 211.012C283.154 209.036 279.526 209.265 276.672 211.527Z" fill="#07345A"/>
<path d="M286.779 215.161C288.241 215.161 289.427 214.365 289.427 213.383C289.427 212.401 288.241 211.605 286.779 211.605C285.316 211.605 284.131 212.401 284.131 213.383C284.131 214.365 285.316 215.161 286.779 215.161Z" fill="#07345A"/>
<path d="M276.241 220.942C276.246 221.388 276.383 221.823 276.635 222.191C276.887 222.56 277.242 222.846 277.656 223.013C278.069 223.18 278.523 223.221 278.961 223.131C279.398 223.04 279.798 222.823 280.112 222.505C280.426 222.188 280.639 221.785 280.724 221.347C280.809 220.908 280.763 220.455 280.591 220.043C280.419 219.631 280.129 219.279 279.757 219.032C279.386 218.784 278.949 218.652 278.503 218.652C277.901 218.659 277.325 218.904 276.902 219.332C276.478 219.761 276.24 220.339 276.241 220.942Z" fill="#07345A"/>
<path d="M316.749 385.855C315.94 387.226 315.059 388.553 314.109 389.831C313.203 390.889 312.239 391.895 311.221 392.845C311.221 392.845 309.649 396.829 309.256 398.187C308.382 401.239 307.394 404.921 307.806 406.512C307.936 407.024 309.061 407.997 309.988 407.394C313.567 405.062 323.129 394.15 324.105 391.441C325.235 388.328 316.749 385.855 316.749 385.855Z" fill="#07345A"/>
<path d="M503.008 274.699C503.008 274.699 491.596 276.458 483.168 284.864C474.74 293.269 469.703 306.772 469.703 306.772L486.964 311.805C486.964 311.805 480.066 295.707 503.008 274.699Z" fill="#FAE0B2"/>
<path d="M506.168 282.984L504.931 273.262L496.225 268.768C496.001 268.653 495.814 268.478 495.685 268.263C495.556 268.047 495.49 267.8 495.494 267.549C495.498 267.298 495.573 267.053 495.71 266.842C495.846 266.631 496.039 266.463 496.267 266.356L505.13 262.159L506.709 252.487C506.75 252.239 506.859 252.006 507.024 251.817C507.19 251.627 507.405 251.488 507.646 251.414C507.886 251.341 508.143 251.336 508.386 251.401C508.629 251.466 508.849 251.598 509.022 251.781L515.737 258.92L525.424 257.436C525.672 257.398 525.926 257.43 526.157 257.529C526.387 257.628 526.586 257.789 526.73 257.994C526.874 258.2 526.957 258.441 526.972 258.692C526.986 258.942 526.929 259.192 526.809 259.412L522.093 268.005L526.5 276.78C526.607 277.004 526.651 277.253 526.626 277.5C526.6 277.746 526.507 277.981 526.357 278.179C526.207 278.376 526.005 278.528 525.773 278.618C525.542 278.708 525.291 278.732 525.046 278.688L515.416 276.86L508.453 283.755C508.276 283.932 508.052 284.056 507.808 284.113C507.564 284.17 507.309 284.157 507.072 284.077C506.834 283.997 506.624 283.852 506.464 283.659C506.304 283.466 506.202 283.232 506.168 282.984Z" fill="#F7B62F"/>
<path d="M202.747 326.461C202.747 326.461 214.159 328.22 222.588 336.625C231.016 345.031 236.048 358.53 236.048 358.53L218.791 363.562C218.791 363.562 225.69 347.469 202.747 326.461Z" fill="#FAE0B2"/>
<path d="M199.584 334.741L200.82 325.019L209.531 320.525C209.754 320.41 209.941 320.234 210.07 320.018C210.199 319.803 210.265 319.555 210.261 319.304C210.256 319.053 210.182 318.808 210.045 318.597C209.909 318.385 209.716 318.217 209.489 318.109L200.626 313.912L199.042 304.244C198.999 304 198.889 303.773 198.725 303.588C198.562 303.402 198.35 303.266 198.113 303.193C197.877 303.12 197.624 303.113 197.385 303.174C197.145 303.235 196.926 303.361 196.753 303.538L190.011 310.692L180.324 309.204C180.075 309.166 179.821 309.198 179.59 309.297C179.358 309.396 179.159 309.557 179.015 309.763C178.871 309.97 178.787 310.212 178.774 310.463C178.76 310.714 178.817 310.964 178.939 311.184L183.662 319.792L179.255 328.545C179.142 328.769 179.094 329.021 179.116 329.272C179.138 329.522 179.23 329.761 179.382 329.962C179.533 330.163 179.737 330.318 179.972 330.409C180.207 330.499 180.462 330.522 180.709 330.475L190.335 328.648L197.302 335.542C197.482 335.719 197.708 335.842 197.953 335.896C198.199 335.951 198.455 335.936 198.693 335.853C198.931 335.769 199.14 335.621 199.298 335.424C199.455 335.228 199.554 334.991 199.584 334.741Z" fill="#F7B62F"/>
<path d="M580.207 283.196L582.877 278.686L580.676 273.932C580.619 273.81 580.597 273.675 580.613 273.541C580.629 273.407 580.683 273.28 580.768 273.176C580.853 273.071 580.965 272.992 581.093 272.949C581.22 272.905 581.357 272.898 581.489 272.929L586.598 274.073L590.44 270.51C590.538 270.418 590.661 270.356 590.793 270.33C590.925 270.304 591.062 270.316 591.188 270.364C591.314 270.412 591.424 270.494 591.506 270.602C591.587 270.709 591.637 270.837 591.649 270.971L592.138 276.187L596.716 278.74C596.834 278.804 596.932 278.901 596.998 279.019C597.064 279.136 597.095 279.27 597.088 279.405C597.081 279.539 597.037 279.669 596.959 279.78C596.882 279.89 596.775 279.977 596.651 280.029L591.844 282.109L590.829 287.248C590.804 287.381 590.742 287.504 590.65 287.603C590.559 287.702 590.441 287.773 590.31 287.808C590.18 287.843 590.043 287.84 589.914 287.801C589.785 287.761 589.669 287.686 589.581 287.584L586.121 283.654L580.916 284.276C580.783 284.292 580.648 284.271 580.526 284.214C580.404 284.158 580.3 284.068 580.227 283.956C580.153 283.844 580.112 283.713 580.108 283.579C580.105 283.445 580.139 283.312 580.207 283.196Z" fill="#466EB6"/>
<path d="M322.64 79.2365L326.009 73.5477L323.232 67.5498C323.161 67.3958 323.135 67.2253 323.156 67.0573C323.177 66.8893 323.244 66.7305 323.351 66.5986C323.457 66.4668 323.597 66.367 323.757 66.3106C323.917 66.2542 324.089 66.2433 324.254 66.2792L330.706 67.7253L335.556 63.2307C335.68 63.1141 335.834 63.0348 336.001 63.0017C336.168 62.9686 336.341 62.9831 336.5 63.0436C336.659 63.1041 336.798 63.208 336.901 63.3437C337.004 63.4793 337.066 63.6411 337.082 63.8106L337.7 70.3923L343.473 73.6163C343.62 73.6992 343.742 73.8216 343.823 73.9698C343.905 74.118 343.944 74.2861 343.935 74.4551C343.926 74.6241 343.871 74.7873 343.774 74.9263C343.678 75.0653 343.544 75.1746 343.389 75.2417L337.322 77.8629L336.04 84.3492C336.008 84.5156 335.929 84.6696 335.814 84.7938C335.699 84.9179 335.551 85.0073 335.387 85.0517C335.224 85.0962 335.051 85.094 334.888 85.0454C334.726 84.9968 334.58 84.9036 334.468 84.7766L330.1 79.8165L323.537 80.6063C323.368 80.6272 323.196 80.6003 323.041 80.5286C322.887 80.457 322.755 80.3433 322.662 80.2007C322.569 80.0581 322.517 79.8921 322.513 79.7217C322.509 79.5513 322.553 79.3832 322.64 79.2365Z" fill="#F79C8D"/>
<path d="M569.821 93.3633L560.931 99.3001L565.903 107.935L557.402 114.165L561.137 123.002L555.536 128.706L558.424 131.541L565.914 123.914L562.373 115.539L571.217 109.052L566.326 100.563L574.384 95.1833L569.821 93.3633Z" fill="#F48C7F"/>
<path d="M583.48 236.398L577.189 227.756L568.768 233.074L562.194 224.833L553.514 228.923L547.588 223.559L544.872 226.561L552.8 233.734L561.026 229.858L567.864 238.431L576.147 233.2L581.847 241.033L583.48 236.398Z" fill="#F48C7F"/>
<path d="M288.66 57.3549L290.793 46.8815L281.185 44.2527L282.83 33.8403L273.959 30.1965L273.917 22.2031L269.869 22.2222L269.926 32.9131L278.335 36.3699L276.622 47.1982L286.073 49.7851L284.139 59.2779L288.66 57.3549Z" fill="#F48C7F"/>
<path d="M205.529 71.293L209.6 78.8934L218.375 78.4012L222.336 87.2416L231.523 83.8382L236.442 93.6401L245.29 91.5454L251.562 100.203L248.285 102.576L243.596 96.1049L234.259 98.314L229.532 88.8899L220.188 92.3543L215.823 82.5982L207.249 83.0789L203.476 76.0318L197.913 77.5236L196.864 73.6166L205.529 71.293Z" fill="#F7B62F"/>
<path d="M167.664 131.295L161.185 131.955L158.976 121.646L149.384 121.44L146.473 113.996L142.703 115.473L146.603 125.427L155.691 125.622L157.988 136.347L167.74 135.355L167.664 131.295Z" fill="#50BFA5"/>
<path d="M156.012 243.051L153.585 249.094L143.432 246.267L138.796 254.669L130.849 253.795L130.406 257.817L141.036 258.984L145.428 251.025L155.993 253.967L159.64 244.871L156.012 243.051Z" fill="#50BFA5"/>
<path d="M172.842 190.529L165.165 192.887L162.757 200.549C162.72 200.693 162.641 200.823 162.53 200.923C162.42 201.023 162.282 201.088 162.135 201.111C161.988 201.134 161.837 201.113 161.702 201.051C161.566 200.989 161.452 200.889 161.372 200.762L156.756 194.192L148.743 194.272C148.597 194.273 148.454 194.233 148.33 194.157C148.205 194.08 148.104 193.971 148.039 193.84C147.973 193.71 147.945 193.564 147.957 193.419C147.97 193.273 148.023 193.134 148.11 193.017L152.933 186.599L150.353 178.999C150.308 178.861 150.301 178.712 150.335 178.57C150.369 178.428 150.442 178.299 150.545 178.196C150.648 178.093 150.778 178.02 150.92 177.987C151.062 177.954 151.211 177.961 151.349 178.007L158.946 180.613L165.394 175.828C165.511 175.742 165.651 175.69 165.796 175.678C165.942 175.667 166.088 175.696 166.218 175.762C166.348 175.829 166.456 175.93 166.532 176.055C166.607 176.18 166.647 176.323 166.645 176.469L166.516 184.482L173.055 189.141C173.183 189.219 173.284 189.334 173.347 189.47C173.41 189.606 173.431 189.758 173.408 189.906C173.386 190.054 173.32 190.192 173.219 190.303C173.118 190.414 172.987 190.493 172.842 190.529Z" fill="#FEB70F"/>
<path d="M644.02 220.547L636.347 222.905L633.94 230.567C633.895 230.705 633.813 230.829 633.702 230.924C633.591 231.018 633.455 231.08 633.311 231.102C633.167 231.124 633.02 231.106 632.886 231.049C632.751 230.992 632.635 230.899 632.551 230.78L627.938 224.21L619.926 224.286C619.777 224.296 619.628 224.261 619.498 224.187C619.369 224.113 619.264 224.003 619.196 223.869C619.129 223.736 619.102 223.586 619.119 223.438C619.136 223.289 619.196 223.149 619.292 223.035L624.111 216.617L621.559 208.986C621.511 208.848 621.504 208.699 621.537 208.556C621.57 208.413 621.643 208.283 621.747 208.179C621.851 208.076 621.981 208.004 622.124 207.971C622.267 207.938 622.416 207.946 622.554 207.994L630.151 210.597L636.599 205.816C636.714 205.721 636.855 205.661 637.003 205.645C637.152 205.629 637.302 205.657 637.434 205.725C637.567 205.793 637.677 205.899 637.75 206.029C637.824 206.159 637.857 206.308 637.847 206.457L637.721 214.469L644.261 219.128C644.399 219.204 644.51 219.322 644.578 219.464C644.647 219.607 644.669 219.767 644.643 219.923C644.617 220.078 644.543 220.222 644.431 220.334C644.319 220.446 644.176 220.52 644.02 220.547Z" fill="#FEB70F"/>
<path d="M563.018 182.838L566.17 188.077C566.246 188.205 566.357 188.309 566.49 188.377C566.622 188.445 566.771 188.475 566.92 188.463C567.068 188.45 567.211 188.397 567.33 188.307C567.45 188.218 567.542 188.098 567.596 187.959L569.836 182.27L575.792 180.904C575.937 180.871 576.07 180.797 576.176 180.692C576.281 180.587 576.355 180.455 576.389 180.31C576.424 180.165 576.416 180.013 576.369 179.872C576.321 179.731 576.235 179.606 576.12 179.511L571.404 175.623L571.931 169.519C571.944 169.37 571.915 169.221 571.847 169.088C571.78 168.956 571.676 168.844 571.549 168.767C571.421 168.69 571.275 168.65 571.126 168.652C570.977 168.654 570.832 168.698 570.706 168.778L565.551 172.064L559.92 169.679C559.783 169.621 559.632 169.602 559.485 169.625C559.338 169.648 559.2 169.712 559.087 169.809C558.974 169.906 558.891 170.033 558.847 170.175C558.802 170.318 558.799 170.469 558.836 170.614L560.362 176.535L556.356 181.152C556.258 181.264 556.194 181.402 556.17 181.549C556.146 181.696 556.164 181.847 556.222 181.984C556.279 182.122 556.374 182.24 556.496 182.327C556.617 182.413 556.761 182.463 556.909 182.472L563.018 182.838Z" fill="#F47458"/>
<path d="M551.949 302.816C551.954 303.539 551.744 304.248 551.345 304.852C550.947 305.455 550.378 305.928 549.711 306.208C549.045 306.489 548.31 306.565 547.599 306.427C546.889 306.29 546.236 305.945 545.722 305.436C545.208 304.926 544.857 304.276 544.712 303.567C544.568 302.858 544.638 302.123 544.912 301.453C545.186 300.784 545.653 300.211 546.253 299.807C546.853 299.403 547.559 299.186 548.283 299.184C549.25 299.181 550.179 299.561 550.867 300.242C551.554 300.923 551.943 301.848 551.949 302.816Z" fill="#50BFA5"/>
<path d="M124.301 192.054C124.301 194.072 122.527 195.709 120.341 195.709C118.155 195.709 116.373 194.072 116.373 192.054C116.373 190.035 118.143 188.398 120.329 188.398C122.516 188.398 124.301 190.035 124.301 192.054Z" fill="#50BFA5"/>
<path d="M331.29 17.2686L336.09 18.2149C336.09 18.2149 343.099 14.9412 343.633 13.3616C344.167 11.782 343.923 8.14587 344.949 7.91694C345.353 7.81268 345.774 7.78922 346.187 7.84793C346.601 7.90663 346.998 8.04634 347.357 8.25902C347.716 8.47171 348.03 8.7532 348.28 9.08734C348.53 9.42149 348.712 9.80172 348.814 10.2062C349.387 11.9575 347.403 17.4556 347.88 17.9745C348.181 18.2873 350.932 18.9093 352.931 19.3328C353.583 19.4725 354.183 19.7894 354.665 20.2486C355.148 20.7078 355.495 21.2913 355.667 21.9349C355.789 22.3703 355.759 22.8341 355.582 23.2501C355.405 23.6662 355.092 24.0097 354.694 24.2242L353.431 24.8995L354.026 26.2159C354.237 26.6887 354.256 27.225 354.08 27.7118C353.903 28.1985 353.545 28.5978 353.08 28.8256L352.096 29.2949L352.531 30.0886C352.661 30.3308 352.74 30.5976 352.763 30.872C352.785 31.1463 352.751 31.4224 352.661 31.6827C352.571 31.943 352.429 32.1818 352.242 32.3842C352.055 32.5866 351.829 32.7481 351.577 32.8586L350.714 33.2401L350.779 33.4729C350.915 33.9421 350.874 34.445 350.663 34.8855C350.452 35.3261 350.086 35.6734 349.635 35.8613L348.772 36.2047L335.987 33.6331C334.789 33.3972 333.653 32.9138 332.652 32.2138L328.306 30.5808C328.079 30.4926 327.891 30.326 327.776 30.111C327.661 29.8961 327.627 29.6472 327.68 29.4094L330.107 18.0584C330.162 17.7985 330.317 17.5705 330.538 17.423C330.759 17.2754 331.029 17.22 331.29 17.2686Z" fill="#96D9C9"/>
</g>
<defs>
<clipPath id="clip0_2360_2199">
<rect width="723.964" height="562.353" fill="white" transform="translate(0.10437 0.507812)"/>
</clipPath>
</defs>
</svg>
