<svg width="114" height="88" viewBox="0 0 114 88" fill="none" xmlns="http://www.w3.org/2000/svg">
<path d="M54.1238 79.8634H29.5977L27.8768 42.4141H55.8448L54.1238 79.8634Z" fill="#21BEDA"/>
<path d="M43.748 79.8634H39.9737L39.7096 42.4141H44.012L43.748 79.8634Z" fill="#303873"/>
<g style="mix-blend-mode:multiply" opacity="0.2">
<path d="M28.1545 48.4338L55.7082 45.3239L55.8448 42.4141H27.8768L28.1545 48.4338Z" fill="#606060"/>
</g>
<path d="M57.4747 44.3236H26.2469L25.9828 39.2129H57.7388L57.4747 44.3236Z" fill="#1BB1CC"/>
<path d="M39.7232 44.3236H43.9984L44.0348 39.2129H39.6868L39.7232 44.3236Z" fill="#1C2144"/>
<path d="M41.7903 39.2176C41.776 39.2221 41.7629 39.2295 41.7519 39.2393C41.7409 39.249 41.7323 39.2609 41.7265 39.2742C41.7265 39.3133 41.7265 39.2742 41.7265 39.2742L41.6673 39.1915L41.549 39.0306L41.3076 38.7087C41.1528 38.4956 40.9798 38.2738 40.8114 38.0911C40.4745 37.688 40.1239 37.3053 39.7597 36.9428C39.0555 36.2376 38.2527 35.6287 37.374 35.1334C36.5235 34.6691 35.6016 34.3359 34.6423 34.1461L33.923 34.0243L33.5906 33.9939C33.4813 33.9939 33.3903 33.9939 33.2901 33.9939C33.1472 33.9936 33.0049 34.0111 32.8667 34.0461C32.8075 34.0809 32.7848 34.046 32.8348 34.0243C32.8849 34.0025 32.8348 33.946 32.8348 34.0243C32.8348 34.0243 32.8348 34.0678 32.8348 34.0939C32.8348 34.12 32.8348 34.1417 32.8348 34.1765C32.8509 34.2518 32.8722 34.3259 32.8986 34.3984C33.0613 34.7779 33.2839 35.1314 33.5587 35.4466C34.2046 36.1854 34.9738 36.8174 35.8351 37.3169C36.7247 37.8558 37.6865 38.2772 38.6943 38.5695C39.2127 38.7229 39.7403 38.8463 40.2742 38.9393C40.5473 38.9915 40.8205 39.0088 41.0982 39.0567C41.206 39.0708 41.3125 39.0926 41.4169 39.1219C41.5396 39.1597 41.6642 39.1916 41.7903 39.2176ZM42.0907 39.4047C41.9587 39.4525 41.8085 39.509 41.6354 39.5569C41.4617 39.6062 41.2855 39.6469 41.1073 39.6787C40.8159 39.7222 40.5246 39.77 40.2286 39.7961C39.6328 39.8571 39.0323 39.8658 38.4348 39.8222C37.2048 39.7405 35.9988 39.4566 34.8699 38.9827C34.2888 38.743 33.7325 38.4517 33.2082 38.1128C32.6613 37.7734 32.1558 37.3766 31.7012 36.9298C31.1962 36.4495 30.7805 35.8905 30.4719 35.277C30.3866 35.1005 30.3136 34.9189 30.2534 34.7333C30.2233 34.6316 30.199 34.5286 30.1805 34.4245C30.1514 34.3163 30.1347 34.2055 30.1305 34.0939C30.0798 33.5601 30.2142 33.0252 30.5129 32.5716C30.5989 32.4509 30.6916 32.3348 30.7906 32.2236C30.8953 32.1323 31.0091 32.0409 31.123 31.9539C31.2302 31.874 31.3462 31.8055 31.469 31.7495C31.5827 31.6924 31.6997 31.6416 31.8195 31.5973C32.2305 31.4624 32.6601 31.3862 33.0943 31.3711C33.281 31.3711 33.4859 31.3711 33.6634 31.3711L34.1961 31.4103C34.5376 31.4624 34.8608 31.532 35.1886 31.5973C36.5 31.8847 37.7283 32.4462 38.7854 33.2414C39.7818 33.9949 40.5969 34.9442 41.1756 36.0251C41.3149 36.2794 41.4395 36.5407 41.549 36.808C41.663 37.0704 41.7603 37.3391 41.8403 37.6126C41.9177 37.8823 41.9815 38.152 42.0316 38.426C42.0589 38.5609 42.0771 38.7 42.0907 38.861V39.0654V39.1698C42.0882 39.2002 42.0882 39.2307 42.0907 39.2611C42.1002 39.3042 42.1002 39.3486 42.0907 39.3916V39.4047Z" fill="#303873"/>
<path d="M41.6263 39.3899C41.6027 39.3425 41.5917 39.2902 41.5945 39.2377C41.597 39.2073 41.597 39.1767 41.5945 39.1463V39.0419V38.8375C41.5945 38.6983 41.6263 38.5591 41.6537 38.4026C41.7037 38.1285 41.7675 37.8589 41.8449 37.5892C41.9249 37.3156 42.0222 37.0469 42.1363 36.7845C42.2457 36.5173 42.3703 36.2559 42.5096 36.0016C43.0898 34.9218 43.9047 33.9727 44.8998 33.2179C45.9569 32.4228 47.1852 31.8613 48.4966 31.5738C48.8244 31.5086 49.1476 31.439 49.4891 31.3868L50.0218 31.3477C50.2039 31.3477 50.4042 31.3477 50.5909 31.3477C51.0251 31.3628 51.4547 31.439 51.8657 31.5738C51.9855 31.6181 52.1025 31.669 52.2162 31.7261C52.339 31.782 52.455 31.8506 52.5622 31.9305C52.6806 32.0175 52.7899 32.1088 52.8946 32.2001C52.9936 32.3113 53.0863 32.4275 53.1723 32.5481C53.471 33.0018 53.6054 33.5367 53.5548 34.0705C53.5506 34.182 53.5338 34.2929 53.5047 34.401C53.4884 34.5055 53.464 34.6087 53.4318 34.7098C53.3716 34.8954 53.2986 35.0771 53.2133 35.2535C52.9047 35.8671 52.489 36.426 51.984 36.9063C51.5294 37.3531 51.024 37.7499 50.477 38.0894C49.9528 38.4283 49.3964 38.7195 48.8153 38.9593C47.6864 39.4331 46.4804 39.7171 45.2504 39.7988C44.6529 39.8423 44.0524 39.8336 43.4566 39.7727C43.1606 39.7466 42.8693 39.6987 42.5779 39.6552C42.3997 39.6234 42.2234 39.5828 42.0497 39.5334C41.9086 39.5073 41.7584 39.4508 41.6263 39.3899ZM41.9268 39.2029C42.0588 39.1803 42.1895 39.1513 42.3184 39.1159C42.4227 39.0866 42.5293 39.0648 42.6371 39.0506C42.9148 39.0028 43.1925 38.9854 43.4611 38.9332C43.995 38.8403 44.5226 38.7168 45.041 38.5635C46.0488 38.2711 47.0106 37.8497 47.9001 37.3108C48.7624 36.8125 49.5317 36.1804 50.1766 35.4405C50.4514 35.1254 50.674 34.7719 50.8367 34.3923C50.8631 34.3198 50.8844 34.2457 50.9005 34.1705C50.9005 34.1357 50.9005 34.1139 50.9005 34.0878C50.9005 34.0617 50.9005 34.027 50.9005 34.0183C50.9005 33.9269 50.8686 33.9704 50.9005 34.0183C50.9323 34.0661 50.9278 34.0748 50.8686 34.04C50.7304 34.0051 50.5881 33.9876 50.4452 33.9878C50.345 33.9878 50.2539 33.9878 50.1447 33.9878L49.8123 34.0183L49.093 34.14C48.1337 34.3298 47.2118 34.663 46.3613 35.1274C45.4831 35.6215 44.6817 36.2305 43.9801 36.9368C43.608 37.3023 43.2555 37.6855 42.9239 38.085C42.7554 38.2851 42.5824 38.4895 42.4276 38.7027L42.1863 39.0245L42.068 39.1855L42.0133 39.2681C42.0133 39.2681 42.0133 39.3072 42.0133 39.2681C42.0034 39.2503 41.9881 39.2359 41.9694 39.2266C41.9507 39.2172 41.9295 39.2135 41.9086 39.2159L41.9268 39.2029Z" fill="#303873"/>
<path d="M36.4862 26.2598C36.7821 26.5251 37.0006 26.7426 37.2328 26.9861C37.465 27.2297 37.6881 27.4689 37.8884 27.7168C38.0888 27.9648 38.2936 28.2171 38.494 28.465L39.0585 29.2348C39.7656 30.2575 40.362 31.3461 40.8387 32.4839C41.0732 33.0362 41.2783 33.5995 41.4533 34.1715L41.6627 35.0414C41.6946 35.185 41.7356 35.3242 41.7538 35.4764L41.8175 35.9113C41.9855 37.0411 42.0085 38.1863 41.8858 39.3214H41.5216C41.4738 38.2267 41.2873 37.1415 40.9662 36.0897L40.8478 35.6939C40.8068 35.5634 40.7476 35.4329 40.6975 35.3068L40.388 34.5326C40.133 34.0324 39.9053 33.5278 39.6003 33.0494C39.0138 32.0789 38.3275 31.1668 37.5515 30.3266L36.946 29.7089C36.7366 29.5132 36.5317 29.3088 36.3132 29.1218C36.0946 28.9347 35.8579 28.7433 35.653 28.5694C35.4481 28.3954 35.1977 28.2084 35.002 28.0866L36.4862 26.2598Z" fill="#1C2144"/>
<path d="M48.7379 28.0812C48.5512 28.2029 48.2826 28.39 48.0868 28.5639C47.891 28.7379 47.6315 28.925 47.4266 29.1163C47.2218 29.3077 47.0032 29.5078 46.7938 29.7035L46.1883 30.3212C45.4123 31.1614 44.726 32.0735 44.1395 33.0439C43.8345 33.5224 43.6068 34.0269 43.3519 34.5271L43.0423 35.3013C42.9922 35.4275 42.933 35.558 42.892 35.6885L42.7737 36.0843C42.4525 37.1361 42.266 38.2213 42.2182 39.316H41.854C41.7272 38.1828 41.7455 37.0392 41.9086 35.9103L41.9724 35.4753C41.9724 35.3318 42.0361 35.1926 42.0634 35.0404L42.2728 34.1705C42.7919 32.4128 43.5969 30.7439 44.6585 29.2251L45.2185 28.4552C45.4189 28.2073 45.6146 27.9507 45.8241 27.7071C46.0335 27.4635 46.252 27.2156 46.4797 26.9764C46.7073 26.7372 46.9349 26.5153 47.2263 26.25L48.7379 28.0812Z" fill="#1C2144"/>
<path d="M82.529 34.2711L68.1602 22.3926L64.8412 26.4507L82.529 34.2711Z" fill="#F24973"/>
<path d="M81.9963 34.6792C81.9963 34.6792 77.6256 15.0586 71.8298 15.7153C66.0341 16.3721 81.9963 34.6792 81.9963 34.6792Z" fill="#DD4571"/>
<path d="M79.9885 34.2711L94.3572 22.3926L97.6762 26.4507L79.9885 34.2711Z" fill="#F24973"/>
<path d="M80.5212 34.6792C80.5212 34.6792 84.8919 15.0586 90.6876 15.7153C96.4834 16.3721 80.5212 34.6792 80.5212 34.6792Z" fill="#DD4571"/>
<path d="M99.4564 79.8628H64.1082L61.627 34.8496H101.938L99.4564 79.8628Z" fill="#303873"/>
<path d="M83.9814 34.8496H78.5407V79.8628H83.9814V34.8496Z" fill="#21BEDA"/>
<path d="M83.9814 34.8496H78.5407V79.8628H83.9814V34.8496Z" fill="#F24973"/>
<g style="mix-blend-mode:multiply" opacity="0.2">
<path d="M61.627 34.8496L62.0458 42.3917L101.724 38.7381L101.938 34.8496H61.627Z" fill="#606060"/>
</g>
<path d="M104.287 36.7591H59.2776L58.8952 31.6484H104.669L104.287 36.7591Z" fill="#1C2144"/>
<path d="M83.9814 31.6484H78.5407V36.7591H83.9814V31.6484Z" fill="#F24973"/>
<path d="M51.4422 79.863H12.8843L12.1695 69.5938H52.1616L51.4422 79.863Z" fill="#F24973"/>
<path d="M21.3981 69.5938L21.7851 79.863H25.8417L25.6095 69.5938H21.3981Z" fill="#EEB217"/>
<path d="M23.843 68.6373C23.843 68.6373 21.6531 62.1652 14.6098 64.5227L15.5887 65.3578L14.4232 66.841C14.4232 66.841 20.4283 63.9442 23.1054 69.1245L23.843 68.6373Z" fill="#EEB217"/>
<path d="M23.1054 68.6373C23.1054 68.6373 24.9265 62.1652 32.0881 64.5227L31.1776 65.3578L32.4342 66.841C32.4342 66.841 26.2514 63.9442 23.893 69.1245L23.1054 68.6373Z" fill="#EEB217"/>
<path d="M30.1714 57.9494C30.0344 57.7688 29.8666 57.6115 29.6752 57.484C29.5215 57.3854 29.3601 57.2981 29.1926 57.223C28.8604 57.0743 28.5023 56.9858 28.1363 56.962C27.7555 56.9385 27.3741 56.998 27.0209 57.136C26.3916 57.4094 25.8529 57.8428 25.4638 58.3887C25.1099 58.8664 24.815 59.3816 24.5851 59.9241C24.3616 60.4372 24.1716 60.963 24.016 61.4986C23.72 62.5371 23.5069 63.5956 23.3786 64.665C23.3786 64.7216 23.3786 64.7781 23.3786 64.839C23.3786 64.7781 23.3786 64.7216 23.3467 64.665C23.1529 63.5914 22.8759 62.533 22.5181 61.4986C22.3297 60.9615 22.1077 60.4357 21.8534 59.9241C21.591 59.3794 21.2657 58.8644 20.8837 58.3887C20.4617 57.8428 19.8984 57.4112 19.2492 57.136C18.8926 56.9986 18.5084 56.9392 18.1246 56.962C17.7643 56.9847 17.4119 57.0733 17.0866 57.223C16.9272 57.2973 16.7749 57.3846 16.6313 57.484C16.4523 57.6126 16.2982 57.7701 16.176 57.9494C15.9131 58.3359 15.7914 58.7947 15.83 59.2542C15.8552 59.6178 15.9381 59.9757 16.0759 60.3155C16.1902 60.6153 16.3287 60.9061 16.4902 61.1854C17.0857 62.1546 17.7961 63.0551 18.6072 63.8691C19.3617 64.6368 20.1612 65.3629 21.002 66.0438C21.4118 66.3787 21.8306 66.705 22.2586 67.0181L22.9051 67.4792L23.2329 67.701V67.801C23.2329 67.801 23.2329 67.801 23.2329 67.8402C23.2423 67.871 23.2614 67.8983 23.2876 67.9185C23.3228 67.9312 23.3616 67.9312 23.3968 67.9185C23.4131 67.9143 23.4275 67.9051 23.4378 67.8924H23.4697H23.497C23.5073 67.9051 23.5217 67.9143 23.538 67.9185C23.5732 67.9312 23.612 67.9312 23.6472 67.9185C23.6736 67.8993 23.6915 67.8713 23.6973 67.8402C23.6973 67.7967 23.6973 67.801 23.6973 67.801V67.701L24.0114 67.4792L24.6306 67.0181C25.0404 66.705 25.4365 66.3787 25.8326 66.0438C26.6373 65.3641 27.3975 64.6378 28.109 63.8691C28.8792 63.0399 29.5383 62.1223 30.0713 61.1376C30.2143 60.8568 30.3346 60.566 30.4309 60.2677C30.5504 59.9254 30.6119 59.5671 30.6131 59.2064C30.6064 58.7537 30.452 58.3142 30.1714 57.9494ZM23.1373 67.1442L22.6183 66.5527L21.5802 65.3653C20.8882 64.5737 20.2144 63.769 19.5542 62.947C18.9035 62.1494 18.3261 61.2995 17.8287 60.4068C17.6206 60.0492 17.4876 59.6562 17.4372 59.2499C17.4281 59.166 17.449 59.0817 17.4963 59.0106C17.5197 58.9768 17.5508 58.9485 17.5874 58.928C17.6576 58.8845 17.7306 58.8453 17.8059 58.8106C17.944 58.7386 18.0963 58.6948 18.2531 58.6821C18.4098 58.6693 18.5677 58.6879 18.7165 58.7366C19.0903 58.8919 19.4186 59.1324 19.6726 59.4369C20.3186 60.2128 20.8488 61.0706 21.2479 61.9857C21.7032 62.9209 22.0765 63.8951 22.4407 64.8781C22.6274 65.3653 22.7913 65.8568 22.9643 66.3526L23.1783 66.9833V67.2269L23.1373 67.1442ZM28.6007 60.4068C28.1582 61.2979 27.6309 62.1481 27.0254 62.947C26.429 63.769 25.7916 64.5737 25.1451 65.3653L24.1799 66.5527L23.6973 67.1442L23.6381 67.2138V67.0181V66.9833L23.8111 66.3526C23.9568 65.8568 24.0888 65.3653 24.2664 64.8781C24.5669 63.8951 24.8947 62.9209 25.2817 61.9857C25.6268 61.0754 26.1067 60.2171 26.7067 59.4369C26.9429 59.1333 27.2563 58.8922 27.6173 58.7366C27.7702 58.6849 27.9329 58.6648 28.0945 58.6775C28.2562 58.6902 28.4132 58.7356 28.5552 58.8106C28.6333 58.8456 28.7093 58.8848 28.7828 58.928C28.8205 58.9487 28.8531 58.9769 28.8784 59.0106C28.932 59.0794 28.9579 59.1643 28.9513 59.2499C28.9266 59.653 28.815 60.0469 28.6235 60.4068H28.6007Z" fill="#D19715"/>
<g style="mix-blend-mode:multiply" opacity="0.2">
<path d="M12.511 74.5435L51.9294 72.8863L52.1616 69.5938H12.1695L12.511 74.5435Z" fill="#606060"/>
</g>
<path d="M53.7187 70.8513H10.6079L10.3256 67.0977H54.0055L53.7187 70.8513Z" fill="#C14065"/>
<path d="M21.3071 67.0977L21.4437 70.8513H25.6368L25.5503 67.0977H21.3071Z" fill="#EEB217"/>
<path d="M63.703 60.8338L55.0071 53.6484L52.9993 56.1016L63.703 60.8338Z" fill="#FFC627"/>
<path d="M62.797 60.3551L55.4078 57.9629L54.8022 59.9941L62.797 60.3551Z" fill="#E8B423"/>
<path d="M63.5618 61.5213C63.5618 61.5213 60.9167 49.6471 57.411 50.0429C53.9053 50.4387 63.5618 61.5213 63.5618 61.5213Z" fill="#E8B423"/>
<path d="M62.8789 60.1984C62.8789 60.1984 66.248 48.4938 62.9472 47.302C59.6464 46.1103 62.8789 60.1984 62.8789 60.1984Z" fill="#FFC627"/>
<path d="M61.9911 60.8338L70.6871 53.6484L72.6949 56.1016L61.9911 60.8338Z" fill="#FFC627"/>
<path d="M62.8972 60.3551L70.2818 57.9629L70.8919 59.9941L62.8972 60.3551Z" fill="#E8B423"/>
<path d="M62.1277 61.5213C62.1277 61.5213 64.7729 49.6471 68.2786 50.0429C71.7843 50.4387 62.1277 61.5213 62.1277 61.5213Z" fill="#E8B423"/>
<path d="M75.2445 79.8634H50.7183L48.9974 63.1699H76.9654L75.2445 79.8634Z" fill="#6D6BE6"/>
<path d="M64.8686 79.8634H61.0943L60.8302 63.1699H65.1326L64.8686 79.8634Z" fill="#FFC627"/>
<g style="mix-blend-mode:multiply" opacity="0.2">
<path d="M76.9654 63.1699H48.9974L49.612 69.1549L76.6604 66.1015L76.9654 63.1699Z" fill="#606060"/>
</g>
<path d="M78.5953 65.0833H47.3675L47.1034 59.9727H78.8594L78.5953 65.0833Z" fill="#4F4FB7"/>
<path d="M60.8439 65.0833H65.119L65.1554 59.9727H60.8074L60.8439 65.0833Z" fill="#E8B423"/>
<path d="M28.068 7.24805L30.2124 12.711L24.8491 8.6138L28.068 7.24805Z" fill="#1EABC4"/>
<path d="M63.3479 13.3457L64.5407 16.3904L61.5541 14.1069L63.3479 13.3457Z" fill="#1EABC4"/>
<path d="M3.80598 5.9043L8.95978 9.0403L2.09412 8.84022L3.80598 5.9043Z" fill="#1EABC4"/>
<path d="M105.516 10.4785L113.734 19.3298L106.868 19.1297L105.516 10.4785Z" fill="#1EABC4"/>
<path d="M54.6884 24.1112L51.5469 25.9119L53.4955 22.4453L54.6884 24.1112Z" fill="#1EABC4"/>
<path d="M54.5245 84.4213L51.3831 86.2263L53.3317 82.7598L54.5245 84.4213Z" fill="#1EABC4"/>
<path d="M16.5221 26.8301L19.1855 30.401L15.4385 30.0313L16.5221 26.8301Z" fill="#F0584D"/>
<path d="M4.73702 18.7305L7.40042 22.3014L3.65344 21.9317L4.73702 18.7305Z" fill="#3757C1"/>
<path d="M7.9718 59.5723L10.0661 62.3777L7.12042 62.0863L7.9718 59.5723Z" fill="#F0584D"/>
<path d="M38.4257 16.9434L41.0891 20.5187L37.3421 20.1446L38.4257 16.9434Z" fill="#F0584D"/>
<path d="M73.4916 5.86523L76.155 9.44054L67.705 9.46229L73.4916 5.86523Z" fill="#F0584D"/>
<path d="M105.034 57.002L108.608 57.724L103.672 62.0909L105.034 57.002Z" fill="#F0584D"/>
<path d="M81.887 83.3555L84.6551 85.6346L78.1218 87.1874L81.887 83.3555Z" fill="#F0584D"/>
<path d="M51.0006 15.5338L53.7278 12.002L54.5199 15.5207L51.0006 15.5338Z" fill="#FFC627"/>
<path d="M11.5776 15.543L18.6163 13.9903L15.0059 12.9551L11.5776 15.543Z" fill="#FFC627"/>
<path d="M106.641 45.2052L103.349 42.1475L107.11 41.8691L106.641 45.2052Z" fill="#FFC627"/>
<path d="M102.434 84.8688L99.1423 81.8111L102.898 81.5371L102.434 84.8688Z" fill="#FFC627"/>
<path d="M17.5236 84.4254L12.9799 85.0431L15.0515 82.0332L17.5236 84.4254Z" fill="#FFC627"/>
<path d="M39.5002 86.1618L36.2085 83.1084L39.9646 82.8301L39.5002 86.1618Z" fill="#FFC627"/>
<path d="M7.87166 69.4464L4.99882 72.8695L4.35687 69.3203L7.87166 69.4464Z" fill="#FFC627"/>
<path d="M25.6049 52.8819L21.7988 55.3307L22.2859 51.7598L25.6049 52.8819Z" fill="#FFC627"/>
<path d="M7.87165 34.9249L4.06549 37.3737L4.55264 33.8027L7.87165 34.9249Z" fill="#FFC627"/>
<path d="M94.1342 12.2187L97.3803 8.44336L98.1771 11.9621L94.1342 12.2187Z" fill="#303873"/>
<path d="M13.0118 49.6996L14.7145 44.6367L16.8316 45.0064L13.0118 49.6996Z" fill="#303873"/>
<path d="M46.9304 8.06977L40.0146 3.33314L41.5717 0.5625L46.9304 8.06977Z" fill="#303873"/>
<path d="M99.5338 24.9363L98.3091 21.9351L99.8024 21.4219L99.5338 24.9363Z" fill="#3757C1"/>
<path d="M106.409 73.3308L105.116 70.1643L106.691 69.625L106.409 73.3308Z" fill="#3757C1"/>
<path d="M1.88468 84.6515L0.591675 81.4851L2.16695 80.9414L1.88468 84.6515Z" fill="#3757C1"/>
<path d="M21.1933 40.1086L19.964 37.1031L21.4619 36.5898L21.1933 40.1086Z" fill="#3757C1"/>
</svg>
