<svg width="244" height="236" viewBox="0 0 244 236" fill="none" xmlns="http://www.w3.org/2000/svg">
<path d="M97.8411 93.0586H43.0177C37.6117 93.0586 33.2293 97.441 33.2293 102.847V216.221C33.2293 221.627 37.6117 226.01 43.0177 226.01H97.8411C103.247 226.01 107.63 221.627 107.63 216.221V102.847C107.63 97.441 103.247 93.0586 97.8411 93.0586Z" fill="#E0DACE"/>
<path d="M25.2518 98.2404L25.3252 137.158L25.4883 224.438C25.4883 225.683 25.7341 226.916 26.2117 228.066C26.6892 229.216 27.3891 230.261 28.2712 231.14C29.1533 232.019 30.2003 232.715 31.352 233.189C32.5038 233.663 33.7377 233.904 34.9831 233.9L40.9784 233.843H41.0274L54.0134 233.72H55.9548L77.9788 233.508V221.77L59.601 221.729H50.5222H40.6604C39.4157 221.732 38.1827 221.489 37.0319 221.014C35.8811 220.54 34.8349 219.843 33.9533 218.965C33.0716 218.086 32.3716 217.043 31.8933 215.893C31.415 214.744 31.1678 213.512 31.1656 212.267L31.1166 187.274L31.0188 133.617V130.697V121.724V104.26C31.0157 101.787 31.9783 99.4111 33.7015 97.6376C35.4248 95.8641 37.7725 94.8335 40.2444 94.7655H40.4809L49.16 94.7165H49.3557H56.0119L77.7911 94.6676V89.08L37.4547 88.8516H34.771C32.2662 88.8429 29.8596 89.8251 28.0763 91.584C26.2929 93.3429 25.2776 95.7357 25.2518 98.2404Z" fill="#40456F"/>
<path d="M110.876 107.842V94.7907C110.876 93.1617 110.229 91.5994 109.077 90.4475C107.925 89.2956 106.363 88.6484 104.734 88.6484H38.5884H37.9277L37.3894 88.7055C35.1027 88.9992 33.0015 90.1161 31.479 91.8473C29.9565 93.5785 29.1172 95.8052 29.1181 98.1106V134.311V224.373C29.1208 226.776 30.0351 229.088 31.6763 230.843C33.3174 232.597 35.5633 233.664 37.9603 233.827C38.1806 233.827 38.3927 233.827 38.6129 233.827H104.766C106.394 233.827 107.955 233.181 109.107 232.031C110.258 230.881 110.906 229.321 110.909 227.693L110.876 107.842ZM100.109 221.592C99.7637 221.65 99.4145 221.681 99.0646 221.681H40.9702C39.3426 221.679 37.7824 221.031 36.6323 219.879C35.4822 218.728 34.8362 217.167 34.8362 215.539V191.068V120.918V100.802C34.8344 99.3071 35.3789 97.8626 36.3673 96.7405C37.3556 95.6184 38.7199 94.896 40.2035 94.7091C40.4578 94.6766 40.7139 94.6602 40.9702 94.6602H99.0564C99.4145 94.6607 99.7718 94.6907 100.125 94.7499C101.547 95.0014 102.834 95.7462 103.76 96.8533C104.687 97.9604 105.193 99.3588 105.191 100.802V105.272V215.506C105.199 216.958 104.693 218.365 103.763 219.479C102.833 220.593 101.538 221.341 100.109 221.592Z" fill="#6389D5"/>
<path d="M62.2601 230.562H78.0276C78.4039 230.562 78.7765 230.488 79.1239 230.343C79.4713 230.199 79.7868 229.987 80.0521 229.72C80.3174 229.453 80.5275 229.137 80.67 228.788C80.8125 228.44 80.8847 228.067 80.8826 227.691C80.8804 226.933 80.5778 226.207 80.0411 225.672C79.5044 225.136 78.7774 224.836 78.0194 224.836H62.2438C61.8675 224.836 61.4949 224.91 61.1475 225.055C60.8001 225.199 60.4846 225.411 60.2193 225.678C59.954 225.945 59.7439 226.261 59.6014 226.61C59.4589 226.958 59.3867 227.331 59.3888 227.707C59.3899 228.083 59.465 228.455 59.6099 228.802C59.7548 229.149 59.9666 229.464 60.2332 229.729C60.4998 229.994 60.816 230.204 61.1638 230.347C61.5116 230.49 61.8841 230.563 62.2601 230.562Z" fill="#40456F"/>
<path d="M150.307 224.682H214.307C220.618 224.682 225.735 219.565 225.735 213.254L225.735 80.8978C225.735 74.5863 220.618 69.4698 214.307 69.4698H150.307C143.995 69.4698 138.879 74.5863 138.879 80.8978V213.254C138.879 219.565 143.995 224.682 150.307 224.682Z" fill="#E0DACE"/>
<path d="M235.042 75.5224L234.961 120.957L234.765 222.863C234.764 224.316 234.476 225.755 233.918 227.097C233.36 228.44 232.543 229.659 231.513 230.684C230.483 231.71 229.261 232.523 227.917 233.076C226.573 233.629 225.133 233.912 223.679 233.907L216.681 233.842H216.632L201.468 233.695H199.2L173.457 233.451V230.016V223.336V219.755L194.91 219.706H205.514H217.031C218.484 219.709 219.922 219.426 221.265 218.873C222.608 218.32 223.828 217.508 224.857 216.483C225.886 215.458 226.702 214.241 227.26 212.9C227.818 211.559 228.106 210.122 228.109 208.669L228.166 179.484L228.28 116.846V113.428V102.93V82.5375C228.287 79.6507 227.165 76.8756 225.153 74.8055C223.141 72.7355 220.399 71.5348 217.513 71.4603H217.244L207.112 71.4032H206.876L199.11 71.3542L173.677 71.3053V64.7797L220.759 64.5023H223.891C225.348 64.4905 226.793 64.7665 228.142 65.3145C229.492 65.8625 230.72 66.6717 231.756 67.6957C232.792 68.7197 233.616 69.9382 234.18 71.2813C234.744 72.6245 235.037 74.0658 235.042 75.5224Z" fill="#40456F"/>
<path d="M220.873 64.4533C220.67 64.4533 220.449 64.4044 220.245 64.3962C220.041 64.388 219.732 64.3962 219.479 64.3962H142.256C140.354 64.3962 138.531 65.1516 137.186 66.4962C135.841 67.8409 135.086 69.6646 135.086 71.5662V86.7709V226.705C135.088 228.605 135.845 230.426 137.189 231.769C138.533 233.112 140.356 233.866 142.256 233.866H219.454C219.707 233.866 219.96 233.866 220.213 233.866C223.012 233.68 225.636 232.436 227.552 230.387C229.468 228.337 230.533 225.636 230.531 222.83V75.4408C230.53 72.749 229.549 70.1496 227.772 68.1278C225.995 66.106 223.543 64.7999 220.873 64.4533ZM141.701 212.414V83.7202V78.4997C141.706 78.0705 141.744 77.6423 141.816 77.219C142.116 75.5686 142.985 74.0757 144.273 73.0009C145.561 71.9261 147.186 71.3375 148.863 71.3378H216.689C216.986 71.3368 217.283 71.3559 217.578 71.3949C219.31 71.6149 220.903 72.4583 222.059 73.7673C223.215 75.0764 223.855 76.7615 223.859 78.5078V101.927V212.422C223.857 214.323 223.101 216.145 221.756 217.489C220.412 218.833 218.59 219.59 216.689 219.592H148.871C147.929 219.592 146.996 219.406 146.126 219.045C145.255 218.684 144.464 218.155 143.799 217.489C143.133 216.822 142.605 216.031 142.245 215.16C141.885 214.289 141.7 213.356 141.701 212.414Z" fill="#6389D5"/>
<path d="M191.843 230.042L173.432 230.001C172.993 230.002 172.558 229.916 172.152 229.748C171.747 229.581 171.378 229.334 171.068 229.023C170.758 228.712 170.512 228.343 170.345 227.937C170.179 227.531 170.094 227.096 170.096 226.657C170.095 226.217 170.181 225.782 170.349 225.377C170.516 224.971 170.763 224.602 171.074 224.292C171.384 223.982 171.754 223.737 172.16 223.57C172.566 223.403 173.001 223.318 173.44 223.32H191.851C192.29 223.321 192.725 223.409 193.13 223.578C193.535 223.747 193.903 223.994 194.213 224.306C194.523 224.617 194.769 224.986 194.936 225.392C195.103 225.799 195.188 226.234 195.187 226.673C195.19 227.114 195.106 227.552 194.939 227.96C194.773 228.369 194.527 228.74 194.216 229.054C193.905 229.367 193.535 229.615 193.128 229.785C192.721 229.954 192.284 230.042 191.843 230.042Z" fill="#40456F"/>
<path opacity="0.3" d="M100.109 88.6719V233.834L89.4066 233.842H65.4494V88.68L100.109 88.6719Z" fill="#2E1B1A"/>
<path opacity="0.3" d="M190.798 64.3636V233.834L160.144 233.826H156.131V64.3555L190.798 64.3636Z" fill="#2E1B1A"/>
<path d="M77.4158 219.512H176.401L176.401 44.5681H77.4158L77.4158 219.512Z" fill="#FFFAF1"/>
<path d="M72.5217 51.4689V100.15V190.84V221.159C72.5225 224.39 73.7501 227.501 75.9563 229.861C78.1625 232.222 81.1827 233.657 84.4064 233.876C84.6919 233.876 84.9856 233.876 85.2711 233.876H174.232C175.315 233.875 176.387 233.661 177.387 233.245C178.387 232.83 179.295 232.222 180.061 231.455C180.826 230.688 181.432 229.779 181.846 228.778C182.259 227.777 182.471 226.704 182.47 225.621V64.463V46.9662C182.471 45.8808 182.258 44.8058 181.843 43.8028C181.428 42.7998 180.82 41.8884 180.052 41.1209C179.285 40.3534 178.373 39.7448 177.37 39.3299C176.367 38.915 175.293 38.7021 174.207 38.7031H85.2956H84.4146C84.1698 38.7031 83.9252 38.7439 83.6887 38.7765C80.599 39.1648 77.7579 40.6696 75.701 43.0075C73.6441 45.3454 72.5133 48.3549 72.5217 51.4689ZM174.827 209.234C174.83 210.319 174.619 211.395 174.207 212.398C173.794 213.402 173.187 214.315 172.421 215.084C171.655 215.853 170.745 216.463 169.742 216.88C168.74 217.297 167.666 217.512 166.58 217.513H88.4768C86.2867 217.513 84.1862 216.644 82.6368 215.096C81.0874 213.548 80.2159 211.448 80.2138 209.258V176.345V81.9843V55.0172C80.212 53.0046 80.9455 51.0607 82.2764 49.5511C83.6073 48.0414 85.444 47.0699 87.4409 46.8194C87.7791 46.7768 88.1196 46.755 88.4605 46.7541H166.564C168.496 46.7535 170.366 47.4308 171.849 48.6681C173.332 49.9054 174.334 51.6241 174.68 53.5244C174.772 54.0112 174.818 54.5055 174.819 55.0008V61.0126L174.827 209.234Z" fill="#6389D5"/>
<path d="M117.084 229.526L138.292 229.485C138.797 229.484 139.298 229.384 139.765 229.189C140.231 228.995 140.655 228.71 141.012 228.352C141.369 227.994 141.651 227.569 141.844 227.101C142.036 226.634 142.135 226.133 142.134 225.627C142.133 225.122 142.032 224.621 141.838 224.154C141.643 223.688 141.359 223.264 141 222.907C140.642 222.55 140.217 222.268 139.749 222.075C139.282 221.883 138.781 221.784 138.275 221.785H117.067C116.047 221.792 115.072 222.201 114.352 222.923C113.632 223.646 113.227 224.624 113.225 225.643C113.221 226.152 113.318 226.657 113.51 227.129C113.702 227.6 113.985 228.029 114.344 228.39C114.703 228.751 115.13 229.037 115.6 229.232C116.07 229.427 116.574 229.527 117.084 229.526Z" fill="#40456F"/>
<path d="M148.937 55.3418H90.9239C88.7434 55.3418 86.9759 57.1094 86.9759 59.2898V64.3227C86.9759 66.5031 88.7434 68.2707 90.9239 68.2707H148.937C151.117 68.2707 152.885 66.5031 152.885 64.3227V59.2898C152.885 57.1094 151.117 55.3418 148.937 55.3418Z" fill="#E0DACE"/>
<path d="M166.874 55.3926H161.939C159.758 55.3926 157.991 57.1602 157.991 59.3406V64.2756C157.991 66.456 159.758 68.2236 161.939 68.2236H166.874C169.054 68.2236 170.822 66.456 170.822 64.2756V59.3406C170.822 57.1602 169.054 55.3926 166.874 55.3926Z" fill="#E0DACE"/>
<path d="M116.194 73.6797H91.5355C89.3551 73.6797 87.5875 75.4473 87.5875 77.6277V99.7903C87.5875 101.971 89.3551 103.738 91.5355 103.738H116.194C118.375 103.738 120.142 101.971 120.142 99.7903V77.6277C120.142 75.4473 118.375 73.6797 116.194 73.6797Z" fill="#E0DACE"/>
<path d="M152.273 79.601H129.67C129.162 79.5989 128.676 79.3962 128.317 79.0372C127.958 78.6782 127.755 78.1919 127.753 77.6841C127.755 77.1771 127.958 76.6917 128.317 76.334C128.676 75.9762 129.163 75.7754 129.67 75.7754H152.273C152.78 75.7754 153.266 75.9762 153.625 76.334C153.985 76.6917 154.188 77.1771 154.19 77.6841C154.188 78.1919 153.985 78.6782 153.626 79.0372C153.267 79.3962 152.781 79.5989 152.273 79.601Z" fill="#E0DACE"/>
<path d="M167.698 86.8862H129.841C129.335 86.8862 128.849 86.6851 128.491 86.3271C128.133 85.9692 127.932 85.4837 127.932 84.9774C127.932 84.4704 128.133 83.9841 128.491 83.6249C128.849 83.2656 129.334 83.0627 129.841 83.0605H167.698C168.206 83.0627 168.692 83.2653 169.051 83.6244C169.41 83.9834 169.613 84.4697 169.615 84.9774C169.613 85.4844 169.41 85.9699 169.05 86.3276C168.691 86.6853 168.205 86.8862 167.698 86.8862Z" fill="#E0DACE"/>
<path d="M167.6 79.7479H159.28C158.752 79.7479 158.246 79.5382 157.872 79.1649C157.499 78.7917 157.289 78.2854 157.289 77.7576C157.292 77.2311 157.502 76.7269 157.875 76.3555C158.248 75.984 158.753 75.7754 159.28 75.7754H167.6C168.126 75.7754 168.631 75.984 169.004 76.3555C169.377 76.7269 169.588 77.2311 169.59 77.7576C169.59 78.2854 169.38 78.7917 169.007 79.1649C168.634 79.5382 168.128 79.7479 167.6 79.7479Z" fill="#E0DACE"/>
<path d="M152.273 94.3393H129.67C129.162 94.3372 128.676 94.1345 128.317 93.7755C127.958 93.4165 127.755 92.9301 127.753 92.4224C127.755 91.9154 127.958 91.43 128.317 91.0722C128.676 90.7145 129.163 90.5137 129.67 90.5137H152.273C152.78 90.5137 153.266 90.7145 153.625 91.0722C153.985 91.43 154.188 91.9154 154.19 92.4224C154.188 92.9301 153.985 93.4165 153.626 93.7755C153.267 94.1345 152.781 94.3372 152.273 94.3393Z" fill="#E0DACE"/>
<path d="M167.698 101.685H129.841C129.335 101.685 128.849 101.484 128.491 101.126C128.133 100.768 127.932 100.283 127.932 99.7763C127.932 99.2693 128.133 98.783 128.491 98.4237C128.849 98.0645 129.334 97.8615 129.841 97.8594H167.698C168.206 97.8615 168.692 98.0642 169.051 98.4232C169.41 98.7822 169.613 99.2685 169.615 99.7763C169.613 100.283 169.41 100.769 169.05 101.126C168.691 101.484 168.205 101.685 167.698 101.685Z" fill="#E0DACE"/>
<path d="M167.6 94.5115H159.28C158.752 94.5115 158.246 94.3018 157.872 93.9286C157.499 93.5553 157.289 93.0491 157.289 92.5212C157.292 91.9948 157.502 91.4906 157.875 91.1191C158.248 90.7476 158.753 90.5391 159.28 90.5391H167.6C168.126 90.5391 168.631 90.7476 169.004 91.1191C169.377 91.4906 169.588 91.9948 169.59 92.5212C169.59 93.0491 169.38 93.5553 169.007 93.9286C168.634 94.3018 168.128 94.5115 167.6 94.5115Z" fill="#E0DACE"/>
<path d="M116.194 110.711H91.5355C89.3551 110.711 87.5875 112.479 87.5875 114.659V136.822C87.5875 139.002 89.3551 140.77 91.5355 140.77H116.194C118.375 140.77 120.142 139.002 120.142 136.822V114.659C120.142 112.479 118.375 110.711 116.194 110.711Z" fill="#E0DACE"/>
<path d="M152.273 116.626H129.67C129.162 116.624 128.676 116.422 128.317 116.063C127.958 115.704 127.755 115.217 127.753 114.71C127.755 114.203 127.958 113.717 128.317 113.359C128.676 113.002 129.163 112.801 129.67 112.801H152.273C152.527 112.8 152.778 112.849 153.013 112.946C153.247 113.043 153.46 113.185 153.639 113.365C153.818 113.545 153.96 113.759 154.056 113.994C154.152 114.229 154.2 114.48 154.198 114.734C154.189 115.239 153.983 115.72 153.623 116.074C153.263 116.428 152.778 116.627 152.273 116.626Z" fill="#E0DACE"/>
<path d="M167.698 123.912H129.841C129.335 123.912 128.849 123.71 128.491 123.353C128.133 122.995 127.932 122.509 127.932 122.003C127.932 121.496 128.133 121.01 128.491 120.65C128.849 120.291 129.334 120.088 129.841 120.086H167.698C168.206 120.088 168.692 120.291 169.051 120.65C169.41 121.009 169.613 121.495 169.615 122.003C169.613 122.51 169.41 122.995 169.05 123.353C168.691 123.711 168.205 123.912 167.698 123.912Z" fill="#E0DACE"/>
<path d="M167.6 116.773H159.28C158.753 116.773 158.248 116.565 157.875 116.193C157.502 115.822 157.292 115.318 157.289 114.791C157.291 114.264 157.502 113.759 157.875 113.386C158.247 113.013 158.752 112.803 159.28 112.801H167.6C168.127 112.803 168.632 113.013 169.005 113.386C169.378 113.759 169.588 114.264 169.59 114.791C169.588 115.318 169.377 115.822 169.004 116.193C168.631 116.565 168.126 116.773 167.6 116.773Z" fill="#E0DACE"/>
<path d="M152.273 131.392H129.67C129.162 131.39 128.676 131.187 128.317 130.828C127.958 130.469 127.755 129.983 127.753 129.475C127.755 128.968 127.958 128.483 128.317 128.125C128.676 127.767 129.163 127.566 129.67 127.566H152.273C152.78 127.566 153.266 127.767 153.625 128.125C153.985 128.483 154.188 128.968 154.19 129.475C154.188 129.983 153.985 130.469 153.626 130.828C153.267 131.187 152.781 131.39 152.273 131.392Z" fill="#E0DACE"/>
<path d="M167.698 138.677H129.841C129.59 138.677 129.342 138.628 129.111 138.532C128.879 138.436 128.669 138.295 128.491 138.118C128.314 137.941 128.174 137.73 128.078 137.499C127.982 137.267 127.932 137.019 127.932 136.768C127.932 136.262 128.133 135.775 128.491 135.416C128.849 135.057 129.334 134.854 129.841 134.852H167.698C168.206 134.854 168.692 135.056 169.051 135.415C169.41 135.774 169.613 136.261 169.615 136.768C169.613 137.275 169.41 137.761 169.05 138.119C168.691 138.476 168.205 138.677 167.698 138.677Z" fill="#E0DACE"/>
<path d="M167.6 131.547H159.28C158.752 131.545 158.247 131.335 157.875 130.962C157.502 130.589 157.291 130.084 157.289 129.557C157.291 129.03 157.502 128.525 157.875 128.152C158.247 127.779 158.752 127.569 159.28 127.566H167.6C168.127 127.569 168.632 127.779 169.005 128.152C169.378 128.525 169.588 129.03 169.59 129.557C169.588 130.084 169.378 130.589 169.005 130.962C168.632 131.335 168.127 131.545 167.6 131.547Z" fill="#E0DACE"/>
<path d="M116.194 147.738H91.5355C89.3551 147.738 87.5875 149.506 87.5875 151.686V173.849C87.5875 176.029 89.3551 177.797 91.5355 177.797H116.194C118.375 177.797 120.142 176.029 120.142 173.849V151.686C120.142 149.506 118.375 147.738 116.194 147.738Z" fill="#E0DACE"/>
<path d="M152.273 153.65H129.67C129.162 153.648 128.676 153.445 128.317 153.086C127.958 152.727 127.755 152.241 127.753 151.733C127.757 151.227 127.961 150.742 128.319 150.385C128.678 150.028 129.163 149.826 129.67 149.824H152.273C152.779 149.826 153.264 150.028 153.623 150.385C153.982 150.742 154.185 151.227 154.19 151.733C154.188 152.241 153.985 152.727 153.626 153.086C153.267 153.445 152.781 153.648 152.273 153.65Z" fill="#E0DACE"/>
<path d="M167.698 160.943H129.841C129.334 160.941 128.849 160.738 128.491 160.379C128.133 160.019 127.932 159.533 127.932 159.026C127.932 158.52 128.133 158.034 128.491 157.676C128.849 157.318 129.335 157.117 129.841 157.117H167.698C168.205 157.117 168.691 157.318 169.05 157.676C169.41 158.033 169.613 158.519 169.615 159.026C169.613 159.534 169.41 160.02 169.051 160.379C168.692 160.738 168.206 160.941 167.698 160.943Z" fill="#E0DACE"/>
<path d="M167.6 153.805H159.28C158.752 153.803 158.247 153.592 157.875 153.22C157.502 152.847 157.291 152.342 157.289 151.815C157.291 151.287 157.502 150.782 157.875 150.41C158.247 150.037 158.752 149.826 159.28 149.824H167.6C168.127 149.826 168.632 150.037 169.005 150.41C169.378 150.782 169.588 151.287 169.59 151.815C169.588 152.342 169.378 152.847 169.005 153.22C168.632 153.592 168.127 153.803 167.6 153.805Z" fill="#E0DACE"/>
<path d="M152.273 168.414H129.67C129.162 168.411 128.676 168.209 128.317 167.85C127.958 167.491 127.755 167.004 127.753 166.497C127.755 165.99 127.958 165.504 128.317 165.146C128.676 164.789 129.163 164.588 129.67 164.588H152.273C152.78 164.588 153.266 164.789 153.625 165.146C153.985 165.504 154.188 165.99 154.19 166.497C154.188 167.004 153.985 167.491 153.626 167.85C153.267 168.209 152.781 168.411 152.273 168.414Z" fill="#E0DACE"/>
<path d="M167.698 175.708H129.841C129.334 175.706 128.849 175.503 128.491 175.144C128.133 174.785 127.932 174.299 127.932 173.792C127.932 173.541 127.982 173.293 128.078 173.061C128.174 172.83 128.314 172.619 128.491 172.442C128.669 172.265 128.879 172.124 129.111 172.028C129.342 171.932 129.59 171.883 129.841 171.883H167.698C168.205 171.883 168.691 172.084 169.05 172.441C169.41 172.799 169.613 173.285 169.615 173.792C169.613 174.299 169.41 174.786 169.051 175.145C168.692 175.504 168.206 175.706 167.698 175.708Z" fill="#E0DACE"/>
<path d="M167.6 168.569H159.28C158.752 168.566 158.247 168.356 157.875 167.983C157.502 167.61 157.291 167.105 157.289 166.578C157.291 166.051 157.502 165.546 157.875 165.173C158.247 164.8 158.752 164.59 159.28 164.588H167.6C168.127 164.59 168.632 164.8 169.005 165.173C169.378 165.546 169.588 166.051 169.59 166.578C169.588 167.105 169.378 167.61 169.005 167.983C168.632 168.356 168.127 168.566 167.6 168.569Z" fill="#E0DACE"/>
<path d="M116.194 184.762H91.5355C89.3551 184.762 87.5875 186.529 87.5875 188.71V210.872C87.5875 213.053 89.3551 214.82 91.5355 214.82H116.194C118.375 214.82 120.142 213.053 120.142 210.872V188.71C120.142 186.529 118.375 184.762 116.194 184.762Z" fill="#E0DACE"/>
<path d="M152.273 190.675H129.67C129.163 190.675 128.676 190.474 128.317 190.117C127.958 189.759 127.755 189.274 127.753 188.767C127.755 188.259 127.958 187.772 128.317 187.413C128.676 187.054 129.162 186.852 129.67 186.85H152.273C152.781 186.852 153.267 187.054 153.626 187.413C153.985 187.772 154.188 188.259 154.19 188.767C154.188 189.274 153.985 189.759 153.625 190.117C153.266 190.474 152.78 190.675 152.273 190.675Z" fill="#E0DACE"/>
<path d="M167.698 197.935H129.841C129.334 197.933 128.849 197.73 128.491 197.371C128.133 197.011 127.932 196.525 127.932 196.018C127.932 195.767 127.982 195.519 128.078 195.288C128.174 195.056 128.314 194.846 128.491 194.668C128.669 194.491 128.879 194.351 129.111 194.255C129.342 194.159 129.59 194.109 129.841 194.109H167.698C168.205 194.109 168.691 194.31 169.05 194.668C169.41 195.026 169.613 195.511 169.615 196.018C169.613 196.526 169.41 197.012 169.051 197.371C168.692 197.73 168.206 197.933 167.698 197.935Z" fill="#E0DACE"/>
<path d="M167.6 190.83H159.28C158.752 190.828 158.247 190.618 157.875 190.245C157.502 189.872 157.291 189.367 157.289 188.84C157.291 188.313 157.502 187.808 157.875 187.435C158.247 187.062 158.752 186.852 159.28 186.85H167.6C168.127 186.852 168.632 187.062 169.005 187.435C169.378 187.808 169.588 188.313 169.59 188.84C169.588 189.367 169.378 189.872 169.005 190.245C168.632 190.618 168.127 190.828 167.6 190.83Z" fill="#E0DACE"/>
<path d="M152.273 205.439H129.67C129.163 205.439 128.676 205.238 128.317 204.88C127.958 204.523 127.755 204.037 127.753 203.53C127.755 203.022 127.958 202.536 128.317 202.177C128.676 201.818 129.162 201.615 129.67 201.613H152.273C152.781 201.615 153.267 201.818 153.626 202.177C153.985 202.536 154.188 203.022 154.19 203.53C154.188 204.037 153.985 204.523 153.625 204.88C153.266 205.238 152.78 205.439 152.273 205.439Z" fill="#E0DACE"/>
<path d="M167.698 212.732H129.841C129.334 212.73 128.849 212.527 128.491 212.168C128.133 211.808 127.932 211.322 127.932 210.815C127.932 210.309 128.133 209.823 128.491 209.465C128.849 209.107 129.335 208.906 129.841 208.906H167.698C168.205 208.906 168.691 209.107 169.05 209.465C169.41 209.823 169.613 210.308 169.615 210.815C169.613 211.323 169.41 211.809 169.051 212.168C168.692 212.527 168.206 212.73 167.698 212.732Z" fill="#E0DACE"/>
<path d="M167.6 205.594H159.28C158.752 205.592 158.247 205.381 157.875 205.009C157.502 204.636 157.291 204.131 157.289 203.604C157.291 203.076 157.502 202.571 157.875 202.199C158.247 201.826 158.752 201.615 159.28 201.613H167.6C168.127 201.615 168.632 201.826 169.005 202.199C169.378 202.571 169.588 203.076 169.59 203.604C169.588 204.131 169.378 204.636 169.005 205.009C168.632 205.381 168.127 205.592 167.6 205.594Z" fill="#E0DACE"/>
<path d="M191.011 67.2095C191.011 67.2095 191.378 70.6028 194.486 71.4919C197.593 72.3811 199.559 67.8458 199.559 67.8458L193.751 65.4395L191.011 67.2095Z" fill="#ED8150"/>
<path d="M95.4592 193.032L89.4638 196.555L87.3593 194.076L92.123 187.982L95.4592 193.032Z" fill="#ED8150"/>
<path d="M149.76 218.13L148.561 224.982H145.299L143.749 217.404L149.76 218.13Z" fill="#ED8150"/>
<path d="M157.028 115.328C160.536 133.413 161.215 151.932 159.043 170.225C157.722 181.008 149.761 220.382 149.761 220.382H143.749L125.387 118.615L157.028 115.328Z" fill="#894731"/>
<path d="M145.519 113.215C148.778 128.963 150.491 144.991 150.633 161.072C150.633 180.478 142.835 211.523 142.835 211.523L125.387 118.615L145.519 113.215Z" fill="#693626"/>
<path d="M131.162 118.615C131.162 118.615 144.458 147.981 140.257 162.663C135.2 180.397 93.012 195.577 93.012 195.577L88.8193 190.487C88.8193 190.487 112.426 170.233 115.395 159.873C118.364 149.514 100.932 120.924 100.043 117.963C99.1542 115.002 131.162 118.615 131.162 118.615Z" fill="#894731"/>
<path d="M148.945 222.766C148.945 222.766 163.089 222.766 165.863 229.952H142.778C142.778 229.952 140.894 224.903 144.899 222.978C144.899 222.978 146.53 224.364 148.945 222.766Z" fill="#3F2B2A"/>
<path d="M142.656 229.173H158.537C158.509 227.586 158.867 226.015 159.581 224.597C159.647 224.467 159.859 224.597 159.785 224.72C159.097 226.102 158.75 227.629 158.774 229.173H165.675C165.701 229.18 165.724 229.196 165.74 229.217C165.757 229.238 165.766 229.265 165.766 229.292C165.766 229.319 165.757 229.345 165.74 229.366C165.724 229.388 165.701 229.403 165.675 229.41H158.782C158.782 229.589 158.782 229.769 158.782 229.948C158.782 230.128 158.554 230.103 158.537 229.948C158.521 229.793 158.537 229.589 158.537 229.41H142.656C142.63 229.403 142.606 229.388 142.59 229.366C142.574 229.345 142.565 229.319 142.565 229.292C142.565 229.265 142.574 229.238 142.59 229.217C142.606 229.196 142.63 229.18 142.656 229.173Z" fill="#FFFAF1"/>
<path d="M90.516 195.912C90.516 195.912 99.3337 207.454 95.296 214.02L81.2822 195.684C81.2822 195.684 84.1535 191.116 88.1096 193.13C88.1259 193.13 87.7671 194.958 90.516 195.912Z" fill="#3F2B2A"/>
<path d="M81.8288 195.111L91.4703 207.722C92.7172 206.744 94.1799 206.078 95.7364 205.781C95.8914 205.781 95.9159 205.993 95.7364 206.017C94.2195 206.307 92.795 206.959 91.5845 207.918L95.7773 213.399C95.7967 213.425 95.805 213.458 95.8005 213.49C95.7959 213.522 95.7787 213.551 95.7528 213.571C95.7268 213.59 95.6942 213.598 95.662 213.594C95.6299 213.589 95.601 213.572 95.5815 213.546L91.3969 208.065C91.2583 208.179 91.1114 208.277 90.9728 208.399C90.8341 208.521 90.7118 208.309 90.826 208.211C90.9402 208.113 91.1114 207.991 91.2501 207.877L81.6003 195.258C81.5809 195.228 81.5743 195.191 81.5819 195.156C81.5896 195.121 81.6109 195.09 81.6412 195.07C81.6715 195.051 81.7082 195.044 81.7434 195.052C81.7786 195.06 81.8093 195.081 81.8288 195.111Z" fill="#FFFAF1"/>
<path d="M187.829 110.653C197.618 107.733 201.264 80.3255 198.817 71.8503L194.82 68.245C194.82 68.245 193.384 72.6334 191.247 77.6581C188.8 83.311 185.537 89.7469 182.364 91.5251C180.325 92.6997 177.967 90.481 175.3 87.2426C170.21 81.0433 160.805 63.4078 151.343 68.7915C131.252 80.3092 173.261 115.009 187.829 110.653Z" fill="#ED8150"/>
<path d="M182.429 95.8257C189.852 94.129 191.231 78.1739 191.247 77.7008C188.8 83.3536 185.537 89.7895 182.364 91.5677C180.325 92.7424 177.967 90.5236 175.3 87.2853C167.396 74.9437 161.27 70.3105 161.27 70.3105L162.175 83.4352C162.175 83.4352 173.669 97.8323 182.429 95.8257Z" fill="#C9643E"/>
<path d="M139.923 57.4961C139.923 57.4961 135.845 71.9585 147.134 83.0031L153.66 93.4523C153.66 93.4523 166.964 79.4303 167.151 71.0123C167.151 71.0123 157.151 61.6072 139.923 57.4961Z" fill="#F0A145"/>
<path d="M156.645 90.0916L153.676 93.4523L139.939 57.4961C142.486 58.0778 144.99 58.8299 147.436 59.7474C152.314 66.844 157.306 76.2817 156.645 90.0916Z" fill="#E18930"/>
<path d="M151.188 90.2629C151.188 90.2629 164.443 74.7646 164.443 67.1133L169.158 70.7758C169.158 70.7758 165.773 86.5025 153.904 95.4589L151.188 90.2629Z" fill="#FFFAF1"/>
<path d="M158.342 116.258C158.342 116.258 138.618 126.128 98.9831 119.08C98.9831 119.08 95.5001 53.3588 129.98 54.8189C150.984 55.708 152.877 74.7628 158.342 116.258Z" fill="#F0A145"/>
<path d="M98.983 119.08C98.983 119.08 98.1673 89.1115 104.644 76.9004L110.117 81.3541C110.117 81.3541 107.368 91.0528 105.745 98.337C102.768 111.666 103.143 119.774 103.143 119.774L98.983 119.08Z" fill="#E18930"/>
<path d="M119.816 56.6438C119.816 56.6438 121.57 73.586 110.117 81.3514L109.302 84.3859C109.302 84.3859 113.796 83.8557 118.03 76.8977C123.74 67.4845 122.336 55.6895 122.336 55.6895L119.816 56.6438Z" fill="#E18930"/>
<path d="M134.499 55.35C134.499 55.35 132.052 59.7059 124.62 55.1624C125.51 52.5505 125.621 49.7361 124.939 47.0625L132.517 48.906C132.517 48.906 131.782 51.7446 134.499 55.35Z" fill="#C9643E"/>
<path d="M134.499 55.3494C134.499 55.3494 137.256 55.1618 138.643 56.6464C138.643 56.6464 138.642 59.4606 134.499 61.2959C134.005 59.5692 132.854 58.1049 131.293 57.2174C132.561 57.0257 133.707 56.3576 134.499 55.3494Z" fill="#FFFAF1"/>
<path d="M131.293 57.1943C130.566 58.4858 129.983 59.8536 129.556 61.2728C129.556 61.2728 124.612 58.9235 122.312 55.6934C123.002 55.264 123.811 55.0695 124.621 55.1387C126.623 56.4046 128.926 57.1141 131.293 57.1943Z" fill="#FFFAF1"/>
<path d="M75.2869 96.0119C75.8252 106.257 107.377 114.528 116.194 114.594L115.876 109.756C115.876 109.756 95.3368 98.0838 92.8815 95.4083C88.803 90.9871 114.946 82.1776 113.837 70.2194C111.683 47.1921 74.202 75.4725 75.2869 96.0119Z" fill="#ED8150"/>
<path d="M82.7179 92.3604C82.2285 99.9546 100.794 100.991 101.242 101.137C96.5196 97.2057 94.8229 98.4782 92.8815 95.4274C90.6302 91.871 102.923 85.1741 102.923 85.1741V72.7754C102.923 72.7754 83.2889 83.3958 82.7179 92.3604Z" fill="#C9643E"/>
<path d="M119.816 56.6445C119.816 56.6445 122.589 71.425 110.117 81.3521L103.649 88.0898C103.649 88.0898 92.3514 74.7857 92.9632 66.384C92.9632 66.384 102.066 59.1161 119.816 56.6445Z" fill="#F0A145"/>
<path d="M103.624 90.0161L107.083 85.9376C107.083 85.9376 94.2437 75.7576 95.7691 63.1387L90.6709 66.4994C90.6709 66.4994 94.105 82.1038 103.624 90.0161Z" fill="#FFFAF1"/>
<path d="M135.306 35.3317C136.316 39.0198 136.81 42.83 136.775 46.6536C136.595 50.414 129.001 53.9949 124.474 47.869C119.947 41.7431 122.908 34.0918 122.908 34.0918L135.306 35.3317Z" fill="#ED8150"/>
<path d="M134.213 28.6436C133.263 28.8344 132.35 29.1818 131.513 29.6714C130.041 30.269 128.469 30.5791 126.88 30.585C124.8 30.74 122.802 31.0092 121.333 32.5916C118.968 35.0877 118.511 40.7486 120.232 44.0115C120.257 44.356 120.372 44.6879 120.565 44.9742C120.758 45.2605 121.023 45.491 121.333 45.6429C121.605 45.7764 121.901 45.8542 122.204 45.8718C122.506 45.8894 122.809 45.8465 123.095 45.7454C123.381 45.6444 123.643 45.4873 123.867 45.2834C124.092 45.0795 124.273 44.8329 124.4 44.558C125.273 42.8532 124.572 40.5692 124.531 38.7583C124.531 38.3505 124.531 37.8284 124.531 37.3227C129.352 37.8774 135.804 38.3505 138.789 34.7614C141.775 31.1723 138.129 28.1461 134.213 28.6436Z" fill="#332322"/>
<path d="M122.385 44.7056C122.288 44.6159 122.182 44.5343 122.092 44.4446C121.227 43.5636 122.679 42.2911 123.536 43.1639C124.517 44.225 125.774 44.993 127.165 45.3826C129.115 45.9128 129.988 45.3174 131.244 44.0612C131.439 43.8897 131.69 43.7951 131.95 43.7951C132.209 43.7951 132.46 43.8897 132.655 44.0612C133.887 45.3092 137.101 43.2944 137.631 45.2929C138.047 46.8754 136.358 49.8119 134.368 50.5297C129.066 52.4548 125.012 49.2328 121.863 46.1983C121.756 46.0777 121.684 45.9308 121.652 45.7726C121.621 45.6145 121.633 45.4509 121.686 45.2987C121.739 45.1465 121.832 45.0113 121.955 44.9071C122.078 44.8028 122.227 44.7333 122.385 44.7056Z" fill="#332322"/>
<path d="M205.065 72.1294L198.442 74.7804C198.147 74.8957 197.819 74.8901 197.529 74.7649C197.239 74.6396 197.01 74.4048 196.892 74.1115L187.103 50.3175L195.929 46.7773L205.718 70.5795C205.834 70.8718 205.831 71.1981 205.709 71.488C205.587 71.7779 205.355 72.0083 205.065 72.1294Z" fill="#D55838"/>
<path d="M201.321 53.7113L198.409 54.8778L196.272 49.5431L198.115 48.8008L199.176 51.4763L201.321 53.7113Z" fill="#292340"/>
<path d="M200.84 53.8965L197.928 55.063L195.791 49.7283L197.634 48.9941L198.703 51.6615L200.84 53.8965Z" fill="#2B191A"/>
<path d="M200.367 74.003L198.442 74.7779C198.147 74.8932 197.819 74.8877 197.529 74.7624C197.239 74.6371 197.01 74.4023 196.892 74.109L187.103 50.315L190.138 49.0996L200.367 74.003Z" fill="#883223"/>
<path d="M185.912 44.7389C185.804 43.6244 185.367 42.5671 184.658 41.7008C183.948 40.8345 182.998 40.1982 181.926 39.8722C180.855 39.5462 179.711 39.5452 178.639 39.8694C177.567 40.1936 176.616 40.8284 175.905 41.6934C175.194 42.5585 174.755 43.6151 174.645 44.7294C174.534 45.8437 174.757 46.9657 175.284 47.9536C175.811 48.9415 176.62 49.7508 177.607 50.2791C178.594 50.8075 179.716 51.0312 180.831 50.9219C182.324 50.7754 183.699 50.0418 184.652 48.8824C185.605 47.723 186.058 46.2326 185.912 44.7389Z" fill="#2B191A"/>
<path d="M207.219 13.2754C207.219 13.2754 199.062 28.7737 175.406 37.3957C175.406 37.3957 176.597 48.5137 183.49 53.7098C183.49 53.7098 207.732 38.7661 224.356 44.3047L207.219 13.2754Z" fill="#D55838"/>
<path d="M175.651 39.002C175.651 39.1651 175.716 39.3527 175.757 39.5322C175.716 39.3445 175.684 39.1651 175.651 39.002Z" fill="#4886FF"/>
<path d="M185.415 32.9492C184.705 33.3326 183.979 33.6997 183.245 34.0504C183.979 33.6997 184.705 33.3244 185.415 32.9492Z" fill="#4886FF"/>
<path d="M187.495 31.8168C186.818 32.2001 186.125 32.5835 185.415 32.9506C186.125 32.5753 186.818 32.192 187.495 31.8086V31.8168Z" fill="#4886FF"/>
<path d="M191.1 41.0276C189.699 38.0399 188.494 34.9635 187.495 31.8184C186.818 32.2017 186.125 32.5851 185.415 32.9522C184.705 33.3192 183.979 33.7026 183.245 34.0534L181.744 34.7712C181.263 34.9914 180.774 35.2198 180.284 35.4319L180.145 35.489C179.738 35.6766 179.33 35.8479 178.906 36.0192L178.416 36.2231C177.959 36.4189 177.503 36.5984 177.038 36.7697C176.573 36.941 175.953 37.1938 175.406 37.3896C175.406 37.3896 175.472 38.0014 175.659 39.021C175.659 39.1841 175.724 39.3636 175.765 39.5512C175.806 39.7388 175.765 39.747 175.83 39.8449C175.896 39.9427 175.83 40.0406 175.887 40.1467L176.01 40.6524C176.302 41.8767 176.664 43.0832 177.095 44.266C177.171 44.4889 177.252 44.7092 177.339 44.9267L177.478 45.2611C177.478 45.3672 177.56 45.4814 177.617 45.5956C177.674 45.7098 177.707 45.8158 177.755 45.93L177.902 46.2726C179.114 49.1733 181.036 51.7229 183.49 53.6873C187.282 51.5733 191.187 49.6672 195.187 47.9774C193.6 45.8007 192.231 43.4729 191.1 41.0276Z" fill="#883223"/>
<path d="M221.379 25.1024C217.725 17.4593 213.124 11.7331 210.082 10.7135L209.764 10.0527L208.344 10.7298C205.628 12.1001 206.982 20.6405 211.379 29.8661C215.775 39.0917 221.575 45.5113 224.348 44.2633L225.768 43.5862L225.449 42.9337C226.575 39.9319 225.025 32.7537 221.379 25.1024Z" fill="#2B191A"/>
<path d="M222.758 24.4439C227.179 33.7103 228.525 42.2833 225.768 43.5966C223.59 44.6325 219.527 40.864 215.734 34.6973C214.651 32.9199 213.66 31.0875 212.765 29.2076C211.869 27.3485 211.074 25.4425 210.383 23.4977C207.936 16.6621 207.594 11.1153 209.763 10.0794C212.521 8.74162 218.345 15.2183 222.758 24.4439Z" fill="#E0DACE"/>
<path d="M220.572 32.7149C218.787 32.8336 217.089 33.5292 215.734 34.697C214.651 32.9196 213.66 31.0873 212.765 29.2073C211.869 27.3483 211.074 25.4422 210.383 23.4974C212.167 23.2447 213.796 22.3446 214.959 20.9688C218.035 22.0292 221.983 29.7784 220.572 32.7149Z" fill="#D55838"/>
<path d="M219.519 25.9909C221.069 29.2537 221.542 32.2473 220.572 32.7123C219.601 33.1772 217.562 30.9177 216.012 27.6631C214.462 24.4084 213.989 21.3985 214.96 20.9417C215.93 20.4849 217.969 22.7362 219.519 25.9909Z" fill="#883223"/>
<path d="M218.72 26.3678C219.536 28.146 219.821 29.7856 219.299 30.0384C218.777 30.2913 217.668 29.0596 216.852 27.2814C216.036 25.5031 215.743 23.8717 216.273 23.6188C216.803 23.366 217.872 24.5977 218.72 26.3678Z" fill="#D55838"/>
<path d="M223.561 5.66088L218.738 11.5801L219.339 12.0695L224.162 6.15034L223.561 5.66088Z" fill="#2B191A"/>
<path d="M243.326 28.7478L228.797 29.9219L228.859 30.6943L243.389 29.5202L243.326 28.7478Z" fill="#2B191A"/>
<path d="M233.014 20.0378L227.91 22.1895L228.211 22.9035L233.315 20.7518L233.014 20.0378Z" fill="#2B191A"/>
<path d="M238.216 12.597L226.677 19.9883L227.095 20.6408L238.634 13.2496L238.216 12.597Z" fill="#2B191A"/>
<path d="M230.747 39.1511L230.592 39.9102L238.071 41.4454L238.226 40.6863L230.747 39.1511Z" fill="#2B191A"/>
<path d="M193.017 62.8219C192.205 63.1833 191.554 63.8286 191.184 64.6367C190.815 65.4448 190.753 66.36 191.011 67.2104C191.002 67.2999 191.002 67.3901 191.011 67.4796C191.084 68.3687 191.59 69.0702 192.544 68.8907C193.051 68.8048 193.512 68.5471 193.851 68.1608C194.19 67.7745 194.385 67.2833 194.404 66.7699C194.404 66.0358 193.8 65.1956 194.51 64.6083C195.22 64.021 196.614 64.176 197.438 64.2249C197.561 64.2226 197.682 64.1884 197.788 64.1255C197.893 64.0627 197.981 63.9734 198.042 63.8665C198.103 63.7595 198.135 63.6386 198.135 63.5155C198.135 63.3924 198.103 63.2715 198.042 63.1645C197.047 61.1334 194.551 62.1449 193.017 62.8219Z" fill="#ED8150"/>
<path d="M203.597 69.5581C203.222 69.5581 202.52 69.2481 202.561 68.6771C202.569 68.61 202.585 68.5442 202.61 68.4813C202.346 68.5635 202.068 68.5886 201.794 68.5548C201.215 68.4814 200.342 68.0327 200.717 67.2089C200.876 66.8875 201.108 66.608 201.394 66.3932C201.121 66.3665 200.859 66.269 200.634 66.1103C200.409 65.9515 200.23 65.7369 200.114 65.4877C199.673 64.6149 200.203 64.1255 200.848 63.8074C200.154 63.734 199.143 63.4403 199.526 62.5023C199.828 61.9982 200.248 61.5753 200.75 61.2705C201.323 60.8467 201.944 60.4935 202.602 60.2183H202.675C202.708 60.1789 202.752 60.1501 202.801 60.1356C202.851 60.1211 202.903 60.1215 202.952 60.1367C203.695 60.3243 204.527 61.1074 203.988 62.021C203.844 62.2615 203.675 62.4857 203.483 62.6899C204.111 62.5594 204.682 62.6409 204.902 63.3261C204.967 63.6892 204.924 64.0632 204.779 64.4023C204.634 64.7414 204.393 65.0308 204.086 65.2349C204.396 65.398 204.804 65.6101 204.853 66.0506C204.844 66.4084 204.695 66.7483 204.437 66.9968C204.475 66.9968 204.512 67.0056 204.546 67.0226C204.58 67.0396 204.61 67.0643 204.633 67.0947C204.814 67.3051 204.933 67.5618 204.976 67.8361C205.019 68.1103 204.985 68.3912 204.877 68.6471C204.77 68.903 204.593 69.1238 204.367 69.2847C204.14 69.4457 203.874 69.5403 203.597 69.5581Z" fill="#ED8150"/>
<path d="M146.041 98.4188L167.461 99.3323L171.099 99.4873L170.699 108.884L165.805 108.672L145.625 107.856C143.229 107.755 140.891 108.608 139.124 110.23C137.358 111.851 136.307 114.107 136.203 116.503C136.108 118.897 136.966 121.23 138.588 122.993C140.21 124.756 142.465 125.804 144.858 125.908L169.916 126.977L169.647 133.184L169.517 136.365L162.396 136.063L144.45 135.305C144.01 135.305 143.577 135.248 143.153 135.199C142.401 135.111 141.655 134.98 140.918 134.807L137.133 134.138L137.305 133.518C134.041 131.96 131.306 129.477 129.442 126.378C127.577 123.279 126.663 119.701 126.815 116.087C126.815 115.671 126.864 115.271 126.904 114.863C127.414 110.206 129.673 105.917 133.226 102.863C136.78 99.8102 141.36 98.2213 146.041 98.4188Z" fill="#40456F"/>
<path d="M100.81 134.967L96.2177 131.068L87.6773 133.124L87.816 136.313L94.9289 136.012L100.81 134.967Z" fill="#E0DACE"/>
<path d="M146.041 98.4177L167.461 99.3313L165.83 108.671L145.649 107.855C143.254 107.754 140.916 108.607 139.149 110.229C137.382 111.85 136.332 114.106 136.228 116.502L126.929 114.87C127.436 110.216 129.691 105.928 133.239 102.874C136.787 99.8197 141.363 98.2268 146.041 98.4177Z" fill="#883223"/>
<path d="M140.143 97.348L165.202 98.4166L164.802 107.805L139.744 106.745C137.349 106.645 135.012 107.5 133.246 109.121C131.479 110.741 130.428 112.997 130.322 115.391C130.227 117.786 131.084 120.121 132.706 121.885C134.328 123.649 136.583 124.699 138.977 124.805L164.035 125.873L163.635 135.262L138.577 134.201C133.69 133.987 129.087 131.844 125.778 128.242C122.469 124.639 120.724 119.871 120.925 114.984C121.141 110.099 123.286 105.499 126.889 102.193C130.491 98.8869 135.258 97.1446 140.143 97.348Z" fill="#6389D5"/>
<path d="M140.143 97.3481L165.202 98.4166L164.802 107.805L139.744 106.745C137.349 106.645 135.012 107.5 133.246 109.121C131.48 110.741 130.428 112.997 130.322 115.391L120.925 114.975C121.144 110.092 123.289 105.494 126.891 102.19C130.494 98.8857 135.259 97.1445 140.143 97.3481Z" fill="#D55838"/>
<path d="M158.141 98.1367L157.74 107.533L164.855 107.836L165.255 98.4398L158.141 98.1367Z" fill="#FFFAF1"/>
<path d="M156.998 125.611L156.597 135.008L163.712 135.311L164.112 125.914L156.998 125.611Z" fill="#FFFAF1"/>
<path d="M169.517 136.316L163.636 135.272L164.035 125.883L169.916 126.919L169.517 136.316Z" fill="#C7C1B7"/>
<path d="M170.691 108.853L164.81 107.817L165.218 98.4199L171.099 99.4559L170.691 108.853Z" fill="#C7C1B7"/>
<path d="M113.772 112.79C114.057 114.046 115.175 113.924 116.219 114.593C117.467 115.409 120.721 120.556 122.369 120.237C124.629 119.813 119.971 116.681 121.317 116.42C121.806 116.33 125.705 121.665 126.276 119.683C126.529 118.867 123.568 114.838 124.931 115.245C126.162 116.298 128.666 120.14 129.686 119.112C130.167 118.647 128.764 115.914 128.055 115.164C125.656 112.562 126.913 112.227 129.343 114.56C130.6 115.776 131.725 115.449 130.975 113.793C129.458 110.359 124.074 108.94 120.55 108.442C119.066 108.263 113.144 109.992 113.772 112.79Z" fill="#ED8150"/>
<path d="M117.532 109.42C116.822 110.04 117.646 111.052 118.348 110.758C119.355 110.785 120.347 110.5 121.186 109.942C121.676 109.6 122.067 109.127 122.589 108.817C123.368 108.425 124.231 108.234 125.102 108.262C125.64 108.221 126.244 107.642 125.86 107.063C124.172 104.502 119.049 108.107 117.532 109.42Z" fill="#ED8150"/>
<g clip-path="url(#clip0_2196_2627)">
<path d="M173.634 13.0797C173.087 15.5833 171.614 17.7883 169.511 19.2544L169.164 19.4859C168.022 20.2186 166.746 20.7172 165.409 20.9528C164.073 21.1884 162.703 21.1563 161.379 20.8583C160.055 20.5603 158.804 20.0024 157.697 19.2169C156.591 18.4314 155.651 17.4341 154.934 16.2828L154.71 15.8969C153.887 14.449 153.429 12.8224 153.376 11.1579C153.323 9.49339 153.676 7.84103 154.406 6.34381C155.135 4.84658 156.219 3.54958 157.563 2.56504C158.906 1.58049 160.47 0.938059 162.117 0.693319C163.765 0.448579 165.448 0.608911 167.02 1.16043C168.592 1.71195 170.006 2.63806 171.139 3.85861C172.273 5.07916 173.092 6.5574 173.525 8.16542C173.958 9.77345 173.993 11.4628 173.627 13.0874L173.634 13.0797Z" fill="#6163A0"/>
<path d="M163.651 21.4694C162.872 21.4629 162.095 21.3749 161.335 21.207C159.959 20.8996 158.66 20.3207 157.511 19.5042C156.363 18.6877 155.39 17.6502 154.648 16.4524C154.571 16.3289 154.494 16.2054 154.424 16.0819C153.569 14.5797 153.094 12.8919 153.038 11.1645C152.983 9.43714 153.349 7.7223 154.106 6.16837C154.863 4.61443 155.987 3.26823 157.381 2.24627C158.775 1.2243 160.398 0.557379 162.108 0.30318C163.818 0.048981 165.564 0.215175 167.195 0.787392C168.827 1.35961 170.294 2.3206 171.47 3.58721C172.647 4.85381 173.496 6.38787 173.946 8.05662C174.396 9.72537 174.432 11.4785 174.051 13.1644C173.471 15.7486 171.946 18.0227 169.774 19.5398L169.411 19.7791C167.695 20.8867 165.694 21.4738 163.651 21.4694ZM163.651 0.961672C161.927 0.966201 160.234 1.42211 158.742 2.284C157.249 3.14589 156.008 4.38369 155.143 5.87412C154.277 7.36455 153.818 9.05561 153.809 10.7789C153.801 12.5021 154.245 14.1975 155.096 15.696C155.158 15.8161 155.228 15.9321 155.304 16.0434C155.994 17.1519 156.897 18.1124 157.961 18.8689C159.025 19.6255 160.229 20.163 161.503 20.4503C162.777 20.7376 164.095 20.7689 165.381 20.5423C166.667 20.3158 167.895 19.8359 168.994 19.1307L169.334 18.9069C170.899 17.8102 172.111 16.2829 172.824 14.5104C173.537 12.738 173.72 10.7968 173.35 8.92246C172.981 7.04816 172.075 5.32148 170.742 3.95214C169.41 2.58279 167.708 1.62971 165.844 1.20867C165.112 1.03977 164.363 0.956878 163.612 0.961672H163.651Z" fill="#6163A0"/>
<path d="M169.164 19.4548C168.022 20.1875 166.746 20.6861 165.409 20.9217C164.073 21.1573 162.703 21.1251 161.379 20.8271C160.055 20.5291 158.804 19.9712 157.697 19.1858C156.591 18.4003 155.651 17.403 154.934 16.2516C155.72 14.8145 156.95 13.6704 158.441 12.9901C159.931 12.3098 161.602 12.1299 163.203 12.4774H163.319C164.916 12.8534 166.349 13.7363 167.403 14.994C168.456 16.2518 169.074 17.8167 169.164 19.4548Z" fill="white"/>
<path d="M167.303 9.18169C167.161 9.80162 166.838 10.3656 166.376 10.8023C165.913 11.2391 165.332 11.5291 164.705 11.6357C164.077 11.7423 163.433 11.6608 162.852 11.4014C162.271 11.142 161.78 10.7164 161.441 10.1783C161.101 9.6402 160.929 9.01372 160.946 8.37794C160.963 7.74216 161.168 7.12559 161.535 6.60607C161.902 6.08655 162.414 5.68738 163.008 5.45894C163.602 5.23049 164.25 5.18301 164.871 5.32251C165.705 5.51211 166.43 6.02514 166.886 6.74881C167.342 7.47248 167.492 8.34755 167.303 9.18169Z" fill="white"/>
</g>
<path d="M44.7795 153.187C46.6453 153.157 48.4578 152.56 49.9756 151.474C50.0475 154.676 49.7741 157.875 49.1599 161.018C47.1206 164.281 41.4596 170.358 41.8185 170.317C43.3717 170.161 44.8986 169.808 46.3621 169.265C45.3966 171.259 44.2353 173.153 42.8953 174.918C40.1546 178.58 36.2392 181.509 34.7383 185.979C34.7279 186.023 34.7068 186.064 34.677 186.098C34.6471 186.132 34.6093 186.158 34.5669 186.174C34.5648 186.236 34.5454 186.295 34.511 186.346C34.4765 186.397 34.4284 186.437 34.3722 186.462C34.3159 186.487 34.2538 186.495 34.193 186.486C34.1323 186.477 34.0753 186.451 34.0286 186.411C26.6873 179.396 25.3251 168.743 24.2402 159.134C24.1831 158.677 24.1341 158.228 24.0933 157.772C26.0913 159.868 28.3861 161.66 30.9044 163.09C31.2634 163.286 26.2795 155.308 23.8324 151.67C23.8878 149.341 24.3174 147.036 25.1048 144.843C26.8341 140.209 29.8033 135.87 32.6746 131.889C32.7969 131.726 32.9274 131.571 33.0416 131.4C33.8119 133.466 34.8839 135.407 36.2228 137.159C36.4594 137.469 35.7008 131.335 35.2277 128.529C35.9537 127.631 36.6715 126.734 37.4301 125.869C38.4089 124.703 39.6243 122.737 41.3944 122.998C43.1644 123.259 47.0227 130.274 47.5203 132.281C47.7324 133.097 47.9282 134.018 48.0995 134.899C48.1811 135.274 48.2544 135.658 48.3197 136.041C48.9416 139.584 49.3827 143.156 49.6411 146.743C49.5187 146.931 49.3964 147.119 49.2577 147.306C47.9037 149.223 44.4288 153.187 44.7795 153.187Z" fill="#7F8444"/>
<path d="M38.0499 149.647C41.688 149.101 44.4777 146.792 47.1532 144.419C47.5529 144.068 47.0553 143.391 46.6556 143.75C44.1433 145.977 41.533 148.204 38.1315 148.783C38.9472 143.35 39.8118 137.942 40.8804 132.567C40.9864 132.036 40.1544 131.906 40.0647 132.436C38.6508 139.565 37.498 146.735 36.6061 153.946C34.5138 150.981 32.888 147.713 31.7854 144.256C31.6141 143.742 30.8392 144.052 30.9697 144.566C32.1501 148.228 33.8979 151.682 36.1494 154.803C36.1826 154.852 36.2274 154.893 36.28 154.922C36.3326 154.95 36.3914 154.965 36.4512 154.966C36.2636 156.548 36.0841 158.122 35.9128 159.705C34.393 157.822 33.1866 155.707 32.34 153.44C32.3197 153.387 32.289 153.338 32.2497 153.296C32.2104 153.254 32.1633 153.221 32.111 153.197C32.0587 153.174 32.0024 153.161 31.9451 153.159C31.8878 153.158 31.8308 153.167 31.7772 153.187C31.7237 153.208 31.6746 153.239 31.6329 153.278C31.5913 153.317 31.5576 153.364 31.5342 153.417C31.5107 153.469 31.4977 153.525 31.496 153.582C31.4943 153.64 31.504 153.697 31.5243 153.75C32.4691 156.284 33.8494 158.633 35.6028 160.692C35.6494 160.746 35.7081 160.788 35.7741 160.814C35.2303 166.013 34.8279 171.22 34.5669 176.435C34.5347 176.489 34.5178 176.551 34.518 176.614C34.4038 178.531 34.3385 180.432 34.314 182.324C34.314 183.572 34.2406 184.771 34.2162 186.06C34.2111 186.113 34.2196 186.166 34.2411 186.215C34.2625 186.263 34.2961 186.306 34.3385 186.338C34.6839 198.085 36.1672 209.772 38.7677 221.233L39.5834 221.046C36.7937 208.043 34.9339 194.878 35.1786 181.549C35.2276 180.146 35.2847 178.735 35.35 177.332C35.4117 177.356 35.4783 177.364 35.5438 177.355C35.6092 177.346 35.6716 177.322 35.7252 177.283C37.245 176.248 38.5428 174.92 39.5426 173.376C39.8363 172.936 39.1838 172.405 38.8901 172.862C37.9674 174.281 36.7825 175.51 35.3989 176.484C35.8611 167.506 36.7176 158.555 37.9684 149.631L38.0499 149.647Z" fill="#605F31"/>
<path d="M9.06812 173.805C7.50795 174.399 5.81301 174.546 4.17391 174.229C5.03216 176.665 6.18259 178.988 7.59992 181.147C10.2917 182.941 16.8662 185.625 16.5237 185.731C15.1648 186.118 13.7665 186.351 12.3554 186.424C13.774 187.619 15.3131 188.664 16.9478 189.54C20.3412 191.392 24.5176 192.305 27.0789 195.177C27.1048 195.205 27.1363 195.227 27.1714 195.243C27.2065 195.258 27.2445 195.266 27.2828 195.266C27.3104 195.312 27.3493 195.35 27.3957 195.376C27.4422 195.402 27.4946 195.416 27.5479 195.416C27.6012 195.416 27.6536 195.402 27.7 195.376C27.7465 195.35 27.7854 195.312 27.813 195.266C32.0547 187.566 30.0807 179.124 28.2046 171.554C28.1148 171.187 28.0332 170.836 27.9353 170.477C26.8196 172.749 25.3889 174.853 23.6855 176.725C23.4327 176.995 25.317 169.384 26.3611 165.795C25.6289 164.055 24.59 162.461 23.294 161.088C20.4798 158.176 16.7031 155.901 13.0977 153.845L12.6491 153.6C12.5882 155.435 12.2386 157.25 11.6131 158.976C11.5071 159.286 10.3651 154.416 9.98171 152.157C9.10891 151.724 8.23612 151.284 7.34701 150.884C6.16424 150.329 4.56553 149.253 3.13805 150.068C1.71058 150.884 0.462488 157.41 0.625628 159.041C0.699042 159.759 0.788833 160.485 0.894874 161.203C0.938378 161.513 0.987264 161.823 1.04164 162.133C1.54199 164.991 2.20658 167.818 3.03201 170.6C3.18632 170.71 3.34699 170.81 3.51325 170.901C5.25885 171.831 9.36993 173.691 9.06812 173.805Z" fill="#7F8444"/>
<path d="M33.9145 222.986C32.802 213.556 30.6659 204.276 27.5438 195.309C27.5661 195.272 27.578 195.23 27.578 195.186C27.578 195.143 27.5661 195.101 27.5438 195.064C27.1604 194.134 26.7281 193.212 26.3692 192.291C25.8254 190.866 25.2137 189.455 24.5339 188.057C24.5128 188.011 24.4823 187.969 24.4442 187.935C22.6986 184.101 20.8414 180.322 18.8729 176.597C18.919 176.556 18.9553 176.506 18.9789 176.45C19.8584 174.382 20.3479 172.17 20.4227 169.924C20.4227 169.484 19.6886 169.508 19.6723 169.924C19.6072 171.941 19.1932 173.93 18.4487 175.805C17.856 174.674 17.2469 173.549 16.6215 172.428C16.6706 172.407 16.7148 172.376 16.7513 172.336C16.7878 172.297 16.8158 172.251 16.8336 172.2C17.8345 169.17 18.3144 165.993 18.2529 162.803C18.2529 162.371 17.4944 162.387 17.5026 162.803C17.5615 165.811 17.1289 168.809 16.2219 171.678C13.3587 166.555 10.308 161.539 7.02887 156.645C6.79232 156.286 6.12349 156.645 6.3682 157.012C8.81531 160.707 11.1727 164.475 13.4159 168.293C10.357 168.978 7.48569 168.17 4.71231 167.322C4.26367 167.183 4.03524 167.852 4.47572 167.983C7.44488 168.888 10.4794 169.704 13.7422 168.921C17.3965 175.213 20.7273 181.657 23.7345 188.253C22.3061 187.989 20.9412 187.454 19.7131 186.679C19.3297 186.434 18.8974 187.046 19.3134 187.282C20.6491 188.124 22.1375 188.695 23.6937 188.963C23.7508 188.974 23.8095 188.972 23.8659 188.958C23.9222 188.944 23.9748 188.918 24.02 188.881C24.485 189.909 24.9417 190.945 25.3985 191.989C29.477 201.924 31.7202 212.381 33.1232 223.116L33.9145 222.986Z" fill="#605F31"/>
<path d="M7.3714 163.677C5.05896 163.239 2.84689 162.38 0.845779 161.141C0.889284 161.451 0.93827 161.761 0.99265 162.071C2.89127 163.156 4.95528 163.922 7.10226 164.338C7.58352 164.493 7.81188 163.792 7.3714 163.677Z" fill="#605F31"/>
<path d="M77.8155 169.958C77.7665 172.968 70.8167 174.42 68.6062 175.236C63.712 177.047 58.9565 178.866 55.3429 182.797C51.085 187.439 47.4142 192.782 43.7354 197.896C43.642 198.034 43.5107 198.142 43.3573 198.207C43.2039 198.272 43.035 198.292 42.8708 198.263C42.4673 197.564 42.1287 196.83 41.8594 196.069C40.595 192.945 38.6536 187.235 39.1349 183.98C39.4813 181.692 40.2297 179.482 41.3455 177.455C41.5562 178.479 42.0379 179.428 42.7403 180.204C42.9116 180.383 43.295 176.125 43.556 174.151C43.8823 173.759 44.2085 173.335 44.5511 173.009C45.3399 172.15 46.1994 171.359 47.1206 170.643C47.3164 170.488 47.5121 170.325 47.7079 170.187C48.4583 169.632 49.2414 169.11 50.049 168.629L50.7097 168.253C51.4602 167.837 52.2432 167.438 53.0426 167.095C53.2696 168.579 53.7033 170.023 54.3314 171.386C54.4701 171.671 54.7963 168.001 54.8453 166.377C55.5957 166.092 56.3707 165.855 57.1538 165.627C57.3623 166.586 57.6826 167.516 58.1081 168.4C58.2141 168.604 59.2502 166.124 59.6254 165.031C62.0742 164.53 64.5755 164.333 67.0726 164.444H67.7008C68.3696 164.493 69.0304 164.567 69.6748 164.664C72.0729 165.04 77.7176 166.557 77.8318 169.795C77.84 169.85 77.8344 169.906 77.8155 169.958Z" fill="#7F8444"/>
<path d="M51.0685 177.852C45.1628 183.684 43.3275 194.395 42.9115 197.429C42.3075 198.678 41.8976 200.012 41.6961 201.385C40.9864 206.19 41.1986 211.263 41.3128 216.068C41.3128 217.699 41.4269 219.257 41.5085 220.84L42.3242 220.693C42.2671 219.69 42.2264 218.686 42.1856 217.683C42.0388 213.343 42.0469 208.996 42.2427 204.632C42.2538 202.404 42.654 200.196 43.4254 198.106C43.5274 198.046 43.6163 197.965 43.6865 197.869C47.3653 192.755 51.0278 187.412 55.2939 182.771C58.9075 178.839 63.6712 177.02 68.5572 175.209C70.7678 174.394 77.7176 172.942 77.7665 169.932C68.5491 171.017 57.8633 171.147 51.0685 177.852Z" fill="#605F31"/>
<path d="M50.8158 174.998C50.3799 172.785 50.3384 170.513 50.6934 168.285L50.0328 168.66C49.7404 170.812 49.8037 172.998 50.2204 175.129C50.2938 175.52 50.8892 175.374 50.8158 174.998Z" fill="#605F31"/>
<path d="M48.5562 176.198C48.0293 174.247 47.7391 172.239 47.6916 170.219C47.4959 170.357 47.3 170.521 47.1043 170.676C47.1652 172.587 47.4388 174.486 47.92 176.337C48.0586 176.728 48.6541 176.573 48.5562 176.198Z" fill="#605F31"/>
<path d="M58.4343 216.346C58.4351 217.875 58.2766 219.401 57.9613 220.898C56.8386 226.147 53.8141 230.796 49.4698 233.949H24.0281C19.6857 230.795 16.6639 226.146 15.5447 220.898C14.8864 217.841 14.8864 214.679 15.5447 211.623C15.8295 210.341 16.2308 209.088 16.7438 207.879H56.7132C57.8388 210.56 58.421 213.438 58.4262 216.346H58.4343Z" fill="#D55838"/>
<path d="M58.4345 216.344C58.4352 217.874 58.2767 219.399 57.9614 220.896C56.8387 226.145 53.8142 230.794 49.4699 233.947H24.0282C57.2681 235.578 56.7215 207.918 56.7215 207.918C57.8471 210.599 58.4293 213.477 58.4345 216.385V216.344Z" fill="#883223"/>
<path d="M25.8757 111.885L58.2139 99.1009C59.5336 98.5791 60.1804 97.0864 59.6587 95.7667L51.3699 74.7996C50.8482 73.4799 49.3555 72.833 48.0358 73.3547L15.6976 86.1387C14.3779 86.6604 13.731 88.1532 14.2527 89.4729L22.5415 110.44C23.0632 111.76 24.556 112.407 25.8757 111.885Z" fill="#F0A145"/>
<path d="M36.9896 94.7327L22.7393 90.0424C22.645 90.0112 22.5622 89.9524 22.5016 89.8737C22.441 89.795 22.4053 89.7 22.3991 89.6009C22.393 89.5017 22.4167 89.403 22.4671 89.3174C22.5176 89.2318 22.5925 89.1633 22.6822 89.1207L45.0569 80.254C45.1512 80.2223 45.2529 80.2201 45.3485 80.2477C45.4441 80.2753 45.529 80.3314 45.592 80.4085C45.6549 80.4856 45.6928 80.58 45.7007 80.6792C45.7086 80.7784 45.686 80.8776 45.6361 80.9637L38.4823 94.1454C38.3399 94.4009 38.1132 94.599 37.841 94.7061C37.5688 94.8132 37.268 94.8226 36.9896 94.7327Z" fill="white"/>
<path d="M32.6583 95.0192L28.3025 103.315C28.2575 103.398 28.19 103.466 28.1078 103.511C28.0257 103.557 27.9323 103.579 27.8384 103.574C27.7445 103.569 27.6539 103.537 27.5772 103.483C27.5005 103.428 27.441 103.353 27.4052 103.266L22.9514 92.0419C22.9183 91.9548 22.9102 91.8601 22.9282 91.7686C22.9463 91.6771 22.9896 91.5925 23.0534 91.5245C23.1172 91.4564 23.1989 91.4077 23.289 91.3838C23.3791 91.3599 23.4741 91.3618 23.5632 91.3893L32.3728 94.2932C32.4446 94.3151 32.5105 94.3528 32.5656 94.4037C32.6207 94.4546 32.6636 94.5174 32.6911 94.5872C32.7185 94.657 32.7299 94.7321 32.7242 94.807C32.7186 94.8818 32.696 94.9543 32.6583 95.0192Z" fill="white"/>
<path d="M51.4195 95.8327C51.4195 95.898 51.3624 95.9714 51.2564 96.0285L29.1264 104.797C29.0879 104.82 29.0443 104.831 28.9999 104.831C28.9555 104.831 28.9119 104.82 28.8734 104.797C28.8245 104.74 28.8734 104.642 28.8734 104.512L28.9387 104.373L33.6534 95.4004C33.7284 95.2579 33.8518 95.1468 34.0013 95.087C34.1507 95.0272 34.3166 95.0227 34.4691 95.0741L36.6553 95.792C37.1718 95.9641 37.7328 95.9468 38.2377 95.743C38.7459 95.5431 39.1676 95.1705 39.4287 94.6908L40.5706 92.5863C40.6469 92.4455 40.7713 92.3368 40.921 92.28C41.0707 92.2231 41.2357 92.2218 41.3863 92.2763L51.085 95.637L51.2237 95.6859C51.3542 95.6859 51.4195 95.7512 51.4195 95.8327Z" fill="white"/>
<path d="M46.9004 82.5774L51.3052 93.6791C51.3408 93.7668 51.3503 93.8629 51.3324 93.9558C51.3145 94.0487 51.27 94.1344 51.2044 94.2026C51.1388 94.2708 51.0549 94.3185 50.9628 94.34C50.8706 94.3614 50.7742 94.3557 50.6853 94.3235L41.9083 91.281C41.8405 91.2578 41.7786 91.22 41.727 91.1703C41.6754 91.1205 41.6354 91.0601 41.6097 90.9932C41.584 90.9263 41.5733 90.8545 41.5784 90.783C41.5835 90.7116 41.6042 90.6421 41.6392 90.5795L46.0113 82.5203C46.0556 82.4375 46.1228 82.3691 46.2049 82.3235C46.287 82.2778 46.3805 82.2567 46.4742 82.2627C46.568 82.2687 46.658 82.3016 46.7336 82.3574C46.8092 82.4132 46.867 82.4896 46.9004 82.5774Z" fill="white"/>
<path d="M233.745 233.98H20.0312V235.604H233.745V233.98Z" fill="#745751"/>
<g clip-path="url(#clip1_2196_2627)">
<path d="M51.7517 61.3757L94.6906 27.4625C94.7732 27.4107 94.831 27.3285 94.8522 27.2342C94.8734 27.1399 94.8557 27.0412 94.8032 26.9597C94.7507 26.8782 94.668 26.8206 94.5725 26.7997C94.4771 26.7787 94.3768 26.7961 94.2942 26.8479L52.1481 50.9838C52.0962 51.01 52.0525 51.05 52.0224 51.0994C51.9924 51.1488 51.9772 51.2055 51.9783 51.2631L51.1578 61.0683C51.1536 61.1381 51.17 61.2077 51.2048 61.2686C51.2397 61.3295 51.2919 61.3791 51.3547 61.4115C51.4174 61.444 51.4879 61.4579 51.5584 61.4515C51.6289 61.4452 51.696 61.4188 51.7517 61.3757Z" fill="#C7C1B7"/>
<path d="M33.14 45.4522L46.7168 48.8882H46.9716L94.0678 26.5402C94.1578 26.5032 94.2295 26.4322 94.2667 26.3432C94.3038 26.2541 94.3035 26.1542 94.266 26.0653C94.2285 25.9764 94.1566 25.9059 94.0664 25.8692C93.9762 25.8325 93.8754 25.8327 93.7853 25.8697L33.14 44.8096C33.0807 44.8405 33.0309 44.8867 32.9963 44.9433C32.9617 44.9999 32.9431 45.0648 32.9431 45.1309C32.9431 45.1971 32.9617 45.2619 32.9963 45.3185C33.0309 45.3751 33.0807 45.4213 33.14 45.4522Z" fill="#FFFAF1"/>
<path d="M81.3673 56.4039L98.0849 25.2563C98.1185 25.1869 98.1288 25.1087 98.1146 25.0331C98.1003 24.9575 98.0621 24.8883 98.0055 24.8355C97.9488 24.7827 97.8769 24.7489 97.7997 24.7392C97.7224 24.7295 97.6435 24.7443 97.5752 24.7814L52.827 50.5933C52.76 50.6209 52.7029 50.6675 52.6627 50.7271C52.6224 50.7868 52.6005 50.8569 52.6005 50.9286C52.6005 51.0003 52.6224 51.0703 52.6627 51.13C52.7029 51.1897 52.76 51.2362 52.827 51.2638L80.9433 56.6273C81.0291 56.6412 81.1173 56.6269 81.194 56.5865C81.2707 56.5461 81.3312 56.4819 81.3673 56.4039Z" fill="#FFFAF1"/>
<path d="M51.2426 60.0896L51.9781 51.2621C51.977 51.2045 51.9923 51.1478 52.0223 51.0984C52.0523 51.049 52.096 51.009 52.148 50.9828L90.8149 28.6348C90.8701 28.6221 90.9218 28.5969 90.9655 28.5613C91.0092 28.5257 91.0439 28.4806 91.067 28.4295C91.0901 28.3785 91.101 28.3229 91.0988 28.267C91.0965 28.211 91.081 28.1564 91.0539 28.1073C91.0268 28.0582 90.9884 28.0159 90.942 27.9837C90.8956 27.9516 90.8426 27.9305 90.7866 27.9221C90.7306 27.9137 90.6735 27.9181 90.6195 27.9352C90.5655 27.9522 90.5166 27.9813 90.4759 28.0202L47.1413 48.6083C47.058 48.6452 46.9914 48.7115 46.9548 48.7941C46.9182 48.8767 46.914 48.9698 46.9431 49.0553L50.5355 60.2293C50.5682 60.3068 50.6269 60.3707 50.7019 60.4101C50.7769 60.4496 50.8637 60.4621 50.9471 60.4457C51.0304 60.4292 51.1052 60.3848 51.1591 60.3198C51.213 60.2549 51.2426 60.1735 51.2426 60.0896Z" fill="#E0DACE"/>
</g>
<defs>
<clipPath id="clip0_2196_2627">
<rect width="21.2795" height="21.2795" fill="white" transform="translate(152.996 0.189453)"/>
</clipPath>
<clipPath id="clip1_2196_2627">
<rect width="65.2562" height="36.7066" fill="white" transform="translate(32.8568 24.7246)"/>
</clipPath>
</defs>
</svg>
