<svg width="164" height="140" viewBox="0 0 164 140" fill="none" xmlns="http://www.w3.org/2000/svg">
<path opacity="0.6" d="M77.6228 125.667C77.6228 125.667 10.349 122.026 2.25898 97.8113C-5.831 73.597 12.0921 70.3074 18.2153 56.7422C24.3384 43.1771 -3.43186 35.1826 15.1537 16.7306C33.7393 -1.72146 61.1482 -2.04362 72.6976 6.64733C84.247 15.3383 97.5622 1.3362 119.002 9.22217C140.441 17.1081 145.689 33.0471 138.911 45.4899C132.133 57.9327 159.927 69.8388 163.412 83.9501C166.898 98.0614 135.438 131.888 77.6228 125.667Z" fill="#6D6BE6"/>
<path d="M23.2566 139.025H55.8846L58.591 131.74C59.0682 130.464 59.7937 129.295 60.7255 128.301C61.6572 127.306 62.7769 126.507 64.0196 125.948C66.3823 124.88 69.5621 122.939 72.6445 119.479C78.6388 112.744 81.8221 105.521 81.8221 105.521L61.6038 105.422C61.6038 105.422 63.4235 94.1131 53.3748 79.0918C52.3011 77.4823 51.8084 75.5548 51.978 73.6276L52.931 62.6729C52.931 62.6729 59.7589 55.0427 55.5695 45.5753C55.5695 45.5753 51.5664 40.0284 49.9739 42.0586C49.9739 42.0586 37.8723 70.8759 36.7706 75.1601C35.6688 79.4443 34.1999 82.1385 35.6688 95.6046C36.0578 99.1726 36.1979 102.143 36.191 104.587C36.1806 109.28 35.1344 113.913 33.1268 118.154L23.2566 139.025Z" fill="#FFC0BB"/>
<g style="mix-blend-mode:multiply" opacity="0.2">
<path d="M53.6846 120.333C50.6561 116.971 46.4494 117.502 42.0233 115.967C37.5973 114.433 36.1814 103.378 36.1814 103.378C36.1884 103.795 36.1918 104.201 36.191 104.591C36.1806 109.284 35.1344 113.916 33.1268 118.158L23.2566 139.025H55.8846L58.591 131.74C59.0682 130.464 59.7937 129.295 60.7255 128.301C61.6572 127.306 62.7769 126.507 64.0196 125.948C66.0307 125.039 68.6319 123.497 71.2643 120.925C62.2747 124.702 56.7122 123.694 53.6846 120.333Z" fill="#FFC0BB"/>
</g>
<path d="M125.069 44.9522C125.011 44.7047 124.871 44.484 124.672 44.326C124.473 44.168 124.226 44.082 123.972 44.082C123.876 44.0821 123.781 44.0944 123.688 44.1185C123.519 43.7549 123.223 43.4652 122.857 43.3032C122.49 43.1411 122.077 43.1179 121.694 43.2378C121.495 42.9078 121.206 42.6409 120.862 42.4679C120.518 42.2949 120.131 42.2229 119.748 42.2602C119.364 42.2975 118.999 42.4426 118.694 42.6788C118.389 42.9149 118.158 43.2324 118.026 43.5946C117.813 43.4759 117.572 43.415 117.328 43.4179C117.084 43.4208 116.845 43.4873 116.634 43.6111C116.424 43.7348 116.25 43.9113 116.128 44.1232C116.007 44.3351 115.943 44.575 115.943 44.819C115.943 44.8643 115.943 44.9061 115.95 44.9548L125.069 44.9522Z" fill="#EDFDFC"/>
<path d="M111.91 11.9483C111.822 11.5654 111.657 11.2041 111.427 10.8858C111.197 10.5675 110.905 10.2987 110.569 10.0951C110.233 9.89152 109.859 9.75742 109.471 9.70069C109.082 9.64397 108.686 9.66576 108.305 9.76481C107.862 8.81736 107.091 8.06249 106.134 7.63982C105.177 7.21715 104.099 7.15528 103.1 7.46564C102.581 6.60349 101.828 5.90605 100.928 5.45399C100.029 5.00194 99.0198 4.81373 98.0179 4.91113C97.0159 5.00854 96.0621 5.3876 95.2665 6.00444C94.471 6.62128 93.8664 7.4507 93.5225 8.3968C92.9659 8.08609 92.3376 7.92639 91.7001 7.93355C91.0627 7.9407 90.4382 8.11445 89.8886 8.43757C89.339 8.76069 88.8836 9.22191 88.5674 9.77548C88.2512 10.329 88.0853 10.9557 88.0861 11.5932C88.0861 11.7133 88.0922 11.8316 88.1035 11.9483H111.91Z" fill="#EDFDFC"/>
<path d="M47.324 34.3796C47.2499 34.0593 47.1124 33.757 46.9195 33.4907C46.7267 33.2243 46.4824 32.9993 46.2012 32.829C45.9199 32.6586 45.6074 32.5464 45.282 32.4988C44.9567 32.4513 44.6251 32.4694 44.3068 32.5521C43.9361 31.7589 43.2904 31.1269 42.4894 30.7732C41.6885 30.4194 40.7865 30.3678 39.9504 30.628C39.5154 29.9064 38.8848 29.3227 38.1318 28.9445C37.3788 28.5663 36.5341 28.4091 35.6954 28.491C34.8568 28.5729 34.0585 28.8907 33.3929 29.4075C32.7273 29.9243 32.2217 30.619 31.9346 31.4112C31.4686 31.1518 30.9429 31.0187 30.4096 31.025C29.8763 31.0313 29.3539 31.1767 28.8941 31.447C28.4343 31.7173 28.0531 32.103 27.7883 32.566C27.5234 33.0289 27.3841 33.553 27.3841 34.0864C27.3841 34.1864 27.3893 34.2857 27.3989 34.3831L47.324 34.3796Z" fill="#EDFDFC"/>
<path d="M100.062 22.8481C100.062 22.8481 106.972 18.2236 108.551 21.2703C110.129 24.317 99.5707 35.0985 99.5707 35.0985L100.062 22.8481Z" fill="#EAA0A0"/>
<path d="M100.062 42.9977C100.062 42.9977 106.972 38.3733 108.551 41.42C110.129 44.4667 99.5707 55.249 99.5707 55.249L100.062 42.9977Z" fill="#EAA0A0"/>
<path d="M100.062 56.7275C100.062 56.7275 106.972 52.1021 108.551 55.1489C110.129 58.1956 99.5707 68.9779 99.5707 68.9779L100.062 56.7275Z" fill="#EAA0A0"/>
<path d="M95.29 17.6649H57.3553C55.9986 17.6649 54.6975 18.2039 53.7382 19.1632C52.7789 20.1225 52.24 21.4235 52.24 22.7802V100.308C52.2402 101.665 52.7792 102.966 53.7385 103.925C54.6977 104.884 55.9987 105.423 57.3553 105.424H95.29C96.6466 105.424 97.9477 104.885 98.907 103.925C99.8663 102.966 100.405 101.665 100.405 100.308V22.7802C100.405 21.4236 99.866 20.1227 98.9068 19.1634C97.9475 18.2042 96.6466 17.6651 95.29 17.6649Z" fill="#292162"/>
<g style="mix-blend-mode:multiply" opacity="0.2">
<path d="M55.6957 82.8513C55.6957 82.8513 48.8347 99.6469 49.4996 102.824C50.1644 106.001 54.3294 110.246 64.5452 108.829C74.761 107.411 81.8221 105.522 81.8221 105.522C81.8221 105.522 82.2494 82.8539 81.8221 81.7043C81.3948 80.5547 63.0249 72.3927 62.3043 72.3927C61.5838 72.3927 55.6957 82.8513 55.6957 82.8513Z" fill="#FFC0BB"/>
</g>
<path d="M97.9259 24.6365H54.7202V98.4522H97.9259V24.6365Z" fill="white"/>
<path d="M60.6494 42.3996V42.7889H59.6888V43.8787H59.272V42.7889H58.3094V42.3996H59.272V41.392H59.6888V42.3996H60.6494ZM62.8213 42.7146C62.6217 42.952 62.3758 43.0707 62.0837 43.0707C61.8958 43.0707 61.7263 43.0204 61.575 42.92C61.4302 42.8235 61.3167 42.6898 61.2345 42.5189C61.1537 42.3389 61.1132 42.1439 61.1132 41.9339C61.1132 41.7057 61.1569 41.4996 61.2443 41.3157C61.3317 41.1343 61.455 40.9948 61.6141 40.897C61.7745 40.8004 61.9597 40.7522 62.1697 40.7522C62.5063 40.7522 62.7717 40.8787 62.9661 41.1317C63.1617 41.3848 63.2595 41.7298 63.2595 42.1667V42.2939C63.2595 42.9617 63.1278 43.4502 62.8643 43.7593C62.6008 44.0646 62.2037 44.2204 61.6728 44.227H61.5984V43.8807H61.6787C62.0491 43.8754 62.3302 43.7802 62.5219 43.595C62.7176 43.4046 62.8245 43.113 62.8428 42.7204L62.8213 42.7146ZM62.1561 42.7322C62.3061 42.7322 62.443 42.6865 62.5669 42.5952C62.6947 42.5039 62.7874 42.3911 62.8447 42.2567V42.0767C62.8447 41.7846 62.7815 41.5485 62.655 41.3685C62.5271 41.1859 62.3661 41.0946 62.1717 41.0946C61.9747 41.0946 61.8169 41.1702 61.6982 41.3215C61.5795 41.4702 61.5202 41.6665 61.5202 41.9104C61.5202 42.1478 61.5769 42.3448 61.6904 42.5013C61.8078 42.6552 61.963 42.7322 62.1561 42.7322ZM64.8415 42.3115C65.0489 42.3089 65.2139 42.2535 65.3365 42.1452C65.4591 42.0357 65.5204 41.8896 65.5204 41.707C65.5204 41.2948 65.315 41.0887 64.9041 41.0887C64.7163 41.0887 64.5624 41.1441 64.4424 41.255C64.3289 41.3659 64.2709 41.508 64.2683 41.6815H63.8554C63.8594 41.4233 63.9572 41.2035 64.1489 41.0222C64.3498 40.8422 64.6015 40.7522 64.9041 40.7522C65.2263 40.7522 65.4787 40.8376 65.6613 41.0085C65.8426 41.178 65.9333 41.4141 65.9333 41.7167C65.9333 41.8628 65.8857 42.0057 65.7904 42.1452C65.69 42.2861 65.5485 42.3943 65.3659 42.47C65.5641 42.5339 65.7167 42.635 65.8237 42.7733C65.932 42.9128 65.9861 43.0804 65.9861 43.2761C65.9861 43.58 65.887 43.822 65.6887 44.002C65.4891 44.182 65.2283 44.272 64.9061 44.272C64.5944 44.272 64.3328 44.1852 64.1215 44.0117C63.9285 43.837 63.8294 43.6126 63.8241 43.3387H64.2409C64.2435 43.5187 64.3041 43.6635 64.4228 43.773C64.5428 43.8839 64.7039 43.9393 64.9061 43.9393C65.1213 43.9393 65.2863 43.8826 65.4011 43.7691C65.5146 43.657 65.5713 43.4952 65.5713 43.2839C65.5713 43.0804 65.5087 42.9239 65.3835 42.8143C65.2583 42.7048 65.0776 42.6487 64.8415 42.6461H64.5246V42.3115H64.8415ZM68.6601 44.225H68.2277L69.652 41.1357H67.7777V40.8011H70.0844V41.03L68.6601 44.225ZM72.674 41.6893C72.674 41.8563 72.6271 42.0083 72.5332 42.1452C72.4432 42.2796 72.3166 42.3865 72.1536 42.4661C72.3519 42.5522 72.5006 42.6663 72.5997 42.8085C72.7027 42.9559 72.7542 43.1215 72.7542 43.3054C72.7542 43.5989 72.6551 43.8337 72.4569 44.0098C72.2573 44.1846 71.9951 44.272 71.6703 44.272C71.3521 44.272 71.0886 44.1839 70.8799 44.0078C70.6842 43.8265 70.5864 43.5924 70.5864 43.3054C70.5864 43.1228 70.6386 42.9565 70.7429 42.8065C70.8486 42.6565 70.9934 42.5417 71.1773 42.4622C71.0182 42.3839 70.8936 42.2776 70.8036 42.1433C70.7123 42.0076 70.6666 41.8563 70.6666 41.6893C70.6666 41.4011 70.7579 41.1735 70.9406 41.0065C71.1271 40.837 71.3703 40.7522 71.6703 40.7522C71.969 40.7522 72.2116 40.837 72.3982 41.0065C72.5821 41.1748 72.674 41.4024 72.674 41.6893ZM72.3414 43.2957C72.3414 43.0987 72.2788 42.9389 72.1536 42.8163C72.031 42.6924 71.8686 42.6304 71.6664 42.6304C71.4642 42.6304 71.3019 42.6917 71.1792 42.8143C71.0592 42.9383 70.9992 43.0987 70.9992 43.2957C70.9992 43.4965 71.0586 43.6537 71.1773 43.7672C71.296 43.882 71.4603 43.9393 71.6703 43.9393C71.879 43.9393 72.0427 43.882 72.1614 43.7672C72.2814 43.6498 72.3414 43.4926 72.3414 43.2957ZM71.6703 41.0887C71.4929 41.0887 71.3501 41.1435 71.2419 41.253C71.1349 41.36 71.0814 41.5074 71.0814 41.6952C71.0814 41.8752 71.1342 42.0207 71.2399 42.1315C71.3482 42.2398 71.4916 42.2939 71.6703 42.2939C71.8477 42.2939 71.9906 42.2391 72.0988 42.1296C72.2058 42.02 72.2592 41.8752 72.2592 41.6952C72.2592 41.5204 72.2045 41.375 72.0949 41.2589C71.9827 41.1454 71.8412 41.0887 71.6703 41.0887ZM75.3986 41.6893C75.3986 41.8563 75.3517 42.0083 75.2578 42.1452C75.1678 42.2796 75.0412 42.3865 74.8782 42.4661C75.0765 42.5522 75.2252 42.6663 75.3243 42.8085C75.4273 42.9559 75.4789 43.1215 75.4789 43.3054C75.4789 43.5989 75.3797 43.8337 75.1815 44.0098C74.9819 44.1846 74.7197 44.272 74.3949 44.272C74.0767 44.272 73.8132 44.1839 73.6045 44.0078C73.4089 43.8265 73.311 43.5924 73.311 43.3054C73.311 43.1228 73.3632 42.9565 73.4676 42.8065C73.5732 42.6565 73.718 42.5417 73.9019 42.4622C73.7428 42.3839 73.6182 42.2776 73.5282 42.1433C73.4369 42.0076 73.3912 41.8563 73.3912 41.6893C73.3912 41.4011 73.4826 41.1735 73.6652 41.0065C73.8517 40.837 74.0949 40.7522 74.3949 40.7522C74.6936 40.7522 74.9362 40.837 75.1228 41.0065C75.3067 41.1748 75.3986 41.4024 75.3986 41.6893ZM75.066 43.2957C75.066 43.0987 75.0034 42.9389 74.8782 42.8163C74.7556 42.6924 74.5932 42.6304 74.391 42.6304C74.1889 42.6304 74.0265 42.6917 73.9039 42.8143C73.7839 42.9383 73.7239 43.0987 73.7239 43.2957C73.7239 43.4965 73.7832 43.6537 73.9019 43.7672C74.0206 43.882 74.1849 43.9393 74.3949 43.9393C74.6036 43.9393 74.7673 43.882 74.886 43.7672C75.006 43.6498 75.066 43.4926 75.066 43.2957ZM74.3949 41.0887C74.2176 41.0887 74.0747 41.1435 73.9665 41.253C73.8595 41.36 73.806 41.5074 73.806 41.6952C73.806 41.8752 73.8589 42.0207 73.9645 42.1315C74.0728 42.2398 74.2162 42.2939 74.3949 42.2939C74.5723 42.2939 74.7152 42.2391 74.8234 42.1296C74.9304 42.02 74.9839 41.8752 74.9839 41.6952C74.9839 41.5204 74.9291 41.375 74.8195 41.2589C74.7073 41.1454 74.5658 41.0887 74.3949 41.0887ZM79.4657 42.7654C79.4657 43.278 79.3789 43.6563 79.2054 43.9002C79.0307 44.148 78.7594 44.272 78.3915 44.272C77.6911 44.272 77.3311 43.79 77.3115 42.8261V42.2411C77.3115 41.735 77.3983 41.3613 77.5717 41.12C77.7465 40.8748 78.0185 40.7522 78.3876 40.7522C78.7463 40.7522 79.0144 40.8735 79.1917 41.1161C79.3652 41.3535 79.4565 41.7141 79.4657 42.198V42.7654ZM79.0509 42.1667C79.0509 41.7924 78.9974 41.5191 78.8904 41.347C78.7848 41.1748 78.6172 41.0887 78.3876 41.0887C78.1607 41.0887 77.9944 41.1741 77.8887 41.345C77.7844 41.5133 77.7302 41.7761 77.7263 42.1335V42.8339C77.7263 43.5709 77.948 43.9393 78.3915 43.9393C78.6133 43.9393 78.777 43.8546 78.8826 43.685C78.9896 43.5141 79.0457 43.2474 79.0509 42.8848V42.1667ZM82.1903 42.7654C82.1903 43.278 82.1035 43.6563 81.9301 43.9002C81.7553 44.148 81.484 44.272 81.1161 44.272C80.4157 44.272 80.0557 43.79 80.0361 42.8261V42.2411C80.0361 41.735 80.1229 41.3613 80.2964 41.12C80.4711 40.8748 80.7431 40.7522 81.1122 40.7522C81.4709 40.7522 81.739 40.8735 81.9164 41.1161C82.0898 41.3535 82.1811 41.7141 82.1903 42.198V42.7654ZM81.7755 42.1667C81.7755 41.7924 81.722 41.5191 81.6151 41.347C81.5094 41.1748 81.3418 41.0887 81.1122 41.0887C80.8853 41.0887 80.719 41.1741 80.6133 41.345C80.509 41.5133 80.4548 41.7761 80.4509 42.1335V42.8339C80.4509 43.5709 80.6727 43.9393 81.1161 43.9393C81.3379 43.9393 81.5016 43.8546 81.6072 43.685C81.7142 43.5141 81.7703 43.2474 81.7755 42.8848V42.1667ZM84.9149 42.7654C84.9149 43.278 84.8281 43.6563 84.6547 43.9002C84.4799 44.148 84.2086 44.272 83.8407 44.272C83.1403 44.272 82.7803 43.79 82.7607 42.8261V42.2411C82.7607 41.735 82.8475 41.3613 83.021 41.12C83.1957 40.8748 83.4677 40.7522 83.8368 40.7522C84.1955 40.7522 84.4636 40.8735 84.641 41.1161C84.8144 41.3535 84.9057 41.7141 84.9149 42.198V42.7654ZM84.5001 42.1667C84.5001 41.7924 84.4466 41.5191 84.3397 41.347C84.234 41.1748 84.0664 41.0887 83.8368 41.0887C83.6099 41.0887 83.4436 41.1741 83.3379 41.345C83.2336 41.5133 83.1794 41.7761 83.1755 42.1335V42.8339C83.1755 43.5709 83.3973 43.9393 83.8407 43.9393C84.0625 43.9393 84.2262 43.8546 84.3318 43.685C84.4388 43.5141 84.4949 43.2474 84.5001 42.8848V42.1667ZM88.9095 42.7654C88.9095 43.278 88.8228 43.6563 88.6493 43.9002C88.4745 44.148 88.2032 44.272 87.8354 44.272C87.1349 44.272 86.7749 43.79 86.7554 42.8261V42.2411C86.7554 41.735 86.8421 41.3613 87.0156 41.12C87.1904 40.8748 87.4623 40.7522 87.8315 40.7522C88.1902 40.7522 88.4582 40.8735 88.6356 41.1161C88.8091 41.3535 88.9004 41.7141 88.9095 42.198V42.7654ZM88.4947 42.1667C88.4947 41.7924 88.4412 41.5191 88.3343 41.347C88.2286 41.1748 88.061 41.0887 87.8315 41.0887C87.6045 41.0887 87.4382 41.1741 87.3325 41.345C87.2282 41.5133 87.1741 41.7761 87.1702 42.1335V42.8339C87.1702 43.5709 87.3919 43.9393 87.8354 43.9393C88.0571 43.9393 88.2208 43.8546 88.3265 43.685C88.4334 43.5141 88.4895 43.2474 88.4947 42.8848V42.1667ZM91.6341 42.7654C91.6341 43.278 91.5474 43.6563 91.3739 43.9002C91.1991 44.148 90.9278 44.272 90.56 44.272C89.8595 44.272 89.4995 43.79 89.48 42.8261V42.2411C89.48 41.735 89.5667 41.3613 89.7402 41.12C89.915 40.8748 90.1869 40.7522 90.5561 40.7522C90.9148 40.7522 91.1828 40.8735 91.3602 41.1161C91.5337 41.3535 91.625 41.7141 91.6341 42.198V42.7654ZM91.2193 42.1667C91.2193 41.7924 91.1659 41.5191 91.0589 41.347C90.9532 41.1748 90.7856 41.0887 90.5561 41.0887C90.3291 41.0887 90.1628 41.1741 90.0572 41.345C89.9528 41.5133 89.8987 41.7761 89.8948 42.1335V42.8339C89.8948 43.5709 90.1165 43.9393 90.56 43.9393C90.7817 43.9393 90.9454 43.8546 91.0511 43.685C91.158 43.5141 91.2141 43.2474 91.2193 42.8848V42.1667ZM94.3587 42.7654C94.3587 43.278 94.272 43.6563 94.0985 43.9002C93.9237 44.148 93.6524 44.272 93.2846 44.272C92.5842 44.272 92.2242 43.79 92.2046 42.8261V42.2411C92.2046 41.735 92.2913 41.3613 92.4648 41.12C92.6396 40.8748 92.9116 40.7522 93.2807 40.7522C93.6394 40.7522 93.9074 40.8735 94.0848 41.1161C94.2583 41.3535 94.3496 41.7141 94.3587 42.198V42.7654ZM93.9439 42.1667C93.9439 41.7924 93.8905 41.5191 93.7835 41.347C93.6779 41.1748 93.5102 41.0887 93.2807 41.0887C93.0537 41.0887 92.8874 41.1741 92.7818 41.345C92.6774 41.5133 92.6233 41.7761 92.6194 42.1335V42.8339C92.6194 43.5709 92.8411 43.9393 93.2846 43.9393C93.5063 43.9393 93.67 43.8546 93.7757 43.685C93.8826 43.5141 93.9387 43.2474 93.9439 42.8848V42.1667Z" fill="black"/>
<rect x="60.4361" y="53.9707" width="31" height="9" rx="4.5" fill="#FF4A69"/>
<path d="M68.604 58.7775H68.227V59.6188H67.7523V57.3205H68.6066C68.8788 57.3205 69.0883 57.3809 69.2353 57.5018C69.3831 57.6227 69.457 57.7935 69.457 58.0144C69.457 58.1718 69.4227 58.3027 69.354 58.407C69.2862 58.5114 69.1836 58.5949 69.0462 58.6575L69.5431 59.5966V59.6188H69.0344L68.604 58.7775ZM68.227 58.394H68.6079C68.727 58.394 68.8192 58.3635 68.8844 58.3027C68.9497 58.2418 68.9823 58.1583 68.9823 58.0522C68.9823 57.9444 68.9514 57.8596 68.8897 57.7979C68.8288 57.7353 68.7344 57.704 68.6066 57.704H68.227V58.394ZM70.5713 59.6501C70.3208 59.6501 70.1169 59.5735 69.9595 59.4205C69.8022 59.2666 69.7235 59.0618 69.7235 58.8062V58.7618C69.7235 58.5896 69.7565 58.4362 69.8226 58.3014C69.8895 58.1657 69.9835 58.0614 70.1043 57.9883C70.2261 57.9153 70.3648 57.8788 70.5204 57.8788C70.7543 57.8788 70.9382 57.9527 71.0722 58.1005C71.2069 58.2475 71.2743 58.4562 71.2743 58.7266V58.9131H70.1865C70.2013 59.0244 70.2456 59.114 70.3195 59.1818C70.3935 59.2488 70.4874 59.2822 70.6013 59.2822C70.7769 59.2822 70.9143 59.2188 71.0135 59.0918L71.2378 59.3422C71.1691 59.4396 71.0765 59.5153 70.96 59.5692C70.8435 59.6231 70.7139 59.6501 70.5713 59.6501ZM70.5191 58.2479C70.4287 58.2479 70.3552 58.2788 70.2987 58.3405C70.243 58.4014 70.2069 58.4883 70.1904 58.6014H70.8256V58.5662C70.8239 58.4644 70.7965 58.3862 70.7435 58.3314C70.6913 58.2757 70.6165 58.2479 70.5191 58.2479ZM71.4686 58.7514C71.4686 58.4896 71.5307 58.2788 71.6551 58.1188C71.7794 57.9588 71.9477 57.8788 72.1599 57.8788C72.3468 57.8788 72.4925 57.9431 72.5968 58.0718L72.6164 57.9101H73.0299V59.5614C73.0299 59.7109 72.996 59.8409 72.9281 59.9514C72.8603 60.0627 72.7647 60.147 72.6412 60.2044C72.5177 60.2627 72.3733 60.2918 72.2081 60.2918C72.0829 60.2918 71.9607 60.2666 71.8416 60.2162C71.7233 60.1666 71.6333 60.1022 71.5716 60.0231L71.7738 59.7453C71.8877 59.8722 72.026 59.9357 72.1886 59.9357C72.3094 59.9357 72.4033 59.9031 72.4703 59.8379C72.5381 59.7735 72.572 59.6822 72.572 59.564V59.4714C72.4668 59.5905 72.3281 59.6501 72.156 59.6501C71.9507 59.6501 71.7847 59.5701 71.6577 59.4101C71.5316 59.2492 71.4686 59.0362 71.4686 58.7709V58.7514ZM71.9238 58.7853C71.9238 58.9401 71.9547 59.0614 72.0164 59.1492C72.079 59.237 72.1647 59.2809 72.2733 59.2809C72.4125 59.2809 72.512 59.2288 72.572 59.1244V58.4057C72.5103 58.3022 72.4116 58.2505 72.276 58.2505C72.1664 58.2505 72.0803 58.2953 72.0177 58.3849C71.9551 58.4735 71.9238 58.607 71.9238 58.7853ZM73.8621 59.6188H73.4043V57.9101H73.8621V59.6188ZM73.3769 57.4679C73.3769 57.4001 73.3995 57.344 73.4447 57.2996C73.4908 57.2553 73.5534 57.2331 73.6325 57.2331C73.7108 57.2331 73.773 57.2553 73.8191 57.2996C73.8651 57.344 73.8882 57.4001 73.8882 57.4679C73.8882 57.5375 73.8647 57.5944 73.8177 57.6388C73.7708 57.6831 73.7091 57.7053 73.6325 57.7053C73.556 57.7053 73.4943 57.6831 73.4473 57.6388C73.4004 57.5944 73.3769 57.5375 73.3769 57.4679ZM75.164 59.1466C75.164 59.0909 75.1361 59.047 75.0805 59.0149C75.0257 58.9827 74.937 58.954 74.8144 58.9288C74.4083 58.8435 74.2053 58.6709 74.2053 58.4109C74.2053 58.2596 74.2679 58.1331 74.3931 58.0314C74.5192 57.9296 74.684 57.8788 74.8875 57.8788C75.104 57.8788 75.277 57.9301 75.4066 58.0327C75.537 58.1344 75.6022 58.267 75.6022 58.4305H75.1457C75.1457 58.3644 75.1248 58.3101 75.0831 58.2675C75.0414 58.2249 74.9757 58.2035 74.8861 58.2035C74.8088 58.2035 74.7488 58.2209 74.7061 58.2557C74.6644 58.2905 74.6435 58.3349 74.6435 58.3888C74.6435 58.4392 74.6675 58.4801 74.7153 58.5114C74.764 58.5427 74.8448 58.5696 74.9579 58.5922C75.0718 58.6149 75.1679 58.6401 75.2461 58.6679C75.487 58.7566 75.6075 58.9101 75.6075 59.1283C75.6075 59.284 75.5405 59.4096 75.4066 59.5053C75.2727 59.6018 75.1001 59.6501 74.8888 59.6501C74.7453 59.6501 74.6179 59.6244 74.5066 59.5731C74.3961 59.5227 74.3092 59.4531 74.2457 59.3644C74.1831 59.2749 74.1518 59.1788 74.1518 59.0762H74.5835C74.5879 59.157 74.6179 59.2192 74.6735 59.2627C74.7301 59.3053 74.8048 59.3266 74.8979 59.3266C74.9857 59.3266 75.0518 59.3101 75.0961 59.277C75.1414 59.244 75.164 59.2005 75.164 59.1466ZM76.4485 57.4901V57.9101H76.7406V58.2453H76.4485V59.0983C76.4485 59.1609 76.4606 59.2062 76.485 59.234C76.5093 59.2609 76.5559 59.2744 76.6246 59.2744C76.675 59.2744 76.7193 59.2709 76.7576 59.264V59.6096C76.6689 59.6366 76.5772 59.6501 76.4824 59.6501C76.1624 59.6501 75.9989 59.4888 75.9919 59.1662V58.2453H75.7428V57.9101H75.9919V57.4901H76.4485ZM77.9547 58.3379C77.893 58.3301 77.8382 58.3262 77.7904 58.3262C77.6182 58.3262 77.5052 58.3844 77.4512 58.5009V59.6188H76.9947V57.9101H77.4265L77.4395 58.1135C77.5308 57.957 77.6573 57.8788 77.8191 57.8788C77.8695 57.8788 77.9169 57.8857 77.9612 57.8996L77.9547 58.3379ZM79.1625 59.6188C79.1416 59.5779 79.1264 59.527 79.1168 59.4662C79.0064 59.5888 78.8629 59.6501 78.6864 59.6501C78.5185 59.6501 78.3794 59.6018 78.269 59.5053C78.1594 59.4088 78.1046 59.2866 78.1046 59.1388C78.1046 58.9579 78.1716 58.8192 78.3055 58.7227C78.4403 58.6253 78.6346 58.5762 78.8885 58.5753H79.0985V58.4775C79.0985 58.3983 79.0781 58.3353 79.0372 58.2883C78.9972 58.2405 78.9333 58.2166 78.8455 58.2166C78.769 58.2166 78.7085 58.2353 78.6642 58.2727C78.6207 58.3092 78.599 58.3596 78.599 58.424H78.1425C78.1425 58.3249 78.1729 58.2331 78.2338 58.1488C78.2955 58.0644 78.382 57.9983 78.4933 57.9505C78.6046 57.9027 78.7298 57.8788 78.869 57.8788C79.0794 57.8788 79.2464 57.9318 79.3698 58.0379C79.4942 58.1431 79.5564 58.2918 79.5564 58.484V59.2235C79.5572 59.3862 79.5798 59.5088 79.6242 59.5914V59.6188H79.1625ZM78.7855 59.3018C78.8533 59.3018 78.9155 59.287 78.972 59.2575C79.0285 59.227 79.0707 59.1866 79.0985 59.1362V58.8414H78.9277C78.699 58.8414 78.5772 58.9205 78.5625 59.0788L78.5612 59.1062C78.5612 59.1627 78.5812 59.2096 78.6212 59.247C78.6612 59.2835 78.7159 59.3018 78.7855 59.3018ZM80.4534 57.4901V57.9101H80.7455V58.2453H80.4534V59.0983C80.4534 59.1609 80.4655 59.2062 80.4899 59.234C80.5142 59.2609 80.5607 59.2744 80.6294 59.2744C80.6799 59.2744 80.7242 59.2709 80.7625 59.264V59.6096C80.6738 59.6366 80.582 59.6501 80.4873 59.6501C80.1673 59.6501 80.0038 59.4888 79.9968 59.1662V58.2453H79.7477V57.9101H79.9968V57.4901H80.4534ZM81.4822 59.6188H81.0244V57.9101H81.4822V59.6188ZM80.997 57.4679C80.997 57.4001 81.0196 57.344 81.0648 57.2996C81.1109 57.2553 81.1735 57.2331 81.2526 57.2331C81.3309 57.2331 81.3931 57.2553 81.4392 57.2996C81.4853 57.344 81.5083 57.4001 81.5083 57.4679C81.5083 57.5375 81.4848 57.5944 81.4379 57.6388C81.3909 57.6831 81.3292 57.7053 81.2526 57.7053C81.1761 57.7053 81.1144 57.6831 81.0674 57.6388C81.0205 57.5944 80.997 57.5375 80.997 57.4679ZM81.7876 58.7488C81.7876 58.5792 81.8202 58.4283 81.8854 58.2962C81.9506 58.1631 82.0445 58.0605 82.1671 57.9883C82.2897 57.9153 82.4319 57.8788 82.5937 57.8788C82.825 57.8788 83.0132 57.9492 83.1584 58.0901C83.3045 58.2309 83.3858 58.4227 83.4024 58.6653L83.4063 58.7814C83.4063 59.044 83.3328 59.2544 83.1858 59.4127C83.0397 59.5709 82.8437 59.6501 82.5976 59.6501C82.3515 59.6501 82.155 59.5714 82.008 59.414C81.861 59.2557 81.7876 59.0409 81.7876 58.7696V58.7488ZM82.2441 58.7814C82.2441 58.944 82.2745 59.0683 82.3354 59.1544C82.3963 59.2396 82.4837 59.2822 82.5976 59.2822C82.708 59.2822 82.7941 59.2401 82.8558 59.1557C82.9184 59.0705 82.9497 58.9349 82.9497 58.7488C82.9497 58.5896 82.9184 58.4666 82.8558 58.3796C82.7941 58.2918 82.7067 58.2479 82.5937 58.2479C82.4824 58.2479 82.3963 58.2914 82.3354 58.3783C82.2745 58.4653 82.2441 58.5996 82.2441 58.7814ZM84.1061 57.9101L84.1205 58.1083C84.2431 57.9553 84.407 57.8788 84.6122 57.8788C84.7931 57.8788 84.9274 57.9322 85.0153 58.0392C85.104 58.1453 85.1496 58.304 85.1522 58.5153V59.6188H84.6957V58.5257C84.6957 58.4292 84.6744 58.3592 84.6318 58.3157C84.59 58.2722 84.52 58.2505 84.4218 58.2505C84.294 58.2505 84.1979 58.3049 84.1335 58.4135V59.6188H83.677V57.9101H84.1061Z" fill="white"/>
<path d="M85.1395 22.3163H67.5762C67.4536 22.3163 67.336 22.2677 67.2492 22.181C67.1624 22.0944 67.1135 21.9768 67.1133 21.8542C67.1133 21.7314 67.1621 21.6137 67.2489 21.5268C67.3357 21.44 67.4535 21.3912 67.5762 21.3912H85.1395C85.2621 21.3915 85.3796 21.4403 85.4663 21.5271C85.5529 21.6139 85.6016 21.7316 85.6016 21.8542C85.6016 21.9768 85.5529 22.0943 85.4662 22.181C85.3796 22.2676 85.262 22.3163 85.1395 22.3163Z" fill="white"/>
<path d="M51.3802 69.286C51.3802 69.286 51.6412 70.2545 52.2304 70.7314L52.9266 62.6747C52.9266 62.6747 57.9496 57.0617 56.7356 49.4905C56.3269 46.8947 55.0272 44.5221 53.0597 42.7801C51.9345 41.7907 50.6979 41.1267 49.9695 42.0604C49.9695 42.0604 44.279 55.6118 40.3472 65.5108L51.3802 69.286Z" fill="#FFC0BB"/>
<path d="M97.9259 94.0852H54.7202V98.4512H97.9259V94.0852Z" fill="#FF4A69"/>
<path d="M97.9259 24.6365H54.7202V28.5534H97.9259V24.6365Z" fill="#FF4A69"/>
<path d="M50.9973 50.0197C52.5698 49.2965 53.3904 45.2055 53.6846 43.3667C52.4227 42.097 50.8397 40.9544 49.9739 42.0613C49.9739 42.0613 48.7207 45.0454 46.9846 49.2356C48.1716 49.8952 49.8216 50.561 50.9973 50.0197Z" fill="#EAA0A0"/>
<path d="M90.6177 73.2516C90.6177 73.2516 84.7818 73.7415 84.5782 75.2923C84.3745 76.8431 84.8227 79.5774 90.3313 80.1074H96.0384C96.0384 80.1074 94.331 75.3741 94.4128 75.2105C94.4946 75.0469 90.6177 73.2516 90.6177 73.2516Z" fill="#EFADAB"/>
<path d="M81.2547 96.3835C81.0676 96.4842 80.9026 96.6215 80.7697 96.7873C80.6368 96.9531 80.5386 97.144 80.481 97.3486C80.4234 97.5532 80.4076 97.7672 80.4346 97.978C80.4615 98.1889 80.5306 98.3921 80.6377 98.5756C83.3233 103.207 94.0012 121.613 94.9637 123.109C96.0654 124.824 98.7588 128.864 107.695 130.942C116.632 133.02 120.304 139.025 120.304 139.025H147.849C147.849 139.025 141.361 128.742 135.975 102.054C135.975 102.054 131.812 79.8959 123.978 80.6304C123.978 80.6304 119.203 75.6108 114.551 76.5907C114.551 76.5907 105.736 71.3257 100.714 71.3257L88.6579 57.0781C87.4648 55.6675 85.3614 55.3916 83.8951 56.5133C83.4225 56.8745 83.0631 57.3522 82.963 57.9823C82.5958 60.3085 85.6608 66.1843 90.5533 73.2846C95.4458 80.385 107.577 102.91 102.309 112.831C102.309 112.831 96.9217 108.791 92.2703 102.301C88.3742 96.8656 83.7915 95.0381 81.2547 96.3835Z" fill="#FFC0BB"/>
<path d="M100.762 71.3319C102.358 72.7073 103.866 74.1821 105.277 75.7475C106.7 77.3061 108.032 78.9454 109.266 80.6574C110.397 82.2195 111.717 84.3238 112.557 86.0738C113.698 88.3861 114.211 90.1013 114.548 92.0715L114.512 92.0785C114.077 90.0291 113.271 88.0754 112.301 86.2061C111.633 84.892 110.319 82.7182 108.968 80.8715C107.749 79.1632 106.432 77.5254 105.058 75.9372C103.765 74.4457 102.139 72.6999 100.737 71.358L100.762 71.3319Z" fill="#EAA0A0"/>
<path d="M114.472 76.5525C115.777 77.2182 116.935 78.1476 117.961 79.1971C119.889 81.1413 121.47 83.8094 122.258 86.8074C122.575 88.1398 122.78 89.0422 122.812 91.1491H122.776C122.656 89.7045 122.39 88.2758 121.982 86.8849C121.095 84.0035 119.705 81.5381 117.747 79.3886C116.825 78.38 115.62 77.2913 114.454 76.5795L114.472 76.5525Z" fill="#EAA0A0"/>
<path d="M123.881 80.5321C125.032 81.4023 126.192 82.9392 126.758 83.9809C128.063 86.2217 128.679 88.6019 128.787 91.1482L128.751 91.1534C128.261 88.3164 127.778 86.7065 126.453 84.1462C126.018 83.2847 124.909 81.5929 123.86 80.5547L123.881 80.5321Z" fill="#EAA0A0"/>
<path d="M86.8147 102.084C87.0584 100.844 85.6146 98.8786 84.304 97.3957C83.9097 96.9455 83.3914 96.6214 82.8139 96.464C82.2365 96.3066 81.6255 96.3228 81.0572 96.5106C80.7462 96.7438 80.5317 97.083 80.4544 97.4638C80.377 97.8447 80.4423 98.2407 80.6377 98.5766C81.3591 99.8211 82.6584 102.058 84.1909 104.699C85.3379 104.115 86.5884 103.231 86.8147 102.084Z" fill="#EAA0A0"/>
<path d="M87.9721 62.6695C88.6683 62.5303 91.8282 61.4799 91.6341 60.9038L88.5186 57.2227C87.9197 56.5143 87.0673 56.0685 86.1437 55.9808H86.129C86.1029 55.9808 86.0419 55.9739 85.9662 55.9739C85.5485 55.9739 84.519 56.0931 84.2927 57.2253C84.07 58.3427 85.9192 61.0544 86.7346 62.1857C86.8728 62.3765 87.0629 62.5237 87.2823 62.6095C87.5017 62.6952 87.7412 62.7161 87.9721 62.6695Z" fill="#EAA0A0"/>
<path d="M32.6569 119.776C36.1083 121.896 47.2213 128.238 58.7128 129.589C59.3864 129.669 59.8598 130.286 59.6605 130.819L57.6529 136.196C57.5197 136.551 57.1203 136.759 56.6712 136.704C53.2843 136.294 39.3117 134.19 29.4805 126.584C29.1455 126.323 29.0045 125.933 29.1324 125.598L31.181 120.111C31.3707 119.594 32.0947 119.43 32.6569 119.776Z" fill="#473B1E"/>
<path d="M32.0294 122.66L31.3543 124.468C31.2948 124.628 31.3758 124.805 31.5352 124.865L31.726 124.936C31.8854 124.995 32.0628 124.914 32.1223 124.755L32.7974 122.947C32.8569 122.787 32.7759 122.61 32.6165 122.55L32.4257 122.479C32.2663 122.42 32.0889 122.501 32.0294 122.66Z" fill="#002A24"/>
<path d="M34.7013 123.838L34.5106 123.767C34.3512 123.707 34.1737 123.788 34.1142 123.947L33.4392 125.756C33.3797 125.915 33.4607 126.093 33.6201 126.152L33.8108 126.223C33.9702 126.283 34.1477 126.202 34.2072 126.042L34.8822 124.234C34.9417 124.075 34.8607 123.897 34.7013 123.838Z" fill="#002A24"/>
<path d="M36.7623 125.101L36.5715 125.029C36.4121 124.97 36.2347 125.051 36.1752 125.21L35.5002 127.019C35.4407 127.178 35.5217 127.355 35.6811 127.415L35.8718 127.486C36.0312 127.546 36.2087 127.465 36.2682 127.305L36.9432 125.497C37.0027 125.338 36.9217 125.16 36.7623 125.101Z" fill="#002A24"/>
<path d="M38.902 126.132L38.7112 126.061C38.5518 126.001 38.3744 126.082 38.3149 126.242L37.6399 128.05C37.5804 128.21 37.6613 128.387 37.8207 128.447L38.0115 128.518C38.1709 128.577 38.3484 128.496 38.4079 128.337L39.0829 126.529C39.1424 126.369 39.0614 126.192 38.902 126.132Z" fill="#002A24"/>
<path d="M40.9892 127.326L40.7984 127.255C40.639 127.195 40.4615 127.276 40.402 127.436L39.727 129.244C39.6675 129.403 39.7485 129.581 39.9079 129.64L40.0987 129.711C40.2581 129.771 40.4355 129.69 40.495 129.531L41.17 127.722C41.2295 127.563 41.1486 127.385 40.9892 127.326Z" fill="#002A24"/>
<path d="M43.1709 128.273L42.9801 128.202C42.8208 128.142 42.6433 128.223 42.5838 128.383L41.9088 130.191C41.8493 130.35 41.9302 130.528 42.0896 130.587L42.2804 130.659C42.4398 130.718 42.6173 130.637 42.6768 130.478L43.3518 128.669C43.4113 128.51 43.3303 128.333 43.1709 128.273Z" fill="#002A24"/>
<path d="M44.5087 131.492L44.3173 131.42C44.2794 131.406 44.2447 131.385 44.2152 131.357C44.1856 131.33 44.1618 131.297 44.145 131.26C44.1283 131.223 44.119 131.183 44.1176 131.143C44.1163 131.103 44.1229 131.062 44.1371 131.024L44.8116 129.215C44.8257 129.177 44.8472 129.143 44.8747 129.113C44.9023 129.084 44.9354 129.06 44.9722 129.043C45.009 129.026 45.0487 129.017 45.0891 129.016C45.1295 129.014 45.1697 129.021 45.2075 129.035L45.399 129.106C45.4755 129.135 45.5375 129.193 45.5714 129.267C45.6054 129.341 45.6084 129.426 45.58 129.502L44.9047 131.311C44.8761 131.387 44.8184 131.449 44.7442 131.483C44.6699 131.517 44.5852 131.52 44.5087 131.492Z" fill="#002A24"/>
<path d="M47.7003 129.828L47.5096 129.757C47.3502 129.697 47.1727 129.778 47.1132 129.938L46.4382 131.746C46.3787 131.905 46.4597 132.083 46.6191 132.142L46.8098 132.213C46.9692 132.273 47.1467 132.192 47.2062 132.033L47.8812 130.224C47.9407 130.065 47.8597 129.887 47.7003 129.828Z" fill="#002A24"/>
<path d="M49.1506 132.68L48.9592 132.608C48.8827 132.58 48.8207 132.522 48.7867 132.448C48.7528 132.373 48.7497 132.289 48.7782 132.212L49.4535 130.403C49.4822 130.327 49.54 130.265 49.6142 130.231C49.6884 130.197 49.773 130.194 49.8494 130.223L50.0409 130.294C50.1174 130.323 50.1794 130.381 50.2133 130.455C50.2473 130.529 50.2503 130.614 50.2219 130.69L49.5466 132.499C49.518 132.575 49.4603 132.637 49.3861 132.671C49.3118 132.705 49.2271 132.708 49.1506 132.68Z" fill="#002A24"/>
<path d="M51.455 133.317L51.2636 133.245C51.2257 133.231 51.191 133.21 51.1615 133.182C51.1319 133.155 51.1081 133.121 51.0913 133.085C51.0746 133.048 51.0653 133.008 51.0639 132.968C51.0626 132.927 51.0692 132.887 51.0834 132.849L51.7587 131.041C51.7873 130.964 51.845 130.902 51.9193 130.868C51.9935 130.835 52.0782 130.831 52.1547 130.86L52.3453 130.931C52.4217 130.96 52.4838 131.018 52.5177 131.092C52.5516 131.166 52.5547 131.251 52.5263 131.327L51.851 133.136C51.8224 133.212 51.7647 133.274 51.6904 133.308C51.6162 133.342 51.5315 133.345 51.455 133.317Z" fill="#002A24"/>
<path d="M54.7589 131.336L54.5681 131.264C54.4087 131.205 54.2312 131.286 54.1717 131.445L53.4967 133.254C53.4372 133.413 53.5182 133.59 53.6776 133.65L53.8684 133.721C54.0278 133.781 54.2052 133.7 54.2647 133.54L54.9397 131.732C54.9992 131.573 54.9183 131.395 54.7589 131.336Z" fill="#002A24"/>
<path d="M56.244 134.11L56.0525 134.039C56.0147 134.025 55.9799 134.003 55.9504 133.976C55.9208 133.948 55.897 133.915 55.8803 133.878C55.8635 133.842 55.8542 133.802 55.8529 133.761C55.8515 133.721 55.8581 133.681 55.8724 133.643L56.5477 131.835C56.5762 131.758 56.634 131.696 56.7082 131.662C56.7824 131.628 56.8671 131.625 56.9436 131.654L57.1342 131.725C57.2107 131.753 57.2727 131.811 57.3067 131.885C57.3406 131.96 57.3437 132.044 57.3152 132.121L56.6399 133.929C56.6114 134.006 56.5536 134.068 56.4794 134.102C56.4051 134.136 56.3205 134.139 56.244 134.11Z" fill="#002A24"/>
<path d="M39.4779 132.226L39.4875 132.201C39.4503 132.196 39.4138 132.187 39.3787 132.174L36.6592 131.159C36.527 131.104 36.4222 130.998 36.3677 130.865C36.3133 130.732 36.3136 130.583 36.3685 130.451L38.8208 123.883C38.8653 123.746 38.9622 123.633 39.0903 123.568C39.2184 123.502 39.3672 123.491 39.504 123.535L42.2218 124.554C42.2985 124.584 42.3669 124.632 42.4211 124.694C42.4752 124.756 42.5134 124.831 42.5324 124.911C42.7453 125.004 42.9606 125.097 43.1781 125.19C43.2504 124.639 42.9676 124.102 42.4611 123.913L39.7416 122.897C39.1454 122.674 38.4649 123.017 38.2247 123.661L35.7733 130.229C35.5322 130.873 35.822 131.578 36.4181 131.801L39.1367 132.816C39.3368 132.887 39.5526 132.9 39.76 132.856C39.9674 132.811 40.1583 132.71 40.3116 132.563C40.0343 132.453 39.7564 132.341 39.4779 132.226Z" fill="#EDFDFC"/>
<path d="M38.8809 127.016L37.6965 126.572C37.5889 126.541 37.4733 126.551 37.373 126.601C37.2727 126.651 37.1952 126.738 37.1559 126.843C37.1167 126.948 37.1187 127.064 37.1615 127.168C37.2043 127.271 37.2847 127.355 37.3867 127.402L38.5693 127.844L38.8809 127.016Z" fill="#B7D972"/>
<g style="mix-blend-mode:multiply" opacity="0.2">
<path d="M120.304 139.025H147.849C147.849 139.025 143.595 132.283 139.117 115.549C137.151 127.871 126.308 127.16 122.006 127.844C117.051 128.627 97.818 124.624 95.1229 123.358C96.3221 125.185 99.1625 128.959 107.695 130.945C116.632 133.027 120.304 139.025 120.304 139.025Z" fill="#FFC0BB"/>
</g>
<g style="mix-blend-mode:multiply" opacity="0.2">
<path d="M92.0127 75.5186C97.4134 84.2001 107.103 104.129 102.308 112.831L105.488 115.964C105.488 115.964 113.529 107.058 100.735 87.42C98.0536 83.2921 95.1415 79.3186 92.0127 75.5186Z" fill="#FFC0BB"/>
</g>
<path d="M17.5543 55.3307C21.4015 47.5839 33.1904 53.0676 29.6814 60.9764C29.3272 61.7617 28.8952 62.5094 28.3917 63.2082C22.5349 71.4501 10.9755 76.4223 6.93835 70.9783C2.90116 65.5343 10.0894 62.358 14.1824 60.2838C16.086 59.3124 16.5613 57.3292 17.5543 55.3307Z" fill="#FEEC8C"/>
<path d="M139.824 49.522C137.143 48.8582 134.206 49.8706 133.196 51.7533C132.411 53.2172 131.513 55.2595 131.432 57.0553C131.285 60.2951 133.102 67.2487 140.05 68.9657C146.998 70.6827 151.145 66.1534 146.518 60.9128C144.542 58.6755 145.529 50.9352 139.824 49.522Z" fill="#FEEC8C"/>
<path d="M108.708 37.0173C108.778 36.7142 108.909 36.4282 109.091 36.1763C109.274 35.9243 109.505 35.7114 109.771 35.5503C110.037 35.3891 110.333 35.2829 110.641 35.2378C110.949 35.1928 111.262 35.2099 111.564 35.2881C111.915 34.5379 112.526 33.9401 113.284 33.6053C114.041 33.2705 114.895 33.2213 115.686 33.4667C116.098 32.784 116.694 32.2317 117.406 31.8738C118.119 31.5158 118.918 31.3668 119.711 31.444C120.505 31.5212 121.26 31.8215 121.89 32.31C122.521 32.7985 122.999 33.4554 123.272 34.2047C123.713 33.9595 124.21 33.8337 124.715 33.8397C125.219 33.8458 125.713 33.9835 126.148 34.2393C126.583 34.495 126.944 34.8599 127.194 35.2979C127.445 35.7359 127.577 36.2317 127.577 36.7362C127.577 36.8301 127.572 36.9239 127.563 37.0173H108.708Z" fill="#EDFDFC"/>
<path d="M46.6374 4.97589C46.7218 4.60889 46.9282 4.28138 47.2228 4.04682C47.5174 3.81226 47.8829 3.68452 48.2595 3.68447C48.4016 3.68432 48.5431 3.70214 48.6807 3.73754C48.9314 3.20017 49.3683 2.77182 49.9105 2.53182C50.4528 2.29182 51.0636 2.25643 51.6299 2.43218C51.9246 1.94364 52.3515 1.54848 52.8613 1.29237C53.371 1.03625 53.9429 0.929659 54.5107 0.984912C55.0786 1.04017 55.6192 1.25501 56.07 1.6046C56.5209 1.95419 56.8636 2.42424 57.0585 2.96042C57.374 2.78469 57.73 2.69447 58.0911 2.69865C58.4523 2.70283 58.806 2.80127 59.1174 2.98426C59.4288 3.16725 59.6869 3.42841 59.8663 3.74188C60.0457 4.05534 60.14 4.41024 60.14 4.7714C60.14 4.83884 60.1366 4.90623 60.1296 4.9733L46.6374 4.97589Z" fill="#EDFDFC"/>
<path d="M118.02 66.214C118.02 66.214 117.736 69.0118 115.527 69.205C117.736 69.3991 118.02 72.1969 118.02 72.1969C118.02 72.1969 118.304 69.3991 120.511 69.205C118.302 69.0118 118.02 66.214 118.02 66.214Z" fill="#EDFDFC"/>
<path d="M114.133 21.8995C114.133 21.8995 113.93 23.9072 112.345 24.0455C113.93 24.1848 114.133 26.1924 114.133 26.1924C114.133 26.1924 114.337 24.1848 115.921 24.0455C114.337 23.9072 114.133 21.8995 114.133 21.8995Z" fill="#EDFDFC"/>
<path d="M45.4712 11.1399C45.4712 11.1399 45.3433 12.4017 44.3469 12.4888C45.3433 12.5758 45.4712 13.8385 45.4712 13.8385C45.4712 13.8385 45.5992 12.5758 46.5947 12.4888C45.5992 12.4052 45.4712 11.1399 45.4712 11.1399Z" fill="#EDFDFC"/>
<path d="M37.3545 45.5344C37.3545 45.5344 37.0708 48.3323 34.863 48.5263C37.0708 48.7195 37.3545 51.5173 37.3545 51.5173C37.3545 51.5173 37.6382 48.7195 39.846 48.5263C37.6382 48.3323 37.3545 45.5344 37.3545 45.5344Z" fill="#EDFDFC"/>
<path d="M123.86 58.4731C123.86 58.4731 123.672 60.3241 122.211 60.4521C123.672 60.58 123.86 62.431 123.86 62.431C123.86 62.431 124.047 60.58 125.508 60.4521C124.047 60.3241 123.86 58.4731 123.86 58.4731Z" fill="#EDFDFC"/>
<path d="M119.198 16.5432C119.198 16.5432 119.095 17.5536 118.298 17.6232C119.095 17.6928 119.198 18.7032 119.198 18.7032C119.198 18.7032 119.3 17.6928 120.097 17.6232C119.3 17.5536 119.198 16.5432 119.198 16.5432Z" fill="#EDFDFC"/>
<path d="M41.9998 38.9875C41.9998 38.9875 41.8119 40.8386 40.3516 40.9674C41.8119 41.0953 41.9998 42.9463 41.9998 42.9463C41.9998 42.9463 42.1878 41.0953 43.6481 40.9674C42.1878 40.8386 41.9998 38.9875 41.9998 38.9875Z" fill="#EDFDFC"/>
<path d="M52.5855 8.46558C52.5855 8.46558 52.4871 9.43415 51.7231 9.50116C52.4871 9.56816 52.5855 10.5359 52.5855 10.5359C52.5855 10.5359 52.6838 9.56816 53.4479 9.50116C52.6838 9.43415 52.5855 8.46558 52.5855 8.46558Z" fill="white"/>
<path d="M115.322 52.9149C115.322 52.9149 115.235 53.7434 114.584 53.7999C115.238 53.8574 115.322 54.6859 115.322 54.6859C115.322 54.6859 115.409 53.8574 116.059 53.7999C115.409 53.7416 115.322 52.9149 115.322 52.9149Z" fill="#EDFDFC"/>
<path d="M39.3151 56.4612C39.3151 56.4612 39.2281 57.2888 38.578 57.3462C39.2316 57.4036 39.3151 58.2321 39.3151 58.2321C39.3151 58.2321 39.4022 57.4036 40.0531 57.3462C39.3996 57.2888 39.3151 56.4612 39.3151 56.4612Z" fill="white"/>
<path d="M46.9881 17.9164C46.9881 17.9164 46.8218 19.5516 45.5313 19.6647C46.8218 19.7778 46.9881 21.413 46.9881 21.413C46.9881 21.413 47.1534 19.7778 48.444 19.6647C47.1534 19.5516 46.9881 17.9164 46.9881 17.9164Z" fill="#EDFDFC"/>
</svg>
