<svg width="164" height="140" viewBox="0 0 164 140" fill="none" xmlns="http://www.w3.org/2000/svg">
<path opacity="0.6" d="M77.5315 125.693C77.5315 125.693 10.2577 122.052 2.16767 97.8377C-5.92231 73.6233 12.0008 70.3338 18.124 56.7686C24.2471 43.2034 -3.52316 35.209 15.0624 16.757C33.6479 -1.69509 61.0569 -2.01725 72.6063 6.6737C84.1557 15.3647 97.4709 1.36256 118.91 9.24854C140.35 17.1345 145.598 33.0735 138.82 45.5162C132.042 57.959 159.836 69.8652 163.321 83.9765C166.806 98.0878 135.346 131.914 77.5315 125.693Z" fill="#99D5FB"/>
<path d="M23.1653 139.052H55.7932L58.4997 131.766C58.9769 130.49 59.7024 129.321 60.6341 128.327C61.5659 127.333 62.6856 126.533 63.9283 125.975C66.291 124.906 69.4708 122.965 72.5532 119.505C78.5475 112.77 81.7308 105.547 81.7308 105.547L61.5125 105.448C61.5125 105.448 63.3322 94.1394 53.2835 79.1182C52.2098 77.5087 51.7171 75.5812 51.8867 73.6539L52.8396 62.6993C52.8396 62.6993 59.6676 55.069 55.4782 45.6017C55.4782 45.6017 51.4751 40.0547 49.8826 42.085C49.8826 42.085 37.781 70.9022 36.6792 75.1864C35.5775 79.4706 34.1085 82.1649 35.5775 95.631C35.9665 99.199 36.1066 102.169 36.0997 104.614C36.0893 109.306 35.043 113.939 33.0355 118.181L23.1653 139.052Z" fill="#FFC0BB"/>
<g style="mix-blend-mode:multiply" opacity="0.2">
<path d="M53.5933 120.359C50.5648 116.997 46.3581 117.528 41.932 115.994C37.506 114.46 36.0901 103.404 36.0901 103.404C36.0971 103.822 36.1005 104.228 36.0997 104.617C36.0893 109.31 35.043 113.943 33.0355 118.184L23.1653 139.052H55.7932L58.4997 131.766C58.9769 130.49 59.7024 129.321 60.6341 128.327C61.5659 127.333 62.6856 126.534 63.9283 125.975C65.9394 125.065 68.5406 123.523 71.173 120.952C62.1834 124.729 56.6208 123.721 53.5933 120.359Z" fill="#FFC0BB"/>
</g>
<path d="M124.978 44.9784C124.92 44.7309 124.78 44.5102 124.581 44.3522C124.382 44.1942 124.135 44.1082 123.881 44.1082C123.785 44.1083 123.689 44.1206 123.596 44.1447C123.427 43.7812 123.132 43.4914 122.765 43.3294C122.398 43.1674 121.985 43.1442 121.603 43.2641C121.404 42.9341 121.115 42.6671 120.771 42.4941C120.426 42.3211 120.04 42.2491 119.656 42.2865C119.273 42.3238 118.907 42.4689 118.603 42.705C118.298 42.9411 118.066 43.2586 117.935 43.6209C117.721 43.5021 117.481 43.4412 117.237 43.4441C116.993 43.447 116.754 43.5136 116.543 43.6373C116.333 43.761 116.158 43.9376 116.037 44.1495C115.916 44.3613 115.852 44.6012 115.852 44.8453C115.852 44.8905 115.852 44.9323 115.859 44.9811L124.978 44.9784Z" fill="#EDFDFC"/>
<path d="M111.819 11.9747C111.73 11.5919 111.566 11.2306 111.336 10.9123C111.105 10.594 110.814 10.3251 110.478 10.1216C110.141 9.91801 109.768 9.78391 109.379 9.72718C108.99 9.67046 108.594 9.69225 108.214 9.7913C107.771 8.84385 106.999 8.08898 106.042 7.66631C105.086 7.24364 104.008 7.18177 103.009 7.49213C102.489 6.62998 101.736 5.93254 100.837 5.48048C99.9375 5.02842 98.9285 4.84021 97.9265 4.93762C96.9246 5.03503 95.9707 5.41409 95.1752 6.03093C94.3797 6.64777 93.7751 7.47719 93.4312 8.42329C92.8746 8.11258 92.2463 7.95288 91.6088 7.96003C90.9714 7.96718 90.3469 8.14094 89.7973 8.46406C89.2477 8.78717 88.7923 9.2484 88.4761 9.80197C88.1599 10.3555 87.994 10.9822 87.9948 11.6197C87.9948 11.7398 88.0009 11.8581 88.0122 11.9747H111.819Z" fill="#EDFDFC"/>
<path d="M47.2327 34.4059C47.1586 34.0855 47.0211 33.7832 46.8282 33.5169C46.6354 33.2506 46.3911 33.0256 46.1099 32.8552C45.8286 32.6849 45.5161 32.5726 45.1907 32.5251C44.8654 32.4775 44.5338 32.4956 44.2155 32.5784C43.8447 31.7852 43.1991 31.1532 42.3981 30.7994C41.5972 30.4456 40.6952 30.3941 39.8591 30.6543C39.424 29.9326 38.7935 29.3489 38.0405 28.9707C37.2875 28.5925 36.4428 28.4353 35.6041 28.5172C34.7655 28.5992 33.9672 28.917 33.3016 29.4338C32.636 29.9506 32.1304 30.6453 31.8433 31.4375C31.3773 31.1781 30.8516 31.045 30.3183 31.0512C29.785 31.0575 29.2626 31.203 28.8028 31.4733C28.343 31.7436 27.9618 32.1293 27.697 32.5922C27.4321 33.0552 27.2928 33.5793 27.2928 34.1126C27.2928 34.2127 27.298 34.3119 27.3076 34.4094L47.2327 34.4059Z" fill="#EDFDFC"/>
<path d="M99.9711 22.8744C99.9711 22.8744 106.881 18.25 108.459 21.2967C110.038 24.3434 99.4794 35.1248 99.4794 35.1248L99.9711 22.8744Z" fill="#EAA0A0"/>
<path d="M99.9711 43.0239C99.9711 43.0239 106.881 38.3994 108.459 41.4461C110.038 44.4928 99.4794 55.2751 99.4794 55.2751L99.9711 43.0239Z" fill="#EAA0A0"/>
<path d="M99.9711 56.7541C99.9711 56.7541 106.881 52.1287 108.459 55.1755C110.038 58.2222 99.4794 69.0045 99.4794 69.0045L99.9711 56.7541Z" fill="#EAA0A0"/>
<path d="M95.1987 17.6914H57.2639C55.9073 17.6914 54.6062 18.2303 53.6469 19.1896C52.6876 20.1489 52.1487 21.45 52.1487 22.8067V100.335C52.1489 101.691 52.6879 102.992 53.6471 103.952C54.6064 104.911 55.9074 105.45 57.2639 105.45H95.1987C96.5553 105.45 97.8564 104.911 98.8157 103.952C99.775 102.993 100.314 101.692 100.314 100.335V22.8067C100.314 21.4501 99.7747 20.1491 98.8155 19.1899C97.8562 18.2306 96.5553 17.6916 95.1987 17.6914Z" fill="#292162"/>
<g style="mix-blend-mode:multiply" opacity="0.2">
<path d="M55.6044 82.8775C55.6044 82.8775 48.7434 99.6732 49.4083 102.85C50.0731 106.028 54.2381 110.273 64.4539 108.855C74.6697 107.437 81.7308 105.548 81.7308 105.548C81.7308 105.548 82.1581 82.8801 81.7308 81.7305C81.3035 80.5809 62.9336 72.4189 62.213 72.4189C61.4924 72.4189 55.6044 82.8775 55.6044 82.8775Z" fill="#FFC0BB"/>
</g>
<path d="M97.8346 24.6626H54.6288V98.4783H97.8346V24.6626Z" fill="white"/>
<path d="M60.5581 42.4259V42.8153H59.5975V43.9051H59.1807V42.8153H58.2181V42.4259H59.1807V41.4183H59.5975V42.4259H60.5581ZM62.73 42.7409C62.5304 42.9783 62.2845 43.097 61.9924 43.097C61.8045 43.097 61.635 43.0468 61.4837 42.9464C61.3389 42.8498 61.2254 42.7161 61.1432 42.5453C61.0624 42.3653 61.0219 42.1703 61.0219 41.9603C61.0219 41.732 61.0656 41.5259 61.153 41.342C61.2404 41.1607 61.3637 41.0211 61.5228 40.9233C61.6832 40.8268 61.8684 40.7785 62.0784 40.7785C62.415 40.7785 62.6804 40.9051 62.8747 41.1581C63.0704 41.4111 63.1682 41.7561 63.1682 42.1931V42.3203C63.1682 42.9881 63.0365 43.4766 62.773 43.7857C62.5095 44.0909 62.1124 44.2468 61.5815 44.2533H61.5071V43.907H61.5874C61.9578 43.9018 62.2389 43.8066 62.4306 43.6214C62.6263 43.4309 62.7332 43.1394 62.7515 42.7468L62.73 42.7409ZM62.0647 42.7585C62.2147 42.7585 62.3517 42.7129 62.4756 42.6216C62.6034 42.5303 62.696 42.4175 62.7534 42.2831V42.1031C62.7534 41.8109 62.6902 41.5748 62.5637 41.3948C62.4358 41.2122 62.2747 41.1209 62.0804 41.1209C61.8834 41.1209 61.7256 41.1966 61.6069 41.3479C61.4882 41.4966 61.4289 41.6929 61.4289 41.9368C61.4289 42.1742 61.4856 42.3711 61.5991 42.5277C61.7165 42.6816 61.8717 42.7585 62.0647 42.7585ZM64.7502 42.3379C64.9576 42.3353 65.1226 42.2798 65.2452 42.1716C65.3678 42.062 65.4291 41.9159 65.4291 41.7333C65.4291 41.3211 65.2237 41.1151 64.8128 41.1151C64.625 41.1151 64.4711 41.1705 64.3511 41.2814C64.2376 41.3922 64.1796 41.5344 64.177 41.7079H63.7641C63.768 41.4496 63.8659 41.2298 64.0576 41.0485C64.2585 40.8685 64.5102 40.7785 64.8128 40.7785C65.135 40.7785 65.3874 40.864 65.57 41.0348C65.7513 41.2044 65.842 41.4405 65.842 41.7431C65.842 41.8892 65.7944 42.032 65.6991 42.1716C65.5987 42.3125 65.4572 42.4207 65.2746 42.4964C65.4728 42.5603 65.6254 42.6614 65.7324 42.7996C65.8407 42.9392 65.8948 43.1068 65.8948 43.3025C65.8948 43.6064 65.7957 43.8483 65.5974 44.0283C65.3978 44.2083 65.137 44.2983 64.8148 44.2983C64.503 44.2983 64.2415 44.2116 64.0302 44.0381C63.8372 43.8633 63.738 43.639 63.7328 43.3651H64.1496C64.1522 43.5451 64.2128 43.6898 64.3315 43.7994C64.4515 43.9103 64.6126 43.9657 64.8148 43.9657C65.03 43.9657 65.195 43.909 65.3098 43.7955C65.4233 43.6833 65.48 43.5216 65.48 43.3103C65.48 43.1068 65.4174 42.9503 65.2922 42.8407C65.167 42.7311 64.9863 42.6751 64.7502 42.6725H64.4333V42.3379H64.7502ZM68.5688 44.2514H68.1364L69.5607 41.162H67.6864V40.8275H69.9931V41.0564L68.5688 44.2514ZM72.5827 41.7157C72.5827 41.8827 72.5358 42.0346 72.4419 42.1716C72.3519 42.3059 72.2253 42.4129 72.0623 42.4925C72.2605 42.5785 72.4092 42.6927 72.5084 42.8348C72.6114 42.9822 72.6629 43.1479 72.6629 43.3318C72.6629 43.6253 72.5638 43.8601 72.3655 44.0361C72.166 44.2109 71.9038 44.2983 71.579 44.2983C71.2608 44.2983 70.9973 44.2103 70.7886 44.0342C70.5929 43.8529 70.4951 43.6188 70.4951 43.3318C70.4951 43.1492 70.5473 42.9829 70.6516 42.8329C70.7573 42.6829 70.9021 42.5681 71.086 42.4885C70.9269 42.4103 70.8023 42.304 70.7123 42.1696C70.621 42.034 70.5753 41.8827 70.5753 41.7157C70.5753 41.4275 70.6666 41.1998 70.8492 41.0329C71.0358 40.8633 71.279 40.7785 71.579 40.7785C71.8777 40.7785 72.1203 40.8633 72.3069 41.0329C72.4908 41.2011 72.5827 41.4288 72.5827 41.7157ZM72.2501 43.322C72.2501 43.1251 72.1875 42.9653 72.0623 42.8427C71.9397 42.7188 71.7773 42.6568 71.5751 42.6568C71.3729 42.6568 71.2105 42.7181 71.0879 42.8407C70.9679 42.9646 70.9079 43.1251 70.9079 43.322C70.9079 43.5229 70.9673 43.6801 71.086 43.7935C71.2047 43.9083 71.369 43.9657 71.579 43.9657C71.7877 43.9657 71.9514 43.9083 72.0701 43.7935C72.1901 43.6761 72.2501 43.519 72.2501 43.322ZM71.579 41.1151C71.4016 41.1151 71.2588 41.1698 71.1505 41.2794C71.0436 41.3864 70.9901 41.5338 70.9901 41.7216C70.9901 41.9016 71.0429 42.047 71.1486 42.1579C71.2569 42.2661 71.4003 42.3203 71.579 42.3203C71.7564 42.3203 71.8992 42.2655 72.0075 42.1559C72.1145 42.0464 72.1679 41.9016 72.1679 41.7216C72.1679 41.5468 72.1132 41.4014 72.0036 41.2853C71.8914 41.1718 71.7499 41.1151 71.579 41.1151ZM75.3073 41.7157C75.3073 41.8827 75.2604 42.0346 75.1665 42.1716C75.0765 42.3059 74.9499 42.4129 74.7869 42.4925C74.9852 42.5785 75.1339 42.6927 75.233 42.8348C75.336 42.9822 75.3875 43.1479 75.3875 43.3318C75.3875 43.6253 75.2884 43.8601 75.0902 44.0361C74.8906 44.2109 74.6284 44.2983 74.3036 44.2983C73.9854 44.2983 73.7219 44.2103 73.5132 44.0342C73.3175 43.8529 73.2197 43.6188 73.2197 43.3318C73.2197 43.1492 73.2719 42.9829 73.3762 42.8329C73.4819 42.6829 73.6267 42.5681 73.8106 42.4885C73.6515 42.4103 73.5269 42.304 73.4369 42.1696C73.3456 42.034 73.2999 41.8827 73.2999 41.7157C73.2999 41.4275 73.3912 41.1998 73.5739 41.0329C73.7604 40.8633 74.0036 40.7785 74.3036 40.7785C74.6023 40.7785 74.8449 40.8633 75.0315 41.0329C75.2154 41.2011 75.3073 41.4288 75.3073 41.7157ZM74.9747 43.322C74.9747 43.1251 74.9121 42.9653 74.7869 42.8427C74.6643 42.7188 74.5019 42.6568 74.2997 42.6568C74.0975 42.6568 73.9352 42.7181 73.8125 42.8407C73.6925 42.9646 73.6325 43.1251 73.6325 43.322C73.6325 43.5229 73.6919 43.6801 73.8106 43.7935C73.9293 43.9083 74.0936 43.9657 74.3036 43.9657C74.5123 43.9657 74.676 43.9083 74.7947 43.7935C74.9147 43.6761 74.9747 43.519 74.9747 43.322ZM74.3036 41.1151C74.1262 41.1151 73.9834 41.1698 73.8752 41.2794C73.7682 41.3864 73.7147 41.5338 73.7147 41.7216C73.7147 41.9016 73.7675 42.047 73.8732 42.1579C73.9815 42.2661 74.1249 42.3203 74.3036 42.3203C74.481 42.3203 74.6239 42.2655 74.7321 42.1559C74.8391 42.0464 74.8925 41.9016 74.8925 41.7216C74.8925 41.5468 74.8378 41.4014 74.7282 41.2853C74.616 41.1718 74.4745 41.1151 74.3036 41.1151ZM79.3743 42.7918C79.3743 43.3044 79.2876 43.6827 79.1141 43.9266C78.9393 44.1744 78.668 44.2983 78.3002 44.2983C77.5998 44.2983 77.2398 43.8164 77.2202 42.8525V42.2675C77.2202 41.7614 77.307 41.3877 77.4804 41.1464C77.6552 40.9011 77.9272 40.7785 78.2963 40.7785C78.655 40.7785 78.923 40.8998 79.1004 41.1425C79.2739 41.3798 79.3652 41.7405 79.3743 42.2244V42.7918ZM78.9596 42.1931C78.9596 41.8188 78.9061 41.5455 78.7991 41.3733C78.6935 41.2011 78.5259 41.1151 78.2963 41.1151C78.0693 41.1151 77.903 41.2005 77.7974 41.3714C77.693 41.5396 77.6389 41.8025 77.635 42.1598V42.8603C77.635 43.5972 77.8567 43.9657 78.3002 43.9657C78.522 43.9657 78.6857 43.8809 78.7913 43.7114C78.8983 43.5405 78.9543 43.2738 78.9596 42.9111V42.1931ZM82.099 42.7918C82.099 43.3044 82.0122 43.6827 81.8387 43.9266C81.664 44.1744 81.3927 44.2983 81.0248 44.2983C80.3244 44.2983 79.9644 43.8164 79.9448 42.8525V42.2675C79.9448 41.7614 80.0316 41.3877 80.205 41.1464C80.3798 40.9011 80.6518 40.7785 81.0209 40.7785C81.3796 40.7785 81.6477 40.8998 81.825 41.1425C81.9985 41.3798 82.0898 41.7405 82.099 42.2244V42.7918ZM81.6842 42.1931C81.6842 41.8188 81.6307 41.5455 81.5237 41.3733C81.4181 41.2011 81.2505 41.1151 81.0209 41.1151C80.794 41.1151 80.6277 41.2005 80.522 41.3714C80.4177 41.5396 80.3635 41.8025 80.3596 42.1598V42.8603C80.3596 43.5972 80.5814 43.9657 81.0248 43.9657C81.2466 43.9657 81.4103 43.8809 81.5159 43.7114C81.6229 43.5405 81.679 43.2738 81.6842 42.9111V42.1931ZM84.8236 42.7918C84.8236 43.3044 84.7368 43.6827 84.5634 43.9266C84.3886 44.1744 84.1173 44.2983 83.7494 44.2983C83.049 44.2983 82.689 43.8164 82.6694 42.8525V42.2675C82.6694 41.7614 82.7562 41.3877 82.9297 41.1464C83.1044 40.9011 83.3764 40.7785 83.7455 40.7785C84.1042 40.7785 84.3723 40.8998 84.5497 41.1425C84.7231 41.3798 84.8144 41.7405 84.8236 42.2244V42.7918ZM84.4088 42.1931C84.4088 41.8188 84.3553 41.5455 84.2484 41.3733C84.1427 41.2011 83.9751 41.1151 83.7455 41.1151C83.5186 41.1151 83.3523 41.2005 83.2466 41.3714C83.1423 41.5396 83.0881 41.8025 83.0842 42.1598V42.8603C83.0842 43.5972 83.306 43.9657 83.7494 43.9657C83.9712 43.9657 84.1349 43.8809 84.2405 43.7114C84.3475 43.5405 84.4036 43.2738 84.4088 42.9111V42.1931ZM88.8182 42.7918C88.8182 43.3044 88.7315 43.6827 88.558 43.9266C88.3832 44.1744 88.1119 44.2983 87.7441 44.2983C87.0436 44.2983 86.6836 43.8164 86.6641 42.8525V42.2675C86.6641 41.7614 86.7508 41.3877 86.9243 41.1464C87.0991 40.9011 87.371 40.7785 87.7402 40.7785C88.0988 40.7785 88.3669 40.8998 88.5443 41.1425C88.7178 41.3798 88.8091 41.7405 88.8182 42.2244V42.7918ZM88.4034 42.1931C88.4034 41.8188 88.3499 41.5455 88.243 41.3733C88.1373 41.2011 87.9697 41.1151 87.7402 41.1151C87.5132 41.1151 87.3469 41.2005 87.2412 41.3714C87.1369 41.5396 87.0828 41.8025 87.0788 42.1598V42.8603C87.0788 43.5972 87.3006 43.9657 87.7441 43.9657C87.9658 43.9657 88.1295 43.8809 88.2352 43.7114C88.3421 43.5405 88.3982 43.2738 88.4034 42.9111V42.1931ZM91.5428 42.7918C91.5428 43.3044 91.4561 43.6827 91.2826 43.9266C91.1078 44.1744 90.8365 44.2983 90.4687 44.2983C89.7682 44.2983 89.4082 43.8164 89.3887 42.8525V42.2675C89.3887 41.7614 89.4754 41.3877 89.6489 41.1464C89.8237 40.9011 90.0956 40.7785 90.4648 40.7785C90.8235 40.7785 91.0915 40.8998 91.2689 41.1425C91.4424 41.3798 91.5337 41.7405 91.5428 42.2244V42.7918ZM91.128 42.1931C91.128 41.8188 91.0745 41.5455 90.9676 41.3733C90.8619 41.2011 90.6943 41.1151 90.4648 41.1151C90.2378 41.1151 90.0715 41.2005 89.9659 41.3714C89.8615 41.5396 89.8074 41.8025 89.8035 42.1598V42.8603C89.8035 43.5972 90.0252 43.9657 90.4687 43.9657C90.6904 43.9657 90.8541 43.8809 90.9598 43.7114C91.0667 43.5405 91.1228 43.2738 91.128 42.9111V42.1931ZM94.2674 42.7918C94.2674 43.3044 94.1807 43.6827 94.0072 43.9266C93.8324 44.1744 93.5611 44.2983 93.1933 44.2983C92.4929 44.2983 92.1329 43.8164 92.1133 42.8525V42.2675C92.1133 41.7614 92.2 41.3877 92.3735 41.1464C92.5483 40.9011 92.8202 40.7785 93.1894 40.7785C93.5481 40.7785 93.8161 40.8998 93.9935 41.1425C94.167 41.3798 94.2583 41.7405 94.2674 42.2244V42.7918ZM93.8526 42.1931C93.8526 41.8188 93.7992 41.5455 93.6922 41.3733C93.5865 41.2011 93.4189 41.1151 93.1894 41.1151C92.9624 41.1151 92.7961 41.2005 92.6905 41.3714C92.5861 41.5396 92.532 41.8025 92.5281 42.1598V42.8603C92.5281 43.5972 92.7498 43.9657 93.1933 43.9657C93.415 43.9657 93.5787 43.8809 93.6844 43.7114C93.7913 43.5405 93.8474 43.2738 93.8526 42.9111V42.1931Z" fill="black"/>
<rect x="60.3448" y="53.9971" width="31" height="9" rx="4.5" fill="#F47A20"/>
<path d="M68.5127 58.8038H68.1357V59.6451H67.661V57.3469H68.5153C68.7875 57.3469 68.997 57.4073 69.144 57.5282C69.2918 57.649 69.3657 57.8199 69.3657 58.0408C69.3657 58.1982 69.3314 58.329 69.2627 58.4334C69.1949 58.5377 69.0923 58.6212 68.9549 58.6838L69.4518 59.623V59.6451H68.9431L68.5127 58.8038ZM68.1357 58.4203H68.5166C68.6357 58.4203 68.7279 58.3899 68.7931 58.329C68.8584 58.2682 68.891 58.1847 68.891 58.0786C68.891 57.9708 68.8601 57.886 68.7984 57.8243C68.7375 57.7617 68.6431 57.7303 68.5153 57.7303H68.1357V58.4203ZM70.48 59.6764C70.2295 59.6764 70.0256 59.5999 69.8682 59.4469C69.7109 59.293 69.6322 59.0882 69.6322 58.8325V58.7882C69.6322 58.616 69.6652 58.4625 69.7313 58.3277C69.7982 58.1921 69.8922 58.0877 70.013 58.0147C70.1348 57.9417 70.2735 57.9051 70.4291 57.9051C70.663 57.9051 70.8469 57.979 70.9809 58.1269C71.1156 58.2738 71.183 58.4825 71.183 58.753V58.9395H70.0952C70.11 59.0508 70.1543 59.1403 70.2282 59.2082C70.3022 59.2751 70.3961 59.3086 70.51 59.3086C70.6856 59.3086 70.823 59.2451 70.9222 59.1182L71.1465 59.3686C71.0778 59.466 70.9852 59.5417 70.8687 59.5956C70.7522 59.6495 70.6226 59.6764 70.48 59.6764ZM70.4278 58.2743C70.3374 58.2743 70.2639 58.3051 70.2074 58.3669C70.1517 58.4277 70.1156 58.5147 70.0991 58.6277H70.7343V58.5925C70.7326 58.4908 70.7052 58.4125 70.6522 58.3577C70.6 58.3021 70.5252 58.2743 70.4278 58.2743ZM71.3773 58.7777C71.3773 58.516 71.4394 58.3051 71.5638 58.1451C71.6881 57.9851 71.8564 57.9051 72.0686 57.9051C72.2555 57.9051 72.4012 57.9695 72.5055 58.0982L72.5251 57.9364H72.9386V59.5877C72.9386 59.7373 72.9047 59.8673 72.8368 59.9777C72.769 60.089 72.6734 60.1734 72.5499 60.2308C72.4264 60.289 72.282 60.3182 72.1168 60.3182C71.9916 60.3182 71.8694 60.293 71.7503 60.2425C71.632 60.193 71.542 60.1286 71.4803 60.0495L71.6825 59.7717C71.7964 59.8986 71.9347 59.9621 72.0973 59.9621C72.2181 59.9621 72.312 59.9295 72.379 59.8643C72.4468 59.7999 72.4807 59.7086 72.4807 59.5903V59.4977C72.3755 59.6169 72.2368 59.6764 72.0647 59.6764C71.8594 59.6764 71.6934 59.5964 71.5664 59.4364C71.4403 59.2756 71.3773 59.0625 71.3773 58.7973V58.7777ZM71.8325 58.8117C71.8325 58.9664 71.8634 59.0877 71.9251 59.1756C71.9877 59.2634 72.0734 59.3073 72.182 59.3073C72.3212 59.3073 72.4207 59.2551 72.4807 59.1508V58.4321C72.419 58.3286 72.3203 58.2769 72.1847 58.2769C72.0751 58.2769 71.989 58.3217 71.9264 58.4112C71.8638 58.4999 71.8325 58.6334 71.8325 58.8117ZM73.7708 59.6451H73.313V57.9364H73.7708V59.6451ZM73.2856 57.4943C73.2856 57.4264 73.3082 57.3703 73.3534 57.326C73.3995 57.2817 73.4621 57.2595 73.5412 57.2595C73.6195 57.2595 73.6817 57.2817 73.7278 57.326C73.7738 57.3703 73.7969 57.4264 73.7969 57.4943C73.7969 57.5638 73.7734 57.6208 73.7264 57.6651C73.6795 57.7095 73.6178 57.7317 73.5412 57.7317C73.4647 57.7317 73.403 57.7095 73.356 57.6651C73.3091 57.6208 73.2856 57.5638 73.2856 57.4943ZM75.0727 59.173C75.0727 59.1173 75.0448 59.0734 74.9892 59.0412C74.9344 59.009 74.8457 58.9803 74.7231 58.9551C74.317 58.8699 74.114 58.6973 74.114 58.4373C74.114 58.286 74.1766 58.1595 74.3018 58.0577C74.4279 57.956 74.5927 57.9051 74.7961 57.9051C75.0127 57.9051 75.1857 57.9564 75.3153 58.059C75.4457 58.1608 75.5109 58.2934 75.5109 58.4569H75.0544C75.0544 58.3908 75.0335 58.3364 74.9918 58.2938C74.9501 58.2512 74.8844 58.2299 74.7948 58.2299C74.7175 58.2299 74.6575 58.2473 74.6148 58.2821C74.5731 58.3169 74.5522 58.3612 74.5522 58.4151C74.5522 58.4656 74.5761 58.5064 74.624 58.5377C74.6727 58.569 74.7535 58.596 74.8666 58.6186C74.9805 58.6412 75.0766 58.6664 75.1548 58.6943C75.3957 58.783 75.5161 58.9364 75.5161 59.1547C75.5161 59.3103 75.4492 59.436 75.3153 59.5317C75.1814 59.6282 75.0088 59.6764 74.7975 59.6764C74.654 59.6764 74.5266 59.6508 74.4153 59.5995C74.3048 59.549 74.2179 59.4795 74.1544 59.3908C74.0918 59.3012 74.0605 59.2051 74.0605 59.1025H74.4922C74.4966 59.1834 74.5266 59.2456 74.5822 59.289C74.6388 59.3317 74.7135 59.353 74.8066 59.353C74.8944 59.353 74.9605 59.3364 75.0048 59.3034C75.0501 59.2703 75.0727 59.2269 75.0727 59.173ZM76.3572 57.5164V57.9364H76.6493V58.2717H76.3572V59.1247C76.3572 59.1873 76.3693 59.2325 76.3937 59.2603C76.418 59.2873 76.4646 59.3008 76.5333 59.3008C76.5837 59.3008 76.628 59.2973 76.6663 59.2903V59.636C76.5776 59.663 76.4859 59.6764 76.3911 59.6764C76.0711 59.6764 75.9076 59.5151 75.9006 59.1925V58.2717H75.6515V57.9364H75.9006V57.5164H76.3572ZM77.8634 58.3643C77.8017 58.3564 77.7469 58.3525 77.6991 58.3525C77.5269 58.3525 77.4139 58.4108 77.3599 58.5273V59.6451H76.9034V57.9364H77.3352L77.3482 58.1399C77.4395 57.9834 77.566 57.9051 77.7278 57.9051C77.7782 57.9051 77.8256 57.9121 77.8699 57.926L77.8634 58.3643ZM79.0712 59.6451C79.0503 59.6043 79.0351 59.5534 79.0255 59.4925C78.9151 59.6151 78.7716 59.6764 78.5951 59.6764C78.4272 59.6764 78.2881 59.6282 78.1777 59.5317C78.0681 59.4351 78.0133 59.313 78.0133 59.1651C78.0133 58.9843 78.0803 58.8456 78.2142 58.749C78.349 58.6517 78.5433 58.6025 78.7972 58.6017H79.0072V58.5038C79.0072 58.4247 78.9868 58.3617 78.9459 58.3147C78.9059 58.2669 78.842 58.243 78.7542 58.243C78.6777 58.243 78.6172 58.2617 78.5729 58.299C78.5294 58.3356 78.5077 58.386 78.5077 58.4503H78.0512C78.0512 58.3512 78.0816 58.2595 78.1425 58.1751C78.2042 58.0908 78.2907 58.0247 78.402 57.9769C78.5133 57.929 78.6385 57.9051 78.7777 57.9051C78.9881 57.9051 79.1551 57.9582 79.2785 58.0643C79.4029 58.1695 79.4651 58.3182 79.4651 58.5103V59.2499C79.4659 59.4125 79.4885 59.5351 79.5329 59.6177V59.6451H79.0712ZM78.6942 59.3282C78.762 59.3282 78.8242 59.3134 78.8807 59.2838C78.9372 59.2534 78.9794 59.213 79.0072 59.1625V58.8677H78.8364C78.6077 58.8677 78.4859 58.9469 78.4712 59.1051L78.4699 59.1325C78.4699 59.189 78.4899 59.236 78.5299 59.2734C78.5699 59.3099 78.6246 59.3282 78.6942 59.3282ZM80.3621 57.5164V57.9364H80.6542V58.2717H80.3621V59.1247C80.3621 59.1873 80.3742 59.2325 80.3986 59.2603C80.4229 59.2873 80.4694 59.3008 80.5381 59.3008C80.5886 59.3008 80.6329 59.2973 80.6712 59.2903V59.636C80.5825 59.663 80.4907 59.6764 80.396 59.6764C80.076 59.6764 79.9125 59.5151 79.9055 59.1925V58.2717H79.6564V57.9364H79.9055V57.5164H80.3621ZM81.3909 59.6451H80.9331V57.9364H81.3909V59.6451ZM80.9057 57.4943C80.9057 57.4264 80.9283 57.3703 80.9735 57.326C81.0196 57.2817 81.0822 57.2595 81.1613 57.2595C81.2396 57.2595 81.3018 57.2817 81.3479 57.326C81.394 57.3703 81.417 57.4264 81.417 57.4943C81.417 57.5638 81.3935 57.6208 81.3466 57.6651C81.2996 57.7095 81.2379 57.7317 81.1613 57.7317C81.0848 57.7317 81.0231 57.7095 80.9761 57.6651C80.9292 57.6208 80.9057 57.5638 80.9057 57.4943ZM81.6963 58.7751C81.6963 58.6056 81.7289 58.4547 81.7941 58.3225C81.8593 58.1895 81.9532 58.0869 82.0758 58.0147C82.1984 57.9417 82.3406 57.9051 82.5024 57.9051C82.7337 57.9051 82.9219 57.9756 83.0671 58.1164C83.2132 58.2573 83.2945 58.449 83.311 58.6917L83.315 58.8077C83.315 59.0703 83.2415 59.2808 83.0945 59.439C82.9484 59.5973 82.7524 59.6764 82.5063 59.6764C82.2602 59.6764 82.0637 59.5977 81.9167 59.4403C81.7697 59.2821 81.6963 59.0673 81.6963 58.796V58.7751ZM82.1528 58.8077C82.1528 58.9703 82.1832 59.0947 82.2441 59.1808C82.305 59.266 82.3924 59.3086 82.5063 59.3086C82.6167 59.3086 82.7028 59.2664 82.7645 59.1821C82.8271 59.0969 82.8584 58.9612 82.8584 58.7751C82.8584 58.616 82.8271 58.493 82.7645 58.406C82.7028 58.3182 82.6154 58.2743 82.5024 58.2743C82.391 58.2743 82.305 58.3177 82.2441 58.4047C82.1832 58.4917 82.1528 58.626 82.1528 58.8077ZM84.0148 57.9364L84.0292 58.1347C84.1518 57.9817 84.3157 57.9051 84.5209 57.9051C84.7018 57.9051 84.8361 57.9586 84.924 58.0656C85.0127 58.1717 85.0583 58.3303 85.0609 58.5417V59.6451H84.6044V58.5521C84.6044 58.4556 84.5831 58.3856 84.5405 58.3421C84.4987 58.2986 84.4287 58.2769 84.3305 58.2769C84.2027 58.2769 84.1066 58.3312 84.0422 58.4399V59.6451H83.5857V57.9364H84.0148Z" fill="white"/>
<path d="M85.0482 22.3425H67.4849C67.3623 22.3425 67.2447 22.2939 67.1579 22.2073C67.0711 22.1206 67.0222 22.0031 67.022 21.8805C67.022 21.7577 67.0707 21.6399 67.1576 21.5531C67.2444 21.4662 67.3621 21.4175 67.4849 21.4175H85.0482C85.1708 21.4177 85.2883 21.4666 85.375 21.5534C85.4616 21.6402 85.5103 21.7578 85.5103 21.8805C85.5103 22.003 85.4616 22.1205 85.3749 22.2072C85.2883 22.2939 85.1707 22.3425 85.0482 22.3425Z" fill="white"/>
<path d="M51.2889 69.3121C51.2889 69.3121 51.5499 70.2807 52.1391 70.7575L52.8353 62.7008C52.8353 62.7008 57.8583 57.0878 56.6443 49.5167C56.2356 46.9208 54.9359 44.5482 52.9684 42.8062C51.8432 41.8168 50.6066 41.1528 49.8782 42.0866C49.8782 42.0866 44.1877 55.638 40.2559 65.537L51.2889 69.3121Z" fill="#FFC0BB"/>
<path d="M97.8346 94.1118H54.6288V98.4778H97.8346V94.1118Z" fill="#F47A20"/>
<path d="M97.8346 24.6626H54.6288V28.5796H97.8346V24.6626Z" fill="#F47A20"/>
<path d="M50.906 50.0459C52.4785 49.3227 53.2991 45.2317 53.5933 43.3929C52.3314 42.1232 50.7484 40.9806 49.8826 42.0876C49.8826 42.0876 48.6294 45.0716 46.8933 49.2618C48.0803 49.9215 49.7303 50.5872 50.906 50.0459Z" fill="#EAA0A0"/>
<path d="M90.5263 73.2778C90.5263 73.2778 84.6905 73.7678 84.4869 75.3185C84.2832 76.8693 84.7314 79.6036 90.24 80.1336H95.9471C95.9471 80.1336 94.2397 75.4004 94.3215 75.2367C94.4033 75.0731 90.5263 73.2778 90.5263 73.2778Z" fill="#EFADAB"/>
<path d="M81.1634 96.4101C80.9763 96.5108 80.8113 96.6481 80.6784 96.8139C80.5455 96.9798 80.4473 97.1707 80.3897 97.3752C80.3321 97.5798 80.3163 97.7938 80.3432 98.0047C80.3702 98.2155 80.4393 98.4187 80.5464 98.6022C83.232 103.234 93.9099 121.639 94.8724 123.136C95.9741 124.85 98.6675 128.89 107.604 130.968C116.541 133.046 120.213 139.052 120.213 139.052H147.758C147.758 139.052 141.27 128.768 135.883 102.081C135.883 102.081 131.721 79.9225 123.886 80.657C123.886 80.657 119.111 75.6374 114.46 76.6173C114.46 76.6173 105.645 71.3523 100.623 71.3523L88.5666 57.1047C87.3735 55.6941 85.2701 55.4182 83.8037 56.54C83.3312 56.9011 82.9718 57.3789 82.8717 58.0089C82.5045 60.3351 85.5695 66.211 90.462 73.3113C95.3545 80.4116 107.486 102.937 102.217 112.858C102.217 112.858 96.8304 108.818 92.179 102.328C88.2829 96.8922 83.7002 95.0647 81.1634 96.4101Z" fill="#FFC0BB"/>
<path d="M100.671 71.3584C102.267 72.7338 103.775 74.2086 105.186 75.774C106.609 77.3326 107.941 78.9719 109.175 80.6839C110.306 82.246 111.625 84.3503 112.466 86.1003C113.607 88.4125 114.119 90.1278 114.456 92.098L114.421 92.105C113.985 90.0556 113.18 88.1019 112.21 86.2326C111.542 84.9185 110.228 82.7447 108.876 80.898C107.658 79.1897 106.34 77.5519 104.967 75.9637C103.674 74.4721 102.047 72.7264 100.646 71.3845L100.671 71.3584Z" fill="#EAA0A0"/>
<path d="M114.381 76.5791C115.686 77.2448 116.843 78.1742 117.869 79.2238C119.798 81.1679 121.378 83.836 122.167 86.834C122.483 88.1664 122.689 89.0688 122.721 91.1757H122.684C122.565 89.7311 122.299 88.3024 121.891 86.9115C121.004 84.0301 119.613 81.5647 117.655 79.4152C116.734 78.4066 115.528 77.3179 114.362 76.6061L114.381 76.5791Z" fill="#EAA0A0"/>
<path d="M123.79 80.5586C124.941 81.4288 126.101 82.9657 126.667 84.0074C127.972 86.2482 128.588 88.6283 128.696 91.1747L128.659 91.1799C128.17 88.3429 127.687 86.7329 126.362 84.1727C125.927 83.3112 124.817 81.6194 123.769 80.5812L123.79 80.5586Z" fill="#EAA0A0"/>
<path d="M86.7234 102.11C86.9671 100.87 85.5233 98.9051 84.2127 97.4222C83.8184 96.972 83.3001 96.6479 82.7226 96.4905C82.1452 96.3331 81.5342 96.3493 80.9659 96.5371C80.6549 96.7702 80.4404 97.1095 80.3631 97.4903C80.2857 97.8712 80.351 98.2672 80.5464 98.6031C81.2678 99.8476 82.5671 102.084 84.0996 104.725C85.2466 104.141 86.4971 103.257 86.7234 102.11Z" fill="#EAA0A0"/>
<path d="M87.8808 62.6957C88.577 62.5564 91.7369 61.506 91.5428 60.9299L88.4273 57.2488C87.8284 56.5404 86.9759 56.0946 86.0524 56.007H86.0377C86.0115 56.007 85.9506 56 85.8749 56C85.4572 56 84.4277 56.1192 84.2014 57.2514C83.9786 58.3688 85.8279 61.0805 86.6433 62.2118C86.7815 62.4027 86.9716 62.5498 87.191 62.6356C87.4104 62.7214 87.6499 62.7422 87.8808 62.6957Z" fill="#EAA0A0"/>
<path d="M32.5656 119.802C36.017 121.923 47.13 128.264 58.6215 129.616C59.2951 129.695 59.7685 130.312 59.5692 130.845L57.5616 136.223C57.4284 136.578 57.029 136.786 56.5799 136.731C53.193 136.32 39.2203 134.217 29.3892 126.611C29.0542 126.35 28.9132 125.96 29.0411 125.625L31.0897 120.137C31.2794 119.62 32.0034 119.457 32.5656 119.802Z" fill="#473B1E"/>
<path d="M31.9381 122.686L31.263 124.495C31.2035 124.654 31.2845 124.831 31.4439 124.891L31.6347 124.962C31.7941 125.022 31.9715 124.941 32.031 124.781L32.7061 122.973C32.7656 122.814 32.6846 122.636 32.5252 122.577L32.3344 122.505C32.175 122.446 31.9976 122.527 31.9381 122.686Z" fill="#002A24"/>
<path d="M34.61 123.864L34.4192 123.793C34.2598 123.733 34.0824 123.814 34.0229 123.974L33.3479 125.782C33.2884 125.941 33.3694 126.119 33.5288 126.178L33.7195 126.25C33.8789 126.309 34.0564 126.228 34.1159 126.069L34.7909 124.26C34.8504 124.101 34.7694 123.924 34.61 123.864Z" fill="#002A24"/>
<path d="M36.671 125.127L36.4802 125.056C36.3208 124.996 36.1434 125.077 36.0839 125.237L35.4089 127.045C35.3494 127.205 35.4304 127.382 35.5897 127.442L35.7805 127.513C35.9399 127.572 36.1174 127.491 36.1769 127.332L36.8519 125.524C36.9114 125.364 36.8304 125.187 36.671 125.127Z" fill="#002A24"/>
<path d="M38.8107 126.158L38.6199 126.087C38.4605 126.028 38.2831 126.109 38.2236 126.268L37.5485 128.076C37.489 128.236 37.57 128.413 37.7294 128.473L37.9202 128.544C38.0796 128.603 38.2571 128.522 38.3166 128.363L38.9916 126.555C39.0511 126.395 38.9701 126.218 38.8107 126.158Z" fill="#002A24"/>
<path d="M40.8978 127.352L40.7071 127.281C40.5477 127.222 40.3702 127.303 40.3107 127.462L39.6357 129.27C39.5762 129.43 39.6572 129.607 39.8166 129.667L40.0073 129.738C40.1667 129.797 40.3442 129.716 40.4037 129.557L41.0787 127.749C41.1382 127.589 41.0572 127.412 40.8978 127.352Z" fill="#002A24"/>
<path d="M43.0796 128.3L42.8888 128.228C42.7294 128.169 42.552 128.25 42.4925 128.409L41.8175 130.218C41.758 130.377 41.8389 130.554 41.9983 130.614L42.1891 130.685C42.3485 130.745 42.526 130.664 42.5855 130.504L43.2605 128.696C43.32 128.537 43.239 128.359 43.0796 128.3Z" fill="#002A24"/>
<path d="M44.4174 131.518L44.226 131.447C44.1881 131.433 44.1534 131.411 44.1238 131.384C44.0943 131.356 44.0705 131.323 44.0537 131.286C44.037 131.25 44.0277 131.21 44.0263 131.169C44.025 131.129 44.0316 131.089 44.0458 131.051L44.7203 129.242C44.7344 129.204 44.7558 129.169 44.7834 129.14C44.811 129.11 44.8441 129.086 44.8809 129.07C44.9176 129.053 44.9574 129.044 44.9977 129.042C45.0381 129.041 45.0784 129.047 45.1162 129.062L45.3077 129.133C45.3841 129.162 45.4462 129.219 45.4801 129.294C45.514 129.368 45.5171 129.452 45.4887 129.529L44.8134 131.337C44.7848 131.414 44.7271 131.476 44.6528 131.51C44.5786 131.544 44.4939 131.547 44.4174 131.518Z" fill="#002A24"/>
<path d="M47.609 129.854L47.4183 129.783C47.2589 129.724 47.0814 129.805 47.0219 129.964L46.3469 131.772C46.2874 131.932 46.3684 132.109 46.5278 132.169L46.7185 132.24C46.8779 132.299 47.0554 132.218 47.1149 132.059L47.7899 130.251C47.8494 130.091 47.7684 129.914 47.609 129.854Z" fill="#002A24"/>
<path d="M49.0593 132.706L48.8679 132.635C48.7914 132.606 48.7294 132.548 48.6954 132.474C48.6615 132.4 48.6584 132.315 48.6869 132.239L49.3622 130.43C49.3909 130.353 49.4487 130.291 49.5229 130.258C49.5971 130.224 49.6817 130.221 49.7581 130.249L49.9496 130.321C50.026 130.349 50.0881 130.407 50.122 130.481C50.1559 130.556 50.159 130.64 50.1306 130.717L49.4553 132.525C49.4267 132.602 49.369 132.664 49.2947 132.698C49.2205 132.731 49.1358 132.735 49.0593 132.706Z" fill="#002A24"/>
<path d="M51.3637 133.343L51.1723 133.272C51.1344 133.258 51.0997 133.236 51.0701 133.209C51.0406 133.181 51.0168 133.148 51 133.111C50.9833 133.074 50.974 133.035 50.9726 132.994C50.9713 132.954 50.9779 132.914 50.9921 132.876L51.6674 131.068C51.696 130.991 51.7537 130.929 51.8279 130.895C51.9022 130.861 51.9869 130.858 52.0634 130.886L52.254 130.958C52.3304 130.986 52.3925 131.044 52.4264 131.118C52.4603 131.193 52.4634 131.277 52.435 131.354L51.7597 133.162C51.7311 133.239 51.6734 133.301 51.5991 133.335C51.5249 133.369 51.4402 133.372 51.3637 133.343Z" fill="#002A24"/>
<path d="M54.6676 131.362L54.4768 131.291C54.3174 131.231 54.1399 131.312 54.0804 131.472L53.4054 133.28C53.3459 133.439 53.4269 133.617 53.5863 133.676L53.7771 133.748C53.9365 133.807 54.1139 133.726 54.1734 133.567L54.8484 131.758C54.9079 131.599 54.827 131.422 54.6676 131.362Z" fill="#002A24"/>
<path d="M56.1526 134.137L55.9612 134.065C55.9233 134.051 55.8886 134.03 55.8591 134.002C55.8295 133.975 55.8057 133.941 55.789 133.905C55.7722 133.868 55.7629 133.828 55.7616 133.788C55.7602 133.747 55.7668 133.707 55.781 133.669L56.4564 131.861C56.4849 131.784 56.5426 131.722 56.6169 131.689C56.6911 131.655 56.7758 131.652 56.8523 131.68L57.0429 131.751C57.1194 131.78 57.1814 131.838 57.2153 131.912C57.2493 131.986 57.2524 132.071 57.2239 132.147L56.5486 133.956C56.5201 134.032 56.4623 134.094 56.3881 134.128C56.3138 134.162 56.2292 134.165 56.1526 134.137Z" fill="#002A24"/>
<path d="M39.3866 132.252L39.3961 132.227C39.359 132.222 39.3225 132.213 39.2874 132.2L36.5679 131.186C36.4357 131.13 36.3309 131.024 36.2764 130.891C36.222 130.759 36.2222 130.61 36.2772 130.477L38.7295 123.909C38.774 123.773 38.8709 123.659 38.999 123.594C39.1271 123.529 39.2759 123.517 39.4127 123.561L42.1304 124.58C42.2072 124.61 42.2756 124.658 42.3297 124.721C42.3839 124.783 42.4221 124.857 42.4411 124.937C42.654 125.03 42.8693 125.123 43.0868 125.217C43.1591 124.665 42.8762 124.128 42.3698 123.939L39.6503 122.923C39.0541 122.701 38.3736 123.044 38.1334 123.688L35.682 130.255C35.4409 130.899 35.7307 131.604 36.3268 131.827L39.0454 132.842C39.2455 132.913 39.4613 132.927 39.6687 132.882C39.8761 132.837 40.067 132.736 40.2203 132.589C39.9429 132.48 39.665 132.367 39.3866 132.252Z" fill="#EDFDFC"/>
<path d="M38.7896 127.042L37.6052 126.598C37.4976 126.567 37.382 126.577 37.2817 126.628C37.1814 126.678 37.1039 126.764 37.0646 126.869C37.0254 126.974 37.0274 127.09 37.0702 127.194C37.113 127.297 37.1934 127.381 37.2954 127.428L38.478 127.87L38.7896 127.042Z" fill="#B7D972"/>
<g style="mix-blend-mode:multiply" opacity="0.2">
<path d="M120.213 139.052H147.758C147.758 139.052 143.504 132.309 139.026 115.575C137.06 127.897 126.217 127.186 121.914 127.87C116.96 128.653 97.7267 124.65 95.0316 123.384C96.2308 125.211 99.0712 128.985 107.604 130.972C116.54 133.053 120.213 139.052 120.213 139.052Z" fill="#FFC0BB"/>
</g>
<g style="mix-blend-mode:multiply" opacity="0.2">
<path d="M91.9214 75.5449C97.3221 84.2265 107.011 104.155 102.217 112.857L105.397 115.99C105.397 115.99 113.437 107.084 100.644 87.4464C97.9623 83.3185 95.0502 79.345 91.9214 75.5449Z" fill="#FFC0BB"/>
</g>
<path d="M17.463 55.3572C21.3102 47.6104 33.0991 53.0941 29.5901 61.0029C29.2359 61.7881 28.8038 62.5358 28.3003 63.2347C22.4436 71.4766 10.8842 76.4487 6.84705 71.0048C2.80985 65.5608 9.99806 62.3845 14.0911 60.3103C15.9947 59.3389 16.47 57.3557 17.463 55.3572Z" fill="#FEEC8C"/>
<path d="M139.733 49.5486C137.051 48.8848 134.114 49.8973 133.105 51.7799C132.32 53.2438 131.422 55.2861 131.341 57.082C131.194 60.3217 133.01 67.2753 139.959 68.9923C146.907 70.7093 151.053 66.18 146.427 60.9394C144.451 58.7021 145.438 50.9618 139.733 49.5486Z" fill="#FEEC8C"/>
<path d="M108.617 37.0438C108.687 36.7407 108.817 36.4547 109 36.2027C109.182 35.9508 109.414 35.7379 109.68 35.5768C109.946 35.4156 110.242 35.3093 110.549 35.2643C110.857 35.2193 111.171 35.2364 111.472 35.3146C111.823 34.5644 112.434 33.9666 113.192 33.6318C113.95 33.297 114.803 33.2477 115.595 33.4932C116.006 32.8105 116.603 32.2582 117.315 31.9003C118.027 31.5423 118.827 31.3933 119.62 31.4705C120.414 31.5477 121.169 31.8479 121.799 32.3365C122.429 32.825 122.908 33.4819 123.18 34.2312C123.621 33.986 124.119 33.8601 124.623 33.8662C125.128 33.8723 125.622 34.01 126.057 34.2658C126.492 34.5215 126.853 34.8864 127.103 35.3244C127.354 35.7623 127.485 36.2582 127.486 36.7627C127.486 36.8566 127.481 36.9504 127.472 37.0438H108.617Z" fill="#EDFDFC"/>
<path d="M46.5461 5.00226C46.6305 4.63526 46.8369 4.30775 47.1315 4.07319C47.4261 3.83863 47.7916 3.71089 48.1682 3.71084C48.3103 3.71068 48.4518 3.72851 48.5894 3.76391C48.8401 3.22653 49.277 2.79819 49.8192 2.55819C50.3615 2.31819 50.9723 2.28279 51.5386 2.45855C51.8333 1.97001 52.2602 1.57484 52.77 1.31873C53.2797 1.06262 53.8516 0.956026 54.4194 1.01128C54.9873 1.06653 55.5279 1.28138 55.9787 1.63097C56.4296 1.98055 56.7723 2.45061 56.9672 2.98679C57.2827 2.81106 57.6387 2.72083 57.9998 2.72502C58.361 2.7292 58.7147 2.82764 59.0261 3.01063C59.3375 3.19361 59.5956 3.45478 59.775 3.76824C59.9544 4.08171 60.0487 4.43661 60.0487 4.79777C60.0487 4.8652 60.0453 4.9326 60.0383 4.99967L46.5461 5.00226Z" fill="#EDFDFC"/>
<path d="M117.929 66.2402C117.929 66.2402 117.645 69.0381 115.436 69.2312C117.645 69.4253 117.929 72.2231 117.929 72.2231C117.929 72.2231 118.212 69.4253 120.42 69.2312C118.21 69.0381 117.929 66.2402 117.929 66.2402Z" fill="#EDFDFC"/>
<path d="M114.042 21.9258C114.042 21.9258 113.838 23.9334 112.254 24.0718C113.838 24.211 114.042 26.2187 114.042 26.2187C114.042 26.2187 114.246 24.211 115.83 24.0718C114.246 23.9334 114.042 21.9258 114.042 21.9258Z" fill="#EDFDFC"/>
<path d="M45.3799 11.166C45.3799 11.166 45.252 12.4279 44.2556 12.5149C45.252 12.6019 45.3799 13.8646 45.3799 13.8646C45.3799 13.8646 45.5078 12.6019 46.5034 12.5149C45.5078 12.4313 45.3799 11.166 45.3799 11.166Z" fill="#EDFDFC"/>
<path d="M37.2632 45.5605C37.2632 45.5605 36.9795 48.3584 34.7717 48.5525C36.9795 48.7456 37.2632 51.5435 37.2632 51.5435C37.2632 51.5435 37.5469 48.7456 39.7547 48.5525C37.5469 48.3584 37.2632 45.5605 37.2632 45.5605Z" fill="#EDFDFC"/>
<path d="M123.769 58.4995C123.769 58.4995 123.581 60.3505 122.12 60.4784C123.581 60.6064 123.769 62.4574 123.769 62.4574C123.769 62.4574 123.956 60.6064 125.417 60.4784C123.956 60.3505 123.769 58.4995 123.769 58.4995Z" fill="#EDFDFC"/>
<path d="M119.107 16.5693C119.107 16.5693 119.004 17.5797 118.207 17.6493C119.004 17.7189 119.107 18.7293 119.107 18.7293C119.107 18.7293 119.209 17.7189 120.006 17.6493C119.209 17.5797 119.107 16.5693 119.107 16.5693Z" fill="#EDFDFC"/>
<path d="M41.9085 39.0142C41.9085 39.0142 41.7206 40.8652 40.2603 40.994C41.7206 41.1219 41.9085 42.9729 41.9085 42.9729C41.9085 42.9729 42.0965 41.1219 43.5568 40.994C42.0965 40.8652 41.9085 39.0142 41.9085 39.0142Z" fill="#EDFDFC"/>
<path d="M52.4942 8.49219C52.4942 8.49219 52.3958 9.46076 51.6317 9.52777C52.3958 9.59478 52.4942 10.5625 52.4942 10.5625C52.4942 10.5625 52.5925 9.59478 53.3566 9.52777C52.5925 9.46076 52.4942 8.49219 52.4942 8.49219Z" fill="white"/>
<path d="M115.231 52.9414C115.231 52.9414 115.144 53.7699 114.493 53.8264C115.146 53.8839 115.231 54.7124 115.231 54.7124C115.231 54.7124 115.318 53.8839 115.968 53.8264C115.318 53.7681 115.231 52.9414 115.231 52.9414Z" fill="#EDFDFC"/>
<path d="M39.2238 56.4873C39.2238 56.4873 39.1368 57.3149 38.4867 57.3723C39.1403 57.4298 39.2238 58.2583 39.2238 58.2583C39.2238 58.2583 39.3108 57.4298 39.9618 57.3723C39.3082 57.3149 39.2238 56.4873 39.2238 56.4873Z" fill="white"/>
<path d="M46.8968 17.9429C46.8968 17.9429 46.7305 19.578 45.44 19.6912C46.7305 19.8043 46.8968 21.4395 46.8968 21.4395C46.8968 21.4395 47.0621 19.8043 48.3527 19.6912C47.0621 19.578 46.8968 17.9429 46.8968 17.9429Z" fill="#EDFDFC"/>
</svg>
