<svg width="164" height="139" viewBox="0 0 164 139" fill="none" xmlns="http://www.w3.org/2000/svg">
<path opacity="0.6" d="M78.1329 118.624C78.1329 118.624 11.0077 115.161 2.93558 92.1259C-5.13653 69.0912 12.747 65.9619 18.8566 53.0576C24.9662 40.1534 -2.74268 32.5484 15.8018 14.9953C34.3463 -2.55774 61.6947 -2.8642 73.2186 5.40334C84.7425 13.6709 98.0283 0.350953 119.42 7.85273C140.813 15.3545 146.049 30.5169 139.286 42.3535C132.523 54.1901 160.255 65.5162 163.733 78.94C167.21 92.3638 135.82 124.542 78.1329 118.624Z" fill="#C2E6FC"/>
<path d="M23.2571 28.0901C23.2042 27.9024 23.0762 27.7351 22.8939 27.6153C22.7115 27.4954 22.4856 27.4302 22.2528 27.4302C22.1649 27.4303 22.0773 27.4396 21.9922 27.4579C21.8373 27.1822 21.5668 26.9625 21.2309 26.8396C20.8949 26.7168 20.5166 26.6992 20.1661 26.7901C19.9837 26.5399 19.7195 26.3374 19.404 26.2063C19.0886 26.0751 18.7347 26.0205 18.3833 26.0488C18.032 26.0771 17.6974 26.1871 17.4184 26.3662C17.1394 26.5452 16.9272 26.786 16.8065 27.0607C16.6112 26.9706 16.3908 26.9244 16.1673 26.9266C15.9437 26.9288 15.7247 26.9793 15.532 27.0731C15.3393 27.1669 15.1795 27.3008 15.0685 27.4615C14.9575 27.6222 14.8991 27.804 14.8992 27.9891C14.8992 28.0235 14.8992 28.0551 14.9055 28.0921L23.2571 28.0901Z" fill="#EDFDFC"/>
<path d="M90.6598 16.0448C90.5739 15.7113 90.4141 15.3966 90.1899 15.1194C89.9657 14.8421 89.6817 14.6079 89.3546 14.4305C89.0276 14.2532 88.6641 14.1364 88.2857 14.087C87.9073 14.0376 87.5217 14.0566 87.1517 14.1428C86.7202 13.3175 85.9694 12.66 85.0382 12.2918C84.1069 11.9236 83.0582 11.8697 82.086 12.1401C81.5802 11.3891 80.8473 10.7815 79.9719 10.3877C79.0965 9.99396 78.1145 9.83001 77.1394 9.91486C76.1642 9.99971 75.2359 10.3299 74.4616 10.8672C73.6874 11.4045 73.0989 12.127 72.7643 12.9512C72.2225 12.6805 71.611 12.5414 70.9906 12.5477C70.3702 12.5539 69.7624 12.7052 69.2275 12.9867C68.6927 13.2682 68.2494 13.6699 67.9416 14.1521C67.6339 14.6343 67.4724 15.1802 67.4733 15.7355C67.4733 15.8401 67.4792 15.9432 67.4902 16.0448H90.6598Z" fill="#EDFDFC"/>
<path d="M130.293 30.1387C130.211 29.7915 130.058 29.4639 129.844 29.1753C129.63 28.8867 129.36 28.6429 129.048 28.4582C128.736 28.2736 128.389 28.152 128.029 28.1005C127.668 28.0489 127.3 28.0686 126.947 28.1582C126.536 27.2987 125.82 26.6138 124.932 26.2304C124.044 25.847 123.044 25.7912 122.117 26.0731C121.635 25.2911 120.936 24.6586 120.101 24.2487C119.266 23.8389 118.33 23.6685 117.4 23.7573C116.47 23.8461 115.585 24.1905 114.847 24.7505C114.109 25.3105 113.548 26.0634 113.23 26.9219C112.713 26.6408 112.13 26.4965 111.539 26.5033C110.948 26.5101 110.369 26.6678 109.859 26.9607C109.349 27.2536 108.926 27.6716 108.633 28.1733C108.339 28.6749 108.185 29.2429 108.185 29.8209C108.185 29.9293 108.19 30.0368 108.201 30.1424L130.293 30.1387Z" fill="#EDFDFC"/>
<path d="M10.855 53.7242C10.9162 53.488 11.0297 53.2652 11.1888 53.0689C11.3479 52.8726 11.5493 52.7068 11.7813 52.5812C12.0133 52.4557 12.271 52.3729 12.5394 52.3378C12.8077 52.3028 13.0812 52.3161 13.3437 52.377C13.6499 51.7925 14.1824 51.3268 14.8429 51.0659C15.5034 50.8051 16.2472 50.7668 16.9368 50.958C17.2956 50.4261 17.8156 49.9958 18.4365 49.717C19.0574 49.4381 19.754 49.322 20.4456 49.3822C21.1373 49.4423 21.7957 49.6762 22.3449 50.0568C22.894 50.4374 23.3114 50.9492 23.5488 51.5329C23.9332 51.3419 24.3667 51.2439 24.8065 51.2486C25.2462 51.2533 25.677 51.3606 26.0561 51.5599C26.4352 51.7591 26.7495 52.0434 26.9679 52.3846C27.1863 52.7258 27.3012 53.1121 27.3012 53.5052C27.3014 53.5783 27.2974 53.6514 27.2891 53.7242H10.855Z" fill="#EDFDFC"/>
<path d="M144.313 92.1729C144.313 92.1729 144.037 94.3304 141.886 94.4794C144.037 94.6291 144.313 96.7867 144.313 96.7867C144.313 96.7867 144.589 94.6291 146.739 94.4794C144.587 94.3304 144.313 92.1729 144.313 92.1729Z" fill="#EDFDFC"/>
<path d="M31.0762 14.2505C31.0762 14.2505 30.8919 15.8088 29.4581 15.9162C30.8919 16.0243 31.0762 17.5827 31.0762 17.5827C31.0762 17.5827 31.2604 16.0243 32.6935 15.9162C31.2604 15.8088 31.0762 14.2505 31.0762 14.2505Z" fill="#EDFDFC"/>
<path d="M23.2575 92.1729C23.2575 92.1729 23.0732 93.7312 21.6394 93.8386C23.0732 93.9467 23.2575 95.505 23.2575 95.505C23.2575 95.505 23.4417 93.9467 24.8747 93.8386C23.4417 93.7312 23.2575 92.1729 23.2575 92.1729Z" fill="#EDFDFC"/>
<path d="M135.416 56.5439C135.416 56.5439 135.293 57.6226 134.337 57.697C135.293 57.7714 135.416 58.8509 135.416 58.8509C135.416 58.8509 135.538 57.7714 136.494 57.697C135.538 57.6256 135.416 56.5439 135.416 56.5439Z" fill="#EDFDFC"/>
<path d="M79.3233 26.5921C79.3233 26.5921 77.422 27.793 76.0782 26.4923C77.1806 27.9841 75.5936 29.544 75.5936 29.544C75.5936 29.544 77.4949 28.343 78.8381 29.6442C77.7363 28.1519 79.3233 26.5921 79.3233 26.5921Z" fill="#EDFDFC"/>
<path d="M60.9897 20.9529C60.9897 20.9529 59.0884 22.1539 57.7446 20.8531C58.847 22.345 57.26 23.9048 57.26 23.9048C57.26 23.9048 59.1612 22.7039 60.5045 24.0051C59.4027 22.5128 60.9897 20.9529 60.9897 20.9529Z" fill="#EDFDFC"/>
<path d="M20.2785 76.0623C20.2785 76.0623 18.3772 77.2633 17.0334 75.9625C18.1358 77.4543 16.5488 79.0142 16.5488 79.0142C16.5488 79.0142 18.4501 77.8132 19.7933 79.1144C18.6915 77.6222 20.2785 76.0623 20.2785 76.0623Z" fill="#EDFDFC"/>
<path d="M149.57 86.2773C149.57 86.2773 149.401 87.7159 148.087 87.8153C149.401 87.9147 149.57 89.3532 149.57 89.3532C149.57 89.3532 149.738 87.9147 151.053 87.8153C149.738 87.7159 149.57 86.2773 149.57 86.2773Z" fill="#EDFDFC"/>
<path d="M134.337 69.6162C134.337 69.6162 134.245 70.2157 133.528 70.257C134.245 70.2983 134.337 70.8978 134.337 70.8978C134.337 70.8978 134.429 70.2983 135.146 70.257C134.429 70.2157 134.337 69.6162 134.337 69.6162Z" fill="#EDFDFC"/>
<path d="M130.427 31.937C130.427 31.937 130.258 33.3752 128.945 33.4753C130.258 33.5747 130.427 35.0129 130.427 35.0129C130.427 35.0129 130.597 33.5747 131.91 33.4753C130.597 33.3752 130.427 31.937 130.427 31.937Z" fill="#EDFDFC"/>
<path d="M39.7034 29.3735C39.7034 29.3735 39.6111 29.9731 38.8945 30.0146C39.6111 30.0561 39.7034 30.6551 39.7034 30.6551C39.7034 30.6551 39.7956 30.0561 40.5122 30.0146C39.7956 29.9731 39.7034 29.3735 39.7034 29.3735Z" fill="white"/>
<path d="M126.518 90.3784C126.518 90.3784 126.455 91.0979 125.979 91.147C126.457 91.1969 126.518 91.9164 126.518 91.9164C126.518 91.9164 126.582 91.1969 127.057 91.147C126.582 91.0964 126.518 90.3784 126.518 90.3784Z" fill="#EDFDFC"/>
<path d="M128.001 46.0347C128.001 46.0347 127.921 46.7534 127.327 46.8032C127.924 46.8531 128.001 47.5726 128.001 47.5726C128.001 47.5726 128.08 46.8531 128.675 46.8032C128.078 46.7534 128.001 46.0347 128.001 46.0347Z" fill="white"/>
<path d="M34.7159 36.8071C34.7159 36.8071 34.5775 38.2455 33.5023 38.3451C34.5775 38.4446 34.7159 39.883 34.7159 39.883C34.7159 39.883 34.8537 38.4446 35.9288 38.3451C34.8537 38.2455 34.7159 36.8071 34.7159 36.8071Z" fill="#EDFDFC"/>
<path d="M89.3088 120.331C88.482 120.082 87.7391 119.63 87.1552 119.02C86.5713 118.411 86.1672 117.666 85.9836 116.86L83.3582 105.487L62.6196 106.516L60.2748 118.444C59.9462 120.115 61.4081 121.762 63.0666 122.349L71.805 125.441C73.4284 126.015 75.1693 126.227 76.8927 126.06L95.2139 124.277C95.4751 124.25 95.7186 124.139 95.9031 123.961C96.0877 123.784 96.2019 123.551 96.2265 123.302C96.2796 122.787 96.6454 122.204 96.1311 122.051L89.3088 120.331Z" fill="#97A6B7"/>
<path d="M89.5023 119.634C88.6798 119.392 87.9393 118.947 87.3559 118.346C86.7725 117.744 86.367 117.006 86.1806 116.207L83.5599 104.978L63.3265 105.991L60.9818 117.768C60.8228 118.567 60.9672 119.394 61.3894 120.101C61.8116 120.808 62.4842 121.35 63.2874 121.63L72.0161 124.681C73.6395 125.248 75.3776 125.457 77.0986 125.292L95.402 123.528C95.6615 123.503 95.904 123.394 96.0883 123.219C96.2726 123.043 96.3875 122.813 96.4134 122.566C96.4394 122.319 96.3748 122.072 96.2306 121.865C96.0865 121.658 95.8716 121.505 95.6224 121.432L89.5023 119.634Z" fill="url(#paint0_linear_51_1082)"/>
<path d="M122.251 96.9366L121.355 45.7704C121.337 44.7211 120.412 43.8423 119.296 43.8174L26.7488 41.7464C25.3419 41.7148 24.2016 42.6575 24.2223 43.8408L25.2122 100.388L122.251 96.9366Z" fill="url(#paint1_linear_51_1082)"/>
<path d="M27.2177 51.665L27.991 95.8359C28.0102 96.9386 29.0977 97.7948 30.4041 97.7387L118.139 93.978C119.186 93.9331 120.027 93.0922 120.009 92.1086L119.32 52.7132L27.2177 51.665Z" fill="#FEEC8C"/>
<path d="M119.32 52.7133L119.242 48.1923C119.225 47.2292 118.374 46.4247 117.347 46.4043L29.4276 44.6783C28.1466 44.653 27.111 45.5162 27.1298 46.5959L27.2177 51.6651L119.32 52.7133Z" fill="#F47A20"/>
<path d="M33.5813 48.1253C33.5879 48.5049 33.2296 48.8073 32.7794 48.8009C32.3292 48.7946 31.9587 48.4808 31.9509 48.1001C31.9431 47.7194 32.3026 47.417 32.7552 47.4245C33.2077 47.4319 33.5747 47.745 33.5813 48.1253Z" fill="#BC601C"/>
<path d="M37.0898 48.1785C37.0964 48.5559 36.742 48.8567 36.2972 48.8504C35.8525 48.8441 35.4852 48.5321 35.4766 48.1536C35.468 47.7751 35.8283 47.4746 36.2714 47.4821C36.7146 47.4895 37.0831 47.8011 37.0898 48.1785Z" fill="#BC601C"/>
<path d="M40.5577 48.232C40.5643 48.6071 40.2138 48.9061 39.7761 48.9006C39.3384 48.895 38.9734 48.5845 38.9668 48.2082C38.9601 47.832 39.3122 47.533 39.7522 47.5397C40.1923 47.5463 40.551 47.8569 40.5577 48.232Z" fill="#BC601C"/>
<path d="M25.2102 100.388L25.4079 111.679C25.4287 112.863 26.5995 113.767 28.0059 113.687L120.427 108.509C121.541 108.446 122.435 107.537 122.417 106.488L122.244 96.6079L25.2102 100.388Z" fill="white"/>
<path d="M41.2802 38.1108C44.902 43.655 48.1436 49.6387 44.936 66.2514C41.7949 82.5223 41.9496 90.3568 44.9286 97.1167L110.954 94.2868C109.005 90.8296 108.668 88.5724 108.404 84.8255C107.43 71.0086 116.123 57.4776 110.921 43.0329C108.66 36.7558 104.682 32.9822 101.805 30.8238L33.5461 30.3989C36.6578 32.4333 39.2914 35.0593 41.2802 38.1108Z" fill="url(#paint2_linear_51_1082)"/>
<path d="M103.587 83.2679C103.589 83.4064 103.593 83.5453 103.596 83.6843C103.6 83.815 103.469 83.9238 103.299 83.929L48.2249 85.5473C48.0385 85.5529 47.8869 85.4329 47.9009 85.2896C47.915 85.1462 47.9283 85.0106 47.94 84.8695C47.9521 84.748 48.0799 84.6518 48.2374 84.6466L103.26 83.0294C103.438 83.025 103.584 83.1323 103.587 83.2679Z" fill="#D8DEE8"/>
<path d="M103.757 78.8488C103.744 78.9882 103.732 79.1276 103.72 79.267C103.71 79.39 103.582 79.4866 103.422 79.4899L48.4852 80.9667C48.3007 80.9719 48.1506 80.8553 48.162 80.7119C48.1733 80.5685 48.1846 80.433 48.196 80.2922C48.2057 80.1692 48.3347 80.0715 48.4945 80.0671L103.434 78.5899C103.619 78.5862 103.77 78.7062 103.757 78.8488Z" fill="#D8DEE8"/>
<path d="M103.968 87.6716C103.99 87.8098 104.013 87.9479 104.036 88.0858C104.06 88.2251 103.925 88.3499 103.742 88.3558L48.8314 90.1193C48.6442 90.1253 48.4918 90.0034 48.5066 89.8593C48.5215 89.7152 48.5351 89.5808 48.55 89.4393C48.5621 89.3185 48.6895 89.2238 48.8462 89.2186L103.645 87.4592C103.808 87.454 103.948 87.5468 103.968 87.6716Z" fill="#D8DEE8"/>
<path d="M104.34 74.4222C104.317 74.5621 104.294 74.7023 104.271 74.8427C104.252 74.9593 104.127 75.0481 103.974 75.0518L48.8134 76.3949C48.6313 76.3993 48.4824 76.2834 48.4914 76.143C48.5003 76.0026 48.5085 75.8645 48.5168 75.7241C48.5246 75.5993 48.6547 75.5012 48.8169 75.4956L104.022 74.1511C104.214 74.1448 104.365 74.2737 104.34 74.4222Z" fill="#D8DEE8"/>
<path d="M104.999 92.0546C105.043 92.1925 105.087 92.3297 105.133 92.4661C105.183 92.6147 105.045 92.7584 104.848 92.7633L49.8119 94.6883C49.6286 94.6946 49.477 94.5769 49.4852 94.4373C49.4934 94.2976 49.502 94.1579 49.5118 94.0153C49.52 93.8924 49.6481 93.7925 49.8076 93.7884L104.682 91.8692C104.831 91.8659 104.964 91.9432 104.999 92.0546Z" fill="#D8DEE8"/>
<path d="M105.19 69.9925L105.102 70.4134C105.079 70.5248 104.954 70.6113 104.805 70.6147L49.6681 71.8174C49.4879 71.8214 49.3406 71.7078 49.3469 71.5689C49.3531 71.43 49.3586 71.2907 49.3645 71.1503C49.3699 71.0236 49.5016 70.9219 49.6658 70.9181L104.873 69.714C105.069 69.7095 105.221 69.8436 105.19 69.9925Z" fill="#D8DEE8"/>
<path d="M105.886 43.4038C106.025 43.4038 106.149 43.4733 106.188 43.5758C106.242 43.7157 106.294 43.8563 106.344 43.9977V44.0007C106.399 44.1522 106.25 44.3012 106.046 44.3019L49.3038 44.5311C49.1553 44.5311 49.0267 44.4505 48.9966 44.3383C48.9591 44.1987 48.9208 44.0601 48.8817 43.9227C48.8395 43.7741 48.9845 43.6337 49.1826 43.633L105.886 43.4038Z" fill="#D8DEE8"/>
<path d="M107.409 47.9601C107.435 48.1005 107.46 48.2409 107.482 48.3813C107.505 48.5236 107.362 48.6487 107.176 48.6502L50.2292 49.0632C50.0694 49.0632 49.9342 48.9711 49.9166 48.8486C49.8957 48.7087 49.8746 48.5699 49.8533 48.4322C49.831 48.2903 49.9728 48.1663 50.1581 48.1651L107.095 47.754C107.251 47.751 107.388 47.8401 107.409 47.9601Z" fill="#D8DEE8"/>
<path d="M103.786 39.7168L47.6512 39.9374C47.5191 39.9374 47.401 39.8732 47.3565 39.777C46.8263 38.6371 46.2126 37.534 45.5198 36.4758C45.1725 35.9441 44.8087 35.4251 44.4283 34.9188C44.308 34.7579 44.4561 34.5574 44.6968 34.5581L99.9049 34.7067C99.9925 34.7054 100.077 34.7355 100.143 34.791C101.658 36.1456 102.977 37.6862 104.064 39.3721C104.166 39.5304 104.015 39.7161 103.786 39.7168Z" fill="#D8DEE8"/>
<path d="M106.142 65.5678C106.112 65.7082 106.082 65.8485 106.052 65.9886C106.028 66.1001 105.902 66.1862 105.753 66.1888L50.4395 67.2478C50.2617 67.2511 50.1156 67.1386 50.1191 67.0011C50.1226 66.8637 50.1265 66.7215 50.1296 66.5826C50.1328 66.4544 50.266 66.3515 50.4321 66.3486L105.825 65.2881C106.021 65.2852 106.174 65.4192 106.142 65.5678Z" fill="#D8DEE8"/>
<path d="M107.022 61.1522C106.996 61.2921 106.971 61.4321 106.947 61.5723C106.925 61.6889 106.797 61.7762 106.645 61.7788L50.9741 62.6873C50.7982 62.6903 50.654 62.58 50.6548 62.4448C50.6556 62.3096 50.6548 62.1651 50.6548 62.0262C50.6548 61.8962 50.7896 61.7911 50.958 61.7885L106.704 60.8785C106.897 60.8755 107.049 61.0055 107.022 61.1522Z" fill="#D8DEE8"/>
<path d="M107.651 56.7452C107.637 56.8856 107.622 57.026 107.607 57.1664C107.593 57.2886 107.462 57.3833 107.302 57.3851L50.9323 58.1399C50.7603 58.1421 50.6196 58.0355 50.6146 57.9029C50.6109 57.763 50.6071 57.6237 50.6032 57.485C50.5993 57.3524 50.7357 57.2436 50.9077 57.2414L107.333 56.4859C107.517 56.4826 107.665 56.6036 107.651 56.7452Z" fill="#D8DEE8"/>
<path d="M107.841 52.3487C107.843 52.4891 107.845 52.6295 107.846 52.7699C107.846 52.901 107.71 53.0083 107.539 53.0098L50.7169 53.5993C50.5493 53.5993 50.4101 53.4994 50.4008 53.3708C50.3903 53.2309 50.3797 53.0919 50.3687 52.9537C50.3582 52.8171 50.4969 52.7027 50.6739 52.7008L107.525 52.1114C107.695 52.1095 107.837 52.2157 107.841 52.3487Z" fill="#D8DEE8"/>
<path d="M76.1408 53.0927C76.1408 59.6475 70.5838 65.3125 63.7075 65.7512C56.8078 66.1894 51.1973 61.1994 51.1973 54.604C51.1973 48.0086 56.8078 42.3385 63.7075 41.941C70.5838 41.5444 76.1408 46.5378 76.1408 53.0927Z" fill="#BC601C"/>
<path d="M77.6168 53.5111C77.6168 60.0659 72.0598 65.7309 65.1835 66.1696C58.2838 66.6082 52.6732 61.6178 52.6732 55.0228C52.6732 48.4278 58.2853 42.7587 65.1835 42.3609C72.0598 41.9646 77.6168 46.958 77.6168 53.5111Z" fill="#F47A20"/>
<path d="M64.7443 60.7082C64.484 60.7276 64.2231 60.679 63.9898 60.5677C63.7564 60.4564 63.5595 60.2867 63.4203 60.0768L58.7187 52.9001C58.2779 52.2275 58.5155 51.3067 59.2486 50.8428C59.9818 50.3789 60.9322 50.549 61.3722 51.2209L64.6329 56.2021L68.9351 47.874C69.3212 47.1267 70.2489 46.7839 71.0063 47.1081C71.7636 47.4324 72.0653 48.3 71.6796 49.047L66.1199 59.8182C65.9961 60.0599 65.8101 60.2678 65.5791 60.4228C65.3481 60.5777 65.0796 60.6746 64.7986 60.7045L64.7443 60.7082Z" fill="white"/>
<path d="M71.1735 66.6545C71.1735 66.6545 70.7084 65.7709 71.1735 64.6666C71.6385 63.5624 71.6381 61.7948 71.8706 61.1322C71.9265 60.9724 71.9152 60.877 71.862 60.8395C71.7526 60.7618 71.2508 61.3966 70.9409 62.0158C70.3915 63.1137 70.5439 63.9494 70.2438 64.004C69.9085 64.0649 69.5325 63.0539 69.3141 63.1204C69.1449 63.1716 69.3141 63.8231 69.3141 64.4456C69.3141 64.8873 70.4763 67.0961 70.4763 67.0961L71.1735 66.6545Z" fill="#F6C8AE"/>
<path d="M96.5083 76.2068C96.5642 75.1248 96.6861 72.7607 95.3101 71.9354C93.493 70.8468 90.8161 73.4954 87.8215 74.213C84.6713 74.9673 79.5876 73.9645 71.3466 65.3872L69.8491 66.8109C70.6999 69.6563 72.8844 75.2548 78.5359 79.3375C79.8568 80.2906 87.8707 86.0826 92.9138 83.0391C95.3859 81.5475 96.3961 78.3837 96.5083 76.2068Z" fill="#24C1F2"/>
<path d="M97.9776 136.743C98.2098 136.922 98.2512 137.37 98.2805 137.663C98.293 137.793 98.2989 137.859 98.2836 137.905C98.1715 138.242 97.4841 138.276 96.4078 138.382C94.7048 138.547 94.1979 138.674 94.0631 138.434C93.938 138.208 94.2405 137.84 94.2745 137.798C94.4574 137.578 94.6821 137.499 95.1163 137.363C95.9201 137.112 96.4629 136.974 96.6275 136.932C97.6537 136.673 97.8252 136.625 97.9776 136.743Z" fill="url(#paint3_linear_51_1082)"/>
<path d="M96.9651 135.264L96.7943 137.109C96.8428 137.198 97.4196 137.465 97.878 137.236L98.316 135.423L96.9651 135.264Z" fill="url(#paint4_linear_51_1082)"/>
<path d="M83.0894 135.927C83.3677 136.219 83.431 136.757 83.1891 137.022C82.9472 137.286 82.5939 137.087 81.5798 137.116C80.4938 137.146 80.2101 137.39 79.4723 137.197C79.1741 137.118 78.6477 136.928 78.6575 136.726C78.6645 136.584 78.931 136.51 79.8299 136.225C81.1011 135.82 81.0952 135.798 81.3653 135.756C82.0413 135.649 82.7221 135.542 83.0894 135.927Z" fill="url(#paint5_linear_51_1082)"/>
<path d="M82.3934 134.244L81.8499 135.967C81.8913 136.059 82.445 136.367 82.9202 136.172L83.7292 134.501L82.3934 134.244Z" fill="url(#paint6_linear_51_1082)"/>
<path d="M87.2333 96.5264C87.1459 103.004 86.6482 109.471 85.7428 115.892C84.8469 122.244 83.5536 128.539 81.8698 134.745L83.9546 135.278C85.7178 133.716 87.9406 131.256 89.0153 127.78C89.6796 125.622 89.4596 124.514 89.8821 121.86C90.555 117.635 91.9177 115.421 93.3261 112.014C94.5918 108.952 96.0877 104.459 96.89 98.4526L87.2333 96.5264Z" fill="url(#paint7_linear_51_1082)"/>
<path style="mix-blend-mode:multiply" opacity="0.3" d="M87.2333 96.5264C89.1313 97.9006 91.4905 100.07 91.4147 102.684C91.3596 104.623 90.0161 104.98 89.0184 107.809C87.7952 111.278 89.2857 112.242 88.4193 116.635C87.7745 119.904 86.9828 119.198 86.023 123.183C85.1684 126.731 85.5482 128.32 84.2254 131.155C83.6183 132.45 82.825 133.659 81.8682 134.746L83.953 135.279C85.7162 133.717 87.939 131.257 89.0137 127.781C89.678 125.623 89.458 124.515 89.8805 121.861C90.5534 117.636 91.9161 115.422 93.3245 112.015C94.5902 108.953 96.0862 104.46 96.8885 98.4537L87.2333 96.5264Z" fill="url(#paint8_linear_51_1082)"/>
<path d="M94.8896 96.5529C95.3148 103.914 95.6612 111.41 95.9288 119.043C96.1273 124.768 96.2743 130.421 96.37 136.001L98.4998 136.251C99.4749 134.53 100.221 132.7 100.721 130.804C101.48 127.915 101.304 126.199 101.637 123.206C102.01 119.848 102.551 119.116 103.512 114.88C105.461 106.283 106.435 101.984 104.262 99.31C103.556 98.4405 101.345 96.2621 94.8896 96.5529Z" fill="url(#paint9_linear_51_1082)"/>
<path d="M91.9282 76.3621C91.1314 75.8711 91.8575 74.4429 91.9005 71.3746C91.9532 67.6147 90.9024 66.9142 91.7442 65.4393C92.7762 63.6352 95.3738 62.8891 97.0945 62.8538C97.4743 62.846 97.5634 62.6491 100.743 63.4317C106.471 64.8431 107.906 63.3303 110.471 64.8401C112.95 66.2991 111.864 67.897 114.272 69.6077C118.173 72.3812 122.276 69.3849 125.064 71.703C127.701 73.897 127.76 79.4876 124.988 82.5385C121.843 85.9968 116.172 84.958 112.371 84.2719C111.572 84.1278 107.532 83.3215 103.327 80.372C101.451 79.0545 99.7874 77.4851 98.3868 75.7128C98.148 75.4577 97.776 75.1486 97.2848 75.0989C96.6947 75.0391 96.221 75.3819 95.9924 75.532C94.7954 76.3205 92.711 76.8446 91.9282 76.3621Z" fill="#3C3226"/>
<path d="M94.824 72.2988C94.824 72.2988 101.479 70.4543 104.409 73.6077C104.866 74.0984 105.328 74.8215 105.682 76.4176C106.926 82.0164 103.616 84.0109 104.068 89.0913C104.12 89.6733 104.698 95.2595 108.966 98.6933C110.996 100.328 113.309 101.028 113.252 102.476C113.211 103.516 111.962 104.467 110.803 104.804C108.588 105.446 107.295 103.672 104.374 103.058C101.321 102.416 100.614 103.909 95.8021 104.513C94.1999 104.714 86.8922 105.632 85.0875 102.767C84.32 101.548 85.2661 100.782 86.6182 95.7843C86.755 95.2788 89.0951 86.495 88.387 82.6671C88.3256 82.3355 88.1189 80.9902 88.1798 79.2058C88.1998 78.6933 88.2691 78.1835 88.387 77.683C88.387 77.683 88.9524 75.1893 90.9931 73.0484C91.2846 72.7401 91.634 72.4199 94.824 72.2988Z" fill="#24C1F2"/>
<g style="mix-blend-mode:multiply" opacity="0.3">
<path style="mix-blend-mode:multiply" opacity="0.3" d="M104.408 73.6079C105.079 73.6005 105.602 76.0619 105.681 76.4177C106.925 82.0166 103.615 84.0111 104.067 89.0915C104.118 89.6735 104.696 95.2597 108.965 98.6931C110.995 100.327 113.308 101.028 113.251 102.476C113.21 103.516 111.961 104.468 110.802 104.804C108.587 105.446 107.294 103.672 104.373 103.058C101.32 102.417 100.612 103.909 95.8009 104.513C94.1987 104.714 86.891 105.632 85.0863 102.767C84.8999 102.47 84.8295 102.342 84.8479 102.216C85.0492 100.824 91.8168 102.09 93.5128 99.5526C95.1698 97.0741 90.8766 92.6256 92.3147 91.2966C93.4378 90.2566 96.3007 92.7452 98.6064 91.5811C100.052 90.8513 100.287 89.1836 101.003 85.6012C102.255 79.3141 103.39 73.6187 104.408 73.6079Z" fill="url(#paint10_linear_51_1082)"/>
</g>
<path d="M96.9592 68.1963C96.8693 68.5963 96.4121 70.7439 97.3348 71.2962C97.5352 71.4162 97.921 71.4845 98.6904 71.6219C99.1945 71.7118 99.6174 71.7668 99.9159 71.8006C99.8729 72.1609 99.7452 72.747 99.3079 73.28C98.0823 74.7746 95.6247 74.3879 95.2741 74.327C94.0381 74.1131 92.8215 73.7502 92.5281 73.5284C92.0806 73.1904 91.7289 72.9371 91.521 72.6797C91.9993 72.4599 92.965 71.8804 93.6133 71.6906C94.0573 71.5609 94.5089 71.4557 94.9658 71.3757L95.1698 70.131L96.9592 68.1963Z" fill="#F6C8AE"/>
<path d="M97.0026 69.2664C97.0026 69.2664 96.8353 70.8401 95.2261 71.1176C93.7849 71.3657 92.7 68.0559 93.4374 67.1998C93.6836 66.9142 94.2909 66.6427 94.8173 66.6568C95.1878 66.6672 96.4383 67.1196 96.6149 68.3092C96.8643 68.0596 97.1745 67.988 97.3273 68.0923C97.5227 68.2249 97.4176 68.6101 97.3942 68.6974C97.3294 68.9213 97.1925 69.1203 97.0026 69.2664Z" fill="#F7C8AE"/>
<path d="M94.4399 94.8108L89.9525 84.2479C89.8806 84.0789 89.8462 83.8977 89.8515 83.7155C89.8567 83.5333 89.9015 83.3541 89.983 83.1891C90.0644 83.0241 90.1809 82.8769 90.325 82.7567C90.4691 82.6364 90.6377 82.5458 90.8204 82.4903L99.7018 79.7938C99.9505 79.74 100.211 79.7728 100.437 79.8862C100.662 79.9996 100.837 80.1861 100.93 80.4118L105.519 91.5475C105.573 91.6786 105.598 91.8189 105.592 91.9595C105.586 92.1001 105.549 92.2379 105.483 92.3642C105.418 92.4904 105.325 92.6024 105.212 92.6928C105.098 92.7832 104.966 92.8502 104.824 92.8895L95.7228 95.3995C95.4702 95.4692 95.1995 95.4476 94.9626 95.3389C94.7258 95.2302 94.5396 95.0421 94.4399 94.8108Z" fill="#AF9372"/>
<path d="M95.0103 88.7338C95.0103 88.7338 94.1115 88.1644 94.1115 87.5951C94.1115 87.0257 93.5124 86.1714 93.2127 86.1714C92.913 86.1714 92.9134 86.4563 93.2127 87.0257C93.5121 87.5951 92.0146 87.3102 91.4151 86.7408C90.8156 86.1714 90.2169 86.1714 90.5163 86.4563C90.9899 86.9064 91.1153 87.3105 91.1153 87.3105C91.1153 87.3105 91.7144 89.5885 94.3355 89.4459L95.0103 88.7338Z" fill="#F6C8AE"/>
<path d="M101.301 72.5058C103.216 71.6931 106.423 75.043 106.992 75.6376C110.012 78.7925 114.296 85.9443 110.886 90.1573C108.042 93.6718 100.404 94.4462 94.1119 89.8725L95.0107 88.1639C95.6645 88.389 99.9605 89.8026 103.1 87.5945C103.764 87.1261 104.789 86.4059 104.898 85.3169C105.099 83.2878 101.855 82.6631 100.404 79.623C99.1183 76.9324 99.6486 73.2063 101.301 72.5058Z" fill="#24C1F2"/>
<defs>
<linearGradient id="paint0_linear_51_1082" x1="78.1695" y1="109.628" x2="78.6316" y2="120.867" gradientUnits="userSpaceOnUse">
<stop offset="0.49" stop-color="#EBEFF2"/>
<stop offset="1" stop-color="white"/>
</linearGradient>
<linearGradient id="paint1_linear_51_1082" x1="80.4987" y1="95.6107" x2="47.0017" y2="-20.761" gradientUnits="userSpaceOnUse">
<stop stop-color="#444B8C"/>
<stop offset="1" stop-color="#26264F"/>
</linearGradient>
<linearGradient id="paint2_linear_51_1082" x1="63.9017" y1="0.140084" x2="72.9394" y2="50.6135" gradientUnits="userSpaceOnUse">
<stop stop-color="#EBEFF2"/>
<stop offset="1" stop-color="white"/>
</linearGradient>
<linearGradient id="paint3_linear_51_1082" x1="-4423.21" y1="6214.07" x2="-3960.69" y2="6228.67" gradientUnits="userSpaceOnUse">
<stop stop-color="#444B8C"/>
<stop offset="1" stop-color="#26264F"/>
</linearGradient>
<linearGradient id="paint4_linear_51_1082" x1="-1576.59" y1="7164.05" x2="-1441.15" y2="7002.88" gradientUnits="userSpaceOnUse">
<stop stop-color="#FFC444"/>
<stop offset="1" stop-color="#F36F56"/>
</linearGradient>
<linearGradient id="paint5_linear_51_1082" x1="-4073.33" y1="5316.56" x2="-3558.8" y2="5468.81" gradientUnits="userSpaceOnUse">
<stop stop-color="#444B8C"/>
<stop offset="1" stop-color="#26264F"/>
</linearGradient>
<linearGradient id="paint6_linear_51_1082" x1="-2707.6" y1="6998.49" x2="-2569.84" y2="6824.06" gradientUnits="userSpaceOnUse">
<stop stop-color="#FFC444"/>
<stop offset="1" stop-color="#F36F56"/>
</linearGradient>
<linearGradient id="paint7_linear_51_1082" x1="-55398.2" y1="116152" x2="-39457.3" y2="102223" gradientUnits="userSpaceOnUse">
<stop stop-color="#444B8C"/>
<stop offset="1" stop-color="#26264F"/>
</linearGradient>
<linearGradient id="paint8_linear_51_1082" x1="-55398.2" y1="116155" x2="-39457" y2="102227" gradientUnits="userSpaceOnUse">
<stop stop-color="#444B8C"/>
<stop offset="1" stop-color="#26264F"/>
</linearGradient>
<linearGradient id="paint9_linear_51_1082" x1="-48549.8" y1="127494" x2="-32967.6" y2="120581" gradientUnits="userSpaceOnUse">
<stop stop-color="#444B8C"/>
<stop offset="1" stop-color="#26264F"/>
</linearGradient>
<linearGradient id="paint10_linear_51_1082" x1="104.212" y1="111.44" x2="91.2088" y2="75.506" gradientUnits="userSpaceOnUse">
<stop stop-color="#AA80F9"/>
<stop offset="1" stop-color="#6165D7"/>
</linearGradient>
</defs>
</svg>
