<svg width="164" height="140" viewBox="0 0 164 140" fill="none" xmlns="http://www.w3.org/2000/svg">
<path opacity="0.6" d="M77.6294 119.407C77.6294 119.407 10.5043 115.943 2.43216 92.9086C-5.63994 69.874 12.2436 66.7447 18.3532 53.8404C24.4628 40.9361 -3.2461 33.3311 15.2984 15.7781C33.8429 -1.77502 61.1912 -2.08149 72.7151 6.18605C84.2391 14.4536 97.5248 1.13367 118.917 8.63544C140.309 16.1372 145.545 31.2996 138.782 43.1362C132.019 54.9728 159.752 66.2989 163.229 79.7227C166.707 93.1466 135.317 125.325 77.6294 119.407Z" fill="#6D6BE6"/>
<path d="M22.7537 28.8728C22.7008 28.6851 22.5728 28.5178 22.3904 28.398C22.2081 28.2782 21.9822 28.2129 21.7494 28.2129C21.6615 28.213 21.5739 28.2223 21.4888 28.2406C21.3339 27.9649 21.0634 27.7452 20.7275 27.6224C20.3915 27.4995 20.0131 27.4819 19.6627 27.5728C19.4803 27.3226 19.2161 27.1202 18.9006 26.989C18.5852 26.8578 18.2313 26.8032 17.8799 26.8315C17.5285 26.8598 17.194 26.9698 16.915 27.1489C16.636 27.3279 16.4238 27.5687 16.3031 27.8434C16.1078 27.7534 15.8874 27.7072 15.6639 27.7093C15.4403 27.7115 15.2213 27.762 15.0286 27.8558C14.8359 27.9497 14.6761 28.0835 14.5651 28.2442C14.4541 28.4049 14.3957 28.5868 14.3958 28.7719C14.3958 28.8062 14.3957 28.8378 14.4021 28.8748L22.7537 28.8728Z" fill="#EDFDFC"/>
<path d="M90.1564 16.8275C90.0704 16.494 89.9107 16.1793 89.6865 15.9021C89.4623 15.6248 89.1783 15.3906 88.8512 15.2133C88.5242 15.0359 88.1607 14.9191 87.7823 14.8697C87.4039 14.8203 87.0183 14.8393 86.6482 14.9256C86.2168 14.1002 85.466 13.4427 84.5347 13.0745C83.6035 12.7063 82.5548 12.6524 81.5826 12.9228C81.0768 12.1718 80.3439 11.5642 79.4685 11.1705C78.5931 10.7767 77.6111 10.6127 76.6359 10.6976C75.6608 10.7824 74.7324 11.1126 73.9582 11.6499C73.184 12.1873 72.5955 12.9098 72.2608 13.7339C71.7191 13.4632 71.1076 13.3241 70.4872 13.3304C69.8668 13.3366 69.259 13.4879 68.7241 13.7694C68.1893 14.0509 67.746 14.4526 67.4382 14.9349C67.1305 15.4171 66.969 15.9629 66.9699 16.5182C66.9699 16.6229 66.9758 16.726 66.9868 16.8275H90.1564Z" fill="#EDFDFC"/>
<path d="M129.789 30.9216C129.707 30.5745 129.555 30.2469 129.341 29.9583C129.127 29.6696 128.856 29.4258 128.544 29.2412C128.233 29.0566 127.886 28.9349 127.525 28.8834C127.165 28.8319 126.797 28.8515 126.444 28.9412C126.033 28.0816 125.317 27.3967 124.429 27.0134C123.541 26.63 122.541 26.5741 121.614 26.8561C121.132 26.074 120.432 25.4415 119.598 25.0317C118.763 24.6218 117.826 24.4515 116.896 24.5403C115.966 24.6291 115.081 24.9734 114.343 25.5335C113.605 26.0935 113.045 26.8463 112.726 27.7048C112.21 27.4237 111.627 27.2795 111.036 27.2863C110.444 27.2931 109.865 27.4507 109.355 27.7436C108.846 28.0366 108.423 28.4545 108.129 28.9562C107.836 29.4579 107.681 30.0258 107.681 30.6038C107.681 30.7123 107.687 30.8198 107.698 30.9254L129.789 30.9216Z" fill="#EDFDFC"/>
<path d="M10.3516 54.5071C10.4128 54.271 10.5262 54.0482 10.6853 53.8519C10.8444 53.6556 11.0459 53.4898 11.2779 53.3642C11.5099 53.2386 11.7676 53.1559 12.036 53.1208C12.3043 53.0857 12.5778 53.099 12.8403 53.16C13.1464 52.5755 13.679 52.1097 14.3395 51.8489C14.9999 51.5881 15.7437 51.5497 16.4334 51.741C16.7922 51.209 17.3121 50.7788 17.9331 50.4999C18.554 50.221 19.2506 50.105 19.9422 50.1651C20.6338 50.2253 21.2923 50.4592 21.8415 50.8398C22.3906 51.2204 22.808 51.7321 23.0454 52.3159C23.4298 52.1248 23.8633 52.0268 24.303 52.0315C24.7428 52.0363 25.1736 52.1436 25.5527 52.3428C25.9318 52.5421 26.2461 52.8264 26.4645 53.1676C26.6829 53.5088 26.7978 53.8951 26.7978 54.2882C26.798 54.3613 26.794 54.4344 26.7857 54.5071H10.3516Z" fill="#EDFDFC"/>
<path d="M143.809 92.9556C143.809 92.9556 143.533 95.1131 141.382 95.2621C143.533 95.4118 143.809 97.5694 143.809 97.5694C143.809 97.5694 144.086 95.4118 146.235 95.2621C144.084 95.1131 143.809 92.9556 143.809 92.9556Z" fill="#EDFDFC"/>
<path d="M30.5728 15.0333C30.5728 15.0333 30.3885 16.5917 28.9547 16.6991C30.3885 16.8072 30.5728 18.3655 30.5728 18.3655C30.5728 18.3655 30.757 16.8072 32.19 16.6991C30.757 16.5917 30.5728 15.0333 30.5728 15.0333Z" fill="#EDFDFC"/>
<path d="M22.754 92.9556C22.754 92.9556 22.5698 94.5139 21.136 94.6213C22.5698 94.7294 22.754 96.2878 22.754 96.2878C22.754 96.2878 22.9383 94.7294 24.3713 94.6213C22.9383 94.5139 22.754 92.9556 22.754 92.9556Z" fill="#EDFDFC"/>
<path d="M134.912 57.3265C134.912 57.3265 134.789 58.4052 133.833 58.4796C134.789 58.554 134.912 59.6334 134.912 59.6334C134.912 59.6334 135.035 58.554 135.99 58.4796C135.035 58.4082 134.912 57.3265 134.912 57.3265Z" fill="#EDFDFC"/>
<path d="M78.8199 27.3749C78.8199 27.3749 76.9186 28.5759 75.5748 27.2751C76.6772 28.767 75.0902 30.3268 75.0902 30.3268C75.0902 30.3268 76.9914 29.1259 78.3347 30.4271C77.2329 28.9348 78.8199 27.3749 78.8199 27.3749Z" fill="#EDFDFC"/>
<path d="M60.4863 21.7358C60.4863 21.7358 58.585 22.9367 57.2412 21.636C58.3436 23.1278 56.7565 24.6876 56.7565 24.6876C56.7565 24.6876 58.6578 23.4867 60.0011 24.7879C58.8992 23.2956 60.4863 21.7358 60.4863 21.7358Z" fill="#EDFDFC"/>
<path d="M19.7751 76.8451C19.7751 76.8451 17.8738 78.0461 16.53 76.7453C17.6324 78.2372 16.0454 79.797 16.0454 79.797C16.0454 79.797 17.9466 78.5961 19.2899 79.8973C18.1881 78.405 19.7751 76.8451 19.7751 76.8451Z" fill="#EDFDFC"/>
<path d="M149.067 87.0601C149.067 87.0601 148.898 88.4986 147.583 88.598C148.898 88.6974 149.067 90.1359 149.067 90.1359C149.067 90.1359 149.235 88.6974 150.549 88.598C149.235 88.4986 149.067 87.0601 149.067 87.0601Z" fill="#EDFDFC"/>
<path d="M133.834 70.399C133.834 70.399 133.741 70.9985 133.025 71.0398C133.741 71.0812 133.834 71.6807 133.834 71.6807C133.834 71.6807 133.925 71.0812 134.642 71.0398C133.925 70.9985 133.834 70.399 133.834 70.399Z" fill="#EDFDFC"/>
<path d="M129.924 32.7196C129.924 32.7196 129.755 34.1578 128.441 34.2579C129.755 34.3573 129.924 35.7955 129.924 35.7955C129.924 35.7955 130.093 34.3573 131.407 34.2579C130.093 34.1578 129.924 32.7196 129.924 32.7196Z" fill="#EDFDFC"/>
<path d="M39.1999 30.1564C39.1999 30.1564 39.1077 30.756 38.3911 30.7974C39.1077 30.8389 39.1999 31.438 39.1999 31.438C39.1999 31.438 39.2922 30.8389 40.0088 30.7974C39.2922 30.756 39.1999 30.1564 39.1999 30.1564Z" fill="white"/>
<path d="M126.015 91.1613C126.015 91.1613 125.951 91.8807 125.475 91.9298C125.953 91.9797 126.015 92.6992 126.015 92.6992C126.015 92.6992 126.079 91.9797 126.554 91.9298C126.079 91.8792 126.015 91.1613 126.015 91.1613Z" fill="#EDFDFC"/>
<path d="M127.497 46.8174C127.497 46.8174 127.418 47.5361 126.823 47.586C127.421 47.6358 127.497 48.3553 127.497 48.3553C127.497 48.3553 127.577 47.6358 128.172 47.586C127.574 47.5361 127.497 46.8174 127.497 46.8174Z" fill="white"/>
<path d="M34.2125 37.5897C34.2125 37.5897 34.074 39.0281 32.9989 39.1277C34.074 39.2272 34.2125 40.6656 34.2125 40.6656C34.2125 40.6656 34.3503 39.2272 35.4254 39.1277C34.3503 39.0281 34.2125 37.5897 34.2125 37.5897Z" fill="#EDFDFC"/>
<path d="M88.8053 121.113C87.9786 120.864 87.2357 120.412 86.6518 119.803C86.0679 119.193 85.6637 118.448 85.4801 117.642L82.8548 106.27L62.1161 107.298L59.7714 119.227C59.4428 120.898 60.9047 122.544 62.5632 123.132L71.3016 126.223C72.925 126.798 74.6658 127.01 76.3892 126.842L94.7105 125.059C94.9717 125.033 95.2152 124.921 95.3997 124.744C95.5842 124.566 95.6985 124.333 95.7231 124.085C95.7762 123.57 96.142 122.986 95.6277 122.833L88.8053 121.113Z" fill="#97A6B7"/>
<path d="M88.9988 120.416C88.1764 120.174 87.4358 119.73 86.8525 119.128C86.2691 118.527 85.8636 117.789 85.6771 116.99L83.0565 105.761L62.8231 106.773L60.4784 118.55C60.3194 119.349 60.4638 120.176 60.886 120.883C61.3082 121.591 61.9808 122.133 62.784 122.413L71.5126 125.464C73.1361 126.031 74.8742 126.24 76.5952 126.074L94.8986 124.311C95.1581 124.286 95.4006 124.177 95.5849 124.001C95.7692 123.826 95.8841 123.595 95.91 123.348C95.936 123.102 95.8714 122.854 95.7272 122.648C95.583 122.441 95.3682 122.288 95.119 122.215L88.9988 120.416Z" fill="url(#paint0_linear_107_2574)"/>
<path d="M121.748 97.7192L120.852 46.553C120.834 45.5037 119.908 44.6249 118.792 44.6L26.2453 42.529C24.8385 42.4974 23.6982 43.4401 23.7189 44.6234L24.7088 101.17L121.748 97.7192Z" fill="url(#paint1_linear_107_2574)"/>
<path d="M26.7142 52.448L27.4876 96.6188C27.5067 97.7216 28.5943 98.5777 29.9007 98.5216L117.636 94.761C118.683 94.716 119.523 93.8751 119.506 92.8916L118.817 53.4962L26.7142 52.448Z" fill="#FEEC8C"/>
<path d="M118.817 53.4961L118.739 48.9752C118.722 48.0121 117.87 47.2075 116.844 47.1871L28.9242 45.4611C27.6432 45.4359 26.6076 46.299 26.6263 47.3788L26.7143 52.448L118.817 53.4961Z" fill="#F24973"/>
<path d="M33.0779 48.9082C33.0845 49.2878 32.7262 49.5901 32.276 49.5838C31.8258 49.5775 31.4553 49.2636 31.4475 48.8829C31.4397 48.5022 31.7992 48.1999 32.2518 48.2073C32.7043 48.2147 33.0712 48.5278 33.0779 48.9082Z" fill="#9D3060"/>
<path d="M36.5863 48.9613C36.593 49.3387 36.2385 49.6395 35.7938 49.6332C35.3491 49.6269 34.9818 49.3149 34.9732 48.9364C34.9646 48.558 35.3249 48.2575 35.768 48.2649C36.2112 48.2723 36.5797 48.584 36.5863 48.9613Z" fill="#9D3060"/>
<path d="M40.0542 49.015C40.0609 49.3901 39.7103 49.6891 39.2727 49.6835C38.835 49.6779 38.47 49.3674 38.4633 48.9912C38.4567 48.6149 38.8088 48.3159 39.2488 48.3226C39.6889 48.3293 40.0476 48.6398 40.0542 49.015Z" fill="#9D3060"/>
<path d="M24.7068 101.17L24.9045 112.461C24.9252 113.645 26.096 114.549 27.5025 114.47L119.924 109.291C121.038 109.229 121.932 108.32 121.914 107.27L121.741 97.3905L24.7068 101.17Z" fill="white"/>
<path d="M40.7768 38.8935C44.3986 44.4378 47.6402 50.4214 44.4326 67.0341C41.2915 83.305 41.4462 91.1395 44.4252 97.8994L110.45 95.0695C108.502 91.6123 108.165 89.3552 107.9 85.6082C106.926 71.7913 115.619 58.2603 110.417 43.8156C108.156 37.5386 104.179 33.7649 101.302 31.6065L33.0427 31.1816C36.1544 33.216 38.788 35.842 40.7768 38.8935Z" fill="url(#paint2_linear_107_2574)"/>
<path d="M103.083 84.0506C103.086 84.1891 103.089 84.3281 103.093 84.467C103.097 84.5977 102.965 84.7065 102.796 84.7117L47.7215 86.33C47.5351 86.3356 47.3834 86.2156 47.3975 86.0723C47.4116 85.9289 47.4249 85.7933 47.4366 85.6522C47.4487 85.5307 47.5765 85.4345 47.734 85.4293L102.757 83.8121C102.935 83.8077 103.081 83.915 103.083 84.0506Z" fill="#D8DEE8"/>
<path d="M103.253 79.6313C103.24 79.7707 103.228 79.9101 103.217 80.0495C103.207 80.1725 103.079 80.269 102.919 80.2724L47.9817 81.7492C47.7973 81.7544 47.6472 81.6377 47.6586 81.4944C47.6699 81.351 47.6812 81.2154 47.6926 81.0747C47.7023 80.9517 47.8313 80.854 47.9911 80.8496L102.93 79.3724C103.116 79.3687 103.266 79.4887 103.253 79.6313Z" fill="#D8DEE8"/>
<path d="M103.465 88.4545C103.487 88.5927 103.509 88.7307 103.533 88.8686C103.557 89.0079 103.422 89.1327 103.239 89.1386L48.3279 90.9022C48.1408 90.9081 47.9883 90.7863 48.0032 90.6422C48.018 90.4981 48.0317 90.3636 48.0466 90.2221C48.0587 90.1014 48.1861 90.0067 48.3428 90.0015L103.141 88.242C103.304 88.2368 103.445 88.3297 103.465 88.4545Z" fill="#D8DEE8"/>
<path d="M103.837 75.2051C103.814 75.345 103.79 75.4851 103.768 75.6255C103.749 75.7421 103.623 75.8309 103.471 75.8346L48.3099 77.1777C48.1278 77.1821 47.9789 77.0663 47.9879 76.9259C47.9969 76.7855 48.0051 76.6473 48.0133 76.5069C48.0212 76.3821 48.1513 76.2841 48.3135 76.2785L103.518 74.9339C103.71 74.9276 103.862 75.0565 103.837 75.2051Z" fill="#D8DEE8"/>
<path d="M104.496 92.8373C104.539 92.9752 104.584 93.1124 104.63 93.2488C104.679 93.3974 104.542 93.5411 104.344 93.546L49.3085 95.471C49.1252 95.4774 48.9736 95.3596 48.9818 95.22C48.99 95.0803 48.9986 94.9407 49.0083 94.798C49.0165 94.6751 49.1447 94.5752 49.3042 94.5711L104.179 92.652C104.328 92.6486 104.46 92.7259 104.496 92.8373Z" fill="#D8DEE8"/>
<path d="M104.687 70.775L104.599 71.1958C104.575 71.3073 104.451 71.3938 104.302 71.3972L49.1647 72.5998C48.9845 72.6039 48.8372 72.4903 48.8435 72.3513C48.8497 72.2124 48.8552 72.0731 48.861 71.9327C48.8665 71.8061 48.9982 71.7043 49.1623 71.7006L104.37 70.4964C104.565 70.492 104.718 70.6261 104.687 70.775Z" fill="#D8DEE8"/>
<path d="M105.383 44.1868C105.522 44.1868 105.645 44.2562 105.685 44.3587C105.739 44.4986 105.791 44.6393 105.841 44.7807V44.7836C105.895 44.9352 105.746 45.0841 105.543 45.0849L48.8004 45.314C48.6519 45.314 48.5233 45.2334 48.4932 45.1213C48.4557 44.9816 48.4174 44.8431 48.3783 44.7056C48.3361 44.5571 48.4811 44.4167 48.6792 44.4159L105.383 44.1868Z" fill="#D8DEE8"/>
<path d="M106.906 48.743C106.932 48.8834 106.956 49.0238 106.979 49.1641C107.002 49.3064 106.859 49.4316 106.673 49.4331L49.7258 49.8461C49.5659 49.8461 49.4307 49.754 49.4131 49.6314C49.3923 49.4915 49.3712 49.3527 49.3498 49.215C49.3276 49.0732 49.4694 48.9491 49.6547 48.948L106.591 48.5368C106.748 48.5338 106.884 48.623 106.906 48.743Z" fill="#D8DEE8"/>
<path d="M103.283 40.4996L47.1477 40.7203C47.0156 40.7203 46.8976 40.656 46.8531 40.5598C46.3229 39.4199 45.7092 38.3168 45.0164 37.2586C44.6691 36.727 44.3053 36.208 43.9249 35.7016C43.8045 35.5408 43.9527 35.3402 44.1934 35.3409L99.4015 35.4895C99.4891 35.4882 99.5739 35.5183 99.6391 35.5738C101.155 36.9285 102.473 38.4691 103.56 40.155C103.662 40.3132 103.512 40.4989 103.283 40.4996Z" fill="#D8DEE8"/>
<path d="M105.639 66.3507C105.609 66.4911 105.579 66.6313 105.548 66.7715C105.524 66.8829 105.399 66.9691 105.25 66.9717L49.9361 68.0306C49.7583 68.034 49.6121 67.9214 49.6157 67.784C49.6192 67.6466 49.6231 67.5043 49.6262 67.3654C49.6293 67.2372 49.7626 67.1344 49.9287 67.1314L105.322 66.071C105.518 66.068 105.671 66.2021 105.639 66.3507Z" fill="#D8DEE8"/>
<path d="M106.519 61.9349C106.493 62.0748 106.468 62.2149 106.443 62.355C106.422 62.4716 106.294 62.5589 106.141 62.5615L50.4706 63.47C50.2948 63.473 50.1506 63.3627 50.1514 63.2275C50.1522 63.0923 50.1514 62.9478 50.1514 62.8089C50.1514 62.6789 50.2862 62.5738 50.4546 62.5712L106.2 61.6612C106.394 61.6582 106.545 61.7882 106.519 61.9349Z" fill="#D8DEE8"/>
<path d="M107.147 57.5279C107.133 57.6683 107.119 57.8087 107.103 57.9491C107.09 58.0713 106.958 58.166 106.799 58.1678L50.4289 58.9226C50.2569 58.9248 50.1162 58.8182 50.1111 58.6856C50.1075 58.5457 50.1037 58.4064 50.0998 58.2678C50.0959 58.1352 50.2323 58.0263 50.4042 58.0241L106.83 57.2686C107.014 57.2653 107.162 57.3864 107.147 57.5279Z" fill="#D8DEE8"/>
<path d="M107.337 53.1313C107.34 53.2717 107.342 53.4121 107.343 53.5525C107.343 53.6836 107.206 53.7909 107.036 53.7924L50.2135 54.3819C50.0459 54.3819 49.9067 54.282 49.8974 54.1534C49.8869 54.0135 49.8763 53.8745 49.8653 53.7363C49.8548 53.5996 49.9935 53.4852 50.1705 53.4834L107.021 52.8939C107.192 52.8921 107.334 52.9983 107.337 53.1313Z" fill="#D8DEE8"/>
<path d="M75.6374 53.8756C75.6374 60.4305 70.0804 66.0955 63.2041 66.5341C56.3044 66.9724 50.6938 61.9823 50.6938 55.3869C50.6938 48.7916 56.3044 43.1214 63.2041 42.724C70.0804 42.3273 75.6374 47.3207 75.6374 53.8756Z" fill="#9D3060"/>
<path d="M77.1134 54.2939C77.1134 60.8488 71.5564 66.5137 64.6801 66.9524C57.7803 67.391 52.1698 62.4006 52.1698 55.8056C52.1698 49.2106 57.7819 43.5415 64.6801 43.1438C71.5564 42.7474 77.1134 47.7409 77.1134 54.2939Z" fill="#F24973"/>
<path d="M64.2409 61.4909C63.9806 61.5103 63.7197 61.4617 63.4864 61.3504C63.253 61.2392 63.0561 61.0694 62.9169 60.8595L58.2153 53.6828C57.7745 53.0102 58.0121 52.0894 58.7452 51.6255C59.4783 51.1616 60.4287 51.3317 60.8688 52.0036L64.1295 56.9848L68.4317 48.6567C68.8178 47.9094 69.7455 47.5666 70.5029 47.8908C71.2602 48.2151 71.5619 49.0827 71.1762 49.8297L65.6164 60.601C65.4927 60.8426 65.3067 61.0505 65.0757 61.2055C64.8447 61.3604 64.5762 61.4573 64.2952 61.4872L64.2409 61.4909Z" fill="white"/>
<path d="M70.6701 67.4375C70.6701 67.4375 70.205 66.5538 70.6701 65.4496C71.1351 64.3453 71.1347 62.5777 71.3672 61.9151C71.4231 61.7554 71.4118 61.6599 71.3586 61.6224C71.2492 61.5448 70.7474 62.1796 70.4375 62.7987C69.8881 63.8967 70.0405 64.7324 69.7404 64.787C69.4051 64.8479 69.0291 63.8369 68.8107 63.9033C68.6415 63.9546 68.8107 64.6061 68.8107 65.2286C68.8107 65.6702 69.9729 67.8791 69.9729 67.8791L70.6701 67.4375Z" fill="#F6C8AE"/>
<path d="M96.0049 76.9897C96.0607 75.9078 96.1827 73.5437 94.8067 72.7184C92.9895 71.6297 90.3126 74.2783 87.318 74.9959C84.1679 75.7503 79.0841 74.7475 70.8432 66.1702L69.3457 67.5938C70.1964 70.4393 72.3809 76.0378 78.0325 80.1205C79.3534 81.0735 87.3673 86.8655 92.4104 83.8221C94.8825 82.3304 95.8927 79.1667 96.0049 76.9897Z" fill="#F28724"/>
<path d="M97.4742 137.526C97.7063 137.705 97.7478 138.153 97.7771 138.445C97.7896 138.576 97.7955 138.642 97.7802 138.688C97.6681 139.024 96.9807 139.059 95.9044 139.165C94.2013 139.33 93.6945 139.457 93.5597 139.217C93.4346 138.991 93.7371 138.622 93.7711 138.58C93.954 138.361 94.1787 138.281 94.6129 138.146C95.4167 137.894 95.9595 137.757 96.124 137.715C97.1503 137.456 97.3218 137.408 97.4742 137.526Z" fill="url(#paint3_linear_107_2574)"/>
<path d="M96.4617 136.047L96.2909 137.892C96.3394 137.981 96.9162 138.248 97.3745 138.019L97.8126 136.205L96.4617 136.047Z" fill="url(#paint4_linear_107_2574)"/>
<path d="M82.586 136.71C82.8643 137.002 82.9276 137.54 82.6857 137.804C82.4438 138.069 82.0905 137.869 81.0764 137.898C79.9904 137.929 79.7067 138.173 78.9689 137.979C78.6707 137.901 78.1443 137.711 78.1541 137.509C78.1611 137.367 78.4276 137.293 79.3264 137.008C80.5977 136.603 80.5918 136.581 80.8619 136.539C81.5379 136.432 82.2187 136.325 82.586 136.71Z" fill="url(#paint5_linear_107_2574)"/>
<path d="M81.89 135.026L81.3464 136.75C81.3879 136.842 81.9416 137.15 82.4168 136.955L83.2257 135.284L81.89 135.026Z" fill="url(#paint6_linear_107_2574)"/>
<path d="M86.7299 97.3092C86.6425 103.787 86.1447 110.254 85.2394 116.674C84.3435 123.027 83.0502 129.322 81.3663 135.528L83.4512 136.061C85.2144 134.498 87.4372 132.039 88.5119 128.563C89.1762 126.405 88.9562 125.296 89.3786 122.643C90.0516 118.418 91.4142 116.204 92.8226 112.797C94.0884 109.735 95.5843 105.242 96.3866 99.2354L86.7299 97.3092Z" fill="url(#paint7_linear_107_2574)"/>
<path style="mix-blend-mode:multiply" opacity="0.3" d="M86.7299 97.3092C88.6279 98.6835 90.9871 100.853 90.9113 103.467C90.8562 105.406 89.5127 105.762 88.515 108.592C87.2918 112.061 88.7823 113.025 87.9159 117.418C87.2711 120.687 86.4794 119.981 85.5196 123.966C84.6649 127.513 85.0448 129.103 83.722 131.938C83.1149 133.233 82.3216 134.441 81.3647 135.529L83.4496 136.062C85.2128 134.499 87.4356 132.04 88.5103 128.564C89.1746 126.406 88.9546 125.297 89.3771 122.644C90.05 118.419 91.4127 116.205 92.8211 112.798C94.0868 109.736 95.5828 105.243 96.385 99.2365L86.7299 97.3092Z" fill="url(#paint8_linear_107_2574)"/>
<path d="M94.3862 97.3356C94.8114 104.696 95.1578 112.193 95.4253 119.825C95.6239 125.551 95.7709 131.204 95.8665 136.784L97.9963 137.034C98.9715 135.313 99.7177 133.483 100.218 131.587C100.976 128.698 100.801 126.981 101.133 123.989C101.506 120.631 102.048 119.899 103.009 115.663C104.957 107.065 105.932 102.767 103.759 100.093C103.053 99.2232 100.842 97.0448 94.3862 97.3356Z" fill="url(#paint9_linear_107_2574)"/>
<path d="M91.4248 77.1446C90.628 76.6535 91.3541 75.2254 91.3971 72.1571C91.4498 68.3972 90.399 67.6967 91.2408 66.2217C92.2728 64.4177 94.8704 63.6715 96.591 63.6362C96.9709 63.6284 97.06 63.4316 100.239 64.2142C105.968 65.6256 107.402 64.1128 109.968 65.6226C112.446 67.0816 111.361 68.6794 113.768 70.3902C117.669 73.1636 121.772 70.1674 124.56 72.4854C127.198 74.6794 127.257 80.2701 124.484 83.321C121.34 86.7793 115.669 85.7404 111.868 85.0544C111.068 84.9103 107.029 84.1039 102.823 81.1545C100.948 79.837 99.2839 78.2675 97.8834 76.4953C97.6446 76.2401 97.2726 75.9311 96.7813 75.8813C96.1913 75.8216 95.7176 76.1644 95.489 76.3144C94.292 77.103 92.2076 77.627 91.4248 77.1446Z" fill="#3C3226"/>
<path d="M94.3206 73.0815C94.3206 73.0815 100.975 71.2371 103.906 74.3904C104.362 74.8811 104.825 75.6043 105.179 77.2003C106.423 82.7991 103.113 84.7937 103.565 89.874C103.616 90.456 104.194 96.0422 108.463 99.4761C110.493 101.11 112.806 101.811 112.749 103.259C112.708 104.299 111.459 105.25 110.299 105.586C108.085 106.229 106.792 104.454 103.871 103.841C100.818 103.199 100.11 104.692 95.2987 105.296C93.6965 105.496 86.3888 106.414 84.5841 103.55C83.8166 102.331 84.7627 101.565 86.1148 96.5671C86.2516 96.0616 88.5916 87.2777 87.8835 83.4499C87.8222 83.1182 87.6155 81.7729 87.6764 79.9886C87.6964 79.476 87.7657 78.9663 87.8835 78.4657C87.8835 78.4657 88.449 75.972 90.4897 73.8311C90.7812 73.5228 91.1306 73.2026 94.3206 73.0815Z" fill="#F28724"/>
<g style="mix-blend-mode:multiply" opacity="0.3">
<path style="mix-blend-mode:multiply" opacity="0.3" d="M103.905 74.3905C104.576 74.3831 105.099 76.8445 105.178 77.2003C106.422 82.7992 103.111 84.7937 103.563 89.8741C103.615 90.4561 104.193 96.0423 108.462 99.4757C110.491 101.11 112.804 101.811 112.747 103.259C112.706 104.299 111.458 105.25 110.298 105.586C108.083 106.229 106.791 104.454 103.869 103.841C100.817 103.199 100.109 104.692 95.2975 105.296C93.6953 105.497 86.3875 106.414 84.5829 103.55C84.3965 103.253 84.3261 103.125 84.3445 102.998C84.5458 101.606 91.3134 102.872 93.0094 100.335C94.6664 97.8567 90.3732 93.4082 91.8113 92.0792C92.9344 91.0392 95.7973 93.5278 98.103 92.3637C99.5489 91.6339 99.7833 89.9662 100.499 86.3838C101.751 80.0967 102.887 74.4013 103.905 74.3905Z" fill="url(#paint10_linear_107_2574)"/>
</g>
<path d="M96.4558 68.9792C96.3659 69.3793 95.9087 71.5268 96.8314 72.0791C97.0318 72.1991 97.4175 72.2675 98.187 72.4049C98.6911 72.4948 99.114 72.5497 99.4125 72.5835C99.3695 72.9438 99.2417 73.5299 98.8044 74.0629C97.5789 75.5575 95.1213 75.1709 94.7707 75.11C93.5347 74.896 92.3181 74.5331 92.0246 74.3114C91.5772 73.9734 91.2255 73.7201 91.0176 73.4627C91.4959 73.2428 92.4615 72.6634 93.1099 72.4736C93.5539 72.3438 94.0055 72.2387 94.4624 72.1586L94.6664 70.914L96.4558 68.9792Z" fill="#F6C8AE"/>
<path d="M96.4992 70.0494C96.4992 70.0494 96.3319 71.6231 94.7227 71.9005C93.2814 72.1487 92.1966 68.8389 92.934 67.9828C93.1802 67.6971 93.7875 67.4256 94.3139 67.4397C94.6844 67.4501 95.9349 67.9025 96.1115 69.0922C96.3608 68.8426 96.6711 68.7709 96.8239 68.8753C97.0193 69.0079 96.9142 69.3931 96.8907 69.4803C96.826 69.7043 96.6891 69.9033 96.4992 70.0494Z" fill="#F7C8AE"/>
<path d="M93.9364 95.5933L89.449 85.0304C89.3772 84.8614 89.3428 84.6801 89.3481 84.498C89.3533 84.3158 89.3981 84.1366 89.4795 83.9716C89.561 83.8066 89.6774 83.6594 89.8215 83.5391C89.9656 83.4189 90.1343 83.3282 90.317 83.2728L99.1984 80.5763C99.447 80.5225 99.7077 80.5553 99.9331 80.6687C100.159 80.7821 100.334 80.9686 100.427 81.1943L105.016 92.33C105.07 92.461 105.095 92.6013 105.088 92.7419C105.082 92.8826 105.045 93.0204 104.98 93.1466C104.914 93.2729 104.822 93.3848 104.708 93.4753C104.595 93.5657 104.463 93.6327 104.321 93.6719L95.2194 96.182C94.9668 96.2516 94.696 96.23 94.4592 96.1214C94.2224 96.0127 94.0362 95.8246 93.9364 95.5933Z" fill="#292162"/>
<path d="M94.5069 89.5164C94.5069 89.5164 93.6081 88.947 93.6081 88.3776C93.6081 87.8083 93.009 86.954 92.7093 86.954C92.4096 86.954 92.4099 87.2389 92.7093 87.8083C93.0086 88.3776 91.5111 88.0928 90.9117 87.5234C90.3122 86.954 89.7135 86.954 90.0128 87.2389C90.4865 87.689 90.6119 88.0931 90.6119 88.0931C90.6119 88.0931 91.211 90.3711 93.832 90.2285L94.5069 89.5164Z" fill="#F6C8AE"/>
<path d="M100.797 73.2885C102.712 72.4758 105.919 75.8257 106.489 76.4203C109.508 79.5752 113.793 86.727 110.383 90.9401C107.538 94.4545 99.901 95.2289 93.6085 90.6552L94.5073 88.9466C95.1611 89.1717 99.457 90.5853 102.597 88.3772C103.261 87.9089 104.286 87.1887 104.394 86.0996C104.596 84.0706 101.352 83.4458 99.9002 80.4057C98.6149 77.7151 99.1452 73.989 100.797 73.2885Z" fill="#F28724"/>
<defs>
<linearGradient id="paint0_linear_107_2574" x1="77.6661" y1="110.41" x2="78.1282" y2="121.65" gradientUnits="userSpaceOnUse">
<stop offset="0.49" stop-color="#EBEFF2"/>
<stop offset="1" stop-color="white"/>
</linearGradient>
<linearGradient id="paint1_linear_107_2574" x1="79.9953" y1="96.3933" x2="46.4983" y2="-19.9784" gradientUnits="userSpaceOnUse">
<stop stop-color="#444B8C"/>
<stop offset="1" stop-color="#26264F"/>
</linearGradient>
<linearGradient id="paint2_linear_107_2574" x1="63.3983" y1="0.922799" x2="72.4359" y2="51.3962" gradientUnits="userSpaceOnUse">
<stop stop-color="#EBEFF2"/>
<stop offset="1" stop-color="white"/>
</linearGradient>
<linearGradient id="paint3_linear_107_2574" x1="-4423.72" y1="6214.86" x2="-3961.19" y2="6229.46" gradientUnits="userSpaceOnUse">
<stop stop-color="#444B8C"/>
<stop offset="1" stop-color="#26264F"/>
</linearGradient>
<linearGradient id="paint4_linear_107_2574" x1="-1577.09" y1="7164.83" x2="-1441.66" y2="7003.66" gradientUnits="userSpaceOnUse">
<stop stop-color="#FFC444"/>
<stop offset="1" stop-color="#F36F56"/>
</linearGradient>
<linearGradient id="paint5_linear_107_2574" x1="-4073.83" y1="5317.34" x2="-3559.3" y2="5469.6" gradientUnits="userSpaceOnUse">
<stop stop-color="#444B8C"/>
<stop offset="1" stop-color="#26264F"/>
</linearGradient>
<linearGradient id="paint6_linear_107_2574" x1="-2708.1" y1="6999.27" x2="-2570.35" y2="6824.84" gradientUnits="userSpaceOnUse">
<stop stop-color="#FFC444"/>
<stop offset="1" stop-color="#F36F56"/>
</linearGradient>
<linearGradient id="paint7_linear_107_2574" x1="-55398.7" y1="116153" x2="-39457.8" y2="102224" gradientUnits="userSpaceOnUse">
<stop stop-color="#444B8C"/>
<stop offset="1" stop-color="#26264F"/>
</linearGradient>
<linearGradient id="paint8_linear_107_2574" x1="-55398.7" y1="116156" x2="-39457.5" y2="102227" gradientUnits="userSpaceOnUse">
<stop stop-color="#444B8C"/>
<stop offset="1" stop-color="#26264F"/>
</linearGradient>
<linearGradient id="paint9_linear_107_2574" x1="-48550.3" y1="127495" x2="-32968.1" y2="120582" gradientUnits="userSpaceOnUse">
<stop stop-color="#444B8C"/>
<stop offset="1" stop-color="#26264F"/>
</linearGradient>
<linearGradient id="paint10_linear_107_2574" x1="103.708" y1="112.222" x2="90.7054" y2="76.2886" gradientUnits="userSpaceOnUse">
<stop stop-color="#AA80F9"/>
<stop offset="1" stop-color="#6165D7"/>
</linearGradient>
</defs>
</svg>
