<svg width="27" height="44" viewBox="0 0 27 44" fill="none" xmlns="http://www.w3.org/2000/svg">
<g clip-path="url(#clip0_2363_258)">
<path d="M19.8122 1.46978C19.4249 1.40009 19.0267 1.42147 18.6491 1.53221C18.2715 1.64296 17.9248 1.84004 17.6365 2.10788C16.6979 3.00941 16.9984 4.13535 17.1857 4.73442C17.373 5.33349 17.3808 5.55985 17.2599 5.74913C17.1389 5.93842 16.5847 6.52968 16.5105 6.72482C16.4364 6.91995 18.0482 7.77465 18.0482 7.77465L19.3264 7.03313C19.3264 7.03313 20.4523 7.70831 20.5655 7.66928C20.6787 7.63025 21.0533 7.03313 21.3909 5.64376C21.7285 4.25439 21.6524 3.20455 21.1958 2.4162C20.7392 1.62784 19.8122 1.46978 19.8122 1.46978Z" fill="#F6BA99"/>
<path d="M19.0629 4.48184C19.0629 4.48184 18.8678 3.9179 18.536 4.40574C18.2043 4.89358 18.3116 5.27019 18.4619 5.34434L18.6121 5.42045C18.5754 5.70451 18.6279 5.99296 18.7624 6.24588C18.9123 6.53106 19.1015 6.79381 19.3244 7.02642" stroke="#CF9270" stroke-width="0.5" stroke-miterlimit="10"/>
<path d="M21.5041 3.22603C21.443 2.94536 21.3411 2.67516 21.2016 2.42402C20.7509 1.64347 19.8123 1.48541 19.8123 1.48541C19.4249 1.41572 19.0267 1.43709 18.6491 1.54784C18.2715 1.65859 17.9248 1.85567 17.6365 2.12351C16.6979 3.02504 16.9984 4.15098 17.1857 4.75005C17.3243 5.19496 17.3594 5.43303 17.3243 5.6028C17.6172 5.63167 17.9129 5.60989 18.1985 5.5384C18.3021 5.50917 18.399 5.45974 18.4835 5.39296C18.5681 5.32617 18.6385 5.24334 18.6909 5.14923C18.7433 5.05512 18.7766 4.95158 18.7889 4.84457C18.8012 4.73755 18.7922 4.62917 18.7624 4.52564C18.6492 4.30123 18.9576 4.07487 18.9576 4.07487C18.9576 4.07487 19.182 4.6759 19.4454 4.30123C19.7088 3.92657 19.2503 3.3997 19.7069 3.09919C20.1635 2.79868 20.6455 2.79868 21.2094 3.09919C21.3033 3.15099 21.402 3.19347 21.5041 3.22603Z" fill="#4A220B"/>
<path d="M21.504 3.22555C21.504 3.22555 21.7635 3.39922 22.1402 2.91138C22.5168 2.42354 22.5148 1.56104 22.2143 1.78544C22.0701 1.89001 21.932 2.00273 21.8006 2.12303C21.8006 2.12303 21.5021 0.80976 21.0884 0.95221C20.9753 0.986563 20.8752 1.05435 20.8014 1.14665C20.7275 1.23895 20.6834 1.35144 20.6747 1.46932C20.6747 1.46932 19.8941 0.870253 19.738 1.05758C19.6631 1.15681 19.5744 1.24486 19.4746 1.31907C19.4746 1.31907 19.5507 1.35809 19.3243 1.43225C19.1597 1.50652 19.0177 1.62298 18.9126 1.76983C18.9126 1.76983 20.1498 1.92009 20.5264 2.29475C20.903 2.66941 21.504 3.22555 21.504 3.22555Z" fill="#4A220B"/>
<path d="M18.8366 9.4707C18.8366 9.4707 19.5118 9.69511 19.5508 10.821C19.5898 11.947 20.4504 14.837 20.4504 14.837C20.4504 14.837 21.4631 13.711 21.6505 13.4847C21.8378 13.2583 22.2144 13.1842 22.5891 13.8223C22.9637 14.4604 22.8525 15.2116 22.2886 16.1132C21.7246 17.0147 20.6748 18.3631 19.8123 18.2128C18.9498 18.0626 17.5233 15.4809 17.4863 15.1746C17.4492 14.8682 18.1614 11.8338 18.2668 11.346C18.3722 10.8581 18.8366 9.4707 18.8366 9.4707Z" fill="#084368"/>
<path d="M10.5803 20.316C10.5803 20.316 10.0554 21.0302 10.2427 21.7054C10.3727 22.1546 10.5358 22.5935 10.7306 23.0187C10.7306 23.0187 9.49341 27.0346 9.1929 27.86C8.89239 28.6854 9.1168 28.7615 8.32845 29.2494C7.5401 29.7372 5.81508 30.4202 5.25114 32.2135C4.82722 33.5594 4.31418 34.8756 3.71541 36.1533C3.48905 36.6041 3.37783 36.8675 2.88999 36.8675C2.40215 36.8675 1.57672 36.6412 1.50061 37.2793C1.46241 37.879 1.46241 38.4806 1.50061 39.0804C1.50061 39.3067 0.938612 39.6814 1.16302 40.4697C1.38743 41.2581 1.80113 41.9703 2.02553 42.0445C2.24994 42.1186 2.66362 42.0074 2.70265 41.8201C2.74168 41.6328 2.28896 41.3322 2.50752 40.6493C2.72607 39.9663 3.85982 38.893 4.49791 38.2842C5.13601 37.6754 6.64441 35.0196 7.76255 33.8195C8.88068 32.6194 10.1647 31.1168 11.0643 30.3285C11.9638 29.5401 13.7962 26.5018 14.1864 25.8247C14.5767 25.1476 14.967 24.2129 14.967 24.2129C14.967 24.2129 18.9088 24.9622 19.5839 25.0754C20.0411 25.1575 20.4922 25.2703 20.9343 25.413C20.1961 26.1085 19.6859 27.0113 19.4708 28.0024C19.1702 29.5792 18.4951 32.4301 18.1575 33.3687C17.8199 34.3073 17.5701 34.8771 17.336 35.365C17.1018 35.8528 16.7349 36.4909 16.9984 36.7914C17.2618 37.0919 18.6863 37.2793 19.4005 37.3924C20.1147 37.5056 21.5021 37.4666 21.8007 37.1973C22.0992 36.928 22.1402 36.7836 21.9509 36.7465C21.7617 36.7095 20.7138 36.0323 20.4133 35.7708C20.1128 35.5094 19.8884 35.0566 19.9254 34.8693C19.9625 34.682 21.6504 30.9666 22.4017 29.466C23.153 27.9654 23.9784 25.3369 24.2028 24.7378C24.4272 24.1387 24.5033 24.0236 24.2789 23.7251C24.0545 23.4265 22.6651 22.3728 20.3372 21.0966C18.0092 19.8204 16.7349 19.7833 16.0227 19.6721C15.3104 19.5608 14.1084 18.47 12.4946 19.1842C10.8808 19.8984 10.5803 20.316 10.5803 20.316Z" fill="#F6BA99"/>
<path d="M18.9497 9.09643C19.0341 10.2355 18.9962 11.3803 18.8365 12.5113C18.575 14.5017 17.1486 17.4658 17.0354 18.1703C16.9222 18.8747 17.4101 19.3411 17.2598 19.5597C17.1095 19.7782 16.811 19.8602 16.4344 19.8602C16.0578 19.8602 14.5962 19.4836 13.4332 19.7099C12.2702 19.9363 10.994 20.9861 10.7305 20.8807C10.4671 20.7754 10.0554 20.3168 10.3188 19.868C10.5822 19.4192 10.8437 19.1538 11.0681 18.6972C11.2925 18.2405 12.4204 14.6832 12.6819 13.5202C12.9434 12.3572 12.8322 11.0049 12.7951 10.0663C12.758 9.12765 13.5444 7.58998 14.1454 7.36557C14.7464 7.14116 16.4344 7.58998 16.6217 7.58998C16.809 7.58998 18.6121 8.15782 18.9497 9.09643Z" fill="#084368"/>
<path d="M18.0483 8.79507C18.0483 8.79507 18.9127 9.88394 19.0239 9.80978C19.1352 9.73563 19.5508 9.35902 19.2191 8.45749C18.8873 7.55595 18.0951 6.95688 17.2677 6.24464C16.4403 5.53239 15.5798 4.44352 15.0178 5.07381C14.4558 5.70411 13.404 7.17544 13.847 7.66328C14.2899 8.15112 16.6628 8.2643 17.1877 8.44383C17.7126 8.62335 18.0483 8.79507 18.0483 8.79507Z" fill="#0064A2"/>
<path d="M8.70506 16.6776C8.79783 17.0081 8.93642 17.3241 9.1168 17.6162C9.41731 18.104 9.56757 18.629 9.38024 18.8163C9.19291 19.0036 9.18509 19.0114 8.44162 19.23C7.69815 19.4485 7.39179 19.3041 7.31569 19.1168C7.23958 18.9295 7.54009 18.7031 7.54009 18.7031C7.40399 18.6712 7.28229 18.5952 7.19403 18.4868C7.10576 18.3784 7.0559 18.2438 7.05225 18.104C7.0759 17.6139 7.12606 17.1253 7.20251 16.6405L8.66603 16.5273L8.70506 16.6776Z" fill="#F6BA99"/>
<path d="M6.94101 15.8884C6.94101 15.8884 6.90394 16.6396 7.13615 16.827C7.36836 17.0143 8.56259 16.827 8.71285 16.6767C8.8631 16.5265 8.90798 15.5508 8.90798 15.5508L6.94101 15.8884Z" fill="#0064A2"/>
<path d="M16.0598 8.53395C15.689 8.16571 15.2402 7.8856 14.7465 7.71438C13.966 7.45094 11.4819 7.63827 9.75491 8.08904C8.02795 8.5398 7.3157 8.49492 7.05226 9.17205C6.78883 9.84917 6.3771 15.1003 6.4532 15.7013C6.5293 16.3023 7.72939 16.3394 8.29139 16.1892C8.85338 16.0389 9.30414 15.6642 9.49342 14.8759C9.68271 14.0875 9.64172 11.2737 9.90516 10.9732C10.1686 10.6726 13.283 10.86 14.1455 10.7468C15.008 10.6336 15.609 10.3721 15.7593 10.1477" fill="#084368"/>
<path d="M22.1402 13.2253C22.1402 13.2253 21.5021 13.5629 21.6134 14.1249C21.7246 14.6869 22.2885 15.1006 22.5149 15.0635C22.7413 15.0264 23.1901 14.4254 23.1901 14.4254C23.1901 14.4254 23.2642 12.9248 22.1402 13.2253Z" fill="#0064A2"/>
<path d="M22.0582 13.637C22.0582 13.637 22.3587 14.5015 22.7334 14.5386C23.1081 14.5756 23.2974 14.3434 23.7462 13.9005C24.195 13.4575 24.6477 13.1199 24.6477 12.5111C24.6477 11.9023 24.4974 11.0866 24.1599 11.0476C23.9563 11.0255 23.7504 11.0516 23.5588 11.1237C23.5588 11.1237 23.4476 10.8973 23.11 11.1607C22.7724 11.4242 22.8466 11.6115 22.6593 11.9413C22.4949 12.1661 22.4249 12.4462 22.4641 12.7218C22.4836 12.8583 22.496 12.9958 22.5012 13.1336L22.0582 13.637Z" fill="#F6BA99"/>
<path d="M23.5647 11.123C23.6778 11.3182 23.8652 12.3231 23.7149 12.4734C23.5647 12.6236 23.3032 12.9242 23.2271 12.5866C23.151 12.249 23.0027 11.7611 23.0027 11.7611" stroke="#CF9270" stroke-width="0.5" stroke-miterlimit="10"/>
<path d="M20.3371 21.1044C18.0111 19.8282 16.7349 19.7911 16.0226 19.6799C15.3104 19.5686 14.1083 18.4778 12.4945 19.192C10.8808 19.9062 10.5803 20.316 10.5803 20.316C10.5803 20.316 10.0553 21.0302 10.2427 21.7054C10.3727 22.1546 10.5357 22.5935 10.7305 23.0187C10.7305 23.0187 9.49335 27.0346 9.19284 27.86C9.17723 27.9029 9.16747 27.9361 9.15381 27.9751C9.48554 28.0903 9.87191 28.2366 10.3246 28.422C10.9083 28.6581 11.3951 29.0844 11.7062 29.6319C12.6092 28.4165 13.4381 27.1477 14.1883 25.8325C14.5649 25.1574 14.9689 24.2207 14.9689 24.2207C14.9689 24.2207 18.9107 24.97 19.5858 25.0832C19.8122 25.1203 20.0385 25.171 20.2395 25.2218C20.3544 24.4905 20.5906 23.7835 20.9381 23.1299C21.3089 22.4625 21.6523 22.1542 21.9138 22.0098C21.4435 21.7288 20.9206 21.4244 20.3371 21.1044Z" fill="#CF4E25"/>
<path d="M21.8007 37.206C22.1012 36.9426 22.1403 36.7923 21.951 36.7553C21.7617 36.7182 20.7138 36.0411 20.4133 35.7796C20.1128 35.5181 19.8884 35.0654 19.9255 34.878C19.9372 34.8176 21.0033 32.398 21.2745 31.7951C20.9537 31.8931 20.2991 31.9519 19.9644 31.9313C19.5206 31.8527 19.0863 31.7278 18.6687 31.5586C18.3584 32.4035 17.5487 34.9054 17.336 35.3659C17.1233 35.8264 16.735 36.4918 16.9984 36.7923C17.2618 37.0928 18.6863 37.2802 19.4005 37.3934C20.1147 37.5065 21.5022 37.4675 21.8007 37.206Z" fill="#DECBB6"/>
<path d="M21.9509 36.7556C21.7558 36.7185 20.7138 36.0414 20.4133 35.7799C20.1128 35.5184 19.8884 35.0657 19.9254 34.8784C19.9254 34.8784 19.7752 34.3905 19.4376 34.3164C19.1 34.2422 18.9497 35.255 18.9497 35.255L17.5194 34.9681C17.455 35.1086 17.3945 35.2413 17.336 35.3584C17.1096 35.8463 16.7349 36.4844 16.9984 36.7849C17.2618 37.0854 18.6863 37.2727 19.4005 37.3859C20.1147 37.4991 21.5021 37.46 21.8007 37.1907C22.0992 36.9215 22.1402 36.7907 21.9509 36.7556Z" fill="#0064A2"/>
<path d="M4.63472 36.421C4.33773 36.172 4.12226 35.8396 4.01614 35.4668C3.95973 35.5914 3.3959 36.7046 3.27828 36.7744C3.16066 36.8442 3.02443 36.8762 2.88803 36.866C2.40019 36.866 1.57476 36.6397 1.49866 37.2778C1.46045 37.8775 1.46045 38.4791 1.49866 39.0789C1.49866 39.3053 0.936659 39.6799 1.16107 40.4683C1.38547 41.2566 1.79917 41.9689 2.02358 42.043C2.24799 42.1172 2.66167 42.006 2.7007 41.8186C2.73973 41.6313 2.28701 41.3308 2.50556 40.6478C2.72411 39.9648 3.85786 38.8916 4.49596 38.2827C4.6485 38.1284 5.49504 36.9525 5.61909 36.7744C5.35233 36.6984 4.86285 36.5788 4.63472 36.421Z" fill="#DECBB6"/>
<path d="M3.58662 39.1951C3.55624 39.1426 3.52301 39.0918 3.4871 39.0429C3.26269 38.7424 2.88802 39.08 2.88802 39.08C2.65795 38.8081 2.53758 38.4602 2.55044 38.1043C2.57971 37.6672 2.96803 37.074 3.13585 36.83C3.05359 36.8549 2.96809 36.8673 2.88216 36.8671C2.39432 36.8671 1.56889 36.6408 1.49279 37.2789C1.45458 37.8786 1.45458 38.4802 1.49279 39.08C1.49279 39.3063 0.930801 39.681 1.15521 40.4693C1.37962 41.2577 1.7933 41.97 2.01771 42.0441C2.24212 42.1183 2.65581 42.007 2.69484 41.8197C2.73387 41.6324 2.28115 41.3319 2.4997 40.6489C2.64606 40.2527 3.10463 39.7025 3.58662 39.1951Z" fill="#0064A2"/>
</g>
<path fill-rule="evenodd" clip-rule="evenodd" d="M22.0139 12.5197C22.0249 12.1562 23.0252 12.0802 23.7768 11.4941C24.533 12.155 25.5287 12.1575 25.5397 12.5197V12.7403H22.0137V12.5197H22.0139Z" fill="#FBCB22"/>
<path d="M25.2749 12.5541H22.2786C22.2722 12.5541 22.2661 12.5512 22.2616 12.5459C22.2571 12.5406 22.2545 12.5335 22.2545 12.5261C22.2545 12.5186 22.2571 12.5115 22.2616 12.5063C22.2661 12.501 22.2722 12.498 22.2786 12.498H25.2749C25.2813 12.498 25.2874 12.501 25.292 12.5063C25.2965 12.5115 25.299 12.5186 25.299 12.5261C25.299 12.5335 25.2965 12.5406 25.292 12.5459C25.2874 12.5512 25.2813 12.5541 25.2749 12.5541Z" fill="#ECA400"/>
<path fill-rule="evenodd" clip-rule="evenodd" d="M23.3218 10.3651C23.3218 10.3651 23.4226 10.541 23.5064 10.851C23.5338 10.9524 23.5617 11.06 23.5608 11.1749C23.5599 11.2898 23.5287 11.3968 23.5003 11.4988C23.4162 11.8057 23.3213 11.9848 23.3213 11.9848C23.3213 12.2768 24.2312 12.2768 24.2312 11.9848C24.2312 11.9848 24.1363 11.8057 24.0523 11.4988C24.0243 11.3968 23.9932 11.2908 23.9923 11.1749C23.9914 11.059 24.0192 10.9521 24.0466 10.851C24.1305 10.5407 24.2312 10.3651 24.2312 10.3651C24.2312 10.2248 24.1833 10.0902 24.0979 9.99092C24.0126 9.89169 23.8969 9.83594 23.7762 9.83594C23.6556 9.83594 23.5399 9.89169 23.4545 9.99092C23.3692 10.0902 23.3213 10.2248 23.3213 10.3651H23.3218Z" fill="#ECA400"/>
<path d="M22.0656 9.14751C21.8312 9.14751 21.5593 9.07045 21.3396 8.84974C21.0715 8.58082 20.9293 8.16179 20.9171 7.60461C20.907 7.13116 21.0045 6.79422 21.2077 6.60318C21.5228 6.30682 21.9598 6.50162 21.9782 6.51006C22.0488 6.54255 22.0862 6.64306 22.0611 6.73465C22.036 6.82624 21.9585 6.87409 21.8877 6.84196C21.8831 6.83985 21.565 6.70123 21.3671 6.88887C21.2416 7.00779 21.1818 7.24539 21.1893 7.59511C21.1994 8.04217 21.3059 8.37101 21.5067 8.57238C21.7464 8.81291 22.0734 8.82769 22.2805 8.76718C22.3539 8.74571 22.4268 8.80529 22.4434 8.90005C22.4599 8.99481 22.4139 9.08898 22.3405 9.11033C22.2505 9.13567 22.1582 9.14816 22.0656 9.14751Z" fill="#EEB217"/>
<path d="M25.4759 9.14794C25.3833 9.1484 25.2911 9.13576 25.2011 9.11029C25.1278 9.08895 25.0817 8.99477 25.0984 8.90001C25.115 8.80525 25.1878 8.7458 25.2612 8.76714C25.4683 8.82765 25.7956 8.81288 26.0351 8.57234C26.2358 8.37098 26.3426 8.04213 26.3523 7.59507C26.36 7.24535 26.3002 7.00775 26.1745 6.88883C25.9763 6.70119 25.6572 6.84098 25.6539 6.84192C25.5834 6.8737 25.5054 6.8255 25.4806 6.73402C25.4558 6.64255 25.4927 6.54239 25.5635 6.51003C25.582 6.5017 26.019 6.30679 26.3341 6.60314C26.5372 6.79419 26.6349 7.13089 26.6245 7.60457C26.6124 8.16176 26.4703 8.58079 26.2021 8.8497C25.9822 9.07147 25.7102 9.14794 25.4759 9.14794Z" fill="#EEB217"/>
<path fill-rule="evenodd" clip-rule="evenodd" d="M21.7683 6.73977V6.03165C21.7683 5.74022 21.9472 5.50391 22.1678 5.50391H25.3742C25.4802 5.50391 25.5818 5.55949 25.6566 5.65848C25.733 5.76237 25.7745 5.89492 25.7735 6.03165V6.75244C25.7699 8.89861 24.874 10.6389 23.771 10.6389C22.6656 10.6389 21.7683 8.8918 21.7683 6.73977Z" fill="#FBCB22"/>
<path d="M23.7768 9.03513C24.3272 9.03513 24.7734 8.51615 24.7734 7.87596C24.7734 7.23577 24.3272 6.7168 23.7768 6.7168C23.2264 6.7168 22.7802 7.23577 22.7802 7.87596C22.7802 8.51615 23.2264 9.03513 23.7768 9.03513Z" fill="#FEEDB4"/>
<path d="M23.7768 9.22956C23.5469 9.22959 23.3222 9.15031 23.131 9.00175C22.9398 8.8532 22.7908 8.64204 22.7028 8.39498C22.6148 8.14792 22.5917 7.87606 22.6366 7.61377C22.6814 7.35148 22.7921 7.11055 22.9547 6.92145C23.1173 6.73235 23.3244 6.60356 23.5499 6.55138C23.7754 6.4992 24.0092 6.52597 24.2216 6.6283C24.434 6.73063 24.6156 6.90393 24.7433 7.12629C24.871 7.34864 24.9392 7.61005 24.9392 7.87748C24.9389 8.23593 24.8163 8.57959 24.5984 8.83306C24.3805 9.08653 24.085 9.22913 23.7768 9.22956ZM23.7768 6.58591C23.5572 6.58591 23.3425 6.66166 23.1599 6.80358C22.9773 6.9455 22.835 7.14721 22.7509 7.38321C22.6669 7.61922 22.6449 7.87891 22.6877 8.12945C22.7306 8.37999 22.8363 8.61013 22.9916 8.79076C23.1469 8.97139 23.3448 9.0944 23.5602 9.14423C23.7756 9.19407 23.9989 9.16849 24.2018 9.07073C24.4047 8.97298 24.5781 8.80743 24.7002 8.59504C24.8222 8.38264 24.8873 8.13293 24.8873 7.87748C24.8869 7.53506 24.7698 7.20677 24.5617 6.96464C24.3535 6.72251 24.0712 6.58631 23.7768 6.58591Z" fill="#ECA400"/>
<path fill-rule="evenodd" clip-rule="evenodd" d="M23.7401 7.2461C23.7427 7.23701 23.7476 7.22909 23.7543 7.22348C23.7609 7.21787 23.7689 7.21484 23.7771 7.21484C23.7854 7.21484 23.7934 7.21787 23.8 7.22348C23.8067 7.22909 23.8116 7.23701 23.8142 7.2461C23.8523 7.38277 23.9092 7.58631 23.9308 7.66385C23.9334 7.67293 23.9383 7.68084 23.9449 7.68645C23.9516 7.69206 23.9596 7.69507 23.9678 7.69506H24.3455C24.3538 7.69502 24.3618 7.69804 24.3685 7.70368C24.3752 7.70932 24.3802 7.71728 24.3827 7.72642C24.3852 7.73557 24.3852 7.74541 24.3826 7.75454C24.38 7.76366 24.375 7.77159 24.3683 7.77718L24.0628 8.03527C24.0561 8.04092 24.0512 8.04885 24.0487 8.05795C24.0461 8.06705 24.0461 8.07684 24.0487 8.08594C24.0702 8.16325 24.1272 8.3675 24.1654 8.5037C24.1679 8.51279 24.1679 8.52258 24.1653 8.53166C24.1628 8.54074 24.1578 8.54865 24.1512 8.55426C24.1445 8.55987 24.1365 8.56289 24.1283 8.56289C24.1201 8.56289 24.1121 8.55987 24.1054 8.55426L23.7999 8.29617C23.7933 8.29057 23.7853 8.28755 23.7771 8.28755C23.7689 8.28755 23.7609 8.29057 23.7542 8.29617L23.4487 8.55426C23.4421 8.55983 23.4341 8.56282 23.4259 8.56282C23.4178 8.56282 23.4098 8.55982 23.4032 8.55425C23.3965 8.54868 23.3916 8.54082 23.389 8.53179C23.3864 8.52275 23.3864 8.51301 23.3888 8.50393C23.4269 8.36715 23.4839 8.16372 23.5055 8.08618C23.5081 8.07708 23.5081 8.06727 23.5055 8.05817C23.503 8.04906 23.498 8.04113 23.4914 8.0355L23.1859 7.77741C23.1792 7.77178 23.1743 7.76385 23.1717 7.75475C23.1692 7.74565 23.1692 7.73585 23.1717 7.72674C23.1742 7.71763 23.1792 7.70969 23.1858 7.70404C23.1924 7.69839 23.2004 7.69533 23.2087 7.69529H23.5864C23.5946 7.69529 23.6026 7.69228 23.6093 7.68667C23.6159 7.68107 23.6209 7.67316 23.6234 7.66408C23.645 7.58654 23.7015 7.38277 23.7401 7.2461Z" fill="#FBCB22"/>
<path opacity="0.85" d="M22.3822 8.74517C22.3657 8.74448 22.3498 8.73792 22.3367 8.72638C22.3235 8.71485 22.3137 8.6989 22.3085 8.68067C21.959 7.59433 21.9959 6.56535 21.9971 6.52207C21.9995 6.46343 22.0375 6.41887 22.0813 6.42203C22.1252 6.4252 22.1595 6.47481 22.1572 6.53321C22.1567 6.54646 22.1221 7.56009 22.4559 8.59787C22.4732 8.6517 22.4542 8.71374 22.4136 8.73661C22.4038 8.74218 22.3931 8.74511 22.3822 8.74517Z" fill="#FFDB76"/>
<path opacity="0.85" d="M22.742 9.5846C22.729 9.58433 22.7164 9.58027 22.7051 9.57281C22.6939 9.56535 22.6844 9.55472 22.6776 9.5419C22.5919 9.3889 22.515 9.22948 22.4475 9.06467C22.4264 9.01328 22.4407 8.949 22.4796 8.92108C22.5186 8.89315 22.5672 8.91216 22.5883 8.96354C22.6523 9.11965 22.7251 9.27068 22.8062 9.41567C22.819 9.43862 22.8244 9.46611 22.8213 9.49323C22.8183 9.52035 22.8071 9.54533 22.7897 9.56372C22.7764 9.57707 22.7595 9.58448 22.742 9.5846Z" fill="#FFDB76"/>
<path fill-rule="evenodd" clip-rule="evenodd" d="M25.97 5.79499C25.97 5.6342 25.8682 5.50391 25.7426 5.50391H21.786C21.6605 5.50391 21.5587 5.6342 21.5587 5.79499C21.5587 5.95566 21.6605 6.08595 21.786 6.08595H25.7426C25.8682 6.08595 25.97 5.95566 25.97 5.79499Z" fill="#FFDB76"/>
<path d="M25.6263 5.84547H21.9258C21.915 5.84425 21.9049 5.83839 21.8976 5.82903C21.8903 5.81966 21.8862 5.80746 21.8862 5.79481C21.8862 5.78215 21.8903 5.76995 21.8976 5.76058C21.9049 5.75122 21.915 5.74535 21.9258 5.74414H25.6263C25.6371 5.74535 25.6472 5.75122 25.6545 5.76058C25.6618 5.76995 25.6659 5.78215 25.6659 5.79481C25.6659 5.80746 25.6618 5.81966 25.6545 5.82903C25.6472 5.83839 25.6371 5.84425 25.6263 5.84547Z" fill="#ECA400"/>
<defs>
<clipPath id="clip0_2363_258">
<rect width="23.8438" height="42.2666" fill="white" transform="translate(0.809814 0.941406)"/>
</clipPath>
</defs>
</svg>
