<svg width="50" height="56" viewBox="0 0 50 56" fill="none" xmlns="http://www.w3.org/2000/svg">
<path d="M23.1134 49.1208C23.1134 48.8133 23.9637 48.5781 25.1758 48.5781C26.388 48.5781 27.2563 48.759 27.383 49.0847C27.5096 49.4103 26.6051 49.6636 25.2844 49.6817C23.9637 49.6998 23.1315 49.4284 23.1134 49.1208Z" fill="#999999" fill-opacity="0.05"/>
<path d="M25.2844 49.9536C27.2744 49.9536 28.6132 49.5375 28.4323 49.0852C28.2513 48.633 26.9307 48.2892 25.1216 48.3073C23.3124 48.3254 22.028 48.6692 22.0461 49.1033C22.0641 49.5375 23.3486 49.9717 25.2844 49.9536Z" fill="#999999" fill-opacity="0.05"/>
<path d="M25.3025 50.2228C27.9438 50.2228 29.7167 49.6619 29.4815 49.0649C29.2463 48.4679 27.4734 48.0156 25.0854 48.0337C22.6973 48.0518 20.9606 48.5222 20.9967 49.1011C21.0329 49.68 22.7878 50.2408 25.3025 50.2228Z" fill="#999999" fill-opacity="0.05"/>
<path d="M25.3206 50.4952C28.6132 50.4952 30.8384 49.8077 30.5309 49.0479C30.2233 48.2881 28.0343 47.7272 25.1035 47.7634C22.1727 47.7996 19.9475 48.3604 19.9837 49.1022C20.0198 49.8439 22.1003 50.5133 25.3206 50.4952Z" fill="#999999" fill-opacity="0.05"/>
<path d="M25.3386 50.7853C29.2825 50.7853 31.9419 49.9531 31.5801 48.9761C31.2183 47.9992 28.577 47.4022 25.013 47.4203C21.449 47.4384 18.8258 48.1621 18.8801 49.0485C18.9343 49.935 21.4671 50.8034 25.3386 50.7853Z" fill="#999999" fill-opacity="0.05"/>
<path d="M25.3387 51.0566C29.9519 51.0566 33.0636 50.0796 32.5751 49.0122C32.0867 47.9449 29.0835 47.2031 24.9045 47.2031C20.7254 47.2031 17.668 48.0715 17.668 49.1027C17.668 50.1339 20.852 51.0747 25.3387 51.0566Z" fill="#999999" fill-opacity="0.05"/>
<path d="M25.3567 51.3281C30.6213 51.3281 34.1672 50.2246 33.6787 48.9944C33.1903 47.7641 29.6806 46.9138 24.9226 46.9319C20.1646 46.95 16.691 47.9089 16.7634 49.0848C16.8358 50.2607 20.2188 51.3462 25.3567 51.3281Z" fill="#999999" fill-opacity="0.05"/>
<path d="M25.3748 51.6001C31.2907 51.6001 35.2707 50.3517 34.728 48.9768C34.1853 47.6019 30.2414 46.6249 24.8864 46.6611C19.5314 46.6973 15.6237 47.7647 15.696 49.0853C15.7684 50.406 19.5856 51.6362 25.3748 51.6001Z" fill="#999999" fill-opacity="0.05"/>
<path d="M25.3748 51.8692C31.96 51.8692 36.3924 50.4943 35.7773 48.9746C35.1622 47.455 30.8022 46.3514 24.9225 46.3876C19.0429 46.4238 14.6467 47.6178 14.7372 49.0832C14.8276 50.5485 18.9705 51.9054 25.3748 51.8692Z" fill="#999999" fill-opacity="0.05"/>
<path d="M25.3929 52.1404C32.6294 52.1404 37.496 50.6388 36.8266 48.9563C36.1572 47.2738 31.3992 46.0799 24.7959 46.116C18.1926 46.1522 13.4889 47.4548 13.5793 49.083C13.6698 50.7112 18.3373 52.1766 25.3929 52.1404Z" fill="#999999" fill-opacity="0.05"/>
<path d="M25.411 52.4119C33.2807 52.4119 38.5995 50.7656 37.8759 48.9384C37.1522 47.1112 31.8334 45.8086 24.7597 45.8086C17.686 45.8086 12.4215 47.274 12.53 49.0469C12.6386 50.8199 17.7041 52.4662 25.411 52.4119Z" fill="#999999" fill-opacity="0.05"/>
<path d="M25.4291 52.6816C33.9501 52.6816 39.7212 50.8725 38.9252 48.9187C38.1291 46.9648 32.4485 45.5175 24.7235 45.5718C16.9986 45.6261 11.3541 47.1638 11.4627 49.0634C11.5712 50.963 17.089 52.7359 25.4291 52.6816Z" fill="#999999" fill-opacity="0.05"/>
<path d="M25.4291 53.0437C34.6195 53.0437 40.8248 51.1261 39.9021 48.9913C38.9795 46.8565 32.937 45.373 24.5969 45.373C16.2569 45.373 10.2144 47.0736 10.341 49.136C10.4677 51.1984 16.4559 53.0437 25.4291 53.0437Z" fill="#999999" fill-opacity="0.05"/>
<path d="M25.4472 53.246C35.2888 53.246 41.9464 51.1836 41.0419 48.886C40.1373 46.5884 33.6425 44.9783 24.5969 45.0326C15.5513 45.0869 9.18319 46.8417 9.30982 49.0669C9.43646 51.2921 15.8227 53.3002 25.4472 53.246Z" fill="#999999" fill-opacity="0.05"/>
<path d="M25.4653 53.5152C35.9582 53.5152 43.05 51.3081 42.0911 48.8838C41.1323 46.4596 34.1129 44.7048 24.5969 44.759C15.0809 44.8133 8.15197 46.7128 8.31479 49.0647C8.47761 51.4166 15.2076 53.5695 25.4653 53.5152Z" fill="#999999" fill-opacity="0.05"/>
<path d="M25.4834 53.7873C36.6276 53.7873 44.1536 51.4535 43.1224 48.8665C42.0912 46.2794 34.6556 44.416 24.5607 44.4884C14.4658 44.5607 7.08461 46.5508 7.22934 49.0474C7.37407 51.544 14.5744 53.8416 25.4834 53.7873Z" fill="#999999" fill-opacity="0.05"/>
<path d="M25.4834 54.0587C37.297 54.0587 45.2752 51.5802 44.1716 48.8484C42.9776 45.8272 35.126 44.1447 24.5065 44.2171C13.8869 44.2895 6.01723 46.4061 6.18005 49.0475C6.34287 51.6888 13.9593 54.1311 25.4834 54.0587Z" fill="#999999" fill-opacity="0.05"/>
<path d="M25.5015 54.3297C37.9663 54.3297 46.3787 51.7246 45.239 48.9024C43.9726 45.7183 35.7592 43.9454 24.4703 44.0178C13.1813 44.0901 4.94981 46.3334 5.11263 49.1194C5.27545 51.9055 13.3261 54.4021 25.5015 54.3297Z" fill="#999999" fill-opacity="0.05"/>
<path d="M25.5196 54.6001C38.6357 54.6001 47.4823 51.8503 46.2883 48.8109C44.9496 45.4641 36.32 43.5826 24.4341 43.673C12.5482 43.7635 3.88246 46.0973 4.06337 49.1004C4.24429 52.1036 12.6929 54.6725 25.5196 54.6001Z" fill="#999999" fill-opacity="0.05"/>
<path d="M25.5196 54.8537C39.3051 54.8537 48.604 51.9772 47.3376 48.775C45.9446 45.2653 36.8809 43.3477 24.3798 43.3477C11.8788 43.3477 2.81507 45.8985 2.99598 48.9921C3.17689 52.0857 12.0778 54.9622 25.5196 54.8537Z" fill="#999999" fill-opacity="0.05"/>
<path d="M25.5377 55.1624C40.0107 55.072 49.7076 52.1412 48.3869 48.7762C46.9215 45.158 37.4236 43.0412 24.3436 43.1317C11.2637 43.2221 1.74769 45.8092 1.9467 49.0295C2.1457 52.2497 11.4446 55.2348 25.5377 55.1624Z" fill="#999999" fill-opacity="0.05"/>
<path d="M0.879306 49.0293C0.680302 45.6462 10.6305 42.9506 24.3979 42.8602C38.1653 42.7697 47.9165 44.9045 49.5266 48.7761C50.9016 52.2677 40.7162 55.3432 25.6462 55.4336C10.8114 55.506 1.07831 52.4847 0.879306 49.0293Z" fill="#999999" fill-opacity="0.05"/>
<path d="M25.8633 46.1855C19.2057 46.1855 12.6205 46.7826 10.4677 47.9947C10.4477 48.3079 10.4477 48.6222 10.4677 48.9354C10.4677 50.7446 17.3604 52.3004 25.8452 52.3004C34.33 52.3004 41.2047 50.7988 41.2047 48.9354C41.2296 48.5141 41.1806 48.0916 41.0599 47.6872C39.0699 46.4208 32.7018 46.1855 25.8633 46.1855Z" fill="url(#paint0_linear_2363_1746)"/>
<path d="M25.8633 44.7227C17.3785 44.7227 10.4857 46.2243 10.4857 48.0877C10.4857 49.9511 17.3785 51.4345 25.8633 51.4345C34.3481 51.4345 41.2228 49.933 41.2228 48.0877C41.2228 46.2423 34.33 44.7227 25.8633 44.7227Z" fill="url(#paint1_linear_2363_1746)"/>
<path d="M25.8452 35.0605C20.1284 35.0605 14.4658 35.5671 12.6205 36.6887C12.2949 37.919 12.6205 46.7656 12.6205 47.1093C12.6205 48.7013 18.5363 50.0039 25.8452 50.0039C33.1541 50.0039 39.0699 48.7013 39.0699 47.1093C39.0699 46.8018 39.2146 37.0325 38.9433 36.4355C37.2608 35.2596 31.7249 35.0605 25.8452 35.0605Z" fill="url(#paint2_linear_2363_1746)"/>
<path d="M25.8271 34.4824C18.5906 34.4824 12.6024 35.4775 12.6024 36.7258C12.6024 37.9741 18.5364 38.9691 25.8271 38.9691C33.1179 38.9691 39.0699 37.956 39.0699 36.7619C39.0699 35.5679 33.136 34.4824 25.8271 34.4824Z" fill="url(#paint3_linear_2363_1746)"/>
<path d="M32.8284 36.9043C32.8284 36.9043 33.0455 36.9043 33.3168 36.9043C33.5882 36.9043 33.8053 36.9043 33.8415 36.9043C33.8777 36.9043 33.6606 36.9043 33.353 36.9043C33.1809 36.9479 33.0005 36.9479 32.8284 36.9043Z" fill="black" fill-opacity="0.05"/>
<path d="M33.353 37.0133C33.8234 37.0133 34.131 37.0132 34.0948 36.9047C33.8492 36.8018 33.5812 36.7644 33.3169 36.7961C32.8827 36.7961 32.5751 36.7961 32.5932 36.9047C32.6113 37.0132 32.9008 37.0133 33.353 37.0133Z" fill="black" fill-opacity="0.05"/>
<path d="M33.3531 37.0512C33.9682 37.0512 34.4023 37.0512 34.3481 36.8883C34.0109 36.7739 33.6535 36.7307 33.2988 36.7617C32.738 36.7617 32.3218 36.7617 32.3399 36.9064C32.358 37.0511 32.756 37.0512 33.3531 37.0512Z" fill="black" fill-opacity="0.05"/>
<path d="M33.353 37.0879C34.131 37.0879 34.6556 36.9975 34.5832 36.8889C34.175 36.7296 33.7338 36.6737 33.2988 36.7261C32.5932 36.7261 32.0686 36.7261 32.0867 36.907C32.1047 37.0879 32.5932 37.0879 33.353 37.0879Z" fill="black" fill-opacity="0.05"/>
<path d="M33.353 37.1233C34.2938 37.1233 34.927 37.0147 34.8365 36.8881C34.3415 36.6974 33.8077 36.6291 33.2807 36.6891C32.4485 36.6891 31.8334 36.7795 31.8334 36.9062C31.8334 37.0328 32.4485 37.1233 33.353 37.1233Z" fill="black" fill-opacity="0.05"/>
<path d="M33.3711 37.1398C34.4566 37.1398 35.1802 37.0313 35.0898 36.8865C34.5139 36.6658 33.8938 36.5852 33.2807 36.6513C32.2856 36.6513 31.5801 36.7599 31.5801 36.9046C31.5801 37.0493 32.3037 37.1579 33.3711 37.1398Z" fill="black" fill-opacity="0.05"/>
<path d="M33.3711 37.1759C34.6013 37.1759 35.4516 37.0493 35.325 36.8865C34.669 36.633 33.9619 36.54 33.2626 36.6151C32.1409 36.6151 31.3268 36.7417 31.3449 36.9045C31.363 37.0673 32.159 37.194 33.3711 37.1759Z" fill="black" fill-opacity="0.05"/>
<path d="M33.3711 37.213C34.7641 37.213 35.7049 37.0683 35.5783 36.8873C34.8437 36.5948 34.0465 36.4951 33.2626 36.5979C31.9962 36.5979 31.0735 36.7245 31.0916 36.9054C31.1097 37.0863 32.0143 37.2311 33.3711 37.213Z" fill="black" fill-opacity="0.05"/>
<path d="M33.3711 37.2494C34.927 37.2494 35.9582 37.0866 35.8315 36.8876C35.0107 36.5615 34.1205 36.4495 33.2445 36.562C31.8334 36.562 30.8203 36.7066 30.8384 36.9056C30.8564 37.1046 31.8334 37.2675 33.3711 37.2494Z" fill="black" fill-opacity="0.05"/>
<path d="M33.3711 37.2864C35.0717 37.2864 36.2295 37.1055 36.0667 36.8884C35.1662 36.528 34.1885 36.4034 33.2264 36.5265C31.6886 36.5265 30.567 36.6893 30.5851 36.9064C30.6032 37.1235 31.7067 37.3045 33.3711 37.2864Z" fill="black" fill-opacity="0.05"/>
<path d="M33.3711 37.3226C35.1802 37.3226 36.4828 37.1237 36.32 36.8885C35.3412 36.4882 34.2747 36.351 33.2264 36.4905C31.5439 36.4905 30.3137 36.6713 30.3318 36.9065C30.3499 37.1417 31.562 37.3226 33.3711 37.3226Z" fill="black" fill-opacity="0.05"/>
<path d="M33.3892 37.3569C35.3973 37.3569 36.7542 37.1398 36.5733 36.8685C35.5019 36.459 34.3471 36.3162 33.2083 36.4524C31.3992 36.4524 30.0604 36.6514 30.0966 36.9046C30.1328 37.1579 31.4173 37.3569 33.3892 37.3569Z" fill="black" fill-opacity="0.05"/>
<path d="M33.3892 37.3931C35.5602 37.3931 37.0075 37.1398 36.8085 36.8684C35.6552 36.4331 34.4151 36.2781 33.1902 36.4161C31.2183 36.4161 29.7891 36.6332 29.8252 36.9046C29.8614 37.1759 31.2725 37.3931 33.3892 37.3931Z" fill="black" fill-opacity="0.05"/>
<path d="M33.3892 37.4295C35.7049 37.4295 37.2788 37.1581 37.0075 36.8687C35.776 36.393 34.447 36.2253 33.1359 36.3802C31.0373 36.3802 29.5177 36.6154 29.5177 36.8868C29.5177 37.1581 31.1278 37.4295 33.3892 37.4295Z" fill="black" fill-opacity="0.05"/>
<path d="M33.3892 37.4641C35.8677 37.4641 37.5321 37.1746 37.315 36.867C36.0027 36.3614 34.5873 36.1814 33.1902 36.3424C30.9469 36.3424 29.3187 36.5957 29.3368 36.8851C29.3549 37.1746 30.965 37.4641 33.3892 37.4641Z" fill="black" fill-opacity="0.05"/>
<path d="M33.3892 37.5033C36.0305 37.5033 37.8035 37.1957 37.5502 36.8701C36.1582 36.3296 34.6554 36.137 33.1721 36.3093C30.8022 36.3093 29.0654 36.5806 29.1016 36.8882C29.1378 37.1957 30.8203 37.5033 33.3892 37.5033Z" fill="black" fill-opacity="0.05"/>
<path d="M33.3892 37.5386C36.1752 37.5386 38.0567 37.213 37.8035 36.8692C36.3301 36.3009 34.7414 36.0961 33.1721 36.2722C30.6393 36.2722 28.8121 36.5617 28.8483 36.8873C28.8845 37.213 30.6755 37.5386 33.3892 37.5386Z" fill="black" fill-opacity="0.05"/>
<path d="M33.4073 37.5733C36.3381 37.5733 38.3281 37.2295 38.0568 36.8677C36.4989 36.2587 34.8155 36.0412 33.154 36.2345C30.4946 36.2345 28.5589 36.542 28.595 36.8858C28.6312 37.2295 30.5308 37.5733 33.4073 37.5733Z" fill="black" fill-opacity="0.05"/>
<path d="M33.4073 37.6123C36.5009 37.6123 38.5814 37.2505 38.2919 36.8705C38.0025 36.4906 35.9582 36.2012 33.154 36.2012C30.3499 36.2012 28.3056 36.5268 28.3418 36.8886C28.3779 37.2505 30.3861 37.6123 33.4073 37.6123Z" fill="black" fill-opacity="0.05"/>
<path d="M33.4073 37.6455C36.6456 37.6455 38.8347 37.2656 38.5452 36.8676C38.2558 36.4696 36.0848 36.1621 33.1179 36.1621C30.1509 36.1621 28.0342 36.5058 28.0704 36.8857C28.1066 37.2657 30.2414 37.6455 33.4073 37.6455Z" fill="black" fill-opacity="0.05"/>
<path d="M33.4073 37.683C36.8085 37.683 39.106 37.285 38.8347 36.8689C38.5633 36.4528 36.2476 36.1272 33.1721 36.1453C30.0966 36.1633 27.8352 36.4709 27.8895 36.887C27.9437 37.3031 30.0242 37.683 33.4073 37.683Z" fill="black" fill-opacity="0.05"/>
<path d="M27.6 36.8873C27.6 36.4531 29.8976 36.1094 33.1178 36.1094C36.3381 36.1094 38.6719 36.3626 39.0337 36.8511C39.3955 37.3395 36.9713 37.7014 33.4073 37.7014C29.8433 37.7014 27.6543 37.3396 27.6 36.8873Z" fill="black" fill-opacity="0.05"/>
<path d="M25.8271 39.0423C22.7332 39.069 19.6421 38.8512 16.5825 38.391C14.2849 38.011 12.6567 37.4502 12.6567 36.7266C12.6567 36.0029 14.303 35.4421 16.5825 35.0441C19.6421 34.5839 22.7332 34.3661 25.8271 34.3928C28.921 34.3661 32.0122 34.5839 35.0717 35.0441C37.3693 35.4421 38.9975 36.0029 38.9975 36.7266C38.9975 37.4502 37.3512 38.011 35.0717 38.391C32.0122 38.8512 28.921 39.069 25.8271 39.0423ZM25.8271 38.8252C28.897 38.8529 31.9642 38.6351 34.9994 38.1739C35.9419 38.0337 36.8688 37.8035 37.7673 37.4864C38.4186 37.215 38.7081 36.9618 38.7081 36.7266C38.7081 36.4914 38.4186 36.22 37.7673 35.9486C36.8688 35.6315 35.9419 35.4014 34.9994 35.2612C31.9642 34.8 28.897 34.5821 25.8271 34.6099C22.7572 34.5821 19.69 34.8 16.6549 35.2612C15.7124 35.4014 14.7855 35.6315 13.8869 35.9486C13.2356 36.22 12.9462 36.4914 12.9462 36.7266C12.9462 36.9618 13.2356 37.215 13.8869 37.4864C14.7855 37.8035 15.7124 38.0337 16.6549 38.1739C19.69 38.6351 22.7572 38.8529 25.8271 38.8252Z" fill="#670F01" fill-opacity="0.23"/>
<path d="M25.5558 48.4291C28.0787 48.529 30.6013 48.2236 33.0274 47.5245V41.4277C27.7505 42.2237 22.3841 42.2237 17.1071 41.4277V47.615C19.8789 48.2343 22.7167 48.5078 25.5558 48.4291Z" fill="#471614" fill-opacity="0.34"/>
<path d="M25.8633 48.0872C28.3922 48.1869 30.9207 47.8816 33.3531 47.1827V41.0859C28.0762 41.8819 22.7097 41.8819 17.4328 41.0859V47.1827C20.1947 47.8323 23.0265 48.1361 25.8633 48.0872Z" fill="#BDBDBD"/>
<path d="M18.066 36.9043C18.066 36.9043 18.265 36.9043 18.5544 36.9043C18.8439 36.9043 19.0429 36.9043 19.061 36.9043C19.0791 36.9043 18.8801 36.9043 18.5725 36.9043C18.265 36.9043 18.066 36.9405 18.066 36.9043Z" fill="black" fill-opacity="0.05"/>
<path d="M18.5725 37.016C19.0429 37.016 19.3685 37.0159 19.3143 36.9074C19.26 36.7988 18.9705 36.7988 18.5364 36.7988C18.1022 36.7988 17.8127 36.7988 17.8127 36.9074C17.8127 37.0159 18.1202 37.016 18.5725 37.016Z" fill="black" fill-opacity="0.05"/>
<path d="M18.5725 37.0479C19.2057 37.0479 19.6218 37.0479 19.5676 36.8851C19.2369 36.7694 18.8852 36.7262 18.5364 36.7584C17.9574 36.7584 17.5594 36.7584 17.5594 36.9031C17.5594 37.0478 17.9755 37.0479 18.5725 37.0479Z" fill="black" fill-opacity="0.05"/>
<path d="M18.5906 37.0879C19.3686 37.0879 19.8932 36.9975 19.8027 36.8889C19.3945 36.7296 18.9533 36.6737 18.5183 36.7261C17.8127 36.7261 17.3062 36.7261 17.3062 36.907C17.3062 37.0879 17.8308 37.0879 18.5906 37.0879Z" fill="black" fill-opacity="0.05"/>
<path d="M18.5907 37.1229C19.5133 37.1229 20.1465 37.0143 20.056 36.8877C19.5671 36.6978 19.0394 36.6295 18.5183 36.6886C17.668 36.6886 17.0529 36.7791 17.071 36.9057C17.0891 37.0324 17.668 37.1229 18.5907 37.1229Z" fill="black" fill-opacity="0.05"/>
<path d="M18.5906 37.1398C19.6761 37.1398 20.3997 37.0313 20.3997 36.8865C19.8239 36.6658 19.2038 36.5852 18.5906 36.6513C17.6137 36.6513 16.89 36.7599 16.9081 36.9046C16.9262 37.0493 17.5232 37.1579 18.5906 37.1398Z" fill="black" fill-opacity="0.05"/>
<path d="M18.5906 37.1764C19.8389 37.1764 20.6711 37.0497 20.5626 36.8869C19.9005 36.6326 19.1873 36.5396 18.4821 36.6155C17.3604 36.6155 16.5463 36.7421 16.5644 36.9049C16.5825 37.0678 17.3604 37.1944 18.5906 37.1764Z" fill="black" fill-opacity="0.05"/>
<path d="M18.5906 37.2144C19.9837 37.2144 20.9244 37.0697 20.7978 36.8887C20.0639 36.5938 19.266 36.4941 18.4821 36.5993C17.2157 36.5993 16.2931 36.7259 16.3111 36.9068C16.3292 37.0877 17.2338 37.2325 18.5906 37.2144Z" fill="black" fill-opacity="0.05"/>
<path d="M18.5906 37.2494C20.1465 37.2494 21.1958 37.0866 21.0511 36.8876C20.2302 36.5615 19.34 36.4495 18.464 36.562C17.071 36.562 16.0398 36.7066 16.0579 36.9056C16.076 37.1046 17.0891 37.2675 18.5906 37.2494Z" fill="black" fill-opacity="0.05"/>
<path d="M18.6087 37.2838C20.3093 37.2838 21.449 37.1028 21.3043 36.8858C20.4026 36.53 19.4261 36.4056 18.464 36.5239C16.9081 36.5239 15.7865 36.6867 15.8227 36.9038C15.8589 37.1209 16.9443 37.3019 18.6087 37.2838Z" fill="black" fill-opacity="0.05"/>
<path d="M18.6087 37.3226C20.4178 37.3226 21.7204 37.1237 21.5395 36.8885C20.5607 36.4882 19.4942 36.351 18.4459 36.4905C16.7634 36.4905 15.5513 36.6713 15.5694 36.9065C15.5875 37.1417 16.7815 37.3226 18.6087 37.3226Z" fill="black" fill-opacity="0.05"/>
<path d="M18.6087 37.3585C20.6168 37.3585 21.9737 37.1415 21.7928 36.8701C20.7285 36.4579 19.5788 36.3149 18.4459 36.454C16.6368 36.454 15.298 36.653 15.3161 36.9063C15.3342 37.1595 16.6368 37.3585 18.6087 37.3585Z" fill="black" fill-opacity="0.05"/>
<path d="M18.6087 37.3951C20.7797 37.3951 22.227 37.1418 22.0461 36.8705C20.892 36.4385 19.6527 36.2836 18.4278 36.4182C16.474 36.4182 15.0447 36.6353 15.0628 36.9066C15.0809 37.178 16.492 37.3951 18.6087 37.3951Z" fill="black" fill-opacity="0.05"/>
<path d="M18.6087 37.4291C20.9425 37.4291 22.4984 37.1577 22.227 36.8682C21.0016 36.3933 19.6786 36.2257 18.3736 36.3798C16.2569 36.3798 14.7553 36.615 14.7553 36.8863C14.7553 37.1577 16.3473 37.4291 18.6087 37.4291Z" fill="black" fill-opacity="0.05"/>
<path d="M18.6087 37.4641C21.0872 37.4641 22.7697 37.1746 22.5345 36.867C21.2222 36.3614 19.8068 36.1814 18.4097 36.3424C16.1664 36.3424 14.5382 36.5957 14.5744 36.8851C14.6105 37.1746 16.2026 37.4641 18.6087 37.4641Z" fill="black" fill-opacity="0.05"/>
<path d="M18.6268 37.5029C21.2501 37.5029 23.023 37.1953 22.7878 36.8697C21.3948 36.3334 19.893 36.141 18.4097 36.3089C16.0217 36.3089 14.2849 36.5803 14.3211 36.8878C14.3573 37.1954 16.0579 37.5029 18.6268 37.5029Z" fill="black" fill-opacity="0.05"/>
<path d="M18.6268 37.539C21.4129 37.539 23.2944 37.2133 23.023 36.8696C21.5507 36.297 19.961 36.0921 18.3916 36.2726C15.877 36.2726 14.0316 36.5621 14.0678 36.8877C14.104 37.2134 15.895 37.539 18.6268 37.539Z" fill="black" fill-opacity="0.05"/>
<path d="M18.6268 37.5751C21.5576 37.5751 23.5476 37.2314 23.2763 36.8695C23.0049 36.5077 21.051 36.2363 18.3916 36.2363C15.7322 36.2363 13.7784 36.5439 13.8146 36.8876C13.8507 37.2314 15.7503 37.5751 18.6268 37.5751Z" fill="black" fill-opacity="0.05"/>
<path d="M18.6268 37.6123C21.7204 37.6123 23.8009 37.2505 23.5295 36.8705C23.2582 36.4906 21.1777 36.2012 18.3735 36.2012C15.5694 36.2012 13.5251 36.5268 13.5794 36.8886C13.6336 37.2505 15.5513 37.6123 18.6268 37.6123Z" fill="black" fill-opacity="0.05"/>
<path d="M18.6268 37.6455C21.8833 37.6455 24.0542 37.2656 23.7648 36.8676C23.4753 36.4696 21.3043 36.1621 18.3374 36.1621C15.3704 36.1621 13.2537 36.5058 13.308 36.8857C13.3623 37.2657 15.5513 37.6455 18.6268 37.6455Z" fill="black" fill-opacity="0.05"/>
<path d="M18.6268 37.683C22.028 37.683 24.3256 37.285 24.0542 36.8689C23.7828 36.4528 21.4671 36.1272 18.3916 36.1453C15.3161 36.1633 13.0728 36.4709 13.109 36.887C13.1452 37.3031 15.3161 37.683 18.6268 37.683Z" fill="black" fill-opacity="0.05"/>
<path d="M12.8195 36.8873C12.8195 36.4531 15.1171 36.1094 18.2469 36.1094C21.3767 36.1094 23.819 36.3626 24.1808 36.8511C24.5427 37.3395 22.1003 37.7014 18.5545 37.7014C15.0086 37.7014 12.8738 37.3396 12.8195 36.8873Z" fill="black" fill-opacity="0.05"/>
<path d="M25.8452 39.9828C22.6359 40.0093 19.4296 39.7794 16.2568 39.2953C14.9928 39.1437 13.7668 38.7636 12.6386 38.1737H12.5301V38.047C12.5301 38.047 12.5301 37.9566 12.5301 37.9023C12.773 38.1357 13.0629 38.3145 13.3803 38.427C14.3067 38.7667 15.2641 39.0151 16.2388 39.1687C19.3922 39.662 22.5812 39.892 25.7728 39.8562C28.9585 39.8928 32.1416 39.6629 35.2888 39.1687C36.2698 39.017 37.2333 38.7686 38.1653 38.427C38.4297 38.3213 38.6791 38.1814 38.9071 38.0109V37.9205V38.2461C37.78 38.8386 36.5535 39.2189 35.2888 39.3677C32.1619 39.8199 29.0043 40.0256 25.8452 39.9828Z" fill="#EFD57C" fill-opacity="0.23"/>
<path d="M25.8452 49.9144C22.6212 49.9575 19.4033 49.6236 16.2568 48.9194C14.9404 48.6763 13.7004 48.1245 12.6386 47.3093L12.5301 47.1827V47.0199C12.5301 47.0199 12.5301 46.8751 12.5301 46.8027C12.7433 47.125 13.0362 47.3868 13.3803 47.5626C14.28 48.0471 15.2417 48.4063 16.2388 48.63C19.3668 49.3343 22.5668 49.6683 25.7728 49.625C28.973 49.6695 32.1671 49.3356 35.2888 48.63C36.2924 48.4089 37.2605 48.0497 38.1653 47.5626C38.4477 47.4041 38.6991 47.1957 38.9071 46.9475V46.8208V47.2912C37.847 48.1094 36.6063 48.6616 35.2888 48.9013C32.1903 49.6004 29.0215 49.9404 25.8452 49.9144Z" fill="#EFD57C" fill-opacity="0.23"/>
<path d="M25.8452 47.8529C23.1227 47.9068 20.4046 47.6089 17.7584 46.9664V41.5391C22.8137 42.2988 27.9541 42.2988 33.0093 41.5391V46.9664C30.6865 47.6547 28.2658 47.9542 25.8452 47.8529ZM25.8452 47.7262C28.1614 47.8051 30.4768 47.5492 32.7199 46.9664L32.9732 46.8759V41.5752L31.164 41.8104C27.0508 42.2899 22.8938 42.2535 18.7896 41.7019L17.8851 41.5752V46.8578L18.2288 46.9664C20.731 47.5052 23.2859 47.76 25.8452 47.7262Z" fill="#CA922E"/>
<path d="M18.3554 44.4157C18.3553 44.294 18.4024 44.177 18.4867 44.0893C18.5711 44.0016 18.6861 43.95 18.8077 43.9453C18.9325 43.9453 19.0521 43.9948 19.1403 44.0831C19.2285 44.1713 19.2781 44.291 19.2781 44.4157C19.2781 44.4767 19.2659 44.537 19.242 44.593C19.2182 44.6491 19.1832 44.6998 19.1393 44.742C19.0954 44.7843 19.0433 44.8173 18.9864 44.8389C18.9294 44.8605 18.8686 44.8704 18.8077 44.868C18.6878 44.868 18.5727 44.8203 18.4879 44.7355C18.4031 44.6507 18.3554 44.5357 18.3554 44.4157Z" fill="url(#paint4_radial_2363_1746)"/>
<path d="M31.5801 44.4157C31.5801 44.291 31.6297 44.1713 31.7179 44.0831C31.8061 43.9948 31.9257 43.9453 32.0505 43.9453C32.1721 43.95 32.2871 44.0016 32.3715 44.0893C32.4558 44.177 32.5029 44.294 32.5028 44.4157C32.5028 44.5357 32.4551 44.6507 32.3703 44.7355C32.2855 44.8203 32.1704 44.868 32.0505 44.868C31.9288 44.8681 31.8118 44.821 31.7241 44.7366C31.6364 44.6523 31.5848 44.5373 31.5801 44.4157Z" fill="url(#paint5_radial_2363_1746)"/>
<path d="M24.4522 36.9063C24.7882 36.8588 25.1292 36.8588 25.4653 36.9063C25.8254 36.8567 26.1906 36.8567 26.5508 36.9063C26.2094 36.9637 25.8609 36.9637 25.5195 36.9063C25.1653 36.9536 24.8064 36.9536 24.4522 36.9063Z" fill="black" fill-opacity="0.05"/>
<path d="M25.5196 37.0131C26.0346 37.0648 26.5547 37.0281 27.0573 36.9045C26.5276 36.7984 25.9863 36.7619 25.4472 36.7959C24.9441 36.7577 24.438 36.7943 23.9456 36.9045C24.4626 37.0144 24.9924 37.051 25.5196 37.0131Z" fill="black" fill-opacity="0.05"/>
<path d="M25.5376 37.0505C26.8221 37.0505 27.6905 37.0506 27.5639 36.8877C26.8588 36.7692 26.1432 36.7268 25.4291 36.7611C24.7562 36.7113 24.0797 36.76 23.421 36.9058C24.1165 37.0509 24.8288 37.0997 25.5376 37.0505Z" fill="black" fill-opacity="0.05"/>
<path d="M25.5376 37.0846C27.1477 37.0846 28.2332 36.9941 28.0704 36.8856C27.1937 36.7245 26.3008 36.6698 25.411 36.7228C24.5744 36.6606 23.7333 36.7216 22.9144 36.9036C23.7761 37.0858 24.6591 37.1467 25.5376 37.0846Z" fill="black" fill-opacity="0.05"/>
<path d="M25.5376 37.1222C27.4734 37.1222 28.776 37.0137 28.5951 36.8871C27.5333 36.6936 26.4523 36.6267 25.3748 36.688C24.3746 36.604 23.3673 36.6772 22.3898 36.9051C23.4241 37.1219 24.4834 37.195 25.5376 37.1222Z" fill="black" fill-opacity="0.05"/>
<path d="M25.5557 37.1405C26.7671 37.2805 27.9939 37.1947 29.174 36.8872C27.9393 36.6615 26.6823 36.5825 25.4291 36.652C24.2651 36.5652 23.0947 36.6505 21.9556 36.9053C23.1385 37.1529 24.3506 37.2321 25.5557 37.1405Z" fill="black" fill-opacity="0.05"/>
<path d="M25.5557 37.178C26.9129 37.3274 28.286 37.2293 29.6082 36.8885C28.2008 36.6295 26.7676 36.5384 25.3387 36.6172C24.0049 36.5188 22.664 36.6163 21.3586 36.9066C22.7377 37.1957 24.1509 37.2871 25.5557 37.178Z" fill="black" fill-opacity="0.05"/>
<path d="M25.5557 37.2112C27.0887 37.3755 28.6386 37.2653 30.1328 36.8856C28.5474 36.5861 26.9304 36.4888 25.3206 36.5961C23.824 36.4746 22.3178 36.5783 20.852 36.9036C22.3975 37.2283 23.9812 37.3319 25.5557 37.2112Z" fill="black" fill-opacity="0.05"/>
<path d="M25.5738 37.2486C28.776 37.2486 31.0012 37.0858 30.6394 36.8868C28.8517 36.5462 27.0276 36.4367 25.212 36.5612C23.5458 36.4282 21.869 36.544 20.2369 36.9048C21.9904 37.2735 23.7876 37.3892 25.5738 37.2486Z" fill="black" fill-opacity="0.05"/>
<path d="M25.5738 37.2843C29.1921 37.2843 31.4716 37.1034 31.1459 36.8863C29.2149 36.5212 27.2457 36.3997 25.2844 36.5244C23.4664 36.3798 21.6371 36.5078 19.857 36.9043C21.7353 37.2992 23.6598 37.4271 25.5738 37.2843Z" fill="black" fill-opacity="0.05"/>
<path d="M25.5738 37.3199C29.4273 37.3199 32.0143 37.1209 31.6525 36.8857C29.5499 36.4779 27.4033 36.3441 25.2663 36.4877C23.2666 36.328 21.2543 36.4682 19.2962 36.9038C21.3602 37.3259 23.4721 37.4658 25.5738 37.3199Z" fill="black" fill-opacity="0.05"/>
<path d="M25.5919 37.3583C29.7529 37.3583 32.557 37.1413 32.1771 36.8699C29.8928 36.4513 27.5661 36.3116 25.2482 36.4538C23.0848 36.2809 20.9077 36.4333 18.7896 36.9061C21.0259 37.3656 23.3144 37.5177 25.5919 37.3583Z" fill="black" fill-opacity="0.05"/>
<path d="M25.5919 37.3946C30.0785 37.3946 33.0998 37.1413 32.6837 36.8699C30.2252 36.4294 27.7237 36.2776 25.2301 36.4177C21.1596 36.4177 18.2107 36.6347 18.265 36.9061C20.6737 37.4017 23.1387 37.5661 25.5919 37.3946Z" fill="black" fill-opacity="0.05"/>
<path d="M25.5919 37.4302C30.4042 37.4302 33.6425 37.1588 33.1902 36.8693C30.5602 36.3861 27.8814 36.2221 25.212 36.3809C20.852 36.3809 17.6861 36.6161 17.7584 36.8874C17.8308 37.1588 20.9787 37.4302 25.5919 37.4302Z" fill="black" fill-opacity="0.05"/>
<path d="M25.61 37.4659C30.7298 37.4659 34.1852 37.1764 33.7149 36.8689C30.8997 36.3533 28.0329 36.1772 25.1758 36.3442C20.5445 36.3442 17.1614 36.5975 17.2338 36.887C17.3061 37.1765 20.5987 37.4659 25.61 37.4659Z" fill="black" fill-opacity="0.05"/>
<path d="M25.61 37.5013C31.0374 37.5013 34.6556 37.1937 34.2214 36.8681C31.2394 36.3209 28.2026 36.1326 25.1758 36.3072C20.255 36.3072 16.6729 36.5786 16.7453 36.8862C16.8177 37.1937 20.2912 37.5013 25.61 37.5013Z" fill="black" fill-opacity="0.05"/>
<path d="M25.6281 37.5379C31.3811 37.5379 35.2707 37.2123 34.6737 36.8685C31.5129 36.2873 28.2938 36.0869 25.0853 36.2715C19.8751 36.2715 16.0397 36.561 16.1483 36.8866C16.2568 37.2123 20.0017 37.5379 25.6281 37.5379Z" fill="black" fill-opacity="0.05"/>
<path d="M25.6281 37.5751C31.7068 37.5751 35.7954 37.2314 35.2526 36.8695C34.7099 36.5077 30.6394 36.2363 25.1216 36.2363C19.6037 36.2363 15.6056 36.5439 15.696 36.8876C15.7865 37.2314 19.6942 37.5751 25.6281 37.5751Z" fill="black" fill-opacity="0.05"/>
<path d="M25.6281 37.6123C32.0324 37.6123 36.3381 37.2505 35.7592 36.8705C35.1803 36.4906 30.8927 36.2012 25.1035 36.2012C19.3143 36.2012 15.0809 36.5268 15.1714 36.8886C15.2618 37.2505 19.3866 37.6123 25.6281 37.6123Z" fill="black" fill-opacity="0.05"/>
<path d="M25.6462 37.6455C32.358 37.6455 36.8809 37.2656 36.2658 36.8676C35.6506 36.4696 31.164 36.1621 25.0854 36.1621C19.0067 36.1621 14.5744 36.5058 14.6648 36.8857C14.7553 37.2657 19.1695 37.6455 25.6462 37.6455Z" fill="black" fill-opacity="0.05"/>
<path d="M25.6462 37.683C32.6837 37.683 37.4236 37.285 36.7723 36.8689C36.121 36.4528 31.4354 36.1272 25.0673 36.1453C18.6991 36.1633 14.0497 36.4709 14.2125 36.887C14.3753 37.3031 18.7715 37.683 25.6462 37.683Z" fill="black" fill-opacity="0.05"/>
<path d="M13.6336 36.8873C13.5251 36.4531 18.3735 36.1094 25.0492 36.1094C31.7248 36.1094 36.5552 36.3626 37.2969 36.8511C38.0387 37.3395 33.0093 37.7014 25.6462 37.7014C18.2831 37.7014 13.7422 37.3396 13.6336 36.8873Z" fill="black" fill-opacity="0.05"/>
<path d="M15.9312 36.6341L25.4653 31.6229C25.6219 31.542 25.7956 31.4998 25.9719 31.4998C26.1481 31.4998 26.3218 31.542 26.4784 31.6229L36.0125 36.6161C37.5141 37.4121 38.491 36.6161 38.2015 35.024L36.3924 24.4226C36.3741 24.2459 36.3936 24.0674 36.4498 23.899C36.506 23.7305 36.5974 23.5759 36.7181 23.4456L44.4068 15.9378C45.6189 14.7619 45.239 13.604 43.5746 13.3688L32.937 11.813C32.7622 11.7827 32.5966 11.7132 32.4525 11.6098C32.3084 11.5065 32.1895 11.3718 32.1048 11.216L27.3287 1.57334C26.587 0.0536779 25.3748 0.0536779 24.6331 1.57334L19.8751 11.216C19.7858 11.3699 19.6659 11.5039 19.5227 11.6097C19.3796 11.7155 19.2163 11.7908 19.0429 11.8311L8.38718 13.3688C6.72279 13.6221 6.34287 14.7799 7.55499 15.9559L15.2618 23.4637C15.3856 23.5919 15.4791 23.7462 15.5354 23.9153C15.5917 24.0843 15.6095 24.2638 15.5875 24.4407L13.7784 35.0421C13.4708 36.7608 14.4477 37.4121 15.9312 36.6341Z" fill="url(#paint6_linear_2363_1746)"/>
<path d="M25.9176 20.2811L9.72591 18.092L7.53687 15.9573C6.32476 14.7814 6.70468 13.6235 8.36907 13.3883L11.535 12.918L25.9176 20.2811Z" fill="url(#paint7_linear_2363_1746)"/>
<path d="M26.1347 20.4762L23.2581 4.3931L24.615 1.66134C25.3748 0.159763 26.5869 0.159763 27.3287 1.66134L28.7398 4.53784L26.1347 20.4762Z" fill="url(#paint8_linear_2363_1746)"/>
<path d="M26.0623 20.4806L40.5353 12.9004L43.5565 13.3708C45.2209 13.6241 45.5828 14.7819 44.3706 15.9397L42.055 18.1469L26.0623 20.4806Z" fill="url(#paint9_linear_2363_1746)"/>
<path d="M25.809 20.4785L18.6811 35.1686L15.9674 36.5797C14.4658 37.3576 13.4889 36.5797 13.7784 34.9877L14.3392 31.8398L25.809 20.4785Z" fill="url(#paint10_linear_2363_1746)"/>
<path d="M25.9538 20.4785L33.1903 35.1686L35.8859 36.5797C37.3874 37.3576 38.3644 36.5797 38.0749 34.9877L37.5322 31.8398L25.9538 20.4785Z" fill="url(#paint11_linear_2363_1746)"/>
<path d="M24.5969 21.1645L15.7865 12.3902L19.1695 11.9018C19.3434 11.869 19.508 11.7986 19.6518 11.6955C19.7956 11.5923 19.915 11.459 20.0017 11.3047L21.25 8.75391L27.2744 19.283L26.0804 20.7665L24.5969 21.1645Z" fill="url(#paint12_linear_2363_1746)" fill-opacity="0.45"/>
<path d="M27.383 21.1645L36.1934 12.3902L32.8103 11.9018C32.6356 11.8715 32.47 11.802 32.3258 11.6986C32.1817 11.5952 32.0629 11.4606 31.9782 11.3047L30.7299 8.75391L24.7055 19.283L25.8995 20.7665L27.383 21.1645Z" fill="url(#paint13_linear_2363_1746)" fill-opacity="0.45"/>
<path d="M24.9226 18.543L12.7291 20.9129L15.2618 23.2105C15.4709 23.4566 15.5749 23.775 15.5513 24.097L15.1714 26.9192L26.0261 21.4918L25.8633 19.6827L24.9226 18.543Z" fill="url(#paint14_linear_2363_1746)" fill-opacity="0.45"/>
<path d="M26.9487 18.6699L39.1603 21.0399L36.6276 23.3375C36.4999 23.4604 36.4011 23.6102 36.3385 23.7761C36.276 23.9419 36.2511 24.1196 36.2657 24.2963L36.6456 27.1186L25.7909 21.6912L25.9718 19.882L26.9487 18.6699Z" fill="url(#paint15_linear_2363_1746)" fill-opacity="0.45"/>
<path d="M27.9619 20.7849L29.5358 33.1231L26.5508 31.4407C26.3926 31.3652 26.2195 31.326 26.0442 31.326C25.8689 31.326 25.6958 31.3652 25.5376 31.4407L22.9687 32.6709L24.7778 20.6764L26.5869 20.2422L27.9619 20.7849Z" fill="url(#paint16_linear_2363_1746)" fill-opacity="0.45"/>
<path d="M32.9732 31.5887L26.406 28.097C26.296 28.0441 26.1754 28.0166 26.0533 28.0166C25.9311 28.0166 25.8106 28.0441 25.7005 28.097L19.0429 31.5887C18.0117 32.1314 17.2338 31.5886 17.5233 30.467L18.7896 23.0676C18.8101 22.9468 18.8011 22.8229 18.7632 22.7063C18.7254 22.5898 18.66 22.4841 18.5725 22.3983L13.1452 17.1518C12.313 16.3377 12.5663 15.5236 13.7241 15.3427L21.1596 14.2572C21.2813 14.2363 21.3967 14.188 21.497 14.1159C21.5973 14.0438 21.6799 13.9499 21.7385 13.8411L25.0673 7.11119C25.5919 6.0619 26.4241 6.0619 26.8764 7.11119L30.2052 13.8411C30.2657 13.9501 30.3486 14.0452 30.4483 14.12C30.5481 14.1948 30.6625 14.2477 30.7841 14.2753L38.2015 15.3427C39.3775 15.5236 39.6307 16.3196 38.7985 17.1518L33.3712 22.3802C33.2888 22.4732 33.227 22.5824 33.1896 22.7009C33.1522 22.8193 33.1401 22.9442 33.1541 23.0676L34.4205 30.467C34.6918 31.6429 34.0044 32.1314 32.9732 31.5887Z" fill="url(#paint17_linear_2363_1746)"/>
<path d="M18.7896 23.0858L13.109 17.1518C12.2587 16.3377 12.5301 15.5236 13.6879 15.3427L21.1234 14.2753C21.2442 14.2457 21.3577 14.192 21.4572 14.1173C21.5567 14.0427 21.6401 13.9488 21.7023 13.8411L25.0311 7.11119C25.5377 6.0619 26.3879 6.0619 26.8402 7.11119L30.1509 13.8592C30.2142 13.9642 30.2981 14.0552 30.3977 14.1267C30.4972 14.1982 30.6102 14.2488 30.7298 14.2753L37.7311 15.3789C32.3761 15.6502 23.8733 17.7669 18.7896 23.0858Z" fill="url(#paint18_linear_2363_1746)" fill-opacity="0.49"/>
<path d="M33.9501 32.4C33.6628 32.3939 33.3822 32.3129 33.136 32.1648L26.406 28.6732C26.3231 28.6378 26.2339 28.6196 26.1437 28.6196C26.0536 28.6196 25.9643 28.6378 25.8814 28.6732L19.2238 32.1648C18.0479 32.7799 17.1976 32.1648 17.4147 30.8441L18.6811 23.4448C18.6913 23.2616 18.6333 23.0812 18.5183 22.9382L13.0909 17.6918C12.132 16.7691 12.4577 15.7741 13.7783 15.5751L21.2138 14.5077C21.393 14.4548 21.5471 14.3393 21.648 14.1821L24.9587 7.45216C25.5557 6.25814 26.605 6.25814 27.184 7.45216L30.5127 14.1821C30.5574 14.2644 30.6194 14.3361 30.6943 14.3923C30.7692 14.4485 30.8554 14.4879 30.9469 14.5077L38.3824 15.5932C39.7031 15.7741 40.0287 16.7691 39.0699 17.7099L33.6425 22.9382C33.5776 23.0083 33.5279 23.0912 33.4968 23.1815C33.4656 23.2718 33.4537 23.3677 33.4616 23.4629L34.728 30.8622C35.1079 31.8391 34.6737 32.4361 33.9501 32.4ZM33.9501 32.0201C34.4566 32.0201 34.728 31.6763 34.6014 30.9165L33.3169 23.5172C33.3004 23.3629 33.3178 23.2069 33.3678 23.0601C33.4178 22.9133 33.4992 22.7791 33.6063 22.6669L39.0337 17.4385C39.7574 16.7149 39.5584 16.1179 38.5633 15.955L31.1278 14.8877C30.9769 14.8566 30.8343 14.7937 30.7095 14.7033C30.5847 14.6128 30.4807 14.4968 30.4042 14.363L27.0935 7.61497C26.6412 6.71041 25.9899 6.71041 25.5377 7.61497L22.2089 14.363C22.1324 14.4968 22.0283 14.6128 21.9035 14.7033C21.7788 14.7937 21.6362 14.8566 21.4852 14.8877L14.0678 15.955C13.0547 16.0998 12.8557 16.7149 13.5793 17.4204L19.0067 22.6669C19.1087 22.7819 19.1855 22.9169 19.2322 23.0634C19.2789 23.2098 19.2946 23.3643 19.2781 23.5172L17.9936 30.9165C17.8308 31.9115 18.3554 32.2914 19.2419 31.821L25.8995 28.3294C26.0389 28.2671 26.19 28.2348 26.3427 28.2348C26.4955 28.2348 26.6465 28.2671 26.7859 28.3294L33.4435 31.821C33.5873 31.9147 33.7465 31.9821 33.9139 32.0201H33.9501Z" fill="#8A8987" fill-opacity="0.09"/>
<path d="M14.9905 36.9598C14.0316 36.9598 13.4708 36.2362 13.706 34.9155L15.5151 24.3683C15.527 24.2143 15.5074 24.0596 15.4577 23.9134C15.4079 23.7673 15.329 23.6327 15.2257 23.518L7.57307 16.0644C6.28859 14.8161 6.70469 13.5497 8.47763 13.2965L19.0429 11.7587C19.1974 11.7247 19.3432 11.6589 19.4709 11.5654C19.5986 11.472 19.7055 11.353 19.7846 11.216L24.5065 1.62762C25.3025 0.0355865 26.6231 0.0355865 27.4192 1.62762L32.1591 11.216C32.2326 11.3521 32.3358 11.4699 32.4611 11.5608C32.5863 11.6516 32.7305 11.7131 32.8827 11.7406L43.4661 13.2784C45.2752 13.5317 45.637 14.798 44.3525 16.0463L36.6999 23.518C36.598 23.633 36.5212 23.7681 36.4745 23.9145C36.4277 24.0609 36.4121 24.2155 36.4286 24.3683L38.2377 34.9155C38.5453 36.7246 37.4598 37.4483 35.8859 36.6161L26.406 31.641C26.2635 31.5782 26.1095 31.5458 25.9538 31.5458C25.798 31.5458 25.644 31.5782 25.5015 31.641L16.0398 36.6161C15.7186 36.8043 15.3608 36.9215 14.9905 36.9598ZM14.9905 36.7065C15.321 36.6659 15.6405 36.5615 15.9312 36.3989L25.3929 31.4239C25.5691 31.3439 25.7603 31.3026 25.9538 31.3026C26.1472 31.3026 26.3384 31.3439 26.5146 31.4239L35.9763 36.3989C37.3693 37.1226 38.2377 36.4894 37.9663 34.9517L36.1572 24.4226C36.1336 24.2261 36.1538 24.0269 36.2163 23.8392C36.2789 23.6515 36.3823 23.4801 36.519 23.3371L44.1716 15.8654C45.2933 14.7799 44.9676 13.7487 43.4118 13.5317L32.8284 11.9939C32.6353 11.9559 32.4527 11.8764 32.2934 11.7608C32.1341 11.6452 32.0018 11.4963 31.9058 11.3245L27.1659 1.73616C26.4784 0.343133 25.3567 0.343133 24.7236 1.73616L19.9837 11.3245C19.8907 11.4987 19.7593 11.6495 19.5994 11.7655C19.4396 11.8814 19.2555 11.9596 19.061 11.9939L8.49572 13.5317C6.93987 13.7668 6.6866 14.78 7.73589 15.8835L15.3885 23.3371C15.5231 23.4809 15.6239 23.6531 15.6833 23.8409C15.7428 24.0287 15.7595 24.2274 15.7322 24.4226L13.9231 34.9517C13.7422 36.1095 14.1945 36.7608 15.0086 36.7608L14.9905 36.7065Z" fill="url(#paint19_linear_2363_1746)" fill-opacity="0.44"/>
<path d="M25.809 19.9495L20.056 14.4316H20.5807L25.809 19.9495Z" fill="white"/>
<path d="M34.2396 28.9968L25.8271 19.9512L34.0406 27.857L34.2396 28.9968Z" fill="white"/>
<path d="M25.809 19.9513L25.5377 6.47332C25.6363 6.42533 25.7446 6.40039 25.8543 6.40039C25.964 6.40039 26.0722 6.42533 26.1709 6.47332L25.809 19.9513Z" fill="white"/>
<path d="M25.5377 28.1279L25.809 19.9688L25.9719 28.0194C25.8591 27.9903 25.7409 27.9903 25.6281 28.0194L25.5377 28.1279Z" fill="white"/>
<path d="M25.8271 19.952L31.2545 14.3438H31.7972L25.8271 19.952Z" fill="white"/>
<path d="M17.8127 28.3112L17.9755 27.2619L25.809 20.0254L17.8127 28.3112Z" fill="white"/>
<path d="M35.5964 20.2966L25.8271 19.971L36.1572 19.7539L35.5964 20.2966Z" fill="white"/>
<path d="M16.1845 20.1521L15.6237 19.6094L25.809 19.9712L16.1845 20.1521Z" fill="white"/>
<path d="M25.809 19.9503L22.4802 12.2977L22.7516 11.7188L25.809 19.9503Z" fill="white"/>
<path d="M25.8271 19.9519L29.1016 11.5938L29.3911 12.1546L25.8271 19.9519Z" fill="white"/>
<path d="M20.9787 30.5159L25.809 19.9688L21.847 30.0636L20.9787 30.5159Z" fill="white"/>
<path d="M25.8271 19.9504L36.8447 15.1562L38.2015 15.3553L25.8271 19.9504Z" fill="white"/>
<path d="M18.6992 23.0642V22.9014C18.7077 22.8353 18.7077 22.7684 18.6992 22.7024L25.9357 20.043L18.6992 23.0642Z" fill="white"/>
<path d="M33.2807 23.388L25.8271 19.9688L33.2264 22.8814C33.2083 22.9404 33.2083 23.0034 33.2264 23.0623L33.2807 23.388Z" fill="white"/>
<path d="M25.809 19.9509L13.9955 15.3196L15.2618 15.1387L25.809 19.9509Z" fill="white"/>
<path d="M30.1509 30.0999L29.3549 29.6837L25.7367 19.9688L30.1509 30.0999Z" fill="white"/>
<path d="M25.8091 19.9516L21.6481 13.9272L21.8109 13.6016L25.8091 19.9516Z" fill="white"/>
<path d="M33.6425 31.7999C33.3986 31.7875 33.1619 31.7128 32.9551 31.5828L25.8452 19.9863L34.0044 31.7818C33.8872 31.8184 33.7627 31.8247 33.6425 31.7999Z" fill="white"/>
<path d="M25.809 19.9501L27.8171 8.96875L28.2332 9.81904L25.809 19.9501Z" fill="white"/>
<path d="M23.62 29.141L25.809 19.9688L24.1989 28.8334L23.62 29.141Z" fill="white"/>
<path d="M25.8271 19.9506L33.4616 14.668L34.2576 14.7765L25.8271 19.9506Z" fill="white"/>
<path d="M18.3555 25.1248L18.464 24.4735L25.809 19.9688L18.3555 25.1248Z" fill="white"/>
<path d="M33.9501 21.9045L25.8271 19.9688L34.3481 21.5246L33.9501 21.9045Z" fill="white"/>
<path d="M25.809 19.9711L13.7422 17.7639L13.109 17.1488L12.9642 17.0041L12.8557 16.8594L25.809 19.9711Z" fill="white"/>
<path d="M25.809 19.9491L23.6562 9.89036L24.1084 9.00391L25.809 19.9491Z" fill="white"/>
<path d="M25.8271 19.9518L30.0243 13.457L30.2233 13.8731L25.8271 19.9518Z" fill="white"/>
<path d="M18.1384 31.7999H17.9574C17.7898 31.7531 17.6471 31.6427 17.5594 31.4924V31.3838L25.8633 19.9863L18.1384 31.7999Z" fill="white"/>
<path d="M25.8271 19.9691L38.7805 17.2012L37.8759 18.0695L25.8271 19.9691Z" fill="white"/>
<path d="M17.7584 21.6874L17.3423 21.2894L25.809 19.9688L17.7584 21.6874Z" fill="white"/>
<path d="M33.6425 25.6856L25.7909 19.9688L33.5159 24.98L33.6425 25.6856Z" fill="white"/>
<path d="M25.809 19.9511L17.7946 14.7589L18.5364 14.6504L25.809 19.9511Z" fill="white"/>
<path d="M27.6362 28.7792L27.0935 28.5078L25.809 19.9688L27.6362 28.7792Z" fill="white"/>
<path d="M25.809 19.9527L20.9787 14.3083H21.1415L21.3948 14.1816L25.809 19.9527Z" fill="white"/>
<path d="M34.4747 31.3319L25.8271 20.043L34.4024 30.0655V30.554C34.4582 30.7981 34.4582 31.0516 34.4024 31.2957L34.4747 31.3319Z" fill="white"/>
<path d="M25.809 19.9524L26.8221 6.96289L26.9126 7.12571L27.383 8.08454L25.809 19.9524Z" fill="white"/>
<path d="M24.5969 28.5802L25.7367 19.9688L25.1035 28.3269L24.5969 28.5802Z" fill="white"/>
<path d="M25.8271 19.9508L32.2133 14.5234L32.8465 14.6139L25.8271 19.9508Z" fill="white"/>
<path d="M18.1022 26.572L18.2469 25.7579L25.809 19.9688L18.1022 26.572Z" fill="white"/>
<path d="M34.728 21.1447L25.8271 19.9688L35.1984 20.6924L34.728 21.1447Z" fill="white"/>
<path d="M25.809 19.9689L15.1533 19.1367L14.4477 18.4492L25.809 19.9689Z" fill="white"/>
<path d="M25.809 19.9519L22.9868 11.2499L23.3305 10.5625L25.809 19.9519Z" fill="white"/>
<path d="M25.8271 19.9515L29.5901 12.5703L29.8253 13.0588L25.8271 19.9515Z" fill="white"/>
<path d="M19.1695 31.511L25.8814 19.9688L20.2912 30.8235L19.1695 31.511Z" fill="white"/>
<path d="M25.8271 19.9712L39.0337 15.6836L39.1604 15.7921C39.2673 15.9324 39.3245 16.1042 39.3232 16.2806V16.4072L25.8271 19.9712Z" fill="white"/>
<path d="M18.4459 22.2865L18.0841 21.9428L25.809 19.8984L18.4459 22.2865Z" fill="white"/>
<path d="M33.4435 24.4011L25.8271 19.9688L33.3531 23.8041L33.4435 24.4011Z" fill="white"/>
<path d="M25.809 19.9537L16.1122 15.051L17.0529 14.9062L25.809 19.9537Z" fill="white"/>
<path d="M28.8122 29.3932L28.1609 29.0495L25.8271 20.0039L28.8122 29.3932Z" fill="white"/>
<path d="M25.8091 19.9503L22.0461 13.2385L22.2813 12.75L25.8091 19.9503Z" fill="white"/>
<path d="M32.0143 31.0767L30.965 30.534L25.8271 19.9688L32.0143 31.0767Z" fill="white"/>
<path d="M25.8271 19.9521L28.5227 10.418L28.8665 11.1054L25.8271 19.9521Z" fill="white"/>
<path d="M22.4441 29.7561L25.8091 19.9688L23.1316 29.3943L22.4441 29.7561Z" fill="white"/>
<path d="M25.8271 19.9503L34.8728 14.8848L35.8859 15.0295L25.8271 19.9503Z" fill="white"/>
<path d="M18.5364 24.0954L18.6449 23.5346L25.8814 20.043L18.5364 24.0954Z" fill="white"/>
<path d="M33.335 22.5558L25.8271 19.9688L33.6425 22.2844L33.4255 22.4834L33.3169 22.6282L33.335 22.5558Z" fill="white"/>
<path d="M25.809 19.9518L12.6205 16.2069V16.0079C12.6468 15.9189 12.6908 15.8362 12.7499 15.7647C12.8089 15.6932 12.8819 15.6344 12.9643 15.5918L25.809 19.9518Z" fill="white"/>
<path d="M25.809 19.9517L24.4884 8.22857L25.0311 7.125L25.809 19.9517Z" fill="white"/>
<path d="M25.8271 19.9504L30.4585 14.125C30.5559 14.1952 30.6667 14.2445 30.7841 14.2697L25.8271 19.9504Z" fill="white"/>
<path d="M17.3604 30.4974L17.5956 29.1405L25.7367 19.9863L17.3604 30.4974Z" fill="white"/>
<path d="M25.8271 19.9705L37.2608 18.668L36.5733 19.3373L25.8271 19.9705Z" fill="white"/>
<path d="M17.0167 20.9638L16.5463 20.5115L25.809 19.9688L17.0167 20.9638Z" fill="white"/>
<path d="M33.932 27.1876L25.8271 19.9512L33.7692 26.2831L33.932 27.1876Z" fill="white"/>
<path d="M25.809 19.9495L19.0429 14.5221L19.658 14.4316L25.809 19.9495Z" fill="white"/>
<path d="M26.7136 28.2897L26.3156 28.0907L25.8814 20.0039L26.7136 28.2897Z" fill="white"/>
<path d="M33.6425 32.0034C33.3645 31.9769 33.0943 31.897 32.8465 31.7682L26.1889 28.2585C26.106 28.2231 26.0168 28.205 25.9266 28.205C25.8365 28.205 25.7472 28.2231 25.6643 28.2585L19.0067 31.7501C17.8308 32.3833 16.9805 31.7501 17.1976 30.4475L18.464 23.0482C18.4779 22.8646 18.4195 22.6828 18.3012 22.5417L12.8738 17.2952C11.915 16.3545 12.2406 15.3595 13.5613 15.1785L20.9787 14.0931C21.0699 14.0789 21.1566 14.0437 21.2319 13.9903C21.3073 13.9369 21.3692 13.8669 21.4129 13.7855L24.7416 7.05557C25.3387 5.84346 26.3879 5.84346 26.9669 7.05557L30.2957 13.7855C30.3414 13.8652 30.4039 13.934 30.4789 13.9871C30.5539 14.0402 30.6395 14.0764 30.7298 14.0931L38.1653 15.1785C39.486 15.3775 39.7936 16.3726 38.8528 17.2952L33.4254 22.5417C33.3071 22.6828 33.2487 22.8646 33.2626 23.0482L34.529 30.4475C34.8546 31.4426 34.4205 32.0215 33.6425 32.0034ZM33.6425 31.6235C34.1491 31.6235 34.4205 31.2616 34.2757 30.5199L33.0274 23.1206C33.0019 22.9675 33.0131 22.8105 33.0603 22.6626C33.1075 22.5148 33.1893 22.3803 33.2988 22.2703L38.7262 17.0238C39.4498 16.3183 39.2508 15.7032 38.2558 15.5584L30.8203 14.473C30.668 14.4454 30.5239 14.384 30.3987 14.2931C30.2734 14.2023 30.1702 14.0845 30.0967 13.9483L26.7859 7.21838C26.3337 6.29573 25.6824 6.29573 25.2301 7.21838L21.9013 13.9483C21.8278 14.0845 21.7246 14.2023 21.5993 14.2931C21.474 14.384 21.3299 14.4454 21.1777 14.473L13.7603 15.5584C12.7472 15.7032 12.5482 16.3183 13.2718 17.0238L18.6992 22.2522C18.8063 22.3644 18.8877 22.4986 18.9377 22.6454C18.9877 22.7923 19.0051 22.9482 18.9886 23.1025L17.7041 30.5018C17.5413 31.5149 18.066 31.8948 18.9524 31.4244L25.61 27.9328C25.7469 27.8615 25.8989 27.8242 26.0533 27.8242C26.2076 27.8242 26.3596 27.8615 26.4965 27.9328L33.136 31.4244C33.295 31.5134 33.4654 31.5804 33.6425 31.6235Z" fill="url(#paint20_linear_2363_1746)"/>
<path d="M21.1777 21.9804C20.862 22.0995 20.5345 22.1844 20.2007 22.2337C19.9913 22.2709 19.777 22.2709 19.5675 22.2337C19.4721 22.2323 19.3782 22.2087 19.2934 22.1647C19.2086 22.1208 19.1352 22.0577 19.0791 21.9804C19.0251 21.8869 18.9967 21.7809 18.9967 21.6729C18.9967 21.5649 19.0251 21.4588 19.0791 21.3653C19.1734 21.153 19.3017 20.9574 19.459 20.7864C19.6829 20.5215 19.9381 20.2846 20.2188 20.0808C20.6271 19.7543 21.0629 19.4637 21.5214 19.2125C21.9754 18.9511 22.4469 18.7214 22.9325 18.525C23.26 18.3915 23.5992 18.2885 23.9456 18.2175C24.1854 18.1801 24.4295 18.1801 24.6693 18.2175C24.7805 18.2124 24.8914 18.2345 24.9922 18.2817C25.093 18.329 25.1809 18.4001 25.2482 18.4888C25.3022 18.5823 25.3306 18.6884 25.3306 18.7964C25.3306 18.9044 25.3022 19.0104 25.2482 19.1039C25.1517 19.3096 25.0235 19.4988 24.8683 19.6648C24.6377 19.9351 24.3767 20.1779 24.0904 20.3884C23.6836 20.7029 23.2543 20.9871 22.8059 21.2387C22.287 21.5353 21.742 21.7836 21.1777 21.9804Z" fill="white" fill-opacity="0.15"/>
<path d="M21.2319 21.7987C20.9561 21.9208 20.6633 22.0001 20.3636 22.0339C20.1784 22.0705 19.9879 22.0705 19.8027 22.0339C19.7163 22.035 19.631 22.0139 19.555 21.9728C19.479 21.9316 19.4148 21.8717 19.3685 21.7987C19.3242 21.7151 19.301 21.622 19.301 21.5273C19.301 21.4327 19.3242 21.3395 19.3685 21.256C19.4555 21.0699 19.5715 20.8989 19.7123 20.7494C19.9221 20.5183 20.1522 20.3064 20.3997 20.1162C20.7733 19.8159 21.1729 19.5496 21.5938 19.3202C22.0116 19.077 22.447 18.8653 22.8963 18.687C23.1888 18.5643 23.4915 18.4674 23.8009 18.3976C24.0111 18.3701 24.2239 18.3701 24.4341 18.3976C24.5339 18.3926 24.6335 18.4113 24.7246 18.4522C24.8158 18.493 24.896 18.5549 24.9587 18.6327C25.0031 18.7163 25.0263 18.8095 25.0263 18.9041C25.0263 18.9987 25.0031 19.0919 24.9587 19.1755C24.8654 19.3578 24.7499 19.5279 24.615 19.682C24.4056 19.9136 24.1755 20.1256 23.9275 20.3152C23.5512 20.6118 23.152 20.8779 22.7335 21.1112C22.2591 21.3935 21.7556 21.624 21.2319 21.7987Z" fill="white" fill-opacity="0.15"/>
<path d="M21.3043 21.6354C21.0529 21.7296 20.7921 21.7963 20.5264 21.8344C20.3647 21.8617 20.1996 21.8617 20.0379 21.8344C19.9641 21.8299 19.8922 21.8098 19.8267 21.7755C19.7612 21.7412 19.7037 21.6935 19.658 21.6354C19.6227 21.562 19.6044 21.4816 19.6044 21.4002C19.6044 21.3188 19.6227 21.2384 19.658 21.165C19.733 21.0071 19.8305 20.8608 19.9475 20.7308C20.1425 20.5275 20.3478 20.3342 20.5626 20.1519C20.9063 19.8987 21.3043 19.6454 21.6661 19.4283C22.0515 19.2102 22.4503 19.0168 22.8602 18.8494C23.1202 18.7492 23.386 18.6646 23.6562 18.5961C23.842 18.5669 24.0312 18.5669 24.217 18.5961C24.302 18.5962 24.3861 18.6139 24.464 18.6482C24.5418 18.6824 24.6117 18.7325 24.6693 18.7951C24.7046 18.8685 24.7229 18.9488 24.7229 19.0303C24.7229 19.1117 24.7046 19.1921 24.6693 19.2654C24.5881 19.4296 24.4846 19.5818 24.3617 19.7177C24.182 19.9242 23.982 20.1121 23.7647 20.2786C23.4168 20.5489 23.0477 20.7908 22.6611 21.0022C22.2264 21.2489 21.7727 21.4606 21.3043 21.6354Z" fill="white" fill-opacity="0.15"/>
<path d="M21.3586 21.4726C21.1405 21.5459 20.9166 21.6004 20.6892 21.6355C20.3816 21.6355 20.0741 21.6355 19.9475 21.4907C19.9206 21.4278 19.9067 21.3601 19.9067 21.2917C19.9067 21.2233 19.9206 21.1556 19.9475 21.0927C20.017 20.9568 20.102 20.8293 20.2007 20.7128C20.361 20.535 20.5365 20.3715 20.7254 20.2243C21.0489 19.9805 21.3873 19.757 21.7385 19.555C22.0876 19.355 22.4503 19.1797 22.824 19.0303C23.0459 18.9367 23.276 18.8641 23.5114 18.8132C23.6671 18.7862 23.8262 18.7862 23.9818 18.8132C24.055 18.8103 24.1279 18.8253 24.1941 18.8568C24.2603 18.8883 24.3178 18.9354 24.3617 18.9941C24.3934 19.0557 24.41 19.1239 24.41 19.1931C24.41 19.2624 24.3934 19.3306 24.3617 19.3921C24.2924 19.5226 24.2073 19.6442 24.1084 19.754C23.9424 19.9326 23.7608 20.096 23.5657 20.2424C23.2528 20.4922 22.92 20.7161 22.5707 20.9118C22.1818 21.1299 21.7765 21.3174 21.3586 21.4726Z" fill="white" fill-opacity="0.15"/>
<path d="M21.4129 21.2932C21.2308 21.363 21.0432 21.4175 20.852 21.456C20.6349 21.456 20.3455 21.456 20.255 21.3113C20.228 21.2645 20.2138 21.2115 20.2138 21.1575C20.2138 21.1035 20.228 21.0504 20.255 21.0037C20.3125 20.8859 20.3855 20.7764 20.4721 20.6781C20.6133 20.5293 20.7644 20.3903 20.9244 20.262C21.2132 20.0444 21.5153 19.845 21.8289 19.665C22.1365 19.5021 22.4802 19.3212 22.7878 19.1946C22.9871 19.1162 23.1929 19.0557 23.4029 19.0137H23.7828C23.8414 19.0148 23.899 19.0283 23.952 19.0532C24.005 19.0781 24.0522 19.114 24.0904 19.1584C24.1173 19.2085 24.1314 19.2644 24.1314 19.3212C24.1314 19.378 24.1173 19.434 24.0904 19.484C24.0413 19.5968 23.9741 19.7007 23.8913 19.7916C23.7502 19.9403 23.5991 20.0794 23.4391 20.2077C23.1517 20.4274 22.8495 20.6269 22.5345 20.8047C22.1795 21.0078 21.8034 21.1716 21.4129 21.2932Z" fill="white" fill-opacity="0.15"/>
<path d="M21.4671 21.1325L21.0148 21.2591C20.8339 21.2591 20.6168 21.2591 20.5445 21.1506C20.4721 21.042 20.5445 20.825 20.7254 20.6621C20.832 20.5337 20.9535 20.4183 21.0872 20.3184C21.3384 20.1229 21.6045 19.9475 21.8832 19.7937C22.1633 19.631 22.4534 19.486 22.7516 19.3596L23.2582 19.2148C23.4572 19.2148 23.7104 19.2148 23.8009 19.2148C23.8914 19.2148 23.8009 19.5586 23.62 19.7033C23.5116 19.8417 23.3836 19.9636 23.2401 20.0651C22.9906 20.263 22.7243 20.4386 22.4441 20.5898C22.1336 20.7968 21.8069 20.9783 21.4671 21.1325Z" fill="white" fill-opacity="0.15"/>
<path d="M21.5214 20.9483L21.1777 21.0569C21.051 21.0569 20.8882 21.0569 20.8339 21.0569C20.7797 21.0569 20.8339 20.8036 20.9606 20.695C21.0544 20.5952 21.1574 20.5044 21.2681 20.4237C21.486 20.2564 21.7158 20.1053 21.9556 19.9714C22.1995 19.8268 22.4534 19.6998 22.7154 19.5915L23.1134 19.4648C23.2401 19.4648 23.4391 19.4648 23.4933 19.4648C23.5476 19.4648 23.4933 19.7181 23.3667 19.8086C23.284 19.9127 23.1865 20.0042 23.0772 20.0799C22.855 20.2553 22.619 20.4125 22.3717 20.5503C22.103 20.7123 21.818 20.8457 21.5214 20.9483Z" fill="white" fill-opacity="0.15"/>
<path d="M21.5938 20.7863H21.3405C21.25 20.7863 21.1596 20.7863 21.1415 20.7863C21.1234 20.7863 21.1415 20.6416 21.1415 20.5873C21.2049 20.5119 21.2779 20.445 21.3586 20.3883C21.549 20.2432 21.7484 20.1103 21.9556 19.9903C22.1671 19.8709 22.3844 19.7622 22.6069 19.6647L22.8963 19.5742C22.8963 19.5742 23.0953 19.5742 23.1315 19.5742C23.1677 19.5742 23.1315 19.7189 23.1315 19.7913L22.9144 19.9903C22.7516 20.1169 22.5345 20.2436 22.2993 20.3883C22.0754 20.54 21.8394 20.6731 21.5938 20.7863Z" fill="white" fill-opacity="0.15"/>
<path d="M22.1003 20.1163C22.5164 19.8812 22.8782 19.7364 22.9144 19.7907C22.9506 19.845 22.643 20.0983 22.2269 20.3154C21.8108 20.5324 21.4671 20.6953 21.4309 20.641C21.3948 20.5867 21.7023 20.3515 22.1003 20.1163Z" fill="white" fill-opacity="0.15"/>
<defs>
<linearGradient id="paint0_linear_2363_1746" x1="-4686.34" y1="-1637.67" x2="-5394.71" y2="-1637.67" gradientUnits="userSpaceOnUse">
<stop stop-color="#4D110E"/>
<stop offset="0.42" stop-color="#C88A5D"/>
<stop offset="1" stop-color="#471614"/>
</linearGradient>
<linearGradient id="paint1_linear_2363_1746" x1="-5235.72" y1="5268.62" x2="-5251.7" y2="5157.3" gradientUnits="userSpaceOnUse">
<stop stop-color="#C88A5D"/>
<stop offset="1" stop-color="#4D110E"/>
</linearGradient>
<linearGradient id="paint2_linear_2363_1746" x1="-4463.97" y1="13174.3" x2="-4995.03" y2="13174.3" gradientUnits="userSpaceOnUse">
<stop stop-color="#4D110E"/>
<stop offset="0.42" stop-color="#C88A5D"/>
<stop offset="1" stop-color="#471614"/>
</linearGradient>
<linearGradient id="paint3_linear_2363_1746" x1="5021.18" y1="4053.79" x2="4898.79" y2="3816.84" gradientUnits="userSpaceOnUse">
<stop stop-color="#C88A5D"/>
<stop offset="1" stop-color="#4D110E"/>
</linearGradient>
<radialGradient id="paint4_radial_2363_1746" cx="0" cy="0" r="1" gradientUnits="userSpaceOnUse" gradientTransform="translate(209.807 -350.173) rotate(90) scale(0.359842 0.244785)">
<stop stop-color="#EFD57C"/>
<stop offset="1" stop-color="#CA922E"/>
</radialGradient>
<radialGradient id="paint5_radial_2363_1746" cx="0" cy="0" r="1" gradientUnits="userSpaceOnUse" gradientTransform="translate(227.817 -336.948) rotate(90) scale(0.359842 0.244687)">
<stop stop-color="#EFD57C"/>
<stop offset="1" stop-color="#CA922E"/>
</radialGradient>
<linearGradient id="paint6_linear_2363_1746" x1="19.2781" y1="5.49914" x2="40.8971" y2="47.5793" gradientUnits="userSpaceOnUse">
<stop stop-color="#E2E2E2"/>
<stop offset="0.31" stop-color="#BFBFBF"/>
<stop offset="1" stop-color="#8A8987"/>
</linearGradient>
<linearGradient id="paint7_linear_2363_1746" x1="16.7996" y1="16.0477" x2="15.895" y2="18.7976" gradientUnits="userSpaceOnUse">
<stop stop-color="#D6D6D6"/>
<stop offset="0.5" stop-color="white"/>
<stop offset="1" stop-color="#CFCFCF"/>
</linearGradient>
<linearGradient id="paint8_linear_2363_1746" x1="27.3649" y1="10.5803" x2="24.4703" y2="10.5441" gradientUnits="userSpaceOnUse">
<stop stop-color="#D5D5D5"/>
<stop offset="0.5" stop-color="white"/>
<stop offset="1" stop-color="#DCDCDC"/>
</linearGradient>
<linearGradient id="paint9_linear_2363_1746" x1="35.922" y1="18.6715" x2="35.0717" y2="15.9035" gradientUnits="userSpaceOnUse">
<stop stop-color="#B5B4B4"/>
<stop offset="0.5" stop-color="#E8E8E8"/>
<stop offset="1" stop-color="#BDBDBD"/>
</linearGradient>
<linearGradient id="paint10_linear_2363_1746" x1="18.9524" y1="27.7874" x2="21.2862" y2="29.506" gradientUnits="userSpaceOnUse">
<stop stop-color="#B6B5B5"/>
<stop offset="0.5" stop-color="#CCCCCC"/>
<stop offset="1" stop-color="#AEAEAD"/>
</linearGradient>
<linearGradient id="paint11_linear_2363_1746" x1="32.8053" y1="27.7912" x2="30.483" y2="29.5191" gradientUnits="userSpaceOnUse">
<stop stop-color="#A6A6A5"/>
<stop offset="0.5" stop-color="#C1C1C1"/>
<stop offset="1" stop-color="#A6A6A5"/>
</linearGradient>
<linearGradient id="paint12_linear_2363_1746" x1="21.1958" y1="16.298" x2="24.3979" y2="13.7652" gradientUnits="userSpaceOnUse">
<stop stop-color="#D3D3D3"/>
<stop offset="0.36" stop-color="#9E9E9E"/>
<stop offset="1" stop-color="#D6D6D6"/>
</linearGradient>
<linearGradient id="paint13_linear_2363_1746" x1="29.4968" y1="17.5267" x2="26.3076" y2="14.9918" gradientUnits="userSpaceOnUse">
<stop stop-color="#BFBFBF"/>
<stop offset="0.36" stop-color="#A4A4A1"/>
<stop offset="1" stop-color="#CECECE"/>
</linearGradient>
<linearGradient id="paint14_linear_2363_1746" x1="19.4771" y1="20.8044" x2="20.6168" y2="24.7664" gradientUnits="userSpaceOnUse">
<stop stop-color="#C9C9C9"/>
<stop offset="0.36" stop-color="#9A9A9A"/>
<stop offset="1" stop-color="#BABABA"/>
</linearGradient>
<linearGradient id="paint15_linear_2363_1746" x1="32.4304" y1="20.859" x2="31.1821" y2="24.7667" gradientUnits="userSpaceOnUse">
<stop stop-color="#B3B3B3"/>
<stop offset="0.35" stop-color="#8C8C8C"/>
<stop offset="1" stop-color="#ACABAB"/>
</linearGradient>
<linearGradient id="paint16_linear_2363_1746" x1="27.6" y1="26.6646" x2="23.5114" y2="26.7188" gradientUnits="userSpaceOnUse">
<stop stop-color="#AAA9A9"/>
<stop offset="0.36" stop-color="#7F7F7F"/>
<stop offset="1" stop-color="#B0AFAF"/>
</linearGradient>
<linearGradient id="paint17_linear_2363_1746" x1="25.5015" y1="17.0976" x2="35.5059" y2="39.8925" gradientUnits="userSpaceOnUse">
<stop stop-color="#E2E2E2"/>
<stop offset="0.27" stop-color="#BFBFBF"/>
<stop offset="1" stop-color="#8A8987"/>
</linearGradient>
<linearGradient id="paint18_linear_2363_1746" x1="23.0592" y1="12.3396" x2="26.2432" y2="17.6765" gradientUnits="userSpaceOnUse">
<stop stop-color="#D4D4D4"/>
<stop offset="1" stop-color="white"/>
</linearGradient>
<linearGradient id="paint19_linear_2363_1746" x1="-6371.3" y1="34137.2" x2="-6049.21" y2="34560" gradientUnits="userSpaceOnUse">
<stop stop-color="white"/>
<stop offset="1" stop-color="#E2E2E2"/>
</linearGradient>
<linearGradient id="paint20_linear_2363_1746" x1="22.3536" y1="11.8497" x2="31.761" y2="30.3571" gradientUnits="userSpaceOnUse">
<stop stop-color="white"/>
<stop offset="1" stop-color="#BFBFBF"/>
</linearGradient>
</defs>
</svg>
