<svg width="50" height="56" viewBox="0 0 50 56" fill="none" xmlns="http://www.w3.org/2000/svg">
<path d="M23.0969 49.038C23.0969 48.7485 23.9671 48.5134 25.1636 48.4953C26.3601 48.4772 27.2484 48.6762 27.3934 49.0199C27.5385 49.3636 26.6139 49.5988 25.2724 49.6169C23.9308 49.635 23.115 49.3455 23.0969 49.038Z" fill="#999999" fill-opacity="0.05"/>
<path d="M25.3267 49.9092C27.3209 49.9092 28.6624 49.4932 28.4812 49.0228C28.2999 48.5524 26.9583 48.2268 25.1636 48.2449C23.3688 48.2629 22.0454 48.6248 22.0817 49.059C22.1179 49.4931 23.3507 49.9092 25.3267 49.9092Z" fill="#999999" fill-opacity="0.05"/>
<path d="M25.3267 50.1607C27.9736 50.1607 29.7502 49.5999 29.5145 48.9848C29.2788 48.3697 27.5022 47.9356 25.1092 47.9537C22.7162 47.9718 20.9577 48.4421 20.994 49.0391C21.0302 49.6361 22.7162 50.1788 25.3267 50.1607Z" fill="#999999" fill-opacity="0.05"/>
<path d="M25.3268 50.4319C28.6443 50.4319 30.856 49.7444 30.566 48.9846C30.2759 48.2248 28.0642 47.664 25.1273 47.6821C22.1905 47.7002 19.9606 48.2971 20.015 49.0389C20.0694 49.7806 22.0998 50.45 25.3268 50.4319Z" fill="#999999" fill-opacity="0.05"/>
<path d="M25.3268 50.7032C29.2788 50.7032 31.9619 49.871 31.5993 48.8941C31.2367 47.9172 28.5899 47.3202 25.0004 47.3383C21.4109 47.3564 18.8004 48.08 18.8548 48.9484C18.9092 49.8167 21.4653 50.7213 25.3268 50.7032Z" fill="#999999" fill-opacity="0.05"/>
<path d="M25.3267 50.9758C29.9315 50.9758 33.0496 50.017 32.5783 48.9497C32.1069 47.8823 29.0794 47.1406 24.8917 47.1406C20.7039 47.1406 17.6401 47.9909 17.6401 48.9497C17.6401 49.9085 20.8308 51.012 25.3267 50.9758Z" fill="#999999" fill-opacity="0.05"/>
<path d="M25.3267 51.2442C30.5841 51.2442 34.1555 50.1407 33.666 48.9286C33.1765 47.7165 29.6595 46.8301 24.8917 46.8663C20.1238 46.9025 16.6249 47.8432 16.6974 49.0191C16.7699 50.195 20.1963 51.2804 25.3267 51.2442Z" fill="#999999" fill-opacity="0.05"/>
<path d="M25.3267 51.5173C31.2549 51.5173 35.2613 50.2872 34.7175 48.9123C34.1736 47.5374 30.2215 46.5605 24.8373 46.5967C19.453 46.6329 15.5553 47.7002 15.646 49.0208C15.7366 50.3414 19.5799 51.5535 25.3267 51.5173Z" fill="#999999" fill-opacity="0.05"/>
<path d="M25.3267 51.8067C31.9075 51.8067 36.3491 50.4318 35.7508 48.8941C35.1526 47.3564 30.7654 46.2891 24.8373 46.2891C18.9092 46.2891 14.522 47.5011 14.6126 48.9845C14.7033 50.468 18.9454 51.8429 25.3267 51.8067Z" fill="#999999" fill-opacity="0.05"/>
<path d="M25.3267 52.0787C32.5783 52.0787 37.4549 50.5591 36.7842 48.8766C36.1134 47.1942 31.3455 46.0002 24.7285 46.0545C18.1115 46.1088 13.3799 47.3932 13.4886 49.0033C13.5974 50.6133 18.329 52.1149 25.3267 52.0787Z" fill="#999999" fill-opacity="0.05"/>
<path d="M25.3267 52.3478C33.2309 52.3478 38.5608 50.7015 37.8356 48.8744C37.1105 47.0472 31.835 45.7266 24.6741 45.7809C17.5132 45.8352 12.3284 47.2462 12.419 49.001C12.5097 50.7558 17.6945 52.384 25.3267 52.3478Z" fill="#999999" fill-opacity="0.05"/>
<path d="M25.4174 52.6189C33.9742 52.6189 39.7391 50.8098 38.9596 48.8561C38.1801 46.9023 32.4695 45.455 24.7104 45.5093C16.9512 45.5636 11.3313 47.0832 11.4401 49.0008C11.5488 50.9184 17.06 52.6731 25.4174 52.6189Z" fill="#999999" fill-opacity="0.05"/>
<path d="M25.4355 52.8911C34.645 52.8911 40.8631 50.9735 39.9386 48.8388C39.014 46.7041 32.9408 45.2207 24.6016 45.2207C16.2623 45.2207 10.0985 46.9212 10.298 48.9835C10.4974 51.0458 16.4436 52.9454 25.4355 52.8911Z" fill="#999999" fill-opacity="0.05"/>
<path d="M25.4536 53.1661C35.3157 53.1661 41.969 51.1038 41.0626 48.8243C40.1561 46.5449 33.5754 44.8987 24.6379 44.971C15.7004 45.0434 9.1921 46.7801 9.319 49.0053C9.4459 51.2304 15.8091 53.2204 25.4536 53.1661Z" fill="#999999" fill-opacity="0.05"/>
<path d="M25.4536 53.5251C35.9865 53.5251 43.0749 51.3361 42.114 48.8939C41.1532 46.4517 34.1192 44.715 24.5835 44.7873C15.0477 44.8597 8.12249 46.723 8.26752 49.0748C8.41256 51.4266 15.1746 53.5251 25.4536 53.5251Z" fill="#999999" fill-opacity="0.05"/>
<path d="M25.4718 53.7064C36.6573 53.7064 44.1988 51.3727 43.1655 48.7857C42.1322 46.1988 34.6812 44.3535 24.5472 44.4259C14.4132 44.4982 7.05291 46.4882 7.19794 48.9847C7.34297 51.4812 14.5582 53.7787 25.4718 53.7064Z" fill="#999999" fill-opacity="0.05"/>
<path d="M25.4899 53.9956C37.3099 53.9956 45.3047 51.5172 44.217 48.7674C43.1292 46.0176 35.1526 44.0819 24.511 44.1543C13.8693 44.2267 5.98332 46.3432 6.12835 48.9845C6.27338 51.6257 13.9237 54.0499 25.4899 53.9956Z" fill="#999999" fill-opacity="0.05"/>
<path d="M25.508 54.2681C37.9807 54.2681 46.4106 51.663 45.2684 48.8409C43.9994 45.6389 35.7871 43.866 24.4747 43.9564C13.1623 44.0469 4.91371 46.2539 5.07687 49.058C5.24003 51.862 13.2892 54.3404 25.508 54.2681Z" fill="#999999" fill-opacity="0.05"/>
<path d="M25.508 54.5373C38.6514 54.5373 47.5345 51.7875 46.3199 48.7483C44.9965 45.3834 36.3491 43.5201 24.4203 43.6106C12.4916 43.701 3.8441 46.0347 4.00726 49.0377C4.17042 52.0408 12.6366 54.6097 25.508 54.5373Z" fill="#999999" fill-opacity="0.05"/>
<path d="M25.5262 54.8083C39.3222 54.8083 48.6404 51.9319 47.2807 48.7299C45.8848 45.1118 36.8023 43.3027 24.2934 43.3027C11.7845 43.3027 2.68387 45.8535 2.86516 48.9289C3.04644 52.0043 12.0383 54.8807 25.5262 54.8083Z" fill="#999999" fill-opacity="0.05"/>
<path d="M25.5443 55.0805C40.0474 55.0805 49.7644 52.0594 48.4229 48.7127C46.9544 45.0945 37.5456 42.9599 24.3478 43.0684C11.15 43.1769 1.70491 45.7277 1.8862 48.966C2.06749 52.2042 11.422 55.171 25.5443 55.0805Z" fill="#999999" fill-opacity="0.05"/>
<path d="M0.834726 48.9666C0.635309 45.5836 10.6062 42.8881 24.2934 42.7977C37.9807 42.7072 47.8609 44.8419 49.4743 48.6952C50.8703 52.2048 40.6637 55.2802 25.5443 55.3526C10.8237 55.443 1.03414 52.4219 0.834726 48.9666Z" fill="#999999" fill-opacity="0.05"/>
<path d="M25.8525 46.1094C19.1992 46.1094 12.5822 46.7245 10.443 48.0089C10.414 48.3218 10.414 48.6367 10.443 48.9496C10.443 50.7587 17.3319 52.2964 25.8343 52.2964C34.3367 52.2964 41.2257 50.7948 41.2257 48.9496C41.2566 48.5293 41.2136 48.1069 41.0988 47.7014C39.1228 46.2903 32.7052 46.1094 25.8525 46.1094Z" fill="url(#paint0_linear_2363_1745)"/>
<path d="M25.8525 44.6621C17.3501 44.6621 10.4611 46.1636 10.4611 48.0089C10.4611 49.8541 17.3501 51.3737 25.8525 51.3737C34.3549 51.3737 41.2438 49.8722 41.2438 48.0089C41.2438 46.1455 34.3911 44.6621 25.8525 44.6621Z" fill="url(#paint1_linear_2363_1745)"/>
<path d="M25.8343 35.002C20.1056 35.002 14.4495 35.5085 12.6003 36.6301C12.274 37.8603 12.6003 46.6885 12.6003 47.0322C12.6003 48.6422 18.5284 49.9267 25.8343 49.9267C33.1403 49.9267 39.0865 48.6422 39.0865 47.0322C39.0865 46.7246 39.2497 36.9738 38.9777 36.3587C37.2555 35.2009 31.7443 35.002 25.8343 35.002Z" fill="url(#paint2_linear_2363_1745)"/>
<path d="M25.8343 34.4043C18.5828 34.4043 12.5822 35.4174 12.5822 36.6476C12.5822 37.8777 18.5103 38.9089 25.8343 38.9089C33.1584 38.9089 39.0865 37.8958 39.0865 36.6476C39.0865 35.3993 33.1403 34.4043 25.8343 34.4043Z" fill="url(#paint3_linear_2363_1745)"/>
<path d="M32.8502 36.829C32.8502 36.829 33.0496 36.829 33.3397 36.829C33.5132 36.794 33.6919 36.794 33.8654 36.829C33.8654 36.829 33.6841 36.829 33.3578 36.829C33.0315 36.829 32.8502 36.8833 32.8502 36.829Z" fill="black" fill-opacity="0.05"/>
<path d="M33.3578 36.938C33.8291 36.938 34.1555 36.938 34.1011 36.8294C33.8443 36.773 33.5783 36.773 33.3215 36.8294C32.9046 36.8294 32.5964 36.8294 32.5964 36.8294C32.5964 36.8294 32.9046 36.938 33.3578 36.938Z" fill="black" fill-opacity="0.05"/>
<path d="M33.3759 36.9713C33.9923 36.9713 34.4093 36.9713 34.3549 36.8265C34.3005 36.6818 33.8835 36.6999 33.3215 36.6999C32.7596 36.6999 32.3426 36.6999 32.3426 36.8265C32.3426 36.9532 32.7596 36.9713 33.3759 36.9713Z" fill="black" fill-opacity="0.05"/>
<path d="M33.3759 37.0077C34.1555 37.0077 34.6812 36.9173 34.6087 36.8268C34.1926 36.6703 33.7453 36.6145 33.3034 36.664C32.5964 36.664 32.0888 36.664 32.1069 36.8268C32.125 36.9896 32.5783 37.0077 33.3759 37.0077Z" fill="black" fill-opacity="0.05"/>
<path d="M33.3759 37.0463C34.3005 37.0463 34.935 36.9377 34.8625 36.8292C34.3654 36.6426 33.8316 36.5744 33.3034 36.6302C32.4514 36.6302 31.835 36.6302 31.8531 36.8292C31.8712 37.0282 32.4695 37.0463 33.3759 37.0463Z" fill="black" fill-opacity="0.05"/>
<path d="M33.3759 37.0802C34.4637 37.0802 35.1888 36.9536 35.1888 36.8269C35.1888 36.7003 34.373 36.5918 33.3759 36.5918C32.3788 36.5918 31.6718 36.7003 31.69 36.8269C31.7081 36.9536 32.3245 37.0802 33.3759 37.0802Z" fill="black" fill-opacity="0.05"/>
<path d="M33.3759 37.1166C34.6268 37.1166 35.4607 36.9719 35.352 36.8271C34.697 36.5643 33.9861 36.471 33.2853 36.5558C32.1613 36.5558 31.3274 36.6824 31.3455 36.8271C31.3636 36.9719 32.1613 37.1166 33.3759 37.1166Z" fill="black" fill-opacity="0.05"/>
<path d="M33.3759 37.2415C34.7718 37.2415 35.7327 37.0787 35.5876 36.9158C34.8528 36.6187 34.0543 36.5129 33.2671 36.6083C31.9981 36.6083 31.0736 36.753 31.0917 36.9158C31.1098 37.0787 32.0163 37.2415 33.3759 37.2415Z" fill="black" fill-opacity="0.05"/>
<path d="M33.3941 37.2454C34.935 37.2454 35.9865 37.0645 35.8415 36.8655C35.0206 36.558 34.139 36.4465 33.2672 36.5398C31.8531 36.5398 30.8379 36.7026 30.856 36.8835C30.8742 37.0644 31.8712 37.2454 33.3941 37.2454Z" fill="black" fill-opacity="0.05"/>
<path d="M33.394 37.2419C35.0982 37.2419 36.2403 37.0428 36.0953 36.8258C35.1893 36.4793 34.2131 36.3553 33.249 36.464C31.7081 36.464 30.5841 36.6449 30.6022 36.8439C30.6204 37.0429 31.7262 37.2419 33.394 37.2419Z" fill="black" fill-opacity="0.05"/>
<path d="M33.3941 37.2459C35.2069 37.2459 36.5122 37.0288 36.3309 36.7936C35.3515 36.4125 34.2935 36.2758 33.249 36.3956C31.5449 36.3956 30.3303 36.5947 30.3484 36.8118C30.3665 37.0288 31.5812 37.2459 33.3941 37.2459Z" fill="black" fill-opacity="0.05"/>
<path d="M33.3941 37.2452C35.4064 37.2452 36.766 37.0101 36.5847 36.7568C35.5182 36.3446 34.3661 36.2016 33.2309 36.3407C31.418 36.3407 30.0765 36.5397 30.0946 36.7748C30.1127 37.01 31.418 37.2452 33.3941 37.2452Z" fill="black" fill-opacity="0.05"/>
<path d="M33.394 37.3351C35.5695 37.3351 37.0198 37.0819 36.8385 36.8105C35.6884 36.3534 34.4402 36.1977 33.2128 36.3583C31.2548 36.3583 29.8227 36.5753 29.8589 36.8286C29.8952 37.0818 31.273 37.3351 33.394 37.3351Z" fill="black" fill-opacity="0.05"/>
<path d="M33.3941 37.3716C35.7327 37.3716 37.2917 37.1002 37.0198 36.8108C35.7878 36.327 34.454 36.1591 33.1402 36.3223C31.0373 36.3223 29.5145 36.5575 29.5145 36.8288C29.5145 37.1002 31.1279 37.3716 33.3941 37.3716Z" fill="black" fill-opacity="0.05"/>
<path d="M33.4122 37.4072C35.8777 37.4072 37.5637 37.1178 37.328 36.8102C36.0155 36.2945 34.5947 36.1141 33.1946 36.2856C30.9467 36.2856 29.3151 36.5207 29.3513 36.8283C29.3876 37.1358 30.9829 37.4072 33.4122 37.4072Z" fill="black" fill-opacity="0.05"/>
<path d="M33.4122 37.4455C36.0409 37.4455 37.8175 37.138 37.5818 36.8123C36.1883 36.2668 34.681 36.0741 33.1946 36.2515C30.8016 36.2515 29.0613 36.5048 29.0975 36.8304C29.1338 37.156 30.7654 37.4455 33.4122 37.4455Z" fill="black" fill-opacity="0.05"/>
<path d="M33.4122 37.4617C36.204 37.4617 38.0894 37.1541 37.8356 36.8104C36.3581 36.2215 34.7552 36.0161 33.1765 36.2134C30.6566 36.2134 28.8075 36.4847 28.8437 36.8285C28.88 37.1722 30.7654 37.4797 33.4122 37.4617Z" fill="black" fill-opacity="0.05"/>
<path d="M33.4122 37.4972C36.3672 37.4972 38.3432 37.1716 38.0713 36.8098C37.7994 36.448 35.8414 36.1585 33.1765 36.1766C30.5116 36.1947 28.5537 36.466 28.608 36.8278C28.6624 37.1896 30.5297 37.5153 33.4122 37.4972Z" fill="black" fill-opacity="0.05"/>
<path d="M33.4122 37.5336C36.5122 37.5336 38.6151 37.1899 38.3251 36.7919C38.035 36.3939 35.9683 36.1406 33.1584 36.1406C30.3484 36.1406 28.318 36.4481 28.3542 36.828C28.3905 37.2079 30.3847 37.5517 33.4122 37.5336Z" fill="black" fill-opacity="0.05"/>
<path d="M33.4303 37.5708C36.6754 37.5708 38.8689 37.209 38.5789 36.7929C38.2888 36.3768 36.0952 36.1055 33.1402 36.1055C30.1852 36.1055 28.046 36.4311 28.0823 36.8291C28.1186 37.2271 30.2396 37.5889 33.4303 37.5708Z" fill="black" fill-opacity="0.05"/>
<path d="M33.4303 37.6041C36.8385 37.6041 39.1409 37.2242 38.869 36.79C38.597 36.3558 36.2947 36.0664 33.1946 36.0664C30.0946 36.0664 27.8648 36.4101 27.901 36.8262C27.9373 37.2423 30.0946 37.6222 33.4303 37.6041Z" fill="black" fill-opacity="0.05"/>
<path d="M27.5928 36.828C27.5928 36.3939 29.8952 36.0501 33.1403 36.0321C36.3853 36.014 38.7058 36.3034 39.0684 36.7919C39.431 37.2803 36.9836 37.624 33.4303 37.6421C29.8771 37.6602 27.6472 37.2441 27.5928 36.828Z" fill="black" fill-opacity="0.05"/>
<path d="M25.8343 39.0538C22.734 39.0805 19.6364 38.8628 16.5705 38.4026C14.2682 38.0046 12.6366 37.4438 12.6366 36.7201C12.6366 35.9965 14.2682 35.4357 16.5705 35.0558C19.6364 34.5956 22.734 34.3778 25.8343 34.4045C28.9286 34.3778 32.0202 34.5956 35.08 35.0558C37.3824 35.4538 39.014 36.0146 39.014 36.7201C39.014 37.4257 37.3824 38.0046 35.08 38.4026C32.0202 38.8628 28.9286 39.0806 25.8343 39.0538ZM25.8343 38.8368C28.9106 38.8638 31.9841 38.646 35.0256 38.1855C35.9647 38.048 36.8878 37.8178 37.7812 37.4981C38.452 37.2267 38.7421 36.9553 38.7421 36.7201C38.7421 36.485 38.452 36.2317 37.7812 35.9604C36.8878 35.6407 35.9647 35.4104 35.0256 35.2729C31.9841 34.8124 28.9106 34.5946 25.8343 34.6216C22.7521 34.5942 19.6725 34.812 16.6249 35.2729C15.6858 35.4104 14.7628 35.6407 13.8693 35.9604C13.1986 36.2317 12.9085 36.485 12.9085 36.7201C12.9085 36.9553 13.1986 37.2267 13.8693 37.4981C14.7628 37.8178 15.6858 38.048 16.6249 38.1855C19.6744 38.6221 22.754 38.8157 25.8343 38.7644V38.8368Z" fill="#670F01" fill-opacity="0.23"/>
<path d="M25.5443 48.3702C28.0785 48.4711 30.6124 48.1657 33.0496 47.4657V41.3691C27.7611 42.1562 22.3848 42.1562 17.0963 41.3691V47.4657C19.8639 48.1152 22.7016 48.419 25.5443 48.3702Z" fill="#471614" fill-opacity="0.34"/>
<path d="M25.8706 48.1007C28.3988 48.2006 30.9266 47.8952 33.3578 47.1961V41.0996C28.0693 41.8866 22.693 41.8866 17.4045 41.0996V47.1961C20.1782 47.8459 23.0219 48.1497 25.8706 48.1007Z" fill="#B97333"/>
<path d="M18.0752 36.829C18.0752 36.829 18.2928 36.829 18.5647 36.829C18.7382 36.794 18.9169 36.794 19.0904 36.829C19.0904 36.829 18.9091 36.829 18.6009 36.829C18.2928 36.829 18.0752 36.8833 18.0752 36.829Z" fill="black" fill-opacity="0.05"/>
<path d="M18.5647 36.9355C19.036 36.9355 19.3442 36.9355 19.308 36.827C19.0509 36.7738 18.7855 36.7738 18.5284 36.827C18.0933 36.827 17.7851 36.827 17.8033 36.827C17.8214 36.827 18.0752 36.9355 18.5647 36.9355Z" fill="black" fill-opacity="0.05"/>
<path d="M18.5647 36.9713C19.1811 36.9713 19.6162 36.9713 19.5436 36.8265C19.4711 36.6818 19.0723 36.6999 18.5103 36.6999C17.9483 36.6999 17.5313 36.6999 17.5495 36.8265C17.5676 36.9532 17.9483 36.9713 18.5647 36.9713Z" fill="black" fill-opacity="0.05"/>
<path d="M18.5647 37.0085C19.3442 37.0085 19.87 36.918 19.7974 36.8275C19.388 36.6697 18.9462 36.6139 18.5103 36.6647C17.8033 36.6647 17.2775 36.6647 17.2957 36.8275C17.3138 36.9904 17.8033 37.0085 18.5647 37.0085Z" fill="black" fill-opacity="0.05"/>
<path d="M18.5647 37.0446C19.5074 37.0446 20.1419 36.936 20.0512 36.8275C19.5552 36.6368 19.0203 36.5686 18.4922 36.6285C17.6401 36.6285 17.0237 36.6285 17.0419 36.8275C17.06 37.0265 17.6582 37.0446 18.5647 37.0446Z" fill="black" fill-opacity="0.05"/>
<path d="M18.5647 37.0802C19.6524 37.0802 20.3776 36.9536 20.3776 36.8269C20.3776 36.7003 19.5618 36.5918 18.5647 36.5918C17.5676 36.5918 16.8606 36.7003 16.8606 36.8269C16.8606 36.9536 17.5132 37.0802 18.5647 37.0802Z" fill="black" fill-opacity="0.05"/>
<path d="M18.5828 37.1166C19.8156 37.1166 20.6495 36.9719 20.5407 36.8271C19.8858 36.5643 19.1749 36.471 18.4741 36.5558C17.3501 36.5558 16.5343 36.6824 16.5524 36.8271C16.5705 36.9719 17.3682 37.1166 18.5828 37.1166Z" fill="black" fill-opacity="0.05"/>
<path d="M18.5828 37.2437C19.9787 37.2437 20.9214 37.0809 20.7945 36.9181C20.0525 36.6239 19.2489 36.5182 18.4559 36.6105C17.205 36.6105 16.2805 36.7552 16.2986 36.9181C16.3167 37.0809 17.205 37.2437 18.5828 37.2437Z" fill="black" fill-opacity="0.05"/>
<path d="M18.5828 37.2454C20.1419 37.2454 21.1752 37.0645 21.0302 36.8655C20.2093 36.558 19.3277 36.4465 18.4559 36.5398C17.0419 36.5398 16.0267 36.7026 16.0448 36.8835C16.0629 37.0644 17.06 37.2454 18.5828 37.2454Z" fill="black" fill-opacity="0.05"/>
<path d="M18.5828 37.2442C20.2869 37.2442 21.4472 37.0452 21.284 36.8281C20.3791 36.4775 19.4019 36.3533 18.4378 36.4663C16.8968 36.4663 15.7728 36.6472 15.791 36.8462C15.8091 37.0452 16.915 37.2442 18.5828 37.2442Z" fill="black" fill-opacity="0.05"/>
<path d="M18.5828 37.2456C20.3957 37.2456 21.701 37.0285 21.5378 36.7933C20.5519 36.4127 19.4882 36.2762 18.4378 36.3953C16.7518 36.3953 15.519 36.5943 15.5372 36.8114C15.5553 37.0285 16.7699 37.2456 18.5828 37.2456Z" fill="black" fill-opacity="0.05"/>
<path d="M18.5828 37.2436C20.6132 37.2436 21.9729 37.0084 21.7916 36.7552C20.7181 36.3457 19.5608 36.2029 18.4197 36.3391C16.6068 36.3391 15.2652 36.5381 15.3015 36.7732C15.3378 37.0084 16.6249 37.2436 18.5828 37.2436Z" fill="black" fill-opacity="0.05"/>
<path d="M18.6009 37.3351C20.7583 37.3351 22.2267 37.0819 22.0273 36.8105C20.8772 36.3534 19.629 36.1977 18.4015 36.3583C16.4255 36.3583 14.9933 36.5753 15.0296 36.8286C15.0658 37.0818 16.4799 37.3351 18.6009 37.3351Z" fill="black" fill-opacity="0.05"/>
<path d="M18.6009 37.3729C20.9214 37.3729 22.4986 37.1015 22.2267 36.8121C20.9953 36.3261 19.6609 36.158 18.3471 36.3236C16.2442 36.3236 14.7214 36.5588 14.7214 36.8301C14.7214 37.1015 16.2623 37.3729 18.6009 37.3729Z" fill="black" fill-opacity="0.05"/>
<path d="M18.601 37.4072C21.0846 37.4072 22.7524 37.1178 22.5349 36.8102C21.2224 36.2945 19.8016 36.1141 18.4015 36.2856C16.1536 36.2856 14.5038 36.5207 14.5401 36.8283C14.5764 37.1358 16.2623 37.4072 18.601 37.4072Z" fill="black" fill-opacity="0.05"/>
<path d="M18.6009 37.4441C21.2296 37.4441 23.0244 37.1366 22.7706 36.811C21.3782 36.2609 19.8698 36.0681 18.3834 36.2501C15.9904 36.2501 14.2682 36.5034 14.2863 36.829C14.3044 37.1546 16.0267 37.4441 18.6009 37.4441Z" fill="black" fill-opacity="0.05"/>
<path d="M18.6009 37.4612C21.3928 37.4612 23.2782 37.1537 23.0244 36.81C21.5531 36.2219 19.9561 36.0164 18.3834 36.213C15.8454 36.213 14.0144 36.4843 14.0506 36.8281C14.0869 37.1718 15.8816 37.4793 18.6009 37.4612Z" fill="black" fill-opacity="0.05"/>
<path d="M18.6009 37.4964C21.5559 37.4964 23.5501 37.1708 23.2782 36.809C21.7198 36.1896 20.0302 35.9719 18.3653 36.1758C15.7003 36.1758 13.7606 36.4652 13.7968 36.827C13.8331 37.1889 15.7366 37.5145 18.6009 37.4964Z" fill="black" fill-opacity="0.05"/>
<path d="M18.6191 37.5352C21.7191 37.5352 23.8039 37.1915 23.5139 36.7935C21.8739 36.1712 20.109 35.948 18.3653 36.1422C15.5553 36.1422 13.5068 36.4497 13.543 36.8296C13.5793 37.2095 15.5916 37.5533 18.6191 37.5352Z" fill="black" fill-opacity="0.05"/>
<path d="M18.6191 37.5708C21.8641 37.5708 24.0577 37.209 23.7677 36.7929C23.4776 36.3768 21.3021 36.1055 18.329 36.1055C15.3559 36.1055 13.2348 36.4311 13.2711 36.8291C13.3073 37.2271 15.4284 37.5889 18.6191 37.5708Z" fill="black" fill-opacity="0.05"/>
<path d="M18.6191 37.6041C22.0273 37.6041 24.3297 37.2242 24.0577 36.79C23.7858 36.3558 21.4653 36.0664 18.3653 36.0664C15.2653 36.0664 13.0354 36.4101 13.0898 36.8262C13.1442 37.2423 15.2834 37.6222 18.6191 37.6041Z" fill="black" fill-opacity="0.05"/>
<path d="M12.7997 36.828C12.7997 36.3939 15.1021 36.0501 18.2384 36.0321C21.3746 36.014 23.8039 36.3034 24.1665 36.7919C24.5291 37.2803 22.0998 37.624 18.5284 37.6421C14.9571 37.6602 12.836 37.2441 12.7997 36.828Z" fill="black" fill-opacity="0.05"/>
<path d="M25.8343 39.9209C22.6176 39.9508 19.4038 39.7148 16.2261 39.2153C14.9569 39.0753 13.7263 38.6946 12.6003 38.0937L12.4734 38.0033V37.8947C12.4734 37.8947 12.4734 37.8043 12.4734 37.75C12.7248 37.9777 13.0212 38.1502 13.3436 38.2565C14.2834 38.6306 15.2625 38.8976 16.2623 39.0525C19.4173 39.5369 22.6062 39.7668 25.7981 39.74C28.996 39.7667 32.1909 39.5368 35.352 39.0525C36.3314 38.9029 37.2917 38.6481 38.2163 38.2927C38.4933 38.2011 38.7512 38.0602 38.9777 37.8766V37.7862V38.1118C37.8506 38.7099 36.6205 39.0904 35.352 39.2334C32.2037 39.723 29.0204 39.953 25.8343 39.9209Z" fill="#EFD57C" fill-opacity="0.23"/>
<path d="M25.8343 49.9065C22.6037 49.9484 19.3792 49.6145 16.2261 48.9115C14.9059 48.6718 13.6626 48.1196 12.6003 47.3015L12.4734 47.1748V46.9939C12.4734 46.9939 12.4734 46.8492 12.4734 46.7949C12.7062 47.1021 13.0031 47.3552 13.3436 47.5366C14.2433 48.0252 15.2076 48.3846 16.2079 48.604C19.3363 49.3086 22.537 49.6425 25.7437 49.5989C28.9564 49.6423 32.1631 49.3083 35.2976 48.604C36.2967 48.3803 37.2604 48.0212 38.1619 47.5366C38.4489 47.3837 38.7066 47.1816 38.9233 46.9396V46.813V47.2833C37.8593 48.0985 36.6167 48.6503 35.2976 48.8934C32.1926 49.5925 29.0173 49.9324 25.8343 49.9065Z" fill="#EFD57C" fill-opacity="0.23"/>
<path d="M25.8525 47.7741C23.1195 47.8239 20.3911 47.5321 17.7308 46.9057V41.4785C22.7891 42.2564 27.9369 42.2564 32.9952 41.4785V46.9057C30.676 47.5735 28.2646 47.8667 25.8525 47.7741ZM25.8525 47.6655C28.1743 47.7375 30.4944 47.4754 32.7414 46.8876L32.9771 46.7972V41.5147L31.1642 41.7499C27.036 42.221 22.8653 42.1846 18.746 41.6413L17.8577 41.5147V46.7972L18.2021 46.8876C20.7146 47.4345 23.2811 47.6955 25.8525 47.6655Z" fill="#CA922E"/>
<path d="M18.3472 44.3531C18.3471 44.2315 18.3942 44.1145 18.4787 44.0268C18.5632 43.9391 18.6785 43.8875 18.8004 43.8828C18.9254 43.8828 19.0453 43.9323 19.1337 44.0206C19.2221 44.1088 19.2717 44.2284 19.2717 44.3531C19.267 44.4747 19.2153 44.5898 19.1274 44.6741C19.0395 44.7584 18.9223 44.8055 18.8004 44.8054C18.6802 44.8054 18.5649 44.7578 18.4799 44.673C18.3949 44.5881 18.3472 44.4731 18.3472 44.3531Z" fill="url(#paint4_radial_2363_1745)"/>
<path d="M31.5993 44.3531C31.5992 44.2315 31.6464 44.1145 31.7309 44.0268C31.8154 43.9391 31.9307 43.8875 32.0525 43.8828C32.1775 43.8828 32.2974 43.9323 32.3858 44.0206C32.4742 44.1088 32.5239 44.2284 32.5239 44.3531C32.5239 44.4141 32.5116 44.4744 32.4877 44.5305C32.4638 44.5866 32.4288 44.6373 32.3848 44.6795C32.3408 44.7218 32.2886 44.7547 32.2316 44.7763C32.1745 44.7979 32.1136 44.8078 32.0525 44.8054C31.9323 44.8054 31.8171 44.7578 31.7321 44.673C31.6471 44.5881 31.5993 44.4731 31.5993 44.3531Z" fill="url(#paint5_radial_2363_1745)"/>
<path d="M24.4565 36.827C24.7875 36.7842 25.1227 36.7842 25.4536 36.827C25.8153 36.7907 26.1797 36.7907 26.5414 36.827C26.5414 36.827 26.1607 36.827 25.508 36.827C25.1612 36.8987 24.8034 36.8987 24.4565 36.827Z" fill="black" fill-opacity="0.05"/>
<path d="M25.5262 36.9385C26.0362 36.9896 26.5513 36.9529 27.049 36.83C26.5127 36.773 25.9718 36.773 25.4355 36.83C24.9361 36.765 24.4303 36.765 23.9308 36.83C24.4537 36.9486 24.992 36.9852 25.5262 36.9385Z" fill="black" fill-opacity="0.05"/>
<path d="M25.5262 36.9732C26.2123 37.0396 26.9048 36.9906 27.5747 36.8284C26.8632 36.7005 26.139 36.658 25.4174 36.7018C24.75 36.652 24.0789 36.6946 23.4232 36.8284C24.1126 36.984 24.8219 37.0329 25.5262 36.9732Z" fill="black" fill-opacity="0.05"/>
<path d="M25.5443 37.01C26.3945 37.0939 27.2527 37.0327 28.0823 36.8291C27.1978 36.6674 26.2969 36.6127 25.3992 36.6663C24.5618 36.606 23.72 36.6608 22.8975 36.8291C23.7661 37.0186 24.6579 37.0796 25.5443 37.01Z" fill="black" fill-opacity="0.05"/>
<path d="M25.5443 37.045C26.5645 37.1475 27.5947 37.074 28.5899 36.8278C27.5323 36.6328 26.4548 36.5661 25.3811 36.6289C24.3796 36.5547 23.3726 36.6217 22.3899 36.8278C23.4246 37.0571 24.4879 37.1303 25.5443 37.045Z" fill="black" fill-opacity="0.05"/>
<path d="M25.5443 37.0812C26.7585 37.2049 27.985 37.1192 29.17 36.8279C27.934 36.5931 26.6732 36.5141 25.4174 36.5928C24.2458 36.5092 23.0683 36.5883 21.9185 36.8279C23.1087 37.0855 24.3298 37.1708 25.5443 37.0812Z" fill="black" fill-opacity="0.05"/>
<path d="M25.5624 37.1173C26.9227 37.2527 28.2961 37.1548 29.6233 36.8279C28.2141 36.5596 26.7768 36.4684 25.3449 36.5565C24.0093 36.457 22.6662 36.5484 21.3565 36.8279C22.7369 37.1282 24.1538 37.2258 25.5624 37.1173Z" fill="black" fill-opacity="0.05"/>
<path d="M25.5624 37.2433C27.0927 37.3969 28.638 37.2868 30.1309 36.9177C28.5522 36.5868 26.9385 36.4531 25.3267 36.5197C23.8211 36.4087 22.3072 36.5122 20.8308 36.8272C22.3792 37.1955 23.9733 37.3357 25.5624 37.2433Z" fill="black" fill-opacity="0.05"/>
<path d="M25.5624 37.2458C28.7712 37.2458 31.001 37.065 30.6385 36.866C28.8803 36.5531 27.0919 36.4438 25.3086 36.5403C23.6389 36.4267 21.9614 36.5424 20.3232 36.884C22.0427 37.2577 23.8077 37.3796 25.5624 37.2458Z" fill="black" fill-opacity="0.05"/>
<path d="M25.5805 37.2427C29.0975 37.2427 31.4905 37.0437 31.1642 36.8266C29.2278 36.4726 27.2558 36.3512 25.2905 36.4649C23.4687 36.346 21.6392 36.4738 19.8518 36.8447C21.7326 37.2493 23.6617 37.3833 25.5805 37.2427Z" fill="black" fill-opacity="0.05"/>
<path d="M25.5805 37.2443C29.4238 37.2443 32.0344 37.0272 31.6718 36.792C29.5562 36.4041 27.4017 36.2705 25.2542 36.394C23.2564 36.2581 21.2493 36.3981 19.2898 36.8101C21.3548 37.2569 23.4736 37.4031 25.5805 37.2443Z" fill="black" fill-opacity="0.05"/>
<path d="M25.5805 37.2461C29.7502 37.2461 32.5601 37.0109 32.1794 36.7577C29.8905 36.338 27.5589 36.1983 25.2361 36.3416C23.069 36.1825 20.8903 36.3286 18.7641 36.7757C21.002 37.2571 23.2975 37.4155 25.5805 37.2461Z" fill="black" fill-opacity="0.05"/>
<path d="M25.5987 37.3336C30.0765 37.3336 33.104 37.0804 32.7052 36.8091C30.2381 36.3473 27.7228 36.1954 25.218 36.3568C22.8869 36.184 20.543 36.3423 18.2565 36.8271C18.3109 37.0985 21.2115 37.3336 25.5987 37.3336Z" fill="black" fill-opacity="0.05"/>
<path d="M25.5987 37.3719C30.4028 37.3719 33.6479 37.1005 33.2128 36.8111C30.5725 36.317 27.8808 36.1529 25.1998 36.3226C20.8489 36.3226 17.6764 36.5578 17.7308 36.8291C17.7851 37.1005 20.9033 37.3719 25.5987 37.3719Z" fill="black" fill-opacity="0.05"/>
<path d="M25.5987 37.4075C30.7291 37.4075 34.1917 37.1181 33.7204 36.8105C30.9068 36.2841 28.0387 36.1079 25.1817 36.2859C20.5407 36.2859 17.1506 36.5211 17.2231 36.8286C17.2957 37.1361 20.5951 37.4075 25.5987 37.4075Z" fill="black" fill-opacity="0.05"/>
<path d="M25.6168 37.4431C31.0554 37.4431 34.6812 37.1356 34.228 36.8099C31.2412 36.2514 28.1967 36.063 25.1636 36.2491C20.2144 36.2491 16.6249 36.5024 16.6974 36.828C16.7699 37.1536 20.2869 37.4431 25.6168 37.4431Z" fill="black" fill-opacity="0.05"/>
<path d="M25.6168 37.462C31.3818 37.462 35.2795 37.1545 34.6812 36.8108C34.083 36.467 30.294 36.1957 25.0729 36.2137C19.8518 36.2318 16.0085 36.4851 16.1173 36.8288C16.2261 37.1725 19.9787 37.4801 25.6168 37.462Z" fill="black" fill-opacity="0.05"/>
<path d="M25.6168 37.4972C31.7081 37.4972 35.8233 37.1716 35.2613 36.8098C34.6993 36.448 30.6385 36.1585 25.1273 36.1766C19.6162 36.1947 15.5916 36.466 15.6641 36.8278C15.7366 37.1896 19.6705 37.5153 25.6168 37.4972Z" fill="black" fill-opacity="0.05"/>
<path d="M25.6349 37.5336C32.0344 37.5336 36.3672 37.1899 35.7689 36.7919C35.1707 36.3939 30.9104 36.1406 25.1092 36.1406C19.308 36.1406 15.0658 36.4481 15.1565 36.828C15.2471 37.2079 19.3624 37.5517 25.6349 37.5336Z" fill="black" fill-opacity="0.05"/>
<path d="M25.6349 37.5708C32.3607 37.5708 36.911 37.209 36.2947 36.7929C35.6783 36.3768 31.1823 36.1055 25.0729 36.1055C18.9635 36.1055 14.5401 36.4311 14.6307 36.8291C14.7214 37.2271 19.0542 37.5889 25.6349 37.5708Z" fill="black" fill-opacity="0.05"/>
<path d="M25.6349 37.6041C32.687 37.6041 37.4549 37.2242 36.8023 36.79C36.1496 36.3558 31.3636 36.0664 25.0548 36.0664C18.746 36.0664 14.0144 36.4101 14.1775 36.8262C14.3407 37.2423 18.7641 37.6222 25.6349 37.6041Z" fill="black" fill-opacity="0.05"/>
<path d="M13.5974 36.828C13.5974 36.3939 18.3653 36.0501 25.0367 36.0321C31.7081 36.014 36.5666 36.3034 37.3099 36.7919C38.0532 37.2803 33.0134 37.624 25.6531 37.6421C18.2928 37.6602 13.688 37.2441 13.5974 36.828Z" fill="black" fill-opacity="0.05"/>
<path d="M15.6278 36.5392L25.1636 31.5281C25.3265 31.4568 25.5024 31.42 25.6802 31.42C25.8581 31.42 26.034 31.4568 26.1969 31.5281L35.7508 36.5392C37.2374 37.3171 38.2163 36.5392 37.9263 34.9472L36.1134 24.3461C36.0926 24.1708 36.1093 23.9931 36.1624 23.8247C36.2156 23.6563 36.3039 23.501 36.4216 23.3692L44.1444 15.8616C45.3591 14.6677 44.9784 13.528 43.3105 13.2747L32.5783 11.737C32.404 11.7042 32.2391 11.6339 32.095 11.5307C31.9509 11.4276 31.8312 11.2942 31.7443 11.14L26.9765 1.47965C26.2151 -0.021864 25.0185 -0.021864 24.2571 1.47965L19.4893 11.1219C19.4044 11.2777 19.2853 11.4124 19.1408 11.5158C18.9964 11.6192 18.8304 11.6886 18.6553 11.7189L7.99559 13.2747C6.32774 13.528 5.94704 14.6677 7.16167 15.8436L14.8845 23.3512C14.9994 23.4848 15.0859 23.6402 15.1389 23.8081C15.1919 23.976 15.2102 24.1529 15.1927 24.328L13.3799 34.9291C13.1442 36.6115 14.1231 37.3351 15.6278 36.5392Z" fill="url(#paint6_linear_2363_1745)"/>
<path d="M25.6168 20.2027L9.40964 17.9956L7.19793 15.8609C5.9833 14.6851 6.34587 13.5454 8.03185 13.2921L11.1863 12.8398L25.6168 20.2027Z" fill="url(#paint7_linear_2363_1745)"/>
<path d="M25.8343 20.4559L22.97 4.3733L24.3296 1.64166C25.0911 0.122051 26.2876 0.122051 27.0308 1.64166L28.4449 4.51806L25.8343 20.4559Z" fill="url(#paint8_linear_2363_1745)"/>
<path d="M25.7618 20.4022L40.2649 12.8223L43.2924 13.2926C44.9603 13.5459 45.3228 14.7037 44.1082 15.8615L41.7877 18.0685L25.7618 20.4022Z" fill="url(#paint9_linear_2363_1745)"/>
<path d="M25.5261 20.3672L18.2746 35.0567L15.5553 36.4678C14.0687 37.2457 13.0898 36.4678 13.3799 34.8758L13.9237 31.7281L25.5261 20.3672Z" fill="url(#paint10_linear_2363_1745)"/>
<path d="M25.6712 20.3672L32.8139 35.0567L35.5332 36.4678C37.0379 37.2457 38.0169 36.4678 37.7268 34.8758L37.1648 31.7281L25.6712 20.3672Z" fill="url(#paint11_linear_2363_1745)"/>
<path d="M24.239 21.0879L15.3922 12.314L18.7822 11.8255C18.9581 11.7908 19.1241 11.7176 19.2683 11.6112C19.4125 11.5049 19.5313 11.368 19.6162 11.2104L20.8852 8.67773L26.904 19.2065L25.7075 20.6718L24.239 21.0879Z" fill="url(#paint12_linear_2363_1745)" fill-opacity="0.45"/>
<path d="M27.1396 21.0892L35.9865 12.3153L32.5783 11.9173C32.4061 11.879 32.2442 11.8042 32.1034 11.6981C31.9627 11.592 31.8464 11.457 31.7625 11.3022L30.4934 8.76953L24.4203 19.1535L25.6168 20.6188L27.1396 21.0892Z" fill="url(#paint13_linear_2363_1745)" fill-opacity="0.45"/>
<path d="M24.6379 18.4668L12.4009 20.8186L14.9389 23.1161C15.0644 23.2446 15.1615 23.3979 15.2239 23.5662C15.2864 23.7345 15.3128 23.9139 15.3015 24.093L14.9208 26.897L25.7981 21.4698L25.6349 19.5704L24.6379 18.4668Z" fill="url(#paint14_linear_2363_1745)" fill-opacity="0.45"/>
<path d="M26.6502 18.5918L38.8871 20.9436L36.3491 23.2411C36.2229 23.3684 36.1266 23.5221 36.067 23.691C36.0075 23.8599 35.9862 24.0398 36.0046 24.2179L36.3853 27.022L25.508 21.5948L25.6712 19.6953L26.6502 18.5918Z" fill="url(#paint15_linear_2363_1745)" fill-opacity="0.45"/>
<path d="M27.6654 20.7112L29.2426 33.049L26.2694 31.3485C26.1065 31.2772 25.9306 31.2405 25.7528 31.2405C25.5749 31.2405 25.399 31.2772 25.2361 31.3485L22.6799 32.5787L24.4022 20.5665L26.2151 20.1504L27.6654 20.7112Z" fill="url(#paint16_linear_2363_1745)" fill-opacity="0.45"/>
<path d="M32.687 31.509L26.0338 27.9994C25.8006 27.9086 25.5418 27.9086 25.3086 27.9994L18.6553 31.4909C17.6039 32.0517 16.9331 31.4909 17.1325 30.3874L18.4015 22.9883C18.4156 22.8649 18.4034 22.7399 18.366 22.6215C18.3285 22.5031 18.2665 22.3938 18.184 22.3009L12.7453 17.0727C11.8933 16.2405 12.1652 15.4446 13.3255 15.2636L20.7764 14.1963C20.8963 14.1698 21.0096 14.1192 21.1093 14.0477C21.209 13.9762 21.2931 13.8852 21.3565 13.7802L24.6741 7.05051C25.1998 5.98316 26.0519 5.98316 26.487 7.05051L29.8046 13.7802C29.868 13.8852 29.9521 13.9762 30.0518 14.0477C30.1515 14.1192 30.2648 14.1698 30.3847 14.1963L37.8356 15.2817C38.9959 15.4445 39.2678 16.2586 38.4157 17.0908L32.9771 22.3371C32.8894 22.4229 32.8239 22.5285 32.786 22.6451C32.7481 22.7616 32.739 22.8856 32.7596 23.0064L34.0286 30.4236C34.3912 31.5633 33.7385 32.0517 32.687 31.509Z" fill="url(#paint17_linear_2363_1745)"/>
<path d="M18.4922 22.9889L12.7816 17.0733C11.9477 16.2412 12.2015 15.4452 13.3799 15.2643L20.8127 14.1788C20.9347 14.1579 21.0503 14.1096 21.1508 14.0376C21.2513 13.9655 21.3341 13.8715 21.3928 13.7627L24.7285 7.03303C25.2542 5.98378 26.1063 5.98378 26.5414 7.03303L29.8771 13.7627C29.9358 13.8715 30.0186 13.9655 30.1191 14.0376C30.2196 14.1096 30.3352 14.1579 30.4572 14.1788L37.4549 15.2823C32.1069 15.5356 23.5139 17.6703 18.4922 22.9889Z" fill="#F6DBA5" fill-opacity="0.49"/>
<path d="M33.666 32.3229C33.38 32.3056 33.1014 32.2253 32.8502 32.0877L26.1969 28.5781C26.1108 28.5423 26.0184 28.5239 25.925 28.5239C25.8317 28.5239 25.7392 28.5423 25.6531 28.5781L18.9998 32.0696C17.8214 32.7028 16.9694 32.0696 17.1869 30.7671L18.4559 23.368C18.4713 23.2767 18.4645 23.1831 18.4361 23.095C18.4077 23.0068 18.3586 22.9268 18.2928 22.8615L12.8541 17.6152C11.8933 16.6745 12.2196 15.6796 13.543 15.4987L20.994 14.4132C21.0845 14.3965 21.1703 14.3604 21.2455 14.3073C21.3206 14.2542 21.3832 14.1853 21.4291 14.1057L24.7648 7.37595C25.3449 6.18197 26.3963 6.18197 26.9946 7.37595L30.3303 14.1057C30.3741 14.187 30.4361 14.2571 30.5116 14.3105C30.5871 14.3638 30.674 14.399 30.7654 14.4132L38.1982 15.4987C39.5216 15.6977 39.8479 16.6926 38.8871 17.6152L33.4485 22.8615C33.3861 22.9291 33.3391 23.0094 33.311 23.0968C33.2828 23.1843 33.274 23.2768 33.2853 23.368L34.5543 30.7671C34.8262 31.8164 34.3912 32.3591 33.666 32.3229ZM33.666 31.943C34.1917 31.943 34.4455 31.5812 34.3186 30.8394L33.0496 23.4404C33.0282 23.2874 33.0416 23.1315 33.0886 22.9844C33.1357 22.8372 33.2153 22.7025 33.3216 22.5901L38.7602 17.3439C39.4854 16.6383 39.2859 16.0233 38.2707 15.8785L30.8379 14.7931C30.6853 14.7655 30.5409 14.7041 30.4154 14.6133C30.2899 14.5225 30.1864 14.4046 30.1128 14.2685L26.7771 7.53876C26.3238 6.63423 25.6893 6.63423 25.2361 7.53876L21.9004 14.2685C21.8267 14.4046 21.7233 14.5225 21.5978 14.6133C21.4722 14.7041 21.3278 14.7655 21.1753 14.7931L13.7243 15.8785C12.7272 16.0233 12.5278 16.6383 13.253 17.3439L18.6916 22.5901C18.7964 22.6997 18.8752 22.8314 18.9223 22.9754C18.9693 23.1195 18.9834 23.2721 18.9635 23.4223L17.6945 30.8394C17.5132 31.8344 18.039 32.2143 18.9454 31.744L25.5987 28.2525C25.739 28.181 25.8943 28.1438 26.0519 28.1438C26.2095 28.1438 26.3648 28.181 26.5051 28.2525L33.1584 31.744C33.3059 31.831 33.4644 31.8979 33.6297 31.943H33.666Z" fill="#9D4C1B" fill-opacity="0.09"/>
<path d="M14.667 36.8643C13.7062 36.8643 13.1623 36.1406 13.3799 34.8381L15.1927 24.2913C15.2141 24.1383 15.2008 23.9824 15.1537 23.8353C15.1067 23.6881 15.0271 23.5534 14.9208 23.441L7.19794 15.9696C5.92892 14.7394 6.34588 13.455 8.10438 13.2017L18.7097 11.664C18.8614 11.6341 19.0048 11.5717 19.13 11.4811C19.2552 11.3906 19.3592 11.274 19.4349 11.1394L24.1846 1.5514C24.9642 -0.0405711 26.3057 -0.0405711 27.1034 1.5514L31.835 11.1394C31.9134 11.2718 32.0182 11.3867 32.1429 11.4769C32.2677 11.5672 32.4097 11.6309 32.5601 11.664L43.1655 13.2017C44.9784 13.455 45.3409 14.7213 44.0719 15.9696L36.4035 23.4229C36.2989 23.54 36.2205 23.6781 36.1736 23.8279C36.1267 23.9776 36.1124 24.1356 36.1315 24.2913L37.9444 34.82C38.2345 36.6291 37.1467 37.3708 35.5695 36.5386L26.0882 31.5637C25.9484 31.5013 25.7971 31.4691 25.644 31.4691C25.4909 31.4691 25.3396 31.5013 25.1998 31.5637L15.7185 36.5386C15.3961 36.7226 15.0372 36.8338 14.667 36.8643ZM14.667 36.611C14.9921 36.58 15.307 36.4813 15.5916 36.3215L25.0729 31.3466C25.2501 31.2575 25.4457 31.2112 25.644 31.2112C25.8424 31.2112 26.0379 31.2575 26.2151 31.3466L35.6964 36.3035C37.0923 37.0452 37.9625 36.412 37.6906 34.8562L35.8777 24.3274C35.8553 24.1325 35.8744 23.9351 35.9337 23.748C35.9931 23.561 36.0914 23.3886 36.2222 23.2421L43.8906 15.7887C45.0146 14.6852 44.6883 13.6721 43.1292 13.455L32.5783 11.9173C32.3871 11.8793 32.2067 11.7995 32.05 11.6838C31.8933 11.5681 31.7642 11.4193 31.6718 11.248L26.9221 1.65994C26.2332 0.248874 25.1092 0.248874 24.4566 1.65994L19.725 11.248C19.6269 11.4183 19.4938 11.566 19.3344 11.6814C19.1751 11.7967 18.9931 11.8771 18.8004 11.9173L8.19503 13.455C6.63595 13.6902 6.38214 14.7033 7.43361 15.7887L15.1021 23.2601C15.2377 23.4003 15.3405 23.5687 15.4032 23.7533C15.4659 23.9378 15.4869 24.1339 15.4647 24.3274L13.6518 34.8743C13.4342 36.0321 13.8693 36.6833 14.7033 36.611H14.667Z" fill="url(#paint18_linear_2363_1745)" fill-opacity="0.44"/>
<path d="M25.508 19.8764L19.7612 14.4492H20.2869L25.508 19.8764Z" fill="white"/>
<path d="M33.9561 28.9047L25.5262 19.8594L33.7748 27.7468L33.9561 28.9047Z" fill="white"/>
<path d="M25.5262 19.8768L25.3267 6.48977C25.4243 6.43751 25.5333 6.41016 25.644 6.41016C25.7547 6.41016 25.8637 6.43751 25.9613 6.48977L25.5262 19.8768Z" fill="white"/>
<path d="M25.3267 28.0534L25.6162 19.8945L25.779 27.9268C25.6599 27.9002 25.5364 27.9002 25.4172 27.9268L25.3267 28.0534Z" fill="white"/>
<path d="M25.5262 19.8757L30.9648 14.2676H31.5087L25.5262 19.8757Z" fill="white"/>
<path d="M17.4951 28.201L17.6764 27.1698L25.508 19.9336L17.4951 28.201Z" fill="white"/>
<path d="M35.3338 20.2204L25.5443 19.8767L35.8958 19.6777L35.3338 20.2204Z" fill="white"/>
<path d="M15.8816 20.076L15.3197 19.5332L25.508 19.8769L15.8816 20.076Z" fill="white"/>
<path d="M25.5262 19.8777L22.1723 12.2073L22.4624 11.6465L25.5262 19.8777Z" fill="white"/>
<path d="M25.5262 19.8779L28.8256 11.502L29.1157 12.0809L25.5262 19.8779Z" fill="white"/>
<path d="M20.6676 30.4413L25.5262 19.8945L21.5378 29.9891L20.6676 30.4413Z" fill="white"/>
<path d="M25.5443 19.878L36.5666 15.084L37.9444 15.283L25.5443 19.878Z" fill="white"/>
<path d="M18.4015 22.9728V22.7738C18.4084 22.7137 18.4084 22.653 18.4015 22.5929L25.6531 19.9336L18.4015 22.9728Z" fill="white"/>
<path d="M32.9952 23.2956L25.5262 19.8945L32.9408 22.789V23.0061L32.9952 23.2956Z" fill="white"/>
<path d="M25.508 19.8751L13.6881 15.2258L14.9571 15.0449L25.508 19.8751Z" fill="white"/>
<path d="M29.8771 30.0077L29.0794 29.5916L25.4536 19.877L29.8771 30.0077Z" fill="white"/>
<path d="M25.508 19.8751L21.3384 13.851L21.5016 13.5254L25.508 19.8751Z" fill="white"/>
<path d="M33.3941 31.8151C33.1472 31.7858 32.9077 31.7122 32.687 31.598L25.5443 20.002L33.7204 31.797H33.4122L33.3941 31.8151Z" fill="white"/>
<path d="M25.5262 19.8741L27.5385 8.875L27.9554 9.74331L25.5262 19.8741Z" fill="white"/>
<path d="M23.3145 29.0484L25.5262 19.8945L23.8946 28.7408L23.3145 29.0484Z" fill="white"/>
<path d="M25.5262 19.8762L33.1946 14.5938L33.9742 14.7023L25.5262 19.8762Z" fill="white"/>
<path d="M18.0752 25.0504L18.184 24.3991L25.5443 19.8945L18.0752 25.0504Z" fill="white"/>
<path d="M33.666 21.8302L25.5443 19.8945L34.083 21.4322L33.666 21.8302Z" fill="white"/>
<path d="M25.508 19.8767L13.4161 17.6877L12.7816 17.0727L12.6366 16.9099L12.5278 16.7832L25.508 19.8767Z" fill="white"/>
<path d="M25.5262 19.8764L23.3688 9.79995L23.8039 8.93164L25.5262 19.8764Z" fill="white"/>
<path d="M25.5262 19.8754L29.7502 13.3809L29.9496 13.7789L25.5262 19.8754Z" fill="white"/>
<path d="M17.8396 31.7111H17.6583C17.4874 31.6711 17.3383 31.5676 17.2413 31.4216V31.295L25.5624 19.916L17.8396 31.7111Z" fill="white"/>
<path d="M25.5443 19.8772L38.5245 17.1094L37.6181 17.9958L25.5443 19.8772Z" fill="white"/>
<path d="M17.4407 21.5956L17.0419 21.2157L25.508 19.877L17.4407 21.5956Z" fill="white"/>
<path d="M33.3941 25.6112L25.5262 19.8945L33.2672 24.9056L33.3941 25.6112Z" fill="white"/>
<path d="M25.508 19.8767L17.477 14.6847L18.2384 14.5762L25.508 19.8767Z" fill="white"/>
<path d="M27.3572 28.7046L26.8133 28.4152L25.5262 19.8945L27.3572 28.7046Z" fill="white"/>
<path d="M25.508 19.8764L20.6676 14.214H20.8127L21.0665 14.1055L25.508 19.8764Z" fill="white"/>
<path d="M34.1917 31.165L25.5262 19.8945L34.1374 29.9167V30.4052C34.1924 30.6432 34.1924 30.8907 34.1374 31.1288L34.1917 31.165Z" fill="white"/>
<path d="M25.5262 19.8763L26.5233 6.86914V7.05006L27.0127 8.00886L25.5262 19.8763Z" fill="white"/>
<path d="M24.3841 28.5057L25.5262 19.8945L24.8735 28.2343L24.3841 28.5057Z" fill="white"/>
<path d="M25.5262 19.8764L31.9256 14.4492L32.5601 14.5397L25.5262 19.8764Z" fill="white"/>
<path d="M17.8033 26.4976L17.9302 25.6835L25.508 19.8945L17.8033 26.4976Z" fill="white"/>
<path d="M34.3912 21.0709L25.4718 19.877L34.8625 20.6006L34.3912 21.0709Z" fill="white"/>
<path d="M25.508 19.8765L14.8302 19.0625L14.1413 18.375L25.508 19.8765Z" fill="white"/>
<path d="M25.5262 19.8773L22.6981 11.1757L23.0244 10.4883L25.5262 19.8773Z" fill="white"/>
<path d="M25.5262 19.8756L29.3151 12.4766L29.5508 12.965L25.5262 19.8756Z" fill="white"/>
<path d="M18.8004 31.4182L25.508 19.8945L19.9244 30.7489L18.8004 31.4182Z" fill="white"/>
<path d="M25.5443 19.8768L38.7602 15.6074L38.8871 15.716C38.9476 15.7773 38.9937 15.8514 39.0219 15.9328C39.0501 16.0141 39.0598 16.1007 39.0503 16.1863V16.3129L25.5443 19.8768Z" fill="white"/>
<path d="M18.0752 22.2644L17.7308 21.9207L25.4536 19.8945L18.0752 22.2644Z" fill="white"/>
<path d="M33.1765 24.3267L25.5262 19.8945L33.0677 23.7297L33.1765 24.3267Z" fill="white"/>
<path d="M25.508 19.8784L15.791 14.9216L16.7518 14.7949L25.508 19.8784Z" fill="white"/>
<path d="M28.5174 29.3226L27.8648 28.9789L25.5262 19.9336L28.5174 29.3226Z" fill="white"/>
<path d="M25.508 19.8773L21.701 13.0934L21.9367 12.623L25.508 19.8773Z" fill="white"/>
<path d="M31.7262 31.0021L30.6747 30.4594L25.5262 19.8945L31.7262 31.0021Z" fill="white"/>
<path d="M25.5262 19.876L28.2455 10.3242L28.5899 11.0117L25.5262 19.876Z" fill="white"/>
<path d="M22.1361 29.6815L25.5262 19.8945L22.825 29.3016L22.1361 29.6815Z" fill="white"/>
<path d="M25.5262 19.8778L34.5906 14.8125L35.5877 14.9572L25.5262 19.8778Z" fill="white"/>
<path d="M18.2384 23.9288V23.386L25.4899 19.8945L18.2384 23.9288Z" fill="white"/>
<path d="M33.0496 22.4815L25.5262 19.8945L33.3759 22.1197L33.1765 22.3187C33.1257 22.3541 33.0876 22.4048 33.0677 22.4634L33.0496 22.4815Z" fill="white"/>
<path d="M25.508 19.8788L12.3103 16.1341V15.9351C12.3694 15.7686 12.4848 15.6279 12.6366 15.5371L25.508 19.8788Z" fill="white"/>
<path d="M25.5262 19.875L24.1846 8.15238L24.7285 7.04883L25.5262 19.875Z" fill="white"/>
<path d="M25.5262 19.8764L30.1853 14.0332C30.285 14.1114 30.404 14.1614 30.5297 14.1779L25.5262 19.8764Z" fill="white"/>
<path d="M17.1144 30.4085L17.3319 29.0698L25.4899 19.916L17.1144 30.4085Z" fill="white"/>
<path d="M25.5443 19.8787L37.0198 18.5762L36.3128 19.2636L25.5443 19.8787Z" fill="white"/>
<path d="M16.6974 20.9637L16.2442 20.5114L25.508 19.9688L16.6974 20.9637Z" fill="white"/>
<path d="M33.6479 27.0956L25.5262 19.8594L33.5028 26.1911L33.6479 27.0956Z" fill="white"/>
<path d="M25.508 19.877L18.746 14.4498L19.3624 14.3594L25.508 19.877Z" fill="white"/>
<path d="M26.4145 28.2015L26.0338 28.0025L25.6168 19.916L26.4145 28.2015Z" fill="white"/>
<path d="M33.4122 31.9264C33.1251 31.9018 32.8468 31.8154 32.5964 31.6732L25.9431 28.1997C25.857 28.1639 25.7645 28.1455 25.6712 28.1455C25.5779 28.1455 25.4854 28.1639 25.3993 28.1997L18.746 31.6912C17.5495 32.3063 16.7156 31.6912 16.9331 30.3706L18.2021 22.9715C18.216 22.8803 18.2085 22.787 18.1802 22.6991C18.1519 22.6112 18.1036 22.5311 18.039 22.465L12.6003 17.2369C11.6395 16.2961 11.9658 15.3012 13.2892 15.1022L20.7402 14.0348C20.922 13.9867 21.078 13.8699 21.1753 13.7092L24.511 6.97947C25.0911 5.78549 26.1425 5.78549 26.7408 6.97947L30.0765 13.7092C30.1184 13.7902 30.1773 13.8613 30.2493 13.9175C30.3213 13.9737 30.4046 14.0137 30.4935 14.0348L37.9444 15.1202C39.2678 15.3011 39.5941 16.2961 38.6333 17.2369L33.1946 22.465C33.1337 22.5371 33.0878 22.6207 33.0598 22.7108C33.0318 22.801 33.0222 22.8958 33.0315 22.9896L34.3005 30.3887C34.5724 31.3475 34.1374 31.9445 33.4122 31.9264ZM33.4122 31.5465C33.9379 31.5465 34.1917 31.1847 34.0648 30.4249L32.7958 23.0259C32.7757 22.8729 32.7897 22.7174 32.8367 22.5704C32.8837 22.4234 32.9626 22.2887 33.0677 22.1756L38.5064 16.9474C39.2497 16.2238 39.0503 15.6268 38.0351 15.4821L30.5841 14.3966C30.4339 14.3691 30.292 14.3074 30.1694 14.2165C30.0468 14.1255 29.9468 14.0076 29.8771 13.872L26.5414 7.14228C26.0882 6.21966 25.4537 6.21966 25.0004 7.14228L21.6647 13.8901C21.5881 14.0239 21.4838 14.1399 21.3588 14.2303C21.2337 14.3208 21.0908 14.3837 20.9396 14.4147L13.4886 15.4821C12.4916 15.6268 12.274 16.2419 13.0173 16.9474L18.4559 22.1937C18.5611 22.3067 18.64 22.4415 18.687 22.5885C18.734 22.7355 18.748 22.891 18.7279 23.0439L17.4589 30.443C17.2776 31.4379 17.8033 31.8178 18.7097 31.3475L25.363 27.856C25.5058 27.7932 25.6602 27.7608 25.8162 27.7608C25.9723 27.7608 26.1266 27.7932 26.2694 27.856L32.9227 31.3475C33.0618 31.4383 33.2149 31.5056 33.3759 31.5465H33.4122Z" fill="url(#paint19_linear_2363_1745)"/>
<path d="M20.8852 21.9017C20.5662 22.0123 20.2389 22.097 19.9062 22.155C19.6902 22.1914 19.4696 22.1914 19.2536 22.155C19.1566 22.1502 19.0621 22.1232 18.9772 22.0761C18.8924 22.0291 18.8195 21.9632 18.7641 21.8837C18.7148 21.7886 18.6891 21.6831 18.6891 21.5761C18.6891 21.4691 18.7148 21.3636 18.7641 21.2686C18.8608 21.0629 18.9893 20.8736 19.1448 20.7077C19.3846 20.4459 19.6453 20.2039 19.9244 19.9841C20.3348 19.6737 20.7648 19.3897 21.2115 19.1339C21.6664 18.8725 22.1389 18.6428 22.6256 18.4464C22.9591 18.3061 23.3051 18.1971 23.6589 18.1208C23.8937 18.0926 24.1311 18.0926 24.3659 18.1208C24.479 18.1222 24.5906 18.147 24.6936 18.1937C24.7966 18.2404 24.8888 18.308 24.9642 18.3921C25.0135 18.4872 25.0392 18.5927 25.0392 18.6997C25.0392 18.8067 25.0135 18.9122 24.9642 19.0073C24.8568 19.2166 24.7227 19.4111 24.5653 19.5861C24.3409 19.851 24.0853 20.088 23.8039 20.2917C23.3948 20.6182 22.9581 20.9087 22.4987 21.16C21.9814 21.4496 21.4419 21.6976 20.8852 21.9017Z" fill="white" fill-opacity="0.15"/>
<path d="M20.9396 21.7211C20.656 21.8216 20.3651 21.9002 20.0694 21.9562C19.8764 21.9745 19.6822 21.9745 19.4893 21.9562C19.3201 21.9343 19.165 21.8506 19.0542 21.7211C19.0139 21.6363 18.9929 21.5436 18.9929 21.4497C18.9929 21.3558 19.0139 21.2632 19.0542 21.1784C19.1477 20.9961 19.2634 20.8259 19.3986 20.6718C19.6084 20.4402 19.839 20.2283 20.0875 20.0386C20.4646 19.7421 20.8647 19.4759 21.284 19.2427C21.7026 18.9992 22.1389 18.7876 22.5893 18.6095C22.8876 18.484 23.1972 18.3871 23.5139 18.3201C23.7244 18.2917 23.9378 18.2917 24.1484 18.3201C24.2471 18.3186 24.3448 18.3409 24.4331 18.3849C24.5215 18.429 24.5979 18.4936 24.656 18.5733C24.7056 18.6552 24.7318 18.749 24.7318 18.8447C24.7318 18.9403 24.7056 19.0342 24.656 19.1161C24.5687 19.2978 24.4591 19.4679 24.3297 19.6226C24.115 19.8494 23.8849 20.0609 23.6408 20.2557C23.2573 20.5523 22.8512 20.8184 22.4261 21.0517C21.9473 21.3101 21.4505 21.5338 20.9396 21.7211Z" fill="white" fill-opacity="0.15"/>
<path d="M20.994 21.5577C20.7464 21.6459 20.4916 21.7125 20.2326 21.7567C20.0699 21.7745 19.9057 21.7745 19.7431 21.7567C19.6694 21.7511 19.5976 21.7306 19.5322 21.6963C19.4667 21.6621 19.409 21.615 19.3624 21.5577C19.3191 21.4869 19.2963 21.4055 19.2963 21.3226C19.2963 21.2396 19.3191 21.1583 19.3624 21.0874C19.4375 20.9239 19.5352 20.7717 19.6524 20.6351C19.8374 20.4334 20.0374 20.246 20.2507 20.0743C20.6022 19.8081 20.9717 19.5663 21.3565 19.3507C21.7388 19.1254 22.139 18.9318 22.553 18.7718C22.814 18.6556 23.0878 18.5706 23.3688 18.5185C23.5491 18.4912 23.7324 18.4912 23.9127 18.5185C23.9986 18.5135 24.0845 18.529 24.1633 18.5636C24.2421 18.5982 24.3116 18.6509 24.3659 18.7175C24.4056 18.7896 24.4264 18.8705 24.4264 18.9527C24.4264 19.0349 24.4056 19.1158 24.3659 19.1879C24.295 19.3482 24.1969 19.4951 24.0759 19.6221C23.8848 19.8298 23.6788 20.0232 23.4595 20.2009C23.115 20.4542 22.7162 20.7075 22.3718 20.9246C21.9278 21.1674 21.4674 21.3789 20.994 21.5577Z" fill="white" fill-opacity="0.15"/>
<path d="M21.0483 21.3769C20.8389 21.4633 20.6198 21.524 20.3957 21.5578C20.0875 21.5578 19.7612 21.5578 19.6524 21.395C19.6174 21.3345 19.599 21.2659 19.599 21.196C19.599 21.1261 19.6174 21.0575 19.6524 20.997C19.7202 20.8654 19.8056 20.7437 19.9062 20.6352C20.0624 20.4531 20.2388 20.2892 20.432 20.1467C20.7485 19.901 21.0817 19.6774 21.429 19.4774C21.7788 19.2772 22.1423 19.1019 22.5168 18.9528C22.7455 18.8595 22.9821 18.7868 23.2238 18.7357C23.3797 18.7079 23.5393 18.7079 23.6952 18.7357C23.767 18.7307 23.839 18.7428 23.9052 18.7712C23.9714 18.7995 24.0299 18.8431 24.0759 18.8985C24.1109 18.959 24.1293 19.0276 24.1293 19.0975C24.1293 19.1674 24.1109 19.236 24.0759 19.2965C24.0128 19.4362 23.927 19.5646 23.8221 19.6764C23.6659 19.8586 23.4895 20.0224 23.2963 20.1648C22.9754 20.4045 22.6426 20.6278 22.2992 20.8342C21.897 21.0471 21.4788 21.2286 21.0483 21.3769Z" fill="white" fill-opacity="0.15"/>
<path d="M21.1209 21.2138L20.5589 21.3585C20.3232 21.3585 20.0513 21.3585 19.9425 21.2319C19.9155 21.1818 19.9014 21.1259 19.9014 21.0691C19.9014 21.0122 19.9155 20.9563 19.9425 20.9062C19.9984 20.7973 20.0652 20.6942 20.1419 20.5987C20.2834 20.4499 20.4348 20.311 20.5951 20.1826C20.8831 19.9629 21.1859 19.7634 21.5016 19.5856C21.815 19.4035 22.1424 19.2463 22.4805 19.1153C22.6741 19.0327 22.8742 18.9661 23.0788 18.9163C23.205 18.8977 23.3333 18.8977 23.4595 18.9163C23.519 18.9117 23.5787 18.9226 23.6328 18.948C23.6868 18.9733 23.7333 19.0123 23.7677 19.061C23.7989 19.1063 23.8155 19.1599 23.8155 19.2148C23.8155 19.2697 23.7989 19.3233 23.7677 19.3685C23.7167 19.4899 23.6428 19.6005 23.5501 19.6942C23.413 19.8473 23.2612 19.9866 23.0969 20.1103C22.825 20.3093 22.5168 20.5263 22.2086 20.7072C21.9004 20.8881 21.4834 21.0691 21.1209 21.2138Z" fill="white" fill-opacity="0.15"/>
<path d="M21.1753 20.9606C21.0255 21.0264 20.8665 21.0691 20.7039 21.0872C20.5407 21.0872 20.3232 21.0872 20.2507 20.9967C20.1782 20.9063 20.2507 20.653 20.4138 20.4902C20.5315 20.3658 20.6588 20.2509 20.7945 20.1465C21.0477 19.953 21.3143 19.7778 21.5922 19.6219C21.8712 19.4613 22.1621 19.3222 22.4624 19.2058C22.6197 19.1353 22.7837 19.0807 22.9519 19.043C23.1694 19.043 23.4051 19.043 23.4957 19.043C23.5864 19.043 23.4957 19.3686 23.3326 19.5314L22.9519 19.8751C22.7002 20.0706 22.4335 20.2461 22.1542 20.3998C21.8462 20.6168 21.5184 20.8046 21.1753 20.9606Z" fill="white" fill-opacity="0.15"/>
<path d="M21.2296 20.962L20.8671 21.0524C20.7402 21.0524 20.5951 21.0524 20.5407 21.0524C20.4864 21.0524 20.5407 20.7991 20.6676 20.7087C20.755 20.6088 20.8522 20.5179 20.9577 20.4373C21.1805 20.262 21.4169 20.1048 21.6647 19.967C21.9093 19.8279 22.1638 19.707 22.4261 19.6052C22.546 19.5441 22.6743 19.5014 22.8068 19.4785C22.9519 19.4785 23.1332 19.4785 23.2057 19.4785C23.2782 19.4785 23.2057 19.7318 23.0788 19.8403L22.7887 20.1117L22.0817 20.564C21.8084 20.7183 21.5235 20.8514 21.2296 20.962Z" fill="white" fill-opacity="0.15"/>
<path d="M21.284 20.6906C21.2004 20.7087 21.1138 20.7087 21.0302 20.6906C21.0302 20.6906 20.8671 20.6906 20.8308 20.6906C20.7945 20.6906 20.8308 20.5459 20.8308 20.4735L21.0302 20.2745C21.1934 20.1479 21.4109 20.0212 21.6466 19.8765C21.8549 19.7554 22.0732 19.6526 22.2992 19.569L22.5712 19.4785C22.5712 19.4785 22.7706 19.4785 22.8068 19.4785C22.8431 19.4785 22.8068 19.6233 22.8068 19.6775C22.7477 19.7571 22.6738 19.8246 22.5893 19.8765C22.4014 20.0257 22.2013 20.1588 21.9911 20.2745C21.767 20.432 21.5306 20.5712 21.284 20.6906Z" fill="white" fill-opacity="0.15"/>
<path d="M21.8098 20.0382C22.2086 19.803 22.5712 19.6583 22.6074 19.7126C22.6437 19.7668 22.3536 20.002 21.9367 20.2372C21.5197 20.4724 21.1753 20.6171 21.139 20.5628C21.1027 20.5086 21.3928 20.2734 21.8098 20.0382Z" fill="white" fill-opacity="0.15"/>
<defs>
<linearGradient id="paint0_linear_2363_1745" x1="47.7521" y1="49.2029" x2="6.00142" y2="49.2029" gradientUnits="userSpaceOnUse">
<stop stop-color="#4D110E"/>
<stop offset="0.42" stop-color="#C88A5D"/>
<stop offset="1" stop-color="#471614"/>
</linearGradient>
<linearGradient id="paint1_linear_2363_1745" x1="34.4274" y1="61.016" x2="20.3828" y2="39.6238" gradientUnits="userSpaceOnUse">
<stop stop-color="#C88A5D"/>
<stop offset="1" stop-color="#4D110E"/>
</linearGradient>
<linearGradient id="paint2_linear_2363_1745" x1="-7385.46" y1="13719" x2="-7917.45" y2="13719" gradientUnits="userSpaceOnUse">
<stop stop-color="#4D110E"/>
<stop offset="0.42" stop-color="#C88A5D"/>
<stop offset="1" stop-color="#471614"/>
</linearGradient>
<linearGradient id="paint3_linear_2363_1745" x1="4549.01" y1="3841.64" x2="4426.75" y2="3604.42" gradientUnits="userSpaceOnUse">
<stop stop-color="#C88A5D"/>
<stop offset="1" stop-color="#4D110E"/>
</linearGradient>
<radialGradient id="paint4_radial_2363_1745" cx="0" cy="0" r="1" gradientUnits="userSpaceOnUse" gradientTransform="translate(16.0281 44.1723) rotate(90) scale(0.705504 0.480778)">
<stop stop-color="#EFD57C"/>
<stop offset="1" stop-color="#CA922E"/>
</radialGradient>
<radialGradient id="paint5_radial_2363_1745" cx="0" cy="0" r="1" gradientUnits="userSpaceOnUse" gradientTransform="translate(280.444 -427.202) rotate(90) scale(0.359807 0.245293)">
<stop stop-color="#EFD57C"/>
<stop offset="1" stop-color="#CA922E"/>
</radialGradient>
<linearGradient id="paint6_linear_2363_1745" x1="18.6009" y1="5.55003" x2="37.8268" y2="41.4936" gradientUnits="userSpaceOnUse">
<stop stop-color="#F6DBA5"/>
<stop offset="0.31" stop-color="#EBB95E"/>
<stop offset="1" stop-color="#9D4C1B"/>
</linearGradient>
<linearGradient id="paint7_linear_2363_1745" x1="16.498" y1="15.9695" x2="15.577" y2="18.7204" gradientUnits="userSpaceOnUse">
<stop stop-color="#F2CE8B"/>
<stop offset="0.5" stop-color="#FCEDD1"/>
<stop offset="1" stop-color="#EFC476"/>
</linearGradient>
<linearGradient id="paint8_linear_2363_1745" x1="27.0852" y1="10.488" x2="24.1846" y2="10.4516" gradientUnits="userSpaceOnUse">
<stop stop-color="#F1CC85"/>
<stop offset="0.5" stop-color="#FCEDD1"/>
<stop offset="1" stop-color="#F3D395"/>
</linearGradient>
<linearGradient id="paint9_linear_2363_1745" x1="35.6602" y1="18.5751" x2="34.8114" y2="15.8062" gradientUnits="userSpaceOnUse">
<stop stop-color="#D39849"/>
<stop offset="0.5" stop-color="#F6DBA5"/>
<stop offset="1" stop-color="#E1AB55"/>
</linearGradient>
<linearGradient id="paint10_linear_2363_1745" x1="18.6372" y1="27.6939" x2="20.9723" y2="29.4172" gradientUnits="userSpaceOnUse">
<stop stop-color="#D79D4C"/>
<stop offset="0.5" stop-color="#EBB95E"/>
<stop offset="1" stop-color="#C98941"/>
</linearGradient>
<linearGradient id="paint11_linear_2363_1745" x1="32.5233" y1="27.7222" x2="30.1996" y2="29.4547" gradientUnits="userSpaceOnUse">
<stop stop-color="#BB7635"/>
<stop offset="0.5" stop-color="#EBB95E"/>
<stop offset="1" stop-color="#BB7635"/>
</linearGradient>
<linearGradient id="paint12_linear_2363_1745" x1="20.9033" y1="16.2215" x2="24.1069" y2="13.6642" gradientUnits="userSpaceOnUse">
<stop stop-color="#F1CC85"/>
<stop offset="0.36" stop-color="#C27834"/>
<stop offset="1" stop-color="#F2CE8A"/>
</linearGradient>
<linearGradient id="paint13_linear_2363_1745" x1="30.4162" y1="16.2413" x2="27.2123" y2="13.6929" gradientUnits="userSpaceOnUse">
<stop stop-color="#E5B059"/>
<stop offset="0.36" stop-color="#C27834"/>
<stop offset="1" stop-color="#EFC475"/>
</linearGradient>
<linearGradient id="paint14_linear_2363_1745" x1="19.1811" y1="20.7462" x2="20.3188" y2="24.6912" gradientUnits="userSpaceOnUse">
<stop stop-color="#EDBF6A"/>
<stop offset="0.36" stop-color="#9C4819"/>
<stop offset="1" stop-color="#DDA652"/>
</linearGradient>
<linearGradient id="paint15_linear_2363_1745" x1="32.1432" y1="20.7627" x2="30.8971" y2="24.6718" gradientUnits="userSpaceOnUse">
<stop stop-color="#D19448"/>
<stop offset="0.35" stop-color="#C27834"/>
<stop offset="1" stop-color="#C4833D"/>
</linearGradient>
<linearGradient id="paint16_linear_2363_1745" x1="27.3209" y1="26.5906" x2="23.2238" y2="26.627" gradientUnits="userSpaceOnUse">
<stop stop-color="#C07E39"/>
<stop offset="0.36" stop-color="#9C4819"/>
<stop offset="1" stop-color="#CB8C43"/>
</linearGradient>
<linearGradient id="paint17_linear_2363_1745" x1="-7265.16" y1="24373.5" x2="-7058.35" y2="24794.7" gradientUnits="userSpaceOnUse">
<stop stop-color="#F6DBA5"/>
<stop offset="0.31" stop-color="#EBB95E"/>
<stop offset="1" stop-color="#9D4C1B"/>
</linearGradient>
<linearGradient id="paint18_linear_2363_1745" x1="16.1717" y1="8.98663" x2="32.319" y2="29.2271" gradientUnits="userSpaceOnUse">
<stop stop-color="white"/>
<stop offset="1" stop-color="#E2E2E2"/>
</linearGradient>
<linearGradient id="paint19_linear_2363_1745" x1="20.2869" y1="12.1715" x2="28.2769" y2="23.8737" gradientUnits="userSpaceOnUse">
<stop stop-color="#FCEDD1"/>
<stop offset="1" stop-color="#DFA34E"/>
</linearGradient>
</defs>
</svg>
